G04 #@! TF.GenerationSoftware,KiCad,Pcbnew,(6.0.6)*
G04 #@! TF.CreationDate,2022-07-18T22:41:36+09:00*
G04 #@! TF.ProjectId,mifune_TE0890_local_board,6d696675-6e65-45f5-9445-303839305f6c,0.1*
G04 #@! TF.SameCoordinates,Original*
G04 #@! TF.FileFunction,Soldermask,Bot*
G04 #@! TF.FilePolarity,Negative*
%FSLAX46Y46*%
G04 Gerber Fmt 4.6, Leading zero omitted, Abs format (unit mm)*
G04 Created by KiCad (PCBNEW (6.0.6)) date 2022-07-18 22:41:36*
%MOMM*%
%LPD*%
G01*
G04 APERTURE LIST*
%ADD10C,1.200000*%
%ADD11C,2.000000*%
%ADD12C,1.000000*%
%ADD13C,3.500000*%
%ADD14C,1.500000*%
%ADD15C,1.400000*%
%ADD16C,6.400000*%
%ADD17R,1.700000X1.700000*%
%ADD18O,1.700000X1.700000*%
%ADD19C,1.381000*%
%ADD20C,3.200000*%
G04 APERTURE END LIST*
D10*
X120419200Y-141732000D03*
X120419200Y-146812000D03*
D11*
X43000000Y-63500000D03*
D12*
X76235000Y-74100000D03*
X77505000Y-74100000D03*
X78775000Y-74100000D03*
X80045000Y-74100000D03*
X81315000Y-74100000D03*
X82585000Y-74100000D03*
X83855000Y-74100000D03*
X85125000Y-74100000D03*
X86395000Y-74100000D03*
X87665000Y-74100000D03*
X88935000Y-74100000D03*
X90205000Y-74100000D03*
X91475000Y-74100000D03*
X92745000Y-74100000D03*
X94015000Y-74100000D03*
X95285000Y-74100000D03*
X96555000Y-74100000D03*
X97825000Y-74100000D03*
X99095000Y-74100000D03*
X100365000Y-74100000D03*
X101635000Y-74100000D03*
X102905000Y-74100000D03*
X104175000Y-74100000D03*
X105445000Y-74100000D03*
X106715000Y-74100000D03*
X107985000Y-74100000D03*
X109255000Y-74100000D03*
X110525000Y-74100000D03*
X111795000Y-74100000D03*
X113065000Y-74100000D03*
X114335000Y-74100000D03*
X115605000Y-74100000D03*
X116875000Y-74100000D03*
X118145000Y-74100000D03*
X119415000Y-74100000D03*
X120685000Y-74100000D03*
X121955000Y-74100000D03*
X123225000Y-74100000D03*
X124495000Y-74100000D03*
X125765000Y-74100000D03*
X125765000Y-48700000D03*
X124495000Y-48700000D03*
X123225000Y-48700000D03*
X121955000Y-48700000D03*
X120685000Y-48700000D03*
X119415000Y-48700000D03*
X118145000Y-48700000D03*
X116875000Y-48700000D03*
X115605000Y-48700000D03*
X114335000Y-48700000D03*
X113065000Y-48700000D03*
X111795000Y-48700000D03*
X110525000Y-48700000D03*
X109255000Y-48700000D03*
X107985000Y-48700000D03*
X106715000Y-48700000D03*
X105445000Y-48700000D03*
X104175000Y-48700000D03*
X102905000Y-48700000D03*
X101635000Y-48700000D03*
X100365000Y-48700000D03*
X99095000Y-48700000D03*
X97825000Y-48700000D03*
X96555000Y-48700000D03*
X95285000Y-48700000D03*
X94015000Y-48700000D03*
X92745000Y-48700000D03*
X91475000Y-48700000D03*
X90205000Y-48700000D03*
X88935000Y-48700000D03*
X87665000Y-48700000D03*
X86395000Y-48700000D03*
X85125000Y-48700000D03*
X83855000Y-48700000D03*
X82585000Y-48700000D03*
X81315000Y-48700000D03*
X80045000Y-48700000D03*
X78775000Y-48700000D03*
X77505000Y-48700000D03*
X76235000Y-48700000D03*
D10*
X129309200Y-141732000D03*
X129309200Y-146812000D03*
D13*
X64000000Y-34000000D03*
D10*
X56919200Y-141732000D03*
X56919200Y-146812000D03*
X93929200Y-141732000D03*
X93929200Y-146812000D03*
D14*
X163499999Y-49499987D03*
D15*
X154193600Y-35200000D03*
X149793600Y-35200000D03*
D10*
X46020000Y-42400000D03*
X43480000Y-42400000D03*
X46020000Y-44940000D03*
X43480000Y-44940000D03*
X46020000Y-47480000D03*
X43480000Y-47480000D03*
X46020000Y-50020000D03*
X43480000Y-50020000D03*
X46020000Y-52560000D03*
X43480000Y-52560000D03*
X46020000Y-55100000D03*
X43480000Y-55100000D03*
D16*
X44750000Y-36050000D03*
D17*
X89670000Y-55420000D03*
D18*
X89670000Y-57960000D03*
X89670000Y-60500000D03*
X89670000Y-63040000D03*
X89670000Y-65580000D03*
X89670000Y-68120000D03*
D19*
X70027800Y-105368600D03*
X72567800Y-105368600D03*
X75107800Y-105368600D03*
X77647800Y-105368600D03*
X80187800Y-105368600D03*
X80187800Y-90128600D03*
X77647800Y-90128600D03*
X75107800Y-90128600D03*
X72567800Y-90128600D03*
X70027800Y-90128600D03*
D10*
X102819200Y-141732000D03*
X102819200Y-146812000D03*
X111709200Y-141732000D03*
X111709200Y-146812000D03*
D20*
X33750000Y-33750000D03*
D10*
X65809200Y-141732000D03*
X65809200Y-146812000D03*
D17*
X76590000Y-55420000D03*
D18*
X76590000Y-57960000D03*
X76590000Y-60500000D03*
X76590000Y-63040000D03*
X76590000Y-65580000D03*
X76590000Y-68120000D03*
D20*
X33750000Y-150250000D03*
D19*
X85902800Y-105368600D03*
X88442800Y-105368600D03*
X90982800Y-105368600D03*
X93522800Y-105368600D03*
X96062800Y-105368600D03*
X96062800Y-90128600D03*
X93522800Y-90128600D03*
X90982800Y-90128600D03*
X88442800Y-90128600D03*
X85902800Y-90128600D03*
D11*
X43000000Y-67000000D03*
D13*
X137000000Y-34000000D03*
D19*
X101777800Y-105368600D03*
X104317800Y-105368600D03*
X106857800Y-105368600D03*
X109397800Y-105368600D03*
X111937800Y-105368600D03*
X111937800Y-90128600D03*
X109397800Y-90128600D03*
X106857800Y-90128600D03*
X104317800Y-90128600D03*
X101777800Y-90128600D03*
D10*
X138199200Y-141732000D03*
X138199200Y-146812000D03*
X155979200Y-141732000D03*
X155979200Y-146812000D03*
D20*
X168250000Y-150250000D03*
D10*
X74699200Y-141732000D03*
X74699200Y-146812000D03*
D17*
X94675000Y-40110000D03*
D18*
X94675000Y-42650000D03*
X97215000Y-40110000D03*
X97215000Y-42650000D03*
X99755000Y-40110000D03*
X99755000Y-42650000D03*
X102295000Y-40110000D03*
X102295000Y-42650000D03*
X104835000Y-40110000D03*
X104835000Y-42650000D03*
X107375000Y-40110000D03*
X107375000Y-42650000D03*
D10*
X147089200Y-141732000D03*
X147089200Y-146812000D03*
D11*
X70220000Y-65670000D03*
D20*
X168250000Y-33750000D03*
D19*
X117017800Y-105368600D03*
X119557800Y-105368600D03*
X122097800Y-105368600D03*
X124637800Y-105368600D03*
X127177800Y-105368600D03*
X127177800Y-90128600D03*
X124637800Y-90128600D03*
X122097800Y-90128600D03*
X119557800Y-90128600D03*
X117017800Y-90128600D03*
D11*
X70270000Y-69020000D03*
D14*
X163499999Y-58499987D03*
D10*
X48209200Y-141732000D03*
X48209200Y-146812000D03*
M02*
