M48
; DRILL file {KiCad (6.0.6)} date Mon Jul 18 22:41:42 2022
; FORMAT={-:-/ absolute / metric / decimal}
; #@! TF.CreationDate,2022-07-18T22:41:42+09:00
; #@! TF.GenerationSoftware,Kicad,Pcbnew,(6.0.6)
; #@! TF.FileFunction,MixedPlating,1,2
FMAT,2
METRIC
; #@! TA.AperFunction,Plated,PTH,ViaDrill
T1C0.635
; #@! TA.AperFunction,Plated,PTH,ComponentDrill
T2C0.650
; #@! TA.AperFunction,Plated,PTH,ComponentDrill
T3C0.700
; #@! TA.AperFunction,Plated,PTH,ComponentDrill
T4C0.750
; #@! TA.AperFunction,Plated,PTH,ComponentDrill
T5C0.800
; #@! TA.AperFunction,Plated,PTH,ComponentDrill
T6C0.850
; #@! TA.AperFunction,Plated,PTH,ComponentDrill
T7C0.900
; #@! TA.AperFunction,Plated,PTH,ComponentDrill
T8C1.000
; #@! TA.AperFunction,Plated,PTH,ComponentDrill
T9C3.200
; #@! TA.AperFunction,NonPlated,NPTH,ComponentDrill
T10C3.200
; #@! TA.AperFunction,NonPlated,NPTH,ComponentDrill
T11C3.500
%
G90
G05
T1
X39.4Y-46.0
X39.4Y-69.2
X43.4Y-106.6
X43.5Y-78.6
X43.6Y-131.6
X43.7Y-73.5
X48.26Y-124.46
X48.531Y-97.469
X49.4Y-133.5
X49.6Y-78.6
X51.816Y-137.262
X52.5Y-120.5
X53.5Y-43.5
X53.9Y-76.9
X53.9Y-115.8
X54.61Y-51.511
X54.61Y-54.0
X55.05Y-36.05
X57.15Y-124.46
X58.2Y-133.0
X60.706Y-137.287
X61.04Y-124.46
X62.6Y-43.7
X66.04Y-124.46
X67.2Y-132.5
X68.218Y-35.718
X68.5Y-112.6
X69.342Y-137.287
X69.94Y-124.46
X73.482Y-39.98
X74.1Y-48.6
X74.6Y-76.6
X74.93Y-124.46
X77.4Y-135.2
X78.232Y-137.287
X80.331Y-97.469
X84.6Y-60.9
X85.165Y-124.435
X85.731Y-97.469
X87.665Y-46.735
X91.7Y-71.0
X93.98Y-124.435
X96.2Y-97.5
X97.5Y-50.5
X97.5Y-71.0
X97.5Y-135.3
X97.536Y-137.287
X97.6Y-56.9
X97.6Y-114.8
X100.365Y-50.535
X100.365Y-71.035
X100.4Y-76.7
X100.7Y-114.8
X100.8Y-97.5
X101.3Y-133.3
X102.2Y-46.8
X102.87Y-124.435
X106.426Y-137.287
X109.2Y-38.4
X110.0Y-133.8
X111.76Y-124.435
X112.001Y-97.799
X113.4Y-59.4
X115.291Y-137.262
X116.701Y-97.799
X118.7Y-134.3
X120.625Y-124.46
X121.0Y-120.8
X121.9Y-135.0
X122.6Y-59.5
X123.0Y-70.9
X123.1Y-65.3
X123.952Y-137.287
X124.9Y-76.5
X126.0Y-70.9
X126.6Y-115.0
X127.2Y-55.7
X127.401Y-97.799
X129.54Y-124.46
X130.7Y-82.1
X130.7Y-120.0
X132.842Y-137.287
X135.4Y-41.7
X136.2Y-115.5
X136.5Y-133.6
X136.9Y-38.7
X138.3Y-106.7
X138.43Y-124.46
X140.5Y-102.1
X140.7Y-67.1
X141.732Y-137.287
X142.5Y-120.3
X144.4Y-32.1
X145.5Y-134.0
X147.295Y-124.46
X147.648Y-43.538
X147.9Y-55.1
X150.622Y-137.287
X151.979Y-51.5
X154.4Y-134.4
X155.4Y-45.1
X156.185Y-124.46
X157.0Y-55.9
X157.5Y-135.2
X158.7Y-32.1
X159.715Y-137.287
X163.5Y-125.5
T2
X76.235Y-48.7
X76.235Y-74.1
X77.505Y-48.7
X77.505Y-74.1
X78.775Y-48.7
X78.775Y-74.1
X80.045Y-48.7
X80.045Y-74.1
X81.315Y-48.7
X81.315Y-74.1
X82.585Y-48.7
X82.585Y-74.1
X83.855Y-48.7
X83.855Y-74.1
X85.125Y-48.7
X85.125Y-74.1
X86.395Y-48.7
X86.395Y-74.1
X87.665Y-48.7
X87.665Y-74.1
X88.935Y-48.7
X88.935Y-74.1
X90.205Y-48.7
X90.205Y-74.1
X91.475Y-48.7
X91.475Y-74.1
X92.745Y-48.7
X92.745Y-74.1
X94.015Y-48.7
X94.015Y-74.1
X95.285Y-48.7
X95.285Y-74.1
X96.555Y-48.7
X96.555Y-74.1
X97.825Y-48.7
X97.825Y-74.1
X99.095Y-48.7
X99.095Y-74.1
X100.365Y-48.7
X100.365Y-74.1
X101.635Y-48.7
X101.635Y-74.1
X102.905Y-48.7
X102.905Y-74.1
X104.175Y-48.7
X104.175Y-74.1
X105.445Y-48.7
X105.445Y-74.1
X106.715Y-48.7
X106.715Y-74.1
X107.985Y-48.7
X107.985Y-74.1
X109.255Y-48.7
X109.255Y-74.1
X110.525Y-48.7
X110.525Y-74.1
X111.795Y-48.7
X111.795Y-74.1
X113.065Y-48.7
X113.065Y-74.1
X114.335Y-48.7
X114.335Y-74.1
X115.605Y-48.7
X115.605Y-74.1
X116.875Y-48.7
X116.875Y-74.1
X118.145Y-48.7
X118.145Y-74.1
X119.415Y-48.7
X119.415Y-74.1
X120.685Y-48.7
X120.685Y-74.1
X121.955Y-48.7
X121.955Y-74.1
X123.225Y-48.7
X123.225Y-74.1
X124.495Y-48.7
X124.495Y-74.1
X125.765Y-48.7
X125.765Y-74.1
T3
X163.5Y-49.5
X163.5Y-58.5
T4
X48.209Y-141.732
X48.209Y-146.812
X56.919Y-141.732
X56.919Y-146.812
X65.809Y-141.732
X65.809Y-146.812
X74.699Y-141.732
X74.699Y-146.812
X93.929Y-141.732
X93.929Y-146.812
X102.819Y-141.732
X102.819Y-146.812
X111.709Y-141.732
X111.709Y-146.812
X120.419Y-141.732
X120.419Y-146.812
X129.309Y-141.732
X129.309Y-146.812
X138.199Y-141.732
X138.199Y-146.812
X147.089Y-141.732
X147.089Y-146.812
X155.979Y-141.732
X155.979Y-146.812
T5
X43.48Y-42.4
X43.48Y-44.94
X43.48Y-47.48
X43.48Y-50.02
X43.48Y-52.56
X43.48Y-55.1
X46.02Y-42.4
X46.02Y-44.94
X46.02Y-47.48
X46.02Y-50.02
X46.02Y-52.56
X46.02Y-55.1
T6
X70.028Y-90.129
X70.028Y-105.369
X72.568Y-90.129
X72.568Y-105.369
X75.108Y-90.129
X75.108Y-105.369
X77.648Y-90.129
X77.648Y-105.369
X80.188Y-90.129
X80.188Y-105.369
X85.903Y-90.129
X85.903Y-105.369
X88.443Y-90.129
X88.443Y-105.369
X90.983Y-90.129
X90.983Y-105.369
X93.523Y-90.129
X93.523Y-105.369
X96.063Y-90.129
X96.063Y-105.369
X101.778Y-90.129
X101.778Y-105.369
X104.318Y-90.129
X104.318Y-105.369
X106.858Y-90.129
X106.858Y-105.369
X109.398Y-90.129
X109.398Y-105.369
X111.938Y-90.129
X111.938Y-105.369
X117.018Y-90.129
X117.018Y-105.369
X119.558Y-90.129
X119.558Y-105.369
X122.098Y-90.129
X122.098Y-105.369
X124.638Y-90.129
X124.638Y-105.369
X127.178Y-90.129
X127.178Y-105.369
T7
X149.794Y-35.2
X154.194Y-35.2
T8
X43.0Y-63.5
X43.0Y-67.0
X70.22Y-65.67
X70.27Y-69.02
X76.59Y-55.42
X76.59Y-57.96
X76.59Y-60.5
X76.59Y-63.04
X76.59Y-65.58
X76.59Y-68.12
X89.67Y-55.42
X89.67Y-57.96
X89.67Y-60.5
X89.67Y-63.04
X89.67Y-65.58
X89.67Y-68.12
X94.675Y-40.11
X94.675Y-42.65
X97.215Y-40.11
X97.215Y-42.65
X99.755Y-40.11
X99.755Y-42.65
X102.295Y-40.11
X102.295Y-42.65
X104.835Y-40.11
X104.835Y-42.65
X107.375Y-40.11
X107.375Y-42.65
T9
X44.75Y-36.05
T10
X33.75Y-33.75
X33.75Y-150.25
X168.25Y-33.75
X168.25Y-150.25
T11
X64.0Y-34.0
X137.0Y-34.0
T0
M30
