G04 #@! TF.GenerationSoftware,KiCad,Pcbnew,(6.0.6)*
G04 #@! TF.CreationDate,2022-07-18T22:41:36+09:00*
G04 #@! TF.ProjectId,mifune_TE0890_local_board,6d696675-6e65-45f5-9445-303839305f6c,0.1*
G04 #@! TF.SameCoordinates,Original*
G04 #@! TF.FileFunction,Soldermask,Top*
G04 #@! TF.FilePolarity,Negative*
%FSLAX46Y46*%
G04 Gerber Fmt 4.6, Leading zero omitted, Abs format (unit mm)*
G04 Created by KiCad (PCBNEW (6.0.6)) date 2022-07-18 22:41:36*
%MOMM*%
%LPD*%
G01*
G04 APERTURE LIST*
G04 Aperture macros list*
%AMRoundRect*
0 Rectangle with rounded corners*
0 $1 Rounding radius*
0 $2 $3 $4 $5 $6 $7 $8 $9 X,Y pos of 4 corners*
0 Add a 4 corners polygon primitive as box body*
4,1,4,$2,$3,$4,$5,$6,$7,$8,$9,$2,$3,0*
0 Add four circle primitives for the rounded corners*
1,1,$1+$1,$2,$3*
1,1,$1+$1,$4,$5*
1,1,$1+$1,$6,$7*
1,1,$1+$1,$8,$9*
0 Add four rect primitives between the rounded corners*
20,1,$1+$1,$2,$3,$4,$5,0*
20,1,$1+$1,$4,$5,$6,$7,0*
20,1,$1+$1,$6,$7,$8,$9,0*
20,1,$1+$1,$8,$9,$2,$3,0*%
G04 Aperture macros list end*
%ADD10C,1.200000*%
%ADD11R,0.700000X1.000000*%
%ADD12R,0.700000X0.600000*%
%ADD13RoundRect,0.250001X-0.624999X0.462499X-0.624999X-0.462499X0.624999X-0.462499X0.624999X0.462499X0*%
%ADD14RoundRect,0.250000X0.350000X0.450000X-0.350000X0.450000X-0.350000X-0.450000X0.350000X-0.450000X0*%
%ADD15RoundRect,0.250000X0.450000X-0.350000X0.450000X0.350000X-0.450000X0.350000X-0.450000X-0.350000X0*%
%ADD16C,2.000000*%
%ADD17C,1.000000*%
%ADD18C,3.500000*%
%ADD19RoundRect,0.250001X0.462499X0.624999X-0.462499X0.624999X-0.462499X-0.624999X0.462499X-0.624999X0*%
%ADD20RoundRect,0.250000X-0.450000X0.350000X-0.450000X-0.350000X0.450000X-0.350000X0.450000X0.350000X0*%
%ADD21C,1.500000*%
%ADD22R,0.500000X2.300000*%
%ADD23R,2.000000X2.500000*%
%ADD24C,1.400000*%
%ADD25C,6.400000*%
%ADD26R,1.700000X1.700000*%
%ADD27O,1.700000X1.700000*%
%ADD28C,1.381000*%
%ADD29C,3.200000*%
%ADD30RoundRect,0.250000X-0.475000X0.337500X-0.475000X-0.337500X0.475000X-0.337500X0.475000X0.337500X0*%
%ADD31RoundRect,0.250000X-0.350000X-0.450000X0.350000X-0.450000X0.350000X0.450000X-0.350000X0.450000X0*%
%ADD32RoundRect,0.250001X0.624999X-0.462499X0.624999X0.462499X-0.624999X0.462499X-0.624999X-0.462499X0*%
G04 APERTURE END LIST*
D10*
X120419200Y-141732000D03*
X120419200Y-146812000D03*
D11*
X151000000Y-45250000D03*
D12*
X151000000Y-46950000D03*
X153000000Y-46950000D03*
X153000000Y-45050000D03*
D13*
X111760000Y-126604700D03*
X111760000Y-129579700D03*
D14*
X113709200Y-137287000D03*
X111709200Y-137287000D03*
X95929200Y-137287000D03*
X93929200Y-137287000D03*
D15*
X93522800Y-87106000D03*
X93522800Y-85106000D03*
X109423200Y-110362400D03*
X109423200Y-108362400D03*
X88442800Y-87106000D03*
X88442800Y-85106000D03*
D14*
X157981400Y-137287000D03*
X155981400Y-137287000D03*
D15*
X96062800Y-110372400D03*
X96062800Y-108372400D03*
X104343200Y-110362400D03*
X104343200Y-108362400D03*
D13*
X74930000Y-126615800D03*
X74930000Y-129590800D03*
D15*
X96697800Y-129600200D03*
X96697800Y-127600200D03*
D13*
X48260000Y-126619000D03*
X48260000Y-129594000D03*
D15*
X77622400Y-87115400D03*
X77622400Y-85115400D03*
X132207000Y-129565400D03*
X132207000Y-127565400D03*
D16*
X43000000Y-63500000D03*
D17*
X76235000Y-74100000D03*
X77505000Y-74100000D03*
X78775000Y-74100000D03*
X80045000Y-74100000D03*
X81315000Y-74100000D03*
X82585000Y-74100000D03*
X83855000Y-74100000D03*
X85125000Y-74100000D03*
X86395000Y-74100000D03*
X87665000Y-74100000D03*
X88935000Y-74100000D03*
X90205000Y-74100000D03*
X91475000Y-74100000D03*
X92745000Y-74100000D03*
X94015000Y-74100000D03*
X95285000Y-74100000D03*
X96555000Y-74100000D03*
X97825000Y-74100000D03*
X99095000Y-74100000D03*
X100365000Y-74100000D03*
X101635000Y-74100000D03*
X102905000Y-74100000D03*
X104175000Y-74100000D03*
X105445000Y-74100000D03*
X106715000Y-74100000D03*
X107985000Y-74100000D03*
X109255000Y-74100000D03*
X110525000Y-74100000D03*
X111795000Y-74100000D03*
X113065000Y-74100000D03*
X114335000Y-74100000D03*
X115605000Y-74100000D03*
X116875000Y-74100000D03*
X118145000Y-74100000D03*
X119415000Y-74100000D03*
X120685000Y-74100000D03*
X121955000Y-74100000D03*
X123225000Y-74100000D03*
X124495000Y-74100000D03*
X125765000Y-74100000D03*
X125765000Y-48700000D03*
X124495000Y-48700000D03*
X123225000Y-48700000D03*
X121955000Y-48700000D03*
X120685000Y-48700000D03*
X119415000Y-48700000D03*
X118145000Y-48700000D03*
X116875000Y-48700000D03*
X115605000Y-48700000D03*
X114335000Y-48700000D03*
X113065000Y-48700000D03*
X111795000Y-48700000D03*
X110525000Y-48700000D03*
X109255000Y-48700000D03*
X107985000Y-48700000D03*
X106715000Y-48700000D03*
X105445000Y-48700000D03*
X104175000Y-48700000D03*
X102905000Y-48700000D03*
X101635000Y-48700000D03*
X100365000Y-48700000D03*
X99095000Y-48700000D03*
X97825000Y-48700000D03*
X96555000Y-48700000D03*
X95285000Y-48700000D03*
X94015000Y-48700000D03*
X92745000Y-48700000D03*
X91475000Y-48700000D03*
X90205000Y-48700000D03*
X88935000Y-48700000D03*
X87665000Y-48700000D03*
X86395000Y-48700000D03*
X85125000Y-48700000D03*
X83855000Y-48700000D03*
X82585000Y-48700000D03*
X81315000Y-48700000D03*
X80045000Y-48700000D03*
X78775000Y-48700000D03*
X77505000Y-48700000D03*
X76235000Y-48700000D03*
D15*
X127177800Y-87106000D03*
X127177800Y-85106000D03*
X68732400Y-129600200D03*
X68732400Y-127600200D03*
D10*
X129309200Y-141732000D03*
X129309200Y-146812000D03*
D18*
X64000000Y-34000000D03*
D10*
X56919200Y-141732000D03*
X56919200Y-146812000D03*
D15*
X124663200Y-110372400D03*
X124663200Y-108372400D03*
D19*
X71487500Y-40000000D03*
X68512500Y-40000000D03*
D15*
X111937800Y-87106000D03*
X111937800Y-85106000D03*
D13*
X129540000Y-126604700D03*
X129540000Y-129579700D03*
D15*
X72567800Y-110350400D03*
X72567800Y-108350400D03*
X96062800Y-87106000D03*
X96062800Y-85106000D03*
X70027800Y-110372400D03*
X70027800Y-108372400D03*
D20*
X150499999Y-49499987D03*
X150499999Y-51499987D03*
D15*
X101777800Y-87106000D03*
X101777800Y-85106000D03*
D20*
X153499999Y-49499987D03*
X153499999Y-51499987D03*
D10*
X93929200Y-141732000D03*
X93929200Y-146812000D03*
D21*
X163499999Y-49499987D03*
D22*
X153593600Y-37700000D03*
X152793600Y-37700000D03*
X151993600Y-37700000D03*
X151193600Y-37700000D03*
X150393600Y-37700000D03*
D23*
X156443600Y-37700000D03*
X147543600Y-37700000D03*
X156443600Y-32200000D03*
X147543600Y-32200000D03*
D24*
X154193600Y-35200000D03*
X149793600Y-35200000D03*
D14*
X76701400Y-137287000D03*
X74701400Y-137287000D03*
D10*
X46020000Y-42400000D03*
X43480000Y-42400000D03*
X46020000Y-44940000D03*
X43480000Y-44940000D03*
X46020000Y-47480000D03*
X43480000Y-47480000D03*
X46020000Y-50020000D03*
X43480000Y-50020000D03*
X46020000Y-52560000D03*
X43480000Y-52560000D03*
X46020000Y-55100000D03*
X43480000Y-55100000D03*
D25*
X44750000Y-36050000D03*
D15*
X150012400Y-129565400D03*
X150012400Y-127565400D03*
D26*
X89670000Y-55420000D03*
D27*
X89670000Y-57960000D03*
X89670000Y-60500000D03*
X89670000Y-63040000D03*
X89670000Y-65580000D03*
X89670000Y-68120000D03*
D28*
X70027800Y-105368600D03*
X72567800Y-105368600D03*
X75107800Y-105368600D03*
X77647800Y-105368600D03*
X80187800Y-105368600D03*
X80187800Y-90128600D03*
X77647800Y-90128600D03*
X75107800Y-90128600D03*
X72567800Y-90128600D03*
X70027800Y-90128600D03*
D14*
X149116800Y-137287000D03*
X147116800Y-137287000D03*
D10*
X102819200Y-141732000D03*
X102819200Y-146812000D03*
D20*
X159499999Y-49499987D03*
X159499999Y-51499987D03*
D15*
X156499999Y-51499987D03*
X156499999Y-49499987D03*
X123317000Y-129565400D03*
X123317000Y-127565400D03*
D10*
X111709200Y-141732000D03*
X111709200Y-146812000D03*
D15*
X101803200Y-110372400D03*
X101803200Y-108372400D03*
X111963200Y-110372400D03*
X111963200Y-108372400D03*
D29*
X33750000Y-33750000D03*
D13*
X102870000Y-126604700D03*
X102870000Y-129579700D03*
D15*
X80187800Y-110372400D03*
X80187800Y-108372400D03*
X117043200Y-110372400D03*
X117043200Y-108372400D03*
D10*
X65809200Y-141732000D03*
X65809200Y-146812000D03*
D13*
X66040000Y-126604700D03*
X66040000Y-129579700D03*
D26*
X76590000Y-55420000D03*
D27*
X76590000Y-57960000D03*
X76590000Y-60500000D03*
X76590000Y-63040000D03*
X76590000Y-65580000D03*
X76590000Y-68120000D03*
D13*
X93980000Y-126604700D03*
X93980000Y-129579700D03*
D14*
X104819200Y-137287000D03*
X102819200Y-137287000D03*
D30*
X144500000Y-41462500D03*
X144500000Y-43537500D03*
D14*
X140201400Y-137287000D03*
X138201400Y-137287000D03*
D29*
X33750000Y-150250000D03*
D28*
X85902800Y-105368600D03*
X88442800Y-105368600D03*
X90982800Y-105368600D03*
X93522800Y-105368600D03*
X96062800Y-105368600D03*
X96062800Y-90128600D03*
X93522800Y-90128600D03*
X90982800Y-90128600D03*
X88442800Y-90128600D03*
X85902800Y-90128600D03*
D13*
X120624600Y-126604700D03*
X120624600Y-129579700D03*
D15*
X80162400Y-87115400D03*
X80162400Y-85115400D03*
X85902800Y-110372400D03*
X85902800Y-108372400D03*
X85902800Y-87106000D03*
X85902800Y-85106000D03*
D14*
X122421400Y-137287000D03*
X120421400Y-137287000D03*
D15*
X119557800Y-87106000D03*
X119557800Y-85106000D03*
X114477800Y-129549400D03*
X114477800Y-127549400D03*
X105562400Y-129514600D03*
X105562400Y-127514600D03*
X109397800Y-87106000D03*
X109397800Y-85106000D03*
D16*
X43000000Y-67000000D03*
D18*
X137000000Y-34000000D03*
D28*
X101777800Y-105368600D03*
X104317800Y-105368600D03*
X106857800Y-105368600D03*
X109397800Y-105368600D03*
X111937800Y-105368600D03*
X111937800Y-90128600D03*
X109397800Y-90128600D03*
X106857800Y-90128600D03*
X104317800Y-90128600D03*
X101777800Y-90128600D03*
D31*
X64000000Y-40000000D03*
X66000000Y-40000000D03*
X51000000Y-51500000D03*
X53000000Y-51500000D03*
D10*
X138199200Y-141732000D03*
X138199200Y-146812000D03*
X155979200Y-141732000D03*
X155979200Y-146812000D03*
D15*
X127203200Y-110372400D03*
X127203200Y-108372400D03*
D29*
X168250000Y-150250000D03*
D15*
X119583200Y-110372400D03*
X119583200Y-108372400D03*
X72542400Y-87115400D03*
X72542400Y-85115400D03*
D31*
X51000000Y-54000000D03*
X53000000Y-54000000D03*
D10*
X74699200Y-141732000D03*
X74699200Y-146812000D03*
D14*
X67811400Y-137287000D03*
X65811400Y-137287000D03*
X131311400Y-137287000D03*
X129311400Y-137287000D03*
D15*
X50952400Y-129600200D03*
X50952400Y-127600200D03*
X77647800Y-110372400D03*
X77647800Y-108372400D03*
X59842400Y-129616200D03*
X59842400Y-127616200D03*
X70002400Y-87115400D03*
X70002400Y-85115400D03*
D13*
X147294600Y-126604700D03*
X147294600Y-129579700D03*
D14*
X50199800Y-137261600D03*
X48199800Y-137261600D03*
D15*
X77647800Y-129600200D03*
X77647800Y-127600200D03*
D26*
X94675000Y-40110000D03*
D27*
X94675000Y-42650000D03*
X97215000Y-40110000D03*
X97215000Y-42650000D03*
X99755000Y-40110000D03*
X99755000Y-42650000D03*
X102295000Y-40110000D03*
X102295000Y-42650000D03*
X104835000Y-40110000D03*
X104835000Y-42650000D03*
X107375000Y-40110000D03*
X107375000Y-42650000D03*
D13*
X156184600Y-126604700D03*
X156184600Y-129579700D03*
D15*
X117017800Y-87106000D03*
X117017800Y-85106000D03*
X158902400Y-129565400D03*
X158902400Y-127565400D03*
D10*
X147089200Y-141732000D03*
X147089200Y-146812000D03*
D15*
X124637800Y-87106000D03*
X124637800Y-85106000D03*
D16*
X70220000Y-65670000D03*
D29*
X168250000Y-33750000D03*
D15*
X104317800Y-87106000D03*
X104317800Y-85106000D03*
D14*
X58921400Y-137282000D03*
X56921400Y-137282000D03*
D13*
X57150000Y-126619000D03*
X57150000Y-129594000D03*
D15*
X141020800Y-129565400D03*
X141020800Y-127565400D03*
X88442800Y-110372400D03*
X88442800Y-108372400D03*
D28*
X117017800Y-105368600D03*
X119557800Y-105368600D03*
X122097800Y-105368600D03*
X124637800Y-105368600D03*
X127177800Y-105368600D03*
X127177800Y-90128600D03*
X124637800Y-90128600D03*
X122097800Y-90128600D03*
X119557800Y-90128600D03*
X117017800Y-90128600D03*
D16*
X70270000Y-69020000D03*
D32*
X159499999Y-58487487D03*
X159499999Y-55512487D03*
D21*
X163499999Y-58499987D03*
D15*
X93522800Y-110372400D03*
X93522800Y-108372400D03*
D13*
X138430000Y-126604700D03*
X138430000Y-129579700D03*
D10*
X48209200Y-141732000D03*
X48209200Y-146812000D03*
M02*
