G04 #@! TF.GenerationSoftware,KiCad,Pcbnew,(5.1.8)-1*
G04 #@! TF.CreationDate,2021-01-01T13:05:33+09:00*
G04 #@! TF.ProjectId,mifune_TE0890_local_board,6d696675-6e65-45f5-9445-303839305f6c,0.1*
G04 #@! TF.SameCoordinates,Original*
G04 #@! TF.FileFunction,Soldermask,Bot*
G04 #@! TF.FilePolarity,Negative*
%FSLAX46Y46*%
G04 Gerber Fmt 4.6, Leading zero omitted, Abs format (unit mm)*
G04 Created by KiCad (PCBNEW (5.1.8)-1) date 2021-01-01 13:05:33*
%MOMM*%
%LPD*%
G01*
G04 APERTURE LIST*
%ADD10C,1.000000*%
%ADD11C,1.200000*%
%ADD12C,6.400000*%
%ADD13C,2.000000*%
%ADD14C,1.381000*%
%ADD15C,1.400000*%
%ADD16O,1.700000X1.700000*%
%ADD17R,1.700000X1.700000*%
%ADD18C,3.200000*%
%ADD19C,1.500000*%
G04 APERTURE END LIST*
D10*
X137795000Y-66040000D03*
X137795000Y-40640000D03*
X136525000Y-66040000D03*
X136525000Y-40640000D03*
X135255000Y-66040000D03*
X135255000Y-40640000D03*
X133985000Y-66040000D03*
X133985000Y-40640000D03*
X132715000Y-66040000D03*
X132715000Y-40640000D03*
X131445000Y-66040000D03*
X131445000Y-40640000D03*
X130175000Y-66040000D03*
X130175000Y-40640000D03*
X128905000Y-66040000D03*
X128905000Y-40640000D03*
X127635000Y-66040000D03*
X127635000Y-40640000D03*
X126365000Y-66040000D03*
X126365000Y-40640000D03*
X125095000Y-66040000D03*
X125095000Y-40640000D03*
X123825000Y-66040000D03*
X123825000Y-40640000D03*
X122555000Y-66040000D03*
X122555000Y-40640000D03*
X121285000Y-66040000D03*
X121285000Y-40640000D03*
X120015000Y-66040000D03*
X120015000Y-40640000D03*
X118745000Y-66040000D03*
X118745000Y-40640000D03*
X117475000Y-66040000D03*
X117475000Y-40640000D03*
X116205000Y-66040000D03*
X116205000Y-40640000D03*
X114935000Y-66040000D03*
X114935000Y-40640000D03*
X113665000Y-66040000D03*
X113665000Y-40640000D03*
X112395000Y-66040000D03*
X112395000Y-40640000D03*
X111125000Y-66040000D03*
X111125000Y-40640000D03*
X109855000Y-66040000D03*
X109855000Y-40640000D03*
X108585000Y-66040000D03*
X108585000Y-40640000D03*
X107315000Y-66040000D03*
X107315000Y-40640000D03*
X106045000Y-66040000D03*
X106045000Y-40640000D03*
X104775000Y-66040000D03*
X104775000Y-40640000D03*
X103505000Y-66040000D03*
X103505000Y-40640000D03*
X102235000Y-66040000D03*
X102235000Y-40640000D03*
X100965000Y-66040000D03*
X100965000Y-40640000D03*
X99695000Y-66040000D03*
X99695000Y-40640000D03*
X98425000Y-66040000D03*
X98425000Y-40640000D03*
X97155000Y-66040000D03*
X97155000Y-40640000D03*
X95885000Y-66040000D03*
X95885000Y-40640000D03*
X94615000Y-66040000D03*
X94615000Y-40640000D03*
X93345000Y-66040000D03*
X93345000Y-40640000D03*
X92075000Y-66040000D03*
X92075000Y-40640000D03*
X90805000Y-66040000D03*
X90805000Y-40640000D03*
X89535000Y-66040000D03*
X89535000Y-40640000D03*
X88265000Y-66040000D03*
X88265000Y-40640000D03*
D11*
X48895000Y-53975000D03*
X51435000Y-56515000D03*
X51435000Y-53975000D03*
X48895000Y-56515000D03*
X48895000Y-51435000D03*
X51435000Y-59055000D03*
X51435000Y-51435000D03*
X48895000Y-59055000D03*
X48895000Y-48895000D03*
X51435000Y-61595000D03*
X51435000Y-48895000D03*
X48895000Y-61595000D03*
D12*
X50165000Y-42545000D03*
D13*
X70485000Y-57785000D03*
X70485000Y-52705000D03*
D14*
X108585000Y-92710000D03*
X111125000Y-92710000D03*
X113665000Y-92710000D03*
X116205000Y-92710000D03*
X118745000Y-92710000D03*
X118745000Y-107950000D03*
X116205000Y-107950000D03*
X113665000Y-107950000D03*
X111125000Y-107950000D03*
X108585000Y-107950000D03*
X92075000Y-107950000D03*
X94615000Y-107950000D03*
X97155000Y-107950000D03*
X99695000Y-107950000D03*
X102235000Y-107950000D03*
X102235000Y-92710000D03*
X99695000Y-92710000D03*
X97155000Y-92710000D03*
X94615000Y-92710000D03*
X92075000Y-92710000D03*
X75565000Y-92710000D03*
X78105000Y-92710000D03*
X80645000Y-92710000D03*
X83185000Y-92710000D03*
X85725000Y-92710000D03*
X85725000Y-107950000D03*
X83185000Y-107950000D03*
X80645000Y-107950000D03*
X78105000Y-107950000D03*
X75565000Y-107950000D03*
X59055000Y-107950000D03*
X61595000Y-107950000D03*
X64135000Y-107950000D03*
X66675000Y-107950000D03*
X69215000Y-107950000D03*
X69215000Y-92710000D03*
X66675000Y-92710000D03*
X64135000Y-92710000D03*
X61595000Y-92710000D03*
X59055000Y-92710000D03*
D15*
X162200000Y-37000000D03*
X157800000Y-37000000D03*
D11*
X59690000Y-140970000D03*
X59690000Y-135890000D03*
X68580000Y-135890000D03*
X68580000Y-140970000D03*
X77470000Y-140970000D03*
X77470000Y-135890000D03*
X86360000Y-135890000D03*
X86360000Y-140970000D03*
X101600000Y-140970000D03*
X101600000Y-135890000D03*
X110490000Y-135890000D03*
X110490000Y-140970000D03*
X119380000Y-140970000D03*
X119380000Y-135890000D03*
X128270000Y-135890000D03*
X128270000Y-140970000D03*
X137160000Y-140970000D03*
X137160000Y-135890000D03*
X146050000Y-135890000D03*
X146050000Y-140970000D03*
X154940000Y-140970000D03*
X154940000Y-135890000D03*
X163830000Y-135890000D03*
X163830000Y-140970000D03*
D16*
X101710000Y-60060000D03*
X101710000Y-57520000D03*
X101710000Y-54980000D03*
X101710000Y-52440000D03*
X101710000Y-49900000D03*
D17*
X101710000Y-47360000D03*
X88620000Y-47340000D03*
D16*
X88620000Y-49880000D03*
X88620000Y-52420000D03*
X88620000Y-54960000D03*
X88620000Y-57500000D03*
X88620000Y-60040000D03*
D18*
X41910000Y-35560000D03*
X41910000Y-148590000D03*
X173990000Y-35560000D03*
X173990000Y-148590000D03*
D13*
X81915000Y-52705000D03*
X81915000Y-57785000D03*
D19*
X96520000Y-34925000D03*
X99060000Y-34925000D03*
X101600000Y-34925000D03*
X104140000Y-34925000D03*
X106680000Y-34925000D03*
X109220000Y-34925000D03*
X111760000Y-34925000D03*
X114300000Y-34925000D03*
X116840000Y-34925000D03*
X93980000Y-34925000D03*
M02*
