G04 #@! TF.GenerationSoftware,KiCad,Pcbnew,(5.1.8)-1*
G04 #@! TF.CreationDate,2021-01-01T13:05:33+09:00*
G04 #@! TF.ProjectId,mifune_TE0890_local_board,6d696675-6e65-45f5-9445-303839305f6c,0.1*
G04 #@! TF.SameCoordinates,Original*
G04 #@! TF.FileFunction,Copper,L1,Top*
G04 #@! TF.FilePolarity,Positive*
%FSLAX46Y46*%
G04 Gerber Fmt 4.6, Leading zero omitted, Abs format (unit mm)*
G04 Created by KiCad (PCBNEW (5.1.8)-1) date 2021-01-01 13:05:33*
%MOMM*%
%LPD*%
G01*
G04 APERTURE LIST*
G04 #@! TA.AperFunction,ComponentPad*
%ADD10C,1.000000*%
G04 #@! TD*
G04 #@! TA.AperFunction,ComponentPad*
%ADD11C,1.200000*%
G04 #@! TD*
G04 #@! TA.AperFunction,ComponentPad*
%ADD12C,6.400000*%
G04 #@! TD*
G04 #@! TA.AperFunction,ComponentPad*
%ADD13C,2.000000*%
G04 #@! TD*
G04 #@! TA.AperFunction,SMDPad,CuDef*
%ADD14R,0.700000X1.000000*%
G04 #@! TD*
G04 #@! TA.AperFunction,SMDPad,CuDef*
%ADD15R,0.700000X0.600000*%
G04 #@! TD*
G04 #@! TA.AperFunction,ComponentPad*
%ADD16C,1.381000*%
G04 #@! TD*
G04 #@! TA.AperFunction,SMDPad,CuDef*
%ADD17R,0.500000X2.300000*%
G04 #@! TD*
G04 #@! TA.AperFunction,SMDPad,CuDef*
%ADD18R,2.000000X2.500000*%
G04 #@! TD*
G04 #@! TA.AperFunction,ComponentPad*
%ADD19C,1.400000*%
G04 #@! TD*
G04 #@! TA.AperFunction,SMDPad,CuDef*
%ADD20R,0.365000X0.613000*%
G04 #@! TD*
G04 #@! TA.AperFunction,SMDPad,CuDef*
%ADD21R,0.250000X0.613000*%
G04 #@! TD*
G04 #@! TA.AperFunction,ComponentPad*
%ADD22O,1.700000X1.700000*%
G04 #@! TD*
G04 #@! TA.AperFunction,ComponentPad*
%ADD23R,1.700000X1.700000*%
G04 #@! TD*
G04 #@! TA.AperFunction,ComponentPad*
%ADD24C,1.500000*%
G04 #@! TD*
G04 #@! TA.AperFunction,ViaPad*
%ADD25C,0.889000*%
G04 #@! TD*
G04 #@! TA.AperFunction,Conductor*
%ADD26C,0.406400*%
G04 #@! TD*
G04 #@! TA.AperFunction,Conductor*
%ADD27C,0.203200*%
G04 #@! TD*
G04 #@! TA.AperFunction,Conductor*
%ADD28C,0.254000*%
G04 #@! TD*
G04 #@! TA.AperFunction,Conductor*
%ADD29C,0.100000*%
G04 #@! TD*
G04 APERTURE END LIST*
D10*
X137795000Y-66040000D03*
X137795000Y-40640000D03*
X136525000Y-66040000D03*
X136525000Y-40640000D03*
X135255000Y-66040000D03*
X135255000Y-40640000D03*
X133985000Y-66040000D03*
X133985000Y-40640000D03*
X132715000Y-66040000D03*
X132715000Y-40640000D03*
X131445000Y-66040000D03*
X131445000Y-40640000D03*
X130175000Y-66040000D03*
X130175000Y-40640000D03*
X128905000Y-66040000D03*
X128905000Y-40640000D03*
X127635000Y-66040000D03*
X127635000Y-40640000D03*
X126365000Y-66040000D03*
X126365000Y-40640000D03*
X125095000Y-66040000D03*
X125095000Y-40640000D03*
X123825000Y-66040000D03*
X123825000Y-40640000D03*
X122555000Y-66040000D03*
X122555000Y-40640000D03*
X121285000Y-66040000D03*
X121285000Y-40640000D03*
X120015000Y-66040000D03*
X120015000Y-40640000D03*
X118745000Y-66040000D03*
X118745000Y-40640000D03*
X117475000Y-66040000D03*
X117475000Y-40640000D03*
X116205000Y-66040000D03*
X116205000Y-40640000D03*
X114935000Y-66040000D03*
X114935000Y-40640000D03*
X113665000Y-66040000D03*
X113665000Y-40640000D03*
X112395000Y-66040000D03*
X112395000Y-40640000D03*
X111125000Y-66040000D03*
X111125000Y-40640000D03*
X109855000Y-66040000D03*
X109855000Y-40640000D03*
X108585000Y-66040000D03*
X108585000Y-40640000D03*
X107315000Y-66040000D03*
X107315000Y-40640000D03*
X106045000Y-66040000D03*
X106045000Y-40640000D03*
X104775000Y-66040000D03*
X104775000Y-40640000D03*
X103505000Y-66040000D03*
X103505000Y-40640000D03*
X102235000Y-66040000D03*
X102235000Y-40640000D03*
X100965000Y-66040000D03*
X100965000Y-40640000D03*
X99695000Y-66040000D03*
X99695000Y-40640000D03*
X98425000Y-66040000D03*
X98425000Y-40640000D03*
X97155000Y-66040000D03*
X97155000Y-40640000D03*
X95885000Y-66040000D03*
X95885000Y-40640000D03*
X94615000Y-66040000D03*
X94615000Y-40640000D03*
X93345000Y-66040000D03*
X93345000Y-40640000D03*
X92075000Y-66040000D03*
X92075000Y-40640000D03*
X90805000Y-66040000D03*
X90805000Y-40640000D03*
X89535000Y-66040000D03*
X89535000Y-40640000D03*
X88265000Y-66040000D03*
X88265000Y-40640000D03*
D11*
X48895000Y-53975000D03*
X51435000Y-56515000D03*
X51435000Y-53975000D03*
X48895000Y-56515000D03*
X48895000Y-51435000D03*
X51435000Y-59055000D03*
X51435000Y-51435000D03*
X48895000Y-59055000D03*
X48895000Y-48895000D03*
X51435000Y-61595000D03*
X51435000Y-48895000D03*
X48895000Y-61595000D03*
D12*
X50165000Y-42545000D03*
D13*
X70485000Y-57785000D03*
X70485000Y-52705000D03*
G04 #@! TA.AperFunction,SMDPad,CuDef*
G36*
G01*
X75115000Y-42070000D02*
X75115000Y-43020000D01*
G75*
G02*
X74865000Y-43270000I-250000J0D01*
G01*
X74190000Y-43270000D01*
G75*
G02*
X73940000Y-43020000I0J250000D01*
G01*
X73940000Y-42070000D01*
G75*
G02*
X74190000Y-41820000I250000J0D01*
G01*
X74865000Y-41820000D01*
G75*
G02*
X75115000Y-42070000I0J-250000D01*
G01*
G37*
G04 #@! TD.AperFunction*
G04 #@! TA.AperFunction,SMDPad,CuDef*
G36*
G01*
X77190000Y-42070000D02*
X77190000Y-43020000D01*
G75*
G02*
X76940000Y-43270000I-250000J0D01*
G01*
X76265000Y-43270000D01*
G75*
G02*
X76015000Y-43020000I0J250000D01*
G01*
X76015000Y-42070000D01*
G75*
G02*
X76265000Y-41820000I250000J0D01*
G01*
X76940000Y-41820000D01*
G75*
G02*
X77190000Y-42070000I0J-250000D01*
G01*
G37*
G04 #@! TD.AperFunction*
G04 #@! TA.AperFunction,SMDPad,CuDef*
G36*
G01*
X69250000Y-42995001D02*
X69250000Y-42094999D01*
G75*
G02*
X69499999Y-41845000I249999J0D01*
G01*
X70200001Y-41845000D01*
G75*
G02*
X70450000Y-42094999I0J-249999D01*
G01*
X70450000Y-42995001D01*
G75*
G02*
X70200001Y-43245000I-249999J0D01*
G01*
X69499999Y-43245000D01*
G75*
G02*
X69250000Y-42995001I0J249999D01*
G01*
G37*
G04 #@! TD.AperFunction*
G04 #@! TA.AperFunction,SMDPad,CuDef*
G36*
G01*
X71250000Y-42995001D02*
X71250000Y-42094999D01*
G75*
G02*
X71499999Y-41845000I249999J0D01*
G01*
X72200001Y-41845000D01*
G75*
G02*
X72450000Y-42094999I0J-249999D01*
G01*
X72450000Y-42995001D01*
G75*
G02*
X72200001Y-43245000I-249999J0D01*
G01*
X71499999Y-43245000D01*
G75*
G02*
X71250000Y-42995001I0J249999D01*
G01*
G37*
G04 #@! TD.AperFunction*
G04 #@! TA.AperFunction,SMDPad,CuDef*
G36*
G01*
X151270000Y-42002500D02*
X152220000Y-42002500D01*
G75*
G02*
X152470000Y-42252500I0J-250000D01*
G01*
X152470000Y-42927500D01*
G75*
G02*
X152220000Y-43177500I-250000J0D01*
G01*
X151270000Y-43177500D01*
G75*
G02*
X151020000Y-42927500I0J250000D01*
G01*
X151020000Y-42252500D01*
G75*
G02*
X151270000Y-42002500I250000J0D01*
G01*
G37*
G04 #@! TD.AperFunction*
G04 #@! TA.AperFunction,SMDPad,CuDef*
G36*
G01*
X151270000Y-44077500D02*
X152220000Y-44077500D01*
G75*
G02*
X152470000Y-44327500I0J-250000D01*
G01*
X152470000Y-45002500D01*
G75*
G02*
X152220000Y-45252500I-250000J0D01*
G01*
X151270000Y-45252500D01*
G75*
G02*
X151020000Y-45002500I0J250000D01*
G01*
X151020000Y-44327500D01*
G75*
G02*
X151270000Y-44077500I250000J0D01*
G01*
G37*
G04 #@! TD.AperFunction*
G04 #@! TA.AperFunction,SMDPad,CuDef*
G36*
G01*
X173457500Y-51175000D02*
X173457500Y-52125000D01*
G75*
G02*
X173207500Y-52375000I-250000J0D01*
G01*
X172532500Y-52375000D01*
G75*
G02*
X172282500Y-52125000I0J250000D01*
G01*
X172282500Y-51175000D01*
G75*
G02*
X172532500Y-50925000I250000J0D01*
G01*
X173207500Y-50925000D01*
G75*
G02*
X173457500Y-51175000I0J-250000D01*
G01*
G37*
G04 #@! TD.AperFunction*
G04 #@! TA.AperFunction,SMDPad,CuDef*
G36*
G01*
X171382500Y-51175000D02*
X171382500Y-52125000D01*
G75*
G02*
X171132500Y-52375000I-250000J0D01*
G01*
X170457500Y-52375000D01*
G75*
G02*
X170207500Y-52125000I0J250000D01*
G01*
X170207500Y-51175000D01*
G75*
G02*
X170457500Y-50925000I250000J0D01*
G01*
X171132500Y-50925000D01*
G75*
G02*
X171382500Y-51175000I0J-250000D01*
G01*
G37*
G04 #@! TD.AperFunction*
D14*
X158950000Y-49950000D03*
D15*
X158950000Y-51650000D03*
X160950000Y-51650000D03*
X160950000Y-49750000D03*
G04 #@! TA.AperFunction,SMDPad,CuDef*
G36*
G01*
X60165000Y-127036500D02*
X59215000Y-127036500D01*
G75*
G02*
X58965000Y-126786500I0J250000D01*
G01*
X58965000Y-126111500D01*
G75*
G02*
X59215000Y-125861500I250000J0D01*
G01*
X60165000Y-125861500D01*
G75*
G02*
X60415000Y-126111500I0J-250000D01*
G01*
X60415000Y-126786500D01*
G75*
G02*
X60165000Y-127036500I-250000J0D01*
G01*
G37*
G04 #@! TD.AperFunction*
G04 #@! TA.AperFunction,SMDPad,CuDef*
G36*
G01*
X60165000Y-129111500D02*
X59215000Y-129111500D01*
G75*
G02*
X58965000Y-128861500I0J250000D01*
G01*
X58965000Y-128186500D01*
G75*
G02*
X59215000Y-127936500I250000J0D01*
G01*
X60165000Y-127936500D01*
G75*
G02*
X60415000Y-128186500I0J-250000D01*
G01*
X60415000Y-128861500D01*
G75*
G02*
X60165000Y-129111500I-250000J0D01*
G01*
G37*
G04 #@! TD.AperFunction*
G04 #@! TA.AperFunction,SMDPad,CuDef*
G36*
G01*
X69055000Y-129111500D02*
X68105000Y-129111500D01*
G75*
G02*
X67855000Y-128861500I0J250000D01*
G01*
X67855000Y-128186500D01*
G75*
G02*
X68105000Y-127936500I250000J0D01*
G01*
X69055000Y-127936500D01*
G75*
G02*
X69305000Y-128186500I0J-250000D01*
G01*
X69305000Y-128861500D01*
G75*
G02*
X69055000Y-129111500I-250000J0D01*
G01*
G37*
G04 #@! TD.AperFunction*
G04 #@! TA.AperFunction,SMDPad,CuDef*
G36*
G01*
X69055000Y-127036500D02*
X68105000Y-127036500D01*
G75*
G02*
X67855000Y-126786500I0J250000D01*
G01*
X67855000Y-126111500D01*
G75*
G02*
X68105000Y-125861500I250000J0D01*
G01*
X69055000Y-125861500D01*
G75*
G02*
X69305000Y-126111500I0J-250000D01*
G01*
X69305000Y-126786500D01*
G75*
G02*
X69055000Y-127036500I-250000J0D01*
G01*
G37*
G04 #@! TD.AperFunction*
G04 #@! TA.AperFunction,SMDPad,CuDef*
G36*
G01*
X77945000Y-127058000D02*
X76995000Y-127058000D01*
G75*
G02*
X76745000Y-126808000I0J250000D01*
G01*
X76745000Y-126133000D01*
G75*
G02*
X76995000Y-125883000I250000J0D01*
G01*
X77945000Y-125883000D01*
G75*
G02*
X78195000Y-126133000I0J-250000D01*
G01*
X78195000Y-126808000D01*
G75*
G02*
X77945000Y-127058000I-250000J0D01*
G01*
G37*
G04 #@! TD.AperFunction*
G04 #@! TA.AperFunction,SMDPad,CuDef*
G36*
G01*
X77945000Y-129133000D02*
X76995000Y-129133000D01*
G75*
G02*
X76745000Y-128883000I0J250000D01*
G01*
X76745000Y-128208000D01*
G75*
G02*
X76995000Y-127958000I250000J0D01*
G01*
X77945000Y-127958000D01*
G75*
G02*
X78195000Y-128208000I0J-250000D01*
G01*
X78195000Y-128883000D01*
G75*
G02*
X77945000Y-129133000I-250000J0D01*
G01*
G37*
G04 #@! TD.AperFunction*
G04 #@! TA.AperFunction,SMDPad,CuDef*
G36*
G01*
X86835000Y-129133000D02*
X85885000Y-129133000D01*
G75*
G02*
X85635000Y-128883000I0J250000D01*
G01*
X85635000Y-128208000D01*
G75*
G02*
X85885000Y-127958000I250000J0D01*
G01*
X86835000Y-127958000D01*
G75*
G02*
X87085000Y-128208000I0J-250000D01*
G01*
X87085000Y-128883000D01*
G75*
G02*
X86835000Y-129133000I-250000J0D01*
G01*
G37*
G04 #@! TD.AperFunction*
G04 #@! TA.AperFunction,SMDPad,CuDef*
G36*
G01*
X86835000Y-127058000D02*
X85885000Y-127058000D01*
G75*
G02*
X85635000Y-126808000I0J250000D01*
G01*
X85635000Y-126133000D01*
G75*
G02*
X85885000Y-125883000I250000J0D01*
G01*
X86835000Y-125883000D01*
G75*
G02*
X87085000Y-126133000I0J-250000D01*
G01*
X87085000Y-126808000D01*
G75*
G02*
X86835000Y-127058000I-250000J0D01*
G01*
G37*
G04 #@! TD.AperFunction*
G04 #@! TA.AperFunction,SMDPad,CuDef*
G36*
G01*
X102075000Y-127036500D02*
X101125000Y-127036500D01*
G75*
G02*
X100875000Y-126786500I0J250000D01*
G01*
X100875000Y-126111500D01*
G75*
G02*
X101125000Y-125861500I250000J0D01*
G01*
X102075000Y-125861500D01*
G75*
G02*
X102325000Y-126111500I0J-250000D01*
G01*
X102325000Y-126786500D01*
G75*
G02*
X102075000Y-127036500I-250000J0D01*
G01*
G37*
G04 #@! TD.AperFunction*
G04 #@! TA.AperFunction,SMDPad,CuDef*
G36*
G01*
X102075000Y-129111500D02*
X101125000Y-129111500D01*
G75*
G02*
X100875000Y-128861500I0J250000D01*
G01*
X100875000Y-128186500D01*
G75*
G02*
X101125000Y-127936500I250000J0D01*
G01*
X102075000Y-127936500D01*
G75*
G02*
X102325000Y-128186500I0J-250000D01*
G01*
X102325000Y-128861500D01*
G75*
G02*
X102075000Y-129111500I-250000J0D01*
G01*
G37*
G04 #@! TD.AperFunction*
G04 #@! TA.AperFunction,SMDPad,CuDef*
G36*
G01*
X110965000Y-129133000D02*
X110015000Y-129133000D01*
G75*
G02*
X109765000Y-128883000I0J250000D01*
G01*
X109765000Y-128208000D01*
G75*
G02*
X110015000Y-127958000I250000J0D01*
G01*
X110965000Y-127958000D01*
G75*
G02*
X111215000Y-128208000I0J-250000D01*
G01*
X111215000Y-128883000D01*
G75*
G02*
X110965000Y-129133000I-250000J0D01*
G01*
G37*
G04 #@! TD.AperFunction*
G04 #@! TA.AperFunction,SMDPad,CuDef*
G36*
G01*
X110965000Y-127058000D02*
X110015000Y-127058000D01*
G75*
G02*
X109765000Y-126808000I0J250000D01*
G01*
X109765000Y-126133000D01*
G75*
G02*
X110015000Y-125883000I250000J0D01*
G01*
X110965000Y-125883000D01*
G75*
G02*
X111215000Y-126133000I0J-250000D01*
G01*
X111215000Y-126808000D01*
G75*
G02*
X110965000Y-127058000I-250000J0D01*
G01*
G37*
G04 #@! TD.AperFunction*
G04 #@! TA.AperFunction,SMDPad,CuDef*
G36*
G01*
X119855000Y-127036500D02*
X118905000Y-127036500D01*
G75*
G02*
X118655000Y-126786500I0J250000D01*
G01*
X118655000Y-126111500D01*
G75*
G02*
X118905000Y-125861500I250000J0D01*
G01*
X119855000Y-125861500D01*
G75*
G02*
X120105000Y-126111500I0J-250000D01*
G01*
X120105000Y-126786500D01*
G75*
G02*
X119855000Y-127036500I-250000J0D01*
G01*
G37*
G04 #@! TD.AperFunction*
G04 #@! TA.AperFunction,SMDPad,CuDef*
G36*
G01*
X119855000Y-129111500D02*
X118905000Y-129111500D01*
G75*
G02*
X118655000Y-128861500I0J250000D01*
G01*
X118655000Y-128186500D01*
G75*
G02*
X118905000Y-127936500I250000J0D01*
G01*
X119855000Y-127936500D01*
G75*
G02*
X120105000Y-128186500I0J-250000D01*
G01*
X120105000Y-128861500D01*
G75*
G02*
X119855000Y-129111500I-250000J0D01*
G01*
G37*
G04 #@! TD.AperFunction*
G04 #@! TA.AperFunction,SMDPad,CuDef*
G36*
G01*
X128745000Y-129133000D02*
X127795000Y-129133000D01*
G75*
G02*
X127545000Y-128883000I0J250000D01*
G01*
X127545000Y-128208000D01*
G75*
G02*
X127795000Y-127958000I250000J0D01*
G01*
X128745000Y-127958000D01*
G75*
G02*
X128995000Y-128208000I0J-250000D01*
G01*
X128995000Y-128883000D01*
G75*
G02*
X128745000Y-129133000I-250000J0D01*
G01*
G37*
G04 #@! TD.AperFunction*
G04 #@! TA.AperFunction,SMDPad,CuDef*
G36*
G01*
X128745000Y-127058000D02*
X127795000Y-127058000D01*
G75*
G02*
X127545000Y-126808000I0J250000D01*
G01*
X127545000Y-126133000D01*
G75*
G02*
X127795000Y-125883000I250000J0D01*
G01*
X128745000Y-125883000D01*
G75*
G02*
X128995000Y-126133000I0J-250000D01*
G01*
X128995000Y-126808000D01*
G75*
G02*
X128745000Y-127058000I-250000J0D01*
G01*
G37*
G04 #@! TD.AperFunction*
G04 #@! TA.AperFunction,SMDPad,CuDef*
G36*
G01*
X137635000Y-127058000D02*
X136685000Y-127058000D01*
G75*
G02*
X136435000Y-126808000I0J250000D01*
G01*
X136435000Y-126133000D01*
G75*
G02*
X136685000Y-125883000I250000J0D01*
G01*
X137635000Y-125883000D01*
G75*
G02*
X137885000Y-126133000I0J-250000D01*
G01*
X137885000Y-126808000D01*
G75*
G02*
X137635000Y-127058000I-250000J0D01*
G01*
G37*
G04 #@! TD.AperFunction*
G04 #@! TA.AperFunction,SMDPad,CuDef*
G36*
G01*
X137635000Y-129133000D02*
X136685000Y-129133000D01*
G75*
G02*
X136435000Y-128883000I0J250000D01*
G01*
X136435000Y-128208000D01*
G75*
G02*
X136685000Y-127958000I250000J0D01*
G01*
X137635000Y-127958000D01*
G75*
G02*
X137885000Y-128208000I0J-250000D01*
G01*
X137885000Y-128883000D01*
G75*
G02*
X137635000Y-129133000I-250000J0D01*
G01*
G37*
G04 #@! TD.AperFunction*
G04 #@! TA.AperFunction,SMDPad,CuDef*
G36*
G01*
X146757500Y-129133000D02*
X145807500Y-129133000D01*
G75*
G02*
X145557500Y-128883000I0J250000D01*
G01*
X145557500Y-128208000D01*
G75*
G02*
X145807500Y-127958000I250000J0D01*
G01*
X146757500Y-127958000D01*
G75*
G02*
X147007500Y-128208000I0J-250000D01*
G01*
X147007500Y-128883000D01*
G75*
G02*
X146757500Y-129133000I-250000J0D01*
G01*
G37*
G04 #@! TD.AperFunction*
G04 #@! TA.AperFunction,SMDPad,CuDef*
G36*
G01*
X146757500Y-127058000D02*
X145807500Y-127058000D01*
G75*
G02*
X145557500Y-126808000I0J250000D01*
G01*
X145557500Y-126133000D01*
G75*
G02*
X145807500Y-125883000I250000J0D01*
G01*
X146757500Y-125883000D01*
G75*
G02*
X147007500Y-126133000I0J-250000D01*
G01*
X147007500Y-126808000D01*
G75*
G02*
X146757500Y-127058000I-250000J0D01*
G01*
G37*
G04 #@! TD.AperFunction*
G04 #@! TA.AperFunction,SMDPad,CuDef*
G36*
G01*
X155415000Y-127036500D02*
X154465000Y-127036500D01*
G75*
G02*
X154215000Y-126786500I0J250000D01*
G01*
X154215000Y-126111500D01*
G75*
G02*
X154465000Y-125861500I250000J0D01*
G01*
X155415000Y-125861500D01*
G75*
G02*
X155665000Y-126111500I0J-250000D01*
G01*
X155665000Y-126786500D01*
G75*
G02*
X155415000Y-127036500I-250000J0D01*
G01*
G37*
G04 #@! TD.AperFunction*
G04 #@! TA.AperFunction,SMDPad,CuDef*
G36*
G01*
X155415000Y-129111500D02*
X154465000Y-129111500D01*
G75*
G02*
X154215000Y-128861500I0J250000D01*
G01*
X154215000Y-128186500D01*
G75*
G02*
X154465000Y-127936500I250000J0D01*
G01*
X155415000Y-127936500D01*
G75*
G02*
X155665000Y-128186500I0J-250000D01*
G01*
X155665000Y-128861500D01*
G75*
G02*
X155415000Y-129111500I-250000J0D01*
G01*
G37*
G04 #@! TD.AperFunction*
G04 #@! TA.AperFunction,SMDPad,CuDef*
G36*
G01*
X164305000Y-129133000D02*
X163355000Y-129133000D01*
G75*
G02*
X163105000Y-128883000I0J250000D01*
G01*
X163105000Y-128208000D01*
G75*
G02*
X163355000Y-127958000I250000J0D01*
G01*
X164305000Y-127958000D01*
G75*
G02*
X164555000Y-128208000I0J-250000D01*
G01*
X164555000Y-128883000D01*
G75*
G02*
X164305000Y-129133000I-250000J0D01*
G01*
G37*
G04 #@! TD.AperFunction*
G04 #@! TA.AperFunction,SMDPad,CuDef*
G36*
G01*
X164305000Y-127058000D02*
X163355000Y-127058000D01*
G75*
G02*
X163105000Y-126808000I0J250000D01*
G01*
X163105000Y-126133000D01*
G75*
G02*
X163355000Y-125883000I250000J0D01*
G01*
X164305000Y-125883000D01*
G75*
G02*
X164555000Y-126133000I0J-250000D01*
G01*
X164555000Y-126808000D01*
G75*
G02*
X164305000Y-127058000I-250000J0D01*
G01*
G37*
G04 #@! TD.AperFunction*
D16*
X108585000Y-92710000D03*
X111125000Y-92710000D03*
X113665000Y-92710000D03*
X116205000Y-92710000D03*
X118745000Y-92710000D03*
X118745000Y-107950000D03*
X116205000Y-107950000D03*
X113665000Y-107950000D03*
X111125000Y-107950000D03*
X108585000Y-107950000D03*
X92075000Y-107950000D03*
X94615000Y-107950000D03*
X97155000Y-107950000D03*
X99695000Y-107950000D03*
X102235000Y-107950000D03*
X102235000Y-92710000D03*
X99695000Y-92710000D03*
X97155000Y-92710000D03*
X94615000Y-92710000D03*
X92075000Y-92710000D03*
X75565000Y-92710000D03*
X78105000Y-92710000D03*
X80645000Y-92710000D03*
X83185000Y-92710000D03*
X85725000Y-92710000D03*
X85725000Y-107950000D03*
X83185000Y-107950000D03*
X80645000Y-107950000D03*
X78105000Y-107950000D03*
X75565000Y-107950000D03*
X59055000Y-107950000D03*
X61595000Y-107950000D03*
X64135000Y-107950000D03*
X66675000Y-107950000D03*
X69215000Y-107950000D03*
X69215000Y-92710000D03*
X66675000Y-92710000D03*
X64135000Y-92710000D03*
X61595000Y-92710000D03*
X59055000Y-92710000D03*
D17*
X161600000Y-39500000D03*
X160800000Y-39500000D03*
X160000000Y-39500000D03*
X159200000Y-39500000D03*
X158400000Y-39500000D03*
D18*
X164450000Y-39500000D03*
X155550000Y-39500000D03*
X164450000Y-34000000D03*
X155550000Y-34000000D03*
D19*
X162200000Y-37000000D03*
X157800000Y-37000000D03*
G04 #@! TA.AperFunction,SMDPad,CuDef*
G36*
G01*
X74600000Y-54425001D02*
X74600000Y-53524999D01*
G75*
G02*
X74849999Y-53275000I249999J0D01*
G01*
X75550001Y-53275000D01*
G75*
G02*
X75800000Y-53524999I0J-249999D01*
G01*
X75800000Y-54425001D01*
G75*
G02*
X75550001Y-54675000I-249999J0D01*
G01*
X74849999Y-54675000D01*
G75*
G02*
X74600000Y-54425001I0J249999D01*
G01*
G37*
G04 #@! TD.AperFunction*
G04 #@! TA.AperFunction,SMDPad,CuDef*
G36*
G01*
X76600000Y-54425001D02*
X76600000Y-53524999D01*
G75*
G02*
X76849999Y-53275000I249999J0D01*
G01*
X77550001Y-53275000D01*
G75*
G02*
X77800000Y-53524999I0J-249999D01*
G01*
X77800000Y-54425001D01*
G75*
G02*
X77550001Y-54675000I-249999J0D01*
G01*
X76849999Y-54675000D01*
G75*
G02*
X76600000Y-54425001I0J249999D01*
G01*
G37*
G04 #@! TD.AperFunction*
G04 #@! TA.AperFunction,SMDPad,CuDef*
G36*
G01*
X76600000Y-56965001D02*
X76600000Y-56064999D01*
G75*
G02*
X76849999Y-55815000I249999J0D01*
G01*
X77550001Y-55815000D01*
G75*
G02*
X77800000Y-56064999I0J-249999D01*
G01*
X77800000Y-56965001D01*
G75*
G02*
X77550001Y-57215000I-249999J0D01*
G01*
X76849999Y-57215000D01*
G75*
G02*
X76600000Y-56965001I0J249999D01*
G01*
G37*
G04 #@! TD.AperFunction*
G04 #@! TA.AperFunction,SMDPad,CuDef*
G36*
G01*
X74600000Y-56965001D02*
X74600000Y-56064999D01*
G75*
G02*
X74849999Y-55815000I249999J0D01*
G01*
X75550001Y-55815000D01*
G75*
G02*
X75800000Y-56064999I0J-249999D01*
G01*
X75800000Y-56965001D01*
G75*
G02*
X75550001Y-57215000I-249999J0D01*
G01*
X74849999Y-57215000D01*
G75*
G02*
X74600000Y-56965001I0J249999D01*
G01*
G37*
G04 #@! TD.AperFunction*
G04 #@! TA.AperFunction,SMDPad,CuDef*
G36*
G01*
X167750000Y-52100001D02*
X167750000Y-51199999D01*
G75*
G02*
X167999999Y-50950000I249999J0D01*
G01*
X168700001Y-50950000D01*
G75*
G02*
X168950000Y-51199999I0J-249999D01*
G01*
X168950000Y-52100001D01*
G75*
G02*
X168700001Y-52350000I-249999J0D01*
G01*
X167999999Y-52350000D01*
G75*
G02*
X167750000Y-52100001I0J249999D01*
G01*
G37*
G04 #@! TD.AperFunction*
G04 #@! TA.AperFunction,SMDPad,CuDef*
G36*
G01*
X165750000Y-52100001D02*
X165750000Y-51199999D01*
G75*
G02*
X165999999Y-50950000I249999J0D01*
G01*
X166700001Y-50950000D01*
G75*
G02*
X166950000Y-51199999I0J-249999D01*
G01*
X166950000Y-52100001D01*
G75*
G02*
X166700001Y-52350000I-249999J0D01*
G01*
X165999999Y-52350000D01*
G75*
G02*
X165750000Y-52100001I0J249999D01*
G01*
G37*
G04 #@! TD.AperFunction*
G04 #@! TA.AperFunction,SMDPad,CuDef*
G36*
G01*
X160184999Y-56225000D02*
X161085001Y-56225000D01*
G75*
G02*
X161335000Y-56474999I0J-249999D01*
G01*
X161335000Y-57175001D01*
G75*
G02*
X161085001Y-57425000I-249999J0D01*
G01*
X160184999Y-57425000D01*
G75*
G02*
X159935000Y-57175001I0J249999D01*
G01*
X159935000Y-56474999D01*
G75*
G02*
X160184999Y-56225000I249999J0D01*
G01*
G37*
G04 #@! TD.AperFunction*
G04 #@! TA.AperFunction,SMDPad,CuDef*
G36*
G01*
X160184999Y-54225000D02*
X161085001Y-54225000D01*
G75*
G02*
X161335000Y-54474999I0J-249999D01*
G01*
X161335000Y-55175001D01*
G75*
G02*
X161085001Y-55425000I-249999J0D01*
G01*
X160184999Y-55425000D01*
G75*
G02*
X159935000Y-55175001I0J249999D01*
G01*
X159935000Y-54474999D01*
G75*
G02*
X160184999Y-54225000I249999J0D01*
G01*
G37*
G04 #@! TD.AperFunction*
G04 #@! TA.AperFunction,SMDPad,CuDef*
G36*
G01*
X163625001Y-57425000D02*
X162724999Y-57425000D01*
G75*
G02*
X162475000Y-57175001I0J249999D01*
G01*
X162475000Y-56474999D01*
G75*
G02*
X162724999Y-56225000I249999J0D01*
G01*
X163625001Y-56225000D01*
G75*
G02*
X163875000Y-56474999I0J-249999D01*
G01*
X163875000Y-57175001D01*
G75*
G02*
X163625001Y-57425000I-249999J0D01*
G01*
G37*
G04 #@! TD.AperFunction*
G04 #@! TA.AperFunction,SMDPad,CuDef*
G36*
G01*
X163625001Y-55425000D02*
X162724999Y-55425000D01*
G75*
G02*
X162475000Y-55175001I0J249999D01*
G01*
X162475000Y-54474999D01*
G75*
G02*
X162724999Y-54225000I249999J0D01*
G01*
X163625001Y-54225000D01*
G75*
G02*
X163875000Y-54474999I0J-249999D01*
G01*
X163875000Y-55175001D01*
G75*
G02*
X163625001Y-55425000I-249999J0D01*
G01*
G37*
G04 #@! TD.AperFunction*
G04 #@! TA.AperFunction,SMDPad,CuDef*
G36*
G01*
X157644999Y-54225000D02*
X158545001Y-54225000D01*
G75*
G02*
X158795000Y-54474999I0J-249999D01*
G01*
X158795000Y-55175001D01*
G75*
G02*
X158545001Y-55425000I-249999J0D01*
G01*
X157644999Y-55425000D01*
G75*
G02*
X157395000Y-55175001I0J249999D01*
G01*
X157395000Y-54474999D01*
G75*
G02*
X157644999Y-54225000I249999J0D01*
G01*
G37*
G04 #@! TD.AperFunction*
G04 #@! TA.AperFunction,SMDPad,CuDef*
G36*
G01*
X157644999Y-56225000D02*
X158545001Y-56225000D01*
G75*
G02*
X158795000Y-56474999I0J-249999D01*
G01*
X158795000Y-57175001D01*
G75*
G02*
X158545001Y-57425000I-249999J0D01*
G01*
X157644999Y-57425000D01*
G75*
G02*
X157395000Y-57175001I0J249999D01*
G01*
X157395000Y-56474999D01*
G75*
G02*
X157644999Y-56225000I249999J0D01*
G01*
G37*
G04 #@! TD.AperFunction*
D20*
X72217000Y-146141000D03*
D21*
X72775000Y-146141000D03*
X73275000Y-146141000D03*
D20*
X73833000Y-146141000D03*
X73833000Y-147229000D03*
D21*
X73275000Y-147229000D03*
X72775000Y-147229000D03*
D20*
X72217000Y-147229000D03*
X72217000Y-123099000D03*
D21*
X72775000Y-123099000D03*
X73275000Y-123099000D03*
D20*
X73833000Y-123099000D03*
X73833000Y-122011000D03*
D21*
X73275000Y-122011000D03*
X72775000Y-122011000D03*
D20*
X72217000Y-122011000D03*
X114127000Y-147229000D03*
D21*
X114685000Y-147229000D03*
X115185000Y-147229000D03*
D20*
X115743000Y-147229000D03*
X115743000Y-146141000D03*
D21*
X115185000Y-146141000D03*
X114685000Y-146141000D03*
D20*
X114127000Y-146141000D03*
X114127000Y-123099000D03*
D21*
X114685000Y-123099000D03*
X115185000Y-123099000D03*
D20*
X115743000Y-123099000D03*
X115743000Y-122011000D03*
D21*
X115185000Y-122011000D03*
X114685000Y-122011000D03*
D20*
X114127000Y-122011000D03*
X149687000Y-122011000D03*
D21*
X150245000Y-122011000D03*
X150745000Y-122011000D03*
D20*
X151303000Y-122011000D03*
X151303000Y-123099000D03*
D21*
X150745000Y-123099000D03*
X150245000Y-123099000D03*
D20*
X149687000Y-123099000D03*
X149687000Y-146141000D03*
D21*
X150245000Y-146141000D03*
X150745000Y-146141000D03*
D20*
X151303000Y-146141000D03*
X151303000Y-147229000D03*
D21*
X150745000Y-147229000D03*
X150245000Y-147229000D03*
D20*
X149687000Y-147229000D03*
X112857000Y-112486000D03*
D21*
X113415000Y-112486000D03*
X113915000Y-112486000D03*
D20*
X114473000Y-112486000D03*
X114473000Y-113574000D03*
D21*
X113915000Y-113574000D03*
X113415000Y-113574000D03*
D20*
X112857000Y-113574000D03*
X96347000Y-113574000D03*
D21*
X96905000Y-113574000D03*
X97405000Y-113574000D03*
D20*
X97963000Y-113574000D03*
X97963000Y-112486000D03*
D21*
X97405000Y-112486000D03*
X96905000Y-112486000D03*
D20*
X96347000Y-112486000D03*
X79837000Y-112486000D03*
D21*
X80395000Y-112486000D03*
X80895000Y-112486000D03*
D20*
X81453000Y-112486000D03*
X81453000Y-113574000D03*
D21*
X80895000Y-113574000D03*
X80395000Y-113574000D03*
D20*
X79837000Y-113574000D03*
X63327000Y-113574000D03*
D21*
X63885000Y-113574000D03*
X64385000Y-113574000D03*
D20*
X64943000Y-113574000D03*
X64943000Y-112486000D03*
D21*
X64385000Y-112486000D03*
X63885000Y-112486000D03*
D20*
X63327000Y-112486000D03*
X112857000Y-87086000D03*
D21*
X113415000Y-87086000D03*
X113915000Y-87086000D03*
D20*
X114473000Y-87086000D03*
X114473000Y-88174000D03*
D21*
X113915000Y-88174000D03*
X113415000Y-88174000D03*
D20*
X112857000Y-88174000D03*
X96347000Y-88174000D03*
D21*
X96905000Y-88174000D03*
X97405000Y-88174000D03*
D20*
X97963000Y-88174000D03*
X97963000Y-87086000D03*
D21*
X97405000Y-87086000D03*
X96905000Y-87086000D03*
D20*
X96347000Y-87086000D03*
X79837000Y-87086000D03*
D21*
X80395000Y-87086000D03*
X80895000Y-87086000D03*
D20*
X81453000Y-87086000D03*
X81453000Y-88174000D03*
D21*
X80895000Y-88174000D03*
X80395000Y-88174000D03*
D20*
X79837000Y-88174000D03*
X63327000Y-88174000D03*
D21*
X63885000Y-88174000D03*
X64385000Y-88174000D03*
D20*
X64943000Y-88174000D03*
X64943000Y-87086000D03*
D21*
X64385000Y-87086000D03*
X63885000Y-87086000D03*
D20*
X63327000Y-87086000D03*
D11*
X59690000Y-140970000D03*
X59690000Y-135890000D03*
X68580000Y-135890000D03*
X68580000Y-140970000D03*
X77470000Y-140970000D03*
X77470000Y-135890000D03*
X86360000Y-135890000D03*
X86360000Y-140970000D03*
X101600000Y-140970000D03*
X101600000Y-135890000D03*
X110490000Y-135890000D03*
X110490000Y-140970000D03*
X119380000Y-140970000D03*
X119380000Y-135890000D03*
X128270000Y-135890000D03*
X128270000Y-140970000D03*
X137160000Y-140970000D03*
X137160000Y-135890000D03*
X146050000Y-135890000D03*
X146050000Y-140970000D03*
X154940000Y-140970000D03*
X154940000Y-135890000D03*
X163830000Y-135890000D03*
X163830000Y-140970000D03*
D22*
X101710000Y-60060000D03*
X101710000Y-57520000D03*
X101710000Y-54980000D03*
X101710000Y-52440000D03*
X101710000Y-49900000D03*
D23*
X101710000Y-47360000D03*
X88620000Y-47340000D03*
D22*
X88620000Y-49880000D03*
X88620000Y-52420000D03*
X88620000Y-54960000D03*
X88620000Y-57500000D03*
X88620000Y-60040000D03*
D13*
X81915000Y-52705000D03*
X81915000Y-57785000D03*
D24*
X96520000Y-34925000D03*
X99060000Y-34925000D03*
X101600000Y-34925000D03*
X104140000Y-34925000D03*
X106680000Y-34925000D03*
X109220000Y-34925000D03*
X111760000Y-34925000D03*
X114300000Y-34925000D03*
X116840000Y-34925000D03*
X93980000Y-34925000D03*
D25*
X78740000Y-42545000D03*
X103505000Y-128905000D03*
X112395000Y-128905000D03*
X121285000Y-128905000D03*
X126365000Y-128905000D03*
X139065000Y-128905000D03*
X148590000Y-128905000D03*
X156845000Y-128905000D03*
X161925000Y-128905000D03*
X61595000Y-128905000D03*
X70485000Y-128905000D03*
X79375000Y-128905000D03*
X84455000Y-128905000D03*
X155575000Y-53340000D03*
X155575000Y-66040000D03*
X151765000Y-112268000D03*
X163195000Y-100838000D03*
X163449000Y-89154000D03*
X163449000Y-76073000D03*
X163703000Y-66040000D03*
X43942000Y-126873000D03*
X44323000Y-114173000D03*
X44450000Y-101346000D03*
X44323000Y-89027000D03*
X44450000Y-75184000D03*
X130937000Y-110109000D03*
X130683000Y-99949000D03*
X130683000Y-90932000D03*
X130937000Y-79629000D03*
X59690000Y-84201000D03*
X67691000Y-83947000D03*
X75692000Y-83566000D03*
X83820000Y-83439000D03*
X92583000Y-83820000D03*
X102235000Y-83947000D03*
X109728000Y-83947000D03*
X117983000Y-83566000D03*
X139446000Y-52578000D03*
X93980000Y-38735000D03*
X109778800Y-48717200D03*
X109728000Y-64363600D03*
X76352400Y-47091600D03*
X164010000Y-51630000D03*
X86360000Y-37592000D03*
X79375000Y-53975000D03*
X79375000Y-56515000D03*
X151130000Y-58420000D03*
X161925000Y-58420000D03*
X74371200Y-45389800D03*
D26*
X152460000Y-42590000D02*
X155550000Y-39500000D01*
X151745000Y-42590000D02*
X152460000Y-42590000D01*
X155550000Y-39500000D02*
X155550000Y-34000000D01*
X155550000Y-34000000D02*
X164450000Y-34000000D01*
X164450000Y-34000000D02*
X164450000Y-39500000D01*
X158400000Y-49400000D02*
X158950000Y-49950000D01*
X158400000Y-39500000D02*
X158400000Y-49400000D01*
X158095000Y-56825000D02*
X160635000Y-56825000D01*
X76602500Y-42545000D02*
X78740000Y-42545000D01*
X101600000Y-128524000D02*
X103124000Y-128524000D01*
X103124000Y-128524000D02*
X103505000Y-128905000D01*
X110490000Y-128545500D02*
X112035500Y-128545500D01*
X112035500Y-128545500D02*
X112395000Y-128905000D01*
X119380000Y-128524000D02*
X120904000Y-128524000D01*
X120904000Y-128524000D02*
X121285000Y-128905000D01*
X128270000Y-128545500D02*
X126724500Y-128545500D01*
X126724500Y-128545500D02*
X126365000Y-128905000D01*
X137160000Y-128545500D02*
X138705500Y-128545500D01*
X138705500Y-128545500D02*
X139065000Y-128905000D01*
X146282500Y-128545500D02*
X148230500Y-128545500D01*
X148230500Y-128545500D02*
X148590000Y-128905000D01*
X154940000Y-128524000D02*
X156464000Y-128524000D01*
X156464000Y-128524000D02*
X156845000Y-128905000D01*
X163830000Y-128545500D02*
X162284500Y-128545500D01*
X162284500Y-128545500D02*
X161925000Y-128905000D01*
X59690000Y-128524000D02*
X61214000Y-128524000D01*
X61214000Y-128524000D02*
X61595000Y-128905000D01*
X68580000Y-128524000D02*
X70104000Y-128524000D01*
X70104000Y-128524000D02*
X70485000Y-128905000D01*
X77470000Y-128545500D02*
X79015500Y-128545500D01*
X79015500Y-128545500D02*
X79375000Y-128905000D01*
X86360000Y-128545500D02*
X84814500Y-128545500D01*
X84814500Y-128545500D02*
X84455000Y-128905000D01*
X158950000Y-49950000D02*
X158950000Y-49965000D01*
X158950000Y-49965000D02*
X155575000Y-53340000D01*
X156520000Y-56825000D02*
X158095000Y-56825000D01*
X155575000Y-55880000D02*
X156520000Y-56825000D01*
X151745000Y-44665000D02*
X151745000Y-52050000D01*
X153035000Y-53340000D02*
X155575000Y-53340000D01*
X151745000Y-52050000D02*
X153035000Y-53340000D01*
X155575000Y-66040000D02*
X155575000Y-55245000D01*
X155575000Y-55245000D02*
X155575000Y-55880000D01*
X155575000Y-53340000D02*
X155575000Y-55245000D01*
X172870000Y-51650000D02*
X176110000Y-51650000D01*
X176110000Y-51650000D02*
X176530000Y-52070000D01*
X176530000Y-52070000D02*
X176530000Y-66040000D01*
X176530000Y-66040000D02*
X163703000Y-66040000D01*
X163703000Y-66040000D02*
X155575000Y-66040000D01*
X93980000Y-34925000D02*
X93980000Y-38735000D01*
X99695000Y-40640000D02*
X98425000Y-40640000D01*
X98425000Y-66040000D02*
X98425000Y-40640000D01*
X99695000Y-40640000D02*
X99695000Y-66040000D01*
X112395000Y-40640000D02*
X112395000Y-66040000D01*
D27*
X71850000Y-42545000D02*
X74527500Y-42545000D01*
X168350000Y-51650000D02*
X170795000Y-51650000D01*
X158095000Y-52505000D02*
X158950000Y-51650000D01*
X158095000Y-54825000D02*
X158095000Y-52505000D01*
X159604801Y-50995199D02*
X159604801Y-48079801D01*
X158950000Y-51650000D02*
X159604801Y-50995199D01*
X160000000Y-47684602D02*
X159604801Y-48079801D01*
X160000000Y-39500000D02*
X160000000Y-47684602D01*
X160950000Y-54510000D02*
X160635000Y-54825000D01*
X160950000Y-51650000D02*
X160950000Y-54510000D01*
X160635000Y-54825000D02*
X163175000Y-54825000D01*
X160295199Y-50995199D02*
X160295199Y-48814801D01*
X160950000Y-51650000D02*
X160295199Y-50995199D01*
X160800000Y-48310000D02*
X160800000Y-39500000D01*
X160295199Y-48814801D02*
X160800000Y-48310000D01*
D26*
X161600000Y-49100000D02*
X160950000Y-49750000D01*
X161600000Y-39500000D02*
X161600000Y-49100000D01*
X161590000Y-49110000D02*
X160950000Y-49750000D01*
X160950000Y-49750000D02*
X160980000Y-49750000D01*
X160980000Y-49750000D02*
X162860000Y-51630000D01*
X162860000Y-51630000D02*
X164010000Y-51630000D01*
X164030000Y-51650000D02*
X164010000Y-51630000D01*
X166350000Y-51650000D02*
X164030000Y-51650000D01*
X88620000Y-52420000D02*
X90658200Y-52420000D01*
X90658200Y-52420000D02*
X91262200Y-51816000D01*
X91262200Y-51816000D02*
X91262200Y-46177200D01*
X91262200Y-46177200D02*
X90500200Y-45415200D01*
X90500200Y-45415200D02*
X87020400Y-45415200D01*
X86360000Y-44754800D02*
X86360000Y-37592000D01*
X87020400Y-45415200D02*
X86360000Y-44754800D01*
D27*
X63040000Y-123099000D02*
X59690000Y-126449000D01*
X72217000Y-123099000D02*
X63040000Y-123099000D01*
X69934700Y-126449000D02*
X68580000Y-126449000D01*
X72775000Y-123608700D02*
X69934700Y-126449000D01*
X72775000Y-123099000D02*
X72775000Y-123608700D01*
X76136800Y-126470500D02*
X77470000Y-126470500D01*
X73275000Y-123608700D02*
X76136800Y-126470500D01*
X73275000Y-123099000D02*
X73275000Y-123608700D01*
X82988500Y-123099000D02*
X86360000Y-126470500D01*
X73833000Y-123099000D02*
X82988500Y-123099000D01*
X104950000Y-123099000D02*
X101600000Y-126449000D01*
X114127000Y-123099000D02*
X104950000Y-123099000D01*
X111823200Y-126470500D02*
X110490000Y-126470500D01*
X114685000Y-123608700D02*
X111823200Y-126470500D01*
X114685000Y-123099000D02*
X114685000Y-123608700D01*
X118025300Y-126449000D02*
X119380000Y-126449000D01*
X115185000Y-123608700D02*
X118025300Y-126449000D01*
X115185000Y-123099000D02*
X115185000Y-123608700D01*
X124898500Y-123099000D02*
X128270000Y-126470500D01*
X115743000Y-123099000D02*
X124898500Y-123099000D01*
X140531500Y-123099000D02*
X137160000Y-126470500D01*
X149687000Y-123099000D02*
X140531500Y-123099000D01*
X147383200Y-126470500D02*
X146282500Y-126470500D01*
X150245000Y-123608700D02*
X147383200Y-126470500D01*
X150245000Y-123099000D02*
X150245000Y-123608700D01*
X153585300Y-126449000D02*
X154940000Y-126449000D01*
X150745000Y-123608700D02*
X153585300Y-126449000D01*
X150745000Y-123099000D02*
X150745000Y-123608700D01*
X160458500Y-123099000D02*
X163830000Y-126470500D01*
X151303000Y-123099000D02*
X160458500Y-123099000D01*
X112857000Y-88438000D02*
X108585000Y-92710000D01*
X112857000Y-88174000D02*
X112857000Y-88438000D01*
X111125000Y-90973700D02*
X111125000Y-92710000D01*
X113415000Y-88683700D02*
X111125000Y-90973700D01*
X113415000Y-88174000D02*
X113415000Y-88683700D01*
X116205000Y-90973700D02*
X116205000Y-92710000D01*
X113915000Y-88683700D02*
X116205000Y-90973700D01*
X113915000Y-88174000D02*
X113915000Y-88683700D01*
X114473000Y-88438000D02*
X118745000Y-92710000D01*
X114473000Y-88174000D02*
X114473000Y-88438000D01*
X114473000Y-112222000D02*
X118745000Y-107950000D01*
X114473000Y-112486000D02*
X114473000Y-112222000D01*
X116205000Y-109686300D02*
X116205000Y-107950000D01*
X113915000Y-111976300D02*
X116205000Y-109686300D01*
X113915000Y-112486000D02*
X113915000Y-111976300D01*
X111125000Y-109686300D02*
X111125000Y-107950000D01*
X113415000Y-111976300D02*
X111125000Y-109686300D01*
X113415000Y-112486000D02*
X113415000Y-111976300D01*
X112857000Y-112222000D02*
X108585000Y-107950000D01*
X112857000Y-112486000D02*
X112857000Y-112222000D01*
X96347000Y-112222000D02*
X92075000Y-107950000D01*
X96347000Y-112486000D02*
X96347000Y-112222000D01*
X94615000Y-109686300D02*
X94615000Y-107950000D01*
X96905000Y-111976300D02*
X94615000Y-109686300D01*
X96905000Y-112486000D02*
X96905000Y-111976300D01*
X99695000Y-109686300D02*
X99695000Y-107950000D01*
X97405000Y-111976300D02*
X99695000Y-109686300D01*
X97405000Y-112486000D02*
X97405000Y-111976300D01*
X97963000Y-112222000D02*
X102235000Y-107950000D01*
X97963000Y-112486000D02*
X97963000Y-112222000D01*
X97963000Y-88438000D02*
X102235000Y-92710000D01*
X97963000Y-88174000D02*
X97963000Y-88438000D01*
X97405000Y-88683700D02*
X99695000Y-90973700D01*
X99695000Y-90973700D02*
X99695000Y-92710000D01*
X97405000Y-88174000D02*
X97405000Y-88683700D01*
X94615000Y-90973700D02*
X94615000Y-92710000D01*
X96905000Y-88683700D02*
X94615000Y-90973700D01*
X96905000Y-88174000D02*
X96905000Y-88683700D01*
X96347000Y-88438000D02*
X92075000Y-92710000D01*
X96347000Y-88174000D02*
X96347000Y-88438000D01*
X79837000Y-88438000D02*
X75565000Y-92710000D01*
X79837000Y-88174000D02*
X79837000Y-88438000D01*
X78105000Y-90973700D02*
X78105000Y-92710000D01*
X80395000Y-88683700D02*
X78105000Y-90973700D01*
X80395000Y-88174000D02*
X80395000Y-88683700D01*
X83185000Y-90973700D02*
X83185000Y-92710000D01*
X80895000Y-88683700D02*
X83185000Y-90973700D01*
X80895000Y-88174000D02*
X80895000Y-88683700D01*
X81453000Y-88438000D02*
X85725000Y-92710000D01*
X81453000Y-88174000D02*
X81453000Y-88438000D01*
X81453000Y-112222000D02*
X85725000Y-107950000D01*
X81453000Y-112486000D02*
X81453000Y-112222000D01*
X83185000Y-109686300D02*
X83185000Y-107950000D01*
X80895000Y-111976300D02*
X83185000Y-109686300D01*
X80895000Y-112486000D02*
X80895000Y-111976300D01*
X80395000Y-111976300D02*
X78105000Y-109686300D01*
X78105000Y-109686300D02*
X78105000Y-107950000D01*
X80395000Y-112486000D02*
X80395000Y-111976300D01*
X79837000Y-112222000D02*
X75565000Y-107950000D01*
X79837000Y-112486000D02*
X79837000Y-112222000D01*
X63327000Y-112222000D02*
X59055000Y-107950000D01*
X63327000Y-112486000D02*
X63327000Y-112222000D01*
X61595000Y-109686300D02*
X61595000Y-107950000D01*
X63885000Y-111976300D02*
X61595000Y-109686300D01*
X63885000Y-112486000D02*
X63885000Y-111976300D01*
X66675000Y-109686300D02*
X66675000Y-107950000D01*
X64385000Y-111976300D02*
X66675000Y-109686300D01*
X64385000Y-112486000D02*
X64385000Y-111976300D01*
X64943000Y-112222000D02*
X69215000Y-107950000D01*
X64943000Y-112486000D02*
X64943000Y-112222000D01*
X64943000Y-88438000D02*
X69215000Y-92710000D01*
X64943000Y-88174000D02*
X64943000Y-88438000D01*
X66675000Y-90973700D02*
X66675000Y-92710000D01*
X64385000Y-88683700D02*
X66675000Y-90973700D01*
X64385000Y-88174000D02*
X64385000Y-88683700D01*
X61595000Y-90973700D02*
X61595000Y-92710000D01*
X63885000Y-88683700D02*
X61595000Y-90973700D01*
X63885000Y-88174000D02*
X63885000Y-88683700D01*
X63327000Y-88438000D02*
X59055000Y-92710000D01*
X63327000Y-88174000D02*
X63327000Y-88438000D01*
X100965000Y-39370000D02*
X96520000Y-34925000D01*
X100965000Y-40640000D02*
X100965000Y-39370000D01*
X102235000Y-38100000D02*
X99060000Y-34925000D01*
X102235000Y-40640000D02*
X102235000Y-38100000D01*
X103505000Y-36830000D02*
X101600000Y-34925000D01*
X103505000Y-40640000D02*
X103505000Y-36830000D01*
X104775000Y-35560000D02*
X104140000Y-34925000D01*
X104775000Y-40640000D02*
X104775000Y-35560000D01*
X106045000Y-35560000D02*
X106680000Y-34925000D01*
X106045000Y-40640000D02*
X106045000Y-35560000D01*
X107315000Y-36830000D02*
X109220000Y-34925000D01*
X107315000Y-40640000D02*
X107315000Y-36830000D01*
X108585000Y-38100000D02*
X111760000Y-34925000D01*
X108585000Y-40640000D02*
X108585000Y-38100000D01*
X109855000Y-38391106D02*
X111416106Y-36830000D01*
X109855000Y-40640000D02*
X109855000Y-38391106D01*
X112395000Y-36830000D02*
X114300000Y-34925000D01*
X111416106Y-36830000D02*
X112395000Y-36830000D01*
X86710000Y-57500000D02*
X81915000Y-52705000D01*
X88620000Y-57500000D02*
X86710000Y-57500000D01*
X82170000Y-57530000D02*
X81915000Y-57785000D01*
X84170000Y-60040000D02*
X81915000Y-57785000D01*
X88620000Y-60040000D02*
X84170000Y-60040000D01*
X51435000Y-61595000D02*
X63500000Y-61595000D01*
X67310000Y-57785000D02*
X70485000Y-57785000D01*
X63500000Y-61595000D02*
X67310000Y-57785000D01*
X70485000Y-52705000D02*
X68580000Y-52705000D01*
X68580000Y-52705000D02*
X62230000Y-59055000D01*
X62230000Y-59055000D02*
X51435000Y-59055000D01*
X75200000Y-53975000D02*
X73660000Y-53975000D01*
X73660000Y-53975000D02*
X72390000Y-55245000D01*
X72390000Y-55245000D02*
X67945000Y-55245000D01*
X67945000Y-55245000D02*
X62865000Y-60325000D01*
X62865000Y-60325000D02*
X50800000Y-60325000D01*
X50800000Y-60325000D02*
X50165000Y-59690000D01*
X50165000Y-57785000D02*
X48895000Y-56515000D01*
X50165000Y-59690000D02*
X50165000Y-57785000D01*
X77200000Y-53975000D02*
X79375000Y-53975000D01*
X79375000Y-53975000D02*
X79375000Y-53975000D01*
X79375000Y-53975000D02*
X79375000Y-53975000D01*
X77200000Y-56515000D02*
X79375000Y-56515000D01*
X79375000Y-56515000D02*
X79375000Y-56515000D01*
X79375000Y-56515000D02*
X79375000Y-56515000D01*
X74295000Y-56515000D02*
X75200000Y-56515000D01*
X73025000Y-57785000D02*
X74295000Y-56515000D01*
X71755000Y-60325000D02*
X73025000Y-59055000D01*
X63500000Y-62865000D02*
X66040000Y-60325000D01*
X66040000Y-60325000D02*
X71755000Y-60325000D01*
X47625000Y-62865000D02*
X63500000Y-62865000D01*
X73025000Y-59055000D02*
X73025000Y-57785000D01*
X46990000Y-62230000D02*
X47625000Y-62865000D01*
X46990000Y-59690000D02*
X46990000Y-62230000D01*
X47625000Y-59055000D02*
X46990000Y-59690000D01*
X48895000Y-59055000D02*
X47625000Y-59055000D01*
X56515000Y-48895000D02*
X51435000Y-53975000D01*
X69850000Y-42545000D02*
X58420000Y-42545000D01*
X58420000Y-42545000D02*
X56515000Y-44450000D01*
X56515000Y-44450000D02*
X56515000Y-48895000D01*
D26*
X111125000Y-40640000D02*
X111125000Y-44450000D01*
X48895000Y-53975000D02*
X50165000Y-55245000D01*
X50165000Y-55245000D02*
X60960000Y-55245000D01*
X111125000Y-40640000D02*
X111125000Y-39370000D01*
X111125000Y-39370000D02*
X111760000Y-38735000D01*
X111760000Y-38735000D02*
X147320000Y-38735000D01*
X147320000Y-38735000D02*
X148590000Y-38735000D01*
X148590000Y-38735000D02*
X149225000Y-38735000D01*
X149225000Y-38735000D02*
X149860000Y-39370000D01*
X149860000Y-39370000D02*
X149860000Y-57150000D01*
X149860000Y-57150000D02*
X151130000Y-58420000D01*
X163175000Y-57170000D02*
X161925000Y-58420000D01*
X163175000Y-56825000D02*
X163175000Y-57170000D01*
X72217000Y-147229000D02*
X72217000Y-149052000D01*
X72217000Y-149052000D02*
X72390000Y-149225000D01*
X73025000Y-149225000D02*
X73660000Y-149225000D01*
X72390000Y-149225000D02*
X73025000Y-149225000D01*
X111125000Y-66040000D02*
X111125000Y-66675000D01*
X111125000Y-66817817D02*
X99202817Y-78740000D01*
X111125000Y-66040000D02*
X111125000Y-66817817D01*
X99202817Y-78740000D02*
X92710000Y-78740000D01*
X92710000Y-78740000D02*
X90170000Y-81280000D01*
X90170000Y-81280000D02*
X90170000Y-149225000D01*
X73025000Y-149225000D02*
X90170000Y-149225000D01*
X72775000Y-147229000D02*
X72775000Y-148975000D01*
X73275000Y-147229000D02*
X73275000Y-148840000D01*
X73275000Y-148840000D02*
X73660000Y-149225000D01*
X72775000Y-148975000D02*
X73025000Y-149225000D01*
X73833000Y-147229000D02*
X73833000Y-148763000D01*
X73833000Y-148763000D02*
X74295000Y-149225000D01*
X114127000Y-147229000D02*
X114127000Y-148763000D01*
X114127000Y-148763000D02*
X113665000Y-149225000D01*
X114685000Y-147229000D02*
X114685000Y-148840000D01*
X114685000Y-148840000D02*
X114300000Y-149225000D01*
X90170000Y-149225000D02*
X114300000Y-149225000D01*
X115185000Y-148975000D02*
X114935000Y-149225000D01*
X115185000Y-147229000D02*
X115185000Y-148975000D01*
X114300000Y-149225000D02*
X114935000Y-149225000D01*
X115743000Y-147229000D02*
X115743000Y-149052000D01*
X149687000Y-148763000D02*
X149225000Y-149225000D01*
X149687000Y-147229000D02*
X149687000Y-148763000D01*
X114935000Y-149225000D02*
X149225000Y-149225000D01*
X150245000Y-147229000D02*
X150245000Y-148840000D01*
X150245000Y-148840000D02*
X149860000Y-149225000D01*
X149225000Y-149225000D02*
X149860000Y-149225000D01*
X150745000Y-148975000D02*
X150495000Y-149225000D01*
X150745000Y-147229000D02*
X150745000Y-148975000D01*
X150495000Y-149225000D02*
X151130000Y-149225000D01*
X149860000Y-149225000D02*
X150495000Y-149225000D01*
X151303000Y-149052000D02*
X151130000Y-149225000D01*
X151303000Y-147229000D02*
X151303000Y-149052000D01*
X110907400Y-47360000D02*
X111125000Y-47142400D01*
X101710000Y-47360000D02*
X110907400Y-47360000D01*
X111125000Y-47142400D02*
X111125000Y-66040000D01*
X111125000Y-44450000D02*
X111125000Y-47142400D01*
X70815200Y-45389800D02*
X74371200Y-45389800D01*
X60960000Y-55245000D02*
X70815200Y-45389800D01*
D27*
X76109000Y-146141000D02*
X86360000Y-135890000D01*
X73833000Y-146141000D02*
X76109000Y-146141000D01*
X94615000Y-62885000D02*
X94615000Y-44450000D01*
X93890441Y-63609559D02*
X94615000Y-62885000D01*
X86499144Y-64315750D02*
X87205335Y-63609559D01*
X65405000Y-64315750D02*
X86499144Y-64315750D01*
X92075000Y-41910000D02*
X92075000Y-40640000D01*
X94615000Y-44450000D02*
X92075000Y-41910000D01*
X53975000Y-75745750D02*
X65405000Y-64315750D01*
X87205335Y-63609559D02*
X93890441Y-63609559D01*
X53975000Y-127000000D02*
X53975000Y-75745750D01*
X57150000Y-130175000D02*
X53975000Y-127000000D01*
X85090000Y-130175000D02*
X57150000Y-130175000D01*
X86360000Y-131445000D02*
X85090000Y-130175000D01*
X86360000Y-135890000D02*
X86360000Y-131445000D01*
X73275000Y-140085000D02*
X77470000Y-135890000D01*
X73275000Y-146141000D02*
X73275000Y-140085000D01*
X90805000Y-41910000D02*
X90805000Y-40640000D01*
X93366851Y-63203149D02*
X93980000Y-62590000D01*
X87036995Y-63203149D02*
X93366851Y-63203149D01*
X93980000Y-62590000D02*
X93980000Y-45085000D01*
X65405000Y-63500000D02*
X86740144Y-63500000D01*
X53340000Y-75565000D02*
X65405000Y-63500000D01*
X53340000Y-126939750D02*
X53340000Y-75565000D01*
X57210250Y-130810000D02*
X53340000Y-126939750D01*
X93980000Y-45085000D02*
X90805000Y-41910000D01*
X76835000Y-130810000D02*
X57210250Y-130810000D01*
X86740144Y-63500000D02*
X87036995Y-63203149D01*
X77470000Y-131445000D02*
X76835000Y-130810000D01*
X77470000Y-135890000D02*
X77470000Y-131445000D01*
X72775000Y-140085000D02*
X68580000Y-135890000D01*
X72775000Y-146141000D02*
X72775000Y-140085000D01*
X89535000Y-41275000D02*
X89535000Y-40640000D01*
X93345000Y-45085000D02*
X89535000Y-41275000D01*
X68580000Y-135890000D02*
X68580000Y-132080000D01*
X68580000Y-132080000D02*
X67945000Y-131445000D01*
X52705000Y-126879500D02*
X52705000Y-75565000D01*
X93370000Y-59715000D02*
X93345000Y-59690000D01*
X67945000Y-131445000D02*
X57270500Y-131445000D01*
X93345000Y-59690000D02*
X93345000Y-45085000D01*
X52705000Y-75565000D02*
X65405000Y-62865000D01*
X57270500Y-131445000D02*
X52705000Y-126879500D01*
X65405000Y-62865000D02*
X86800394Y-62865000D01*
X86800394Y-62865000D02*
X86868655Y-62796739D01*
X92793261Y-62796739D02*
X93370000Y-62220000D01*
X86868655Y-62796739D02*
X92793261Y-62796739D01*
X93370000Y-62220000D02*
X93370000Y-59715000D01*
X69941000Y-146141000D02*
X59690000Y-135890000D01*
X72217000Y-146141000D02*
X69941000Y-146141000D01*
X92710000Y-45085000D02*
X88265000Y-40640000D01*
X92710000Y-61890000D02*
X92710000Y-58960000D01*
X64195250Y-63500000D02*
X65465250Y-62230000D01*
X64135000Y-63500000D02*
X64195250Y-63500000D01*
X92370000Y-62230000D02*
X92710000Y-61890000D01*
X52250750Y-75384250D02*
X64135000Y-63500000D01*
X65465250Y-62230000D02*
X92370000Y-62230000D01*
X57330750Y-132080000D02*
X52250750Y-127000000D01*
X52250750Y-127000000D02*
X52250750Y-75384250D01*
X59055000Y-132080000D02*
X57330750Y-132080000D01*
X59690000Y-132715000D02*
X59055000Y-132080000D01*
X59690000Y-135890000D02*
X59690000Y-132715000D01*
X92710000Y-58960000D02*
X92710000Y-45085000D01*
X92710000Y-59055000D02*
X92710000Y-58960000D01*
X73833000Y-118283000D02*
X73833000Y-122011000D01*
X73025000Y-117475000D02*
X73833000Y-118283000D01*
X66040000Y-66675000D02*
X56515000Y-76200000D01*
X86438894Y-66675000D02*
X66040000Y-66675000D01*
X87878695Y-65235199D02*
X86438894Y-66675000D01*
X56515000Y-116205000D02*
X57785000Y-117475000D01*
X96271305Y-65235199D02*
X87878695Y-65235199D01*
X57785000Y-117475000D02*
X73025000Y-117475000D01*
X97155000Y-64351504D02*
X96271305Y-65235199D01*
X56515000Y-76200000D02*
X56515000Y-116205000D01*
X97155000Y-40640000D02*
X97155000Y-64351504D01*
X96520000Y-64010000D02*
X96520000Y-42545000D01*
X95701211Y-64828789D02*
X96520000Y-64010000D01*
X86499144Y-66040000D02*
X87710355Y-64828789D01*
X55880000Y-75565000D02*
X65405000Y-66040000D01*
X55880000Y-116144750D02*
X55880000Y-75565000D01*
X95885000Y-41910000D02*
X95885000Y-40640000D01*
X57845250Y-118110000D02*
X55880000Y-116144750D01*
X87710355Y-64828789D02*
X95701211Y-64828789D01*
X65405000Y-66040000D02*
X86499144Y-66040000D01*
X72390000Y-118110000D02*
X57845250Y-118110000D01*
X96520000Y-42545000D02*
X95885000Y-41910000D01*
X73275000Y-118995000D02*
X72390000Y-118110000D01*
X73275000Y-122011000D02*
X73275000Y-118995000D01*
X95885000Y-43180000D02*
X94615000Y-41910000D01*
X95885000Y-63685000D02*
X95885000Y-43180000D01*
X95147621Y-64422379D02*
X95885000Y-63685000D01*
X86559394Y-65405000D02*
X87542015Y-64422379D01*
X94615000Y-41910000D02*
X94615000Y-40640000D01*
X87542015Y-64422379D02*
X95147621Y-64422379D01*
X65465250Y-65405000D02*
X86559394Y-65405000D01*
X55245000Y-75625250D02*
X65465250Y-65405000D01*
X55245000Y-116084500D02*
X55245000Y-75625250D01*
X71755000Y-118745000D02*
X57905500Y-118745000D01*
X57905500Y-118745000D02*
X55245000Y-116084500D01*
X72775000Y-119765000D02*
X71755000Y-118745000D01*
X72775000Y-122011000D02*
X72775000Y-119765000D01*
X93345000Y-41910000D02*
X93345000Y-40640000D01*
X95250000Y-43815000D02*
X93345000Y-41910000D01*
X95250000Y-63370000D02*
X95250000Y-43815000D01*
X94604031Y-64015969D02*
X95250000Y-63370000D01*
X86619644Y-64770000D02*
X87373675Y-64015969D01*
X54610000Y-75685500D02*
X65525500Y-64770000D01*
X87373675Y-64015969D02*
X94604031Y-64015969D01*
X65525500Y-64770000D02*
X86619644Y-64770000D01*
X57785000Y-119380000D02*
X54610000Y-116205000D01*
X71120000Y-119380000D02*
X57785000Y-119380000D01*
X72217000Y-120477000D02*
X71120000Y-119380000D01*
X54610000Y-116205000D02*
X54610000Y-75685500D01*
X72217000Y-122011000D02*
X72217000Y-120477000D01*
X111851000Y-146141000D02*
X101600000Y-135890000D01*
X114127000Y-146141000D02*
X111851000Y-146141000D01*
X118745000Y-60325000D02*
X118745000Y-40640000D01*
X140970000Y-61595000D02*
X120015000Y-61595000D01*
X142240000Y-118110000D02*
X142240000Y-62865000D01*
X120015000Y-61595000D02*
X118745000Y-60325000D01*
X140335000Y-120015000D02*
X142240000Y-118110000D01*
X131445000Y-120015000D02*
X140335000Y-120015000D01*
X130810000Y-120650000D02*
X131445000Y-120015000D01*
X130810000Y-129540000D02*
X130810000Y-120650000D01*
X142240000Y-62865000D02*
X140970000Y-61595000D01*
X130175000Y-130175000D02*
X130810000Y-129540000D01*
X102235000Y-130175000D02*
X130175000Y-130175000D01*
X101600000Y-130810000D02*
X102235000Y-130175000D01*
X101600000Y-135890000D02*
X101600000Y-130810000D01*
X114685000Y-140085000D02*
X110490000Y-135890000D01*
X114685000Y-146141000D02*
X114685000Y-140085000D01*
X121285000Y-60960000D02*
X120015000Y-59690000D01*
X141605000Y-60960000D02*
X121285000Y-60960000D01*
X120015000Y-59690000D02*
X120015000Y-40640000D01*
X142875000Y-118745000D02*
X142875000Y-62230000D01*
X140970000Y-120650000D02*
X142875000Y-118745000D01*
X132080000Y-120650000D02*
X140970000Y-120650000D01*
X142875000Y-62230000D02*
X141605000Y-60960000D01*
X131445000Y-121285000D02*
X132080000Y-120650000D01*
X131445000Y-130175000D02*
X131445000Y-121285000D01*
X130810000Y-130810000D02*
X131445000Y-130175000D01*
X111125000Y-130810000D02*
X130810000Y-130810000D01*
X110490000Y-131445000D02*
X111125000Y-130810000D01*
X110490000Y-135890000D02*
X110490000Y-131445000D01*
X115185000Y-140085000D02*
X119380000Y-135890000D01*
X115185000Y-146141000D02*
X115185000Y-140085000D01*
X143510000Y-61595000D02*
X142240000Y-60325000D01*
X143510000Y-119380000D02*
X143510000Y-61595000D01*
X132715000Y-121285000D02*
X141605000Y-121285000D01*
X142240000Y-60325000D02*
X122555000Y-60325000D01*
X132080000Y-121920000D02*
X132715000Y-121285000D01*
X121285000Y-59055000D02*
X121285000Y-40640000D01*
X141605000Y-121285000D02*
X143510000Y-119380000D01*
X132080000Y-130810000D02*
X132080000Y-121920000D01*
X122555000Y-60325000D02*
X121285000Y-59055000D01*
X131445000Y-131445000D02*
X132080000Y-130810000D01*
X120015000Y-131445000D02*
X131445000Y-131445000D01*
X119380000Y-132080000D02*
X120015000Y-131445000D01*
X119380000Y-135890000D02*
X119380000Y-132080000D01*
X118019000Y-146141000D02*
X128270000Y-135890000D01*
X115743000Y-146141000D02*
X118019000Y-146141000D01*
X122555000Y-58420000D02*
X122555000Y-40640000D01*
X123825000Y-59690000D02*
X122555000Y-58420000D01*
X144145000Y-60960000D02*
X142875000Y-59690000D01*
X144145000Y-120015000D02*
X144145000Y-60960000D01*
X142240000Y-121920000D02*
X144145000Y-120015000D01*
X133350000Y-121920000D02*
X142240000Y-121920000D01*
X142875000Y-59690000D02*
X123825000Y-59690000D01*
X132715000Y-122555000D02*
X133350000Y-121920000D01*
X132715000Y-131445000D02*
X132715000Y-122555000D01*
X132080000Y-132080000D02*
X132715000Y-131445000D01*
X128905000Y-132080000D02*
X132080000Y-132080000D01*
X128270000Y-132715000D02*
X128905000Y-132080000D01*
X128270000Y-135890000D02*
X128270000Y-132715000D01*
X140335000Y-62230000D02*
X118745000Y-62230000D01*
X141605000Y-63500000D02*
X140335000Y-62230000D01*
X141605000Y-117475000D02*
X141605000Y-63500000D01*
X117475000Y-60960000D02*
X117475000Y-40640000D01*
X139700000Y-119380000D02*
X141605000Y-117475000D01*
X118745000Y-62230000D02*
X117475000Y-60960000D01*
X116840000Y-119380000D02*
X139700000Y-119380000D01*
X115743000Y-120477000D02*
X116840000Y-119380000D01*
X115743000Y-122011000D02*
X115743000Y-120477000D01*
X116205000Y-61595000D02*
X116205000Y-40640000D01*
X117475000Y-62865000D02*
X116205000Y-61595000D01*
X140970000Y-116840000D02*
X140970000Y-64135000D01*
X139065000Y-118745000D02*
X140970000Y-116840000D01*
X139700000Y-62865000D02*
X117475000Y-62865000D01*
X140970000Y-64135000D02*
X139700000Y-62865000D01*
X116205000Y-118745000D02*
X139065000Y-118745000D01*
X115185000Y-119765000D02*
X116205000Y-118745000D01*
X115185000Y-122011000D02*
X115185000Y-119765000D01*
X114935000Y-62230000D02*
X114935000Y-40640000D01*
X139065000Y-63500000D02*
X116205000Y-63500000D01*
X140335000Y-64770000D02*
X139065000Y-63500000D01*
X140335000Y-116144750D02*
X140335000Y-64770000D01*
X116205000Y-63500000D02*
X114935000Y-62230000D01*
X138369750Y-118110000D02*
X140335000Y-116144750D01*
X114685000Y-118995000D02*
X115570000Y-118110000D01*
X115570000Y-118110000D02*
X138369750Y-118110000D01*
X114685000Y-122011000D02*
X114685000Y-118995000D01*
X114935000Y-64135000D02*
X113665000Y-62865000D01*
X139065000Y-64135000D02*
X114935000Y-64135000D01*
X139700000Y-64770000D02*
X139065000Y-64135000D01*
X139700000Y-116205000D02*
X139700000Y-64770000D01*
X138430000Y-117475000D02*
X139700000Y-116205000D01*
X114935000Y-117475000D02*
X138430000Y-117475000D01*
X114127000Y-118283000D02*
X114935000Y-117475000D01*
X113665000Y-62865000D02*
X113665000Y-40640000D01*
X114127000Y-122011000D02*
X114127000Y-118283000D01*
X126365000Y-57785000D02*
X126365000Y-40640000D01*
X143510000Y-59055000D02*
X127635000Y-59055000D01*
X144780000Y-60325000D02*
X143510000Y-59055000D01*
X127635000Y-59055000D02*
X126365000Y-57785000D01*
X146050000Y-119380000D02*
X144780000Y-118110000D01*
X144780000Y-118110000D02*
X144780000Y-60325000D01*
X148590000Y-119380000D02*
X146050000Y-119380000D01*
X149687000Y-120477000D02*
X148590000Y-119380000D01*
X149687000Y-122011000D02*
X149687000Y-120477000D01*
X127635000Y-57150000D02*
X127635000Y-40640000D01*
X128905000Y-58420000D02*
X127635000Y-57150000D01*
X144145000Y-58420000D02*
X128905000Y-58420000D01*
X145415000Y-117475000D02*
X145415000Y-59690000D01*
X146685000Y-118745000D02*
X145415000Y-117475000D01*
X148590000Y-118745000D02*
X146685000Y-118745000D01*
X150245000Y-120400000D02*
X148590000Y-118745000D01*
X145415000Y-59690000D02*
X144145000Y-58420000D01*
X150245000Y-122011000D02*
X150245000Y-120400000D01*
X130175000Y-57785000D02*
X128905000Y-56515000D01*
X146050000Y-59055000D02*
X144780000Y-57785000D01*
X144780000Y-57785000D02*
X130175000Y-57785000D01*
X146050000Y-116840000D02*
X146050000Y-59055000D01*
X147320000Y-118110000D02*
X146050000Y-116840000D01*
X128905000Y-56515000D02*
X128905000Y-40640000D01*
X149225000Y-118110000D02*
X147320000Y-118110000D01*
X150745000Y-119630000D02*
X149225000Y-118110000D01*
X150745000Y-122011000D02*
X150745000Y-119630000D01*
X145415000Y-57150000D02*
X131445000Y-57150000D01*
X131445000Y-57150000D02*
X130175000Y-55880000D01*
X146685000Y-58420000D02*
X145415000Y-57150000D01*
X130175000Y-55880000D02*
X130175000Y-40640000D01*
X146685000Y-116205000D02*
X146685000Y-58420000D01*
X147955000Y-117475000D02*
X146685000Y-116205000D01*
X149860000Y-117475000D02*
X147955000Y-117475000D01*
X151303000Y-118918000D02*
X149860000Y-117475000D01*
X151303000Y-122011000D02*
X151303000Y-118918000D01*
X153579000Y-146141000D02*
X163830000Y-135890000D01*
X151303000Y-146141000D02*
X153579000Y-146141000D01*
X135255000Y-53340000D02*
X135255000Y-40640000D01*
X136525000Y-54610000D02*
X135255000Y-53340000D01*
X147955000Y-54610000D02*
X136525000Y-54610000D01*
X149225000Y-55880000D02*
X147955000Y-54610000D01*
X149225000Y-113030000D02*
X149225000Y-55880000D01*
X151130000Y-114935000D02*
X149225000Y-113030000D01*
X167005000Y-114935000D02*
X151130000Y-114935000D01*
X168275000Y-130810000D02*
X168275000Y-116205000D01*
X167005000Y-132080000D02*
X168275000Y-130810000D01*
X168275000Y-116205000D02*
X167005000Y-114935000D01*
X164465000Y-132080000D02*
X167005000Y-132080000D01*
X163830000Y-132715000D02*
X164465000Y-132080000D01*
X163830000Y-135890000D02*
X163830000Y-132715000D01*
X150745000Y-140085000D02*
X154940000Y-135890000D01*
X150745000Y-146141000D02*
X150745000Y-140085000D01*
X133985000Y-53975000D02*
X133985000Y-40640000D01*
X135255000Y-55245000D02*
X133985000Y-53975000D01*
X147320000Y-55245000D02*
X135255000Y-55245000D01*
X148590000Y-113665000D02*
X148590000Y-56515000D01*
X166370000Y-115570000D02*
X150495000Y-115570000D01*
X167640000Y-116840000D02*
X166370000Y-115570000D01*
X167640000Y-130175000D02*
X167640000Y-116840000D01*
X166370000Y-131445000D02*
X167640000Y-130175000D01*
X148590000Y-56515000D02*
X147320000Y-55245000D01*
X155575000Y-131445000D02*
X166370000Y-131445000D01*
X150495000Y-115570000D02*
X148590000Y-113665000D01*
X154940000Y-132080000D02*
X155575000Y-131445000D01*
X154940000Y-135890000D02*
X154940000Y-132080000D01*
X150245000Y-140085000D02*
X146050000Y-135890000D01*
X150245000Y-146141000D02*
X150245000Y-140085000D01*
X132715000Y-54610000D02*
X132715000Y-40640000D01*
X146685000Y-55880000D02*
X133985000Y-55880000D01*
X147955000Y-114300000D02*
X147955000Y-57150000D01*
X133985000Y-55880000D02*
X132715000Y-54610000D01*
X149860000Y-116205000D02*
X147955000Y-114300000D01*
X167005000Y-117475000D02*
X165735000Y-116205000D01*
X165735000Y-116205000D02*
X149860000Y-116205000D01*
X167005000Y-129540000D02*
X167005000Y-117475000D01*
X146685000Y-130810000D02*
X165735000Y-130810000D01*
X147955000Y-57150000D02*
X146685000Y-55880000D01*
X146050000Y-131445000D02*
X146685000Y-130810000D01*
X165735000Y-130810000D02*
X167005000Y-129540000D01*
X146050000Y-135890000D02*
X146050000Y-131445000D01*
X147411000Y-146141000D02*
X137160000Y-135890000D01*
X149687000Y-146141000D02*
X147411000Y-146141000D01*
X132715000Y-56515000D02*
X131445000Y-55245000D01*
X146050000Y-56515000D02*
X132715000Y-56515000D01*
X131445000Y-55245000D02*
X131445000Y-40640000D01*
X147320000Y-114935000D02*
X147320000Y-57785000D01*
X149225000Y-116840000D02*
X147320000Y-114935000D01*
X165100000Y-116840000D02*
X149225000Y-116840000D01*
X166370000Y-118110000D02*
X165100000Y-116840000D01*
X166370000Y-129540000D02*
X166370000Y-118110000D01*
X165735000Y-130175000D02*
X166370000Y-129540000D01*
X147320000Y-57785000D02*
X146050000Y-56515000D01*
X137795000Y-130175000D02*
X165735000Y-130175000D01*
X137160000Y-130810000D02*
X137795000Y-130175000D01*
X137160000Y-135890000D02*
X137160000Y-130810000D01*
X131445000Y-67945000D02*
X131445000Y-66040000D01*
X120650000Y-78740000D02*
X131445000Y-67945000D01*
X120650000Y-114300000D02*
X120650000Y-78740000D01*
X120015000Y-114935000D02*
X120650000Y-114300000D01*
X114935000Y-114935000D02*
X120015000Y-114935000D01*
X114473000Y-114473000D02*
X114935000Y-114935000D01*
X114473000Y-113574000D02*
X114473000Y-114473000D01*
X121285000Y-114239750D02*
X121285000Y-79375000D01*
X121285000Y-79375000D02*
X132715000Y-67945000D01*
X114995250Y-115570000D02*
X119954750Y-115570000D01*
X132715000Y-67945000D02*
X132715000Y-66040000D01*
X113915000Y-114489750D02*
X114995250Y-115570000D01*
X119954750Y-115570000D02*
X121285000Y-114239750D01*
X113915000Y-113574000D02*
X113915000Y-114489750D01*
X113415000Y-113574000D02*
X113415000Y-114564500D01*
X113415000Y-114564500D02*
X114995250Y-116144750D01*
X114995250Y-116144750D02*
X115055500Y-116205000D01*
X121920000Y-80010000D02*
X133985000Y-67945000D01*
X121920000Y-114179500D02*
X121920000Y-80010000D01*
X119954750Y-116144750D02*
X121920000Y-114179500D01*
X133985000Y-67945000D02*
X133985000Y-66040000D01*
X114995250Y-116144750D02*
X119954750Y-116144750D01*
X122555000Y-80645000D02*
X135255000Y-67945000D01*
X122555000Y-114119250D02*
X122555000Y-80645000D01*
X119834250Y-116840000D02*
X122555000Y-114119250D01*
X135255000Y-67945000D02*
X135255000Y-66040000D01*
X115115750Y-116840000D02*
X119834250Y-116840000D01*
X112857000Y-114581250D02*
X115115750Y-116840000D01*
X112857000Y-113574000D02*
X112857000Y-114581250D01*
X106045000Y-114239750D02*
X106045000Y-82550000D01*
X103444750Y-116840000D02*
X106045000Y-114239750D01*
X99011800Y-116840000D02*
X103444750Y-116840000D01*
X106045000Y-82550000D02*
X122555000Y-66040000D01*
X96347000Y-114175200D02*
X99011800Y-116840000D01*
X96347000Y-113574000D02*
X96347000Y-114175200D01*
X121285000Y-66044894D02*
X121285000Y-66040000D01*
X105410000Y-81919894D02*
X121285000Y-66044894D01*
X105410000Y-114300000D02*
X105410000Y-81919894D01*
X103505000Y-116205000D02*
X105410000Y-114300000D01*
X98951550Y-116205000D02*
X103505000Y-116205000D01*
X96905000Y-114158450D02*
X98951550Y-116205000D01*
X96905000Y-113574000D02*
X96905000Y-114158450D01*
X104775000Y-81280000D02*
X120015000Y-66040000D01*
X104775000Y-114300000D02*
X104775000Y-81280000D01*
X103505000Y-115570000D02*
X104775000Y-114300000D01*
X97405000Y-114083700D02*
X98891300Y-115570000D01*
X98891300Y-115570000D02*
X103505000Y-115570000D01*
X97405000Y-113574000D02*
X97405000Y-114083700D01*
X97963000Y-113574000D02*
X97963000Y-113838000D01*
X97963000Y-113838000D02*
X99060000Y-114935000D01*
X99060000Y-114935000D02*
X103505000Y-114935000D01*
X103505000Y-114935000D02*
X104140000Y-114300000D01*
X104140000Y-114300000D02*
X104140000Y-80645000D01*
X118329801Y-66455199D02*
X118745000Y-66040000D01*
X104140000Y-80645000D02*
X118329801Y-66455199D01*
X96520000Y-75565000D02*
X106045000Y-66040000D01*
X87630000Y-76835000D02*
X88900000Y-75565000D01*
X87630000Y-114300000D02*
X87630000Y-76835000D01*
X81915000Y-114935000D02*
X86995000Y-114935000D01*
X86995000Y-114935000D02*
X87630000Y-114300000D01*
X81453000Y-114473000D02*
X81915000Y-114935000D01*
X88900000Y-75565000D02*
X96520000Y-75565000D01*
X81453000Y-113574000D02*
X81453000Y-114473000D01*
X107310106Y-66040000D02*
X107315000Y-66040000D01*
X97150106Y-76200000D02*
X107310106Y-66040000D01*
X89535000Y-76200000D02*
X97150106Y-76200000D01*
X88265000Y-77470000D02*
X89535000Y-76200000D01*
X88265000Y-114239750D02*
X88265000Y-77470000D01*
X86934750Y-115570000D02*
X88265000Y-114239750D01*
X81975250Y-115570000D02*
X86934750Y-115570000D01*
X80895000Y-114489750D02*
X81975250Y-115570000D01*
X80895000Y-113574000D02*
X80895000Y-114489750D01*
X108580106Y-66040000D02*
X108585000Y-66040000D01*
X97785106Y-76835000D02*
X108580106Y-66040000D01*
X88900000Y-114179500D02*
X88900000Y-78105000D01*
X87103091Y-115976409D02*
X88900000Y-114179500D01*
X87223590Y-115976410D02*
X87103091Y-115976409D01*
X81915000Y-116205000D02*
X86995000Y-116205000D01*
X90170000Y-76835000D02*
X97785106Y-76835000D01*
X86995000Y-116205000D02*
X87223590Y-115976410D01*
X80395000Y-114685000D02*
X81915000Y-116205000D01*
X88900000Y-78105000D02*
X90170000Y-76835000D01*
X80395000Y-113574000D02*
X80395000Y-114685000D01*
X109850106Y-66040000D02*
X109855000Y-66040000D01*
X98420106Y-77470000D02*
X109850106Y-66040000D01*
X90805000Y-77470000D02*
X98420106Y-77470000D01*
X89535000Y-78740000D02*
X90805000Y-77470000D01*
X89535000Y-114935000D02*
X89535000Y-78740000D01*
X87630000Y-116840000D02*
X89535000Y-114935000D01*
X81915000Y-116840000D02*
X87630000Y-116840000D01*
X79837000Y-114762000D02*
X81915000Y-116840000D01*
X79837000Y-113574000D02*
X79837000Y-114762000D01*
X63327000Y-114701750D02*
X65465250Y-116840000D01*
X63327000Y-113574000D02*
X63327000Y-114701750D01*
X65465250Y-116840000D02*
X70485000Y-116840000D01*
X70485000Y-116840000D02*
X73025000Y-114300000D01*
X73025000Y-114300000D02*
X73025000Y-73660000D01*
X73025000Y-73660000D02*
X74295000Y-72390000D01*
X97155000Y-66044894D02*
X97155000Y-66040000D01*
X90809894Y-72390000D02*
X97155000Y-66044894D01*
X74295000Y-72390000D02*
X90809894Y-72390000D01*
X73660000Y-71755000D02*
X90170000Y-71755000D01*
X72390000Y-73025000D02*
X73660000Y-71755000D01*
X90170000Y-71755000D02*
X95885000Y-66040000D01*
X72390000Y-114239750D02*
X72390000Y-73025000D01*
X70424750Y-116205000D02*
X72390000Y-114239750D01*
X65405000Y-116205000D02*
X70424750Y-116205000D01*
X63885000Y-114685000D02*
X65405000Y-116205000D01*
X63885000Y-113574000D02*
X63885000Y-114685000D01*
X64385000Y-113574000D02*
X64385000Y-114550000D01*
X64385000Y-114550000D02*
X65405000Y-115570000D01*
X65405000Y-115570000D02*
X70485000Y-115570000D01*
X70485000Y-115570000D02*
X71755000Y-114300000D01*
X71755000Y-114300000D02*
X71755000Y-72390000D01*
X71755000Y-72390000D02*
X73025000Y-71120000D01*
X89535000Y-71120000D02*
X94615000Y-66040000D01*
X73025000Y-71120000D02*
X89535000Y-71120000D01*
X64943000Y-113574000D02*
X64943000Y-114473000D01*
X64943000Y-114473000D02*
X65405000Y-114935000D01*
X65405000Y-114935000D02*
X70485000Y-114935000D01*
X70485000Y-114935000D02*
X71120000Y-114300000D01*
X71120000Y-114300000D02*
X71120000Y-71755000D01*
X71120000Y-71755000D02*
X72390000Y-70485000D01*
X88900000Y-70485000D02*
X93345000Y-66040000D01*
X72390000Y-70485000D02*
X88900000Y-70485000D01*
X112857000Y-87086000D02*
X112857000Y-81453000D01*
X126365000Y-67945000D02*
X126365000Y-66040000D01*
X112857000Y-81453000D02*
X126365000Y-67945000D01*
X113415000Y-87086000D02*
X113415000Y-82165000D01*
X127635000Y-67945000D02*
X127635000Y-66040000D01*
X113415000Y-82165000D02*
X127635000Y-67945000D01*
X113915000Y-87086000D02*
X113915000Y-82935000D01*
X128905000Y-67945000D02*
X128905000Y-66040000D01*
X113915000Y-82935000D02*
X128905000Y-67945000D01*
X114473000Y-87086000D02*
X114473000Y-83647000D01*
X130175000Y-67945000D02*
X130175000Y-66040000D01*
X114473000Y-83647000D02*
X130175000Y-67945000D01*
X117470106Y-66040000D02*
X117475000Y-66040000D01*
X103500106Y-80010000D02*
X117470106Y-66040000D01*
X97963000Y-87086000D02*
X97963000Y-85552000D01*
X97963000Y-85552000D02*
X103505000Y-80010000D01*
X97405000Y-84840000D02*
X97405000Y-87086000D01*
X116205000Y-66040000D02*
X97405000Y-84840000D01*
X114935000Y-66044894D02*
X114935000Y-66040000D01*
X96905000Y-84074894D02*
X114935000Y-66044894D01*
X96905000Y-87086000D02*
X96905000Y-84074894D01*
X101600000Y-78105000D02*
X113665000Y-66040000D01*
X96347000Y-87086000D02*
X96347000Y-83358000D01*
X96347000Y-83358000D02*
X101600000Y-78105000D01*
X79837000Y-87086000D02*
X79837000Y-74468000D01*
X79837000Y-74468000D02*
X81280000Y-73025000D01*
X93980000Y-73025000D02*
X100965000Y-66040000D01*
X81280000Y-73025000D02*
X93980000Y-73025000D01*
X80395000Y-87086000D02*
X80395000Y-75180000D01*
X80395000Y-75180000D02*
X81915000Y-73660000D01*
X94615000Y-73660000D02*
X102235000Y-66040000D01*
X81915000Y-73660000D02*
X94615000Y-73660000D01*
X80895000Y-87086000D02*
X80895000Y-75950000D01*
X80895000Y-75950000D02*
X82550000Y-74295000D01*
X95250000Y-74295000D02*
X103505000Y-66040000D01*
X82550000Y-74295000D02*
X95250000Y-74295000D01*
X81453000Y-87086000D02*
X81453000Y-76662000D01*
X81453000Y-76662000D02*
X83185000Y-74930000D01*
X95885000Y-74930000D02*
X104775000Y-66040000D01*
X83185000Y-74930000D02*
X95885000Y-74930000D01*
X64943000Y-87086000D02*
X64943000Y-70947000D01*
X64943000Y-70947000D02*
X66040000Y-69850000D01*
X88265000Y-69850000D02*
X92075000Y-66040000D01*
X66040000Y-69850000D02*
X88265000Y-69850000D01*
X64385000Y-87086000D02*
X64385000Y-70870000D01*
X64385000Y-70870000D02*
X66040000Y-69215000D01*
X87630000Y-69215000D02*
X90805000Y-66040000D01*
X66040000Y-69215000D02*
X87630000Y-69215000D01*
X63885000Y-87086000D02*
X63885000Y-70735000D01*
X63885000Y-70735000D02*
X66040000Y-68580000D01*
X86995000Y-68580000D02*
X89535000Y-66040000D01*
X66040000Y-68580000D02*
X86995000Y-68580000D01*
X63327000Y-87086000D02*
X63327000Y-70658000D01*
X63327000Y-70658000D02*
X66040000Y-67945000D01*
X86360000Y-67945000D02*
X88265000Y-66040000D01*
X66040000Y-67945000D02*
X86360000Y-67945000D01*
X69449200Y-49880000D02*
X88620000Y-49880000D01*
X62814200Y-56515000D02*
X69449200Y-49880000D01*
X51435000Y-56515000D02*
X62814200Y-56515000D01*
D28*
X153960498Y-32505820D02*
X153924188Y-32625518D01*
X153911928Y-32750000D01*
X153911928Y-35250000D01*
X153924188Y-35374482D01*
X153960498Y-35494180D01*
X154019463Y-35604494D01*
X154098815Y-35701185D01*
X154195506Y-35780537D01*
X154305820Y-35839502D01*
X154425518Y-35875812D01*
X154550000Y-35888072D01*
X154711801Y-35888072D01*
X154711800Y-37611928D01*
X154550000Y-37611928D01*
X154425518Y-37624188D01*
X154305820Y-37660498D01*
X154195506Y-37719463D01*
X154098815Y-37798815D01*
X154019463Y-37895506D01*
X153960498Y-38005820D01*
X153924188Y-38125518D01*
X153911928Y-38250000D01*
X153911928Y-39952678D01*
X152462200Y-41402406D01*
X152393254Y-41381492D01*
X152220000Y-41364428D01*
X151270000Y-41364428D01*
X151096746Y-41381492D01*
X150930150Y-41432028D01*
X150776614Y-41514095D01*
X150698200Y-41578447D01*
X150698200Y-39411163D01*
X150702254Y-39370000D01*
X150698200Y-39328837D01*
X150698200Y-39328830D01*
X150686071Y-39205684D01*
X150638142Y-39047683D01*
X150560309Y-38902068D01*
X150545954Y-38884576D01*
X150481808Y-38806414D01*
X150481806Y-38806412D01*
X150455564Y-38774436D01*
X150423588Y-38748194D01*
X149846811Y-38171417D01*
X149820564Y-38139436D01*
X149692932Y-38034691D01*
X149547317Y-37956858D01*
X149389316Y-37908929D01*
X149266170Y-37896800D01*
X149266163Y-37896800D01*
X149225000Y-37892746D01*
X149183837Y-37896800D01*
X118237000Y-37896800D01*
X118237000Y-35001200D01*
X118234560Y-34976424D01*
X118227333Y-34952599D01*
X118225000Y-34948234D01*
X118225000Y-34788589D01*
X118171775Y-34521011D01*
X118067371Y-34268957D01*
X117915799Y-34042114D01*
X117722886Y-33849201D01*
X117496043Y-33697629D01*
X117243989Y-33593225D01*
X116976411Y-33540000D01*
X116703589Y-33540000D01*
X116436011Y-33593225D01*
X116183957Y-33697629D01*
X115957114Y-33849201D01*
X115764201Y-34042114D01*
X115612629Y-34268957D01*
X115570000Y-34371873D01*
X115527371Y-34268957D01*
X115375799Y-34042114D01*
X115182886Y-33849201D01*
X114956043Y-33697629D01*
X114703989Y-33593225D01*
X114436411Y-33540000D01*
X114163589Y-33540000D01*
X113896011Y-33593225D01*
X113643957Y-33697629D01*
X113417114Y-33849201D01*
X113224201Y-34042114D01*
X113072629Y-34268957D01*
X113030000Y-34371873D01*
X112987371Y-34268957D01*
X112835799Y-34042114D01*
X112642886Y-33849201D01*
X112416043Y-33697629D01*
X112163989Y-33593225D01*
X111896411Y-33540000D01*
X111623589Y-33540000D01*
X111356011Y-33593225D01*
X111103957Y-33697629D01*
X110877114Y-33849201D01*
X110684201Y-34042114D01*
X110532629Y-34268957D01*
X110490000Y-34371873D01*
X110447371Y-34268957D01*
X110295799Y-34042114D01*
X110102886Y-33849201D01*
X109876043Y-33697629D01*
X109623989Y-33593225D01*
X109356411Y-33540000D01*
X109083589Y-33540000D01*
X108816011Y-33593225D01*
X108563957Y-33697629D01*
X108337114Y-33849201D01*
X108144201Y-34042114D01*
X107992629Y-34268957D01*
X107950000Y-34371873D01*
X107907371Y-34268957D01*
X107755799Y-34042114D01*
X107562886Y-33849201D01*
X107336043Y-33697629D01*
X107083989Y-33593225D01*
X106816411Y-33540000D01*
X106543589Y-33540000D01*
X106276011Y-33593225D01*
X106023957Y-33697629D01*
X105797114Y-33849201D01*
X105604201Y-34042114D01*
X105452629Y-34268957D01*
X105410000Y-34371873D01*
X105367371Y-34268957D01*
X105215799Y-34042114D01*
X105022886Y-33849201D01*
X104796043Y-33697629D01*
X104543989Y-33593225D01*
X104276411Y-33540000D01*
X104003589Y-33540000D01*
X103736011Y-33593225D01*
X103483957Y-33697629D01*
X103257114Y-33849201D01*
X103064201Y-34042114D01*
X102912629Y-34268957D01*
X102870000Y-34371873D01*
X102827371Y-34268957D01*
X102675799Y-34042114D01*
X102482886Y-33849201D01*
X102256043Y-33697629D01*
X102003989Y-33593225D01*
X101736411Y-33540000D01*
X101463589Y-33540000D01*
X101196011Y-33593225D01*
X100943957Y-33697629D01*
X100717114Y-33849201D01*
X100524201Y-34042114D01*
X100372629Y-34268957D01*
X100330000Y-34371873D01*
X100287371Y-34268957D01*
X100135799Y-34042114D01*
X99942886Y-33849201D01*
X99716043Y-33697629D01*
X99463989Y-33593225D01*
X99196411Y-33540000D01*
X98923589Y-33540000D01*
X98656011Y-33593225D01*
X98403957Y-33697629D01*
X98177114Y-33849201D01*
X97984201Y-34042114D01*
X97832629Y-34268957D01*
X97790000Y-34371873D01*
X97747371Y-34268957D01*
X97595799Y-34042114D01*
X97402886Y-33849201D01*
X97176043Y-33697629D01*
X96923989Y-33593225D01*
X96656411Y-33540000D01*
X96383589Y-33540000D01*
X96116011Y-33593225D01*
X95863957Y-33697629D01*
X95637114Y-33849201D01*
X95444201Y-34042114D01*
X95292629Y-34268957D01*
X95251489Y-34368279D01*
X95236277Y-34326168D01*
X95175860Y-34213137D01*
X94936993Y-34147612D01*
X94159605Y-34925000D01*
X94936993Y-35702388D01*
X95123000Y-35651363D01*
X95123000Y-39621905D01*
X94946067Y-39548617D01*
X94726788Y-39505000D01*
X94503212Y-39505000D01*
X94283933Y-39548617D01*
X94077376Y-39634176D01*
X93980000Y-39699241D01*
X93882624Y-39634176D01*
X93676067Y-39548617D01*
X93456788Y-39505000D01*
X93233212Y-39505000D01*
X93013933Y-39548617D01*
X92807376Y-39634176D01*
X92710000Y-39699241D01*
X92612624Y-39634176D01*
X92406067Y-39548617D01*
X92186788Y-39505000D01*
X91963212Y-39505000D01*
X91743933Y-39548617D01*
X91537376Y-39634176D01*
X91440000Y-39699241D01*
X91342624Y-39634176D01*
X91136067Y-39548617D01*
X90916788Y-39505000D01*
X90693212Y-39505000D01*
X90473933Y-39548617D01*
X90267376Y-39634176D01*
X90170000Y-39699241D01*
X90072624Y-39634176D01*
X89866067Y-39548617D01*
X89646788Y-39505000D01*
X89423212Y-39505000D01*
X89203933Y-39548617D01*
X88997376Y-39634176D01*
X88900000Y-39699241D01*
X88802624Y-39634176D01*
X88596067Y-39548617D01*
X88376788Y-39505000D01*
X88153212Y-39505000D01*
X87933933Y-39548617D01*
X87727376Y-39634176D01*
X87541480Y-39758388D01*
X87383388Y-39916480D01*
X87259176Y-40102376D01*
X87198200Y-40249585D01*
X87198200Y-38280443D01*
X87198502Y-38280141D01*
X87316640Y-38103335D01*
X87398015Y-37906878D01*
X87439500Y-37698321D01*
X87439500Y-37485679D01*
X87398015Y-37277122D01*
X87316640Y-37080665D01*
X87198502Y-36903859D01*
X87048141Y-36753498D01*
X86871335Y-36635360D01*
X86674878Y-36553985D01*
X86466321Y-36512500D01*
X86253679Y-36512500D01*
X86045122Y-36553985D01*
X85848665Y-36635360D01*
X85671859Y-36753498D01*
X85521498Y-36903859D01*
X85403360Y-37080665D01*
X85321985Y-37277122D01*
X85280500Y-37485679D01*
X85280500Y-37698321D01*
X85321985Y-37906878D01*
X85403360Y-38103335D01*
X85521498Y-38280141D01*
X85521801Y-38280444D01*
X85521800Y-44713637D01*
X85517746Y-44754800D01*
X85521800Y-44795963D01*
X85521800Y-44795969D01*
X85533929Y-44919115D01*
X85581858Y-45077116D01*
X85659691Y-45222731D01*
X85764436Y-45350364D01*
X85796417Y-45376611D01*
X86398591Y-45978785D01*
X86424836Y-46010764D01*
X86552468Y-46115509D01*
X86698083Y-46193342D01*
X86856084Y-46241271D01*
X86979230Y-46253400D01*
X86979237Y-46253400D01*
X87020400Y-46257454D01*
X87061563Y-46253400D01*
X87178199Y-46253400D01*
X87144188Y-46365518D01*
X87131928Y-46490000D01*
X87135000Y-47054250D01*
X87293750Y-47213000D01*
X88493000Y-47213000D01*
X88493000Y-47193000D01*
X88747000Y-47193000D01*
X88747000Y-47213000D01*
X88767000Y-47213000D01*
X88767000Y-47467000D01*
X88747000Y-47467000D01*
X88747000Y-47487000D01*
X88493000Y-47487000D01*
X88493000Y-47467000D01*
X87293750Y-47467000D01*
X87135000Y-47625750D01*
X87134174Y-47777400D01*
X75615800Y-47777400D01*
X75615800Y-43763848D01*
X75660506Y-43800537D01*
X75770820Y-43859502D01*
X75890518Y-43895812D01*
X76015000Y-43908072D01*
X76316750Y-43905000D01*
X76475500Y-43746250D01*
X76475500Y-42672000D01*
X76729500Y-42672000D01*
X76729500Y-43746250D01*
X76888250Y-43905000D01*
X77190000Y-43908072D01*
X77314482Y-43895812D01*
X77434180Y-43859502D01*
X77544494Y-43800537D01*
X77641185Y-43721185D01*
X77720537Y-43624494D01*
X77779502Y-43514180D01*
X77815812Y-43394482D01*
X77828072Y-43270000D01*
X77825000Y-42830750D01*
X77666250Y-42672000D01*
X76729500Y-42672000D01*
X76475500Y-42672000D01*
X76455500Y-42672000D01*
X76455500Y-42418000D01*
X76475500Y-42418000D01*
X76475500Y-41343750D01*
X76729500Y-41343750D01*
X76729500Y-42418000D01*
X77666250Y-42418000D01*
X77825000Y-42259250D01*
X77828072Y-41820000D01*
X77815812Y-41695518D01*
X77779502Y-41575820D01*
X77720537Y-41465506D01*
X77641185Y-41368815D01*
X77544494Y-41289463D01*
X77434180Y-41230498D01*
X77314482Y-41194188D01*
X77190000Y-41181928D01*
X76888250Y-41185000D01*
X76729500Y-41343750D01*
X76475500Y-41343750D01*
X76316750Y-41185000D01*
X76015000Y-41181928D01*
X75890518Y-41194188D01*
X75770820Y-41230498D01*
X75660506Y-41289463D01*
X75563815Y-41368815D01*
X75498342Y-41448594D01*
X75492962Y-41442038D01*
X75358386Y-41331595D01*
X75204850Y-41249528D01*
X75038254Y-41198992D01*
X74865000Y-41181928D01*
X74190000Y-41181928D01*
X74016746Y-41198992D01*
X73850150Y-41249528D01*
X73696614Y-41331595D01*
X73562038Y-41442038D01*
X73451595Y-41576614D01*
X73369528Y-41730150D01*
X73345791Y-41808400D01*
X73036625Y-41808400D01*
X73020472Y-41755149D01*
X72938405Y-41601613D01*
X72827962Y-41467038D01*
X72693387Y-41356595D01*
X72539851Y-41274528D01*
X72373255Y-41223992D01*
X72200001Y-41206928D01*
X71499999Y-41206928D01*
X71326745Y-41223992D01*
X71160149Y-41274528D01*
X71006613Y-41356595D01*
X70872038Y-41467038D01*
X70850000Y-41493891D01*
X70827962Y-41467038D01*
X70693387Y-41356595D01*
X70539851Y-41274528D01*
X70373255Y-41223992D01*
X70200001Y-41206928D01*
X69499999Y-41206928D01*
X69326745Y-41223992D01*
X69160149Y-41274528D01*
X69006613Y-41356595D01*
X68872038Y-41467038D01*
X68761595Y-41601613D01*
X68679528Y-41755149D01*
X68663375Y-41808400D01*
X58456186Y-41808400D01*
X58420000Y-41804836D01*
X58383814Y-41808400D01*
X58275601Y-41819058D01*
X58136751Y-41861178D01*
X58008787Y-41929576D01*
X57896625Y-42021625D01*
X57873559Y-42049731D01*
X56019732Y-43903559D01*
X55991625Y-43926626D01*
X55899576Y-44038788D01*
X55831178Y-44166752D01*
X55789058Y-44305602D01*
X55779645Y-44401178D01*
X55774836Y-44450000D01*
X55778400Y-44486183D01*
X55778401Y-48589889D01*
X54152490Y-50215800D01*
X51636069Y-50215800D01*
X51556637Y-50200000D01*
X51313363Y-50200000D01*
X51233931Y-50215800D01*
X49096069Y-50215800D01*
X49016637Y-50200000D01*
X48773363Y-50200000D01*
X48534764Y-50247460D01*
X48310008Y-50340557D01*
X48107733Y-50475713D01*
X47935713Y-50647733D01*
X47800557Y-50850008D01*
X47707460Y-51074764D01*
X47660000Y-51313363D01*
X47660000Y-51556637D01*
X47707460Y-51795236D01*
X47800557Y-52019992D01*
X47935713Y-52222267D01*
X48107733Y-52394287D01*
X48310008Y-52529443D01*
X48534764Y-52622540D01*
X48773363Y-52670000D01*
X48793400Y-52670000D01*
X48793400Y-52740000D01*
X48773363Y-52740000D01*
X48534764Y-52787460D01*
X48310008Y-52880557D01*
X48107733Y-53015713D01*
X47935713Y-53187733D01*
X47800557Y-53390008D01*
X47707460Y-53614764D01*
X47660000Y-53853363D01*
X47660000Y-54096637D01*
X47707460Y-54335236D01*
X47800557Y-54559992D01*
X47935713Y-54762267D01*
X48107733Y-54934287D01*
X48310008Y-55069443D01*
X48534764Y-55162540D01*
X48773363Y-55210000D01*
X48944606Y-55210000D01*
X49014606Y-55280000D01*
X48773363Y-55280000D01*
X48534764Y-55327460D01*
X48310008Y-55420557D01*
X48107733Y-55555713D01*
X47935713Y-55727733D01*
X47800557Y-55930008D01*
X47707460Y-56154764D01*
X47660000Y-56393363D01*
X47660000Y-56636637D01*
X47707460Y-56875236D01*
X47800557Y-57099992D01*
X47935713Y-57302267D01*
X48107733Y-57474287D01*
X48310008Y-57609443D01*
X48534764Y-57702540D01*
X48773363Y-57750000D01*
X49016637Y-57750000D01*
X49076402Y-57738112D01*
X49193463Y-57855173D01*
X49016637Y-57820000D01*
X48773363Y-57820000D01*
X48534764Y-57867460D01*
X48310008Y-57960557D01*
X48107733Y-58095713D01*
X47935713Y-58267733D01*
X47901858Y-58318400D01*
X47661186Y-58318400D01*
X47625000Y-58314836D01*
X47588814Y-58318400D01*
X47480601Y-58329058D01*
X47341751Y-58371178D01*
X47219308Y-58436625D01*
X47213787Y-58439576D01*
X47176706Y-58470008D01*
X47101625Y-58531625D01*
X47078559Y-58559731D01*
X46494733Y-59143558D01*
X46466625Y-59166626D01*
X46374576Y-59278788D01*
X46306178Y-59406752D01*
X46264058Y-59545602D01*
X46254645Y-59641178D01*
X46249836Y-59690000D01*
X46253400Y-59726184D01*
X46253401Y-62193807D01*
X46249836Y-62230000D01*
X46260195Y-62335164D01*
X46264059Y-62374399D01*
X46267435Y-62385527D01*
X46306178Y-62513247D01*
X46374576Y-62641212D01*
X46387293Y-62656707D01*
X46466626Y-62753375D01*
X46494732Y-62776441D01*
X47078557Y-63360267D01*
X47101625Y-63388375D01*
X47213787Y-63480424D01*
X47341751Y-63548822D01*
X47472742Y-63588558D01*
X47480601Y-63590942D01*
X47625000Y-63605164D01*
X47661186Y-63601600D01*
X51689000Y-63601600D01*
X51689000Y-74907636D01*
X51635326Y-74973038D01*
X51566928Y-75101003D01*
X51550916Y-75153787D01*
X51527009Y-75232601D01*
X51524809Y-75239852D01*
X51510586Y-75384250D01*
X51514151Y-75420443D01*
X51514150Y-126963817D01*
X51510586Y-127000000D01*
X51514150Y-127036183D01*
X51514150Y-127036185D01*
X51524808Y-127144398D01*
X51566928Y-127283248D01*
X51635326Y-127411212D01*
X51727375Y-127523374D01*
X51755482Y-127546441D01*
X56784307Y-132575267D01*
X56807375Y-132603375D01*
X56919537Y-132695424D01*
X56986737Y-132731343D01*
X58953400Y-134698006D01*
X58953400Y-134896858D01*
X58902733Y-134930713D01*
X58730713Y-135102733D01*
X58595557Y-135305008D01*
X58502460Y-135529764D01*
X58455000Y-135768363D01*
X58455000Y-136011637D01*
X58502460Y-136250236D01*
X58595557Y-136474992D01*
X58730713Y-136677267D01*
X58902733Y-136849287D01*
X59105008Y-136984443D01*
X59329764Y-137077540D01*
X59568363Y-137125000D01*
X59811637Y-137125000D01*
X59871403Y-137113112D01*
X69394559Y-146636269D01*
X69417625Y-146664375D01*
X69529787Y-146756424D01*
X69657751Y-146824822D01*
X69796601Y-146866942D01*
X69904814Y-146877600D01*
X69904823Y-146877600D01*
X69940999Y-146881163D01*
X69977175Y-146877600D01*
X71400850Y-146877600D01*
X71396428Y-146922500D01*
X71396428Y-147046557D01*
X71390929Y-147064685D01*
X71378800Y-147187831D01*
X71378801Y-149010828D01*
X71374746Y-149052000D01*
X71390929Y-149216315D01*
X71438858Y-149374316D01*
X71516691Y-149519931D01*
X71586715Y-149605255D01*
X71621437Y-149647564D01*
X71653413Y-149673806D01*
X71768189Y-149788582D01*
X71794436Y-149820564D01*
X71922068Y-149925309D01*
X72067683Y-150003142D01*
X72225684Y-150051071D01*
X72348830Y-150063200D01*
X72348837Y-150063200D01*
X72390000Y-150067254D01*
X72431163Y-150063200D01*
X72983839Y-150063200D01*
X73024999Y-150067254D01*
X73066159Y-150063200D01*
X73618839Y-150063200D01*
X73659999Y-150067254D01*
X73701159Y-150063200D01*
X74253837Y-150063200D01*
X74295000Y-150067254D01*
X74336163Y-150063200D01*
X90128830Y-150063200D01*
X90170000Y-150067255D01*
X90211170Y-150063200D01*
X113623837Y-150063200D01*
X113665000Y-150067254D01*
X113706163Y-150063200D01*
X114258837Y-150063200D01*
X114300000Y-150067254D01*
X114341163Y-150063200D01*
X114893837Y-150063200D01*
X114935000Y-150067254D01*
X114976163Y-150063200D01*
X149183837Y-150063200D01*
X149225000Y-150067254D01*
X149266163Y-150063200D01*
X149818837Y-150063200D01*
X149860000Y-150067254D01*
X149901163Y-150063200D01*
X150453837Y-150063200D01*
X150495000Y-150067254D01*
X150536163Y-150063200D01*
X151088837Y-150063200D01*
X151130000Y-150067254D01*
X151171163Y-150063200D01*
X151171170Y-150063200D01*
X151294316Y-150051071D01*
X151452317Y-150003142D01*
X151597932Y-149925309D01*
X151725564Y-149820564D01*
X151751811Y-149788582D01*
X151866582Y-149673811D01*
X151898564Y-149647564D01*
X152003309Y-149519932D01*
X152081142Y-149374317D01*
X152129071Y-149216316D01*
X152141200Y-149093170D01*
X152141200Y-149093163D01*
X152145254Y-149052000D01*
X152141200Y-149010837D01*
X152141200Y-147187830D01*
X152129071Y-147064684D01*
X152123572Y-147046556D01*
X152123572Y-146922500D01*
X152119150Y-146877600D01*
X153542817Y-146877600D01*
X153579000Y-146881164D01*
X153615183Y-146877600D01*
X153615186Y-146877600D01*
X153723399Y-146866942D01*
X153862249Y-146824822D01*
X153990213Y-146756424D01*
X154102375Y-146664375D01*
X154125446Y-146636263D01*
X158941945Y-141819764D01*
X163159841Y-141819764D01*
X163207148Y-142043348D01*
X163428516Y-142144237D01*
X163665313Y-142200000D01*
X163908438Y-142208495D01*
X164148549Y-142169395D01*
X164376418Y-142084202D01*
X164452852Y-142043348D01*
X164500159Y-141819764D01*
X163830000Y-141149605D01*
X163159841Y-141819764D01*
X158941945Y-141819764D01*
X159713271Y-141048438D01*
X162591505Y-141048438D01*
X162630605Y-141288549D01*
X162715798Y-141516418D01*
X162756652Y-141592852D01*
X162980236Y-141640159D01*
X163650395Y-140970000D01*
X164009605Y-140970000D01*
X164679764Y-141640159D01*
X164903348Y-141592852D01*
X165004237Y-141371484D01*
X165060000Y-141134687D01*
X165068495Y-140891562D01*
X165029395Y-140651451D01*
X164944202Y-140423582D01*
X164903348Y-140347148D01*
X164679764Y-140299841D01*
X164009605Y-140970000D01*
X163650395Y-140970000D01*
X162980236Y-140299841D01*
X162756652Y-140347148D01*
X162655763Y-140568516D01*
X162600000Y-140805313D01*
X162591505Y-141048438D01*
X159713271Y-141048438D01*
X160641473Y-140120236D01*
X163159841Y-140120236D01*
X163830000Y-140790395D01*
X164500159Y-140120236D01*
X164452852Y-139896652D01*
X164231484Y-139795763D01*
X163994687Y-139740000D01*
X163751562Y-139731505D01*
X163511451Y-139770605D01*
X163283582Y-139855798D01*
X163207148Y-139896652D01*
X163159841Y-140120236D01*
X160641473Y-140120236D01*
X163648598Y-137113112D01*
X163708363Y-137125000D01*
X163951637Y-137125000D01*
X164190236Y-137077540D01*
X164414992Y-136984443D01*
X164617267Y-136849287D01*
X164789287Y-136677267D01*
X164924443Y-136474992D01*
X165017540Y-136250236D01*
X165065000Y-136011637D01*
X165065000Y-135768363D01*
X165017540Y-135529764D01*
X164924443Y-135305008D01*
X164789287Y-135102733D01*
X164617267Y-134930713D01*
X164566600Y-134896858D01*
X164566600Y-133020109D01*
X164770110Y-132816600D01*
X166968817Y-132816600D01*
X167005000Y-132820164D01*
X167041183Y-132816600D01*
X167041186Y-132816600D01*
X167149399Y-132805942D01*
X167288249Y-132763822D01*
X167416213Y-132695424D01*
X167528375Y-132603375D01*
X167551445Y-132575264D01*
X168770273Y-131356437D01*
X168798374Y-131333375D01*
X168821437Y-131305273D01*
X168821442Y-131305268D01*
X168890423Y-131221214D01*
X168890425Y-131221212D01*
X168958822Y-131093249D01*
X169000942Y-130954399D01*
X169011600Y-130846186D01*
X169011600Y-130846177D01*
X169015163Y-130810001D01*
X169011600Y-130773825D01*
X169011600Y-116241175D01*
X169015163Y-116204999D01*
X169011600Y-116168823D01*
X169011600Y-116168814D01*
X169000942Y-116060601D01*
X168958822Y-115921751D01*
X168890424Y-115793787D01*
X168798375Y-115681625D01*
X168770268Y-115658558D01*
X167551445Y-114439736D01*
X167528375Y-114411625D01*
X167416213Y-114319576D01*
X167288249Y-114251178D01*
X167149399Y-114209058D01*
X167041186Y-114198400D01*
X167041183Y-114198400D01*
X167005000Y-114194836D01*
X166968817Y-114198400D01*
X151435110Y-114198400D01*
X149961600Y-112724891D01*
X149961600Y-58436994D01*
X150050500Y-58525894D01*
X150050500Y-58526321D01*
X150091985Y-58734878D01*
X150173360Y-58931335D01*
X150291498Y-59108141D01*
X150441859Y-59258502D01*
X150618665Y-59376640D01*
X150815122Y-59458015D01*
X151023679Y-59499500D01*
X151236321Y-59499500D01*
X151444878Y-59458015D01*
X151641335Y-59376640D01*
X151818141Y-59258502D01*
X151968502Y-59108141D01*
X152086640Y-58931335D01*
X152168015Y-58734878D01*
X152209500Y-58526321D01*
X152209500Y-58313679D01*
X152168015Y-58105122D01*
X152086640Y-57908665D01*
X151968502Y-57731859D01*
X151818141Y-57581498D01*
X151641335Y-57463360D01*
X151548726Y-57425000D01*
X156756928Y-57425000D01*
X156769188Y-57549482D01*
X156805498Y-57669180D01*
X156864463Y-57779494D01*
X156943815Y-57876185D01*
X157040506Y-57955537D01*
X157150820Y-58014502D01*
X157270518Y-58050812D01*
X157395000Y-58063072D01*
X157809250Y-58060000D01*
X157968000Y-57901250D01*
X157968000Y-56952000D01*
X158222000Y-56952000D01*
X158222000Y-57901250D01*
X158380750Y-58060000D01*
X158795000Y-58063072D01*
X158919482Y-58050812D01*
X159039180Y-58014502D01*
X159149494Y-57955537D01*
X159246185Y-57876185D01*
X159325537Y-57779494D01*
X159365000Y-57705665D01*
X159404463Y-57779494D01*
X159483815Y-57876185D01*
X159580506Y-57955537D01*
X159690820Y-58014502D01*
X159810518Y-58050812D01*
X159935000Y-58063072D01*
X160349250Y-58060000D01*
X160508000Y-57901250D01*
X160508000Y-56952000D01*
X159458750Y-56952000D01*
X159365000Y-57045750D01*
X159271250Y-56952000D01*
X158222000Y-56952000D01*
X157968000Y-56952000D01*
X156918750Y-56952000D01*
X156760000Y-57110750D01*
X156756928Y-57425000D01*
X151548726Y-57425000D01*
X151444878Y-57381985D01*
X151236321Y-57340500D01*
X151235894Y-57340500D01*
X150698200Y-56802807D01*
X150698200Y-45800513D01*
X150775820Y-45842002D01*
X150895518Y-45878312D01*
X151020000Y-45890572D01*
X151459250Y-45887500D01*
X151618000Y-45728750D01*
X151618000Y-44792000D01*
X151872000Y-44792000D01*
X151872000Y-45728750D01*
X152030750Y-45887500D01*
X152470000Y-45890572D01*
X152594482Y-45878312D01*
X152714180Y-45842002D01*
X152824494Y-45783037D01*
X152921185Y-45703685D01*
X153000537Y-45606994D01*
X153059502Y-45496680D01*
X153095812Y-45376982D01*
X153108072Y-45252500D01*
X153105000Y-44950750D01*
X152946250Y-44792000D01*
X151872000Y-44792000D01*
X151618000Y-44792000D01*
X151598000Y-44792000D01*
X151598000Y-44538000D01*
X151618000Y-44538000D01*
X151618000Y-44518000D01*
X151872000Y-44518000D01*
X151872000Y-44538000D01*
X152946250Y-44538000D01*
X153105000Y-44379250D01*
X153108072Y-44077500D01*
X153095812Y-43953018D01*
X153059502Y-43833320D01*
X153000537Y-43723006D01*
X152921185Y-43626315D01*
X152841406Y-43560842D01*
X152847962Y-43555462D01*
X152958405Y-43420886D01*
X153040472Y-43267350D01*
X153070979Y-43166781D01*
X153081811Y-43153582D01*
X154847322Y-41388072D01*
X156153427Y-41388072D01*
X156161399Y-41392333D01*
X156185224Y-41399560D01*
X156210000Y-41402000D01*
X159263400Y-41402000D01*
X159263401Y-47379492D01*
X159109533Y-47533360D01*
X159081427Y-47556426D01*
X159058361Y-47584532D01*
X159058359Y-47584534D01*
X158989377Y-47668589D01*
X158920979Y-47796554D01*
X158909668Y-47833843D01*
X158888265Y-47904400D01*
X158878860Y-47935403D01*
X158864637Y-48079801D01*
X158868202Y-48115994D01*
X158868202Y-48815000D01*
X158822998Y-48815000D01*
X158822998Y-48973748D01*
X158664250Y-48815000D01*
X158600000Y-48811928D01*
X158475518Y-48824188D01*
X158355820Y-48860498D01*
X158245506Y-48919463D01*
X158148815Y-48998815D01*
X158069463Y-49095506D01*
X158010498Y-49205820D01*
X157974188Y-49325518D01*
X157961928Y-49450000D01*
X157965000Y-49664250D01*
X158123750Y-49823000D01*
X158823000Y-49823000D01*
X158823000Y-49803000D01*
X158868201Y-49803000D01*
X158868201Y-50097000D01*
X158823000Y-50097000D01*
X158823000Y-50077000D01*
X158123750Y-50077000D01*
X157965000Y-50235750D01*
X157961928Y-50450000D01*
X157974188Y-50574482D01*
X158010498Y-50694180D01*
X158069463Y-50804494D01*
X158147842Y-50900000D01*
X158069463Y-50995506D01*
X158010498Y-51105820D01*
X157974188Y-51225518D01*
X157961928Y-51350000D01*
X157961928Y-51596363D01*
X157599732Y-51958559D01*
X157571626Y-51981625D01*
X157548560Y-52009731D01*
X157548558Y-52009733D01*
X157479576Y-52093788D01*
X157411178Y-52221753D01*
X157403955Y-52245564D01*
X157377183Y-52333822D01*
X157369059Y-52360602D01*
X157354836Y-52505000D01*
X157358401Y-52541193D01*
X157358401Y-53638374D01*
X157305149Y-53654528D01*
X157151613Y-53736595D01*
X157017038Y-53847038D01*
X156906595Y-53981613D01*
X156824528Y-54135149D01*
X156773992Y-54301745D01*
X156756928Y-54474999D01*
X156756928Y-55175001D01*
X156773992Y-55348255D01*
X156824528Y-55514851D01*
X156906595Y-55668387D01*
X156973276Y-55749637D01*
X156943815Y-55773815D01*
X156864463Y-55870506D01*
X156805498Y-55980820D01*
X156769188Y-56100518D01*
X156756928Y-56225000D01*
X156760000Y-56539250D01*
X156918750Y-56698000D01*
X157968000Y-56698000D01*
X157968000Y-56678000D01*
X158222000Y-56678000D01*
X158222000Y-56698000D01*
X159271250Y-56698000D01*
X159365000Y-56604250D01*
X159458750Y-56698000D01*
X160508000Y-56698000D01*
X160508000Y-56678000D01*
X160762000Y-56678000D01*
X160762000Y-56698000D01*
X160782000Y-56698000D01*
X160782000Y-56952000D01*
X160762000Y-56952000D01*
X160762000Y-57901250D01*
X160910090Y-58049340D01*
X160886985Y-58105122D01*
X160845500Y-58313679D01*
X160845500Y-58526321D01*
X160886985Y-58734878D01*
X160968360Y-58931335D01*
X161086498Y-59108141D01*
X161236859Y-59258502D01*
X161413665Y-59376640D01*
X161610122Y-59458015D01*
X161818679Y-59499500D01*
X162031321Y-59499500D01*
X162239878Y-59458015D01*
X162436335Y-59376640D01*
X162613141Y-59258502D01*
X162763502Y-59108141D01*
X162881640Y-58931335D01*
X162963015Y-58734878D01*
X163004500Y-58526321D01*
X163004500Y-58525893D01*
X163467322Y-58063072D01*
X163625001Y-58063072D01*
X163798255Y-58046008D01*
X163964851Y-57995472D01*
X164118387Y-57913405D01*
X164252962Y-57802962D01*
X164363405Y-57668387D01*
X164445472Y-57514851D01*
X164496008Y-57348255D01*
X164513072Y-57175001D01*
X164513072Y-56474999D01*
X164496008Y-56301745D01*
X164445472Y-56135149D01*
X164363405Y-55981613D01*
X164252962Y-55847038D01*
X164226109Y-55825000D01*
X164252962Y-55802962D01*
X164363405Y-55668387D01*
X164445472Y-55514851D01*
X164496008Y-55348255D01*
X164513072Y-55175001D01*
X164513072Y-54474999D01*
X164496008Y-54301745D01*
X164465000Y-54199525D01*
X164465000Y-52609975D01*
X164521335Y-52586640D01*
X164668661Y-52488200D01*
X165205371Y-52488200D01*
X165261595Y-52593387D01*
X165372038Y-52727962D01*
X165506613Y-52838405D01*
X165660149Y-52920472D01*
X165826745Y-52971008D01*
X165999999Y-52988072D01*
X166700001Y-52988072D01*
X166873255Y-52971008D01*
X167039851Y-52920472D01*
X167193387Y-52838405D01*
X167327962Y-52727962D01*
X167350000Y-52701109D01*
X167372038Y-52727962D01*
X167506613Y-52838405D01*
X167660149Y-52920472D01*
X167826745Y-52971008D01*
X167999999Y-52988072D01*
X168700001Y-52988072D01*
X168873255Y-52971008D01*
X169039851Y-52920472D01*
X169193387Y-52838405D01*
X169327962Y-52727962D01*
X169438405Y-52593387D01*
X169520472Y-52439851D01*
X169536625Y-52386600D01*
X169613291Y-52386600D01*
X169637028Y-52464850D01*
X169719095Y-52618386D01*
X169829538Y-52752962D01*
X169964114Y-52863405D01*
X170117650Y-52945472D01*
X170284246Y-52996008D01*
X170457500Y-53013072D01*
X171132500Y-53013072D01*
X171305754Y-52996008D01*
X171472350Y-52945472D01*
X171625886Y-52863405D01*
X171760462Y-52752962D01*
X171765842Y-52746406D01*
X171831315Y-52826185D01*
X171928006Y-52905537D01*
X172038320Y-52964502D01*
X172158018Y-53000812D01*
X172282500Y-53013072D01*
X172584250Y-53010000D01*
X172743000Y-52851250D01*
X172743000Y-51777000D01*
X172997000Y-51777000D01*
X172997000Y-52851250D01*
X173155750Y-53010000D01*
X173457500Y-53013072D01*
X173581982Y-53000812D01*
X173701680Y-52964502D01*
X173811994Y-52905537D01*
X173908685Y-52826185D01*
X173988037Y-52729494D01*
X174047002Y-52619180D01*
X174083312Y-52499482D01*
X174095572Y-52375000D01*
X174092500Y-51935750D01*
X173933750Y-51777000D01*
X172997000Y-51777000D01*
X172743000Y-51777000D01*
X172723000Y-51777000D01*
X172723000Y-51523000D01*
X172743000Y-51523000D01*
X172743000Y-50448750D01*
X172997000Y-50448750D01*
X172997000Y-51523000D01*
X173933750Y-51523000D01*
X174092500Y-51364250D01*
X174095572Y-50925000D01*
X174083312Y-50800518D01*
X174047002Y-50680820D01*
X173988037Y-50570506D01*
X173908685Y-50473815D01*
X173811994Y-50394463D01*
X173701680Y-50335498D01*
X173581982Y-50299188D01*
X173457500Y-50286928D01*
X173155750Y-50290000D01*
X172997000Y-50448750D01*
X172743000Y-50448750D01*
X172584250Y-50290000D01*
X172282500Y-50286928D01*
X172158018Y-50299188D01*
X172038320Y-50335498D01*
X171928006Y-50394463D01*
X171831315Y-50473815D01*
X171765842Y-50553594D01*
X171760462Y-50547038D01*
X171625886Y-50436595D01*
X171472350Y-50354528D01*
X171305754Y-50303992D01*
X171132500Y-50286928D01*
X170457500Y-50286928D01*
X170284246Y-50303992D01*
X170117650Y-50354528D01*
X169964114Y-50436595D01*
X169829538Y-50547038D01*
X169719095Y-50681614D01*
X169637028Y-50835150D01*
X169613291Y-50913400D01*
X169536625Y-50913400D01*
X169520472Y-50860149D01*
X169438405Y-50706613D01*
X169327962Y-50572038D01*
X169193387Y-50461595D01*
X169039851Y-50379528D01*
X168873255Y-50328992D01*
X168700001Y-50311928D01*
X167999999Y-50311928D01*
X167826745Y-50328992D01*
X167660149Y-50379528D01*
X167506613Y-50461595D01*
X167372038Y-50572038D01*
X167350000Y-50598891D01*
X167327962Y-50572038D01*
X167193387Y-50461595D01*
X167039851Y-50379528D01*
X166873255Y-50328992D01*
X166700001Y-50311928D01*
X165999999Y-50311928D01*
X165826745Y-50328992D01*
X165660149Y-50379528D01*
X165506613Y-50461595D01*
X165372038Y-50572038D01*
X165261595Y-50706613D01*
X165205371Y-50811800D01*
X164718443Y-50811800D01*
X164698141Y-50791498D01*
X164521335Y-50673360D01*
X164324878Y-50591985D01*
X164116321Y-50550500D01*
X163903679Y-50550500D01*
X163695122Y-50591985D01*
X163498665Y-50673360D01*
X163321859Y-50791498D01*
X163321557Y-50791800D01*
X163207194Y-50791800D01*
X162150394Y-49735000D01*
X162163587Y-49721807D01*
X162195564Y-49695564D01*
X162285740Y-49585685D01*
X162300309Y-49567932D01*
X162378142Y-49422317D01*
X162426071Y-49264316D01*
X162438200Y-49141170D01*
X162438200Y-49141163D01*
X162442254Y-49100000D01*
X162438200Y-49058837D01*
X162438200Y-41402000D01*
X163830000Y-41402000D01*
X163854776Y-41399560D01*
X163878601Y-41392333D01*
X163886573Y-41388072D01*
X165450000Y-41388072D01*
X165574482Y-41375812D01*
X165694180Y-41339502D01*
X165804494Y-41280537D01*
X165901185Y-41201185D01*
X165980537Y-41104494D01*
X166039502Y-40994180D01*
X166075812Y-40874482D01*
X166088072Y-40750000D01*
X166088072Y-38250000D01*
X166075812Y-38125518D01*
X166039502Y-38005820D01*
X165980537Y-37895506D01*
X165901185Y-37798815D01*
X165804494Y-37719463D01*
X165694180Y-37660498D01*
X165574482Y-37624188D01*
X165450000Y-37611928D01*
X165288200Y-37611928D01*
X165288200Y-35888072D01*
X165450000Y-35888072D01*
X165574482Y-35875812D01*
X165694180Y-35839502D01*
X165804494Y-35780537D01*
X165901185Y-35701185D01*
X165980537Y-35604494D01*
X166039502Y-35494180D01*
X166075812Y-35374482D01*
X166088072Y-35250000D01*
X166088072Y-32750000D01*
X166075812Y-32625518D01*
X166039502Y-32505820D01*
X165988284Y-32410000D01*
X170053000Y-32410000D01*
X170053000Y-39370000D01*
X170055440Y-39394776D01*
X170062667Y-39418601D01*
X170074403Y-39440557D01*
X170090197Y-39459803D01*
X170109443Y-39475597D01*
X170131399Y-39487333D01*
X170155224Y-39494560D01*
X170180000Y-39497000D01*
X177140000Y-39497000D01*
X177140001Y-144653000D01*
X170180000Y-144653000D01*
X170155224Y-144655440D01*
X170131399Y-144662667D01*
X170109443Y-144674403D01*
X170090197Y-144690197D01*
X170074403Y-144709443D01*
X170062667Y-144731399D01*
X170055440Y-144755224D01*
X170053000Y-144780000D01*
X170053000Y-151740000D01*
X45847000Y-151740000D01*
X45847000Y-144780000D01*
X45844560Y-144755224D01*
X45837333Y-144731399D01*
X45825597Y-144709443D01*
X45809803Y-144690197D01*
X45790557Y-144674403D01*
X45768601Y-144662667D01*
X45744776Y-144655440D01*
X45720000Y-144653000D01*
X38760000Y-144653000D01*
X38760000Y-141819764D01*
X59019841Y-141819764D01*
X59067148Y-142043348D01*
X59288516Y-142144237D01*
X59525313Y-142200000D01*
X59768438Y-142208495D01*
X60008549Y-142169395D01*
X60236418Y-142084202D01*
X60312852Y-142043348D01*
X60360159Y-141819764D01*
X59690000Y-141149605D01*
X59019841Y-141819764D01*
X38760000Y-141819764D01*
X38760000Y-141048438D01*
X58451505Y-141048438D01*
X58490605Y-141288549D01*
X58575798Y-141516418D01*
X58616652Y-141592852D01*
X58840236Y-141640159D01*
X59510395Y-140970000D01*
X59869605Y-140970000D01*
X60539764Y-141640159D01*
X60763348Y-141592852D01*
X60864237Y-141371484D01*
X60920000Y-141134687D01*
X60928495Y-140891562D01*
X60889395Y-140651451D01*
X60804202Y-140423582D01*
X60763348Y-140347148D01*
X60539764Y-140299841D01*
X59869605Y-140970000D01*
X59510395Y-140970000D01*
X58840236Y-140299841D01*
X58616652Y-140347148D01*
X58515763Y-140568516D01*
X58460000Y-140805313D01*
X58451505Y-141048438D01*
X38760000Y-141048438D01*
X38760000Y-140120236D01*
X59019841Y-140120236D01*
X59690000Y-140790395D01*
X60360159Y-140120236D01*
X60312852Y-139896652D01*
X60091484Y-139795763D01*
X59854687Y-139740000D01*
X59611562Y-139731505D01*
X59371451Y-139770605D01*
X59143582Y-139855798D01*
X59067148Y-139896652D01*
X59019841Y-140120236D01*
X38760000Y-140120236D01*
X38760000Y-49744764D01*
X48224841Y-49744764D01*
X48272148Y-49968348D01*
X48493516Y-50069237D01*
X48730313Y-50125000D01*
X48973438Y-50133495D01*
X49213549Y-50094395D01*
X49441418Y-50009202D01*
X49517852Y-49968348D01*
X49565159Y-49744764D01*
X50764841Y-49744764D01*
X50812148Y-49968348D01*
X51033516Y-50069237D01*
X51270313Y-50125000D01*
X51513438Y-50133495D01*
X51753549Y-50094395D01*
X51981418Y-50009202D01*
X52057852Y-49968348D01*
X52105159Y-49744764D01*
X51435000Y-49074605D01*
X50764841Y-49744764D01*
X49565159Y-49744764D01*
X48895000Y-49074605D01*
X48224841Y-49744764D01*
X38760000Y-49744764D01*
X38760000Y-48973438D01*
X47656505Y-48973438D01*
X47695605Y-49213549D01*
X47780798Y-49441418D01*
X47821652Y-49517852D01*
X48045236Y-49565159D01*
X48715395Y-48895000D01*
X49074605Y-48895000D01*
X49744764Y-49565159D01*
X49968348Y-49517852D01*
X50069237Y-49296484D01*
X50125000Y-49059687D01*
X50128013Y-48973438D01*
X50196505Y-48973438D01*
X50235605Y-49213549D01*
X50320798Y-49441418D01*
X50361652Y-49517852D01*
X50585236Y-49565159D01*
X51255395Y-48895000D01*
X51614605Y-48895000D01*
X52284764Y-49565159D01*
X52508348Y-49517852D01*
X52609237Y-49296484D01*
X52665000Y-49059687D01*
X52673495Y-48816562D01*
X52634395Y-48576451D01*
X52549202Y-48348582D01*
X52508348Y-48272148D01*
X52284764Y-48224841D01*
X51614605Y-48895000D01*
X51255395Y-48895000D01*
X50585236Y-48224841D01*
X50361652Y-48272148D01*
X50260763Y-48493516D01*
X50205000Y-48730313D01*
X50196505Y-48973438D01*
X50128013Y-48973438D01*
X50133495Y-48816562D01*
X50094395Y-48576451D01*
X50009202Y-48348582D01*
X49968348Y-48272148D01*
X49744764Y-48224841D01*
X49074605Y-48895000D01*
X48715395Y-48895000D01*
X48045236Y-48224841D01*
X47821652Y-48272148D01*
X47720763Y-48493516D01*
X47665000Y-48730313D01*
X47656505Y-48973438D01*
X38760000Y-48973438D01*
X38760000Y-48045236D01*
X48224841Y-48045236D01*
X48895000Y-48715395D01*
X49565159Y-48045236D01*
X50764841Y-48045236D01*
X51435000Y-48715395D01*
X52105159Y-48045236D01*
X52057852Y-47821652D01*
X51836484Y-47720763D01*
X51599687Y-47665000D01*
X51356562Y-47656505D01*
X51116451Y-47695605D01*
X50888582Y-47780798D01*
X50812148Y-47821652D01*
X50764841Y-48045236D01*
X49565159Y-48045236D01*
X49517852Y-47821652D01*
X49296484Y-47720763D01*
X49059687Y-47665000D01*
X48816562Y-47656505D01*
X48576451Y-47695605D01*
X48348582Y-47780798D01*
X48272148Y-47821652D01*
X48224841Y-48045236D01*
X38760000Y-48045236D01*
X38760000Y-45245881D01*
X47643724Y-45245881D01*
X48003912Y-45735548D01*
X48667882Y-46095849D01*
X49389385Y-46319694D01*
X50140695Y-46398480D01*
X50892938Y-46329178D01*
X51617208Y-46114452D01*
X52285670Y-45762555D01*
X52326088Y-45735548D01*
X52686276Y-45245881D01*
X50165000Y-42724605D01*
X47643724Y-45245881D01*
X38760000Y-45245881D01*
X38760000Y-42520695D01*
X46311520Y-42520695D01*
X46380822Y-43272938D01*
X46595548Y-43997208D01*
X46947445Y-44665670D01*
X46974452Y-44706088D01*
X47464119Y-45066276D01*
X49985395Y-42545000D01*
X50344605Y-42545000D01*
X52865881Y-45066276D01*
X53355548Y-44706088D01*
X53715849Y-44042118D01*
X53939694Y-43320615D01*
X54018480Y-42569305D01*
X53949178Y-41817062D01*
X53734452Y-41092792D01*
X53382555Y-40424330D01*
X53355548Y-40383912D01*
X52865881Y-40023724D01*
X50344605Y-42545000D01*
X49985395Y-42545000D01*
X47464119Y-40023724D01*
X46974452Y-40383912D01*
X46614151Y-41047882D01*
X46390306Y-41769385D01*
X46311520Y-42520695D01*
X38760000Y-42520695D01*
X38760000Y-39844119D01*
X47643724Y-39844119D01*
X50165000Y-42365395D01*
X52686276Y-39844119D01*
X52326088Y-39354452D01*
X51662118Y-38994151D01*
X50940615Y-38770306D01*
X50189305Y-38691520D01*
X49437062Y-38760822D01*
X48712792Y-38975548D01*
X48044330Y-39327445D01*
X48003912Y-39354452D01*
X47643724Y-39844119D01*
X38760000Y-39844119D01*
X38760000Y-39497000D01*
X45720000Y-39497000D01*
X45744776Y-39494560D01*
X45768601Y-39487333D01*
X45790557Y-39475597D01*
X45809803Y-39459803D01*
X45825597Y-39440557D01*
X45837333Y-39418601D01*
X45844560Y-39394776D01*
X45847000Y-39370000D01*
X45847000Y-35881993D01*
X93202612Y-35881993D01*
X93268137Y-36120860D01*
X93515116Y-36236760D01*
X93779960Y-36302250D01*
X94052492Y-36314812D01*
X94322238Y-36273965D01*
X94578832Y-36181277D01*
X94691863Y-36120860D01*
X94757388Y-35881993D01*
X93980000Y-35104605D01*
X93202612Y-35881993D01*
X45847000Y-35881993D01*
X45847000Y-34997492D01*
X92590188Y-34997492D01*
X92631035Y-35267238D01*
X92723723Y-35523832D01*
X92784140Y-35636863D01*
X93023007Y-35702388D01*
X93800395Y-34925000D01*
X93023007Y-34147612D01*
X92784140Y-34213137D01*
X92668240Y-34460116D01*
X92602750Y-34724960D01*
X92590188Y-34997492D01*
X45847000Y-34997492D01*
X45847000Y-33968007D01*
X93202612Y-33968007D01*
X93980000Y-34745395D01*
X94757388Y-33968007D01*
X94691863Y-33729140D01*
X94444884Y-33613240D01*
X94180040Y-33547750D01*
X93907508Y-33535188D01*
X93637762Y-33576035D01*
X93381168Y-33668723D01*
X93268137Y-33729140D01*
X93202612Y-33968007D01*
X45847000Y-33968007D01*
X45847000Y-32410000D01*
X154011716Y-32410000D01*
X153960498Y-32505820D01*
G04 #@! TA.AperFunction,Conductor*
D29*
G36*
X153960498Y-32505820D02*
G01*
X153924188Y-32625518D01*
X153911928Y-32750000D01*
X153911928Y-35250000D01*
X153924188Y-35374482D01*
X153960498Y-35494180D01*
X154019463Y-35604494D01*
X154098815Y-35701185D01*
X154195506Y-35780537D01*
X154305820Y-35839502D01*
X154425518Y-35875812D01*
X154550000Y-35888072D01*
X154711801Y-35888072D01*
X154711800Y-37611928D01*
X154550000Y-37611928D01*
X154425518Y-37624188D01*
X154305820Y-37660498D01*
X154195506Y-37719463D01*
X154098815Y-37798815D01*
X154019463Y-37895506D01*
X153960498Y-38005820D01*
X153924188Y-38125518D01*
X153911928Y-38250000D01*
X153911928Y-39952678D01*
X152462200Y-41402406D01*
X152393254Y-41381492D01*
X152220000Y-41364428D01*
X151270000Y-41364428D01*
X151096746Y-41381492D01*
X150930150Y-41432028D01*
X150776614Y-41514095D01*
X150698200Y-41578447D01*
X150698200Y-39411163D01*
X150702254Y-39370000D01*
X150698200Y-39328837D01*
X150698200Y-39328830D01*
X150686071Y-39205684D01*
X150638142Y-39047683D01*
X150560309Y-38902068D01*
X150545954Y-38884576D01*
X150481808Y-38806414D01*
X150481806Y-38806412D01*
X150455564Y-38774436D01*
X150423588Y-38748194D01*
X149846811Y-38171417D01*
X149820564Y-38139436D01*
X149692932Y-38034691D01*
X149547317Y-37956858D01*
X149389316Y-37908929D01*
X149266170Y-37896800D01*
X149266163Y-37896800D01*
X149225000Y-37892746D01*
X149183837Y-37896800D01*
X118237000Y-37896800D01*
X118237000Y-35001200D01*
X118234560Y-34976424D01*
X118227333Y-34952599D01*
X118225000Y-34948234D01*
X118225000Y-34788589D01*
X118171775Y-34521011D01*
X118067371Y-34268957D01*
X117915799Y-34042114D01*
X117722886Y-33849201D01*
X117496043Y-33697629D01*
X117243989Y-33593225D01*
X116976411Y-33540000D01*
X116703589Y-33540000D01*
X116436011Y-33593225D01*
X116183957Y-33697629D01*
X115957114Y-33849201D01*
X115764201Y-34042114D01*
X115612629Y-34268957D01*
X115570000Y-34371873D01*
X115527371Y-34268957D01*
X115375799Y-34042114D01*
X115182886Y-33849201D01*
X114956043Y-33697629D01*
X114703989Y-33593225D01*
X114436411Y-33540000D01*
X114163589Y-33540000D01*
X113896011Y-33593225D01*
X113643957Y-33697629D01*
X113417114Y-33849201D01*
X113224201Y-34042114D01*
X113072629Y-34268957D01*
X113030000Y-34371873D01*
X112987371Y-34268957D01*
X112835799Y-34042114D01*
X112642886Y-33849201D01*
X112416043Y-33697629D01*
X112163989Y-33593225D01*
X111896411Y-33540000D01*
X111623589Y-33540000D01*
X111356011Y-33593225D01*
X111103957Y-33697629D01*
X110877114Y-33849201D01*
X110684201Y-34042114D01*
X110532629Y-34268957D01*
X110490000Y-34371873D01*
X110447371Y-34268957D01*
X110295799Y-34042114D01*
X110102886Y-33849201D01*
X109876043Y-33697629D01*
X109623989Y-33593225D01*
X109356411Y-33540000D01*
X109083589Y-33540000D01*
X108816011Y-33593225D01*
X108563957Y-33697629D01*
X108337114Y-33849201D01*
X108144201Y-34042114D01*
X107992629Y-34268957D01*
X107950000Y-34371873D01*
X107907371Y-34268957D01*
X107755799Y-34042114D01*
X107562886Y-33849201D01*
X107336043Y-33697629D01*
X107083989Y-33593225D01*
X106816411Y-33540000D01*
X106543589Y-33540000D01*
X106276011Y-33593225D01*
X106023957Y-33697629D01*
X105797114Y-33849201D01*
X105604201Y-34042114D01*
X105452629Y-34268957D01*
X105410000Y-34371873D01*
X105367371Y-34268957D01*
X105215799Y-34042114D01*
X105022886Y-33849201D01*
X104796043Y-33697629D01*
X104543989Y-33593225D01*
X104276411Y-33540000D01*
X104003589Y-33540000D01*
X103736011Y-33593225D01*
X103483957Y-33697629D01*
X103257114Y-33849201D01*
X103064201Y-34042114D01*
X102912629Y-34268957D01*
X102870000Y-34371873D01*
X102827371Y-34268957D01*
X102675799Y-34042114D01*
X102482886Y-33849201D01*
X102256043Y-33697629D01*
X102003989Y-33593225D01*
X101736411Y-33540000D01*
X101463589Y-33540000D01*
X101196011Y-33593225D01*
X100943957Y-33697629D01*
X100717114Y-33849201D01*
X100524201Y-34042114D01*
X100372629Y-34268957D01*
X100330000Y-34371873D01*
X100287371Y-34268957D01*
X100135799Y-34042114D01*
X99942886Y-33849201D01*
X99716043Y-33697629D01*
X99463989Y-33593225D01*
X99196411Y-33540000D01*
X98923589Y-33540000D01*
X98656011Y-33593225D01*
X98403957Y-33697629D01*
X98177114Y-33849201D01*
X97984201Y-34042114D01*
X97832629Y-34268957D01*
X97790000Y-34371873D01*
X97747371Y-34268957D01*
X97595799Y-34042114D01*
X97402886Y-33849201D01*
X97176043Y-33697629D01*
X96923989Y-33593225D01*
X96656411Y-33540000D01*
X96383589Y-33540000D01*
X96116011Y-33593225D01*
X95863957Y-33697629D01*
X95637114Y-33849201D01*
X95444201Y-34042114D01*
X95292629Y-34268957D01*
X95251489Y-34368279D01*
X95236277Y-34326168D01*
X95175860Y-34213137D01*
X94936993Y-34147612D01*
X94159605Y-34925000D01*
X94936993Y-35702388D01*
X95123000Y-35651363D01*
X95123000Y-39621905D01*
X94946067Y-39548617D01*
X94726788Y-39505000D01*
X94503212Y-39505000D01*
X94283933Y-39548617D01*
X94077376Y-39634176D01*
X93980000Y-39699241D01*
X93882624Y-39634176D01*
X93676067Y-39548617D01*
X93456788Y-39505000D01*
X93233212Y-39505000D01*
X93013933Y-39548617D01*
X92807376Y-39634176D01*
X92710000Y-39699241D01*
X92612624Y-39634176D01*
X92406067Y-39548617D01*
X92186788Y-39505000D01*
X91963212Y-39505000D01*
X91743933Y-39548617D01*
X91537376Y-39634176D01*
X91440000Y-39699241D01*
X91342624Y-39634176D01*
X91136067Y-39548617D01*
X90916788Y-39505000D01*
X90693212Y-39505000D01*
X90473933Y-39548617D01*
X90267376Y-39634176D01*
X90170000Y-39699241D01*
X90072624Y-39634176D01*
X89866067Y-39548617D01*
X89646788Y-39505000D01*
X89423212Y-39505000D01*
X89203933Y-39548617D01*
X88997376Y-39634176D01*
X88900000Y-39699241D01*
X88802624Y-39634176D01*
X88596067Y-39548617D01*
X88376788Y-39505000D01*
X88153212Y-39505000D01*
X87933933Y-39548617D01*
X87727376Y-39634176D01*
X87541480Y-39758388D01*
X87383388Y-39916480D01*
X87259176Y-40102376D01*
X87198200Y-40249585D01*
X87198200Y-38280443D01*
X87198502Y-38280141D01*
X87316640Y-38103335D01*
X87398015Y-37906878D01*
X87439500Y-37698321D01*
X87439500Y-37485679D01*
X87398015Y-37277122D01*
X87316640Y-37080665D01*
X87198502Y-36903859D01*
X87048141Y-36753498D01*
X86871335Y-36635360D01*
X86674878Y-36553985D01*
X86466321Y-36512500D01*
X86253679Y-36512500D01*
X86045122Y-36553985D01*
X85848665Y-36635360D01*
X85671859Y-36753498D01*
X85521498Y-36903859D01*
X85403360Y-37080665D01*
X85321985Y-37277122D01*
X85280500Y-37485679D01*
X85280500Y-37698321D01*
X85321985Y-37906878D01*
X85403360Y-38103335D01*
X85521498Y-38280141D01*
X85521801Y-38280444D01*
X85521800Y-44713637D01*
X85517746Y-44754800D01*
X85521800Y-44795963D01*
X85521800Y-44795969D01*
X85533929Y-44919115D01*
X85581858Y-45077116D01*
X85659691Y-45222731D01*
X85764436Y-45350364D01*
X85796417Y-45376611D01*
X86398591Y-45978785D01*
X86424836Y-46010764D01*
X86552468Y-46115509D01*
X86698083Y-46193342D01*
X86856084Y-46241271D01*
X86979230Y-46253400D01*
X86979237Y-46253400D01*
X87020400Y-46257454D01*
X87061563Y-46253400D01*
X87178199Y-46253400D01*
X87144188Y-46365518D01*
X87131928Y-46490000D01*
X87135000Y-47054250D01*
X87293750Y-47213000D01*
X88493000Y-47213000D01*
X88493000Y-47193000D01*
X88747000Y-47193000D01*
X88747000Y-47213000D01*
X88767000Y-47213000D01*
X88767000Y-47467000D01*
X88747000Y-47467000D01*
X88747000Y-47487000D01*
X88493000Y-47487000D01*
X88493000Y-47467000D01*
X87293750Y-47467000D01*
X87135000Y-47625750D01*
X87134174Y-47777400D01*
X75615800Y-47777400D01*
X75615800Y-43763848D01*
X75660506Y-43800537D01*
X75770820Y-43859502D01*
X75890518Y-43895812D01*
X76015000Y-43908072D01*
X76316750Y-43905000D01*
X76475500Y-43746250D01*
X76475500Y-42672000D01*
X76729500Y-42672000D01*
X76729500Y-43746250D01*
X76888250Y-43905000D01*
X77190000Y-43908072D01*
X77314482Y-43895812D01*
X77434180Y-43859502D01*
X77544494Y-43800537D01*
X77641185Y-43721185D01*
X77720537Y-43624494D01*
X77779502Y-43514180D01*
X77815812Y-43394482D01*
X77828072Y-43270000D01*
X77825000Y-42830750D01*
X77666250Y-42672000D01*
X76729500Y-42672000D01*
X76475500Y-42672000D01*
X76455500Y-42672000D01*
X76455500Y-42418000D01*
X76475500Y-42418000D01*
X76475500Y-41343750D01*
X76729500Y-41343750D01*
X76729500Y-42418000D01*
X77666250Y-42418000D01*
X77825000Y-42259250D01*
X77828072Y-41820000D01*
X77815812Y-41695518D01*
X77779502Y-41575820D01*
X77720537Y-41465506D01*
X77641185Y-41368815D01*
X77544494Y-41289463D01*
X77434180Y-41230498D01*
X77314482Y-41194188D01*
X77190000Y-41181928D01*
X76888250Y-41185000D01*
X76729500Y-41343750D01*
X76475500Y-41343750D01*
X76316750Y-41185000D01*
X76015000Y-41181928D01*
X75890518Y-41194188D01*
X75770820Y-41230498D01*
X75660506Y-41289463D01*
X75563815Y-41368815D01*
X75498342Y-41448594D01*
X75492962Y-41442038D01*
X75358386Y-41331595D01*
X75204850Y-41249528D01*
X75038254Y-41198992D01*
X74865000Y-41181928D01*
X74190000Y-41181928D01*
X74016746Y-41198992D01*
X73850150Y-41249528D01*
X73696614Y-41331595D01*
X73562038Y-41442038D01*
X73451595Y-41576614D01*
X73369528Y-41730150D01*
X73345791Y-41808400D01*
X73036625Y-41808400D01*
X73020472Y-41755149D01*
X72938405Y-41601613D01*
X72827962Y-41467038D01*
X72693387Y-41356595D01*
X72539851Y-41274528D01*
X72373255Y-41223992D01*
X72200001Y-41206928D01*
X71499999Y-41206928D01*
X71326745Y-41223992D01*
X71160149Y-41274528D01*
X71006613Y-41356595D01*
X70872038Y-41467038D01*
X70850000Y-41493891D01*
X70827962Y-41467038D01*
X70693387Y-41356595D01*
X70539851Y-41274528D01*
X70373255Y-41223992D01*
X70200001Y-41206928D01*
X69499999Y-41206928D01*
X69326745Y-41223992D01*
X69160149Y-41274528D01*
X69006613Y-41356595D01*
X68872038Y-41467038D01*
X68761595Y-41601613D01*
X68679528Y-41755149D01*
X68663375Y-41808400D01*
X58456186Y-41808400D01*
X58420000Y-41804836D01*
X58383814Y-41808400D01*
X58275601Y-41819058D01*
X58136751Y-41861178D01*
X58008787Y-41929576D01*
X57896625Y-42021625D01*
X57873559Y-42049731D01*
X56019732Y-43903559D01*
X55991625Y-43926626D01*
X55899576Y-44038788D01*
X55831178Y-44166752D01*
X55789058Y-44305602D01*
X55779645Y-44401178D01*
X55774836Y-44450000D01*
X55778400Y-44486183D01*
X55778401Y-48589889D01*
X54152490Y-50215800D01*
X51636069Y-50215800D01*
X51556637Y-50200000D01*
X51313363Y-50200000D01*
X51233931Y-50215800D01*
X49096069Y-50215800D01*
X49016637Y-50200000D01*
X48773363Y-50200000D01*
X48534764Y-50247460D01*
X48310008Y-50340557D01*
X48107733Y-50475713D01*
X47935713Y-50647733D01*
X47800557Y-50850008D01*
X47707460Y-51074764D01*
X47660000Y-51313363D01*
X47660000Y-51556637D01*
X47707460Y-51795236D01*
X47800557Y-52019992D01*
X47935713Y-52222267D01*
X48107733Y-52394287D01*
X48310008Y-52529443D01*
X48534764Y-52622540D01*
X48773363Y-52670000D01*
X48793400Y-52670000D01*
X48793400Y-52740000D01*
X48773363Y-52740000D01*
X48534764Y-52787460D01*
X48310008Y-52880557D01*
X48107733Y-53015713D01*
X47935713Y-53187733D01*
X47800557Y-53390008D01*
X47707460Y-53614764D01*
X47660000Y-53853363D01*
X47660000Y-54096637D01*
X47707460Y-54335236D01*
X47800557Y-54559992D01*
X47935713Y-54762267D01*
X48107733Y-54934287D01*
X48310008Y-55069443D01*
X48534764Y-55162540D01*
X48773363Y-55210000D01*
X48944606Y-55210000D01*
X49014606Y-55280000D01*
X48773363Y-55280000D01*
X48534764Y-55327460D01*
X48310008Y-55420557D01*
X48107733Y-55555713D01*
X47935713Y-55727733D01*
X47800557Y-55930008D01*
X47707460Y-56154764D01*
X47660000Y-56393363D01*
X47660000Y-56636637D01*
X47707460Y-56875236D01*
X47800557Y-57099992D01*
X47935713Y-57302267D01*
X48107733Y-57474287D01*
X48310008Y-57609443D01*
X48534764Y-57702540D01*
X48773363Y-57750000D01*
X49016637Y-57750000D01*
X49076402Y-57738112D01*
X49193463Y-57855173D01*
X49016637Y-57820000D01*
X48773363Y-57820000D01*
X48534764Y-57867460D01*
X48310008Y-57960557D01*
X48107733Y-58095713D01*
X47935713Y-58267733D01*
X47901858Y-58318400D01*
X47661186Y-58318400D01*
X47625000Y-58314836D01*
X47588814Y-58318400D01*
X47480601Y-58329058D01*
X47341751Y-58371178D01*
X47219308Y-58436625D01*
X47213787Y-58439576D01*
X47176706Y-58470008D01*
X47101625Y-58531625D01*
X47078559Y-58559731D01*
X46494733Y-59143558D01*
X46466625Y-59166626D01*
X46374576Y-59278788D01*
X46306178Y-59406752D01*
X46264058Y-59545602D01*
X46254645Y-59641178D01*
X46249836Y-59690000D01*
X46253400Y-59726184D01*
X46253401Y-62193807D01*
X46249836Y-62230000D01*
X46260195Y-62335164D01*
X46264059Y-62374399D01*
X46267435Y-62385527D01*
X46306178Y-62513247D01*
X46374576Y-62641212D01*
X46387293Y-62656707D01*
X46466626Y-62753375D01*
X46494732Y-62776441D01*
X47078557Y-63360267D01*
X47101625Y-63388375D01*
X47213787Y-63480424D01*
X47341751Y-63548822D01*
X47472742Y-63588558D01*
X47480601Y-63590942D01*
X47625000Y-63605164D01*
X47661186Y-63601600D01*
X51689000Y-63601600D01*
X51689000Y-74907636D01*
X51635326Y-74973038D01*
X51566928Y-75101003D01*
X51550916Y-75153787D01*
X51527009Y-75232601D01*
X51524809Y-75239852D01*
X51510586Y-75384250D01*
X51514151Y-75420443D01*
X51514150Y-126963817D01*
X51510586Y-127000000D01*
X51514150Y-127036183D01*
X51514150Y-127036185D01*
X51524808Y-127144398D01*
X51566928Y-127283248D01*
X51635326Y-127411212D01*
X51727375Y-127523374D01*
X51755482Y-127546441D01*
X56784307Y-132575267D01*
X56807375Y-132603375D01*
X56919537Y-132695424D01*
X56986737Y-132731343D01*
X58953400Y-134698006D01*
X58953400Y-134896858D01*
X58902733Y-134930713D01*
X58730713Y-135102733D01*
X58595557Y-135305008D01*
X58502460Y-135529764D01*
X58455000Y-135768363D01*
X58455000Y-136011637D01*
X58502460Y-136250236D01*
X58595557Y-136474992D01*
X58730713Y-136677267D01*
X58902733Y-136849287D01*
X59105008Y-136984443D01*
X59329764Y-137077540D01*
X59568363Y-137125000D01*
X59811637Y-137125000D01*
X59871403Y-137113112D01*
X69394559Y-146636269D01*
X69417625Y-146664375D01*
X69529787Y-146756424D01*
X69657751Y-146824822D01*
X69796601Y-146866942D01*
X69904814Y-146877600D01*
X69904823Y-146877600D01*
X69940999Y-146881163D01*
X69977175Y-146877600D01*
X71400850Y-146877600D01*
X71396428Y-146922500D01*
X71396428Y-147046557D01*
X71390929Y-147064685D01*
X71378800Y-147187831D01*
X71378801Y-149010828D01*
X71374746Y-149052000D01*
X71390929Y-149216315D01*
X71438858Y-149374316D01*
X71516691Y-149519931D01*
X71586715Y-149605255D01*
X71621437Y-149647564D01*
X71653413Y-149673806D01*
X71768189Y-149788582D01*
X71794436Y-149820564D01*
X71922068Y-149925309D01*
X72067683Y-150003142D01*
X72225684Y-150051071D01*
X72348830Y-150063200D01*
X72348837Y-150063200D01*
X72390000Y-150067254D01*
X72431163Y-150063200D01*
X72983839Y-150063200D01*
X73024999Y-150067254D01*
X73066159Y-150063200D01*
X73618839Y-150063200D01*
X73659999Y-150067254D01*
X73701159Y-150063200D01*
X74253837Y-150063200D01*
X74295000Y-150067254D01*
X74336163Y-150063200D01*
X90128830Y-150063200D01*
X90170000Y-150067255D01*
X90211170Y-150063200D01*
X113623837Y-150063200D01*
X113665000Y-150067254D01*
X113706163Y-150063200D01*
X114258837Y-150063200D01*
X114300000Y-150067254D01*
X114341163Y-150063200D01*
X114893837Y-150063200D01*
X114935000Y-150067254D01*
X114976163Y-150063200D01*
X149183837Y-150063200D01*
X149225000Y-150067254D01*
X149266163Y-150063200D01*
X149818837Y-150063200D01*
X149860000Y-150067254D01*
X149901163Y-150063200D01*
X150453837Y-150063200D01*
X150495000Y-150067254D01*
X150536163Y-150063200D01*
X151088837Y-150063200D01*
X151130000Y-150067254D01*
X151171163Y-150063200D01*
X151171170Y-150063200D01*
X151294316Y-150051071D01*
X151452317Y-150003142D01*
X151597932Y-149925309D01*
X151725564Y-149820564D01*
X151751811Y-149788582D01*
X151866582Y-149673811D01*
X151898564Y-149647564D01*
X152003309Y-149519932D01*
X152081142Y-149374317D01*
X152129071Y-149216316D01*
X152141200Y-149093170D01*
X152141200Y-149093163D01*
X152145254Y-149052000D01*
X152141200Y-149010837D01*
X152141200Y-147187830D01*
X152129071Y-147064684D01*
X152123572Y-147046556D01*
X152123572Y-146922500D01*
X152119150Y-146877600D01*
X153542817Y-146877600D01*
X153579000Y-146881164D01*
X153615183Y-146877600D01*
X153615186Y-146877600D01*
X153723399Y-146866942D01*
X153862249Y-146824822D01*
X153990213Y-146756424D01*
X154102375Y-146664375D01*
X154125446Y-146636263D01*
X158941945Y-141819764D01*
X163159841Y-141819764D01*
X163207148Y-142043348D01*
X163428516Y-142144237D01*
X163665313Y-142200000D01*
X163908438Y-142208495D01*
X164148549Y-142169395D01*
X164376418Y-142084202D01*
X164452852Y-142043348D01*
X164500159Y-141819764D01*
X163830000Y-141149605D01*
X163159841Y-141819764D01*
X158941945Y-141819764D01*
X159713271Y-141048438D01*
X162591505Y-141048438D01*
X162630605Y-141288549D01*
X162715798Y-141516418D01*
X162756652Y-141592852D01*
X162980236Y-141640159D01*
X163650395Y-140970000D01*
X164009605Y-140970000D01*
X164679764Y-141640159D01*
X164903348Y-141592852D01*
X165004237Y-141371484D01*
X165060000Y-141134687D01*
X165068495Y-140891562D01*
X165029395Y-140651451D01*
X164944202Y-140423582D01*
X164903348Y-140347148D01*
X164679764Y-140299841D01*
X164009605Y-140970000D01*
X163650395Y-140970000D01*
X162980236Y-140299841D01*
X162756652Y-140347148D01*
X162655763Y-140568516D01*
X162600000Y-140805313D01*
X162591505Y-141048438D01*
X159713271Y-141048438D01*
X160641473Y-140120236D01*
X163159841Y-140120236D01*
X163830000Y-140790395D01*
X164500159Y-140120236D01*
X164452852Y-139896652D01*
X164231484Y-139795763D01*
X163994687Y-139740000D01*
X163751562Y-139731505D01*
X163511451Y-139770605D01*
X163283582Y-139855798D01*
X163207148Y-139896652D01*
X163159841Y-140120236D01*
X160641473Y-140120236D01*
X163648598Y-137113112D01*
X163708363Y-137125000D01*
X163951637Y-137125000D01*
X164190236Y-137077540D01*
X164414992Y-136984443D01*
X164617267Y-136849287D01*
X164789287Y-136677267D01*
X164924443Y-136474992D01*
X165017540Y-136250236D01*
X165065000Y-136011637D01*
X165065000Y-135768363D01*
X165017540Y-135529764D01*
X164924443Y-135305008D01*
X164789287Y-135102733D01*
X164617267Y-134930713D01*
X164566600Y-134896858D01*
X164566600Y-133020109D01*
X164770110Y-132816600D01*
X166968817Y-132816600D01*
X167005000Y-132820164D01*
X167041183Y-132816600D01*
X167041186Y-132816600D01*
X167149399Y-132805942D01*
X167288249Y-132763822D01*
X167416213Y-132695424D01*
X167528375Y-132603375D01*
X167551445Y-132575264D01*
X168770273Y-131356437D01*
X168798374Y-131333375D01*
X168821437Y-131305273D01*
X168821442Y-131305268D01*
X168890423Y-131221214D01*
X168890425Y-131221212D01*
X168958822Y-131093249D01*
X169000942Y-130954399D01*
X169011600Y-130846186D01*
X169011600Y-130846177D01*
X169015163Y-130810001D01*
X169011600Y-130773825D01*
X169011600Y-116241175D01*
X169015163Y-116204999D01*
X169011600Y-116168823D01*
X169011600Y-116168814D01*
X169000942Y-116060601D01*
X168958822Y-115921751D01*
X168890424Y-115793787D01*
X168798375Y-115681625D01*
X168770268Y-115658558D01*
X167551445Y-114439736D01*
X167528375Y-114411625D01*
X167416213Y-114319576D01*
X167288249Y-114251178D01*
X167149399Y-114209058D01*
X167041186Y-114198400D01*
X167041183Y-114198400D01*
X167005000Y-114194836D01*
X166968817Y-114198400D01*
X151435110Y-114198400D01*
X149961600Y-112724891D01*
X149961600Y-58436994D01*
X150050500Y-58525894D01*
X150050500Y-58526321D01*
X150091985Y-58734878D01*
X150173360Y-58931335D01*
X150291498Y-59108141D01*
X150441859Y-59258502D01*
X150618665Y-59376640D01*
X150815122Y-59458015D01*
X151023679Y-59499500D01*
X151236321Y-59499500D01*
X151444878Y-59458015D01*
X151641335Y-59376640D01*
X151818141Y-59258502D01*
X151968502Y-59108141D01*
X152086640Y-58931335D01*
X152168015Y-58734878D01*
X152209500Y-58526321D01*
X152209500Y-58313679D01*
X152168015Y-58105122D01*
X152086640Y-57908665D01*
X151968502Y-57731859D01*
X151818141Y-57581498D01*
X151641335Y-57463360D01*
X151548726Y-57425000D01*
X156756928Y-57425000D01*
X156769188Y-57549482D01*
X156805498Y-57669180D01*
X156864463Y-57779494D01*
X156943815Y-57876185D01*
X157040506Y-57955537D01*
X157150820Y-58014502D01*
X157270518Y-58050812D01*
X157395000Y-58063072D01*
X157809250Y-58060000D01*
X157968000Y-57901250D01*
X157968000Y-56952000D01*
X158222000Y-56952000D01*
X158222000Y-57901250D01*
X158380750Y-58060000D01*
X158795000Y-58063072D01*
X158919482Y-58050812D01*
X159039180Y-58014502D01*
X159149494Y-57955537D01*
X159246185Y-57876185D01*
X159325537Y-57779494D01*
X159365000Y-57705665D01*
X159404463Y-57779494D01*
X159483815Y-57876185D01*
X159580506Y-57955537D01*
X159690820Y-58014502D01*
X159810518Y-58050812D01*
X159935000Y-58063072D01*
X160349250Y-58060000D01*
X160508000Y-57901250D01*
X160508000Y-56952000D01*
X159458750Y-56952000D01*
X159365000Y-57045750D01*
X159271250Y-56952000D01*
X158222000Y-56952000D01*
X157968000Y-56952000D01*
X156918750Y-56952000D01*
X156760000Y-57110750D01*
X156756928Y-57425000D01*
X151548726Y-57425000D01*
X151444878Y-57381985D01*
X151236321Y-57340500D01*
X151235894Y-57340500D01*
X150698200Y-56802807D01*
X150698200Y-45800513D01*
X150775820Y-45842002D01*
X150895518Y-45878312D01*
X151020000Y-45890572D01*
X151459250Y-45887500D01*
X151618000Y-45728750D01*
X151618000Y-44792000D01*
X151872000Y-44792000D01*
X151872000Y-45728750D01*
X152030750Y-45887500D01*
X152470000Y-45890572D01*
X152594482Y-45878312D01*
X152714180Y-45842002D01*
X152824494Y-45783037D01*
X152921185Y-45703685D01*
X153000537Y-45606994D01*
X153059502Y-45496680D01*
X153095812Y-45376982D01*
X153108072Y-45252500D01*
X153105000Y-44950750D01*
X152946250Y-44792000D01*
X151872000Y-44792000D01*
X151618000Y-44792000D01*
X151598000Y-44792000D01*
X151598000Y-44538000D01*
X151618000Y-44538000D01*
X151618000Y-44518000D01*
X151872000Y-44518000D01*
X151872000Y-44538000D01*
X152946250Y-44538000D01*
X153105000Y-44379250D01*
X153108072Y-44077500D01*
X153095812Y-43953018D01*
X153059502Y-43833320D01*
X153000537Y-43723006D01*
X152921185Y-43626315D01*
X152841406Y-43560842D01*
X152847962Y-43555462D01*
X152958405Y-43420886D01*
X153040472Y-43267350D01*
X153070979Y-43166781D01*
X153081811Y-43153582D01*
X154847322Y-41388072D01*
X156153427Y-41388072D01*
X156161399Y-41392333D01*
X156185224Y-41399560D01*
X156210000Y-41402000D01*
X159263400Y-41402000D01*
X159263401Y-47379492D01*
X159109533Y-47533360D01*
X159081427Y-47556426D01*
X159058361Y-47584532D01*
X159058359Y-47584534D01*
X158989377Y-47668589D01*
X158920979Y-47796554D01*
X158909668Y-47833843D01*
X158888265Y-47904400D01*
X158878860Y-47935403D01*
X158864637Y-48079801D01*
X158868202Y-48115994D01*
X158868202Y-48815000D01*
X158822998Y-48815000D01*
X158822998Y-48973748D01*
X158664250Y-48815000D01*
X158600000Y-48811928D01*
X158475518Y-48824188D01*
X158355820Y-48860498D01*
X158245506Y-48919463D01*
X158148815Y-48998815D01*
X158069463Y-49095506D01*
X158010498Y-49205820D01*
X157974188Y-49325518D01*
X157961928Y-49450000D01*
X157965000Y-49664250D01*
X158123750Y-49823000D01*
X158823000Y-49823000D01*
X158823000Y-49803000D01*
X158868201Y-49803000D01*
X158868201Y-50097000D01*
X158823000Y-50097000D01*
X158823000Y-50077000D01*
X158123750Y-50077000D01*
X157965000Y-50235750D01*
X157961928Y-50450000D01*
X157974188Y-50574482D01*
X158010498Y-50694180D01*
X158069463Y-50804494D01*
X158147842Y-50900000D01*
X158069463Y-50995506D01*
X158010498Y-51105820D01*
X157974188Y-51225518D01*
X157961928Y-51350000D01*
X157961928Y-51596363D01*
X157599732Y-51958559D01*
X157571626Y-51981625D01*
X157548560Y-52009731D01*
X157548558Y-52009733D01*
X157479576Y-52093788D01*
X157411178Y-52221753D01*
X157403955Y-52245564D01*
X157377183Y-52333822D01*
X157369059Y-52360602D01*
X157354836Y-52505000D01*
X157358401Y-52541193D01*
X157358401Y-53638374D01*
X157305149Y-53654528D01*
X157151613Y-53736595D01*
X157017038Y-53847038D01*
X156906595Y-53981613D01*
X156824528Y-54135149D01*
X156773992Y-54301745D01*
X156756928Y-54474999D01*
X156756928Y-55175001D01*
X156773992Y-55348255D01*
X156824528Y-55514851D01*
X156906595Y-55668387D01*
X156973276Y-55749637D01*
X156943815Y-55773815D01*
X156864463Y-55870506D01*
X156805498Y-55980820D01*
X156769188Y-56100518D01*
X156756928Y-56225000D01*
X156760000Y-56539250D01*
X156918750Y-56698000D01*
X157968000Y-56698000D01*
X157968000Y-56678000D01*
X158222000Y-56678000D01*
X158222000Y-56698000D01*
X159271250Y-56698000D01*
X159365000Y-56604250D01*
X159458750Y-56698000D01*
X160508000Y-56698000D01*
X160508000Y-56678000D01*
X160762000Y-56678000D01*
X160762000Y-56698000D01*
X160782000Y-56698000D01*
X160782000Y-56952000D01*
X160762000Y-56952000D01*
X160762000Y-57901250D01*
X160910090Y-58049340D01*
X160886985Y-58105122D01*
X160845500Y-58313679D01*
X160845500Y-58526321D01*
X160886985Y-58734878D01*
X160968360Y-58931335D01*
X161086498Y-59108141D01*
X161236859Y-59258502D01*
X161413665Y-59376640D01*
X161610122Y-59458015D01*
X161818679Y-59499500D01*
X162031321Y-59499500D01*
X162239878Y-59458015D01*
X162436335Y-59376640D01*
X162613141Y-59258502D01*
X162763502Y-59108141D01*
X162881640Y-58931335D01*
X162963015Y-58734878D01*
X163004500Y-58526321D01*
X163004500Y-58525893D01*
X163467322Y-58063072D01*
X163625001Y-58063072D01*
X163798255Y-58046008D01*
X163964851Y-57995472D01*
X164118387Y-57913405D01*
X164252962Y-57802962D01*
X164363405Y-57668387D01*
X164445472Y-57514851D01*
X164496008Y-57348255D01*
X164513072Y-57175001D01*
X164513072Y-56474999D01*
X164496008Y-56301745D01*
X164445472Y-56135149D01*
X164363405Y-55981613D01*
X164252962Y-55847038D01*
X164226109Y-55825000D01*
X164252962Y-55802962D01*
X164363405Y-55668387D01*
X164445472Y-55514851D01*
X164496008Y-55348255D01*
X164513072Y-55175001D01*
X164513072Y-54474999D01*
X164496008Y-54301745D01*
X164465000Y-54199525D01*
X164465000Y-52609975D01*
X164521335Y-52586640D01*
X164668661Y-52488200D01*
X165205371Y-52488200D01*
X165261595Y-52593387D01*
X165372038Y-52727962D01*
X165506613Y-52838405D01*
X165660149Y-52920472D01*
X165826745Y-52971008D01*
X165999999Y-52988072D01*
X166700001Y-52988072D01*
X166873255Y-52971008D01*
X167039851Y-52920472D01*
X167193387Y-52838405D01*
X167327962Y-52727962D01*
X167350000Y-52701109D01*
X167372038Y-52727962D01*
X167506613Y-52838405D01*
X167660149Y-52920472D01*
X167826745Y-52971008D01*
X167999999Y-52988072D01*
X168700001Y-52988072D01*
X168873255Y-52971008D01*
X169039851Y-52920472D01*
X169193387Y-52838405D01*
X169327962Y-52727962D01*
X169438405Y-52593387D01*
X169520472Y-52439851D01*
X169536625Y-52386600D01*
X169613291Y-52386600D01*
X169637028Y-52464850D01*
X169719095Y-52618386D01*
X169829538Y-52752962D01*
X169964114Y-52863405D01*
X170117650Y-52945472D01*
X170284246Y-52996008D01*
X170457500Y-53013072D01*
X171132500Y-53013072D01*
X171305754Y-52996008D01*
X171472350Y-52945472D01*
X171625886Y-52863405D01*
X171760462Y-52752962D01*
X171765842Y-52746406D01*
X171831315Y-52826185D01*
X171928006Y-52905537D01*
X172038320Y-52964502D01*
X172158018Y-53000812D01*
X172282500Y-53013072D01*
X172584250Y-53010000D01*
X172743000Y-52851250D01*
X172743000Y-51777000D01*
X172997000Y-51777000D01*
X172997000Y-52851250D01*
X173155750Y-53010000D01*
X173457500Y-53013072D01*
X173581982Y-53000812D01*
X173701680Y-52964502D01*
X173811994Y-52905537D01*
X173908685Y-52826185D01*
X173988037Y-52729494D01*
X174047002Y-52619180D01*
X174083312Y-52499482D01*
X174095572Y-52375000D01*
X174092500Y-51935750D01*
X173933750Y-51777000D01*
X172997000Y-51777000D01*
X172743000Y-51777000D01*
X172723000Y-51777000D01*
X172723000Y-51523000D01*
X172743000Y-51523000D01*
X172743000Y-50448750D01*
X172997000Y-50448750D01*
X172997000Y-51523000D01*
X173933750Y-51523000D01*
X174092500Y-51364250D01*
X174095572Y-50925000D01*
X174083312Y-50800518D01*
X174047002Y-50680820D01*
X173988037Y-50570506D01*
X173908685Y-50473815D01*
X173811994Y-50394463D01*
X173701680Y-50335498D01*
X173581982Y-50299188D01*
X173457500Y-50286928D01*
X173155750Y-50290000D01*
X172997000Y-50448750D01*
X172743000Y-50448750D01*
X172584250Y-50290000D01*
X172282500Y-50286928D01*
X172158018Y-50299188D01*
X172038320Y-50335498D01*
X171928006Y-50394463D01*
X171831315Y-50473815D01*
X171765842Y-50553594D01*
X171760462Y-50547038D01*
X171625886Y-50436595D01*
X171472350Y-50354528D01*
X171305754Y-50303992D01*
X171132500Y-50286928D01*
X170457500Y-50286928D01*
X170284246Y-50303992D01*
X170117650Y-50354528D01*
X169964114Y-50436595D01*
X169829538Y-50547038D01*
X169719095Y-50681614D01*
X169637028Y-50835150D01*
X169613291Y-50913400D01*
X169536625Y-50913400D01*
X169520472Y-50860149D01*
X169438405Y-50706613D01*
X169327962Y-50572038D01*
X169193387Y-50461595D01*
X169039851Y-50379528D01*
X168873255Y-50328992D01*
X168700001Y-50311928D01*
X167999999Y-50311928D01*
X167826745Y-50328992D01*
X167660149Y-50379528D01*
X167506613Y-50461595D01*
X167372038Y-50572038D01*
X167350000Y-50598891D01*
X167327962Y-50572038D01*
X167193387Y-50461595D01*
X167039851Y-50379528D01*
X166873255Y-50328992D01*
X166700001Y-50311928D01*
X165999999Y-50311928D01*
X165826745Y-50328992D01*
X165660149Y-50379528D01*
X165506613Y-50461595D01*
X165372038Y-50572038D01*
X165261595Y-50706613D01*
X165205371Y-50811800D01*
X164718443Y-50811800D01*
X164698141Y-50791498D01*
X164521335Y-50673360D01*
X164324878Y-50591985D01*
X164116321Y-50550500D01*
X163903679Y-50550500D01*
X163695122Y-50591985D01*
X163498665Y-50673360D01*
X163321859Y-50791498D01*
X163321557Y-50791800D01*
X163207194Y-50791800D01*
X162150394Y-49735000D01*
X162163587Y-49721807D01*
X162195564Y-49695564D01*
X162285740Y-49585685D01*
X162300309Y-49567932D01*
X162378142Y-49422317D01*
X162426071Y-49264316D01*
X162438200Y-49141170D01*
X162438200Y-49141163D01*
X162442254Y-49100000D01*
X162438200Y-49058837D01*
X162438200Y-41402000D01*
X163830000Y-41402000D01*
X163854776Y-41399560D01*
X163878601Y-41392333D01*
X163886573Y-41388072D01*
X165450000Y-41388072D01*
X165574482Y-41375812D01*
X165694180Y-41339502D01*
X165804494Y-41280537D01*
X165901185Y-41201185D01*
X165980537Y-41104494D01*
X166039502Y-40994180D01*
X166075812Y-40874482D01*
X166088072Y-40750000D01*
X166088072Y-38250000D01*
X166075812Y-38125518D01*
X166039502Y-38005820D01*
X165980537Y-37895506D01*
X165901185Y-37798815D01*
X165804494Y-37719463D01*
X165694180Y-37660498D01*
X165574482Y-37624188D01*
X165450000Y-37611928D01*
X165288200Y-37611928D01*
X165288200Y-35888072D01*
X165450000Y-35888072D01*
X165574482Y-35875812D01*
X165694180Y-35839502D01*
X165804494Y-35780537D01*
X165901185Y-35701185D01*
X165980537Y-35604494D01*
X166039502Y-35494180D01*
X166075812Y-35374482D01*
X166088072Y-35250000D01*
X166088072Y-32750000D01*
X166075812Y-32625518D01*
X166039502Y-32505820D01*
X165988284Y-32410000D01*
X170053000Y-32410000D01*
X170053000Y-39370000D01*
X170055440Y-39394776D01*
X170062667Y-39418601D01*
X170074403Y-39440557D01*
X170090197Y-39459803D01*
X170109443Y-39475597D01*
X170131399Y-39487333D01*
X170155224Y-39494560D01*
X170180000Y-39497000D01*
X177140000Y-39497000D01*
X177140001Y-144653000D01*
X170180000Y-144653000D01*
X170155224Y-144655440D01*
X170131399Y-144662667D01*
X170109443Y-144674403D01*
X170090197Y-144690197D01*
X170074403Y-144709443D01*
X170062667Y-144731399D01*
X170055440Y-144755224D01*
X170053000Y-144780000D01*
X170053000Y-151740000D01*
X45847000Y-151740000D01*
X45847000Y-144780000D01*
X45844560Y-144755224D01*
X45837333Y-144731399D01*
X45825597Y-144709443D01*
X45809803Y-144690197D01*
X45790557Y-144674403D01*
X45768601Y-144662667D01*
X45744776Y-144655440D01*
X45720000Y-144653000D01*
X38760000Y-144653000D01*
X38760000Y-141819764D01*
X59019841Y-141819764D01*
X59067148Y-142043348D01*
X59288516Y-142144237D01*
X59525313Y-142200000D01*
X59768438Y-142208495D01*
X60008549Y-142169395D01*
X60236418Y-142084202D01*
X60312852Y-142043348D01*
X60360159Y-141819764D01*
X59690000Y-141149605D01*
X59019841Y-141819764D01*
X38760000Y-141819764D01*
X38760000Y-141048438D01*
X58451505Y-141048438D01*
X58490605Y-141288549D01*
X58575798Y-141516418D01*
X58616652Y-141592852D01*
X58840236Y-141640159D01*
X59510395Y-140970000D01*
X59869605Y-140970000D01*
X60539764Y-141640159D01*
X60763348Y-141592852D01*
X60864237Y-141371484D01*
X60920000Y-141134687D01*
X60928495Y-140891562D01*
X60889395Y-140651451D01*
X60804202Y-140423582D01*
X60763348Y-140347148D01*
X60539764Y-140299841D01*
X59869605Y-140970000D01*
X59510395Y-140970000D01*
X58840236Y-140299841D01*
X58616652Y-140347148D01*
X58515763Y-140568516D01*
X58460000Y-140805313D01*
X58451505Y-141048438D01*
X38760000Y-141048438D01*
X38760000Y-140120236D01*
X59019841Y-140120236D01*
X59690000Y-140790395D01*
X60360159Y-140120236D01*
X60312852Y-139896652D01*
X60091484Y-139795763D01*
X59854687Y-139740000D01*
X59611562Y-139731505D01*
X59371451Y-139770605D01*
X59143582Y-139855798D01*
X59067148Y-139896652D01*
X59019841Y-140120236D01*
X38760000Y-140120236D01*
X38760000Y-49744764D01*
X48224841Y-49744764D01*
X48272148Y-49968348D01*
X48493516Y-50069237D01*
X48730313Y-50125000D01*
X48973438Y-50133495D01*
X49213549Y-50094395D01*
X49441418Y-50009202D01*
X49517852Y-49968348D01*
X49565159Y-49744764D01*
X50764841Y-49744764D01*
X50812148Y-49968348D01*
X51033516Y-50069237D01*
X51270313Y-50125000D01*
X51513438Y-50133495D01*
X51753549Y-50094395D01*
X51981418Y-50009202D01*
X52057852Y-49968348D01*
X52105159Y-49744764D01*
X51435000Y-49074605D01*
X50764841Y-49744764D01*
X49565159Y-49744764D01*
X48895000Y-49074605D01*
X48224841Y-49744764D01*
X38760000Y-49744764D01*
X38760000Y-48973438D01*
X47656505Y-48973438D01*
X47695605Y-49213549D01*
X47780798Y-49441418D01*
X47821652Y-49517852D01*
X48045236Y-49565159D01*
X48715395Y-48895000D01*
X49074605Y-48895000D01*
X49744764Y-49565159D01*
X49968348Y-49517852D01*
X50069237Y-49296484D01*
X50125000Y-49059687D01*
X50128013Y-48973438D01*
X50196505Y-48973438D01*
X50235605Y-49213549D01*
X50320798Y-49441418D01*
X50361652Y-49517852D01*
X50585236Y-49565159D01*
X51255395Y-48895000D01*
X51614605Y-48895000D01*
X52284764Y-49565159D01*
X52508348Y-49517852D01*
X52609237Y-49296484D01*
X52665000Y-49059687D01*
X52673495Y-48816562D01*
X52634395Y-48576451D01*
X52549202Y-48348582D01*
X52508348Y-48272148D01*
X52284764Y-48224841D01*
X51614605Y-48895000D01*
X51255395Y-48895000D01*
X50585236Y-48224841D01*
X50361652Y-48272148D01*
X50260763Y-48493516D01*
X50205000Y-48730313D01*
X50196505Y-48973438D01*
X50128013Y-48973438D01*
X50133495Y-48816562D01*
X50094395Y-48576451D01*
X50009202Y-48348582D01*
X49968348Y-48272148D01*
X49744764Y-48224841D01*
X49074605Y-48895000D01*
X48715395Y-48895000D01*
X48045236Y-48224841D01*
X47821652Y-48272148D01*
X47720763Y-48493516D01*
X47665000Y-48730313D01*
X47656505Y-48973438D01*
X38760000Y-48973438D01*
X38760000Y-48045236D01*
X48224841Y-48045236D01*
X48895000Y-48715395D01*
X49565159Y-48045236D01*
X50764841Y-48045236D01*
X51435000Y-48715395D01*
X52105159Y-48045236D01*
X52057852Y-47821652D01*
X51836484Y-47720763D01*
X51599687Y-47665000D01*
X51356562Y-47656505D01*
X51116451Y-47695605D01*
X50888582Y-47780798D01*
X50812148Y-47821652D01*
X50764841Y-48045236D01*
X49565159Y-48045236D01*
X49517852Y-47821652D01*
X49296484Y-47720763D01*
X49059687Y-47665000D01*
X48816562Y-47656505D01*
X48576451Y-47695605D01*
X48348582Y-47780798D01*
X48272148Y-47821652D01*
X48224841Y-48045236D01*
X38760000Y-48045236D01*
X38760000Y-45245881D01*
X47643724Y-45245881D01*
X48003912Y-45735548D01*
X48667882Y-46095849D01*
X49389385Y-46319694D01*
X50140695Y-46398480D01*
X50892938Y-46329178D01*
X51617208Y-46114452D01*
X52285670Y-45762555D01*
X52326088Y-45735548D01*
X52686276Y-45245881D01*
X50165000Y-42724605D01*
X47643724Y-45245881D01*
X38760000Y-45245881D01*
X38760000Y-42520695D01*
X46311520Y-42520695D01*
X46380822Y-43272938D01*
X46595548Y-43997208D01*
X46947445Y-44665670D01*
X46974452Y-44706088D01*
X47464119Y-45066276D01*
X49985395Y-42545000D01*
X50344605Y-42545000D01*
X52865881Y-45066276D01*
X53355548Y-44706088D01*
X53715849Y-44042118D01*
X53939694Y-43320615D01*
X54018480Y-42569305D01*
X53949178Y-41817062D01*
X53734452Y-41092792D01*
X53382555Y-40424330D01*
X53355548Y-40383912D01*
X52865881Y-40023724D01*
X50344605Y-42545000D01*
X49985395Y-42545000D01*
X47464119Y-40023724D01*
X46974452Y-40383912D01*
X46614151Y-41047882D01*
X46390306Y-41769385D01*
X46311520Y-42520695D01*
X38760000Y-42520695D01*
X38760000Y-39844119D01*
X47643724Y-39844119D01*
X50165000Y-42365395D01*
X52686276Y-39844119D01*
X52326088Y-39354452D01*
X51662118Y-38994151D01*
X50940615Y-38770306D01*
X50189305Y-38691520D01*
X49437062Y-38760822D01*
X48712792Y-38975548D01*
X48044330Y-39327445D01*
X48003912Y-39354452D01*
X47643724Y-39844119D01*
X38760000Y-39844119D01*
X38760000Y-39497000D01*
X45720000Y-39497000D01*
X45744776Y-39494560D01*
X45768601Y-39487333D01*
X45790557Y-39475597D01*
X45809803Y-39459803D01*
X45825597Y-39440557D01*
X45837333Y-39418601D01*
X45844560Y-39394776D01*
X45847000Y-39370000D01*
X45847000Y-35881993D01*
X93202612Y-35881993D01*
X93268137Y-36120860D01*
X93515116Y-36236760D01*
X93779960Y-36302250D01*
X94052492Y-36314812D01*
X94322238Y-36273965D01*
X94578832Y-36181277D01*
X94691863Y-36120860D01*
X94757388Y-35881993D01*
X93980000Y-35104605D01*
X93202612Y-35881993D01*
X45847000Y-35881993D01*
X45847000Y-34997492D01*
X92590188Y-34997492D01*
X92631035Y-35267238D01*
X92723723Y-35523832D01*
X92784140Y-35636863D01*
X93023007Y-35702388D01*
X93800395Y-34925000D01*
X93023007Y-34147612D01*
X92784140Y-34213137D01*
X92668240Y-34460116D01*
X92602750Y-34724960D01*
X92590188Y-34997492D01*
X45847000Y-34997492D01*
X45847000Y-33968007D01*
X93202612Y-33968007D01*
X93980000Y-34745395D01*
X94757388Y-33968007D01*
X94691863Y-33729140D01*
X94444884Y-33613240D01*
X94180040Y-33547750D01*
X93907508Y-33535188D01*
X93637762Y-33576035D01*
X93381168Y-33668723D01*
X93268137Y-33729140D01*
X93202612Y-33968007D01*
X45847000Y-33968007D01*
X45847000Y-32410000D01*
X154011716Y-32410000D01*
X153960498Y-32505820D01*
G37*
G04 #@! TD.AperFunction*
D28*
X99110790Y-41505398D02*
X99131550Y-41631588D01*
X99335826Y-41722458D01*
X99553905Y-41771731D01*
X99777406Y-41777511D01*
X99997740Y-41739577D01*
X100203000Y-41660709D01*
X100203000Y-46888400D01*
X100205440Y-46913176D01*
X100212667Y-46937001D01*
X100221928Y-46954327D01*
X100221928Y-48210000D01*
X100234188Y-48334482D01*
X100270498Y-48454180D01*
X100329463Y-48564494D01*
X100408815Y-48661185D01*
X100505506Y-48740537D01*
X100615820Y-48799502D01*
X100696466Y-48823966D01*
X100612412Y-48899731D01*
X100438359Y-49133080D01*
X100313175Y-49395901D01*
X100268524Y-49543110D01*
X100389845Y-49773000D01*
X101583000Y-49773000D01*
X101583000Y-49753000D01*
X101837000Y-49753000D01*
X101837000Y-49773000D01*
X103030155Y-49773000D01*
X103151476Y-49543110D01*
X103106825Y-49395901D01*
X102981641Y-49133080D01*
X102807588Y-48899731D01*
X102723534Y-48823966D01*
X102804180Y-48799502D01*
X102914494Y-48740537D01*
X103011185Y-48661185D01*
X103090537Y-48564494D01*
X103149502Y-48454180D01*
X103185812Y-48334482D01*
X103198072Y-48210000D01*
X103198072Y-48198200D01*
X110286800Y-48198200D01*
X110286801Y-64990343D01*
X110186067Y-64948617D01*
X109966788Y-64905000D01*
X109743212Y-64905000D01*
X109523933Y-64948617D01*
X109317376Y-65034176D01*
X109220000Y-65099241D01*
X109122624Y-65034176D01*
X108916067Y-64948617D01*
X108696788Y-64905000D01*
X108473212Y-64905000D01*
X108253933Y-64948617D01*
X108047376Y-65034176D01*
X107950000Y-65099241D01*
X107852624Y-65034176D01*
X107646067Y-64948617D01*
X107426788Y-64905000D01*
X107203212Y-64905000D01*
X106983933Y-64948617D01*
X106777376Y-65034176D01*
X106680000Y-65099241D01*
X106582624Y-65034176D01*
X106376067Y-64948617D01*
X106156788Y-64905000D01*
X105933212Y-64905000D01*
X105713933Y-64948617D01*
X105507376Y-65034176D01*
X105410000Y-65099241D01*
X105312624Y-65034176D01*
X105106067Y-64948617D01*
X104886788Y-64905000D01*
X104663212Y-64905000D01*
X104443933Y-64948617D01*
X104237376Y-65034176D01*
X104140000Y-65099241D01*
X104042624Y-65034176D01*
X103836067Y-64948617D01*
X103616788Y-64905000D01*
X103393212Y-64905000D01*
X103173933Y-64948617D01*
X102967376Y-65034176D01*
X102870000Y-65099241D01*
X102772624Y-65034176D01*
X102566067Y-64948617D01*
X102346788Y-64905000D01*
X102123212Y-64905000D01*
X101903933Y-64948617D01*
X101697376Y-65034176D01*
X101600000Y-65099241D01*
X101502624Y-65034176D01*
X101296067Y-64948617D01*
X101076788Y-64905000D01*
X100853212Y-64905000D01*
X100633933Y-64948617D01*
X100427376Y-65034176D01*
X100273070Y-65137280D01*
X100258450Y-65048412D01*
X100054174Y-64957542D01*
X99836095Y-64908269D01*
X99612594Y-64902489D01*
X99392260Y-64940423D01*
X99183560Y-65020613D01*
X99131550Y-65048412D01*
X99110790Y-65174602D01*
X99060000Y-65225392D01*
X99009210Y-65174602D01*
X98988450Y-65048412D01*
X98784174Y-64957542D01*
X98566095Y-64908269D01*
X98342594Y-64902489D01*
X98122260Y-64940423D01*
X97913560Y-65020613D01*
X97861550Y-65048412D01*
X97846930Y-65137280D01*
X97692624Y-65034176D01*
X97566344Y-64981869D01*
X97650263Y-64897950D01*
X97678375Y-64874879D01*
X97770424Y-64762717D01*
X97838822Y-64634753D01*
X97880942Y-64495903D01*
X97891600Y-64387690D01*
X97891600Y-64387681D01*
X97895163Y-64351505D01*
X97891600Y-64315329D01*
X97891600Y-52293740D01*
X100225000Y-52293740D01*
X100225000Y-52586260D01*
X100282068Y-52873158D01*
X100394010Y-53143411D01*
X100556525Y-53386632D01*
X100763368Y-53593475D01*
X100937760Y-53710000D01*
X100763368Y-53826525D01*
X100556525Y-54033368D01*
X100394010Y-54276589D01*
X100282068Y-54546842D01*
X100225000Y-54833740D01*
X100225000Y-55126260D01*
X100282068Y-55413158D01*
X100394010Y-55683411D01*
X100556525Y-55926632D01*
X100763368Y-56133475D01*
X100937760Y-56250000D01*
X100763368Y-56366525D01*
X100556525Y-56573368D01*
X100394010Y-56816589D01*
X100282068Y-57086842D01*
X100225000Y-57373740D01*
X100225000Y-57666260D01*
X100282068Y-57953158D01*
X100394010Y-58223411D01*
X100556525Y-58466632D01*
X100763368Y-58673475D01*
X100937760Y-58790000D01*
X100763368Y-58906525D01*
X100556525Y-59113368D01*
X100394010Y-59356589D01*
X100282068Y-59626842D01*
X100225000Y-59913740D01*
X100225000Y-60206260D01*
X100282068Y-60493158D01*
X100394010Y-60763411D01*
X100556525Y-61006632D01*
X100763368Y-61213475D01*
X101006589Y-61375990D01*
X101276842Y-61487932D01*
X101563740Y-61545000D01*
X101856260Y-61545000D01*
X102143158Y-61487932D01*
X102413411Y-61375990D01*
X102656632Y-61213475D01*
X102863475Y-61006632D01*
X103025990Y-60763411D01*
X103137932Y-60493158D01*
X103195000Y-60206260D01*
X103195000Y-59913740D01*
X103137932Y-59626842D01*
X103025990Y-59356589D01*
X102863475Y-59113368D01*
X102656632Y-58906525D01*
X102482240Y-58790000D01*
X102656632Y-58673475D01*
X102863475Y-58466632D01*
X103025990Y-58223411D01*
X103137932Y-57953158D01*
X103195000Y-57666260D01*
X103195000Y-57373740D01*
X103137932Y-57086842D01*
X103025990Y-56816589D01*
X102863475Y-56573368D01*
X102656632Y-56366525D01*
X102482240Y-56250000D01*
X102656632Y-56133475D01*
X102863475Y-55926632D01*
X103025990Y-55683411D01*
X103137932Y-55413158D01*
X103195000Y-55126260D01*
X103195000Y-54833740D01*
X103137932Y-54546842D01*
X103025990Y-54276589D01*
X102863475Y-54033368D01*
X102656632Y-53826525D01*
X102482240Y-53710000D01*
X102656632Y-53593475D01*
X102863475Y-53386632D01*
X103025990Y-53143411D01*
X103137932Y-52873158D01*
X103195000Y-52586260D01*
X103195000Y-52293740D01*
X103137932Y-52006842D01*
X103025990Y-51736589D01*
X102863475Y-51493368D01*
X102656632Y-51286525D01*
X102474466Y-51164805D01*
X102591355Y-51095178D01*
X102807588Y-50900269D01*
X102981641Y-50666920D01*
X103106825Y-50404099D01*
X103151476Y-50256890D01*
X103030155Y-50027000D01*
X101837000Y-50027000D01*
X101837000Y-50047000D01*
X101583000Y-50047000D01*
X101583000Y-50027000D01*
X100389845Y-50027000D01*
X100268524Y-50256890D01*
X100313175Y-50404099D01*
X100438359Y-50666920D01*
X100612412Y-50900269D01*
X100828645Y-51095178D01*
X100945534Y-51164805D01*
X100763368Y-51286525D01*
X100556525Y-51493368D01*
X100394010Y-51736589D01*
X100282068Y-52006842D01*
X100225000Y-52293740D01*
X97891600Y-52293740D01*
X97891600Y-41644955D01*
X98065826Y-41722458D01*
X98283905Y-41771731D01*
X98507406Y-41777511D01*
X98727740Y-41739577D01*
X98936440Y-41659387D01*
X98988450Y-41631588D01*
X99009210Y-41505398D01*
X99060000Y-41454608D01*
X99110790Y-41505398D01*
G04 #@! TA.AperFunction,Conductor*
D29*
G36*
X99110790Y-41505398D02*
G01*
X99131550Y-41631588D01*
X99335826Y-41722458D01*
X99553905Y-41771731D01*
X99777406Y-41777511D01*
X99997740Y-41739577D01*
X100203000Y-41660709D01*
X100203000Y-46888400D01*
X100205440Y-46913176D01*
X100212667Y-46937001D01*
X100221928Y-46954327D01*
X100221928Y-48210000D01*
X100234188Y-48334482D01*
X100270498Y-48454180D01*
X100329463Y-48564494D01*
X100408815Y-48661185D01*
X100505506Y-48740537D01*
X100615820Y-48799502D01*
X100696466Y-48823966D01*
X100612412Y-48899731D01*
X100438359Y-49133080D01*
X100313175Y-49395901D01*
X100268524Y-49543110D01*
X100389845Y-49773000D01*
X101583000Y-49773000D01*
X101583000Y-49753000D01*
X101837000Y-49753000D01*
X101837000Y-49773000D01*
X103030155Y-49773000D01*
X103151476Y-49543110D01*
X103106825Y-49395901D01*
X102981641Y-49133080D01*
X102807588Y-48899731D01*
X102723534Y-48823966D01*
X102804180Y-48799502D01*
X102914494Y-48740537D01*
X103011185Y-48661185D01*
X103090537Y-48564494D01*
X103149502Y-48454180D01*
X103185812Y-48334482D01*
X103198072Y-48210000D01*
X103198072Y-48198200D01*
X110286800Y-48198200D01*
X110286801Y-64990343D01*
X110186067Y-64948617D01*
X109966788Y-64905000D01*
X109743212Y-64905000D01*
X109523933Y-64948617D01*
X109317376Y-65034176D01*
X109220000Y-65099241D01*
X109122624Y-65034176D01*
X108916067Y-64948617D01*
X108696788Y-64905000D01*
X108473212Y-64905000D01*
X108253933Y-64948617D01*
X108047376Y-65034176D01*
X107950000Y-65099241D01*
X107852624Y-65034176D01*
X107646067Y-64948617D01*
X107426788Y-64905000D01*
X107203212Y-64905000D01*
X106983933Y-64948617D01*
X106777376Y-65034176D01*
X106680000Y-65099241D01*
X106582624Y-65034176D01*
X106376067Y-64948617D01*
X106156788Y-64905000D01*
X105933212Y-64905000D01*
X105713933Y-64948617D01*
X105507376Y-65034176D01*
X105410000Y-65099241D01*
X105312624Y-65034176D01*
X105106067Y-64948617D01*
X104886788Y-64905000D01*
X104663212Y-64905000D01*
X104443933Y-64948617D01*
X104237376Y-65034176D01*
X104140000Y-65099241D01*
X104042624Y-65034176D01*
X103836067Y-64948617D01*
X103616788Y-64905000D01*
X103393212Y-64905000D01*
X103173933Y-64948617D01*
X102967376Y-65034176D01*
X102870000Y-65099241D01*
X102772624Y-65034176D01*
X102566067Y-64948617D01*
X102346788Y-64905000D01*
X102123212Y-64905000D01*
X101903933Y-64948617D01*
X101697376Y-65034176D01*
X101600000Y-65099241D01*
X101502624Y-65034176D01*
X101296067Y-64948617D01*
X101076788Y-64905000D01*
X100853212Y-64905000D01*
X100633933Y-64948617D01*
X100427376Y-65034176D01*
X100273070Y-65137280D01*
X100258450Y-65048412D01*
X100054174Y-64957542D01*
X99836095Y-64908269D01*
X99612594Y-64902489D01*
X99392260Y-64940423D01*
X99183560Y-65020613D01*
X99131550Y-65048412D01*
X99110790Y-65174602D01*
X99060000Y-65225392D01*
X99009210Y-65174602D01*
X98988450Y-65048412D01*
X98784174Y-64957542D01*
X98566095Y-64908269D01*
X98342594Y-64902489D01*
X98122260Y-64940423D01*
X97913560Y-65020613D01*
X97861550Y-65048412D01*
X97846930Y-65137280D01*
X97692624Y-65034176D01*
X97566344Y-64981869D01*
X97650263Y-64897950D01*
X97678375Y-64874879D01*
X97770424Y-64762717D01*
X97838822Y-64634753D01*
X97880942Y-64495903D01*
X97891600Y-64387690D01*
X97891600Y-64387681D01*
X97895163Y-64351505D01*
X97891600Y-64315329D01*
X97891600Y-52293740D01*
X100225000Y-52293740D01*
X100225000Y-52586260D01*
X100282068Y-52873158D01*
X100394010Y-53143411D01*
X100556525Y-53386632D01*
X100763368Y-53593475D01*
X100937760Y-53710000D01*
X100763368Y-53826525D01*
X100556525Y-54033368D01*
X100394010Y-54276589D01*
X100282068Y-54546842D01*
X100225000Y-54833740D01*
X100225000Y-55126260D01*
X100282068Y-55413158D01*
X100394010Y-55683411D01*
X100556525Y-55926632D01*
X100763368Y-56133475D01*
X100937760Y-56250000D01*
X100763368Y-56366525D01*
X100556525Y-56573368D01*
X100394010Y-56816589D01*
X100282068Y-57086842D01*
X100225000Y-57373740D01*
X100225000Y-57666260D01*
X100282068Y-57953158D01*
X100394010Y-58223411D01*
X100556525Y-58466632D01*
X100763368Y-58673475D01*
X100937760Y-58790000D01*
X100763368Y-58906525D01*
X100556525Y-59113368D01*
X100394010Y-59356589D01*
X100282068Y-59626842D01*
X100225000Y-59913740D01*
X100225000Y-60206260D01*
X100282068Y-60493158D01*
X100394010Y-60763411D01*
X100556525Y-61006632D01*
X100763368Y-61213475D01*
X101006589Y-61375990D01*
X101276842Y-61487932D01*
X101563740Y-61545000D01*
X101856260Y-61545000D01*
X102143158Y-61487932D01*
X102413411Y-61375990D01*
X102656632Y-61213475D01*
X102863475Y-61006632D01*
X103025990Y-60763411D01*
X103137932Y-60493158D01*
X103195000Y-60206260D01*
X103195000Y-59913740D01*
X103137932Y-59626842D01*
X103025990Y-59356589D01*
X102863475Y-59113368D01*
X102656632Y-58906525D01*
X102482240Y-58790000D01*
X102656632Y-58673475D01*
X102863475Y-58466632D01*
X103025990Y-58223411D01*
X103137932Y-57953158D01*
X103195000Y-57666260D01*
X103195000Y-57373740D01*
X103137932Y-57086842D01*
X103025990Y-56816589D01*
X102863475Y-56573368D01*
X102656632Y-56366525D01*
X102482240Y-56250000D01*
X102656632Y-56133475D01*
X102863475Y-55926632D01*
X103025990Y-55683411D01*
X103137932Y-55413158D01*
X103195000Y-55126260D01*
X103195000Y-54833740D01*
X103137932Y-54546842D01*
X103025990Y-54276589D01*
X102863475Y-54033368D01*
X102656632Y-53826525D01*
X102482240Y-53710000D01*
X102656632Y-53593475D01*
X102863475Y-53386632D01*
X103025990Y-53143411D01*
X103137932Y-52873158D01*
X103195000Y-52586260D01*
X103195000Y-52293740D01*
X103137932Y-52006842D01*
X103025990Y-51736589D01*
X102863475Y-51493368D01*
X102656632Y-51286525D01*
X102474466Y-51164805D01*
X102591355Y-51095178D01*
X102807588Y-50900269D01*
X102981641Y-50666920D01*
X103106825Y-50404099D01*
X103151476Y-50256890D01*
X103030155Y-50027000D01*
X101837000Y-50027000D01*
X101837000Y-50047000D01*
X101583000Y-50047000D01*
X101583000Y-50027000D01*
X100389845Y-50027000D01*
X100268524Y-50256890D01*
X100313175Y-50404099D01*
X100438359Y-50666920D01*
X100612412Y-50900269D01*
X100828645Y-51095178D01*
X100945534Y-51164805D01*
X100763368Y-51286525D01*
X100556525Y-51493368D01*
X100394010Y-51736589D01*
X100282068Y-52006842D01*
X100225000Y-52293740D01*
X97891600Y-52293740D01*
X97891600Y-41644955D01*
X98065826Y-41722458D01*
X98283905Y-41771731D01*
X98507406Y-41777511D01*
X98727740Y-41739577D01*
X98936440Y-41659387D01*
X98988450Y-41631588D01*
X99009210Y-41505398D01*
X99060000Y-41454608D01*
X99110790Y-41505398D01*
G37*
G04 #@! TD.AperFunction*
D28*
X112530000Y-40567110D02*
X112530000Y-40712890D01*
X112409143Y-40833748D01*
X112395000Y-40819605D01*
X112380858Y-40833748D01*
X112260000Y-40712890D01*
X112260000Y-40567110D01*
X112380858Y-40446253D01*
X112395000Y-40460395D01*
X112409143Y-40446253D01*
X112530000Y-40567110D01*
G04 #@! TA.AperFunction,Conductor*
D29*
G36*
X112530000Y-40567110D02*
G01*
X112530000Y-40712890D01*
X112409143Y-40833748D01*
X112395000Y-40819605D01*
X112380858Y-40833748D01*
X112260000Y-40712890D01*
X112260000Y-40567110D01*
X112380858Y-40446253D01*
X112395000Y-40460395D01*
X112409143Y-40446253D01*
X112530000Y-40567110D01*
G37*
G04 #@! TD.AperFunction*
D28*
X123961467Y-40568577D02*
X123957675Y-40715215D01*
X123839143Y-40833748D01*
X123825000Y-40819605D01*
X123810858Y-40833748D01*
X123690000Y-40712890D01*
X123690000Y-40567110D01*
X123810858Y-40446253D01*
X123825000Y-40460395D01*
X123839143Y-40446253D01*
X123961467Y-40568577D01*
G04 #@! TA.AperFunction,Conductor*
D29*
G36*
X123961467Y-40568577D02*
G01*
X123957675Y-40715215D01*
X123839143Y-40833748D01*
X123825000Y-40819605D01*
X123810858Y-40833748D01*
X123690000Y-40712890D01*
X123690000Y-40567110D01*
X123810858Y-40446253D01*
X123825000Y-40460395D01*
X123839143Y-40446253D01*
X123961467Y-40568577D01*
G37*
G04 #@! TD.AperFunction*
D28*
X125230000Y-40567110D02*
X125230000Y-40712890D01*
X125109143Y-40833748D01*
X125095000Y-40819605D01*
X125080858Y-40833748D01*
X124958533Y-40711423D01*
X124962325Y-40564785D01*
X125080858Y-40446253D01*
X125095000Y-40460395D01*
X125109143Y-40446253D01*
X125230000Y-40567110D01*
G04 #@! TA.AperFunction,Conductor*
D29*
G36*
X125230000Y-40567110D02*
G01*
X125230000Y-40712890D01*
X125109143Y-40833748D01*
X125095000Y-40819605D01*
X125080858Y-40833748D01*
X124958533Y-40711423D01*
X124962325Y-40564785D01*
X125080858Y-40446253D01*
X125095000Y-40460395D01*
X125109143Y-40446253D01*
X125230000Y-40567110D01*
G37*
G04 #@! TD.AperFunction*
M02*
