M48
; DRILL file {KiCad (5.1.8)-1} date 01/01/21 13:06:26
; FORMAT={-:-/ absolute / metric / decimal}
; #@! TF.CreationDate,2021-01-01T13:06:26+09:00
; #@! TF.GenerationSoftware,Kicad,Pcbnew,(5.1.8)-1
FMAT,2
METRIC
T1C0.635
T2C0.650
T3C0.700
T4C0.750
T5C0.800
T6C0.850
T7C0.900
T8C1.000
T9C3.200
T10C3.200
%
G90
G05
T1
X43.942Y-126.873
X44.323Y-89.027
X44.323Y-114.173
X44.45Y-75.184
X44.45Y-101.346
X59.69Y-84.201
X61.595Y-128.905
X67.691Y-83.947
X70.485Y-128.905
X74.371Y-45.39
X75.692Y-83.566
X76.352Y-47.092
X78.74Y-42.545
X79.375Y-53.975
X79.375Y-56.515
X79.375Y-128.905
X83.82Y-83.439
X84.455Y-128.905
X86.36Y-37.592
X92.583Y-83.82
X93.98Y-38.735
X102.235Y-83.947
X103.505Y-128.905
X109.728Y-64.364
X109.728Y-83.947
X109.779Y-48.717
X112.395Y-128.905
X117.983Y-83.566
X121.285Y-128.905
X126.365Y-128.905
X130.683Y-90.932
X130.683Y-99.949
X130.937Y-79.629
X130.937Y-110.109
X139.065Y-128.905
X139.446Y-52.578
X148.59Y-128.905
X151.13Y-58.42
X151.765Y-112.268
X155.575Y-53.34
X155.575Y-66.04
X156.845Y-128.905
X161.925Y-58.42
X161.925Y-128.905
X163.195Y-100.838
X163.449Y-76.073
X163.449Y-89.154
X163.703Y-66.04
X164.01Y-51.63
T2
X88.265Y-40.64
X88.265Y-66.04
X89.535Y-40.64
X89.535Y-66.04
X90.805Y-40.64
X90.805Y-66.04
X92.075Y-40.64
X92.075Y-66.04
X93.345Y-40.64
X93.345Y-66.04
X94.615Y-40.64
X94.615Y-66.04
X95.885Y-40.64
X95.885Y-66.04
X97.155Y-40.64
X97.155Y-66.04
X98.425Y-40.64
X98.425Y-66.04
X99.695Y-40.64
X99.695Y-66.04
X100.965Y-40.64
X100.965Y-66.04
X102.235Y-40.64
X102.235Y-66.04
X103.505Y-40.64
X103.505Y-66.04
X104.775Y-40.64
X104.775Y-66.04
X106.045Y-40.64
X106.045Y-66.04
X107.315Y-40.64
X107.315Y-66.04
X108.585Y-40.64
X108.585Y-66.04
X109.855Y-40.64
X109.855Y-66.04
X111.125Y-40.64
X111.125Y-66.04
X112.395Y-40.64
X112.395Y-66.04
X113.665Y-40.64
X113.665Y-66.04
X114.935Y-40.64
X114.935Y-66.04
X116.205Y-40.64
X116.205Y-66.04
X117.475Y-40.64
X117.475Y-66.04
X118.745Y-40.64
X118.745Y-66.04
X120.015Y-40.64
X120.015Y-66.04
X121.285Y-40.64
X121.285Y-66.04
X122.555Y-40.64
X122.555Y-66.04
X123.825Y-40.64
X123.825Y-66.04
X125.095Y-40.64
X125.095Y-66.04
X126.365Y-40.64
X126.365Y-66.04
X127.635Y-40.64
X127.635Y-66.04
X128.905Y-40.64
X128.905Y-66.04
X130.175Y-40.64
X130.175Y-66.04
X131.445Y-40.64
X131.445Y-66.04
X132.715Y-40.64
X132.715Y-66.04
X133.985Y-40.64
X133.985Y-66.04
X135.255Y-40.64
X135.255Y-66.04
X136.525Y-40.64
X136.525Y-66.04
X137.795Y-40.64
X137.795Y-66.04
T3
X109.22Y-34.925
X116.84Y-34.925
X101.6Y-34.925
X104.14Y-34.925
X93.98Y-34.925
X106.68Y-34.925
X99.06Y-34.925
X96.52Y-34.925
X114.3Y-34.925
X111.76Y-34.925
T4
X86.36Y-135.89
X86.36Y-140.97
X101.6Y-135.89
X101.6Y-140.97
X163.83Y-135.89
X163.83Y-140.97
X77.47Y-135.89
X77.47Y-140.97
X154.94Y-135.89
X154.94Y-140.97
X68.58Y-135.89
X68.58Y-140.97
X119.38Y-135.89
X119.38Y-140.97
X59.69Y-135.89
X59.69Y-140.97
X146.05Y-135.89
X146.05Y-140.97
X110.49Y-135.89
X110.49Y-140.97
X137.16Y-135.89
X137.16Y-140.97
X128.27Y-135.89
X128.27Y-140.97
T5
X48.895Y-48.895
X48.895Y-51.435
X48.895Y-53.975
X48.895Y-56.515
X48.895Y-59.055
X48.895Y-61.595
X51.435Y-48.895
X51.435Y-51.435
X51.435Y-53.975
X51.435Y-56.515
X51.435Y-59.055
X51.435Y-61.595
T6
X108.585Y-92.71
X108.585Y-107.95
X111.125Y-92.71
X111.125Y-107.95
X113.665Y-92.71
X113.665Y-107.95
X116.205Y-92.71
X116.205Y-107.95
X118.745Y-92.71
X118.745Y-107.95
X59.055Y-92.71
X59.055Y-107.95
X61.595Y-92.71
X61.595Y-107.95
X64.135Y-92.71
X64.135Y-107.95
X66.675Y-92.71
X66.675Y-107.95
X69.215Y-92.71
X69.215Y-107.95
X75.565Y-92.71
X75.565Y-107.95
X78.105Y-92.71
X78.105Y-107.95
X80.645Y-92.71
X80.645Y-107.95
X83.185Y-92.71
X83.185Y-107.95
X85.725Y-92.71
X85.725Y-107.95
X92.075Y-92.71
X92.075Y-107.95
X94.615Y-92.71
X94.615Y-107.95
X97.155Y-92.71
X97.155Y-107.95
X99.695Y-92.71
X99.695Y-107.95
X102.235Y-92.71
X102.235Y-107.95
T7
X157.8Y-37.0
X162.2Y-37.0
T8
X81.915Y-52.705
X70.485Y-57.785
X88.62Y-47.34
X88.62Y-49.88
X88.62Y-52.42
X88.62Y-54.96
X88.62Y-57.5
X88.62Y-60.04
X70.485Y-52.705
X101.71Y-47.36
X101.71Y-49.9
X101.71Y-52.44
X101.71Y-54.98
X101.71Y-57.52
X101.71Y-60.06
X81.915Y-57.785
T9
X50.165Y-42.545
T10
X173.99Y-35.56
X173.99Y-148.59
X41.91Y-148.59
X41.91Y-35.56
T0
M30
