G04 #@! TF.GenerationSoftware,KiCad,Pcbnew,(5.1.8)-1*
G04 #@! TF.CreationDate,2021-01-01T13:05:33+09:00*
G04 #@! TF.ProjectId,mifune_TE0890_local_board,6d696675-6e65-45f5-9445-303839305f6c,0.1*
G04 #@! TF.SameCoordinates,Original*
G04 #@! TF.FileFunction,Paste,Top*
G04 #@! TF.FilePolarity,Positive*
%FSLAX46Y46*%
G04 Gerber Fmt 4.6, Leading zero omitted, Abs format (unit mm)*
G04 Created by KiCad (PCBNEW (5.1.8)-1) date 2021-01-01 13:05:33*
%MOMM*%
%LPD*%
G01*
G04 APERTURE LIST*
%ADD10R,0.700000X1.000000*%
%ADD11R,0.700000X0.600000*%
%ADD12R,0.500000X2.300000*%
%ADD13R,2.000000X2.500000*%
%ADD14R,0.365000X0.613000*%
%ADD15R,0.250000X0.613000*%
G04 APERTURE END LIST*
G36*
G01*
X75115000Y-42070000D02*
X75115000Y-43020000D01*
G75*
G02*
X74865000Y-43270000I-250000J0D01*
G01*
X74190000Y-43270000D01*
G75*
G02*
X73940000Y-43020000I0J250000D01*
G01*
X73940000Y-42070000D01*
G75*
G02*
X74190000Y-41820000I250000J0D01*
G01*
X74865000Y-41820000D01*
G75*
G02*
X75115000Y-42070000I0J-250000D01*
G01*
G37*
G36*
G01*
X77190000Y-42070000D02*
X77190000Y-43020000D01*
G75*
G02*
X76940000Y-43270000I-250000J0D01*
G01*
X76265000Y-43270000D01*
G75*
G02*
X76015000Y-43020000I0J250000D01*
G01*
X76015000Y-42070000D01*
G75*
G02*
X76265000Y-41820000I250000J0D01*
G01*
X76940000Y-41820000D01*
G75*
G02*
X77190000Y-42070000I0J-250000D01*
G01*
G37*
G36*
G01*
X69250000Y-42995001D02*
X69250000Y-42094999D01*
G75*
G02*
X69499999Y-41845000I249999J0D01*
G01*
X70200001Y-41845000D01*
G75*
G02*
X70450000Y-42094999I0J-249999D01*
G01*
X70450000Y-42995001D01*
G75*
G02*
X70200001Y-43245000I-249999J0D01*
G01*
X69499999Y-43245000D01*
G75*
G02*
X69250000Y-42995001I0J249999D01*
G01*
G37*
G36*
G01*
X71250000Y-42995001D02*
X71250000Y-42094999D01*
G75*
G02*
X71499999Y-41845000I249999J0D01*
G01*
X72200001Y-41845000D01*
G75*
G02*
X72450000Y-42094999I0J-249999D01*
G01*
X72450000Y-42995001D01*
G75*
G02*
X72200001Y-43245000I-249999J0D01*
G01*
X71499999Y-43245000D01*
G75*
G02*
X71250000Y-42995001I0J249999D01*
G01*
G37*
G36*
G01*
X151270000Y-42002500D02*
X152220000Y-42002500D01*
G75*
G02*
X152470000Y-42252500I0J-250000D01*
G01*
X152470000Y-42927500D01*
G75*
G02*
X152220000Y-43177500I-250000J0D01*
G01*
X151270000Y-43177500D01*
G75*
G02*
X151020000Y-42927500I0J250000D01*
G01*
X151020000Y-42252500D01*
G75*
G02*
X151270000Y-42002500I250000J0D01*
G01*
G37*
G36*
G01*
X151270000Y-44077500D02*
X152220000Y-44077500D01*
G75*
G02*
X152470000Y-44327500I0J-250000D01*
G01*
X152470000Y-45002500D01*
G75*
G02*
X152220000Y-45252500I-250000J0D01*
G01*
X151270000Y-45252500D01*
G75*
G02*
X151020000Y-45002500I0J250000D01*
G01*
X151020000Y-44327500D01*
G75*
G02*
X151270000Y-44077500I250000J0D01*
G01*
G37*
G36*
G01*
X173457500Y-51175000D02*
X173457500Y-52125000D01*
G75*
G02*
X173207500Y-52375000I-250000J0D01*
G01*
X172532500Y-52375000D01*
G75*
G02*
X172282500Y-52125000I0J250000D01*
G01*
X172282500Y-51175000D01*
G75*
G02*
X172532500Y-50925000I250000J0D01*
G01*
X173207500Y-50925000D01*
G75*
G02*
X173457500Y-51175000I0J-250000D01*
G01*
G37*
G36*
G01*
X171382500Y-51175000D02*
X171382500Y-52125000D01*
G75*
G02*
X171132500Y-52375000I-250000J0D01*
G01*
X170457500Y-52375000D01*
G75*
G02*
X170207500Y-52125000I0J250000D01*
G01*
X170207500Y-51175000D01*
G75*
G02*
X170457500Y-50925000I250000J0D01*
G01*
X171132500Y-50925000D01*
G75*
G02*
X171382500Y-51175000I0J-250000D01*
G01*
G37*
D10*
X158950000Y-49950000D03*
D11*
X158950000Y-51650000D03*
X160950000Y-51650000D03*
X160950000Y-49750000D03*
G36*
G01*
X60165000Y-127036500D02*
X59215000Y-127036500D01*
G75*
G02*
X58965000Y-126786500I0J250000D01*
G01*
X58965000Y-126111500D01*
G75*
G02*
X59215000Y-125861500I250000J0D01*
G01*
X60165000Y-125861500D01*
G75*
G02*
X60415000Y-126111500I0J-250000D01*
G01*
X60415000Y-126786500D01*
G75*
G02*
X60165000Y-127036500I-250000J0D01*
G01*
G37*
G36*
G01*
X60165000Y-129111500D02*
X59215000Y-129111500D01*
G75*
G02*
X58965000Y-128861500I0J250000D01*
G01*
X58965000Y-128186500D01*
G75*
G02*
X59215000Y-127936500I250000J0D01*
G01*
X60165000Y-127936500D01*
G75*
G02*
X60415000Y-128186500I0J-250000D01*
G01*
X60415000Y-128861500D01*
G75*
G02*
X60165000Y-129111500I-250000J0D01*
G01*
G37*
G36*
G01*
X69055000Y-129111500D02*
X68105000Y-129111500D01*
G75*
G02*
X67855000Y-128861500I0J250000D01*
G01*
X67855000Y-128186500D01*
G75*
G02*
X68105000Y-127936500I250000J0D01*
G01*
X69055000Y-127936500D01*
G75*
G02*
X69305000Y-128186500I0J-250000D01*
G01*
X69305000Y-128861500D01*
G75*
G02*
X69055000Y-129111500I-250000J0D01*
G01*
G37*
G36*
G01*
X69055000Y-127036500D02*
X68105000Y-127036500D01*
G75*
G02*
X67855000Y-126786500I0J250000D01*
G01*
X67855000Y-126111500D01*
G75*
G02*
X68105000Y-125861500I250000J0D01*
G01*
X69055000Y-125861500D01*
G75*
G02*
X69305000Y-126111500I0J-250000D01*
G01*
X69305000Y-126786500D01*
G75*
G02*
X69055000Y-127036500I-250000J0D01*
G01*
G37*
G36*
G01*
X77945000Y-127058000D02*
X76995000Y-127058000D01*
G75*
G02*
X76745000Y-126808000I0J250000D01*
G01*
X76745000Y-126133000D01*
G75*
G02*
X76995000Y-125883000I250000J0D01*
G01*
X77945000Y-125883000D01*
G75*
G02*
X78195000Y-126133000I0J-250000D01*
G01*
X78195000Y-126808000D01*
G75*
G02*
X77945000Y-127058000I-250000J0D01*
G01*
G37*
G36*
G01*
X77945000Y-129133000D02*
X76995000Y-129133000D01*
G75*
G02*
X76745000Y-128883000I0J250000D01*
G01*
X76745000Y-128208000D01*
G75*
G02*
X76995000Y-127958000I250000J0D01*
G01*
X77945000Y-127958000D01*
G75*
G02*
X78195000Y-128208000I0J-250000D01*
G01*
X78195000Y-128883000D01*
G75*
G02*
X77945000Y-129133000I-250000J0D01*
G01*
G37*
G36*
G01*
X86835000Y-129133000D02*
X85885000Y-129133000D01*
G75*
G02*
X85635000Y-128883000I0J250000D01*
G01*
X85635000Y-128208000D01*
G75*
G02*
X85885000Y-127958000I250000J0D01*
G01*
X86835000Y-127958000D01*
G75*
G02*
X87085000Y-128208000I0J-250000D01*
G01*
X87085000Y-128883000D01*
G75*
G02*
X86835000Y-129133000I-250000J0D01*
G01*
G37*
G36*
G01*
X86835000Y-127058000D02*
X85885000Y-127058000D01*
G75*
G02*
X85635000Y-126808000I0J250000D01*
G01*
X85635000Y-126133000D01*
G75*
G02*
X85885000Y-125883000I250000J0D01*
G01*
X86835000Y-125883000D01*
G75*
G02*
X87085000Y-126133000I0J-250000D01*
G01*
X87085000Y-126808000D01*
G75*
G02*
X86835000Y-127058000I-250000J0D01*
G01*
G37*
G36*
G01*
X102075000Y-127036500D02*
X101125000Y-127036500D01*
G75*
G02*
X100875000Y-126786500I0J250000D01*
G01*
X100875000Y-126111500D01*
G75*
G02*
X101125000Y-125861500I250000J0D01*
G01*
X102075000Y-125861500D01*
G75*
G02*
X102325000Y-126111500I0J-250000D01*
G01*
X102325000Y-126786500D01*
G75*
G02*
X102075000Y-127036500I-250000J0D01*
G01*
G37*
G36*
G01*
X102075000Y-129111500D02*
X101125000Y-129111500D01*
G75*
G02*
X100875000Y-128861500I0J250000D01*
G01*
X100875000Y-128186500D01*
G75*
G02*
X101125000Y-127936500I250000J0D01*
G01*
X102075000Y-127936500D01*
G75*
G02*
X102325000Y-128186500I0J-250000D01*
G01*
X102325000Y-128861500D01*
G75*
G02*
X102075000Y-129111500I-250000J0D01*
G01*
G37*
G36*
G01*
X110965000Y-129133000D02*
X110015000Y-129133000D01*
G75*
G02*
X109765000Y-128883000I0J250000D01*
G01*
X109765000Y-128208000D01*
G75*
G02*
X110015000Y-127958000I250000J0D01*
G01*
X110965000Y-127958000D01*
G75*
G02*
X111215000Y-128208000I0J-250000D01*
G01*
X111215000Y-128883000D01*
G75*
G02*
X110965000Y-129133000I-250000J0D01*
G01*
G37*
G36*
G01*
X110965000Y-127058000D02*
X110015000Y-127058000D01*
G75*
G02*
X109765000Y-126808000I0J250000D01*
G01*
X109765000Y-126133000D01*
G75*
G02*
X110015000Y-125883000I250000J0D01*
G01*
X110965000Y-125883000D01*
G75*
G02*
X111215000Y-126133000I0J-250000D01*
G01*
X111215000Y-126808000D01*
G75*
G02*
X110965000Y-127058000I-250000J0D01*
G01*
G37*
G36*
G01*
X119855000Y-127036500D02*
X118905000Y-127036500D01*
G75*
G02*
X118655000Y-126786500I0J250000D01*
G01*
X118655000Y-126111500D01*
G75*
G02*
X118905000Y-125861500I250000J0D01*
G01*
X119855000Y-125861500D01*
G75*
G02*
X120105000Y-126111500I0J-250000D01*
G01*
X120105000Y-126786500D01*
G75*
G02*
X119855000Y-127036500I-250000J0D01*
G01*
G37*
G36*
G01*
X119855000Y-129111500D02*
X118905000Y-129111500D01*
G75*
G02*
X118655000Y-128861500I0J250000D01*
G01*
X118655000Y-128186500D01*
G75*
G02*
X118905000Y-127936500I250000J0D01*
G01*
X119855000Y-127936500D01*
G75*
G02*
X120105000Y-128186500I0J-250000D01*
G01*
X120105000Y-128861500D01*
G75*
G02*
X119855000Y-129111500I-250000J0D01*
G01*
G37*
G36*
G01*
X128745000Y-129133000D02*
X127795000Y-129133000D01*
G75*
G02*
X127545000Y-128883000I0J250000D01*
G01*
X127545000Y-128208000D01*
G75*
G02*
X127795000Y-127958000I250000J0D01*
G01*
X128745000Y-127958000D01*
G75*
G02*
X128995000Y-128208000I0J-250000D01*
G01*
X128995000Y-128883000D01*
G75*
G02*
X128745000Y-129133000I-250000J0D01*
G01*
G37*
G36*
G01*
X128745000Y-127058000D02*
X127795000Y-127058000D01*
G75*
G02*
X127545000Y-126808000I0J250000D01*
G01*
X127545000Y-126133000D01*
G75*
G02*
X127795000Y-125883000I250000J0D01*
G01*
X128745000Y-125883000D01*
G75*
G02*
X128995000Y-126133000I0J-250000D01*
G01*
X128995000Y-126808000D01*
G75*
G02*
X128745000Y-127058000I-250000J0D01*
G01*
G37*
G36*
G01*
X137635000Y-127058000D02*
X136685000Y-127058000D01*
G75*
G02*
X136435000Y-126808000I0J250000D01*
G01*
X136435000Y-126133000D01*
G75*
G02*
X136685000Y-125883000I250000J0D01*
G01*
X137635000Y-125883000D01*
G75*
G02*
X137885000Y-126133000I0J-250000D01*
G01*
X137885000Y-126808000D01*
G75*
G02*
X137635000Y-127058000I-250000J0D01*
G01*
G37*
G36*
G01*
X137635000Y-129133000D02*
X136685000Y-129133000D01*
G75*
G02*
X136435000Y-128883000I0J250000D01*
G01*
X136435000Y-128208000D01*
G75*
G02*
X136685000Y-127958000I250000J0D01*
G01*
X137635000Y-127958000D01*
G75*
G02*
X137885000Y-128208000I0J-250000D01*
G01*
X137885000Y-128883000D01*
G75*
G02*
X137635000Y-129133000I-250000J0D01*
G01*
G37*
G36*
G01*
X146757500Y-129133000D02*
X145807500Y-129133000D01*
G75*
G02*
X145557500Y-128883000I0J250000D01*
G01*
X145557500Y-128208000D01*
G75*
G02*
X145807500Y-127958000I250000J0D01*
G01*
X146757500Y-127958000D01*
G75*
G02*
X147007500Y-128208000I0J-250000D01*
G01*
X147007500Y-128883000D01*
G75*
G02*
X146757500Y-129133000I-250000J0D01*
G01*
G37*
G36*
G01*
X146757500Y-127058000D02*
X145807500Y-127058000D01*
G75*
G02*
X145557500Y-126808000I0J250000D01*
G01*
X145557500Y-126133000D01*
G75*
G02*
X145807500Y-125883000I250000J0D01*
G01*
X146757500Y-125883000D01*
G75*
G02*
X147007500Y-126133000I0J-250000D01*
G01*
X147007500Y-126808000D01*
G75*
G02*
X146757500Y-127058000I-250000J0D01*
G01*
G37*
G36*
G01*
X155415000Y-127036500D02*
X154465000Y-127036500D01*
G75*
G02*
X154215000Y-126786500I0J250000D01*
G01*
X154215000Y-126111500D01*
G75*
G02*
X154465000Y-125861500I250000J0D01*
G01*
X155415000Y-125861500D01*
G75*
G02*
X155665000Y-126111500I0J-250000D01*
G01*
X155665000Y-126786500D01*
G75*
G02*
X155415000Y-127036500I-250000J0D01*
G01*
G37*
G36*
G01*
X155415000Y-129111500D02*
X154465000Y-129111500D01*
G75*
G02*
X154215000Y-128861500I0J250000D01*
G01*
X154215000Y-128186500D01*
G75*
G02*
X154465000Y-127936500I250000J0D01*
G01*
X155415000Y-127936500D01*
G75*
G02*
X155665000Y-128186500I0J-250000D01*
G01*
X155665000Y-128861500D01*
G75*
G02*
X155415000Y-129111500I-250000J0D01*
G01*
G37*
G36*
G01*
X164305000Y-129133000D02*
X163355000Y-129133000D01*
G75*
G02*
X163105000Y-128883000I0J250000D01*
G01*
X163105000Y-128208000D01*
G75*
G02*
X163355000Y-127958000I250000J0D01*
G01*
X164305000Y-127958000D01*
G75*
G02*
X164555000Y-128208000I0J-250000D01*
G01*
X164555000Y-128883000D01*
G75*
G02*
X164305000Y-129133000I-250000J0D01*
G01*
G37*
G36*
G01*
X164305000Y-127058000D02*
X163355000Y-127058000D01*
G75*
G02*
X163105000Y-126808000I0J250000D01*
G01*
X163105000Y-126133000D01*
G75*
G02*
X163355000Y-125883000I250000J0D01*
G01*
X164305000Y-125883000D01*
G75*
G02*
X164555000Y-126133000I0J-250000D01*
G01*
X164555000Y-126808000D01*
G75*
G02*
X164305000Y-127058000I-250000J0D01*
G01*
G37*
D12*
X161600000Y-39500000D03*
X160800000Y-39500000D03*
X160000000Y-39500000D03*
X159200000Y-39500000D03*
X158400000Y-39500000D03*
D13*
X164450000Y-39500000D03*
X155550000Y-39500000D03*
X164450000Y-34000000D03*
X155550000Y-34000000D03*
G36*
G01*
X74600000Y-54425001D02*
X74600000Y-53524999D01*
G75*
G02*
X74849999Y-53275000I249999J0D01*
G01*
X75550001Y-53275000D01*
G75*
G02*
X75800000Y-53524999I0J-249999D01*
G01*
X75800000Y-54425001D01*
G75*
G02*
X75550001Y-54675000I-249999J0D01*
G01*
X74849999Y-54675000D01*
G75*
G02*
X74600000Y-54425001I0J249999D01*
G01*
G37*
G36*
G01*
X76600000Y-54425001D02*
X76600000Y-53524999D01*
G75*
G02*
X76849999Y-53275000I249999J0D01*
G01*
X77550001Y-53275000D01*
G75*
G02*
X77800000Y-53524999I0J-249999D01*
G01*
X77800000Y-54425001D01*
G75*
G02*
X77550001Y-54675000I-249999J0D01*
G01*
X76849999Y-54675000D01*
G75*
G02*
X76600000Y-54425001I0J249999D01*
G01*
G37*
G36*
G01*
X76600000Y-56965001D02*
X76600000Y-56064999D01*
G75*
G02*
X76849999Y-55815000I249999J0D01*
G01*
X77550001Y-55815000D01*
G75*
G02*
X77800000Y-56064999I0J-249999D01*
G01*
X77800000Y-56965001D01*
G75*
G02*
X77550001Y-57215000I-249999J0D01*
G01*
X76849999Y-57215000D01*
G75*
G02*
X76600000Y-56965001I0J249999D01*
G01*
G37*
G36*
G01*
X74600000Y-56965001D02*
X74600000Y-56064999D01*
G75*
G02*
X74849999Y-55815000I249999J0D01*
G01*
X75550001Y-55815000D01*
G75*
G02*
X75800000Y-56064999I0J-249999D01*
G01*
X75800000Y-56965001D01*
G75*
G02*
X75550001Y-57215000I-249999J0D01*
G01*
X74849999Y-57215000D01*
G75*
G02*
X74600000Y-56965001I0J249999D01*
G01*
G37*
G36*
G01*
X167750000Y-52100001D02*
X167750000Y-51199999D01*
G75*
G02*
X167999999Y-50950000I249999J0D01*
G01*
X168700001Y-50950000D01*
G75*
G02*
X168950000Y-51199999I0J-249999D01*
G01*
X168950000Y-52100001D01*
G75*
G02*
X168700001Y-52350000I-249999J0D01*
G01*
X167999999Y-52350000D01*
G75*
G02*
X167750000Y-52100001I0J249999D01*
G01*
G37*
G36*
G01*
X165750000Y-52100001D02*
X165750000Y-51199999D01*
G75*
G02*
X165999999Y-50950000I249999J0D01*
G01*
X166700001Y-50950000D01*
G75*
G02*
X166950000Y-51199999I0J-249999D01*
G01*
X166950000Y-52100001D01*
G75*
G02*
X166700001Y-52350000I-249999J0D01*
G01*
X165999999Y-52350000D01*
G75*
G02*
X165750000Y-52100001I0J249999D01*
G01*
G37*
G36*
G01*
X160184999Y-56225000D02*
X161085001Y-56225000D01*
G75*
G02*
X161335000Y-56474999I0J-249999D01*
G01*
X161335000Y-57175001D01*
G75*
G02*
X161085001Y-57425000I-249999J0D01*
G01*
X160184999Y-57425000D01*
G75*
G02*
X159935000Y-57175001I0J249999D01*
G01*
X159935000Y-56474999D01*
G75*
G02*
X160184999Y-56225000I249999J0D01*
G01*
G37*
G36*
G01*
X160184999Y-54225000D02*
X161085001Y-54225000D01*
G75*
G02*
X161335000Y-54474999I0J-249999D01*
G01*
X161335000Y-55175001D01*
G75*
G02*
X161085001Y-55425000I-249999J0D01*
G01*
X160184999Y-55425000D01*
G75*
G02*
X159935000Y-55175001I0J249999D01*
G01*
X159935000Y-54474999D01*
G75*
G02*
X160184999Y-54225000I249999J0D01*
G01*
G37*
G36*
G01*
X163625001Y-57425000D02*
X162724999Y-57425000D01*
G75*
G02*
X162475000Y-57175001I0J249999D01*
G01*
X162475000Y-56474999D01*
G75*
G02*
X162724999Y-56225000I249999J0D01*
G01*
X163625001Y-56225000D01*
G75*
G02*
X163875000Y-56474999I0J-249999D01*
G01*
X163875000Y-57175001D01*
G75*
G02*
X163625001Y-57425000I-249999J0D01*
G01*
G37*
G36*
G01*
X163625001Y-55425000D02*
X162724999Y-55425000D01*
G75*
G02*
X162475000Y-55175001I0J249999D01*
G01*
X162475000Y-54474999D01*
G75*
G02*
X162724999Y-54225000I249999J0D01*
G01*
X163625001Y-54225000D01*
G75*
G02*
X163875000Y-54474999I0J-249999D01*
G01*
X163875000Y-55175001D01*
G75*
G02*
X163625001Y-55425000I-249999J0D01*
G01*
G37*
G36*
G01*
X157644999Y-54225000D02*
X158545001Y-54225000D01*
G75*
G02*
X158795000Y-54474999I0J-249999D01*
G01*
X158795000Y-55175001D01*
G75*
G02*
X158545001Y-55425000I-249999J0D01*
G01*
X157644999Y-55425000D01*
G75*
G02*
X157395000Y-55175001I0J249999D01*
G01*
X157395000Y-54474999D01*
G75*
G02*
X157644999Y-54225000I249999J0D01*
G01*
G37*
G36*
G01*
X157644999Y-56225000D02*
X158545001Y-56225000D01*
G75*
G02*
X158795000Y-56474999I0J-249999D01*
G01*
X158795000Y-57175001D01*
G75*
G02*
X158545001Y-57425000I-249999J0D01*
G01*
X157644999Y-57425000D01*
G75*
G02*
X157395000Y-57175001I0J249999D01*
G01*
X157395000Y-56474999D01*
G75*
G02*
X157644999Y-56225000I249999J0D01*
G01*
G37*
D14*
X72217000Y-146141000D03*
D15*
X72775000Y-146141000D03*
X73275000Y-146141000D03*
D14*
X73833000Y-146141000D03*
X73833000Y-147229000D03*
D15*
X73275000Y-147229000D03*
X72775000Y-147229000D03*
D14*
X72217000Y-147229000D03*
X72217000Y-123099000D03*
D15*
X72775000Y-123099000D03*
X73275000Y-123099000D03*
D14*
X73833000Y-123099000D03*
X73833000Y-122011000D03*
D15*
X73275000Y-122011000D03*
X72775000Y-122011000D03*
D14*
X72217000Y-122011000D03*
X114127000Y-147229000D03*
D15*
X114685000Y-147229000D03*
X115185000Y-147229000D03*
D14*
X115743000Y-147229000D03*
X115743000Y-146141000D03*
D15*
X115185000Y-146141000D03*
X114685000Y-146141000D03*
D14*
X114127000Y-146141000D03*
X114127000Y-123099000D03*
D15*
X114685000Y-123099000D03*
X115185000Y-123099000D03*
D14*
X115743000Y-123099000D03*
X115743000Y-122011000D03*
D15*
X115185000Y-122011000D03*
X114685000Y-122011000D03*
D14*
X114127000Y-122011000D03*
X149687000Y-122011000D03*
D15*
X150245000Y-122011000D03*
X150745000Y-122011000D03*
D14*
X151303000Y-122011000D03*
X151303000Y-123099000D03*
D15*
X150745000Y-123099000D03*
X150245000Y-123099000D03*
D14*
X149687000Y-123099000D03*
X149687000Y-146141000D03*
D15*
X150245000Y-146141000D03*
X150745000Y-146141000D03*
D14*
X151303000Y-146141000D03*
X151303000Y-147229000D03*
D15*
X150745000Y-147229000D03*
X150245000Y-147229000D03*
D14*
X149687000Y-147229000D03*
X112857000Y-112486000D03*
D15*
X113415000Y-112486000D03*
X113915000Y-112486000D03*
D14*
X114473000Y-112486000D03*
X114473000Y-113574000D03*
D15*
X113915000Y-113574000D03*
X113415000Y-113574000D03*
D14*
X112857000Y-113574000D03*
X96347000Y-113574000D03*
D15*
X96905000Y-113574000D03*
X97405000Y-113574000D03*
D14*
X97963000Y-113574000D03*
X97963000Y-112486000D03*
D15*
X97405000Y-112486000D03*
X96905000Y-112486000D03*
D14*
X96347000Y-112486000D03*
X79837000Y-112486000D03*
D15*
X80395000Y-112486000D03*
X80895000Y-112486000D03*
D14*
X81453000Y-112486000D03*
X81453000Y-113574000D03*
D15*
X80895000Y-113574000D03*
X80395000Y-113574000D03*
D14*
X79837000Y-113574000D03*
X63327000Y-113574000D03*
D15*
X63885000Y-113574000D03*
X64385000Y-113574000D03*
D14*
X64943000Y-113574000D03*
X64943000Y-112486000D03*
D15*
X64385000Y-112486000D03*
X63885000Y-112486000D03*
D14*
X63327000Y-112486000D03*
X112857000Y-87086000D03*
D15*
X113415000Y-87086000D03*
X113915000Y-87086000D03*
D14*
X114473000Y-87086000D03*
X114473000Y-88174000D03*
D15*
X113915000Y-88174000D03*
X113415000Y-88174000D03*
D14*
X112857000Y-88174000D03*
X96347000Y-88174000D03*
D15*
X96905000Y-88174000D03*
X97405000Y-88174000D03*
D14*
X97963000Y-88174000D03*
X97963000Y-87086000D03*
D15*
X97405000Y-87086000D03*
X96905000Y-87086000D03*
D14*
X96347000Y-87086000D03*
X79837000Y-87086000D03*
D15*
X80395000Y-87086000D03*
X80895000Y-87086000D03*
D14*
X81453000Y-87086000D03*
X81453000Y-88174000D03*
D15*
X80895000Y-88174000D03*
X80395000Y-88174000D03*
D14*
X79837000Y-88174000D03*
X63327000Y-88174000D03*
D15*
X63885000Y-88174000D03*
X64385000Y-88174000D03*
D14*
X64943000Y-88174000D03*
X64943000Y-87086000D03*
D15*
X64385000Y-87086000D03*
X63885000Y-87086000D03*
D14*
X63327000Y-87086000D03*
M02*
