G04 #@! TF.GenerationSoftware,KiCad,Pcbnew,(5.1.8)-1*
G04 #@! TF.CreationDate,2021-03-08T00:14:45+09:00*
G04 #@! TF.ProjectId,mifune_TE0890_remote_board,6d696675-6e65-45f5-9445-303839305f72,rev?*
G04 #@! TF.SameCoordinates,Original*
G04 #@! TF.FileFunction,Soldermask,Top*
G04 #@! TF.FilePolarity,Negative*
%FSLAX46Y46*%
G04 Gerber Fmt 4.6, Leading zero omitted, Abs format (unit mm)*
G04 Created by KiCad (PCBNEW (5.1.8)-1) date 2021-03-08 00:14:45*
%MOMM*%
%LPD*%
G01*
G04 APERTURE LIST*
%ADD10R,1.475000X0.450000*%
%ADD11C,1.000000*%
%ADD12C,2.700000*%
%ADD13R,1.700000X1.700000*%
%ADD14O,1.700000X1.700000*%
%ADD15C,1.500000*%
%ADD16C,1.200000*%
%ADD17C,6.400000*%
G04 APERTURE END LIST*
D10*
G04 #@! TO.C,IC1*
X59605400Y-146640000D03*
X59605400Y-147290000D03*
X59605400Y-147940000D03*
X59605400Y-148590000D03*
X59605400Y-149240000D03*
X59605400Y-149890000D03*
X59605400Y-150540000D03*
X53729400Y-150540000D03*
X53729400Y-149890000D03*
X53729400Y-149240000D03*
X53729400Y-148590000D03*
X53729400Y-147940000D03*
X53729400Y-147290000D03*
X53729400Y-146640000D03*
G04 #@! TD*
G04 #@! TO.C,R10*
G36*
G01*
X91092401Y-176765000D02*
X90192399Y-176765000D01*
G75*
G02*
X89942400Y-176515001I0J249999D01*
G01*
X89942400Y-175814999D01*
G75*
G02*
X90192399Y-175565000I249999J0D01*
G01*
X91092401Y-175565000D01*
G75*
G02*
X91342400Y-175814999I0J-249999D01*
G01*
X91342400Y-176515001D01*
G75*
G02*
X91092401Y-176765000I-249999J0D01*
G01*
G37*
G36*
G01*
X91092401Y-178765000D02*
X90192399Y-178765000D01*
G75*
G02*
X89942400Y-178515001I0J249999D01*
G01*
X89942400Y-177814999D01*
G75*
G02*
X90192399Y-177565000I249999J0D01*
G01*
X91092401Y-177565000D01*
G75*
G02*
X91342400Y-177814999I0J-249999D01*
G01*
X91342400Y-178515001D01*
G75*
G02*
X91092401Y-178765000I-249999J0D01*
G01*
G37*
G04 #@! TD*
D11*
G04 #@! TO.C,U6*
X88953000Y-129057000D03*
X88953000Y-154457000D03*
X90223000Y-129057000D03*
X90223000Y-154457000D03*
X91493000Y-129057000D03*
X91493000Y-154457000D03*
X92763000Y-129057000D03*
X92763000Y-154457000D03*
X94033000Y-129057000D03*
X94033000Y-154457000D03*
X95303000Y-129057000D03*
X95303000Y-154457000D03*
X96573000Y-129057000D03*
X96573000Y-154457000D03*
X97843000Y-129057000D03*
X97843000Y-154457000D03*
X99113000Y-129057000D03*
X99113000Y-154457000D03*
X100383000Y-129057000D03*
X100383000Y-154457000D03*
X101653000Y-129057000D03*
X101653000Y-154457000D03*
X102923000Y-129057000D03*
X102923000Y-154457000D03*
X104193000Y-129057000D03*
X104193000Y-154457000D03*
X105463000Y-129057000D03*
X105463000Y-154457000D03*
X106733000Y-129057000D03*
X106733000Y-154457000D03*
X108003000Y-129057000D03*
X108003000Y-154457000D03*
X109273000Y-129057000D03*
X109273000Y-154457000D03*
X110543000Y-129057000D03*
X110543000Y-154457000D03*
X111813000Y-129057000D03*
X111813000Y-154457000D03*
X113083000Y-129057000D03*
X113083000Y-154457000D03*
X114353000Y-129057000D03*
X114353000Y-154457000D03*
X115623000Y-129057000D03*
X115623000Y-154457000D03*
X116893000Y-129057000D03*
X116893000Y-154457000D03*
X118163000Y-129057000D03*
X118163000Y-154457000D03*
X119433000Y-129057000D03*
X119433000Y-154457000D03*
X120703000Y-129057000D03*
X120703000Y-154457000D03*
X121973000Y-129057000D03*
X121973000Y-154457000D03*
X123243000Y-129057000D03*
X123243000Y-154457000D03*
X124513000Y-129057000D03*
X124513000Y-154457000D03*
X125783000Y-129057000D03*
X125783000Y-154457000D03*
X127053000Y-129057000D03*
X127053000Y-154457000D03*
X128323000Y-129057000D03*
X128323000Y-154457000D03*
X129593000Y-129057000D03*
X129593000Y-154457000D03*
X130863000Y-129057000D03*
X130863000Y-154457000D03*
X132133000Y-129057000D03*
X132133000Y-154457000D03*
X133403000Y-129057000D03*
X133403000Y-154457000D03*
X134673000Y-129057000D03*
X134673000Y-154457000D03*
X135943000Y-129057000D03*
X135943000Y-154457000D03*
X137213000Y-129057000D03*
X137213000Y-154457000D03*
X138483000Y-129057000D03*
X138483000Y-154457000D03*
G04 #@! TD*
G04 #@! TO.C,U3*
X138481000Y-107587800D03*
X138481000Y-82187800D03*
X137211000Y-107587800D03*
X137211000Y-82187800D03*
X135941000Y-107587800D03*
X135941000Y-82187800D03*
X134671000Y-107587800D03*
X134671000Y-82187800D03*
X133401000Y-107587800D03*
X133401000Y-82187800D03*
X132131000Y-107587800D03*
X132131000Y-82187800D03*
X130861000Y-107587800D03*
X130861000Y-82187800D03*
X129591000Y-107587800D03*
X129591000Y-82187800D03*
X128321000Y-107587800D03*
X128321000Y-82187800D03*
X127051000Y-107587800D03*
X127051000Y-82187800D03*
X125781000Y-107587800D03*
X125781000Y-82187800D03*
X124511000Y-107587800D03*
X124511000Y-82187800D03*
X123241000Y-107587800D03*
X123241000Y-82187800D03*
X121971000Y-107587800D03*
X121971000Y-82187800D03*
X120701000Y-107587800D03*
X120701000Y-82187800D03*
X119431000Y-107587800D03*
X119431000Y-82187800D03*
X118161000Y-107587800D03*
X118161000Y-82187800D03*
X116891000Y-107587800D03*
X116891000Y-82187800D03*
X115621000Y-107587800D03*
X115621000Y-82187800D03*
X114351000Y-107587800D03*
X114351000Y-82187800D03*
X113081000Y-107587800D03*
X113081000Y-82187800D03*
X111811000Y-107587800D03*
X111811000Y-82187800D03*
X110541000Y-107587800D03*
X110541000Y-82187800D03*
X109271000Y-107587800D03*
X109271000Y-82187800D03*
X108001000Y-107587800D03*
X108001000Y-82187800D03*
X106731000Y-107587800D03*
X106731000Y-82187800D03*
X105461000Y-107587800D03*
X105461000Y-82187800D03*
X104191000Y-107587800D03*
X104191000Y-82187800D03*
X102921000Y-107587800D03*
X102921000Y-82187800D03*
X101651000Y-107587800D03*
X101651000Y-82187800D03*
X100381000Y-107587800D03*
X100381000Y-82187800D03*
X99111000Y-107587800D03*
X99111000Y-82187800D03*
X97841000Y-107587800D03*
X97841000Y-82187800D03*
X96571000Y-107587800D03*
X96571000Y-82187800D03*
X95301000Y-107587800D03*
X95301000Y-82187800D03*
X94031000Y-107587800D03*
X94031000Y-82187800D03*
X92761000Y-107587800D03*
X92761000Y-82187800D03*
X91491000Y-107587800D03*
X91491000Y-82187800D03*
X90221000Y-107587800D03*
X90221000Y-82187800D03*
X88951000Y-107587800D03*
X88951000Y-82187800D03*
G04 #@! TD*
G04 #@! TO.C,C1*
G36*
G01*
X51133500Y-152560000D02*
X51133500Y-153510000D01*
G75*
G02*
X50883500Y-153760000I-250000J0D01*
G01*
X50208500Y-153760000D01*
G75*
G02*
X49958500Y-153510000I0J250000D01*
G01*
X49958500Y-152560000D01*
G75*
G02*
X50208500Y-152310000I250000J0D01*
G01*
X50883500Y-152310000D01*
G75*
G02*
X51133500Y-152560000I0J-250000D01*
G01*
G37*
G36*
G01*
X49058500Y-152560000D02*
X49058500Y-153510000D01*
G75*
G02*
X48808500Y-153760000I-250000J0D01*
G01*
X48133500Y-153760000D01*
G75*
G02*
X47883500Y-153510000I0J250000D01*
G01*
X47883500Y-152560000D01*
G75*
G02*
X48133500Y-152310000I250000J0D01*
G01*
X48808500Y-152310000D01*
G75*
G02*
X49058500Y-152560000I0J-250000D01*
G01*
G37*
G04 #@! TD*
G04 #@! TO.C,C2*
G36*
G01*
X62277500Y-159225000D02*
X62277500Y-158275000D01*
G75*
G02*
X62527500Y-158025000I250000J0D01*
G01*
X63202500Y-158025000D01*
G75*
G02*
X63452500Y-158275000I0J-250000D01*
G01*
X63452500Y-159225000D01*
G75*
G02*
X63202500Y-159475000I-250000J0D01*
G01*
X62527500Y-159475000D01*
G75*
G02*
X62277500Y-159225000I0J250000D01*
G01*
G37*
G36*
G01*
X64352500Y-159225000D02*
X64352500Y-158275000D01*
G75*
G02*
X64602500Y-158025000I250000J0D01*
G01*
X65277500Y-158025000D01*
G75*
G02*
X65527500Y-158275000I0J-250000D01*
G01*
X65527500Y-159225000D01*
G75*
G02*
X65277500Y-159475000I-250000J0D01*
G01*
X64602500Y-159475000D01*
G75*
G02*
X64352500Y-159225000I0J250000D01*
G01*
G37*
G04 #@! TD*
G04 #@! TO.C,C3*
G36*
G01*
X64276300Y-154145000D02*
X64276300Y-153195000D01*
G75*
G02*
X64526300Y-152945000I250000J0D01*
G01*
X65201300Y-152945000D01*
G75*
G02*
X65451300Y-153195000I0J-250000D01*
G01*
X65451300Y-154145000D01*
G75*
G02*
X65201300Y-154395000I-250000J0D01*
G01*
X64526300Y-154395000D01*
G75*
G02*
X64276300Y-154145000I0J250000D01*
G01*
G37*
G36*
G01*
X62201300Y-154145000D02*
X62201300Y-153195000D01*
G75*
G02*
X62451300Y-152945000I250000J0D01*
G01*
X63126300Y-152945000D01*
G75*
G02*
X63376300Y-153195000I0J-250000D01*
G01*
X63376300Y-154145000D01*
G75*
G02*
X63126300Y-154395000I-250000J0D01*
G01*
X62451300Y-154395000D01*
G75*
G02*
X62201300Y-154145000I0J250000D01*
G01*
G37*
G04 #@! TD*
G04 #@! TO.C,C4*
G36*
G01*
X64352500Y-145890000D02*
X64352500Y-144940000D01*
G75*
G02*
X64602500Y-144690000I250000J0D01*
G01*
X65277500Y-144690000D01*
G75*
G02*
X65527500Y-144940000I0J-250000D01*
G01*
X65527500Y-145890000D01*
G75*
G02*
X65277500Y-146140000I-250000J0D01*
G01*
X64602500Y-146140000D01*
G75*
G02*
X64352500Y-145890000I0J250000D01*
G01*
G37*
G36*
G01*
X62277500Y-145890000D02*
X62277500Y-144940000D01*
G75*
G02*
X62527500Y-144690000I250000J0D01*
G01*
X63202500Y-144690000D01*
G75*
G02*
X63452500Y-144940000I0J-250000D01*
G01*
X63452500Y-145890000D01*
G75*
G02*
X63202500Y-146140000I-250000J0D01*
G01*
X62527500Y-146140000D01*
G75*
G02*
X62277500Y-145890000I0J250000D01*
G01*
G37*
G04 #@! TD*
G04 #@! TO.C,C5*
G36*
G01*
X60201300Y-143822000D02*
X60201300Y-144772000D01*
G75*
G02*
X59951300Y-145022000I-250000J0D01*
G01*
X59276300Y-145022000D01*
G75*
G02*
X59026300Y-144772000I0J250000D01*
G01*
X59026300Y-143822000D01*
G75*
G02*
X59276300Y-143572000I250000J0D01*
G01*
X59951300Y-143572000D01*
G75*
G02*
X60201300Y-143822000I0J-250000D01*
G01*
G37*
G36*
G01*
X58126300Y-143822000D02*
X58126300Y-144772000D01*
G75*
G02*
X57876300Y-145022000I-250000J0D01*
G01*
X57201300Y-145022000D01*
G75*
G02*
X56951300Y-144772000I0J250000D01*
G01*
X56951300Y-143822000D01*
G75*
G02*
X57201300Y-143572000I250000J0D01*
G01*
X57876300Y-143572000D01*
G75*
G02*
X58126300Y-143822000I0J-250000D01*
G01*
G37*
G04 #@! TD*
G04 #@! TO.C,C6*
G36*
G01*
X57674000Y-157259000D02*
X57674000Y-158209000D01*
G75*
G02*
X57424000Y-158459000I-250000J0D01*
G01*
X56749000Y-158459000D01*
G75*
G02*
X56499000Y-158209000I0J250000D01*
G01*
X56499000Y-157259000D01*
G75*
G02*
X56749000Y-157009000I250000J0D01*
G01*
X57424000Y-157009000D01*
G75*
G02*
X57674000Y-157259000I0J-250000D01*
G01*
G37*
G36*
G01*
X59749000Y-157259000D02*
X59749000Y-158209000D01*
G75*
G02*
X59499000Y-158459000I-250000J0D01*
G01*
X58824000Y-158459000D01*
G75*
G02*
X58574000Y-158209000I0J250000D01*
G01*
X58574000Y-157259000D01*
G75*
G02*
X58824000Y-157009000I250000J0D01*
G01*
X59499000Y-157009000D01*
G75*
G02*
X59749000Y-157259000I0J-250000D01*
G01*
G37*
G04 #@! TD*
G04 #@! TO.C,D1*
G36*
G01*
X57334999Y-173379000D02*
X58235001Y-173379000D01*
G75*
G02*
X58485000Y-173628999I0J-249999D01*
G01*
X58485000Y-174279001D01*
G75*
G02*
X58235001Y-174529000I-249999J0D01*
G01*
X57334999Y-174529000D01*
G75*
G02*
X57085000Y-174279001I0J249999D01*
G01*
X57085000Y-173628999D01*
G75*
G02*
X57334999Y-173379000I249999J0D01*
G01*
G37*
G36*
G01*
X57334999Y-171329000D02*
X58235001Y-171329000D01*
G75*
G02*
X58485000Y-171578999I0J-249999D01*
G01*
X58485000Y-172229001D01*
G75*
G02*
X58235001Y-172479000I-249999J0D01*
G01*
X57334999Y-172479000D01*
G75*
G02*
X57085000Y-172229001I0J249999D01*
G01*
X57085000Y-171578999D01*
G75*
G02*
X57334999Y-171329000I249999J0D01*
G01*
G37*
G04 #@! TD*
G04 #@! TO.C,D2*
G36*
G01*
X53524999Y-171329000D02*
X54425001Y-171329000D01*
G75*
G02*
X54675000Y-171578999I0J-249999D01*
G01*
X54675000Y-172229001D01*
G75*
G02*
X54425001Y-172479000I-249999J0D01*
G01*
X53524999Y-172479000D01*
G75*
G02*
X53275000Y-172229001I0J249999D01*
G01*
X53275000Y-171578999D01*
G75*
G02*
X53524999Y-171329000I249999J0D01*
G01*
G37*
G36*
G01*
X53524999Y-173379000D02*
X54425001Y-173379000D01*
G75*
G02*
X54675000Y-173628999I0J-249999D01*
G01*
X54675000Y-174279001D01*
G75*
G02*
X54425001Y-174529000I-249999J0D01*
G01*
X53524999Y-174529000D01*
G75*
G02*
X53275000Y-174279001I0J249999D01*
G01*
X53275000Y-173628999D01*
G75*
G02*
X53524999Y-173379000I249999J0D01*
G01*
G37*
G04 #@! TD*
G04 #@! TO.C,D3*
G36*
G01*
X49714999Y-173379000D02*
X50615001Y-173379000D01*
G75*
G02*
X50865000Y-173628999I0J-249999D01*
G01*
X50865000Y-174279001D01*
G75*
G02*
X50615001Y-174529000I-249999J0D01*
G01*
X49714999Y-174529000D01*
G75*
G02*
X49465000Y-174279001I0J249999D01*
G01*
X49465000Y-173628999D01*
G75*
G02*
X49714999Y-173379000I249999J0D01*
G01*
G37*
G36*
G01*
X49714999Y-171329000D02*
X50615001Y-171329000D01*
G75*
G02*
X50865000Y-171578999I0J-249999D01*
G01*
X50865000Y-172229001D01*
G75*
G02*
X50615001Y-172479000I-249999J0D01*
G01*
X49714999Y-172479000D01*
G75*
G02*
X49465000Y-172229001I0J249999D01*
G01*
X49465000Y-171578999D01*
G75*
G02*
X49714999Y-171329000I249999J0D01*
G01*
G37*
G04 #@! TD*
G04 #@! TO.C,D4*
G36*
G01*
X45904999Y-171329000D02*
X46805001Y-171329000D01*
G75*
G02*
X47055000Y-171578999I0J-249999D01*
G01*
X47055000Y-172229001D01*
G75*
G02*
X46805001Y-172479000I-249999J0D01*
G01*
X45904999Y-172479000D01*
G75*
G02*
X45655000Y-172229001I0J249999D01*
G01*
X45655000Y-171578999D01*
G75*
G02*
X45904999Y-171329000I249999J0D01*
G01*
G37*
G36*
G01*
X45904999Y-173379000D02*
X46805001Y-173379000D01*
G75*
G02*
X47055000Y-173628999I0J-249999D01*
G01*
X47055000Y-174279001D01*
G75*
G02*
X46805001Y-174529000I-249999J0D01*
G01*
X45904999Y-174529000D01*
G75*
G02*
X45655000Y-174279001I0J249999D01*
G01*
X45655000Y-173628999D01*
G75*
G02*
X45904999Y-173379000I249999J0D01*
G01*
G37*
G04 #@! TD*
D12*
G04 #@! TO.C,H1*
X123247000Y-185730000D03*
G04 #@! TD*
G04 #@! TO.C,H2*
X65347400Y-185730000D03*
G04 #@! TD*
G04 #@! TO.C,H3*
X65363400Y-136746000D03*
G04 #@! TD*
D10*
G04 #@! TO.C,IC2*
X53272200Y-159975000D03*
X53272200Y-160625000D03*
X53272200Y-161275000D03*
X53272200Y-161925000D03*
X53272200Y-162575000D03*
X53272200Y-163225000D03*
X53272200Y-163875000D03*
X59148200Y-163875000D03*
X59148200Y-163225000D03*
X59148200Y-162575000D03*
X59148200Y-161925000D03*
X59148200Y-161275000D03*
X59148200Y-160625000D03*
X59148200Y-159975000D03*
G04 #@! TD*
D13*
G04 #@! TO.C,J1*
X118364000Y-184450000D03*
D14*
X118364000Y-186990000D03*
X115824000Y-184450000D03*
X115824000Y-186990000D03*
X113284000Y-184450000D03*
X113284000Y-186990000D03*
X110744000Y-184450000D03*
X110744000Y-186990000D03*
X108204000Y-184450000D03*
X108204000Y-186990000D03*
X105664000Y-184450000D03*
X105664000Y-186990000D03*
X103124000Y-184450000D03*
X103124000Y-186990000D03*
X100584000Y-184450000D03*
X100584000Y-186990000D03*
X98044000Y-184450000D03*
X98044000Y-186990000D03*
X95504000Y-184450000D03*
X95504000Y-186990000D03*
X92964000Y-184450000D03*
X92964000Y-186990000D03*
X90424000Y-184450000D03*
X90424000Y-186990000D03*
X87884000Y-184450000D03*
X87884000Y-186990000D03*
X85344000Y-184450000D03*
X85344000Y-186990000D03*
X82804000Y-184450000D03*
X82804000Y-186990000D03*
X80264000Y-184450000D03*
X80264000Y-186990000D03*
X77724000Y-184450000D03*
X77724000Y-186990000D03*
X75184000Y-184450000D03*
X75184000Y-186990000D03*
X72644000Y-184450000D03*
X72644000Y-186990000D03*
X70104000Y-184450000D03*
X70104000Y-186990000D03*
G04 #@! TD*
D15*
G04 #@! TO.C,J2*
X131064000Y-181864000D03*
G04 #@! TD*
G04 #@! TO.C,J3*
X131064000Y-179324000D03*
G04 #@! TD*
G04 #@! TO.C,J4*
X137414000Y-181864000D03*
G04 #@! TD*
G04 #@! TO.C,J5*
X137414000Y-179324000D03*
G04 #@! TD*
G04 #@! TO.C,J6*
X150114000Y-174244000D03*
G04 #@! TD*
G04 #@! TO.C,J7*
X150114000Y-186944000D03*
G04 #@! TD*
G04 #@! TO.C,J8*
X150114000Y-179324000D03*
G04 #@! TD*
G04 #@! TO.C,J9*
X150114000Y-181864000D03*
G04 #@! TD*
G04 #@! TO.C,J10*
X150114000Y-176784000D03*
G04 #@! TD*
G04 #@! TO.C,J11*
X150114000Y-171704000D03*
G04 #@! TD*
G04 #@! TO.C,J12*
X150139000Y-184404000D03*
G04 #@! TD*
G04 #@! TO.C,J13*
X143764000Y-186944000D03*
G04 #@! TD*
G04 #@! TO.C,J14*
X143764000Y-184404000D03*
G04 #@! TD*
G04 #@! TO.C,J15*
X143764000Y-181864000D03*
G04 #@! TD*
G04 #@! TO.C,J16*
X143764000Y-179324000D03*
G04 #@! TD*
G04 #@! TO.C,J17*
X50165000Y-163195000D03*
G04 #@! TD*
G04 #@! TO.C,J18*
X53975000Y-166370000D03*
G04 #@! TD*
G04 #@! TO.C,J19*
X62357000Y-163830000D03*
G04 #@! TD*
G04 #@! TO.C,J20*
X58420000Y-166370000D03*
G04 #@! TD*
G04 #@! TO.C,J21*
X85090000Y-133350000D03*
G04 #@! TD*
G04 #@! TO.C,R1*
G36*
G01*
X92478399Y-175565000D02*
X93378401Y-175565000D01*
G75*
G02*
X93628400Y-175814999I0J-249999D01*
G01*
X93628400Y-176515001D01*
G75*
G02*
X93378401Y-176765000I-249999J0D01*
G01*
X92478399Y-176765000D01*
G75*
G02*
X92228400Y-176515001I0J249999D01*
G01*
X92228400Y-175814999D01*
G75*
G02*
X92478399Y-175565000I249999J0D01*
G01*
G37*
G36*
G01*
X92478399Y-177565000D02*
X93378401Y-177565000D01*
G75*
G02*
X93628400Y-177814999I0J-249999D01*
G01*
X93628400Y-178515001D01*
G75*
G02*
X93378401Y-178765000I-249999J0D01*
G01*
X92478399Y-178765000D01*
G75*
G02*
X92228400Y-178515001I0J249999D01*
G01*
X92228400Y-177814999D01*
G75*
G02*
X92478399Y-177565000I249999J0D01*
G01*
G37*
G04 #@! TD*
G04 #@! TO.C,R2*
G36*
G01*
X49130000Y-150044999D02*
X49130000Y-150945001D01*
G75*
G02*
X48880001Y-151195000I-249999J0D01*
G01*
X48179999Y-151195000D01*
G75*
G02*
X47930000Y-150945001I0J249999D01*
G01*
X47930000Y-150044999D01*
G75*
G02*
X48179999Y-149795000I249999J0D01*
G01*
X48880001Y-149795000D01*
G75*
G02*
X49130000Y-150044999I0J-249999D01*
G01*
G37*
G36*
G01*
X51130000Y-150044999D02*
X51130000Y-150945001D01*
G75*
G02*
X50880001Y-151195000I-249999J0D01*
G01*
X50179999Y-151195000D01*
G75*
G02*
X49930000Y-150945001I0J249999D01*
G01*
X49930000Y-150044999D01*
G75*
G02*
X50179999Y-149795000I249999J0D01*
G01*
X50880001Y-149795000D01*
G75*
G02*
X51130000Y-150044999I0J-249999D01*
G01*
G37*
G04 #@! TD*
G04 #@! TO.C,R3*
G36*
G01*
X97935201Y-178765000D02*
X97035199Y-178765000D01*
G75*
G02*
X96785200Y-178515001I0J249999D01*
G01*
X96785200Y-177814999D01*
G75*
G02*
X97035199Y-177565000I249999J0D01*
G01*
X97935201Y-177565000D01*
G75*
G02*
X98185200Y-177814999I0J-249999D01*
G01*
X98185200Y-178515001D01*
G75*
G02*
X97935201Y-178765000I-249999J0D01*
G01*
G37*
G36*
G01*
X97935201Y-176765000D02*
X97035199Y-176765000D01*
G75*
G02*
X96785200Y-176515001I0J249999D01*
G01*
X96785200Y-175814999D01*
G75*
G02*
X97035199Y-175565000I249999J0D01*
G01*
X97935201Y-175565000D01*
G75*
G02*
X98185200Y-175814999I0J-249999D01*
G01*
X98185200Y-176515001D01*
G75*
G02*
X97935201Y-176765000I-249999J0D01*
G01*
G37*
G04 #@! TD*
G04 #@! TO.C,R4*
G36*
G01*
X65370000Y-150679999D02*
X65370000Y-151580001D01*
G75*
G02*
X65120001Y-151830000I-249999J0D01*
G01*
X64419999Y-151830000D01*
G75*
G02*
X64170000Y-151580001I0J249999D01*
G01*
X64170000Y-150679999D01*
G75*
G02*
X64419999Y-150430000I249999J0D01*
G01*
X65120001Y-150430000D01*
G75*
G02*
X65370000Y-150679999I0J-249999D01*
G01*
G37*
G36*
G01*
X63370000Y-150679999D02*
X63370000Y-151580001D01*
G75*
G02*
X63120001Y-151830000I-249999J0D01*
G01*
X62419999Y-151830000D01*
G75*
G02*
X62170000Y-151580001I0J249999D01*
G01*
X62170000Y-150679999D01*
G75*
G02*
X62419999Y-150430000I249999J0D01*
G01*
X63120001Y-150430000D01*
G75*
G02*
X63370000Y-150679999I0J-249999D01*
G01*
G37*
G04 #@! TD*
G04 #@! TO.C,R5*
G36*
G01*
X63465000Y-160839999D02*
X63465000Y-161740001D01*
G75*
G02*
X63215001Y-161990000I-249999J0D01*
G01*
X62514999Y-161990000D01*
G75*
G02*
X62265000Y-161740001I0J249999D01*
G01*
X62265000Y-160839999D01*
G75*
G02*
X62514999Y-160590000I249999J0D01*
G01*
X63215001Y-160590000D01*
G75*
G02*
X63465000Y-160839999I0J-249999D01*
G01*
G37*
G36*
G01*
X65465000Y-160839999D02*
X65465000Y-161740001D01*
G75*
G02*
X65215001Y-161990000I-249999J0D01*
G01*
X64514999Y-161990000D01*
G75*
G02*
X64265000Y-161740001I0J249999D01*
G01*
X64265000Y-160839999D01*
G75*
G02*
X64514999Y-160590000I249999J0D01*
G01*
X65215001Y-160590000D01*
G75*
G02*
X65465000Y-160839999I0J-249999D01*
G01*
G37*
G04 #@! TD*
G04 #@! TO.C,R6*
G36*
G01*
X95664401Y-178781000D02*
X94764399Y-178781000D01*
G75*
G02*
X94514400Y-178531001I0J249999D01*
G01*
X94514400Y-177830999D01*
G75*
G02*
X94764399Y-177581000I249999J0D01*
G01*
X95664401Y-177581000D01*
G75*
G02*
X95914400Y-177830999I0J-249999D01*
G01*
X95914400Y-178531001D01*
G75*
G02*
X95664401Y-178781000I-249999J0D01*
G01*
G37*
G36*
G01*
X95664401Y-176781000D02*
X94764399Y-176781000D01*
G75*
G02*
X94514400Y-176531001I0J249999D01*
G01*
X94514400Y-175830999D01*
G75*
G02*
X94764399Y-175581000I249999J0D01*
G01*
X95664401Y-175581000D01*
G75*
G02*
X95914400Y-175830999I0J-249999D01*
G01*
X95914400Y-176531001D01*
G75*
G02*
X95664401Y-176781000I-249999J0D01*
G01*
G37*
G04 #@! TD*
G04 #@! TO.C,R7*
G36*
G01*
X56965001Y-152905000D02*
X56064999Y-152905000D01*
G75*
G02*
X55815000Y-152655001I0J249999D01*
G01*
X55815000Y-151954999D01*
G75*
G02*
X56064999Y-151705000I249999J0D01*
G01*
X56965001Y-151705000D01*
G75*
G02*
X57215000Y-151954999I0J-249999D01*
G01*
X57215000Y-152655001D01*
G75*
G02*
X56965001Y-152905000I-249999J0D01*
G01*
G37*
G36*
G01*
X56965001Y-154905000D02*
X56064999Y-154905000D01*
G75*
G02*
X55815000Y-154655001I0J249999D01*
G01*
X55815000Y-153954999D01*
G75*
G02*
X56064999Y-153705000I249999J0D01*
G01*
X56965001Y-153705000D01*
G75*
G02*
X57215000Y-153954999I0J-249999D01*
G01*
X57215000Y-154655001D01*
G75*
G02*
X56965001Y-154905000I-249999J0D01*
G01*
G37*
G04 #@! TD*
G04 #@! TO.C,R8*
G36*
G01*
X48495000Y-160204999D02*
X48495000Y-161105001D01*
G75*
G02*
X48245001Y-161355000I-249999J0D01*
G01*
X47544999Y-161355000D01*
G75*
G02*
X47295000Y-161105001I0J249999D01*
G01*
X47295000Y-160204999D01*
G75*
G02*
X47544999Y-159955000I249999J0D01*
G01*
X48245001Y-159955000D01*
G75*
G02*
X48495000Y-160204999I0J-249999D01*
G01*
G37*
G36*
G01*
X50495000Y-160204999D02*
X50495000Y-161105001D01*
G75*
G02*
X50245001Y-161355000I-249999J0D01*
G01*
X49544999Y-161355000D01*
G75*
G02*
X49295000Y-161105001I0J249999D01*
G01*
X49295000Y-160204999D01*
G75*
G02*
X49544999Y-159955000I249999J0D01*
G01*
X50245001Y-159955000D01*
G75*
G02*
X50495000Y-160204999I0J-249999D01*
G01*
G37*
G04 #@! TD*
G04 #@! TO.C,R9*
G36*
G01*
X106534999Y-175574000D02*
X107435001Y-175574000D01*
G75*
G02*
X107685000Y-175823999I0J-249999D01*
G01*
X107685000Y-176524001D01*
G75*
G02*
X107435001Y-176774000I-249999J0D01*
G01*
X106534999Y-176774000D01*
G75*
G02*
X106285000Y-176524001I0J249999D01*
G01*
X106285000Y-175823999D01*
G75*
G02*
X106534999Y-175574000I249999J0D01*
G01*
G37*
G36*
G01*
X106534999Y-177574000D02*
X107435001Y-177574000D01*
G75*
G02*
X107685000Y-177823999I0J-249999D01*
G01*
X107685000Y-178524001D01*
G75*
G02*
X107435001Y-178774000I-249999J0D01*
G01*
X106534999Y-178774000D01*
G75*
G02*
X106285000Y-178524001I0J249999D01*
G01*
X106285000Y-177823999D01*
G75*
G02*
X106534999Y-177574000I249999J0D01*
G01*
G37*
G04 #@! TD*
G04 #@! TO.C,R11*
G36*
G01*
X65465000Y-147504999D02*
X65465000Y-148405001D01*
G75*
G02*
X65215001Y-148655000I-249999J0D01*
G01*
X64514999Y-148655000D01*
G75*
G02*
X64265000Y-148405001I0J249999D01*
G01*
X64265000Y-147504999D01*
G75*
G02*
X64514999Y-147255000I249999J0D01*
G01*
X65215001Y-147255000D01*
G75*
G02*
X65465000Y-147504999I0J-249999D01*
G01*
G37*
G36*
G01*
X63465000Y-147504999D02*
X63465000Y-148405001D01*
G75*
G02*
X63215001Y-148655000I-249999J0D01*
G01*
X62514999Y-148655000D01*
G75*
G02*
X62265000Y-148405001I0J249999D01*
G01*
X62265000Y-147504999D01*
G75*
G02*
X62514999Y-147255000I249999J0D01*
G01*
X63215001Y-147255000D01*
G75*
G02*
X63465000Y-147504999I0J-249999D01*
G01*
G37*
G04 #@! TD*
G04 #@! TO.C,R12*
G36*
G01*
X109125999Y-175574000D02*
X110026001Y-175574000D01*
G75*
G02*
X110276000Y-175823999I0J-249999D01*
G01*
X110276000Y-176524001D01*
G75*
G02*
X110026001Y-176774000I-249999J0D01*
G01*
X109125999Y-176774000D01*
G75*
G02*
X108876000Y-176524001I0J249999D01*
G01*
X108876000Y-175823999D01*
G75*
G02*
X109125999Y-175574000I249999J0D01*
G01*
G37*
G36*
G01*
X109125999Y-177574000D02*
X110026001Y-177574000D01*
G75*
G02*
X110276000Y-177823999I0J-249999D01*
G01*
X110276000Y-178524001D01*
G75*
G02*
X110026001Y-178774000I-249999J0D01*
G01*
X109125999Y-178774000D01*
G75*
G02*
X108876000Y-178524001I0J249999D01*
G01*
X108876000Y-177823999D01*
G75*
G02*
X109125999Y-177574000I249999J0D01*
G01*
G37*
G04 #@! TD*
G04 #@! TO.C,R13*
G36*
G01*
X51130000Y-147504999D02*
X51130000Y-148405001D01*
G75*
G02*
X50880001Y-148655000I-249999J0D01*
G01*
X50179999Y-148655000D01*
G75*
G02*
X49930000Y-148405001I0J249999D01*
G01*
X49930000Y-147504999D01*
G75*
G02*
X50179999Y-147255000I249999J0D01*
G01*
X50880001Y-147255000D01*
G75*
G02*
X51130000Y-147504999I0J-249999D01*
G01*
G37*
G36*
G01*
X49130000Y-147504999D02*
X49130000Y-148405001D01*
G75*
G02*
X48880001Y-148655000I-249999J0D01*
G01*
X48179999Y-148655000D01*
G75*
G02*
X47930000Y-148405001I0J249999D01*
G01*
X47930000Y-147504999D01*
G75*
G02*
X48179999Y-147255000I249999J0D01*
G01*
X48880001Y-147255000D01*
G75*
G02*
X49130000Y-147504999I0J-249999D01*
G01*
G37*
G04 #@! TD*
G04 #@! TO.C,R14*
G36*
G01*
X64218399Y-99469400D02*
X65118401Y-99469400D01*
G75*
G02*
X65368400Y-99719399I0J-249999D01*
G01*
X65368400Y-100419401D01*
G75*
G02*
X65118401Y-100669400I-249999J0D01*
G01*
X64218399Y-100669400D01*
G75*
G02*
X63968400Y-100419401I0J249999D01*
G01*
X63968400Y-99719399D01*
G75*
G02*
X64218399Y-99469400I249999J0D01*
G01*
G37*
G36*
G01*
X64218399Y-97469400D02*
X65118401Y-97469400D01*
G75*
G02*
X65368400Y-97719399I0J-249999D01*
G01*
X65368400Y-98419401D01*
G75*
G02*
X65118401Y-98669400I-249999J0D01*
G01*
X64218399Y-98669400D01*
G75*
G02*
X63968400Y-98419401I0J249999D01*
G01*
X63968400Y-97719399D01*
G75*
G02*
X64218399Y-97469400I249999J0D01*
G01*
G37*
G04 #@! TD*
G04 #@! TO.C,R15*
G36*
G01*
X69298399Y-99704600D02*
X70198401Y-99704600D01*
G75*
G02*
X70448400Y-99954599I0J-249999D01*
G01*
X70448400Y-100654601D01*
G75*
G02*
X70198401Y-100904600I-249999J0D01*
G01*
X69298399Y-100904600D01*
G75*
G02*
X69048400Y-100654601I0J249999D01*
G01*
X69048400Y-99954599D01*
G75*
G02*
X69298399Y-99704600I249999J0D01*
G01*
G37*
G36*
G01*
X69298399Y-97704600D02*
X70198401Y-97704600D01*
G75*
G02*
X70448400Y-97954599I0J-249999D01*
G01*
X70448400Y-98654601D01*
G75*
G02*
X70198401Y-98904600I-249999J0D01*
G01*
X69298399Y-98904600D01*
G75*
G02*
X69048400Y-98654601I0J249999D01*
G01*
X69048400Y-97954599D01*
G75*
G02*
X69298399Y-97704600I249999J0D01*
G01*
G37*
G04 #@! TD*
G04 #@! TO.C,R16*
G36*
G01*
X71838399Y-97704600D02*
X72738401Y-97704600D01*
G75*
G02*
X72988400Y-97954599I0J-249999D01*
G01*
X72988400Y-98654601D01*
G75*
G02*
X72738401Y-98904600I-249999J0D01*
G01*
X71838399Y-98904600D01*
G75*
G02*
X71588400Y-98654601I0J249999D01*
G01*
X71588400Y-97954599D01*
G75*
G02*
X71838399Y-97704600I249999J0D01*
G01*
G37*
G36*
G01*
X71838399Y-99704600D02*
X72738401Y-99704600D01*
G75*
G02*
X72988400Y-99954599I0J-249999D01*
G01*
X72988400Y-100654601D01*
G75*
G02*
X72738401Y-100904600I-249999J0D01*
G01*
X71838399Y-100904600D01*
G75*
G02*
X71588400Y-100654601I0J249999D01*
G01*
X71588400Y-99954599D01*
G75*
G02*
X71838399Y-99704600I249999J0D01*
G01*
G37*
G04 #@! TD*
G04 #@! TO.C,R17*
G36*
G01*
X74352999Y-99603000D02*
X75253001Y-99603000D01*
G75*
G02*
X75503000Y-99852999I0J-249999D01*
G01*
X75503000Y-100553001D01*
G75*
G02*
X75253001Y-100803000I-249999J0D01*
G01*
X74352999Y-100803000D01*
G75*
G02*
X74103000Y-100553001I0J249999D01*
G01*
X74103000Y-99852999D01*
G75*
G02*
X74352999Y-99603000I249999J0D01*
G01*
G37*
G36*
G01*
X74352999Y-97603000D02*
X75253001Y-97603000D01*
G75*
G02*
X75503000Y-97852999I0J-249999D01*
G01*
X75503000Y-98553001D01*
G75*
G02*
X75253001Y-98803000I-249999J0D01*
G01*
X74352999Y-98803000D01*
G75*
G02*
X74103000Y-98553001I0J249999D01*
G01*
X74103000Y-97852999D01*
G75*
G02*
X74352999Y-97603000I249999J0D01*
G01*
G37*
G04 #@! TD*
G04 #@! TO.C,R18*
G36*
G01*
X72373800Y-88424599D02*
X72373800Y-89324601D01*
G75*
G02*
X72123801Y-89574600I-249999J0D01*
G01*
X71423799Y-89574600D01*
G75*
G02*
X71173800Y-89324601I0J249999D01*
G01*
X71173800Y-88424599D01*
G75*
G02*
X71423799Y-88174600I249999J0D01*
G01*
X72123801Y-88174600D01*
G75*
G02*
X72373800Y-88424599I0J-249999D01*
G01*
G37*
G36*
G01*
X70373800Y-88424599D02*
X70373800Y-89324601D01*
G75*
G02*
X70123801Y-89574600I-249999J0D01*
G01*
X69423799Y-89574600D01*
G75*
G02*
X69173800Y-89324601I0J249999D01*
G01*
X69173800Y-88424599D01*
G75*
G02*
X69423799Y-88174600I249999J0D01*
G01*
X70123801Y-88174600D01*
G75*
G02*
X70373800Y-88424599I0J-249999D01*
G01*
G37*
G04 #@! TD*
G04 #@! TO.C,R19*
G36*
G01*
X64218399Y-88233200D02*
X65118401Y-88233200D01*
G75*
G02*
X65368400Y-88483199I0J-249999D01*
G01*
X65368400Y-89183201D01*
G75*
G02*
X65118401Y-89433200I-249999J0D01*
G01*
X64218399Y-89433200D01*
G75*
G02*
X63968400Y-89183201I0J249999D01*
G01*
X63968400Y-88483199D01*
G75*
G02*
X64218399Y-88233200I249999J0D01*
G01*
G37*
G36*
G01*
X64218399Y-86233200D02*
X65118401Y-86233200D01*
G75*
G02*
X65368400Y-86483199I0J-249999D01*
G01*
X65368400Y-87183201D01*
G75*
G02*
X65118401Y-87433200I-249999J0D01*
G01*
X64218399Y-87433200D01*
G75*
G02*
X63968400Y-87183201I0J249999D01*
G01*
X63968400Y-86483199D01*
G75*
G02*
X64218399Y-86233200I249999J0D01*
G01*
G37*
G04 #@! TD*
G04 #@! TO.C,R20*
G36*
G01*
X58235001Y-177634000D02*
X57334999Y-177634000D01*
G75*
G02*
X57085000Y-177384001I0J249999D01*
G01*
X57085000Y-176683999D01*
G75*
G02*
X57334999Y-176434000I249999J0D01*
G01*
X58235001Y-176434000D01*
G75*
G02*
X58485000Y-176683999I0J-249999D01*
G01*
X58485000Y-177384001D01*
G75*
G02*
X58235001Y-177634000I-249999J0D01*
G01*
G37*
G36*
G01*
X58235001Y-179634000D02*
X57334999Y-179634000D01*
G75*
G02*
X57085000Y-179384001I0J249999D01*
G01*
X57085000Y-178683999D01*
G75*
G02*
X57334999Y-178434000I249999J0D01*
G01*
X58235001Y-178434000D01*
G75*
G02*
X58485000Y-178683999I0J-249999D01*
G01*
X58485000Y-179384001D01*
G75*
G02*
X58235001Y-179634000I-249999J0D01*
G01*
G37*
G04 #@! TD*
G04 #@! TO.C,R21*
G36*
G01*
X54435001Y-179634000D02*
X53534999Y-179634000D01*
G75*
G02*
X53285000Y-179384001I0J249999D01*
G01*
X53285000Y-178683999D01*
G75*
G02*
X53534999Y-178434000I249999J0D01*
G01*
X54435001Y-178434000D01*
G75*
G02*
X54685000Y-178683999I0J-249999D01*
G01*
X54685000Y-179384001D01*
G75*
G02*
X54435001Y-179634000I-249999J0D01*
G01*
G37*
G36*
G01*
X54435001Y-177634000D02*
X53534999Y-177634000D01*
G75*
G02*
X53285000Y-177384001I0J249999D01*
G01*
X53285000Y-176683999D01*
G75*
G02*
X53534999Y-176434000I249999J0D01*
G01*
X54435001Y-176434000D01*
G75*
G02*
X54685000Y-176683999I0J-249999D01*
G01*
X54685000Y-177384001D01*
G75*
G02*
X54435001Y-177634000I-249999J0D01*
G01*
G37*
G04 #@! TD*
G04 #@! TO.C,R22*
G36*
G01*
X50615001Y-177634000D02*
X49714999Y-177634000D01*
G75*
G02*
X49465000Y-177384001I0J249999D01*
G01*
X49465000Y-176683999D01*
G75*
G02*
X49714999Y-176434000I249999J0D01*
G01*
X50615001Y-176434000D01*
G75*
G02*
X50865000Y-176683999I0J-249999D01*
G01*
X50865000Y-177384001D01*
G75*
G02*
X50615001Y-177634000I-249999J0D01*
G01*
G37*
G36*
G01*
X50615001Y-179634000D02*
X49714999Y-179634000D01*
G75*
G02*
X49465000Y-179384001I0J249999D01*
G01*
X49465000Y-178683999D01*
G75*
G02*
X49714999Y-178434000I249999J0D01*
G01*
X50615001Y-178434000D01*
G75*
G02*
X50865000Y-178683999I0J-249999D01*
G01*
X50865000Y-179384001D01*
G75*
G02*
X50615001Y-179634000I-249999J0D01*
G01*
G37*
G04 #@! TD*
G04 #@! TO.C,R23*
G36*
G01*
X46805001Y-179634000D02*
X45904999Y-179634000D01*
G75*
G02*
X45655000Y-179384001I0J249999D01*
G01*
X45655000Y-178683999D01*
G75*
G02*
X45904999Y-178434000I249999J0D01*
G01*
X46805001Y-178434000D01*
G75*
G02*
X47055000Y-178683999I0J-249999D01*
G01*
X47055000Y-179384001D01*
G75*
G02*
X46805001Y-179634000I-249999J0D01*
G01*
G37*
G36*
G01*
X46805001Y-177634000D02*
X45904999Y-177634000D01*
G75*
G02*
X45655000Y-177384001I0J249999D01*
G01*
X45655000Y-176683999D01*
G75*
G02*
X45904999Y-176434000I249999J0D01*
G01*
X46805001Y-176434000D01*
G75*
G02*
X47055000Y-176683999I0J-249999D01*
G01*
X47055000Y-177384001D01*
G75*
G02*
X46805001Y-177634000I-249999J0D01*
G01*
G37*
G04 #@! TD*
G04 #@! TO.C,R24*
G36*
G01*
X86128399Y-177581000D02*
X87028401Y-177581000D01*
G75*
G02*
X87278400Y-177830999I0J-249999D01*
G01*
X87278400Y-178531001D01*
G75*
G02*
X87028401Y-178781000I-249999J0D01*
G01*
X86128399Y-178781000D01*
G75*
G02*
X85878400Y-178531001I0J249999D01*
G01*
X85878400Y-177830999D01*
G75*
G02*
X86128399Y-177581000I249999J0D01*
G01*
G37*
G36*
G01*
X86128399Y-175581000D02*
X87028401Y-175581000D01*
G75*
G02*
X87278400Y-175830999I0J-249999D01*
G01*
X87278400Y-176531001D01*
G75*
G02*
X87028401Y-176781000I-249999J0D01*
G01*
X86128399Y-176781000D01*
G75*
G02*
X85878400Y-176531001I0J249999D01*
G01*
X85878400Y-175830999D01*
G75*
G02*
X86128399Y-175581000I249999J0D01*
G01*
G37*
G04 #@! TD*
G04 #@! TO.C,R25*
G36*
G01*
X83842399Y-175581000D02*
X84742401Y-175581000D01*
G75*
G02*
X84992400Y-175830999I0J-249999D01*
G01*
X84992400Y-176531001D01*
G75*
G02*
X84742401Y-176781000I-249999J0D01*
G01*
X83842399Y-176781000D01*
G75*
G02*
X83592400Y-176531001I0J249999D01*
G01*
X83592400Y-175830999D01*
G75*
G02*
X83842399Y-175581000I249999J0D01*
G01*
G37*
G36*
G01*
X83842399Y-177581000D02*
X84742401Y-177581000D01*
G75*
G02*
X84992400Y-177830999I0J-249999D01*
G01*
X84992400Y-178531001D01*
G75*
G02*
X84742401Y-178781000I-249999J0D01*
G01*
X83842399Y-178781000D01*
G75*
G02*
X83592400Y-178531001I0J249999D01*
G01*
X83592400Y-177830999D01*
G75*
G02*
X83842399Y-177581000I249999J0D01*
G01*
G37*
G04 #@! TD*
G04 #@! TO.C,R26*
G36*
G01*
X46225000Y-162744999D02*
X46225000Y-163645001D01*
G75*
G02*
X45975001Y-163895000I-249999J0D01*
G01*
X45274999Y-163895000D01*
G75*
G02*
X45025000Y-163645001I0J249999D01*
G01*
X45025000Y-162744999D01*
G75*
G02*
X45274999Y-162495000I249999J0D01*
G01*
X45975001Y-162495000D01*
G75*
G02*
X46225000Y-162744999I0J-249999D01*
G01*
G37*
G36*
G01*
X48225000Y-162744999D02*
X48225000Y-163645001D01*
G75*
G02*
X47975001Y-163895000I-249999J0D01*
G01*
X47274999Y-163895000D01*
G75*
G02*
X47025000Y-163645001I0J249999D01*
G01*
X47025000Y-162744999D01*
G75*
G02*
X47274999Y-162495000I249999J0D01*
G01*
X47975001Y-162495000D01*
G75*
G02*
X48225000Y-162744999I0J-249999D01*
G01*
G37*
G04 #@! TD*
G04 #@! TO.C,R27*
G36*
G01*
X68005000Y-163379999D02*
X68005000Y-164280001D01*
G75*
G02*
X67755001Y-164530000I-249999J0D01*
G01*
X67054999Y-164530000D01*
G75*
G02*
X66805000Y-164280001I0J249999D01*
G01*
X66805000Y-163379999D01*
G75*
G02*
X67054999Y-163130000I249999J0D01*
G01*
X67755001Y-163130000D01*
G75*
G02*
X68005000Y-163379999I0J-249999D01*
G01*
G37*
G36*
G01*
X66005000Y-163379999D02*
X66005000Y-164280001D01*
G75*
G02*
X65755001Y-164530000I-249999J0D01*
G01*
X65054999Y-164530000D01*
G75*
G02*
X64805000Y-164280001I0J249999D01*
G01*
X64805000Y-163379999D01*
G75*
G02*
X65054999Y-163130000I249999J0D01*
G01*
X65755001Y-163130000D01*
G75*
G02*
X66005000Y-163379999I0J-249999D01*
G01*
G37*
G04 #@! TD*
D13*
G04 #@! TO.C,U1*
X102390000Y-86366100D03*
D14*
X102390000Y-88906100D03*
X102390000Y-91446100D03*
X102390000Y-93986100D03*
X102390000Y-96526100D03*
X102390000Y-99066100D03*
G04 #@! TD*
D16*
G04 #@! TO.C,U2*
X67208400Y-94767400D03*
X69748400Y-92227400D03*
X67208400Y-92227400D03*
X69748400Y-94767400D03*
X64668400Y-94767400D03*
X72288400Y-92227400D03*
X64668400Y-92227400D03*
X72288400Y-94767400D03*
X62128400Y-94767400D03*
X74828400Y-92227400D03*
X62128400Y-92227400D03*
X74828400Y-94767400D03*
D17*
X55778400Y-93497400D03*
G04 #@! TD*
D14*
G04 #@! TO.C,U4*
X89291200Y-99066100D03*
X89291200Y-96526100D03*
X89291200Y-93986100D03*
X89291200Y-91446100D03*
X89291200Y-88906100D03*
D13*
X89291200Y-86366100D03*
G04 #@! TD*
G04 #@! TO.C,U5*
X102390000Y-133246000D03*
D14*
X102390000Y-135786000D03*
X102390000Y-138326000D03*
X102390000Y-140866000D03*
X102390000Y-143406000D03*
X102390000Y-145946000D03*
G04 #@! TD*
G04 #@! TO.C,U7*
X89298800Y-145941000D03*
X89298800Y-143401000D03*
X89298800Y-140861000D03*
X89298800Y-138321000D03*
X89298800Y-135781000D03*
D13*
X89298800Y-133241000D03*
G04 #@! TD*
G04 #@! TO.C,D5*
G36*
G01*
X48320000Y-187140001D02*
X48320000Y-186239999D01*
G75*
G02*
X48569999Y-185990000I249999J0D01*
G01*
X49220001Y-185990000D01*
G75*
G02*
X49470000Y-186239999I0J-249999D01*
G01*
X49470000Y-187140001D01*
G75*
G02*
X49220001Y-187390000I-249999J0D01*
G01*
X48569999Y-187390000D01*
G75*
G02*
X48320000Y-187140001I0J249999D01*
G01*
G37*
G36*
G01*
X46270000Y-187140001D02*
X46270000Y-186239999D01*
G75*
G02*
X46519999Y-185990000I249999J0D01*
G01*
X47170001Y-185990000D01*
G75*
G02*
X47420000Y-186239999I0J-249999D01*
G01*
X47420000Y-187140001D01*
G75*
G02*
X47170001Y-187390000I-249999J0D01*
G01*
X46519999Y-187390000D01*
G75*
G02*
X46270000Y-187140001I0J249999D01*
G01*
G37*
G04 #@! TD*
G04 #@! TO.C,D6*
G36*
G01*
X48383500Y-183140001D02*
X48383500Y-182239999D01*
G75*
G02*
X48633499Y-181990000I249999J0D01*
G01*
X49283501Y-181990000D01*
G75*
G02*
X49533500Y-182239999I0J-249999D01*
G01*
X49533500Y-183140001D01*
G75*
G02*
X49283501Y-183390000I-249999J0D01*
G01*
X48633499Y-183390000D01*
G75*
G02*
X48383500Y-183140001I0J249999D01*
G01*
G37*
G36*
G01*
X46333500Y-183140001D02*
X46333500Y-182239999D01*
G75*
G02*
X46583499Y-181990000I249999J0D01*
G01*
X47233501Y-181990000D01*
G75*
G02*
X47483500Y-182239999I0J-249999D01*
G01*
X47483500Y-183140001D01*
G75*
G02*
X47233501Y-183390000I-249999J0D01*
G01*
X46583499Y-183390000D01*
G75*
G02*
X46333500Y-183140001I0J249999D01*
G01*
G37*
G04 #@! TD*
G04 #@! TO.C,D7*
G36*
G01*
X80460001Y-82811200D02*
X79559999Y-82811200D01*
G75*
G02*
X79310000Y-82561201I0J249999D01*
G01*
X79310000Y-81911199D01*
G75*
G02*
X79559999Y-81661200I249999J0D01*
G01*
X80460001Y-81661200D01*
G75*
G02*
X80710000Y-81911199I0J-249999D01*
G01*
X80710000Y-82561201D01*
G75*
G02*
X80460001Y-82811200I-249999J0D01*
G01*
G37*
G36*
G01*
X80460001Y-84861200D02*
X79559999Y-84861200D01*
G75*
G02*
X79310000Y-84611201I0J249999D01*
G01*
X79310000Y-83961199D01*
G75*
G02*
X79559999Y-83711200I249999J0D01*
G01*
X80460001Y-83711200D01*
G75*
G02*
X80710000Y-83961199I0J-249999D01*
G01*
X80710000Y-84611201D01*
G75*
G02*
X80460001Y-84861200I-249999J0D01*
G01*
G37*
G04 #@! TD*
G04 #@! TO.C,D8*
G36*
G01*
X81730001Y-130895000D02*
X80829999Y-130895000D01*
G75*
G02*
X80580000Y-130645001I0J249999D01*
G01*
X80580000Y-129994999D01*
G75*
G02*
X80829999Y-129745000I249999J0D01*
G01*
X81730001Y-129745000D01*
G75*
G02*
X81980000Y-129994999I0J-249999D01*
G01*
X81980000Y-130645001D01*
G75*
G02*
X81730001Y-130895000I-249999J0D01*
G01*
G37*
G36*
G01*
X81730001Y-128845000D02*
X80829999Y-128845000D01*
G75*
G02*
X80580000Y-128595001I0J249999D01*
G01*
X80580000Y-127944999D01*
G75*
G02*
X80829999Y-127695000I249999J0D01*
G01*
X81730001Y-127695000D01*
G75*
G02*
X81980000Y-127944999I0J-249999D01*
G01*
X81980000Y-128595001D01*
G75*
G02*
X81730001Y-128845000I-249999J0D01*
G01*
G37*
G04 #@! TD*
G04 #@! TO.C,R28*
G36*
G01*
X52619200Y-186239999D02*
X52619200Y-187140001D01*
G75*
G02*
X52369201Y-187390000I-249999J0D01*
G01*
X51669199Y-187390000D01*
G75*
G02*
X51419200Y-187140001I0J249999D01*
G01*
X51419200Y-186239999D01*
G75*
G02*
X51669199Y-185990000I249999J0D01*
G01*
X52369201Y-185990000D01*
G75*
G02*
X52619200Y-186239999I0J-249999D01*
G01*
G37*
G36*
G01*
X54619200Y-186239999D02*
X54619200Y-187140001D01*
G75*
G02*
X54369201Y-187390000I-249999J0D01*
G01*
X53669199Y-187390000D01*
G75*
G02*
X53419200Y-187140001I0J249999D01*
G01*
X53419200Y-186239999D01*
G75*
G02*
X53669199Y-185990000I249999J0D01*
G01*
X54369201Y-185990000D01*
G75*
G02*
X54619200Y-186239999I0J-249999D01*
G01*
G37*
G04 #@! TD*
G04 #@! TO.C,R29*
G36*
G01*
X52638500Y-182239999D02*
X52638500Y-183140001D01*
G75*
G02*
X52388501Y-183390000I-249999J0D01*
G01*
X51688499Y-183390000D01*
G75*
G02*
X51438500Y-183140001I0J249999D01*
G01*
X51438500Y-182239999D01*
G75*
G02*
X51688499Y-181990000I249999J0D01*
G01*
X52388501Y-181990000D01*
G75*
G02*
X52638500Y-182239999I0J-249999D01*
G01*
G37*
G36*
G01*
X54638500Y-182239999D02*
X54638500Y-183140001D01*
G75*
G02*
X54388501Y-183390000I-249999J0D01*
G01*
X53688499Y-183390000D01*
G75*
G02*
X53438500Y-183140001I0J249999D01*
G01*
X53438500Y-182239999D01*
G75*
G02*
X53688499Y-181990000I249999J0D01*
G01*
X54388501Y-181990000D01*
G75*
G02*
X54638500Y-182239999I0J-249999D01*
G01*
G37*
G04 #@! TD*
G04 #@! TO.C,R30*
G36*
G01*
X84473201Y-84845200D02*
X83573199Y-84845200D01*
G75*
G02*
X83323200Y-84595201I0J249999D01*
G01*
X83323200Y-83895199D01*
G75*
G02*
X83573199Y-83645200I249999J0D01*
G01*
X84473201Y-83645200D01*
G75*
G02*
X84723200Y-83895199I0J-249999D01*
G01*
X84723200Y-84595201D01*
G75*
G02*
X84473201Y-84845200I-249999J0D01*
G01*
G37*
G36*
G01*
X84473201Y-82845200D02*
X83573199Y-82845200D01*
G75*
G02*
X83323200Y-82595201I0J249999D01*
G01*
X83323200Y-81895199D01*
G75*
G02*
X83573199Y-81645200I249999J0D01*
G01*
X84473201Y-81645200D01*
G75*
G02*
X84723200Y-81895199I0J-249999D01*
G01*
X84723200Y-82595201D01*
G75*
G02*
X84473201Y-82845200I-249999J0D01*
G01*
G37*
G04 #@! TD*
G04 #@! TO.C,R31*
G36*
G01*
X85540001Y-128835000D02*
X84639999Y-128835000D01*
G75*
G02*
X84390000Y-128585001I0J249999D01*
G01*
X84390000Y-127884999D01*
G75*
G02*
X84639999Y-127635000I249999J0D01*
G01*
X85540001Y-127635000D01*
G75*
G02*
X85790000Y-127884999I0J-249999D01*
G01*
X85790000Y-128585001D01*
G75*
G02*
X85540001Y-128835000I-249999J0D01*
G01*
G37*
G36*
G01*
X85540001Y-130835000D02*
X84639999Y-130835000D01*
G75*
G02*
X84390000Y-130585001I0J249999D01*
G01*
X84390000Y-129884999D01*
G75*
G02*
X84639999Y-129635000I249999J0D01*
G01*
X85540001Y-129635000D01*
G75*
G02*
X85790000Y-129884999I0J-249999D01*
G01*
X85790000Y-130585001D01*
G75*
G02*
X85540001Y-130835000I-249999J0D01*
G01*
G37*
G04 #@! TD*
D12*
G04 #@! TO.C,H4*
X45260000Y-72740000D03*
G04 #@! TD*
G04 #@! TO.C,H5*
X161270000Y-72740000D03*
G04 #@! TD*
G04 #@! TO.C,H6*
X161270000Y-185730000D03*
G04 #@! TD*
D15*
G04 #@! TO.C,J22*
X59182000Y-105664000D03*
G04 #@! TD*
G04 #@! TO.C,J23*
X65278000Y-175768000D03*
G04 #@! TD*
G04 #@! TO.C,J24*
X156972000Y-77470000D03*
G04 #@! TD*
G04 #@! TO.C,J25*
X155194000Y-174244000D03*
G04 #@! TD*
M02*
