G04 #@! TF.GenerationSoftware,KiCad,Pcbnew,(5.1.8)-1*
G04 #@! TF.CreationDate,2021-03-08T00:14:45+09:00*
G04 #@! TF.ProjectId,mifune_TE0890_remote_board,6d696675-6e65-45f5-9445-303839305f72,rev?*
G04 #@! TF.SameCoordinates,Original*
G04 #@! TF.FileFunction,Copper,L1,Top*
G04 #@! TF.FilePolarity,Positive*
%FSLAX46Y46*%
G04 Gerber Fmt 4.6, Leading zero omitted, Abs format (unit mm)*
G04 Created by KiCad (PCBNEW (5.1.8)-1) date 2021-03-08 00:14:45*
%MOMM*%
%LPD*%
G01*
G04 APERTURE LIST*
G04 #@! TA.AperFunction,SMDPad,CuDef*
%ADD10R,1.475000X0.450000*%
G04 #@! TD*
G04 #@! TA.AperFunction,ComponentPad*
%ADD11C,1.000000*%
G04 #@! TD*
G04 #@! TA.AperFunction,ComponentPad*
%ADD12R,1.700000X1.700000*%
G04 #@! TD*
G04 #@! TA.AperFunction,ComponentPad*
%ADD13O,1.700000X1.700000*%
G04 #@! TD*
G04 #@! TA.AperFunction,ComponentPad*
%ADD14C,1.500000*%
G04 #@! TD*
G04 #@! TA.AperFunction,ComponentPad*
%ADD15C,1.200000*%
G04 #@! TD*
G04 #@! TA.AperFunction,ComponentPad*
%ADD16C,6.400000*%
G04 #@! TD*
G04 #@! TA.AperFunction,ViaPad*
%ADD17C,0.600000*%
G04 #@! TD*
G04 #@! TA.AperFunction,ViaPad*
%ADD18C,0.500000*%
G04 #@! TD*
G04 #@! TA.AperFunction,Conductor*
%ADD19C,0.203200*%
G04 #@! TD*
G04 #@! TA.AperFunction,Conductor*
%ADD20C,0.406400*%
G04 #@! TD*
G04 APERTURE END LIST*
D10*
G04 #@! TO.P,IC1,14*
G04 #@! TO.N,+3.3VA*
X59605400Y-146640000D03*
G04 #@! TO.P,IC1,13*
G04 #@! TO.N,/PI_JTAG_OE*
X59605400Y-147290000D03*
G04 #@! TO.P,IC1,12*
G04 #@! TO.N,Net-(IC1-Pad12)*
X59605400Y-147940000D03*
G04 #@! TO.P,IC1,11*
G04 #@! TO.N,Net-(C4-Pad1)*
X59605400Y-148590000D03*
G04 #@! TO.P,IC1,10*
G04 #@! TO.N,/PI_JTAG_OE*
X59605400Y-149240000D03*
G04 #@! TO.P,IC1,9*
G04 #@! TO.N,Net-(IC1-Pad9)*
X59605400Y-149890000D03*
G04 #@! TO.P,IC1,8*
G04 #@! TO.N,Net-(C3-Pad1)*
X59605400Y-150540000D03*
G04 #@! TO.P,IC1,7*
G04 #@! TO.N,GND*
X53729400Y-150540000D03*
G04 #@! TO.P,IC1,6*
G04 #@! TO.N,Net-(C1-Pad1)*
X53729400Y-149890000D03*
G04 #@! TO.P,IC1,5*
G04 #@! TO.N,Net-(IC1-Pad5)*
X53729400Y-149240000D03*
G04 #@! TO.P,IC1,4*
G04 #@! TO.N,/PI_JTAG_OE*
X53729400Y-148590000D03*
G04 #@! TO.P,IC1,3*
G04 #@! TO.N,Net-(IC1-Pad3)*
X53729400Y-147940000D03*
G04 #@! TO.P,IC1,2*
G04 #@! TO.N,Net-(IC1-Pad2)*
X53729400Y-147290000D03*
G04 #@! TO.P,IC1,1*
G04 #@! TO.N,GND*
X53729400Y-146640000D03*
G04 #@! TD*
G04 #@! TO.P,R10,2*
G04 #@! TO.N,Net-(IC1-Pad12)*
G04 #@! TA.AperFunction,SMDPad,CuDef*
G36*
G01*
X91092401Y-176765000D02*
X90192399Y-176765000D01*
G75*
G02*
X89942400Y-176515001I0J249999D01*
G01*
X89942400Y-175814999D01*
G75*
G02*
X90192399Y-175565000I249999J0D01*
G01*
X91092401Y-175565000D01*
G75*
G02*
X91342400Y-175814999I0J-249999D01*
G01*
X91342400Y-176515001D01*
G75*
G02*
X91092401Y-176765000I-249999J0D01*
G01*
G37*
G04 #@! TD.AperFunction*
G04 #@! TO.P,R10,1*
G04 #@! TO.N,/PI_JTAG_TCK_SRC*
G04 #@! TA.AperFunction,SMDPad,CuDef*
G36*
G01*
X91092401Y-178765000D02*
X90192399Y-178765000D01*
G75*
G02*
X89942400Y-178515001I0J249999D01*
G01*
X89942400Y-177814999D01*
G75*
G02*
X90192399Y-177565000I249999J0D01*
G01*
X91092401Y-177565000D01*
G75*
G02*
X91342400Y-177814999I0J-249999D01*
G01*
X91342400Y-178515001D01*
G75*
G02*
X91092401Y-178765000I-249999J0D01*
G01*
G37*
G04 #@! TD.AperFunction*
G04 #@! TD*
D11*
G04 #@! TO.P,U6,80*
G04 #@! TO.N,PORT_H0*
X88953000Y-129057000D03*
G04 #@! TO.P,U6,1*
G04 #@! TO.N,PORT_A0*
X88953000Y-154457000D03*
G04 #@! TO.P,U6,79*
G04 #@! TO.N,PORT_H4*
X90223000Y-129057000D03*
G04 #@! TO.P,U6,2*
G04 #@! TO.N,PORT_A4*
X90223000Y-154457000D03*
G04 #@! TO.P,U6,78*
G04 #@! TO.N,PORT_H1*
X91493000Y-129057000D03*
G04 #@! TO.P,U6,3*
G04 #@! TO.N,PORT_A1*
X91493000Y-154457000D03*
G04 #@! TO.P,U6,77*
G04 #@! TO.N,PORT_H5*
X92763000Y-129057000D03*
G04 #@! TO.P,U6,4*
G04 #@! TO.N,PORT_A5*
X92763000Y-154457000D03*
G04 #@! TO.P,U6,76*
G04 #@! TO.N,PORT_H2*
X94033000Y-129057000D03*
G04 #@! TO.P,U6,5*
G04 #@! TO.N,PORT_A2*
X94033000Y-154457000D03*
G04 #@! TO.P,U6,75*
G04 #@! TO.N,PORT_H6*
X95303000Y-129057000D03*
G04 #@! TO.P,U6,6*
G04 #@! TO.N,PORT_A6*
X95303000Y-154457000D03*
G04 #@! TO.P,U6,74*
G04 #@! TO.N,PORT_H3*
X96573000Y-129057000D03*
G04 #@! TO.P,U6,7*
G04 #@! TO.N,PORT_A3*
X96573000Y-154457000D03*
G04 #@! TO.P,U6,73*
G04 #@! TO.N,PORT_H7*
X97843000Y-129057000D03*
G04 #@! TO.P,U6,8*
G04 #@! TO.N,PORT_A7*
X97843000Y-154457000D03*
G04 #@! TO.P,U6,72*
G04 #@! TO.N,GND*
X99113000Y-129057000D03*
G04 #@! TO.P,U6,9*
X99113000Y-154457000D03*
G04 #@! TO.P,U6,71*
X100383000Y-129057000D03*
G04 #@! TO.P,U6,10*
X100383000Y-154457000D03*
G04 #@! TO.P,U6,70*
G04 #@! TO.N,PORT_G0*
X101653000Y-129057000D03*
G04 #@! TO.P,U6,11*
G04 #@! TO.N,PORT_B0*
X101653000Y-154457000D03*
G04 #@! TO.P,U6,69*
G04 #@! TO.N,PORT_G4*
X102923000Y-129057000D03*
G04 #@! TO.P,U6,12*
G04 #@! TO.N,PORT_B4*
X102923000Y-154457000D03*
G04 #@! TO.P,U6,68*
G04 #@! TO.N,PORT_G1*
X104193000Y-129057000D03*
G04 #@! TO.P,U6,13*
G04 #@! TO.N,PORT_B1*
X104193000Y-154457000D03*
G04 #@! TO.P,U6,67*
G04 #@! TO.N,PORT_G5*
X105463000Y-129057000D03*
G04 #@! TO.P,U6,14*
G04 #@! TO.N,PORT_B5*
X105463000Y-154457000D03*
G04 #@! TO.P,U6,66*
G04 #@! TO.N,PORT_G2*
X106733000Y-129057000D03*
G04 #@! TO.P,U6,15*
G04 #@! TO.N,PORT_B2*
X106733000Y-154457000D03*
G04 #@! TO.P,U6,65*
G04 #@! TO.N,PORT_G6*
X108003000Y-129057000D03*
G04 #@! TO.P,U6,16*
G04 #@! TO.N,PORT_B6*
X108003000Y-154457000D03*
G04 #@! TO.P,U6,64*
G04 #@! TO.N,PORT_G3*
X109273000Y-129057000D03*
G04 #@! TO.P,U6,17*
G04 #@! TO.N,PORT_B3*
X109273000Y-154457000D03*
G04 #@! TO.P,U6,63*
G04 #@! TO.N,PORT_G7*
X110543000Y-129057000D03*
G04 #@! TO.P,U6,18*
G04 #@! TO.N,PORT_B7*
X110543000Y-154457000D03*
G04 #@! TO.P,U6,62*
G04 #@! TO.N,+3.3VA*
X111813000Y-129057000D03*
G04 #@! TO.P,U6,19*
X111813000Y-154457000D03*
G04 #@! TO.P,U6,61*
G04 #@! TO.N,GND*
X113083000Y-129057000D03*
G04 #@! TO.P,U6,20*
X113083000Y-154457000D03*
G04 #@! TO.P,U6,60*
G04 #@! TO.N,PORT_F0*
X114353000Y-129057000D03*
G04 #@! TO.P,U6,21*
G04 #@! TO.N,PORT_C0*
X114353000Y-154457000D03*
G04 #@! TO.P,U6,59*
G04 #@! TO.N,PORT_F4*
X115623000Y-129057000D03*
G04 #@! TO.P,U6,22*
G04 #@! TO.N,PORT_C4*
X115623000Y-154457000D03*
G04 #@! TO.P,U6,58*
G04 #@! TO.N,PORT_F1*
X116893000Y-129057000D03*
G04 #@! TO.P,U6,23*
G04 #@! TO.N,PORT_C1*
X116893000Y-154457000D03*
G04 #@! TO.P,U6,57*
G04 #@! TO.N,PORT_F5*
X118163000Y-129057000D03*
G04 #@! TO.P,U6,24*
G04 #@! TO.N,PORT_C5*
X118163000Y-154457000D03*
G04 #@! TO.P,U6,56*
G04 #@! TO.N,PORT_F2*
X119433000Y-129057000D03*
G04 #@! TO.P,U6,25*
G04 #@! TO.N,PORT_C2*
X119433000Y-154457000D03*
G04 #@! TO.P,U6,55*
G04 #@! TO.N,PORT_F6*
X120703000Y-129057000D03*
G04 #@! TO.P,U6,26*
G04 #@! TO.N,PORT_C6*
X120703000Y-154457000D03*
G04 #@! TO.P,U6,54*
G04 #@! TO.N,PORT_F3*
X121973000Y-129057000D03*
G04 #@! TO.P,U6,27*
G04 #@! TO.N,PORT_C3*
X121973000Y-154457000D03*
G04 #@! TO.P,U6,53*
G04 #@! TO.N,PORT_F7*
X123243000Y-129057000D03*
G04 #@! TO.P,U6,28*
G04 #@! TO.N,PORT_C7*
X123243000Y-154457000D03*
G04 #@! TO.P,U6,52*
G04 #@! TO.N,GND*
X124513000Y-129057000D03*
G04 #@! TO.P,U6,29*
X124513000Y-154457000D03*
G04 #@! TO.P,U6,51*
X125783000Y-129057000D03*
G04 #@! TO.P,U6,30*
X125783000Y-154457000D03*
G04 #@! TO.P,U6,50*
G04 #@! TO.N,PORT_E0*
X127053000Y-129057000D03*
G04 #@! TO.P,U6,31*
G04 #@! TO.N,PORT_D0*
X127053000Y-154457000D03*
G04 #@! TO.P,U6,49*
G04 #@! TO.N,PORT_E4*
X128323000Y-129057000D03*
G04 #@! TO.P,U6,32*
G04 #@! TO.N,PORT_D4*
X128323000Y-154457000D03*
G04 #@! TO.P,U6,48*
G04 #@! TO.N,PORT_E1*
X129593000Y-129057000D03*
G04 #@! TO.P,U6,33*
G04 #@! TO.N,PORT_D1*
X129593000Y-154457000D03*
G04 #@! TO.P,U6,47*
G04 #@! TO.N,PORT_E5*
X130863000Y-129057000D03*
G04 #@! TO.P,U6,34*
G04 #@! TO.N,PORT_D5*
X130863000Y-154457000D03*
G04 #@! TO.P,U6,46*
G04 #@! TO.N,PORT_E2*
X132133000Y-129057000D03*
G04 #@! TO.P,U6,35*
G04 #@! TO.N,PORT_D2*
X132133000Y-154457000D03*
G04 #@! TO.P,U6,45*
G04 #@! TO.N,PORT_E6*
X133403000Y-129057000D03*
G04 #@! TO.P,U6,36*
G04 #@! TO.N,PORT_D6*
X133403000Y-154457000D03*
G04 #@! TO.P,U6,44*
G04 #@! TO.N,PORT_E3*
X134673000Y-129057000D03*
G04 #@! TO.P,U6,37*
G04 #@! TO.N,PORT_D3*
X134673000Y-154457000D03*
G04 #@! TO.P,U6,43*
G04 #@! TO.N,PORT_E7*
X135943000Y-129057000D03*
G04 #@! TO.P,U6,38*
G04 #@! TO.N,PORT_D7*
X135943000Y-154457000D03*
G04 #@! TO.P,U6,42*
G04 #@! TO.N,+5V*
X137213000Y-129057000D03*
G04 #@! TO.P,U6,39*
X137213000Y-154457000D03*
G04 #@! TO.P,U6,41*
G04 #@! TO.N,GND*
X138483000Y-129057000D03*
G04 #@! TO.P,U6,40*
X138483000Y-154457000D03*
G04 #@! TD*
G04 #@! TO.P,U3,40*
G04 #@! TO.N,GND*
X138481000Y-107587800D03*
G04 #@! TO.P,U3,41*
X138481000Y-82187800D03*
G04 #@! TO.P,U3,39*
G04 #@! TO.N,+5V*
X137211000Y-107587800D03*
G04 #@! TO.P,U3,42*
X137211000Y-82187800D03*
G04 #@! TO.P,U3,38*
G04 #@! TO.N,PORT_D7*
X135941000Y-107587800D03*
G04 #@! TO.P,U3,43*
G04 #@! TO.N,PORT_E7*
X135941000Y-82187800D03*
G04 #@! TO.P,U3,37*
G04 #@! TO.N,PORT_D3*
X134671000Y-107587800D03*
G04 #@! TO.P,U3,44*
G04 #@! TO.N,PORT_E3*
X134671000Y-82187800D03*
G04 #@! TO.P,U3,36*
G04 #@! TO.N,PORT_D6*
X133401000Y-107587800D03*
G04 #@! TO.P,U3,45*
G04 #@! TO.N,PORT_E6*
X133401000Y-82187800D03*
G04 #@! TO.P,U3,35*
G04 #@! TO.N,PORT_D2*
X132131000Y-107587800D03*
G04 #@! TO.P,U3,46*
G04 #@! TO.N,PORT_E2*
X132131000Y-82187800D03*
G04 #@! TO.P,U3,34*
G04 #@! TO.N,PORT_D5*
X130861000Y-107587800D03*
G04 #@! TO.P,U3,47*
G04 #@! TO.N,PORT_E5*
X130861000Y-82187800D03*
G04 #@! TO.P,U3,33*
G04 #@! TO.N,PORT_D1*
X129591000Y-107587800D03*
G04 #@! TO.P,U3,48*
G04 #@! TO.N,PORT_E1*
X129591000Y-82187800D03*
G04 #@! TO.P,U3,32*
G04 #@! TO.N,PORT_D4*
X128321000Y-107587800D03*
G04 #@! TO.P,U3,49*
G04 #@! TO.N,PORT_E4*
X128321000Y-82187800D03*
G04 #@! TO.P,U3,31*
G04 #@! TO.N,PORT_D0*
X127051000Y-107587800D03*
G04 #@! TO.P,U3,50*
G04 #@! TO.N,PORT_E0*
X127051000Y-82187800D03*
G04 #@! TO.P,U3,30*
G04 #@! TO.N,GND*
X125781000Y-107587800D03*
G04 #@! TO.P,U3,51*
X125781000Y-82187800D03*
G04 #@! TO.P,U3,29*
X124511000Y-107587800D03*
G04 #@! TO.P,U3,52*
X124511000Y-82187800D03*
G04 #@! TO.P,U3,28*
G04 #@! TO.N,PORT_C7*
X123241000Y-107587800D03*
G04 #@! TO.P,U3,53*
G04 #@! TO.N,PORT_F7*
X123241000Y-82187800D03*
G04 #@! TO.P,U3,27*
G04 #@! TO.N,PORT_C3*
X121971000Y-107587800D03*
G04 #@! TO.P,U3,54*
G04 #@! TO.N,PORT_F3*
X121971000Y-82187800D03*
G04 #@! TO.P,U3,26*
G04 #@! TO.N,PORT_C6*
X120701000Y-107587800D03*
G04 #@! TO.P,U3,55*
G04 #@! TO.N,PORT_F6*
X120701000Y-82187800D03*
G04 #@! TO.P,U3,25*
G04 #@! TO.N,PORT_C2*
X119431000Y-107587800D03*
G04 #@! TO.P,U3,56*
G04 #@! TO.N,PORT_F2*
X119431000Y-82187800D03*
G04 #@! TO.P,U3,24*
G04 #@! TO.N,PORT_C5*
X118161000Y-107587800D03*
G04 #@! TO.P,U3,57*
G04 #@! TO.N,PORT_F5*
X118161000Y-82187800D03*
G04 #@! TO.P,U3,23*
G04 #@! TO.N,PORT_C1*
X116891000Y-107587800D03*
G04 #@! TO.P,U3,58*
G04 #@! TO.N,PORT_F1*
X116891000Y-82187800D03*
G04 #@! TO.P,U3,22*
G04 #@! TO.N,PORT_C4*
X115621000Y-107587800D03*
G04 #@! TO.P,U3,59*
G04 #@! TO.N,PORT_F4*
X115621000Y-82187800D03*
G04 #@! TO.P,U3,21*
G04 #@! TO.N,PORT_C0*
X114351000Y-107587800D03*
G04 #@! TO.P,U3,60*
G04 #@! TO.N,PORT_F0*
X114351000Y-82187800D03*
G04 #@! TO.P,U3,20*
G04 #@! TO.N,GND*
X113081000Y-107587800D03*
G04 #@! TO.P,U3,61*
X113081000Y-82187800D03*
G04 #@! TO.P,U3,19*
G04 #@! TO.N,+3.3VP*
X111811000Y-107587800D03*
G04 #@! TO.P,U3,62*
X111811000Y-82187800D03*
G04 #@! TO.P,U3,18*
G04 #@! TO.N,PORT_B7*
X110541000Y-107587800D03*
G04 #@! TO.P,U3,63*
G04 #@! TO.N,PORT_G7*
X110541000Y-82187800D03*
G04 #@! TO.P,U3,17*
G04 #@! TO.N,PORT_B3*
X109271000Y-107587800D03*
G04 #@! TO.P,U3,64*
G04 #@! TO.N,PORT_G3*
X109271000Y-82187800D03*
G04 #@! TO.P,U3,16*
G04 #@! TO.N,PORT_B6*
X108001000Y-107587800D03*
G04 #@! TO.P,U3,65*
G04 #@! TO.N,PORT_G6*
X108001000Y-82187800D03*
G04 #@! TO.P,U3,15*
G04 #@! TO.N,PORT_B2*
X106731000Y-107587800D03*
G04 #@! TO.P,U3,66*
G04 #@! TO.N,PORT_G2*
X106731000Y-82187800D03*
G04 #@! TO.P,U3,14*
G04 #@! TO.N,PORT_B5*
X105461000Y-107587800D03*
G04 #@! TO.P,U3,67*
G04 #@! TO.N,PORT_G5*
X105461000Y-82187800D03*
G04 #@! TO.P,U3,13*
G04 #@! TO.N,PORT_B1*
X104191000Y-107587800D03*
G04 #@! TO.P,U3,68*
G04 #@! TO.N,PORT_G1*
X104191000Y-82187800D03*
G04 #@! TO.P,U3,12*
G04 #@! TO.N,PORT_B4*
X102921000Y-107587800D03*
G04 #@! TO.P,U3,69*
G04 #@! TO.N,PORT_G4*
X102921000Y-82187800D03*
G04 #@! TO.P,U3,11*
G04 #@! TO.N,PORT_B0*
X101651000Y-107587800D03*
G04 #@! TO.P,U3,70*
G04 #@! TO.N,PORT_G0*
X101651000Y-82187800D03*
G04 #@! TO.P,U3,10*
G04 #@! TO.N,GND*
X100381000Y-107587800D03*
G04 #@! TO.P,U3,71*
X100381000Y-82187800D03*
G04 #@! TO.P,U3,9*
X99111000Y-107587800D03*
G04 #@! TO.P,U3,72*
X99111000Y-82187800D03*
G04 #@! TO.P,U3,8*
G04 #@! TO.N,PORT_A7*
X97841000Y-107587800D03*
G04 #@! TO.P,U3,73*
G04 #@! TO.N,PORT_H7*
X97841000Y-82187800D03*
G04 #@! TO.P,U3,7*
G04 #@! TO.N,PORT_A3*
X96571000Y-107587800D03*
G04 #@! TO.P,U3,74*
G04 #@! TO.N,PORT_H3*
X96571000Y-82187800D03*
G04 #@! TO.P,U3,6*
G04 #@! TO.N,PORT_A6*
X95301000Y-107587800D03*
G04 #@! TO.P,U3,75*
G04 #@! TO.N,PORT_H6*
X95301000Y-82187800D03*
G04 #@! TO.P,U3,5*
G04 #@! TO.N,PORT_A2*
X94031000Y-107587800D03*
G04 #@! TO.P,U3,76*
G04 #@! TO.N,PORT_H2*
X94031000Y-82187800D03*
G04 #@! TO.P,U3,4*
G04 #@! TO.N,PORT_A5*
X92761000Y-107587800D03*
G04 #@! TO.P,U3,77*
G04 #@! TO.N,PORT_H5*
X92761000Y-82187800D03*
G04 #@! TO.P,U3,3*
G04 #@! TO.N,PORT_A1*
X91491000Y-107587800D03*
G04 #@! TO.P,U3,78*
G04 #@! TO.N,PORT_H1*
X91491000Y-82187800D03*
G04 #@! TO.P,U3,2*
G04 #@! TO.N,PORT_A4*
X90221000Y-107587800D03*
G04 #@! TO.P,U3,79*
G04 #@! TO.N,PORT_H4*
X90221000Y-82187800D03*
G04 #@! TO.P,U3,1*
G04 #@! TO.N,PORT_A0*
X88951000Y-107587800D03*
G04 #@! TO.P,U3,80*
G04 #@! TO.N,PORT_H0*
X88951000Y-82187800D03*
G04 #@! TD*
G04 #@! TO.P,C1,1*
G04 #@! TO.N,Net-(C1-Pad1)*
G04 #@! TA.AperFunction,SMDPad,CuDef*
G36*
G01*
X51133500Y-152560000D02*
X51133500Y-153510000D01*
G75*
G02*
X50883500Y-153760000I-250000J0D01*
G01*
X50208500Y-153760000D01*
G75*
G02*
X49958500Y-153510000I0J250000D01*
G01*
X49958500Y-152560000D01*
G75*
G02*
X50208500Y-152310000I250000J0D01*
G01*
X50883500Y-152310000D01*
G75*
G02*
X51133500Y-152560000I0J-250000D01*
G01*
G37*
G04 #@! TD.AperFunction*
G04 #@! TO.P,C1,2*
G04 #@! TO.N,GND*
G04 #@! TA.AperFunction,SMDPad,CuDef*
G36*
G01*
X49058500Y-152560000D02*
X49058500Y-153510000D01*
G75*
G02*
X48808500Y-153760000I-250000J0D01*
G01*
X48133500Y-153760000D01*
G75*
G02*
X47883500Y-153510000I0J250000D01*
G01*
X47883500Y-152560000D01*
G75*
G02*
X48133500Y-152310000I250000J0D01*
G01*
X48808500Y-152310000D01*
G75*
G02*
X49058500Y-152560000I0J-250000D01*
G01*
G37*
G04 #@! TD.AperFunction*
G04 #@! TD*
G04 #@! TO.P,C2,1*
G04 #@! TO.N,Net-(C2-Pad1)*
G04 #@! TA.AperFunction,SMDPad,CuDef*
G36*
G01*
X62277500Y-159225000D02*
X62277500Y-158275000D01*
G75*
G02*
X62527500Y-158025000I250000J0D01*
G01*
X63202500Y-158025000D01*
G75*
G02*
X63452500Y-158275000I0J-250000D01*
G01*
X63452500Y-159225000D01*
G75*
G02*
X63202500Y-159475000I-250000J0D01*
G01*
X62527500Y-159475000D01*
G75*
G02*
X62277500Y-159225000I0J250000D01*
G01*
G37*
G04 #@! TD.AperFunction*
G04 #@! TO.P,C2,2*
G04 #@! TO.N,GND*
G04 #@! TA.AperFunction,SMDPad,CuDef*
G36*
G01*
X64352500Y-159225000D02*
X64352500Y-158275000D01*
G75*
G02*
X64602500Y-158025000I250000J0D01*
G01*
X65277500Y-158025000D01*
G75*
G02*
X65527500Y-158275000I0J-250000D01*
G01*
X65527500Y-159225000D01*
G75*
G02*
X65277500Y-159475000I-250000J0D01*
G01*
X64602500Y-159475000D01*
G75*
G02*
X64352500Y-159225000I0J250000D01*
G01*
G37*
G04 #@! TD.AperFunction*
G04 #@! TD*
G04 #@! TO.P,C3,2*
G04 #@! TO.N,GND*
G04 #@! TA.AperFunction,SMDPad,CuDef*
G36*
G01*
X64276300Y-154145000D02*
X64276300Y-153195000D01*
G75*
G02*
X64526300Y-152945000I250000J0D01*
G01*
X65201300Y-152945000D01*
G75*
G02*
X65451300Y-153195000I0J-250000D01*
G01*
X65451300Y-154145000D01*
G75*
G02*
X65201300Y-154395000I-250000J0D01*
G01*
X64526300Y-154395000D01*
G75*
G02*
X64276300Y-154145000I0J250000D01*
G01*
G37*
G04 #@! TD.AperFunction*
G04 #@! TO.P,C3,1*
G04 #@! TO.N,Net-(C3-Pad1)*
G04 #@! TA.AperFunction,SMDPad,CuDef*
G36*
G01*
X62201300Y-154145000D02*
X62201300Y-153195000D01*
G75*
G02*
X62451300Y-152945000I250000J0D01*
G01*
X63126300Y-152945000D01*
G75*
G02*
X63376300Y-153195000I0J-250000D01*
G01*
X63376300Y-154145000D01*
G75*
G02*
X63126300Y-154395000I-250000J0D01*
G01*
X62451300Y-154395000D01*
G75*
G02*
X62201300Y-154145000I0J250000D01*
G01*
G37*
G04 #@! TD.AperFunction*
G04 #@! TD*
G04 #@! TO.P,C4,2*
G04 #@! TO.N,GND*
G04 #@! TA.AperFunction,SMDPad,CuDef*
G36*
G01*
X64352500Y-145890000D02*
X64352500Y-144940000D01*
G75*
G02*
X64602500Y-144690000I250000J0D01*
G01*
X65277500Y-144690000D01*
G75*
G02*
X65527500Y-144940000I0J-250000D01*
G01*
X65527500Y-145890000D01*
G75*
G02*
X65277500Y-146140000I-250000J0D01*
G01*
X64602500Y-146140000D01*
G75*
G02*
X64352500Y-145890000I0J250000D01*
G01*
G37*
G04 #@! TD.AperFunction*
G04 #@! TO.P,C4,1*
G04 #@! TO.N,Net-(C4-Pad1)*
G04 #@! TA.AperFunction,SMDPad,CuDef*
G36*
G01*
X62277500Y-145890000D02*
X62277500Y-144940000D01*
G75*
G02*
X62527500Y-144690000I250000J0D01*
G01*
X63202500Y-144690000D01*
G75*
G02*
X63452500Y-144940000I0J-250000D01*
G01*
X63452500Y-145890000D01*
G75*
G02*
X63202500Y-146140000I-250000J0D01*
G01*
X62527500Y-146140000D01*
G75*
G02*
X62277500Y-145890000I0J250000D01*
G01*
G37*
G04 #@! TD.AperFunction*
G04 #@! TD*
G04 #@! TO.P,C5,1*
G04 #@! TO.N,+3.3VA*
G04 #@! TA.AperFunction,SMDPad,CuDef*
G36*
G01*
X60201300Y-143822000D02*
X60201300Y-144772000D01*
G75*
G02*
X59951300Y-145022000I-250000J0D01*
G01*
X59276300Y-145022000D01*
G75*
G02*
X59026300Y-144772000I0J250000D01*
G01*
X59026300Y-143822000D01*
G75*
G02*
X59276300Y-143572000I250000J0D01*
G01*
X59951300Y-143572000D01*
G75*
G02*
X60201300Y-143822000I0J-250000D01*
G01*
G37*
G04 #@! TD.AperFunction*
G04 #@! TO.P,C5,2*
G04 #@! TO.N,GND*
G04 #@! TA.AperFunction,SMDPad,CuDef*
G36*
G01*
X58126300Y-143822000D02*
X58126300Y-144772000D01*
G75*
G02*
X57876300Y-145022000I-250000J0D01*
G01*
X57201300Y-145022000D01*
G75*
G02*
X56951300Y-144772000I0J250000D01*
G01*
X56951300Y-143822000D01*
G75*
G02*
X57201300Y-143572000I250000J0D01*
G01*
X57876300Y-143572000D01*
G75*
G02*
X58126300Y-143822000I0J-250000D01*
G01*
G37*
G04 #@! TD.AperFunction*
G04 #@! TD*
G04 #@! TO.P,C6,2*
G04 #@! TO.N,GND*
G04 #@! TA.AperFunction,SMDPad,CuDef*
G36*
G01*
X57674000Y-157259000D02*
X57674000Y-158209000D01*
G75*
G02*
X57424000Y-158459000I-250000J0D01*
G01*
X56749000Y-158459000D01*
G75*
G02*
X56499000Y-158209000I0J250000D01*
G01*
X56499000Y-157259000D01*
G75*
G02*
X56749000Y-157009000I250000J0D01*
G01*
X57424000Y-157009000D01*
G75*
G02*
X57674000Y-157259000I0J-250000D01*
G01*
G37*
G04 #@! TD.AperFunction*
G04 #@! TO.P,C6,1*
G04 #@! TO.N,+3V3*
G04 #@! TA.AperFunction,SMDPad,CuDef*
G36*
G01*
X59749000Y-157259000D02*
X59749000Y-158209000D01*
G75*
G02*
X59499000Y-158459000I-250000J0D01*
G01*
X58824000Y-158459000D01*
G75*
G02*
X58574000Y-158209000I0J250000D01*
G01*
X58574000Y-157259000D01*
G75*
G02*
X58824000Y-157009000I250000J0D01*
G01*
X59499000Y-157009000D01*
G75*
G02*
X59749000Y-157259000I0J-250000D01*
G01*
G37*
G04 #@! TD.AperFunction*
G04 #@! TD*
G04 #@! TO.P,D1,2*
G04 #@! TO.N,Net-(D1-Pad2)*
G04 #@! TA.AperFunction,SMDPad,CuDef*
G36*
G01*
X57334999Y-173379000D02*
X58235001Y-173379000D01*
G75*
G02*
X58485000Y-173628999I0J-249999D01*
G01*
X58485000Y-174279001D01*
G75*
G02*
X58235001Y-174529000I-249999J0D01*
G01*
X57334999Y-174529000D01*
G75*
G02*
X57085000Y-174279001I0J249999D01*
G01*
X57085000Y-173628999D01*
G75*
G02*
X57334999Y-173379000I249999J0D01*
G01*
G37*
G04 #@! TD.AperFunction*
G04 #@! TO.P,D1,1*
G04 #@! TO.N,GND*
G04 #@! TA.AperFunction,SMDPad,CuDef*
G36*
G01*
X57334999Y-171329000D02*
X58235001Y-171329000D01*
G75*
G02*
X58485000Y-171578999I0J-249999D01*
G01*
X58485000Y-172229001D01*
G75*
G02*
X58235001Y-172479000I-249999J0D01*
G01*
X57334999Y-172479000D01*
G75*
G02*
X57085000Y-172229001I0J249999D01*
G01*
X57085000Y-171578999D01*
G75*
G02*
X57334999Y-171329000I249999J0D01*
G01*
G37*
G04 #@! TD.AperFunction*
G04 #@! TD*
G04 #@! TO.P,D2,1*
G04 #@! TO.N,GND*
G04 #@! TA.AperFunction,SMDPad,CuDef*
G36*
G01*
X53524999Y-171329000D02*
X54425001Y-171329000D01*
G75*
G02*
X54675000Y-171578999I0J-249999D01*
G01*
X54675000Y-172229001D01*
G75*
G02*
X54425001Y-172479000I-249999J0D01*
G01*
X53524999Y-172479000D01*
G75*
G02*
X53275000Y-172229001I0J249999D01*
G01*
X53275000Y-171578999D01*
G75*
G02*
X53524999Y-171329000I249999J0D01*
G01*
G37*
G04 #@! TD.AperFunction*
G04 #@! TO.P,D2,2*
G04 #@! TO.N,Net-(D2-Pad2)*
G04 #@! TA.AperFunction,SMDPad,CuDef*
G36*
G01*
X53524999Y-173379000D02*
X54425001Y-173379000D01*
G75*
G02*
X54675000Y-173628999I0J-249999D01*
G01*
X54675000Y-174279001D01*
G75*
G02*
X54425001Y-174529000I-249999J0D01*
G01*
X53524999Y-174529000D01*
G75*
G02*
X53275000Y-174279001I0J249999D01*
G01*
X53275000Y-173628999D01*
G75*
G02*
X53524999Y-173379000I249999J0D01*
G01*
G37*
G04 #@! TD.AperFunction*
G04 #@! TD*
G04 #@! TO.P,D3,2*
G04 #@! TO.N,Net-(D3-Pad2)*
G04 #@! TA.AperFunction,SMDPad,CuDef*
G36*
G01*
X49714999Y-173379000D02*
X50615001Y-173379000D01*
G75*
G02*
X50865000Y-173628999I0J-249999D01*
G01*
X50865000Y-174279001D01*
G75*
G02*
X50615001Y-174529000I-249999J0D01*
G01*
X49714999Y-174529000D01*
G75*
G02*
X49465000Y-174279001I0J249999D01*
G01*
X49465000Y-173628999D01*
G75*
G02*
X49714999Y-173379000I249999J0D01*
G01*
G37*
G04 #@! TD.AperFunction*
G04 #@! TO.P,D3,1*
G04 #@! TO.N,GND*
G04 #@! TA.AperFunction,SMDPad,CuDef*
G36*
G01*
X49714999Y-171329000D02*
X50615001Y-171329000D01*
G75*
G02*
X50865000Y-171578999I0J-249999D01*
G01*
X50865000Y-172229001D01*
G75*
G02*
X50615001Y-172479000I-249999J0D01*
G01*
X49714999Y-172479000D01*
G75*
G02*
X49465000Y-172229001I0J249999D01*
G01*
X49465000Y-171578999D01*
G75*
G02*
X49714999Y-171329000I249999J0D01*
G01*
G37*
G04 #@! TD.AperFunction*
G04 #@! TD*
G04 #@! TO.P,D4,1*
G04 #@! TO.N,GND*
G04 #@! TA.AperFunction,SMDPad,CuDef*
G36*
G01*
X45904999Y-171329000D02*
X46805001Y-171329000D01*
G75*
G02*
X47055000Y-171578999I0J-249999D01*
G01*
X47055000Y-172229001D01*
G75*
G02*
X46805001Y-172479000I-249999J0D01*
G01*
X45904999Y-172479000D01*
G75*
G02*
X45655000Y-172229001I0J249999D01*
G01*
X45655000Y-171578999D01*
G75*
G02*
X45904999Y-171329000I249999J0D01*
G01*
G37*
G04 #@! TD.AperFunction*
G04 #@! TO.P,D4,2*
G04 #@! TO.N,Net-(D4-Pad2)*
G04 #@! TA.AperFunction,SMDPad,CuDef*
G36*
G01*
X45904999Y-173379000D02*
X46805001Y-173379000D01*
G75*
G02*
X47055000Y-173628999I0J-249999D01*
G01*
X47055000Y-174279001D01*
G75*
G02*
X46805001Y-174529000I-249999J0D01*
G01*
X45904999Y-174529000D01*
G75*
G02*
X45655000Y-174279001I0J249999D01*
G01*
X45655000Y-173628999D01*
G75*
G02*
X45904999Y-173379000I249999J0D01*
G01*
G37*
G04 #@! TD.AperFunction*
G04 #@! TD*
D10*
G04 #@! TO.P,IC2,1*
G04 #@! TO.N,GND*
X53272200Y-159975000D03*
G04 #@! TO.P,IC2,2*
G04 #@! TO.N,Net-(IC2-Pad2)*
X53272200Y-160625000D03*
G04 #@! TO.P,IC2,3*
G04 #@! TO.N,Net-(IC2-Pad3)*
X53272200Y-161275000D03*
G04 #@! TO.P,IC2,4*
G04 #@! TO.N,GND*
X53272200Y-161925000D03*
G04 #@! TO.P,IC2,5*
G04 #@! TO.N,Net-(IC2-Pad5)*
X53272200Y-162575000D03*
G04 #@! TO.P,IC2,6*
G04 #@! TO.N,Net-(IC2-Pad6)*
X53272200Y-163225000D03*
G04 #@! TO.P,IC2,7*
G04 #@! TO.N,GND*
X53272200Y-163875000D03*
G04 #@! TO.P,IC2,8*
G04 #@! TO.N,Net-(IC2-Pad8)*
X59148200Y-163875000D03*
G04 #@! TO.P,IC2,9*
G04 #@! TO.N,Net-(IC2-Pad9)*
X59148200Y-163225000D03*
G04 #@! TO.P,IC2,10*
G04 #@! TO.N,GND*
X59148200Y-162575000D03*
G04 #@! TO.P,IC2,11*
G04 #@! TO.N,Net-(IC2-Pad11)*
X59148200Y-161925000D03*
G04 #@! TO.P,IC2,12*
G04 #@! TO.N,Net-(C2-Pad1)*
X59148200Y-161275000D03*
G04 #@! TO.P,IC2,13*
G04 #@! TO.N,GND*
X59148200Y-160625000D03*
G04 #@! TO.P,IC2,14*
G04 #@! TO.N,+3V3*
X59148200Y-159975000D03*
G04 #@! TD*
D12*
G04 #@! TO.P,J1,1*
G04 #@! TO.N,+3V3*
X118364000Y-184450000D03*
D13*
G04 #@! TO.P,J1,2*
G04 #@! TO.N,+5V*
X118364000Y-186990000D03*
G04 #@! TO.P,J1,3*
G04 #@! TO.N,/SDA*
X115824000Y-184450000D03*
G04 #@! TO.P,J1,4*
G04 #@! TO.N,+5V*
X115824000Y-186990000D03*
G04 #@! TO.P,J1,5*
G04 #@! TO.N,/SCL*
X113284000Y-184450000D03*
G04 #@! TO.P,J1,6*
G04 #@! TO.N,GND*
X113284000Y-186990000D03*
G04 #@! TO.P,J1,7*
G04 #@! TO.N,/GPIO4*
X110744000Y-184450000D03*
G04 #@! TO.P,J1,8*
G04 #@! TO.N,/PI_TXD_SRC*
X110744000Y-186990000D03*
G04 #@! TO.P,J1,9*
G04 #@! TO.N,GND*
X108204000Y-184450000D03*
G04 #@! TO.P,J1,10*
G04 #@! TO.N,/PI_RXD_DST*
X108204000Y-186990000D03*
G04 #@! TO.P,J1,11*
G04 #@! TO.N,/GPIO17*
X105664000Y-184450000D03*
G04 #@! TO.P,J1,12*
G04 #@! TO.N,/SPI_CE0*
X105664000Y-186990000D03*
G04 #@! TO.P,J1,13*
G04 #@! TO.N,/GPIO27*
X103124000Y-184450000D03*
G04 #@! TO.P,J1,14*
G04 #@! TO.N,GND*
X103124000Y-186990000D03*
G04 #@! TO.P,J1,15*
G04 #@! TO.N,/GPIO22*
X100584000Y-184450000D03*
G04 #@! TO.P,J1,16*
G04 #@! TO.N,/GPIO23*
X100584000Y-186990000D03*
G04 #@! TO.P,J1,17*
G04 #@! TO.N,+3V3*
X98044000Y-184450000D03*
G04 #@! TO.P,J1,18*
G04 #@! TO.N,/GPIO24*
X98044000Y-186990000D03*
G04 #@! TO.P,J1,19*
G04 #@! TO.N,/PI_JTAG_TDI_SRC*
X95504000Y-184450000D03*
G04 #@! TO.P,J1,20*
G04 #@! TO.N,GND*
X95504000Y-186990000D03*
G04 #@! TO.P,J1,21*
G04 #@! TO.N,/PI_JTAG_TDO_DST*
X92964000Y-184450000D03*
G04 #@! TO.P,J1,22*
G04 #@! TO.N,/PI_JTAG_TMS_SRC*
X92964000Y-186990000D03*
G04 #@! TO.P,J1,23*
G04 #@! TO.N,/PI_JTAG_TCK_SRC*
X90424000Y-184450000D03*
G04 #@! TO.P,J1,24*
G04 #@! TO.N,/GPIO8*
X90424000Y-186990000D03*
G04 #@! TO.P,J1,25*
G04 #@! TO.N,GND*
X87884000Y-184450000D03*
G04 #@! TO.P,J1,26*
G04 #@! TO.N,/GPIO7*
X87884000Y-186990000D03*
G04 #@! TO.P,J1,27*
G04 #@! TO.N,Net-(J1-Pad27)*
X85344000Y-184450000D03*
G04 #@! TO.P,J1,28*
G04 #@! TO.N,Net-(J1-Pad28)*
X85344000Y-186990000D03*
G04 #@! TO.P,J1,29*
G04 #@! TO.N,/GPIO5*
X82804000Y-184450000D03*
G04 #@! TO.P,J1,30*
G04 #@! TO.N,GND*
X82804000Y-186990000D03*
G04 #@! TO.P,J1,31*
G04 #@! TO.N,/GPIO6*
X80264000Y-184450000D03*
G04 #@! TO.P,J1,32*
G04 #@! TO.N,/PWM0*
X80264000Y-186990000D03*
G04 #@! TO.P,J1,33*
G04 #@! TO.N,/PWM1*
X77724000Y-184450000D03*
G04 #@! TO.P,J1,34*
G04 #@! TO.N,GND*
X77724000Y-186990000D03*
G04 #@! TO.P,J1,35*
G04 #@! TO.N,/SPI_MISO*
X75184000Y-184450000D03*
G04 #@! TO.P,J1,36*
G04 #@! TO.N,/PI_JTAG_OE*
X75184000Y-186990000D03*
G04 #@! TO.P,J1,37*
G04 #@! TO.N,/GPIO26*
X72644000Y-184450000D03*
G04 #@! TO.P,J1,38*
G04 #@! TO.N,/SPI_MOSI*
X72644000Y-186990000D03*
G04 #@! TO.P,J1,39*
G04 #@! TO.N,GND*
X70104000Y-184450000D03*
G04 #@! TO.P,J1,40*
G04 #@! TO.N,/SPI_SCLK*
X70104000Y-186990000D03*
G04 #@! TD*
D14*
G04 #@! TO.P,J2,1*
G04 #@! TO.N,/SDA*
X131064000Y-181864000D03*
G04 #@! TD*
G04 #@! TO.P,J3,1*
G04 #@! TO.N,/SCL*
X131064000Y-179324000D03*
G04 #@! TD*
G04 #@! TO.P,J4,1*
G04 #@! TO.N,/PWM0*
X137414000Y-181864000D03*
G04 #@! TD*
G04 #@! TO.P,J5,1*
G04 #@! TO.N,/PWM1*
X137414000Y-179324000D03*
G04 #@! TD*
G04 #@! TO.P,J6,1*
G04 #@! TO.N,/GPIO8*
X150114000Y-174244000D03*
G04 #@! TD*
G04 #@! TO.P,J7,1*
G04 #@! TO.N,/GPIO17*
X150114000Y-186944000D03*
G04 #@! TD*
G04 #@! TO.P,J8,1*
G04 #@! TO.N,/GPIO22*
X150114000Y-179324000D03*
G04 #@! TD*
G04 #@! TO.P,J9,1*
G04 #@! TO.N,/GPIO23*
X150114000Y-181864000D03*
G04 #@! TD*
G04 #@! TO.P,J10,1*
G04 #@! TO.N,/GPIO24*
X150114000Y-176784000D03*
G04 #@! TD*
G04 #@! TO.P,J11,1*
G04 #@! TO.N,/GPIO26*
X150114000Y-171704000D03*
G04 #@! TD*
G04 #@! TO.P,J12,1*
G04 #@! TO.N,/GPIO27*
X150139000Y-184404000D03*
G04 #@! TD*
G04 #@! TO.P,J13,1*
G04 #@! TO.N,/SPI_CE0*
X143764000Y-186944000D03*
G04 #@! TD*
G04 #@! TO.P,J14,1*
G04 #@! TO.N,/SPI_MISO*
X143764000Y-184404000D03*
G04 #@! TD*
G04 #@! TO.P,J15,1*
G04 #@! TO.N,/SPI_MOSI*
X143764000Y-181864000D03*
G04 #@! TD*
G04 #@! TO.P,J16,1*
G04 #@! TO.N,/SPI_SCLK*
X143764000Y-179324000D03*
G04 #@! TD*
G04 #@! TO.P,J17,1*
G04 #@! TO.N,Net-(IC2-Pad5)*
X50165000Y-163195000D03*
G04 #@! TD*
G04 #@! TO.P,J18,1*
G04 #@! TO.N,Net-(IC2-Pad6)*
X53975000Y-166370000D03*
G04 #@! TD*
G04 #@! TO.P,J19,1*
G04 #@! TO.N,Net-(IC2-Pad9)*
X62357000Y-163830000D03*
G04 #@! TD*
G04 #@! TO.P,J20,1*
G04 #@! TO.N,Net-(IC2-Pad8)*
X58420000Y-166370000D03*
G04 #@! TD*
G04 #@! TO.P,J21,1*
G04 #@! TO.N,Net-(J21-Pad1)*
X85090000Y-133350000D03*
G04 #@! TD*
G04 #@! TO.P,R1,1*
G04 #@! TO.N,Net-(IC1-Pad5)*
G04 #@! TA.AperFunction,SMDPad,CuDef*
G36*
G01*
X92478399Y-175565000D02*
X93378401Y-175565000D01*
G75*
G02*
X93628400Y-175814999I0J-249999D01*
G01*
X93628400Y-176515001D01*
G75*
G02*
X93378401Y-176765000I-249999J0D01*
G01*
X92478399Y-176765000D01*
G75*
G02*
X92228400Y-176515001I0J249999D01*
G01*
X92228400Y-175814999D01*
G75*
G02*
X92478399Y-175565000I249999J0D01*
G01*
G37*
G04 #@! TD.AperFunction*
G04 #@! TO.P,R1,2*
G04 #@! TO.N,/PI_JTAG_TMS_SRC*
G04 #@! TA.AperFunction,SMDPad,CuDef*
G36*
G01*
X92478399Y-177565000D02*
X93378401Y-177565000D01*
G75*
G02*
X93628400Y-177814999I0J-249999D01*
G01*
X93628400Y-178515001D01*
G75*
G02*
X93378401Y-178765000I-249999J0D01*
G01*
X92478399Y-178765000D01*
G75*
G02*
X92228400Y-178515001I0J249999D01*
G01*
X92228400Y-177814999D01*
G75*
G02*
X92478399Y-177565000I249999J0D01*
G01*
G37*
G04 #@! TD.AperFunction*
G04 #@! TD*
G04 #@! TO.P,R2,2*
G04 #@! TO.N,PI_JTAG_TMS*
G04 #@! TA.AperFunction,SMDPad,CuDef*
G36*
G01*
X49130000Y-150044999D02*
X49130000Y-150945001D01*
G75*
G02*
X48880001Y-151195000I-249999J0D01*
G01*
X48179999Y-151195000D01*
G75*
G02*
X47930000Y-150945001I0J249999D01*
G01*
X47930000Y-150044999D01*
G75*
G02*
X48179999Y-149795000I249999J0D01*
G01*
X48880001Y-149795000D01*
G75*
G02*
X49130000Y-150044999I0J-249999D01*
G01*
G37*
G04 #@! TD.AperFunction*
G04 #@! TO.P,R2,1*
G04 #@! TO.N,Net-(C1-Pad1)*
G04 #@! TA.AperFunction,SMDPad,CuDef*
G36*
G01*
X51130000Y-150044999D02*
X51130000Y-150945001D01*
G75*
G02*
X50880001Y-151195000I-249999J0D01*
G01*
X50179999Y-151195000D01*
G75*
G02*
X49930000Y-150945001I0J249999D01*
G01*
X49930000Y-150044999D01*
G75*
G02*
X50179999Y-149795000I249999J0D01*
G01*
X50880001Y-149795000D01*
G75*
G02*
X51130000Y-150044999I0J-249999D01*
G01*
G37*
G04 #@! TD.AperFunction*
G04 #@! TD*
G04 #@! TO.P,R3,1*
G04 #@! TO.N,/PI_JTAG_TDI_SRC*
G04 #@! TA.AperFunction,SMDPad,CuDef*
G36*
G01*
X97935201Y-178765000D02*
X97035199Y-178765000D01*
G75*
G02*
X96785200Y-178515001I0J249999D01*
G01*
X96785200Y-177814999D01*
G75*
G02*
X97035199Y-177565000I249999J0D01*
G01*
X97935201Y-177565000D01*
G75*
G02*
X98185200Y-177814999I0J-249999D01*
G01*
X98185200Y-178515001D01*
G75*
G02*
X97935201Y-178765000I-249999J0D01*
G01*
G37*
G04 #@! TD.AperFunction*
G04 #@! TO.P,R3,2*
G04 #@! TO.N,Net-(IC1-Pad9)*
G04 #@! TA.AperFunction,SMDPad,CuDef*
G36*
G01*
X97935201Y-176765000D02*
X97035199Y-176765000D01*
G75*
G02*
X96785200Y-176515001I0J249999D01*
G01*
X96785200Y-175814999D01*
G75*
G02*
X97035199Y-175565000I249999J0D01*
G01*
X97935201Y-175565000D01*
G75*
G02*
X98185200Y-175814999I0J-249999D01*
G01*
X98185200Y-176515001D01*
G75*
G02*
X97935201Y-176765000I-249999J0D01*
G01*
G37*
G04 #@! TD.AperFunction*
G04 #@! TD*
G04 #@! TO.P,R4,1*
G04 #@! TO.N,PI_JTAG_TDI*
G04 #@! TA.AperFunction,SMDPad,CuDef*
G36*
G01*
X65370000Y-150679999D02*
X65370000Y-151580001D01*
G75*
G02*
X65120001Y-151830000I-249999J0D01*
G01*
X64419999Y-151830000D01*
G75*
G02*
X64170000Y-151580001I0J249999D01*
G01*
X64170000Y-150679999D01*
G75*
G02*
X64419999Y-150430000I249999J0D01*
G01*
X65120001Y-150430000D01*
G75*
G02*
X65370000Y-150679999I0J-249999D01*
G01*
G37*
G04 #@! TD.AperFunction*
G04 #@! TO.P,R4,2*
G04 #@! TO.N,Net-(C3-Pad1)*
G04 #@! TA.AperFunction,SMDPad,CuDef*
G36*
G01*
X63370000Y-150679999D02*
X63370000Y-151580001D01*
G75*
G02*
X63120001Y-151830000I-249999J0D01*
G01*
X62419999Y-151830000D01*
G75*
G02*
X62170000Y-151580001I0J249999D01*
G01*
X62170000Y-150679999D01*
G75*
G02*
X62419999Y-150430000I249999J0D01*
G01*
X63120001Y-150430000D01*
G75*
G02*
X63370000Y-150679999I0J-249999D01*
G01*
G37*
G04 #@! TD.AperFunction*
G04 #@! TD*
G04 #@! TO.P,R5,2*
G04 #@! TO.N,Net-(C2-Pad1)*
G04 #@! TA.AperFunction,SMDPad,CuDef*
G36*
G01*
X63465000Y-160839999D02*
X63465000Y-161740001D01*
G75*
G02*
X63215001Y-161990000I-249999J0D01*
G01*
X62514999Y-161990000D01*
G75*
G02*
X62265000Y-161740001I0J249999D01*
G01*
X62265000Y-160839999D01*
G75*
G02*
X62514999Y-160590000I249999J0D01*
G01*
X63215001Y-160590000D01*
G75*
G02*
X63465000Y-160839999I0J-249999D01*
G01*
G37*
G04 #@! TD.AperFunction*
G04 #@! TO.P,R5,1*
G04 #@! TO.N,PI_JTAG_TDO*
G04 #@! TA.AperFunction,SMDPad,CuDef*
G36*
G01*
X65465000Y-160839999D02*
X65465000Y-161740001D01*
G75*
G02*
X65215001Y-161990000I-249999J0D01*
G01*
X64514999Y-161990000D01*
G75*
G02*
X64265000Y-161740001I0J249999D01*
G01*
X64265000Y-160839999D01*
G75*
G02*
X64514999Y-160590000I249999J0D01*
G01*
X65215001Y-160590000D01*
G75*
G02*
X65465000Y-160839999I0J-249999D01*
G01*
G37*
G04 #@! TD.AperFunction*
G04 #@! TD*
G04 #@! TO.P,R6,1*
G04 #@! TO.N,/PI_JTAG_TDO_DST*
G04 #@! TA.AperFunction,SMDPad,CuDef*
G36*
G01*
X95664401Y-178781000D02*
X94764399Y-178781000D01*
G75*
G02*
X94514400Y-178531001I0J249999D01*
G01*
X94514400Y-177830999D01*
G75*
G02*
X94764399Y-177581000I249999J0D01*
G01*
X95664401Y-177581000D01*
G75*
G02*
X95914400Y-177830999I0J-249999D01*
G01*
X95914400Y-178531001D01*
G75*
G02*
X95664401Y-178781000I-249999J0D01*
G01*
G37*
G04 #@! TD.AperFunction*
G04 #@! TO.P,R6,2*
G04 #@! TO.N,Net-(IC2-Pad11)*
G04 #@! TA.AperFunction,SMDPad,CuDef*
G36*
G01*
X95664401Y-176781000D02*
X94764399Y-176781000D01*
G75*
G02*
X94514400Y-176531001I0J249999D01*
G01*
X94514400Y-175830999D01*
G75*
G02*
X94764399Y-175581000I249999J0D01*
G01*
X95664401Y-175581000D01*
G75*
G02*
X95914400Y-175830999I0J-249999D01*
G01*
X95914400Y-176531001D01*
G75*
G02*
X95664401Y-176781000I-249999J0D01*
G01*
G37*
G04 #@! TD.AperFunction*
G04 #@! TD*
G04 #@! TO.P,R7,2*
G04 #@! TO.N,/PI_JTAG_OE*
G04 #@! TA.AperFunction,SMDPad,CuDef*
G36*
G01*
X56965001Y-152905000D02*
X56064999Y-152905000D01*
G75*
G02*
X55815000Y-152655001I0J249999D01*
G01*
X55815000Y-151954999D01*
G75*
G02*
X56064999Y-151705000I249999J0D01*
G01*
X56965001Y-151705000D01*
G75*
G02*
X57215000Y-151954999I0J-249999D01*
G01*
X57215000Y-152655001D01*
G75*
G02*
X56965001Y-152905000I-249999J0D01*
G01*
G37*
G04 #@! TD.AperFunction*
G04 #@! TO.P,R7,1*
G04 #@! TO.N,+3V3*
G04 #@! TA.AperFunction,SMDPad,CuDef*
G36*
G01*
X56965001Y-154905000D02*
X56064999Y-154905000D01*
G75*
G02*
X55815000Y-154655001I0J249999D01*
G01*
X55815000Y-153954999D01*
G75*
G02*
X56064999Y-153705000I249999J0D01*
G01*
X56965001Y-153705000D01*
G75*
G02*
X57215000Y-153954999I0J-249999D01*
G01*
X57215000Y-154655001D01*
G75*
G02*
X56965001Y-154905000I-249999J0D01*
G01*
G37*
G04 #@! TD.AperFunction*
G04 #@! TD*
G04 #@! TO.P,R8,2*
G04 #@! TO.N,PI_RXD*
G04 #@! TA.AperFunction,SMDPad,CuDef*
G36*
G01*
X48495000Y-160204999D02*
X48495000Y-161105001D01*
G75*
G02*
X48245001Y-161355000I-249999J0D01*
G01*
X47544999Y-161355000D01*
G75*
G02*
X47295000Y-161105001I0J249999D01*
G01*
X47295000Y-160204999D01*
G75*
G02*
X47544999Y-159955000I249999J0D01*
G01*
X48245001Y-159955000D01*
G75*
G02*
X48495000Y-160204999I0J-249999D01*
G01*
G37*
G04 #@! TD.AperFunction*
G04 #@! TO.P,R8,1*
G04 #@! TO.N,Net-(IC2-Pad2)*
G04 #@! TA.AperFunction,SMDPad,CuDef*
G36*
G01*
X50495000Y-160204999D02*
X50495000Y-161105001D01*
G75*
G02*
X50245001Y-161355000I-249999J0D01*
G01*
X49544999Y-161355000D01*
G75*
G02*
X49295000Y-161105001I0J249999D01*
G01*
X49295000Y-160204999D01*
G75*
G02*
X49544999Y-159955000I249999J0D01*
G01*
X50245001Y-159955000D01*
G75*
G02*
X50495000Y-160204999I0J-249999D01*
G01*
G37*
G04 #@! TD.AperFunction*
G04 #@! TD*
G04 #@! TO.P,R9,1*
G04 #@! TO.N,Net-(IC2-Pad3)*
G04 #@! TA.AperFunction,SMDPad,CuDef*
G36*
G01*
X106534999Y-175574000D02*
X107435001Y-175574000D01*
G75*
G02*
X107685000Y-175823999I0J-249999D01*
G01*
X107685000Y-176524001D01*
G75*
G02*
X107435001Y-176774000I-249999J0D01*
G01*
X106534999Y-176774000D01*
G75*
G02*
X106285000Y-176524001I0J249999D01*
G01*
X106285000Y-175823999D01*
G75*
G02*
X106534999Y-175574000I249999J0D01*
G01*
G37*
G04 #@! TD.AperFunction*
G04 #@! TO.P,R9,2*
G04 #@! TO.N,/PI_RXD_DST*
G04 #@! TA.AperFunction,SMDPad,CuDef*
G36*
G01*
X106534999Y-177574000D02*
X107435001Y-177574000D01*
G75*
G02*
X107685000Y-177823999I0J-249999D01*
G01*
X107685000Y-178524001D01*
G75*
G02*
X107435001Y-178774000I-249999J0D01*
G01*
X106534999Y-178774000D01*
G75*
G02*
X106285000Y-178524001I0J249999D01*
G01*
X106285000Y-177823999D01*
G75*
G02*
X106534999Y-177574000I249999J0D01*
G01*
G37*
G04 #@! TD.AperFunction*
G04 #@! TD*
G04 #@! TO.P,R11,1*
G04 #@! TO.N,PI_JTAG_TCK*
G04 #@! TA.AperFunction,SMDPad,CuDef*
G36*
G01*
X65465000Y-147504999D02*
X65465000Y-148405001D01*
G75*
G02*
X65215001Y-148655000I-249999J0D01*
G01*
X64514999Y-148655000D01*
G75*
G02*
X64265000Y-148405001I0J249999D01*
G01*
X64265000Y-147504999D01*
G75*
G02*
X64514999Y-147255000I249999J0D01*
G01*
X65215001Y-147255000D01*
G75*
G02*
X65465000Y-147504999I0J-249999D01*
G01*
G37*
G04 #@! TD.AperFunction*
G04 #@! TO.P,R11,2*
G04 #@! TO.N,Net-(C4-Pad1)*
G04 #@! TA.AperFunction,SMDPad,CuDef*
G36*
G01*
X63465000Y-147504999D02*
X63465000Y-148405001D01*
G75*
G02*
X63215001Y-148655000I-249999J0D01*
G01*
X62514999Y-148655000D01*
G75*
G02*
X62265000Y-148405001I0J249999D01*
G01*
X62265000Y-147504999D01*
G75*
G02*
X62514999Y-147255000I249999J0D01*
G01*
X63215001Y-147255000D01*
G75*
G02*
X63465000Y-147504999I0J-249999D01*
G01*
G37*
G04 #@! TD.AperFunction*
G04 #@! TD*
G04 #@! TO.P,R12,1*
G04 #@! TO.N,Net-(IC1-Pad2)*
G04 #@! TA.AperFunction,SMDPad,CuDef*
G36*
G01*
X109125999Y-175574000D02*
X110026001Y-175574000D01*
G75*
G02*
X110276000Y-175823999I0J-249999D01*
G01*
X110276000Y-176524001D01*
G75*
G02*
X110026001Y-176774000I-249999J0D01*
G01*
X109125999Y-176774000D01*
G75*
G02*
X108876000Y-176524001I0J249999D01*
G01*
X108876000Y-175823999D01*
G75*
G02*
X109125999Y-175574000I249999J0D01*
G01*
G37*
G04 #@! TD.AperFunction*
G04 #@! TO.P,R12,2*
G04 #@! TO.N,/PI_TXD_SRC*
G04 #@! TA.AperFunction,SMDPad,CuDef*
G36*
G01*
X109125999Y-177574000D02*
X110026001Y-177574000D01*
G75*
G02*
X110276000Y-177823999I0J-249999D01*
G01*
X110276000Y-178524001D01*
G75*
G02*
X110026001Y-178774000I-249999J0D01*
G01*
X109125999Y-178774000D01*
G75*
G02*
X108876000Y-178524001I0J249999D01*
G01*
X108876000Y-177823999D01*
G75*
G02*
X109125999Y-177574000I249999J0D01*
G01*
G37*
G04 #@! TD.AperFunction*
G04 #@! TD*
G04 #@! TO.P,R13,1*
G04 #@! TO.N,Net-(IC1-Pad3)*
G04 #@! TA.AperFunction,SMDPad,CuDef*
G36*
G01*
X51130000Y-147504999D02*
X51130000Y-148405001D01*
G75*
G02*
X50880001Y-148655000I-249999J0D01*
G01*
X50179999Y-148655000D01*
G75*
G02*
X49930000Y-148405001I0J249999D01*
G01*
X49930000Y-147504999D01*
G75*
G02*
X50179999Y-147255000I249999J0D01*
G01*
X50880001Y-147255000D01*
G75*
G02*
X51130000Y-147504999I0J-249999D01*
G01*
G37*
G04 #@! TD.AperFunction*
G04 #@! TO.P,R13,2*
G04 #@! TO.N,PI_TXD*
G04 #@! TA.AperFunction,SMDPad,CuDef*
G36*
G01*
X49130000Y-147504999D02*
X49130000Y-148405001D01*
G75*
G02*
X48880001Y-148655000I-249999J0D01*
G01*
X48179999Y-148655000D01*
G75*
G02*
X47930000Y-148405001I0J249999D01*
G01*
X47930000Y-147504999D01*
G75*
G02*
X48179999Y-147255000I249999J0D01*
G01*
X48880001Y-147255000D01*
G75*
G02*
X49130000Y-147504999I0J-249999D01*
G01*
G37*
G04 #@! TD.AperFunction*
G04 #@! TD*
G04 #@! TO.P,R14,2*
G04 #@! TO.N,Net-(R14-Pad2)*
G04 #@! TA.AperFunction,SMDPad,CuDef*
G36*
G01*
X64218399Y-99469400D02*
X65118401Y-99469400D01*
G75*
G02*
X65368400Y-99719399I0J-249999D01*
G01*
X65368400Y-100419401D01*
G75*
G02*
X65118401Y-100669400I-249999J0D01*
G01*
X64218399Y-100669400D01*
G75*
G02*
X63968400Y-100419401I0J249999D01*
G01*
X63968400Y-99719399D01*
G75*
G02*
X64218399Y-99469400I249999J0D01*
G01*
G37*
G04 #@! TD.AperFunction*
G04 #@! TO.P,R14,1*
G04 #@! TO.N,Net-(R14-Pad1)*
G04 #@! TA.AperFunction,SMDPad,CuDef*
G36*
G01*
X64218399Y-97469400D02*
X65118401Y-97469400D01*
G75*
G02*
X65368400Y-97719399I0J-249999D01*
G01*
X65368400Y-98419401D01*
G75*
G02*
X65118401Y-98669400I-249999J0D01*
G01*
X64218399Y-98669400D01*
G75*
G02*
X63968400Y-98419401I0J249999D01*
G01*
X63968400Y-97719399D01*
G75*
G02*
X64218399Y-97469400I249999J0D01*
G01*
G37*
G04 #@! TD.AperFunction*
G04 #@! TD*
G04 #@! TO.P,R15,2*
G04 #@! TO.N,Net-(R15-Pad2)*
G04 #@! TA.AperFunction,SMDPad,CuDef*
G36*
G01*
X69298399Y-99704600D02*
X70198401Y-99704600D01*
G75*
G02*
X70448400Y-99954599I0J-249999D01*
G01*
X70448400Y-100654601D01*
G75*
G02*
X70198401Y-100904600I-249999J0D01*
G01*
X69298399Y-100904600D01*
G75*
G02*
X69048400Y-100654601I0J249999D01*
G01*
X69048400Y-99954599D01*
G75*
G02*
X69298399Y-99704600I249999J0D01*
G01*
G37*
G04 #@! TD.AperFunction*
G04 #@! TO.P,R15,1*
G04 #@! TO.N,Net-(R15-Pad1)*
G04 #@! TA.AperFunction,SMDPad,CuDef*
G36*
G01*
X69298399Y-97704600D02*
X70198401Y-97704600D01*
G75*
G02*
X70448400Y-97954599I0J-249999D01*
G01*
X70448400Y-98654601D01*
G75*
G02*
X70198401Y-98904600I-249999J0D01*
G01*
X69298399Y-98904600D01*
G75*
G02*
X69048400Y-98654601I0J249999D01*
G01*
X69048400Y-97954599D01*
G75*
G02*
X69298399Y-97704600I249999J0D01*
G01*
G37*
G04 #@! TD.AperFunction*
G04 #@! TD*
G04 #@! TO.P,R16,1*
G04 #@! TO.N,Net-(R16-Pad1)*
G04 #@! TA.AperFunction,SMDPad,CuDef*
G36*
G01*
X71838399Y-97704600D02*
X72738401Y-97704600D01*
G75*
G02*
X72988400Y-97954599I0J-249999D01*
G01*
X72988400Y-98654601D01*
G75*
G02*
X72738401Y-98904600I-249999J0D01*
G01*
X71838399Y-98904600D01*
G75*
G02*
X71588400Y-98654601I0J249999D01*
G01*
X71588400Y-97954599D01*
G75*
G02*
X71838399Y-97704600I249999J0D01*
G01*
G37*
G04 #@! TD.AperFunction*
G04 #@! TO.P,R16,2*
G04 #@! TO.N,Net-(R16-Pad2)*
G04 #@! TA.AperFunction,SMDPad,CuDef*
G36*
G01*
X71838399Y-99704600D02*
X72738401Y-99704600D01*
G75*
G02*
X72988400Y-99954599I0J-249999D01*
G01*
X72988400Y-100654601D01*
G75*
G02*
X72738401Y-100904600I-249999J0D01*
G01*
X71838399Y-100904600D01*
G75*
G02*
X71588400Y-100654601I0J249999D01*
G01*
X71588400Y-99954599D01*
G75*
G02*
X71838399Y-99704600I249999J0D01*
G01*
G37*
G04 #@! TD.AperFunction*
G04 #@! TD*
G04 #@! TO.P,R17,2*
G04 #@! TO.N,Net-(R17-Pad2)*
G04 #@! TA.AperFunction,SMDPad,CuDef*
G36*
G01*
X74352999Y-99603000D02*
X75253001Y-99603000D01*
G75*
G02*
X75503000Y-99852999I0J-249999D01*
G01*
X75503000Y-100553001D01*
G75*
G02*
X75253001Y-100803000I-249999J0D01*
G01*
X74352999Y-100803000D01*
G75*
G02*
X74103000Y-100553001I0J249999D01*
G01*
X74103000Y-99852999D01*
G75*
G02*
X74352999Y-99603000I249999J0D01*
G01*
G37*
G04 #@! TD.AperFunction*
G04 #@! TO.P,R17,1*
G04 #@! TO.N,Net-(R17-Pad1)*
G04 #@! TA.AperFunction,SMDPad,CuDef*
G36*
G01*
X74352999Y-97603000D02*
X75253001Y-97603000D01*
G75*
G02*
X75503000Y-97852999I0J-249999D01*
G01*
X75503000Y-98553001D01*
G75*
G02*
X75253001Y-98803000I-249999J0D01*
G01*
X74352999Y-98803000D01*
G75*
G02*
X74103000Y-98553001I0J249999D01*
G01*
X74103000Y-97852999D01*
G75*
G02*
X74352999Y-97603000I249999J0D01*
G01*
G37*
G04 #@! TD.AperFunction*
G04 #@! TD*
G04 #@! TO.P,R18,1*
G04 #@! TO.N,Net-(R18-Pad1)*
G04 #@! TA.AperFunction,SMDPad,CuDef*
G36*
G01*
X72373800Y-88424599D02*
X72373800Y-89324601D01*
G75*
G02*
X72123801Y-89574600I-249999J0D01*
G01*
X71423799Y-89574600D01*
G75*
G02*
X71173800Y-89324601I0J249999D01*
G01*
X71173800Y-88424599D01*
G75*
G02*
X71423799Y-88174600I249999J0D01*
G01*
X72123801Y-88174600D01*
G75*
G02*
X72373800Y-88424599I0J-249999D01*
G01*
G37*
G04 #@! TD.AperFunction*
G04 #@! TO.P,R18,2*
G04 #@! TO.N,Net-(R18-Pad2)*
G04 #@! TA.AperFunction,SMDPad,CuDef*
G36*
G01*
X70373800Y-88424599D02*
X70373800Y-89324601D01*
G75*
G02*
X70123801Y-89574600I-249999J0D01*
G01*
X69423799Y-89574600D01*
G75*
G02*
X69173800Y-89324601I0J249999D01*
G01*
X69173800Y-88424599D01*
G75*
G02*
X69423799Y-88174600I249999J0D01*
G01*
X70123801Y-88174600D01*
G75*
G02*
X70373800Y-88424599I0J-249999D01*
G01*
G37*
G04 #@! TD.AperFunction*
G04 #@! TD*
G04 #@! TO.P,R19,2*
G04 #@! TO.N,Net-(R19-Pad2)*
G04 #@! TA.AperFunction,SMDPad,CuDef*
G36*
G01*
X64218399Y-88233200D02*
X65118401Y-88233200D01*
G75*
G02*
X65368400Y-88483199I0J-249999D01*
G01*
X65368400Y-89183201D01*
G75*
G02*
X65118401Y-89433200I-249999J0D01*
G01*
X64218399Y-89433200D01*
G75*
G02*
X63968400Y-89183201I0J249999D01*
G01*
X63968400Y-88483199D01*
G75*
G02*
X64218399Y-88233200I249999J0D01*
G01*
G37*
G04 #@! TD.AperFunction*
G04 #@! TO.P,R19,1*
G04 #@! TO.N,Net-(R19-Pad1)*
G04 #@! TA.AperFunction,SMDPad,CuDef*
G36*
G01*
X64218399Y-86233200D02*
X65118401Y-86233200D01*
G75*
G02*
X65368400Y-86483199I0J-249999D01*
G01*
X65368400Y-87183201D01*
G75*
G02*
X65118401Y-87433200I-249999J0D01*
G01*
X64218399Y-87433200D01*
G75*
G02*
X63968400Y-87183201I0J249999D01*
G01*
X63968400Y-86483199D01*
G75*
G02*
X64218399Y-86233200I249999J0D01*
G01*
G37*
G04 #@! TD.AperFunction*
G04 #@! TD*
G04 #@! TO.P,R20,2*
G04 #@! TO.N,Net-(D1-Pad2)*
G04 #@! TA.AperFunction,SMDPad,CuDef*
G36*
G01*
X58235001Y-177634000D02*
X57334999Y-177634000D01*
G75*
G02*
X57085000Y-177384001I0J249999D01*
G01*
X57085000Y-176683999D01*
G75*
G02*
X57334999Y-176434000I249999J0D01*
G01*
X58235001Y-176434000D01*
G75*
G02*
X58485000Y-176683999I0J-249999D01*
G01*
X58485000Y-177384001D01*
G75*
G02*
X58235001Y-177634000I-249999J0D01*
G01*
G37*
G04 #@! TD.AperFunction*
G04 #@! TO.P,R20,1*
G04 #@! TO.N,/GPIO4*
G04 #@! TA.AperFunction,SMDPad,CuDef*
G36*
G01*
X58235001Y-179634000D02*
X57334999Y-179634000D01*
G75*
G02*
X57085000Y-179384001I0J249999D01*
G01*
X57085000Y-178683999D01*
G75*
G02*
X57334999Y-178434000I249999J0D01*
G01*
X58235001Y-178434000D01*
G75*
G02*
X58485000Y-178683999I0J-249999D01*
G01*
X58485000Y-179384001D01*
G75*
G02*
X58235001Y-179634000I-249999J0D01*
G01*
G37*
G04 #@! TD.AperFunction*
G04 #@! TD*
G04 #@! TO.P,R21,1*
G04 #@! TO.N,/GPIO5*
G04 #@! TA.AperFunction,SMDPad,CuDef*
G36*
G01*
X54435001Y-179634000D02*
X53534999Y-179634000D01*
G75*
G02*
X53285000Y-179384001I0J249999D01*
G01*
X53285000Y-178683999D01*
G75*
G02*
X53534999Y-178434000I249999J0D01*
G01*
X54435001Y-178434000D01*
G75*
G02*
X54685000Y-178683999I0J-249999D01*
G01*
X54685000Y-179384001D01*
G75*
G02*
X54435001Y-179634000I-249999J0D01*
G01*
G37*
G04 #@! TD.AperFunction*
G04 #@! TO.P,R21,2*
G04 #@! TO.N,Net-(D2-Pad2)*
G04 #@! TA.AperFunction,SMDPad,CuDef*
G36*
G01*
X54435001Y-177634000D02*
X53534999Y-177634000D01*
G75*
G02*
X53285000Y-177384001I0J249999D01*
G01*
X53285000Y-176683999D01*
G75*
G02*
X53534999Y-176434000I249999J0D01*
G01*
X54435001Y-176434000D01*
G75*
G02*
X54685000Y-176683999I0J-249999D01*
G01*
X54685000Y-177384001D01*
G75*
G02*
X54435001Y-177634000I-249999J0D01*
G01*
G37*
G04 #@! TD.AperFunction*
G04 #@! TD*
G04 #@! TO.P,R22,2*
G04 #@! TO.N,Net-(D3-Pad2)*
G04 #@! TA.AperFunction,SMDPad,CuDef*
G36*
G01*
X50615001Y-177634000D02*
X49714999Y-177634000D01*
G75*
G02*
X49465000Y-177384001I0J249999D01*
G01*
X49465000Y-176683999D01*
G75*
G02*
X49714999Y-176434000I249999J0D01*
G01*
X50615001Y-176434000D01*
G75*
G02*
X50865000Y-176683999I0J-249999D01*
G01*
X50865000Y-177384001D01*
G75*
G02*
X50615001Y-177634000I-249999J0D01*
G01*
G37*
G04 #@! TD.AperFunction*
G04 #@! TO.P,R22,1*
G04 #@! TO.N,/GPIO6*
G04 #@! TA.AperFunction,SMDPad,CuDef*
G36*
G01*
X50615001Y-179634000D02*
X49714999Y-179634000D01*
G75*
G02*
X49465000Y-179384001I0J249999D01*
G01*
X49465000Y-178683999D01*
G75*
G02*
X49714999Y-178434000I249999J0D01*
G01*
X50615001Y-178434000D01*
G75*
G02*
X50865000Y-178683999I0J-249999D01*
G01*
X50865000Y-179384001D01*
G75*
G02*
X50615001Y-179634000I-249999J0D01*
G01*
G37*
G04 #@! TD.AperFunction*
G04 #@! TD*
G04 #@! TO.P,R23,1*
G04 #@! TO.N,/GPIO7*
G04 #@! TA.AperFunction,SMDPad,CuDef*
G36*
G01*
X46805001Y-179634000D02*
X45904999Y-179634000D01*
G75*
G02*
X45655000Y-179384001I0J249999D01*
G01*
X45655000Y-178683999D01*
G75*
G02*
X45904999Y-178434000I249999J0D01*
G01*
X46805001Y-178434000D01*
G75*
G02*
X47055000Y-178683999I0J-249999D01*
G01*
X47055000Y-179384001D01*
G75*
G02*
X46805001Y-179634000I-249999J0D01*
G01*
G37*
G04 #@! TD.AperFunction*
G04 #@! TO.P,R23,2*
G04 #@! TO.N,Net-(D4-Pad2)*
G04 #@! TA.AperFunction,SMDPad,CuDef*
G36*
G01*
X46805001Y-177634000D02*
X45904999Y-177634000D01*
G75*
G02*
X45655000Y-177384001I0J249999D01*
G01*
X45655000Y-176683999D01*
G75*
G02*
X45904999Y-176434000I249999J0D01*
G01*
X46805001Y-176434000D01*
G75*
G02*
X47055000Y-176683999I0J-249999D01*
G01*
X47055000Y-177384001D01*
G75*
G02*
X46805001Y-177634000I-249999J0D01*
G01*
G37*
G04 #@! TD.AperFunction*
G04 #@! TD*
G04 #@! TO.P,R24,2*
G04 #@! TO.N,Net-(J1-Pad27)*
G04 #@! TA.AperFunction,SMDPad,CuDef*
G36*
G01*
X86128399Y-177581000D02*
X87028401Y-177581000D01*
G75*
G02*
X87278400Y-177830999I0J-249999D01*
G01*
X87278400Y-178531001D01*
G75*
G02*
X87028401Y-178781000I-249999J0D01*
G01*
X86128399Y-178781000D01*
G75*
G02*
X85878400Y-178531001I0J249999D01*
G01*
X85878400Y-177830999D01*
G75*
G02*
X86128399Y-177581000I249999J0D01*
G01*
G37*
G04 #@! TD.AperFunction*
G04 #@! TO.P,R24,1*
G04 #@! TO.N,+3V3*
G04 #@! TA.AperFunction,SMDPad,CuDef*
G36*
G01*
X86128399Y-175581000D02*
X87028401Y-175581000D01*
G75*
G02*
X87278400Y-175830999I0J-249999D01*
G01*
X87278400Y-176531001D01*
G75*
G02*
X87028401Y-176781000I-249999J0D01*
G01*
X86128399Y-176781000D01*
G75*
G02*
X85878400Y-176531001I0J249999D01*
G01*
X85878400Y-175830999D01*
G75*
G02*
X86128399Y-175581000I249999J0D01*
G01*
G37*
G04 #@! TD.AperFunction*
G04 #@! TD*
G04 #@! TO.P,R25,1*
G04 #@! TO.N,+3V3*
G04 #@! TA.AperFunction,SMDPad,CuDef*
G36*
G01*
X83842399Y-175581000D02*
X84742401Y-175581000D01*
G75*
G02*
X84992400Y-175830999I0J-249999D01*
G01*
X84992400Y-176531001D01*
G75*
G02*
X84742401Y-176781000I-249999J0D01*
G01*
X83842399Y-176781000D01*
G75*
G02*
X83592400Y-176531001I0J249999D01*
G01*
X83592400Y-175830999D01*
G75*
G02*
X83842399Y-175581000I249999J0D01*
G01*
G37*
G04 #@! TD.AperFunction*
G04 #@! TO.P,R25,2*
G04 #@! TO.N,Net-(J1-Pad28)*
G04 #@! TA.AperFunction,SMDPad,CuDef*
G36*
G01*
X83842399Y-177581000D02*
X84742401Y-177581000D01*
G75*
G02*
X84992400Y-177830999I0J-249999D01*
G01*
X84992400Y-178531001D01*
G75*
G02*
X84742401Y-178781000I-249999J0D01*
G01*
X83842399Y-178781000D01*
G75*
G02*
X83592400Y-178531001I0J249999D01*
G01*
X83592400Y-177830999D01*
G75*
G02*
X83842399Y-177581000I249999J0D01*
G01*
G37*
G04 #@! TD.AperFunction*
G04 #@! TD*
G04 #@! TO.P,R26,2*
G04 #@! TO.N,+3V3*
G04 #@! TA.AperFunction,SMDPad,CuDef*
G36*
G01*
X46225000Y-162744999D02*
X46225000Y-163645001D01*
G75*
G02*
X45975001Y-163895000I-249999J0D01*
G01*
X45274999Y-163895000D01*
G75*
G02*
X45025000Y-163645001I0J249999D01*
G01*
X45025000Y-162744999D01*
G75*
G02*
X45274999Y-162495000I249999J0D01*
G01*
X45975001Y-162495000D01*
G75*
G02*
X46225000Y-162744999I0J-249999D01*
G01*
G37*
G04 #@! TD.AperFunction*
G04 #@! TO.P,R26,1*
G04 #@! TO.N,Net-(IC2-Pad5)*
G04 #@! TA.AperFunction,SMDPad,CuDef*
G36*
G01*
X48225000Y-162744999D02*
X48225000Y-163645001D01*
G75*
G02*
X47975001Y-163895000I-249999J0D01*
G01*
X47274999Y-163895000D01*
G75*
G02*
X47025000Y-163645001I0J249999D01*
G01*
X47025000Y-162744999D01*
G75*
G02*
X47274999Y-162495000I249999J0D01*
G01*
X47975001Y-162495000D01*
G75*
G02*
X48225000Y-162744999I0J-249999D01*
G01*
G37*
G04 #@! TD.AperFunction*
G04 #@! TD*
G04 #@! TO.P,R27,1*
G04 #@! TO.N,+3V3*
G04 #@! TA.AperFunction,SMDPad,CuDef*
G36*
G01*
X68005000Y-163379999D02*
X68005000Y-164280001D01*
G75*
G02*
X67755001Y-164530000I-249999J0D01*
G01*
X67054999Y-164530000D01*
G75*
G02*
X66805000Y-164280001I0J249999D01*
G01*
X66805000Y-163379999D01*
G75*
G02*
X67054999Y-163130000I249999J0D01*
G01*
X67755001Y-163130000D01*
G75*
G02*
X68005000Y-163379999I0J-249999D01*
G01*
G37*
G04 #@! TD.AperFunction*
G04 #@! TO.P,R27,2*
G04 #@! TO.N,Net-(IC2-Pad9)*
G04 #@! TA.AperFunction,SMDPad,CuDef*
G36*
G01*
X66005000Y-163379999D02*
X66005000Y-164280001D01*
G75*
G02*
X65755001Y-164530000I-249999J0D01*
G01*
X65054999Y-164530000D01*
G75*
G02*
X64805000Y-164280001I0J249999D01*
G01*
X64805000Y-163379999D01*
G75*
G02*
X65054999Y-163130000I249999J0D01*
G01*
X65755001Y-163130000D01*
G75*
G02*
X66005000Y-163379999I0J-249999D01*
G01*
G37*
G04 #@! TD.AperFunction*
G04 #@! TD*
D12*
G04 #@! TO.P,U1,1*
G04 #@! TO.N,Net-(U1-Pad1)*
X102390000Y-86366100D03*
D13*
G04 #@! TO.P,U1,2*
G04 #@! TO.N,GND*
X102390000Y-88906100D03*
G04 #@! TO.P,U1,3*
G04 #@! TO.N,Net-(R14-Pad2)*
X102390000Y-91446100D03*
G04 #@! TO.P,U1,4*
G04 #@! TO.N,Net-(R15-Pad2)*
X102390000Y-93986100D03*
G04 #@! TO.P,U1,5*
G04 #@! TO.N,Net-(R16-Pad2)*
X102390000Y-96526100D03*
G04 #@! TO.P,U1,6*
G04 #@! TO.N,Net-(R17-Pad2)*
X102390000Y-99066100D03*
G04 #@! TD*
D15*
G04 #@! TO.P,U2,6*
G04 #@! TO.N,Net-(U1-Pad1)*
X67208400Y-94767400D03*
G04 #@! TO.P,U2,7*
G04 #@! TO.N,Net-(R18-Pad2)*
X69748400Y-92227400D03*
G04 #@! TO.P,U2,5*
G04 #@! TO.N,Net-(U1-Pad1)*
X67208400Y-92227400D03*
G04 #@! TO.P,U2,8*
G04 #@! TO.N,Net-(R15-Pad1)*
X69748400Y-94767400D03*
G04 #@! TO.P,U2,4*
G04 #@! TO.N,Net-(R14-Pad1)*
X64668400Y-94767400D03*
G04 #@! TO.P,U2,9*
G04 #@! TO.N,Net-(U2-Pad9)*
X72288400Y-92227400D03*
G04 #@! TO.P,U2,3*
G04 #@! TO.N,Net-(R19-Pad2)*
X64668400Y-92227400D03*
G04 #@! TO.P,U2,10*
G04 #@! TO.N,Net-(R16-Pad1)*
X72288400Y-94767400D03*
G04 #@! TO.P,U2,2*
G04 #@! TO.N,GND*
X62128400Y-94767400D03*
G04 #@! TO.P,U2,11*
G04 #@! TO.N,Net-(U2-Pad11)*
X74828400Y-92227400D03*
G04 #@! TO.P,U2,1*
G04 #@! TO.N,GND*
X62128400Y-92227400D03*
G04 #@! TO.P,U2,12*
G04 #@! TO.N,Net-(R17-Pad1)*
X74828400Y-94767400D03*
D16*
G04 #@! TO.P,U2,GND*
G04 #@! TO.N,GND*
X55778400Y-93497400D03*
G04 #@! TD*
D13*
G04 #@! TO.P,U4,6*
G04 #@! TO.N,PI_RXD*
X89291200Y-99066100D03*
G04 #@! TO.P,U4,5*
G04 #@! TO.N,PI_TXD*
X89291200Y-96526100D03*
G04 #@! TO.P,U4,4*
G04 #@! TO.N,Net-(R19-Pad1)*
X89291200Y-93986100D03*
G04 #@! TO.P,U4,3*
G04 #@! TO.N,+5V*
X89291200Y-91446100D03*
G04 #@! TO.P,U4,2*
G04 #@! TO.N,Net-(R18-Pad1)*
X89291200Y-88906100D03*
D12*
G04 #@! TO.P,U4,1*
G04 #@! TO.N,GND*
X89291200Y-86366100D03*
G04 #@! TD*
G04 #@! TO.P,U5,1*
G04 #@! TO.N,+3.3VA*
X102390000Y-133246000D03*
D13*
G04 #@! TO.P,U5,2*
G04 #@! TO.N,GND*
X102390000Y-135786000D03*
G04 #@! TO.P,U5,3*
G04 #@! TO.N,PI_JTAG_TCK*
X102390000Y-138326000D03*
G04 #@! TO.P,U5,4*
G04 #@! TO.N,PI_JTAG_TDO*
X102390000Y-140866000D03*
G04 #@! TO.P,U5,5*
G04 #@! TO.N,PI_JTAG_TDI*
X102390000Y-143406000D03*
G04 #@! TO.P,U5,6*
G04 #@! TO.N,PI_JTAG_TMS*
X102390000Y-145946000D03*
G04 #@! TD*
G04 #@! TO.P,U7,6*
G04 #@! TO.N,Net-(J21-Pad6)*
X89298800Y-145941000D03*
G04 #@! TO.P,U7,5*
G04 #@! TO.N,Net-(J21-Pad5)*
X89298800Y-143401000D03*
G04 #@! TO.P,U7,4*
G04 #@! TO.N,Net-(J21-Pad4)*
X89298800Y-140861000D03*
G04 #@! TO.P,U7,3*
G04 #@! TO.N,Net-(J21-Pad3)*
X89298800Y-138321000D03*
G04 #@! TO.P,U7,2*
G04 #@! TO.N,Net-(J21-Pad2)*
X89298800Y-135781000D03*
D12*
G04 #@! TO.P,U7,1*
G04 #@! TO.N,Net-(J21-Pad1)*
X89298800Y-133241000D03*
G04 #@! TD*
G04 #@! TO.P,D5,2*
G04 #@! TO.N,Net-(D5-Pad2)*
G04 #@! TA.AperFunction,SMDPad,CuDef*
G36*
G01*
X48320000Y-187140001D02*
X48320000Y-186239999D01*
G75*
G02*
X48569999Y-185990000I249999J0D01*
G01*
X49220001Y-185990000D01*
G75*
G02*
X49470000Y-186239999I0J-249999D01*
G01*
X49470000Y-187140001D01*
G75*
G02*
X49220001Y-187390000I-249999J0D01*
G01*
X48569999Y-187390000D01*
G75*
G02*
X48320000Y-187140001I0J249999D01*
G01*
G37*
G04 #@! TD.AperFunction*
G04 #@! TO.P,D5,1*
G04 #@! TO.N,GND*
G04 #@! TA.AperFunction,SMDPad,CuDef*
G36*
G01*
X46270000Y-187140001D02*
X46270000Y-186239999D01*
G75*
G02*
X46519999Y-185990000I249999J0D01*
G01*
X47170001Y-185990000D01*
G75*
G02*
X47420000Y-186239999I0J-249999D01*
G01*
X47420000Y-187140001D01*
G75*
G02*
X47170001Y-187390000I-249999J0D01*
G01*
X46519999Y-187390000D01*
G75*
G02*
X46270000Y-187140001I0J249999D01*
G01*
G37*
G04 #@! TD.AperFunction*
G04 #@! TD*
G04 #@! TO.P,D6,2*
G04 #@! TO.N,Net-(D6-Pad2)*
G04 #@! TA.AperFunction,SMDPad,CuDef*
G36*
G01*
X48383500Y-183140001D02*
X48383500Y-182239999D01*
G75*
G02*
X48633499Y-181990000I249999J0D01*
G01*
X49283501Y-181990000D01*
G75*
G02*
X49533500Y-182239999I0J-249999D01*
G01*
X49533500Y-183140001D01*
G75*
G02*
X49283501Y-183390000I-249999J0D01*
G01*
X48633499Y-183390000D01*
G75*
G02*
X48383500Y-183140001I0J249999D01*
G01*
G37*
G04 #@! TD.AperFunction*
G04 #@! TO.P,D6,1*
G04 #@! TO.N,GND*
G04 #@! TA.AperFunction,SMDPad,CuDef*
G36*
G01*
X46333500Y-183140001D02*
X46333500Y-182239999D01*
G75*
G02*
X46583499Y-181990000I249999J0D01*
G01*
X47233501Y-181990000D01*
G75*
G02*
X47483500Y-182239999I0J-249999D01*
G01*
X47483500Y-183140001D01*
G75*
G02*
X47233501Y-183390000I-249999J0D01*
G01*
X46583499Y-183390000D01*
G75*
G02*
X46333500Y-183140001I0J249999D01*
G01*
G37*
G04 #@! TD.AperFunction*
G04 #@! TD*
G04 #@! TO.P,D7,2*
G04 #@! TO.N,Net-(D7-Pad2)*
G04 #@! TA.AperFunction,SMDPad,CuDef*
G36*
G01*
X80460001Y-82811200D02*
X79559999Y-82811200D01*
G75*
G02*
X79310000Y-82561201I0J249999D01*
G01*
X79310000Y-81911199D01*
G75*
G02*
X79559999Y-81661200I249999J0D01*
G01*
X80460001Y-81661200D01*
G75*
G02*
X80710000Y-81911199I0J-249999D01*
G01*
X80710000Y-82561201D01*
G75*
G02*
X80460001Y-82811200I-249999J0D01*
G01*
G37*
G04 #@! TD.AperFunction*
G04 #@! TO.P,D7,1*
G04 #@! TO.N,GND*
G04 #@! TA.AperFunction,SMDPad,CuDef*
G36*
G01*
X80460001Y-84861200D02*
X79559999Y-84861200D01*
G75*
G02*
X79310000Y-84611201I0J249999D01*
G01*
X79310000Y-83961199D01*
G75*
G02*
X79559999Y-83711200I249999J0D01*
G01*
X80460001Y-83711200D01*
G75*
G02*
X80710000Y-83961199I0J-249999D01*
G01*
X80710000Y-84611201D01*
G75*
G02*
X80460001Y-84861200I-249999J0D01*
G01*
G37*
G04 #@! TD.AperFunction*
G04 #@! TD*
G04 #@! TO.P,D8,1*
G04 #@! TO.N,GND*
G04 #@! TA.AperFunction,SMDPad,CuDef*
G36*
G01*
X81730001Y-130895000D02*
X80829999Y-130895000D01*
G75*
G02*
X80580000Y-130645001I0J249999D01*
G01*
X80580000Y-129994999D01*
G75*
G02*
X80829999Y-129745000I249999J0D01*
G01*
X81730001Y-129745000D01*
G75*
G02*
X81980000Y-129994999I0J-249999D01*
G01*
X81980000Y-130645001D01*
G75*
G02*
X81730001Y-130895000I-249999J0D01*
G01*
G37*
G04 #@! TD.AperFunction*
G04 #@! TO.P,D8,2*
G04 #@! TO.N,Net-(D8-Pad2)*
G04 #@! TA.AperFunction,SMDPad,CuDef*
G36*
G01*
X81730001Y-128845000D02*
X80829999Y-128845000D01*
G75*
G02*
X80580000Y-128595001I0J249999D01*
G01*
X80580000Y-127944999D01*
G75*
G02*
X80829999Y-127695000I249999J0D01*
G01*
X81730001Y-127695000D01*
G75*
G02*
X81980000Y-127944999I0J-249999D01*
G01*
X81980000Y-128595001D01*
G75*
G02*
X81730001Y-128845000I-249999J0D01*
G01*
G37*
G04 #@! TD.AperFunction*
G04 #@! TD*
G04 #@! TO.P,R28,2*
G04 #@! TO.N,Net-(D5-Pad2)*
G04 #@! TA.AperFunction,SMDPad,CuDef*
G36*
G01*
X52619200Y-186239999D02*
X52619200Y-187140001D01*
G75*
G02*
X52369201Y-187390000I-249999J0D01*
G01*
X51669199Y-187390000D01*
G75*
G02*
X51419200Y-187140001I0J249999D01*
G01*
X51419200Y-186239999D01*
G75*
G02*
X51669199Y-185990000I249999J0D01*
G01*
X52369201Y-185990000D01*
G75*
G02*
X52619200Y-186239999I0J-249999D01*
G01*
G37*
G04 #@! TD.AperFunction*
G04 #@! TO.P,R28,1*
G04 #@! TO.N,+5V*
G04 #@! TA.AperFunction,SMDPad,CuDef*
G36*
G01*
X54619200Y-186239999D02*
X54619200Y-187140001D01*
G75*
G02*
X54369201Y-187390000I-249999J0D01*
G01*
X53669199Y-187390000D01*
G75*
G02*
X53419200Y-187140001I0J249999D01*
G01*
X53419200Y-186239999D01*
G75*
G02*
X53669199Y-185990000I249999J0D01*
G01*
X54369201Y-185990000D01*
G75*
G02*
X54619200Y-186239999I0J-249999D01*
G01*
G37*
G04 #@! TD.AperFunction*
G04 #@! TD*
G04 #@! TO.P,R29,2*
G04 #@! TO.N,Net-(D6-Pad2)*
G04 #@! TA.AperFunction,SMDPad,CuDef*
G36*
G01*
X52638500Y-182239999D02*
X52638500Y-183140001D01*
G75*
G02*
X52388501Y-183390000I-249999J0D01*
G01*
X51688499Y-183390000D01*
G75*
G02*
X51438500Y-183140001I0J249999D01*
G01*
X51438500Y-182239999D01*
G75*
G02*
X51688499Y-181990000I249999J0D01*
G01*
X52388501Y-181990000D01*
G75*
G02*
X52638500Y-182239999I0J-249999D01*
G01*
G37*
G04 #@! TD.AperFunction*
G04 #@! TO.P,R29,1*
G04 #@! TO.N,+3V3*
G04 #@! TA.AperFunction,SMDPad,CuDef*
G36*
G01*
X54638500Y-182239999D02*
X54638500Y-183140001D01*
G75*
G02*
X54388501Y-183390000I-249999J0D01*
G01*
X53688499Y-183390000D01*
G75*
G02*
X53438500Y-183140001I0J249999D01*
G01*
X53438500Y-182239999D01*
G75*
G02*
X53688499Y-181990000I249999J0D01*
G01*
X54388501Y-181990000D01*
G75*
G02*
X54638500Y-182239999I0J-249999D01*
G01*
G37*
G04 #@! TD.AperFunction*
G04 #@! TD*
G04 #@! TO.P,R30,1*
G04 #@! TO.N,+3.3VP*
G04 #@! TA.AperFunction,SMDPad,CuDef*
G36*
G01*
X84473201Y-84845200D02*
X83573199Y-84845200D01*
G75*
G02*
X83323200Y-84595201I0J249999D01*
G01*
X83323200Y-83895199D01*
G75*
G02*
X83573199Y-83645200I249999J0D01*
G01*
X84473201Y-83645200D01*
G75*
G02*
X84723200Y-83895199I0J-249999D01*
G01*
X84723200Y-84595201D01*
G75*
G02*
X84473201Y-84845200I-249999J0D01*
G01*
G37*
G04 #@! TD.AperFunction*
G04 #@! TO.P,R30,2*
G04 #@! TO.N,Net-(D7-Pad2)*
G04 #@! TA.AperFunction,SMDPad,CuDef*
G36*
G01*
X84473201Y-82845200D02*
X83573199Y-82845200D01*
G75*
G02*
X83323200Y-82595201I0J249999D01*
G01*
X83323200Y-81895199D01*
G75*
G02*
X83573199Y-81645200I249999J0D01*
G01*
X84473201Y-81645200D01*
G75*
G02*
X84723200Y-81895199I0J-249999D01*
G01*
X84723200Y-82595201D01*
G75*
G02*
X84473201Y-82845200I-249999J0D01*
G01*
G37*
G04 #@! TD.AperFunction*
G04 #@! TD*
G04 #@! TO.P,R31,2*
G04 #@! TO.N,Net-(D8-Pad2)*
G04 #@! TA.AperFunction,SMDPad,CuDef*
G36*
G01*
X85540001Y-128835000D02*
X84639999Y-128835000D01*
G75*
G02*
X84390000Y-128585001I0J249999D01*
G01*
X84390000Y-127884999D01*
G75*
G02*
X84639999Y-127635000I249999J0D01*
G01*
X85540001Y-127635000D01*
G75*
G02*
X85790000Y-127884999I0J-249999D01*
G01*
X85790000Y-128585001D01*
G75*
G02*
X85540001Y-128835000I-249999J0D01*
G01*
G37*
G04 #@! TD.AperFunction*
G04 #@! TO.P,R31,1*
G04 #@! TO.N,+3.3VA*
G04 #@! TA.AperFunction,SMDPad,CuDef*
G36*
G01*
X85540001Y-130835000D02*
X84639999Y-130835000D01*
G75*
G02*
X84390000Y-130585001I0J249999D01*
G01*
X84390000Y-129884999D01*
G75*
G02*
X84639999Y-129635000I249999J0D01*
G01*
X85540001Y-129635000D01*
G75*
G02*
X85790000Y-129884999I0J-249999D01*
G01*
X85790000Y-130585001D01*
G75*
G02*
X85540001Y-130835000I-249999J0D01*
G01*
G37*
G04 #@! TD.AperFunction*
G04 #@! TD*
D14*
G04 #@! TO.P,J22,1*
G04 #@! TO.N,GND*
X59182000Y-105664000D03*
G04 #@! TD*
G04 #@! TO.P,J23,1*
G04 #@! TO.N,GND*
X65278000Y-175768000D03*
G04 #@! TD*
G04 #@! TO.P,J24,1*
G04 #@! TO.N,GND*
X156972000Y-77470000D03*
G04 #@! TD*
G04 #@! TO.P,J25,1*
G04 #@! TO.N,GND*
X155194000Y-174244000D03*
G04 #@! TD*
D17*
G04 #@! TO.N,GND*
X78063200Y-84286200D03*
X79407800Y-130320000D03*
X66649600Y-153670000D03*
X66802000Y-145415000D03*
X53729400Y-145762000D03*
D18*
X45186600Y-184734000D03*
D17*
X52146200Y-170282000D03*
X66446400Y-158750000D03*
X56134000Y-164821000D03*
X56134000Y-158877000D03*
X46837600Y-153035000D03*
X52349400Y-151409000D03*
G04 #@! TO.N,+3.3VA*
X59613800Y-142748000D03*
X87096600Y-130277000D03*
G04 #@! TO.N,+3V3*
X55917600Y-182690000D03*
X46177200Y-164846000D03*
X58191400Y-154305000D03*
X60807600Y-157734000D03*
X69316600Y-163830000D03*
X85242400Y-174371000D03*
D18*
G04 #@! TO.N,/PI_JTAG_OE*
X61722000Y-182118000D03*
X59690000Y-179070000D03*
G04 #@! TO.N,Net-(IC1-Pad12)*
X61214000Y-151384000D03*
X61214000Y-147828000D03*
G04 #@! TO.N,Net-(IC1-Pad9)*
X81026000Y-152908000D03*
X65786000Y-149606000D03*
G04 #@! TO.N,Net-(IC1-Pad5)*
X52070000Y-148844000D03*
X79756000Y-152908000D03*
G04 #@! TO.N,Net-(IC1-Pad2)*
X82042000Y-152908000D03*
X52070000Y-146812000D03*
G04 #@! TO.N,Net-(IC2-Pad3)*
X85598000Y-161798000D03*
X51562000Y-161544000D03*
G04 #@! TO.N,Net-(IC2-Pad11)*
X60655200Y-162280600D03*
X94691200Y-167157400D03*
D17*
G04 #@! TO.N,+5V*
X55854600Y-186690000D03*
D18*
G04 #@! TO.N,/PWM0*
X133350000Y-174244000D03*
G04 #@! TO.N,/PWM1*
X133858000Y-173482000D03*
G04 #@! TO.N,/SPI_MISO*
X138938000Y-172720000D03*
G04 #@! TO.N,/SPI_MOSI*
X139700000Y-171958000D03*
G04 #@! TO.N,/SPI_SCLK*
X140208000Y-170180000D03*
G04 #@! TO.N,PI_JTAG_TMS*
X46939200Y-150495000D03*
G04 #@! TO.N,PI_RXD*
X45796200Y-160655000D03*
G04 #@! TO.N,PI_TXD*
X45847000Y-141326000D03*
D17*
G04 #@! TO.N,+3.3VP*
X85667600Y-84245200D03*
G04 #@! TD*
D19*
G04 #@! TO.N,Net-(C1-Pad1)*
X50530000Y-150495000D02*
X50530000Y-153019000D01*
X50530000Y-153019000D02*
X50546000Y-153035000D01*
X53729400Y-149890000D02*
X51135000Y-149890000D01*
X51135000Y-149890000D02*
X50530000Y-150495000D01*
D20*
G04 #@! TO.N,GND*
X80010000Y-84286200D02*
X78063200Y-84286200D01*
X81280000Y-130320000D02*
X79407800Y-130320000D01*
X64863800Y-153670000D02*
X66649600Y-153670000D01*
X64940000Y-145415000D02*
X66802000Y-145415000D01*
X53729400Y-145762000D02*
X53729400Y-144721000D01*
X53729400Y-144721000D02*
X54152800Y-144297000D01*
X54152800Y-144297000D02*
X57538800Y-144297000D01*
X45186600Y-184734000D02*
X45186600Y-186436000D01*
X45186600Y-186436000D02*
X45440600Y-186690000D01*
X45440600Y-186690000D02*
X46845000Y-186690000D01*
X52146200Y-170282000D02*
X54000400Y-170282000D01*
X64940000Y-158750000D02*
X66446400Y-158750000D01*
X56134000Y-163576000D02*
X56134000Y-164821000D01*
X56134000Y-158877000D02*
X56134000Y-158013000D01*
X56134000Y-158013000D02*
X56413400Y-157734000D01*
X56413400Y-157734000D02*
X57086500Y-157734000D01*
X48471000Y-153035000D02*
X46837600Y-153035000D01*
X53729400Y-150540000D02*
X53218800Y-150540000D01*
X53218800Y-150540000D02*
X52349400Y-151409000D01*
X53729400Y-146640000D02*
X53729400Y-145762000D01*
X56134000Y-163576000D02*
X56134000Y-162763000D01*
X56134000Y-162763000D02*
X56134000Y-161950000D01*
X59148200Y-162575000D02*
X59141600Y-162575000D01*
X59141600Y-162575000D02*
X59123000Y-162594000D01*
X59123000Y-162594000D02*
X56303600Y-162594000D01*
X56303600Y-162594000D02*
X56134000Y-162763000D01*
X56134000Y-161950000D02*
X56134000Y-160452000D01*
X56134000Y-160452000D02*
X56134000Y-160172000D01*
X59148200Y-160625000D02*
X56307200Y-160625000D01*
X56307200Y-160625000D02*
X56134000Y-160452000D01*
X53272200Y-161925000D02*
X56108600Y-161925000D01*
X56108600Y-161925000D02*
X56134000Y-161950000D01*
X56134000Y-160172000D02*
X56134000Y-158877000D01*
X53272200Y-159975000D02*
X55936600Y-159975000D01*
X55936600Y-159975000D02*
X56134000Y-160172000D01*
X53272200Y-163875000D02*
X55835000Y-163875000D01*
X55835000Y-163875000D02*
X56134000Y-163576000D01*
X46355000Y-171904000D02*
X46355000Y-170586000D01*
X46355000Y-170586000D02*
X46659800Y-170282000D01*
X46659800Y-170282000D02*
X49961800Y-170282000D01*
X49961800Y-170282000D02*
X52146200Y-170282000D01*
X50165000Y-171904000D02*
X50165000Y-170485000D01*
X50165000Y-170485000D02*
X49961800Y-170282000D01*
X54000400Y-170282000D02*
X57353200Y-170282000D01*
X57353200Y-170282000D02*
X57785000Y-170713000D01*
X57785000Y-170713000D02*
X57785000Y-171904000D01*
X53975000Y-171904000D02*
X53975000Y-170307000D01*
X53975000Y-170307000D02*
X54000400Y-170282000D01*
X46908500Y-182690000D02*
X45605200Y-182690000D01*
X45605200Y-182690000D02*
X45186600Y-183109000D01*
X45186600Y-183109000D02*
X45186600Y-184734000D01*
D19*
G04 #@! TO.N,Net-(C2-Pad1)*
X62865000Y-161290000D02*
X62865000Y-158750000D01*
X59148200Y-161275000D02*
X62850000Y-161275000D01*
X62850000Y-161275000D02*
X62865000Y-161290000D01*
G04 #@! TO.N,Net-(C3-Pad1)*
X59605400Y-150540000D02*
X62180000Y-150540000D01*
X62180000Y-150540000D02*
X62770000Y-151130000D01*
X62788800Y-153670000D02*
X62788800Y-151149000D01*
X62788800Y-151149000D02*
X62770000Y-151130000D01*
G04 #@! TO.N,Net-(C4-Pad1)*
X62865000Y-147955000D02*
X62865000Y-145415000D01*
X59605400Y-148590000D02*
X62230000Y-148590000D01*
X62230000Y-148590000D02*
X62865000Y-147955000D01*
D20*
G04 #@! TO.N,+3.3VA*
X59613800Y-144297000D02*
X59613800Y-142748000D01*
X85090000Y-130235000D02*
X87055000Y-130235000D01*
X87055000Y-130235000D02*
X87096600Y-130277000D01*
X59613800Y-144297000D02*
X59613800Y-146632000D01*
X59613800Y-146632000D02*
X59605400Y-146640000D01*
G04 #@! TO.N,+3V3*
X54038500Y-182690000D02*
X55917600Y-182690000D01*
X45625000Y-163195000D02*
X45625000Y-164294000D01*
X45625000Y-164294000D02*
X46177200Y-164846000D01*
X56515000Y-154305000D02*
X58191400Y-154305000D01*
X59161500Y-157734000D02*
X60807600Y-157734000D01*
X67405000Y-163830000D02*
X69316600Y-163830000D01*
X85242400Y-174371000D02*
X85267800Y-174346000D01*
X85267800Y-174346000D02*
X86578400Y-175656000D01*
X86578400Y-175656000D02*
X86578400Y-176181000D01*
X84292400Y-176181000D02*
X84292400Y-175321000D01*
X84292400Y-175321000D02*
X85242400Y-174371000D01*
X59161500Y-157734000D02*
X59161500Y-159962000D01*
X59161500Y-159962000D02*
X59148200Y-159975000D01*
D19*
G04 #@! TO.N,Net-(D1-Pad2)*
X57785000Y-173954000D02*
X57785000Y-177034000D01*
G04 #@! TO.N,Net-(D2-Pad2)*
X53975000Y-173954000D02*
X53975000Y-177024000D01*
X53975000Y-177024000D02*
X53985000Y-177034000D01*
G04 #@! TO.N,Net-(D3-Pad2)*
X50165000Y-173954000D02*
X50165000Y-177034000D01*
G04 #@! TO.N,Net-(D4-Pad2)*
X46355000Y-173954000D02*
X46355000Y-177034000D01*
G04 #@! TO.N,/PI_JTAG_OE*
X75184000Y-186990000D02*
X73914000Y-185720000D01*
X73914000Y-185720000D02*
X73914000Y-183642000D01*
X73914000Y-183642000D02*
X72390000Y-182118000D01*
X72390000Y-182118000D02*
X61722000Y-182118000D01*
X56515000Y-152305000D02*
X54451000Y-152305000D01*
X54451000Y-152305000D02*
X51816000Y-154940000D01*
X51816000Y-154940000D02*
X45466000Y-154940000D01*
X45466000Y-154940000D02*
X44450000Y-155956000D01*
X44450000Y-155956000D02*
X44450000Y-167132000D01*
X44450000Y-167132000D02*
X46736000Y-169418000D01*
X46736000Y-169418000D02*
X57208000Y-169418000D01*
X57208000Y-169418000D02*
X59690000Y-171900000D01*
X59690000Y-171900000D02*
X59690000Y-179070000D01*
X56515000Y-152305000D02*
X56515000Y-149428000D01*
X56515000Y-149428000D02*
X56515000Y-148768000D01*
X59605400Y-149240000D02*
X56703200Y-149240000D01*
X56703200Y-149240000D02*
X56515000Y-149428000D01*
X56515000Y-148768000D02*
X56515000Y-147498000D01*
X56515000Y-147498000D02*
X56722800Y-147290000D01*
X56722800Y-147290000D02*
X59605400Y-147290000D01*
X53729400Y-148590000D02*
X56337200Y-148590000D01*
X56337200Y-148590000D02*
X56515000Y-148768000D01*
G04 #@! TO.N,Net-(IC1-Pad12)*
X61214000Y-151384000D02*
X61214000Y-154432000D01*
X61214000Y-154432000D02*
X64008000Y-157226000D01*
X64008000Y-157226000D02*
X64008000Y-160562000D01*
X64008000Y-160562000D02*
X63960200Y-160610000D01*
X63960200Y-160610000D02*
X63960200Y-161970000D01*
X63960200Y-161970000D02*
X64550400Y-162560000D01*
X64550400Y-162560000D02*
X84194500Y-162560000D01*
X84194500Y-162560000D02*
X90678000Y-169044000D01*
X90678000Y-169044000D02*
X90678000Y-176129000D01*
X90678000Y-176129000D02*
X90642400Y-176165000D01*
X59605400Y-147940000D02*
X61102000Y-147940000D01*
X61102000Y-147940000D02*
X61214000Y-147828000D01*
G04 #@! TO.N,Net-(IC1-Pad9)*
X59605400Y-149890000D02*
X61184000Y-149890000D01*
X61184000Y-149890000D02*
X61468000Y-149606000D01*
X61468000Y-149606000D02*
X65786000Y-149606000D01*
X97485200Y-176165000D02*
X97485200Y-167386000D01*
X97485200Y-167386000D02*
X96266000Y-166167000D01*
X96266000Y-166167000D02*
X88950800Y-166167000D01*
X88950800Y-166167000D02*
X84836000Y-162052000D01*
X84836000Y-162052000D02*
X84836000Y-156718000D01*
X84836000Y-156718000D02*
X81026000Y-152908000D01*
G04 #@! TO.N,Net-(IC1-Pad5)*
X53729400Y-149240000D02*
X52466000Y-149240000D01*
X52466000Y-149240000D02*
X52070000Y-148844000D01*
X92928400Y-176165000D02*
X92928400Y-167554000D01*
X92928400Y-167554000D02*
X91948000Y-166573000D01*
X91948000Y-166573000D02*
X88782500Y-166573000D01*
X88782500Y-166573000D02*
X84429600Y-162220000D01*
X84429600Y-162220000D02*
X84429600Y-157582000D01*
X84429600Y-157582000D02*
X79756000Y-152908000D01*
G04 #@! TO.N,Net-(IC1-Pad2)*
X53729400Y-147290000D02*
X52548000Y-147290000D01*
X52548000Y-147290000D02*
X52070000Y-146812000D01*
X109576000Y-176174000D02*
X109576000Y-168504000D01*
X109576000Y-168504000D02*
X106426000Y-165354000D01*
X106426000Y-165354000D02*
X89662000Y-165354000D01*
X89662000Y-165354000D02*
X86360000Y-162052000D01*
X86360000Y-162052000D02*
X86360000Y-157226000D01*
X86360000Y-157226000D02*
X82042000Y-152908000D01*
G04 #@! TO.N,Net-(IC2-Pad3)*
X85598000Y-161798000D02*
X85598000Y-161865000D01*
X85598000Y-161865000D02*
X89493700Y-165760000D01*
X89493700Y-165760000D02*
X104648000Y-165760000D01*
X104648000Y-165760000D02*
X106985000Y-168097000D01*
X106985000Y-168097000D02*
X106985000Y-176174000D01*
X53272200Y-161275000D02*
X51831000Y-161275000D01*
X51831000Y-161275000D02*
X51562000Y-161544000D01*
G04 #@! TO.N,Net-(IC2-Pad5)*
X50165000Y-163195000D02*
X47625000Y-163195000D01*
X53272200Y-162575000D02*
X50785000Y-162575000D01*
X50785000Y-162575000D02*
X50165000Y-163195000D01*
G04 #@! TO.N,Net-(IC2-Pad6)*
X53975000Y-166370000D02*
X52171600Y-166370000D01*
X52171600Y-166370000D02*
X51943000Y-166141000D01*
X51943000Y-166141000D02*
X51943000Y-163693000D01*
X51943000Y-163693000D02*
X52411100Y-163225000D01*
X52411100Y-163225000D02*
X53272200Y-163225000D01*
G04 #@! TO.N,Net-(IC2-Pad8)*
X59148200Y-163875000D02*
X59148200Y-165642000D01*
X59148200Y-165642000D02*
X58420000Y-166370000D01*
G04 #@! TO.N,Net-(IC2-Pad9)*
X65405000Y-163830000D02*
X62357000Y-163830000D01*
X59148200Y-163225000D02*
X61752000Y-163225000D01*
X61752000Y-163225000D02*
X62357000Y-163830000D01*
G04 #@! TO.N,Net-(IC2-Pad11)*
X59148200Y-161925000D02*
X60299600Y-161925000D01*
X60299600Y-161925000D02*
X60655200Y-162280600D01*
X60655200Y-162280600D02*
X60655200Y-162280600D01*
X95214400Y-167680600D02*
X94691200Y-167157400D01*
X95214400Y-176181000D02*
X95214400Y-167680600D01*
D20*
G04 #@! TO.N,+5V*
X54019200Y-186690000D02*
X55854600Y-186690000D01*
D19*
G04 #@! TO.N,/GPIO4*
X110744000Y-184450000D02*
X110744000Y-180238000D01*
X110744000Y-180238000D02*
X111074000Y-179908000D01*
X111074000Y-179908000D02*
X111074000Y-177775000D01*
X111074000Y-177775000D02*
X110465000Y-177165000D01*
X110465000Y-177165000D02*
X89585800Y-177165000D01*
X89585800Y-177165000D02*
X88569800Y-176149000D01*
X88569800Y-176149000D02*
X88569800Y-174736000D01*
X88569800Y-174736000D02*
X86756900Y-172923000D01*
X86756900Y-172923000D02*
X84312100Y-172923000D01*
X84312100Y-172923000D02*
X77200100Y-180035000D01*
X77200100Y-180035000D02*
X58786200Y-180035000D01*
X58786200Y-180035000D02*
X57785000Y-179034000D01*
G04 #@! TO.N,/PI_TXD_SRC*
X110744000Y-186990000D02*
X109474000Y-185720000D01*
X109474000Y-185720000D02*
X109474000Y-178276000D01*
X109474000Y-178276000D02*
X109576000Y-178174000D01*
G04 #@! TO.N,/PI_RXD_DST*
X108204000Y-186990000D02*
X106934000Y-185720000D01*
X106934000Y-185720000D02*
X106934000Y-178225000D01*
X106934000Y-178225000D02*
X106985000Y-178174000D01*
G04 #@! TO.N,/PI_JTAG_TDI_SRC*
X97485200Y-178165000D02*
X97485200Y-182469000D01*
X97485200Y-182469000D02*
X95504000Y-184450000D01*
G04 #@! TO.N,/PI_JTAG_TDO_DST*
X95214400Y-178181000D02*
X95214400Y-182200000D01*
X95214400Y-182200000D02*
X92964000Y-184450000D01*
G04 #@! TO.N,/PI_JTAG_TMS_SRC*
X92964000Y-186990000D02*
X91694000Y-185720000D01*
X91694000Y-185720000D02*
X91694000Y-182931000D01*
X91694000Y-182931000D02*
X92928400Y-181696000D01*
X92928400Y-181696000D02*
X92928400Y-178165000D01*
G04 #@! TO.N,/PI_JTAG_TCK_SRC*
X90424000Y-184450000D02*
X90424000Y-178383000D01*
X90424000Y-178383000D02*
X90642400Y-178165000D01*
G04 #@! TO.N,/GPIO7*
X87884000Y-186990000D02*
X86588600Y-185695000D01*
X86588600Y-185695000D02*
X86588600Y-181712000D01*
X86588600Y-181712000D02*
X88163400Y-180137000D01*
X88163400Y-180137000D02*
X88163400Y-174904000D01*
X88163400Y-174904000D02*
X86588600Y-173330000D01*
X86588600Y-173330000D02*
X84480400Y-173330000D01*
X84480400Y-173330000D02*
X77419200Y-180391000D01*
X77419200Y-180391000D02*
X77419200Y-180416000D01*
X77419200Y-180416000D02*
X77393800Y-180442000D01*
X77393800Y-180442000D02*
X56591200Y-180442000D01*
X56591200Y-180442000D02*
X55727600Y-179578000D01*
X55727600Y-179578000D02*
X55727600Y-178791000D01*
X55727600Y-178791000D02*
X55066200Y-178129000D01*
X55066200Y-178129000D02*
X47259800Y-178129000D01*
X47259800Y-178129000D02*
X46355000Y-179034000D01*
G04 #@! TO.N,Net-(J1-Pad27)*
X85344000Y-184450000D02*
X85344000Y-180950000D01*
X85344000Y-180950000D02*
X86578400Y-179715000D01*
X86578400Y-179715000D02*
X86578400Y-178181000D01*
G04 #@! TO.N,Net-(J1-Pad28)*
X85344000Y-186990000D02*
X84074000Y-185720000D01*
X84074000Y-185720000D02*
X84074000Y-178399000D01*
X84074000Y-178399000D02*
X84292400Y-178181000D01*
G04 #@! TO.N,/GPIO5*
X82804000Y-184450000D02*
X79202000Y-180848000D01*
X79202000Y-180848000D02*
X54559200Y-180848000D01*
X54559200Y-180848000D02*
X53985000Y-180274000D01*
X53985000Y-180274000D02*
X53985000Y-179034000D01*
G04 #@! TO.N,/GPIO6*
X80264000Y-184450000D02*
X77068400Y-181254000D01*
X77068400Y-181254000D02*
X50850800Y-181254000D01*
X50850800Y-181254000D02*
X50165000Y-180569000D01*
X50165000Y-180569000D02*
X50165000Y-179034000D01*
G04 #@! TO.N,/PWM0*
X133350000Y-174244000D02*
X133858000Y-174752000D01*
X133858000Y-174752000D02*
X133858000Y-178308000D01*
X133858000Y-178308000D02*
X137414000Y-181864000D01*
G04 #@! TO.N,/PWM1*
X133858000Y-173482000D02*
X134366000Y-173990000D01*
X134366000Y-173990000D02*
X134366000Y-176276000D01*
X134366000Y-176276000D02*
X137414000Y-179324000D01*
G04 #@! TO.N,/SPI_MISO*
X138938000Y-172720000D02*
X139446000Y-173228000D01*
X139446000Y-173228000D02*
X139446000Y-180086000D01*
X139446000Y-180086000D02*
X143764000Y-184404000D01*
G04 #@! TO.N,/SPI_MOSI*
X139700000Y-171958000D02*
X140208000Y-172466000D01*
X140208000Y-172466000D02*
X140208000Y-178308000D01*
X140208000Y-178308000D02*
X143764000Y-181864000D01*
G04 #@! TO.N,/SPI_SCLK*
X140208000Y-170180000D02*
X140970000Y-170942000D01*
X140970000Y-170942000D02*
X140970000Y-176530000D01*
X140970000Y-176530000D02*
X143764000Y-179324000D01*
G04 #@! TO.N,PI_JTAG_TMS*
X48530000Y-150495000D02*
X46939200Y-150495000D01*
G04 #@! TO.N,PI_JTAG_TDI*
X102390000Y-143406000D02*
X100432000Y-145364000D01*
X100432000Y-145364000D02*
X100432000Y-148819000D01*
X100432000Y-148819000D02*
X98120200Y-151130000D01*
X98120200Y-151130000D02*
X64770000Y-151130000D01*
G04 #@! TO.N,PI_JTAG_TDO*
X64865000Y-161290000D02*
X65963800Y-161290000D01*
X65963800Y-161290000D02*
X75717400Y-151536000D01*
X75717400Y-151536000D02*
X99644200Y-151536000D01*
X99644200Y-151536000D02*
X103886000Y-147295000D01*
X103886000Y-147295000D02*
X103886000Y-142362000D01*
X103886000Y-142362000D02*
X102390000Y-140866000D01*
G04 #@! TO.N,PI_RXD*
X47895000Y-160655000D02*
X45796200Y-160655000D01*
G04 #@! TO.N,PI_JTAG_TCK*
X64865000Y-147955000D02*
X65989200Y-147955000D01*
X65989200Y-147955000D02*
X68757800Y-150724000D01*
X68757800Y-150724000D02*
X97951900Y-150724000D01*
X97951900Y-150724000D02*
X100025000Y-148650000D01*
X100025000Y-148650000D02*
X100025000Y-140691000D01*
X100025000Y-140691000D02*
X102390000Y-138326000D01*
G04 #@! TO.N,PI_TXD*
X48530000Y-147955000D02*
X46532800Y-147955000D01*
X46532800Y-147955000D02*
X45847000Y-147269000D01*
X45847000Y-147269000D02*
X45847000Y-141326000D01*
G04 #@! TO.N,Net-(R14-Pad2)*
X65802000Y-101203000D02*
X66935600Y-102337000D01*
X66935600Y-102337000D02*
X102876000Y-102337000D01*
X102876000Y-102337000D02*
X104953000Y-100260000D01*
X104953000Y-100260000D02*
X104953000Y-94008900D01*
X104953000Y-94008900D02*
X102390000Y-91446100D01*
X64668400Y-100069000D02*
X65802000Y-101203000D01*
X65802000Y-101203000D02*
X64668400Y-100069400D01*
G04 #@! TO.N,Net-(R14-Pad1)*
X64668400Y-94767400D02*
X64668400Y-98069400D01*
G04 #@! TO.N,Net-(R15-Pad2)*
X70561200Y-101117500D02*
X69748400Y-100304700D01*
X69748400Y-100304700D02*
X69748400Y-100304600D01*
X70561200Y-101117500D02*
X71374000Y-101930000D01*
X71374000Y-101930000D02*
X102708000Y-101930000D01*
X102708000Y-101930000D02*
X104546000Y-100092000D01*
X104546000Y-100092000D02*
X104546000Y-96142500D01*
X104546000Y-96142500D02*
X102390000Y-93986100D01*
X69748400Y-100305000D02*
X70561200Y-101117500D01*
G04 #@! TO.N,Net-(R15-Pad1)*
X69748400Y-94767400D02*
X69748400Y-98304600D01*
G04 #@! TO.N,Net-(R16-Pad1)*
X72288400Y-94767400D02*
X72288400Y-98304600D01*
G04 #@! TO.N,Net-(R16-Pad2)*
X72885300Y-100901500D02*
X73482200Y-101498000D01*
X73482200Y-101498000D02*
X102565000Y-101498000D01*
X102565000Y-101498000D02*
X104013000Y-100051000D01*
X104013000Y-100051000D02*
X104013000Y-98149100D01*
X104013000Y-98149100D02*
X102390000Y-96526100D01*
X72288400Y-100305000D02*
X72885300Y-100901500D01*
X72885300Y-100901500D02*
X72288400Y-100304600D01*
G04 #@! TO.N,Net-(R17-Pad2)*
X74803000Y-100203000D02*
X74879200Y-100203000D01*
X74879200Y-100203000D02*
X75768200Y-101092000D01*
X75768200Y-101092000D02*
X100364000Y-101092000D01*
X100364000Y-101092000D02*
X102390000Y-99066100D01*
G04 #@! TO.N,Net-(R17-Pad1)*
X74828400Y-94767400D02*
X74828400Y-98177600D01*
X74828400Y-98177600D02*
X74803000Y-98203000D01*
G04 #@! TO.N,Net-(R18-Pad1)*
X71773800Y-88874600D02*
X89259700Y-88874600D01*
X89259700Y-88874600D02*
X89291200Y-88906100D01*
G04 #@! TO.N,Net-(R18-Pad2)*
X69773800Y-88874600D02*
X69773800Y-92202000D01*
X69773800Y-92202000D02*
X69748400Y-92227400D01*
G04 #@! TO.N,Net-(R19-Pad2)*
X64668400Y-88833200D02*
X64668400Y-92227400D01*
G04 #@! TO.N,Net-(R19-Pad1)*
X64668400Y-86833200D02*
X65319400Y-86833200D01*
X65319400Y-86833200D02*
X66116200Y-87630000D01*
X66116200Y-87630000D02*
X66116200Y-97002600D01*
X66116200Y-97002600D02*
X68323000Y-99209400D01*
X68323000Y-99209400D02*
X84067900Y-99209400D01*
X84067900Y-99209400D02*
X89291200Y-93986100D01*
G04 #@! TO.N,Net-(U1-Pad1)*
X67208400Y-92227400D02*
X67208400Y-94767400D01*
X67208400Y-92227400D02*
X67208400Y-88900000D01*
X67208400Y-88900000D02*
X68630800Y-87477600D01*
X68630800Y-87477600D02*
X68674100Y-87520900D01*
X68674100Y-87520900D02*
X101235000Y-87520900D01*
X101235000Y-87520900D02*
X102390000Y-86366100D01*
G04 #@! TO.N,PORT_D7*
X135943000Y-154457000D02*
X146232600Y-144167400D01*
X146232600Y-144167400D02*
X146232600Y-117879400D01*
X146232600Y-117879400D02*
X135941000Y-107587800D01*
G04 #@! TO.N,PORT_D3*
X134673000Y-154457000D02*
X145825900Y-143304100D01*
X145825900Y-143304100D02*
X145825900Y-118742700D01*
X145825900Y-118742700D02*
X134671000Y-107587800D01*
G04 #@! TO.N,PORT_D6*
X133403000Y-154457000D02*
X145419200Y-142440800D01*
X145419200Y-142440800D02*
X145419200Y-119606000D01*
X145419200Y-119606000D02*
X133401000Y-107587800D01*
G04 #@! TO.N,PORT_D2*
X132133000Y-154457000D02*
X145012500Y-141577500D01*
X145012500Y-141577500D02*
X145012500Y-120469300D01*
X145012500Y-120469300D02*
X132131000Y-107587800D01*
G04 #@! TO.N,PORT_D5*
X130863000Y-154457000D02*
X144605800Y-140714200D01*
X144605800Y-140714200D02*
X144605800Y-121332600D01*
X144605800Y-121332600D02*
X130861000Y-107587800D01*
G04 #@! TO.N,PORT_D1*
X129593000Y-154457000D02*
X144199100Y-139850900D01*
X144199100Y-139850900D02*
X144199100Y-122195900D01*
X144199100Y-122195900D02*
X129591000Y-107587800D01*
G04 #@! TO.N,PORT_D4*
X128323000Y-154457000D02*
X143792400Y-138987600D01*
X143792400Y-138987600D02*
X143792400Y-123059200D01*
X143792400Y-123059200D02*
X128321000Y-107587800D01*
G04 #@! TO.N,PORT_D0*
X127053000Y-154457000D02*
X143385700Y-138124300D01*
X143385700Y-138124300D02*
X143385700Y-123922500D01*
X143385700Y-123922500D02*
X127051000Y-107587800D01*
G04 #@! TO.N,PORT_C7*
X123243000Y-154457000D02*
X142979000Y-134721000D01*
X142979000Y-134721000D02*
X142979000Y-127236000D01*
X142979000Y-127236000D02*
X123330800Y-107587800D01*
X123330800Y-107587800D02*
X123241000Y-107587800D01*
G04 #@! TO.N,PORT_C3*
X121973000Y-154457000D02*
X142572300Y-133857700D01*
X142572300Y-133857700D02*
X142572300Y-127404500D01*
X142572300Y-127404500D02*
X140166000Y-124998200D01*
X140166000Y-124998200D02*
X139381400Y-124998200D01*
X139381400Y-124998200D02*
X121971000Y-107587800D01*
G04 #@! TO.N,PORT_C6*
X120703000Y-154457000D02*
X142165600Y-132994400D01*
X142165600Y-132994400D02*
X142165600Y-127573000D01*
X142165600Y-127573000D02*
X139997500Y-125404900D01*
X139997500Y-125404900D02*
X138518100Y-125404900D01*
X138518100Y-125404900D02*
X120701000Y-107587800D01*
G04 #@! TO.N,PORT_C2*
X119433000Y-154457000D02*
X141758900Y-132131100D01*
X141758900Y-132131100D02*
X141758900Y-127741500D01*
X141758900Y-127741500D02*
X139829000Y-125811600D01*
X139829000Y-125811600D02*
X137654800Y-125811600D01*
X137654800Y-125811600D02*
X119431000Y-107587800D01*
G04 #@! TO.N,PORT_C5*
X118163000Y-154457000D02*
X141352200Y-131267800D01*
X141352200Y-131267800D02*
X141352200Y-127910000D01*
X141352200Y-127910000D02*
X139660500Y-126218300D01*
X139660500Y-126218300D02*
X136791500Y-126218300D01*
X136791500Y-126218300D02*
X118161000Y-107587800D01*
G04 #@! TO.N,PORT_C1*
X116893000Y-154457000D02*
X140945500Y-130404500D01*
X140945500Y-130404500D02*
X140945500Y-128078500D01*
X140945500Y-128078500D02*
X139492000Y-126625000D01*
X139492000Y-126625000D02*
X135928200Y-126625000D01*
X135928200Y-126625000D02*
X116891000Y-107587800D01*
G04 #@! TO.N,PORT_C4*
X115621000Y-107587800D02*
X135064900Y-127031700D01*
X135064900Y-127031700D02*
X139323500Y-127031700D01*
X139323500Y-127031700D02*
X140538800Y-128247000D01*
X140538800Y-128247000D02*
X140538800Y-129929800D01*
X140538800Y-129929800D02*
X116961600Y-153507000D01*
X116961600Y-153507000D02*
X116573000Y-153507000D01*
X116573000Y-153507000D02*
X115623000Y-154457000D01*
G04 #@! TO.N,PORT_C0*
X114351000Y-107587800D02*
X134201600Y-127438400D01*
X134201600Y-127438400D02*
X139155000Y-127438400D01*
X139155000Y-127438400D02*
X140132100Y-128415500D01*
X140132100Y-128415500D02*
X140132100Y-129756400D01*
X140132100Y-129756400D02*
X117186700Y-152701800D01*
X117186700Y-152701800D02*
X116108200Y-152701800D01*
X116108200Y-152701800D02*
X114353000Y-154457000D01*
D20*
G04 #@! TO.N,+3.3VP*
X84023200Y-84245200D02*
X85667600Y-84245200D01*
D19*
G04 #@! TO.N,PORT_B7*
X110543000Y-154457000D02*
X114934200Y-150065800D01*
X114934200Y-150065800D02*
X119247600Y-150065800D01*
X119247600Y-150065800D02*
X139725400Y-129588000D01*
X139725400Y-129588000D02*
X139725400Y-128584000D01*
X139725400Y-128584000D02*
X138986500Y-127845100D01*
X138986500Y-127845100D02*
X130798300Y-127845100D01*
X130798300Y-127845100D02*
X110541000Y-107587800D01*
G04 #@! TO.N,PORT_B3*
X109271000Y-107587800D02*
X110087600Y-106771200D01*
X110087600Y-106771200D02*
X138844000Y-106771200D01*
X138844000Y-106771200D02*
X146639300Y-114566500D01*
X146639300Y-114566500D02*
X146639300Y-147443400D01*
X146639300Y-147443400D02*
X138781800Y-155300900D01*
X138781800Y-155300900D02*
X110116900Y-155300900D01*
X110116900Y-155300900D02*
X109273000Y-154457000D01*
G04 #@! TO.N,PORT_B6*
X108003000Y-154457000D02*
X109253600Y-155707600D01*
X109253600Y-155707600D02*
X138950300Y-155707600D01*
X138950300Y-155707600D02*
X147046000Y-147611900D01*
X147046000Y-147611900D02*
X147046000Y-114398000D01*
X147046000Y-114398000D02*
X139012500Y-106364500D01*
X139012500Y-106364500D02*
X109224300Y-106364500D01*
X109224300Y-106364500D02*
X108001000Y-107587800D01*
G04 #@! TO.N,PORT_B2*
X106733000Y-154457000D02*
X108390300Y-156114300D01*
X108390300Y-156114300D02*
X139118800Y-156114300D01*
X139118800Y-156114300D02*
X147452700Y-147780400D01*
X147452700Y-147780400D02*
X147452700Y-114229500D01*
X147452700Y-114229500D02*
X139181000Y-105957800D01*
X139181000Y-105957800D02*
X108361000Y-105957800D01*
X108361000Y-105957800D02*
X106731000Y-107587800D01*
G04 #@! TO.N,PORT_B5*
X105461000Y-107587800D02*
X107497700Y-105551100D01*
X107497700Y-105551100D02*
X139349500Y-105551100D01*
X139349500Y-105551100D02*
X147859400Y-114061000D01*
X147859400Y-114061000D02*
X147859400Y-147948900D01*
X147859400Y-147948900D02*
X139287300Y-156521000D01*
X139287300Y-156521000D02*
X107527000Y-156521000D01*
X107527000Y-156521000D02*
X105463000Y-154457000D01*
G04 #@! TO.N,PORT_B1*
X104193000Y-154457000D02*
X106663700Y-156927700D01*
X106663700Y-156927700D02*
X139455800Y-156927700D01*
X139455800Y-156927700D02*
X148266100Y-148117400D01*
X148266100Y-148117400D02*
X148266100Y-113892500D01*
X148266100Y-113892500D02*
X139518000Y-105144400D01*
X139518000Y-105144400D02*
X106832700Y-105144400D01*
X106832700Y-105144400D02*
X105205900Y-106771200D01*
X105205900Y-106771200D02*
X105007600Y-106771200D01*
X105007600Y-106771200D02*
X104191000Y-107587800D01*
G04 #@! TO.N,PORT_B4*
X102921000Y-107587800D02*
X123584900Y-128251700D01*
X123584900Y-128251700D02*
X123584900Y-128251800D01*
X123584900Y-128251800D02*
X138818000Y-128251800D01*
X138818000Y-128251800D02*
X139318700Y-128752500D01*
X139318700Y-128752500D02*
X139318700Y-129419400D01*
X139318700Y-129419400D02*
X119389800Y-149348300D01*
X119389800Y-149348300D02*
X108031700Y-149348300D01*
X108031700Y-149348300D02*
X102923000Y-154457000D01*
G04 #@! TO.N,PORT_B0*
X101653000Y-154457000D02*
X104530400Y-157334400D01*
X104530400Y-157334400D02*
X139624300Y-157334400D01*
X139624300Y-157334400D02*
X148672800Y-148285900D01*
X148672800Y-148285900D02*
X148672800Y-113724000D01*
X148672800Y-113724000D02*
X139686500Y-104737700D01*
X139686500Y-104737700D02*
X106664100Y-104737700D01*
X106664100Y-104737700D02*
X105037300Y-106364500D01*
X105037300Y-106364500D02*
X102874300Y-106364500D01*
X102874300Y-106364500D02*
X101651000Y-107587800D01*
G04 #@! TO.N,PORT_A7*
X97843000Y-154457000D02*
X101127100Y-157741100D01*
X101127100Y-157741100D02*
X139792800Y-157741100D01*
X139792800Y-157741100D02*
X149079500Y-148454400D01*
X149079500Y-148454400D02*
X149079500Y-113555500D01*
X149079500Y-113555500D02*
X139855000Y-104331000D01*
X139855000Y-104331000D02*
X106495600Y-104331000D01*
X106495600Y-104331000D02*
X104868800Y-105957800D01*
X104868800Y-105957800D02*
X99471000Y-105957800D01*
X99471000Y-105957800D02*
X97841000Y-107587800D01*
G04 #@! TO.N,PORT_A3*
X96573000Y-154457000D02*
X100263800Y-158147800D01*
X100263800Y-158147800D02*
X139961300Y-158147800D01*
X139961300Y-158147800D02*
X149486200Y-148622900D01*
X149486200Y-148622900D02*
X149486200Y-113387000D01*
X149486200Y-113387000D02*
X140023500Y-103924300D01*
X140023500Y-103924300D02*
X106327100Y-103924300D01*
X106327100Y-103924300D02*
X104700300Y-105551100D01*
X104700300Y-105551100D02*
X98607700Y-105551100D01*
X98607700Y-105551100D02*
X96571000Y-107587800D01*
G04 #@! TO.N,PORT_A6*
X95303000Y-154457000D02*
X99400500Y-158554500D01*
X99400500Y-158554500D02*
X140129800Y-158554500D01*
X140129800Y-158554500D02*
X149892900Y-148791400D01*
X149892900Y-148791400D02*
X149892900Y-113218500D01*
X149892900Y-113218500D02*
X140192000Y-103517600D01*
X140192000Y-103517600D02*
X106158600Y-103517600D01*
X106158600Y-103517600D02*
X104531800Y-105144400D01*
X104531800Y-105144400D02*
X97744400Y-105144400D01*
X97744400Y-105144400D02*
X95301000Y-107587800D01*
G04 #@! TO.N,PORT_A2*
X94033000Y-154457000D02*
X98537200Y-158961200D01*
X98537200Y-158961200D02*
X140298300Y-158961200D01*
X140298300Y-158961200D02*
X150299600Y-148959900D01*
X150299600Y-148959900D02*
X150299600Y-113050000D01*
X150299600Y-113050000D02*
X140360500Y-103110900D01*
X140360500Y-103110900D02*
X105990100Y-103110900D01*
X105990100Y-103110900D02*
X104363300Y-104737700D01*
X104363300Y-104737700D02*
X96881100Y-104737700D01*
X96881100Y-104737700D02*
X94031000Y-107587800D01*
G04 #@! TO.N,PORT_A5*
X92763000Y-154457000D02*
X97673900Y-159367900D01*
X97673900Y-159367900D02*
X140466800Y-159367900D01*
X140466800Y-159367900D02*
X150706300Y-149128400D01*
X150706300Y-149128400D02*
X150706300Y-112881500D01*
X150706300Y-112881500D02*
X140529000Y-102704200D01*
X140529000Y-102704200D02*
X105821600Y-102704200D01*
X105821600Y-102704200D02*
X104194800Y-104331000D01*
X104194800Y-104331000D02*
X96017800Y-104331000D01*
X96017800Y-104331000D02*
X92761000Y-107587800D01*
G04 #@! TO.N,PORT_A1*
X91493000Y-154457000D02*
X96810600Y-159774600D01*
X96810600Y-159774600D02*
X140635300Y-159774600D01*
X140635300Y-159774600D02*
X151113000Y-149296900D01*
X151113000Y-149296900D02*
X151113000Y-112713000D01*
X151113000Y-112713000D02*
X140697500Y-102297500D01*
X140697500Y-102297500D02*
X105653100Y-102297500D01*
X105653100Y-102297500D02*
X104026300Y-103924300D01*
X104026300Y-103924300D02*
X95154500Y-103924300D01*
X95154500Y-103924300D02*
X91491000Y-107587800D01*
G04 #@! TO.N,PORT_A4*
X90223000Y-154457000D02*
X95947300Y-160181300D01*
X95947300Y-160181300D02*
X140803800Y-160181300D01*
X140803800Y-160181300D02*
X151519700Y-149465400D01*
X151519700Y-149465400D02*
X151519700Y-112544500D01*
X151519700Y-112544500D02*
X140866000Y-101890800D01*
X140866000Y-101890800D02*
X105484600Y-101890800D01*
X105484600Y-101890800D02*
X103857800Y-103517600D01*
X103857800Y-103517600D02*
X94291200Y-103517600D01*
X94291200Y-103517600D02*
X90221000Y-107587800D01*
G04 #@! TO.N,PORT_A0*
X88953000Y-154457000D02*
X95084000Y-160588000D01*
X95084000Y-160588000D02*
X140972300Y-160588000D01*
X140972300Y-160588000D02*
X151926400Y-149633900D01*
X151926400Y-149633900D02*
X151926400Y-112376000D01*
X151926400Y-112376000D02*
X141034500Y-101484100D01*
X141034500Y-101484100D02*
X105316100Y-101484100D01*
X105316100Y-101484100D02*
X103689300Y-103110900D01*
X103689300Y-103110900D02*
X93427900Y-103110900D01*
X93427900Y-103110900D02*
X88951000Y-107587800D01*
G04 #@! TO.N,Net-(D5-Pad2)*
X48895000Y-186690000D02*
X52019200Y-186690000D01*
G04 #@! TO.N,Net-(D6-Pad2)*
X48958500Y-182690000D02*
X52038500Y-182690000D01*
G04 #@! TO.N,Net-(D7-Pad2)*
X80010000Y-82236200D02*
X84014200Y-82236200D01*
X84014200Y-82236200D02*
X84023200Y-82245200D01*
G04 #@! TO.N,Net-(D8-Pad2)*
X81280000Y-128270000D02*
X85055000Y-128270000D01*
X85055000Y-128270000D02*
X85090000Y-128235000D01*
G04 #@! TO.N,Net-(IC1-Pad3)*
X53729400Y-147940000D02*
X50545000Y-147940000D01*
X50545000Y-147940000D02*
X50530000Y-147955000D01*
G04 #@! TO.N,Net-(IC2-Pad2)*
X49895000Y-160655000D02*
X53242200Y-160655000D01*
X53242200Y-160655000D02*
X53272200Y-160625000D01*
G04 #@! TD*
M02*
