G04 #@! TF.GenerationSoftware,KiCad,Pcbnew,(5.1.8)-1*
G04 #@! TF.CreationDate,2021-03-08T00:14:45+09:00*
G04 #@! TF.ProjectId,mifune_TE0890_remote_board,6d696675-6e65-45f5-9445-303839305f72,rev?*
G04 #@! TF.SameCoordinates,Original*
G04 #@! TF.FileFunction,Soldermask,Bot*
G04 #@! TF.FilePolarity,Negative*
%FSLAX46Y46*%
G04 Gerber Fmt 4.6, Leading zero omitted, Abs format (unit mm)*
G04 Created by KiCad (PCBNEW (5.1.8)-1) date 2021-03-08 00:14:45*
%MOMM*%
%LPD*%
G01*
G04 APERTURE LIST*
%ADD10C,1.000000*%
%ADD11C,2.700000*%
%ADD12R,1.700000X1.700000*%
%ADD13O,1.700000X1.700000*%
%ADD14C,1.500000*%
%ADD15C,1.200000*%
%ADD16C,6.400000*%
G04 APERTURE END LIST*
D10*
G04 #@! TO.C,U6*
X88953000Y-129057000D03*
X88953000Y-154457000D03*
X90223000Y-129057000D03*
X90223000Y-154457000D03*
X91493000Y-129057000D03*
X91493000Y-154457000D03*
X92763000Y-129057000D03*
X92763000Y-154457000D03*
X94033000Y-129057000D03*
X94033000Y-154457000D03*
X95303000Y-129057000D03*
X95303000Y-154457000D03*
X96573000Y-129057000D03*
X96573000Y-154457000D03*
X97843000Y-129057000D03*
X97843000Y-154457000D03*
X99113000Y-129057000D03*
X99113000Y-154457000D03*
X100383000Y-129057000D03*
X100383000Y-154457000D03*
X101653000Y-129057000D03*
X101653000Y-154457000D03*
X102923000Y-129057000D03*
X102923000Y-154457000D03*
X104193000Y-129057000D03*
X104193000Y-154457000D03*
X105463000Y-129057000D03*
X105463000Y-154457000D03*
X106733000Y-129057000D03*
X106733000Y-154457000D03*
X108003000Y-129057000D03*
X108003000Y-154457000D03*
X109273000Y-129057000D03*
X109273000Y-154457000D03*
X110543000Y-129057000D03*
X110543000Y-154457000D03*
X111813000Y-129057000D03*
X111813000Y-154457000D03*
X113083000Y-129057000D03*
X113083000Y-154457000D03*
X114353000Y-129057000D03*
X114353000Y-154457000D03*
X115623000Y-129057000D03*
X115623000Y-154457000D03*
X116893000Y-129057000D03*
X116893000Y-154457000D03*
X118163000Y-129057000D03*
X118163000Y-154457000D03*
X119433000Y-129057000D03*
X119433000Y-154457000D03*
X120703000Y-129057000D03*
X120703000Y-154457000D03*
X121973000Y-129057000D03*
X121973000Y-154457000D03*
X123243000Y-129057000D03*
X123243000Y-154457000D03*
X124513000Y-129057000D03*
X124513000Y-154457000D03*
X125783000Y-129057000D03*
X125783000Y-154457000D03*
X127053000Y-129057000D03*
X127053000Y-154457000D03*
X128323000Y-129057000D03*
X128323000Y-154457000D03*
X129593000Y-129057000D03*
X129593000Y-154457000D03*
X130863000Y-129057000D03*
X130863000Y-154457000D03*
X132133000Y-129057000D03*
X132133000Y-154457000D03*
X133403000Y-129057000D03*
X133403000Y-154457000D03*
X134673000Y-129057000D03*
X134673000Y-154457000D03*
X135943000Y-129057000D03*
X135943000Y-154457000D03*
X137213000Y-129057000D03*
X137213000Y-154457000D03*
X138483000Y-129057000D03*
X138483000Y-154457000D03*
G04 #@! TD*
G04 #@! TO.C,U3*
X138481000Y-107587800D03*
X138481000Y-82187800D03*
X137211000Y-107587800D03*
X137211000Y-82187800D03*
X135941000Y-107587800D03*
X135941000Y-82187800D03*
X134671000Y-107587800D03*
X134671000Y-82187800D03*
X133401000Y-107587800D03*
X133401000Y-82187800D03*
X132131000Y-107587800D03*
X132131000Y-82187800D03*
X130861000Y-107587800D03*
X130861000Y-82187800D03*
X129591000Y-107587800D03*
X129591000Y-82187800D03*
X128321000Y-107587800D03*
X128321000Y-82187800D03*
X127051000Y-107587800D03*
X127051000Y-82187800D03*
X125781000Y-107587800D03*
X125781000Y-82187800D03*
X124511000Y-107587800D03*
X124511000Y-82187800D03*
X123241000Y-107587800D03*
X123241000Y-82187800D03*
X121971000Y-107587800D03*
X121971000Y-82187800D03*
X120701000Y-107587800D03*
X120701000Y-82187800D03*
X119431000Y-107587800D03*
X119431000Y-82187800D03*
X118161000Y-107587800D03*
X118161000Y-82187800D03*
X116891000Y-107587800D03*
X116891000Y-82187800D03*
X115621000Y-107587800D03*
X115621000Y-82187800D03*
X114351000Y-107587800D03*
X114351000Y-82187800D03*
X113081000Y-107587800D03*
X113081000Y-82187800D03*
X111811000Y-107587800D03*
X111811000Y-82187800D03*
X110541000Y-107587800D03*
X110541000Y-82187800D03*
X109271000Y-107587800D03*
X109271000Y-82187800D03*
X108001000Y-107587800D03*
X108001000Y-82187800D03*
X106731000Y-107587800D03*
X106731000Y-82187800D03*
X105461000Y-107587800D03*
X105461000Y-82187800D03*
X104191000Y-107587800D03*
X104191000Y-82187800D03*
X102921000Y-107587800D03*
X102921000Y-82187800D03*
X101651000Y-107587800D03*
X101651000Y-82187800D03*
X100381000Y-107587800D03*
X100381000Y-82187800D03*
X99111000Y-107587800D03*
X99111000Y-82187800D03*
X97841000Y-107587800D03*
X97841000Y-82187800D03*
X96571000Y-107587800D03*
X96571000Y-82187800D03*
X95301000Y-107587800D03*
X95301000Y-82187800D03*
X94031000Y-107587800D03*
X94031000Y-82187800D03*
X92761000Y-107587800D03*
X92761000Y-82187800D03*
X91491000Y-107587800D03*
X91491000Y-82187800D03*
X90221000Y-107587800D03*
X90221000Y-82187800D03*
X88951000Y-107587800D03*
X88951000Y-82187800D03*
G04 #@! TD*
D11*
G04 #@! TO.C,H1*
X123247000Y-185730000D03*
G04 #@! TD*
G04 #@! TO.C,H2*
X65347400Y-185730000D03*
G04 #@! TD*
G04 #@! TO.C,H3*
X65363400Y-136746000D03*
G04 #@! TD*
D12*
G04 #@! TO.C,J1*
X118364000Y-184450000D03*
D13*
X118364000Y-186990000D03*
X115824000Y-184450000D03*
X115824000Y-186990000D03*
X113284000Y-184450000D03*
X113284000Y-186990000D03*
X110744000Y-184450000D03*
X110744000Y-186990000D03*
X108204000Y-184450000D03*
X108204000Y-186990000D03*
X105664000Y-184450000D03*
X105664000Y-186990000D03*
X103124000Y-184450000D03*
X103124000Y-186990000D03*
X100584000Y-184450000D03*
X100584000Y-186990000D03*
X98044000Y-184450000D03*
X98044000Y-186990000D03*
X95504000Y-184450000D03*
X95504000Y-186990000D03*
X92964000Y-184450000D03*
X92964000Y-186990000D03*
X90424000Y-184450000D03*
X90424000Y-186990000D03*
X87884000Y-184450000D03*
X87884000Y-186990000D03*
X85344000Y-184450000D03*
X85344000Y-186990000D03*
X82804000Y-184450000D03*
X82804000Y-186990000D03*
X80264000Y-184450000D03*
X80264000Y-186990000D03*
X77724000Y-184450000D03*
X77724000Y-186990000D03*
X75184000Y-184450000D03*
X75184000Y-186990000D03*
X72644000Y-184450000D03*
X72644000Y-186990000D03*
X70104000Y-184450000D03*
X70104000Y-186990000D03*
G04 #@! TD*
D14*
G04 #@! TO.C,J2*
X131064000Y-181864000D03*
G04 #@! TD*
G04 #@! TO.C,J3*
X131064000Y-179324000D03*
G04 #@! TD*
G04 #@! TO.C,J4*
X137414000Y-181864000D03*
G04 #@! TD*
G04 #@! TO.C,J5*
X137414000Y-179324000D03*
G04 #@! TD*
G04 #@! TO.C,J6*
X150114000Y-174244000D03*
G04 #@! TD*
G04 #@! TO.C,J7*
X150114000Y-186944000D03*
G04 #@! TD*
G04 #@! TO.C,J8*
X150114000Y-179324000D03*
G04 #@! TD*
G04 #@! TO.C,J9*
X150114000Y-181864000D03*
G04 #@! TD*
G04 #@! TO.C,J10*
X150114000Y-176784000D03*
G04 #@! TD*
G04 #@! TO.C,J11*
X150114000Y-171704000D03*
G04 #@! TD*
G04 #@! TO.C,J12*
X150139000Y-184404000D03*
G04 #@! TD*
G04 #@! TO.C,J13*
X143764000Y-186944000D03*
G04 #@! TD*
G04 #@! TO.C,J14*
X143764000Y-184404000D03*
G04 #@! TD*
G04 #@! TO.C,J15*
X143764000Y-181864000D03*
G04 #@! TD*
G04 #@! TO.C,J16*
X143764000Y-179324000D03*
G04 #@! TD*
G04 #@! TO.C,J17*
X50165000Y-163195000D03*
G04 #@! TD*
G04 #@! TO.C,J18*
X53975000Y-166370000D03*
G04 #@! TD*
G04 #@! TO.C,J19*
X62357000Y-163830000D03*
G04 #@! TD*
G04 #@! TO.C,J20*
X58420000Y-166370000D03*
G04 #@! TD*
G04 #@! TO.C,J21*
X85090000Y-133350000D03*
G04 #@! TD*
D12*
G04 #@! TO.C,U1*
X102390000Y-86366100D03*
D13*
X102390000Y-88906100D03*
X102390000Y-91446100D03*
X102390000Y-93986100D03*
X102390000Y-96526100D03*
X102390000Y-99066100D03*
G04 #@! TD*
D15*
G04 #@! TO.C,U2*
X67208400Y-94767400D03*
X69748400Y-92227400D03*
X67208400Y-92227400D03*
X69748400Y-94767400D03*
X64668400Y-94767400D03*
X72288400Y-92227400D03*
X64668400Y-92227400D03*
X72288400Y-94767400D03*
X62128400Y-94767400D03*
X74828400Y-92227400D03*
X62128400Y-92227400D03*
X74828400Y-94767400D03*
D16*
X55778400Y-93497400D03*
G04 #@! TD*
D13*
G04 #@! TO.C,U4*
X89291200Y-99066100D03*
X89291200Y-96526100D03*
X89291200Y-93986100D03*
X89291200Y-91446100D03*
X89291200Y-88906100D03*
D12*
X89291200Y-86366100D03*
G04 #@! TD*
G04 #@! TO.C,U5*
X102390000Y-133246000D03*
D13*
X102390000Y-135786000D03*
X102390000Y-138326000D03*
X102390000Y-140866000D03*
X102390000Y-143406000D03*
X102390000Y-145946000D03*
G04 #@! TD*
G04 #@! TO.C,U7*
X89298800Y-145941000D03*
X89298800Y-143401000D03*
X89298800Y-140861000D03*
X89298800Y-138321000D03*
X89298800Y-135781000D03*
D12*
X89298800Y-133241000D03*
G04 #@! TD*
D11*
G04 #@! TO.C,H4*
X45260000Y-72740000D03*
G04 #@! TD*
G04 #@! TO.C,H5*
X161270000Y-72740000D03*
G04 #@! TD*
G04 #@! TO.C,H6*
X161270000Y-185730000D03*
G04 #@! TD*
D14*
G04 #@! TO.C,J22*
X59182000Y-105664000D03*
G04 #@! TD*
G04 #@! TO.C,J23*
X65278000Y-175768000D03*
G04 #@! TD*
G04 #@! TO.C,J24*
X156972000Y-77470000D03*
G04 #@! TD*
G04 #@! TO.C,J25*
X155194000Y-174244000D03*
G04 #@! TD*
M02*
