G04 #@! TF.GenerationSoftware,KiCad,Pcbnew,(5.1.8)-1*
G04 #@! TF.CreationDate,2021-03-08T00:14:45+09:00*
G04 #@! TF.ProjectId,mifune_TE0890_remote_board,6d696675-6e65-45f5-9445-303839305f72,rev?*
G04 #@! TF.SameCoordinates,Original*
G04 #@! TF.FileFunction,Copper,L4,Bot*
G04 #@! TF.FilePolarity,Positive*
%FSLAX46Y46*%
G04 Gerber Fmt 4.6, Leading zero omitted, Abs format (unit mm)*
G04 Created by KiCad (PCBNEW (5.1.8)-1) date 2021-03-08 00:14:45*
%MOMM*%
%LPD*%
G01*
G04 APERTURE LIST*
G04 #@! TA.AperFunction,ComponentPad*
%ADD10C,1.000000*%
G04 #@! TD*
G04 #@! TA.AperFunction,ComponentPad*
%ADD11R,1.700000X1.700000*%
G04 #@! TD*
G04 #@! TA.AperFunction,ComponentPad*
%ADD12O,1.700000X1.700000*%
G04 #@! TD*
G04 #@! TA.AperFunction,ComponentPad*
%ADD13C,1.500000*%
G04 #@! TD*
G04 #@! TA.AperFunction,ComponentPad*
%ADD14C,1.200000*%
G04 #@! TD*
G04 #@! TA.AperFunction,ComponentPad*
%ADD15C,6.400000*%
G04 #@! TD*
G04 #@! TA.AperFunction,ViaPad*
%ADD16C,0.600000*%
G04 #@! TD*
G04 #@! TA.AperFunction,ViaPad*
%ADD17C,0.500000*%
G04 #@! TD*
G04 #@! TA.AperFunction,Conductor*
%ADD18C,0.203200*%
G04 #@! TD*
G04 APERTURE END LIST*
D10*
G04 #@! TO.P,U6,80*
G04 #@! TO.N,PORT_H0*
X88953000Y-129057000D03*
G04 #@! TO.P,U6,1*
G04 #@! TO.N,PORT_A0*
X88953000Y-154457000D03*
G04 #@! TO.P,U6,79*
G04 #@! TO.N,PORT_H4*
X90223000Y-129057000D03*
G04 #@! TO.P,U6,2*
G04 #@! TO.N,PORT_A4*
X90223000Y-154457000D03*
G04 #@! TO.P,U6,78*
G04 #@! TO.N,PORT_H1*
X91493000Y-129057000D03*
G04 #@! TO.P,U6,3*
G04 #@! TO.N,PORT_A1*
X91493000Y-154457000D03*
G04 #@! TO.P,U6,77*
G04 #@! TO.N,PORT_H5*
X92763000Y-129057000D03*
G04 #@! TO.P,U6,4*
G04 #@! TO.N,PORT_A5*
X92763000Y-154457000D03*
G04 #@! TO.P,U6,76*
G04 #@! TO.N,PORT_H2*
X94033000Y-129057000D03*
G04 #@! TO.P,U6,5*
G04 #@! TO.N,PORT_A2*
X94033000Y-154457000D03*
G04 #@! TO.P,U6,75*
G04 #@! TO.N,PORT_H6*
X95303000Y-129057000D03*
G04 #@! TO.P,U6,6*
G04 #@! TO.N,PORT_A6*
X95303000Y-154457000D03*
G04 #@! TO.P,U6,74*
G04 #@! TO.N,PORT_H3*
X96573000Y-129057000D03*
G04 #@! TO.P,U6,7*
G04 #@! TO.N,PORT_A3*
X96573000Y-154457000D03*
G04 #@! TO.P,U6,73*
G04 #@! TO.N,PORT_H7*
X97843000Y-129057000D03*
G04 #@! TO.P,U6,8*
G04 #@! TO.N,PORT_A7*
X97843000Y-154457000D03*
G04 #@! TO.P,U6,72*
G04 #@! TO.N,GND*
X99113000Y-129057000D03*
G04 #@! TO.P,U6,9*
X99113000Y-154457000D03*
G04 #@! TO.P,U6,71*
X100383000Y-129057000D03*
G04 #@! TO.P,U6,10*
X100383000Y-154457000D03*
G04 #@! TO.P,U6,70*
G04 #@! TO.N,PORT_G0*
X101653000Y-129057000D03*
G04 #@! TO.P,U6,11*
G04 #@! TO.N,PORT_B0*
X101653000Y-154457000D03*
G04 #@! TO.P,U6,69*
G04 #@! TO.N,PORT_G4*
X102923000Y-129057000D03*
G04 #@! TO.P,U6,12*
G04 #@! TO.N,PORT_B4*
X102923000Y-154457000D03*
G04 #@! TO.P,U6,68*
G04 #@! TO.N,PORT_G1*
X104193000Y-129057000D03*
G04 #@! TO.P,U6,13*
G04 #@! TO.N,PORT_B1*
X104193000Y-154457000D03*
G04 #@! TO.P,U6,67*
G04 #@! TO.N,PORT_G5*
X105463000Y-129057000D03*
G04 #@! TO.P,U6,14*
G04 #@! TO.N,PORT_B5*
X105463000Y-154457000D03*
G04 #@! TO.P,U6,66*
G04 #@! TO.N,PORT_G2*
X106733000Y-129057000D03*
G04 #@! TO.P,U6,15*
G04 #@! TO.N,PORT_B2*
X106733000Y-154457000D03*
G04 #@! TO.P,U6,65*
G04 #@! TO.N,PORT_G6*
X108003000Y-129057000D03*
G04 #@! TO.P,U6,16*
G04 #@! TO.N,PORT_B6*
X108003000Y-154457000D03*
G04 #@! TO.P,U6,64*
G04 #@! TO.N,PORT_G3*
X109273000Y-129057000D03*
G04 #@! TO.P,U6,17*
G04 #@! TO.N,PORT_B3*
X109273000Y-154457000D03*
G04 #@! TO.P,U6,63*
G04 #@! TO.N,PORT_G7*
X110543000Y-129057000D03*
G04 #@! TO.P,U6,18*
G04 #@! TO.N,PORT_B7*
X110543000Y-154457000D03*
G04 #@! TO.P,U6,62*
G04 #@! TO.N,+3.3VA*
X111813000Y-129057000D03*
G04 #@! TO.P,U6,19*
X111813000Y-154457000D03*
G04 #@! TO.P,U6,61*
G04 #@! TO.N,GND*
X113083000Y-129057000D03*
G04 #@! TO.P,U6,20*
X113083000Y-154457000D03*
G04 #@! TO.P,U6,60*
G04 #@! TO.N,PORT_F0*
X114353000Y-129057000D03*
G04 #@! TO.P,U6,21*
G04 #@! TO.N,PORT_C0*
X114353000Y-154457000D03*
G04 #@! TO.P,U6,59*
G04 #@! TO.N,PORT_F4*
X115623000Y-129057000D03*
G04 #@! TO.P,U6,22*
G04 #@! TO.N,PORT_C4*
X115623000Y-154457000D03*
G04 #@! TO.P,U6,58*
G04 #@! TO.N,PORT_F1*
X116893000Y-129057000D03*
G04 #@! TO.P,U6,23*
G04 #@! TO.N,PORT_C1*
X116893000Y-154457000D03*
G04 #@! TO.P,U6,57*
G04 #@! TO.N,PORT_F5*
X118163000Y-129057000D03*
G04 #@! TO.P,U6,24*
G04 #@! TO.N,PORT_C5*
X118163000Y-154457000D03*
G04 #@! TO.P,U6,56*
G04 #@! TO.N,PORT_F2*
X119433000Y-129057000D03*
G04 #@! TO.P,U6,25*
G04 #@! TO.N,PORT_C2*
X119433000Y-154457000D03*
G04 #@! TO.P,U6,55*
G04 #@! TO.N,PORT_F6*
X120703000Y-129057000D03*
G04 #@! TO.P,U6,26*
G04 #@! TO.N,PORT_C6*
X120703000Y-154457000D03*
G04 #@! TO.P,U6,54*
G04 #@! TO.N,PORT_F3*
X121973000Y-129057000D03*
G04 #@! TO.P,U6,27*
G04 #@! TO.N,PORT_C3*
X121973000Y-154457000D03*
G04 #@! TO.P,U6,53*
G04 #@! TO.N,PORT_F7*
X123243000Y-129057000D03*
G04 #@! TO.P,U6,28*
G04 #@! TO.N,PORT_C7*
X123243000Y-154457000D03*
G04 #@! TO.P,U6,52*
G04 #@! TO.N,GND*
X124513000Y-129057000D03*
G04 #@! TO.P,U6,29*
X124513000Y-154457000D03*
G04 #@! TO.P,U6,51*
X125783000Y-129057000D03*
G04 #@! TO.P,U6,30*
X125783000Y-154457000D03*
G04 #@! TO.P,U6,50*
G04 #@! TO.N,PORT_E0*
X127053000Y-129057000D03*
G04 #@! TO.P,U6,31*
G04 #@! TO.N,PORT_D0*
X127053000Y-154457000D03*
G04 #@! TO.P,U6,49*
G04 #@! TO.N,PORT_E4*
X128323000Y-129057000D03*
G04 #@! TO.P,U6,32*
G04 #@! TO.N,PORT_D4*
X128323000Y-154457000D03*
G04 #@! TO.P,U6,48*
G04 #@! TO.N,PORT_E1*
X129593000Y-129057000D03*
G04 #@! TO.P,U6,33*
G04 #@! TO.N,PORT_D1*
X129593000Y-154457000D03*
G04 #@! TO.P,U6,47*
G04 #@! TO.N,PORT_E5*
X130863000Y-129057000D03*
G04 #@! TO.P,U6,34*
G04 #@! TO.N,PORT_D5*
X130863000Y-154457000D03*
G04 #@! TO.P,U6,46*
G04 #@! TO.N,PORT_E2*
X132133000Y-129057000D03*
G04 #@! TO.P,U6,35*
G04 #@! TO.N,PORT_D2*
X132133000Y-154457000D03*
G04 #@! TO.P,U6,45*
G04 #@! TO.N,PORT_E6*
X133403000Y-129057000D03*
G04 #@! TO.P,U6,36*
G04 #@! TO.N,PORT_D6*
X133403000Y-154457000D03*
G04 #@! TO.P,U6,44*
G04 #@! TO.N,PORT_E3*
X134673000Y-129057000D03*
G04 #@! TO.P,U6,37*
G04 #@! TO.N,PORT_D3*
X134673000Y-154457000D03*
G04 #@! TO.P,U6,43*
G04 #@! TO.N,PORT_E7*
X135943000Y-129057000D03*
G04 #@! TO.P,U6,38*
G04 #@! TO.N,PORT_D7*
X135943000Y-154457000D03*
G04 #@! TO.P,U6,42*
G04 #@! TO.N,+5V*
X137213000Y-129057000D03*
G04 #@! TO.P,U6,39*
X137213000Y-154457000D03*
G04 #@! TO.P,U6,41*
G04 #@! TO.N,GND*
X138483000Y-129057000D03*
G04 #@! TO.P,U6,40*
X138483000Y-154457000D03*
G04 #@! TD*
G04 #@! TO.P,U3,40*
G04 #@! TO.N,GND*
X138481000Y-107587800D03*
G04 #@! TO.P,U3,41*
X138481000Y-82187800D03*
G04 #@! TO.P,U3,39*
G04 #@! TO.N,+5V*
X137211000Y-107587800D03*
G04 #@! TO.P,U3,42*
X137211000Y-82187800D03*
G04 #@! TO.P,U3,38*
G04 #@! TO.N,PORT_D7*
X135941000Y-107587800D03*
G04 #@! TO.P,U3,43*
G04 #@! TO.N,PORT_E7*
X135941000Y-82187800D03*
G04 #@! TO.P,U3,37*
G04 #@! TO.N,PORT_D3*
X134671000Y-107587800D03*
G04 #@! TO.P,U3,44*
G04 #@! TO.N,PORT_E3*
X134671000Y-82187800D03*
G04 #@! TO.P,U3,36*
G04 #@! TO.N,PORT_D6*
X133401000Y-107587800D03*
G04 #@! TO.P,U3,45*
G04 #@! TO.N,PORT_E6*
X133401000Y-82187800D03*
G04 #@! TO.P,U3,35*
G04 #@! TO.N,PORT_D2*
X132131000Y-107587800D03*
G04 #@! TO.P,U3,46*
G04 #@! TO.N,PORT_E2*
X132131000Y-82187800D03*
G04 #@! TO.P,U3,34*
G04 #@! TO.N,PORT_D5*
X130861000Y-107587800D03*
G04 #@! TO.P,U3,47*
G04 #@! TO.N,PORT_E5*
X130861000Y-82187800D03*
G04 #@! TO.P,U3,33*
G04 #@! TO.N,PORT_D1*
X129591000Y-107587800D03*
G04 #@! TO.P,U3,48*
G04 #@! TO.N,PORT_E1*
X129591000Y-82187800D03*
G04 #@! TO.P,U3,32*
G04 #@! TO.N,PORT_D4*
X128321000Y-107587800D03*
G04 #@! TO.P,U3,49*
G04 #@! TO.N,PORT_E4*
X128321000Y-82187800D03*
G04 #@! TO.P,U3,31*
G04 #@! TO.N,PORT_D0*
X127051000Y-107587800D03*
G04 #@! TO.P,U3,50*
G04 #@! TO.N,PORT_E0*
X127051000Y-82187800D03*
G04 #@! TO.P,U3,30*
G04 #@! TO.N,GND*
X125781000Y-107587800D03*
G04 #@! TO.P,U3,51*
X125781000Y-82187800D03*
G04 #@! TO.P,U3,29*
X124511000Y-107587800D03*
G04 #@! TO.P,U3,52*
X124511000Y-82187800D03*
G04 #@! TO.P,U3,28*
G04 #@! TO.N,PORT_C7*
X123241000Y-107587800D03*
G04 #@! TO.P,U3,53*
G04 #@! TO.N,PORT_F7*
X123241000Y-82187800D03*
G04 #@! TO.P,U3,27*
G04 #@! TO.N,PORT_C3*
X121971000Y-107587800D03*
G04 #@! TO.P,U3,54*
G04 #@! TO.N,PORT_F3*
X121971000Y-82187800D03*
G04 #@! TO.P,U3,26*
G04 #@! TO.N,PORT_C6*
X120701000Y-107587800D03*
G04 #@! TO.P,U3,55*
G04 #@! TO.N,PORT_F6*
X120701000Y-82187800D03*
G04 #@! TO.P,U3,25*
G04 #@! TO.N,PORT_C2*
X119431000Y-107587800D03*
G04 #@! TO.P,U3,56*
G04 #@! TO.N,PORT_F2*
X119431000Y-82187800D03*
G04 #@! TO.P,U3,24*
G04 #@! TO.N,PORT_C5*
X118161000Y-107587800D03*
G04 #@! TO.P,U3,57*
G04 #@! TO.N,PORT_F5*
X118161000Y-82187800D03*
G04 #@! TO.P,U3,23*
G04 #@! TO.N,PORT_C1*
X116891000Y-107587800D03*
G04 #@! TO.P,U3,58*
G04 #@! TO.N,PORT_F1*
X116891000Y-82187800D03*
G04 #@! TO.P,U3,22*
G04 #@! TO.N,PORT_C4*
X115621000Y-107587800D03*
G04 #@! TO.P,U3,59*
G04 #@! TO.N,PORT_F4*
X115621000Y-82187800D03*
G04 #@! TO.P,U3,21*
G04 #@! TO.N,PORT_C0*
X114351000Y-107587800D03*
G04 #@! TO.P,U3,60*
G04 #@! TO.N,PORT_F0*
X114351000Y-82187800D03*
G04 #@! TO.P,U3,20*
G04 #@! TO.N,GND*
X113081000Y-107587800D03*
G04 #@! TO.P,U3,61*
X113081000Y-82187800D03*
G04 #@! TO.P,U3,19*
G04 #@! TO.N,+3.3VP*
X111811000Y-107587800D03*
G04 #@! TO.P,U3,62*
X111811000Y-82187800D03*
G04 #@! TO.P,U3,18*
G04 #@! TO.N,PORT_B7*
X110541000Y-107587800D03*
G04 #@! TO.P,U3,63*
G04 #@! TO.N,PORT_G7*
X110541000Y-82187800D03*
G04 #@! TO.P,U3,17*
G04 #@! TO.N,PORT_B3*
X109271000Y-107587800D03*
G04 #@! TO.P,U3,64*
G04 #@! TO.N,PORT_G3*
X109271000Y-82187800D03*
G04 #@! TO.P,U3,16*
G04 #@! TO.N,PORT_B6*
X108001000Y-107587800D03*
G04 #@! TO.P,U3,65*
G04 #@! TO.N,PORT_G6*
X108001000Y-82187800D03*
G04 #@! TO.P,U3,15*
G04 #@! TO.N,PORT_B2*
X106731000Y-107587800D03*
G04 #@! TO.P,U3,66*
G04 #@! TO.N,PORT_G2*
X106731000Y-82187800D03*
G04 #@! TO.P,U3,14*
G04 #@! TO.N,PORT_B5*
X105461000Y-107587800D03*
G04 #@! TO.P,U3,67*
G04 #@! TO.N,PORT_G5*
X105461000Y-82187800D03*
G04 #@! TO.P,U3,13*
G04 #@! TO.N,PORT_B1*
X104191000Y-107587800D03*
G04 #@! TO.P,U3,68*
G04 #@! TO.N,PORT_G1*
X104191000Y-82187800D03*
G04 #@! TO.P,U3,12*
G04 #@! TO.N,PORT_B4*
X102921000Y-107587800D03*
G04 #@! TO.P,U3,69*
G04 #@! TO.N,PORT_G4*
X102921000Y-82187800D03*
G04 #@! TO.P,U3,11*
G04 #@! TO.N,PORT_B0*
X101651000Y-107587800D03*
G04 #@! TO.P,U3,70*
G04 #@! TO.N,PORT_G0*
X101651000Y-82187800D03*
G04 #@! TO.P,U3,10*
G04 #@! TO.N,GND*
X100381000Y-107587800D03*
G04 #@! TO.P,U3,71*
X100381000Y-82187800D03*
G04 #@! TO.P,U3,9*
X99111000Y-107587800D03*
G04 #@! TO.P,U3,72*
X99111000Y-82187800D03*
G04 #@! TO.P,U3,8*
G04 #@! TO.N,PORT_A7*
X97841000Y-107587800D03*
G04 #@! TO.P,U3,73*
G04 #@! TO.N,PORT_H7*
X97841000Y-82187800D03*
G04 #@! TO.P,U3,7*
G04 #@! TO.N,PORT_A3*
X96571000Y-107587800D03*
G04 #@! TO.P,U3,74*
G04 #@! TO.N,PORT_H3*
X96571000Y-82187800D03*
G04 #@! TO.P,U3,6*
G04 #@! TO.N,PORT_A6*
X95301000Y-107587800D03*
G04 #@! TO.P,U3,75*
G04 #@! TO.N,PORT_H6*
X95301000Y-82187800D03*
G04 #@! TO.P,U3,5*
G04 #@! TO.N,PORT_A2*
X94031000Y-107587800D03*
G04 #@! TO.P,U3,76*
G04 #@! TO.N,PORT_H2*
X94031000Y-82187800D03*
G04 #@! TO.P,U3,4*
G04 #@! TO.N,PORT_A5*
X92761000Y-107587800D03*
G04 #@! TO.P,U3,77*
G04 #@! TO.N,PORT_H5*
X92761000Y-82187800D03*
G04 #@! TO.P,U3,3*
G04 #@! TO.N,PORT_A1*
X91491000Y-107587800D03*
G04 #@! TO.P,U3,78*
G04 #@! TO.N,PORT_H1*
X91491000Y-82187800D03*
G04 #@! TO.P,U3,2*
G04 #@! TO.N,PORT_A4*
X90221000Y-107587800D03*
G04 #@! TO.P,U3,79*
G04 #@! TO.N,PORT_H4*
X90221000Y-82187800D03*
G04 #@! TO.P,U3,1*
G04 #@! TO.N,PORT_A0*
X88951000Y-107587800D03*
G04 #@! TO.P,U3,80*
G04 #@! TO.N,PORT_H0*
X88951000Y-82187800D03*
G04 #@! TD*
D11*
G04 #@! TO.P,J1,1*
G04 #@! TO.N,+3V3*
X118364000Y-184450000D03*
D12*
G04 #@! TO.P,J1,2*
G04 #@! TO.N,+5V*
X118364000Y-186990000D03*
G04 #@! TO.P,J1,3*
G04 #@! TO.N,/SDA*
X115824000Y-184450000D03*
G04 #@! TO.P,J1,4*
G04 #@! TO.N,+5V*
X115824000Y-186990000D03*
G04 #@! TO.P,J1,5*
G04 #@! TO.N,/SCL*
X113284000Y-184450000D03*
G04 #@! TO.P,J1,6*
G04 #@! TO.N,GND*
X113284000Y-186990000D03*
G04 #@! TO.P,J1,7*
G04 #@! TO.N,/GPIO4*
X110744000Y-184450000D03*
G04 #@! TO.P,J1,8*
G04 #@! TO.N,/PI_TXD_SRC*
X110744000Y-186990000D03*
G04 #@! TO.P,J1,9*
G04 #@! TO.N,GND*
X108204000Y-184450000D03*
G04 #@! TO.P,J1,10*
G04 #@! TO.N,/PI_RXD_DST*
X108204000Y-186990000D03*
G04 #@! TO.P,J1,11*
G04 #@! TO.N,/GPIO17*
X105664000Y-184450000D03*
G04 #@! TO.P,J1,12*
G04 #@! TO.N,/SPI_CE0*
X105664000Y-186990000D03*
G04 #@! TO.P,J1,13*
G04 #@! TO.N,/GPIO27*
X103124000Y-184450000D03*
G04 #@! TO.P,J1,14*
G04 #@! TO.N,GND*
X103124000Y-186990000D03*
G04 #@! TO.P,J1,15*
G04 #@! TO.N,/GPIO22*
X100584000Y-184450000D03*
G04 #@! TO.P,J1,16*
G04 #@! TO.N,/GPIO23*
X100584000Y-186990000D03*
G04 #@! TO.P,J1,17*
G04 #@! TO.N,+3V3*
X98044000Y-184450000D03*
G04 #@! TO.P,J1,18*
G04 #@! TO.N,/GPIO24*
X98044000Y-186990000D03*
G04 #@! TO.P,J1,19*
G04 #@! TO.N,/PI_JTAG_TDI_SRC*
X95504000Y-184450000D03*
G04 #@! TO.P,J1,20*
G04 #@! TO.N,GND*
X95504000Y-186990000D03*
G04 #@! TO.P,J1,21*
G04 #@! TO.N,/PI_JTAG_TDO_DST*
X92964000Y-184450000D03*
G04 #@! TO.P,J1,22*
G04 #@! TO.N,/PI_JTAG_TMS_SRC*
X92964000Y-186990000D03*
G04 #@! TO.P,J1,23*
G04 #@! TO.N,/PI_JTAG_TCK_SRC*
X90424000Y-184450000D03*
G04 #@! TO.P,J1,24*
G04 #@! TO.N,/GPIO8*
X90424000Y-186990000D03*
G04 #@! TO.P,J1,25*
G04 #@! TO.N,GND*
X87884000Y-184450000D03*
G04 #@! TO.P,J1,26*
G04 #@! TO.N,/GPIO7*
X87884000Y-186990000D03*
G04 #@! TO.P,J1,27*
G04 #@! TO.N,Net-(J1-Pad27)*
X85344000Y-184450000D03*
G04 #@! TO.P,J1,28*
G04 #@! TO.N,Net-(J1-Pad28)*
X85344000Y-186990000D03*
G04 #@! TO.P,J1,29*
G04 #@! TO.N,/GPIO5*
X82804000Y-184450000D03*
G04 #@! TO.P,J1,30*
G04 #@! TO.N,GND*
X82804000Y-186990000D03*
G04 #@! TO.P,J1,31*
G04 #@! TO.N,/GPIO6*
X80264000Y-184450000D03*
G04 #@! TO.P,J1,32*
G04 #@! TO.N,/PWM0*
X80264000Y-186990000D03*
G04 #@! TO.P,J1,33*
G04 #@! TO.N,/PWM1*
X77724000Y-184450000D03*
G04 #@! TO.P,J1,34*
G04 #@! TO.N,GND*
X77724000Y-186990000D03*
G04 #@! TO.P,J1,35*
G04 #@! TO.N,/SPI_MISO*
X75184000Y-184450000D03*
G04 #@! TO.P,J1,36*
G04 #@! TO.N,/PI_JTAG_OE*
X75184000Y-186990000D03*
G04 #@! TO.P,J1,37*
G04 #@! TO.N,/GPIO26*
X72644000Y-184450000D03*
G04 #@! TO.P,J1,38*
G04 #@! TO.N,/SPI_MOSI*
X72644000Y-186990000D03*
G04 #@! TO.P,J1,39*
G04 #@! TO.N,GND*
X70104000Y-184450000D03*
G04 #@! TO.P,J1,40*
G04 #@! TO.N,/SPI_SCLK*
X70104000Y-186990000D03*
G04 #@! TD*
D13*
G04 #@! TO.P,J2,1*
G04 #@! TO.N,/SDA*
X131064000Y-181864000D03*
G04 #@! TD*
G04 #@! TO.P,J3,1*
G04 #@! TO.N,/SCL*
X131064000Y-179324000D03*
G04 #@! TD*
G04 #@! TO.P,J4,1*
G04 #@! TO.N,/PWM0*
X137414000Y-181864000D03*
G04 #@! TD*
G04 #@! TO.P,J5,1*
G04 #@! TO.N,/PWM1*
X137414000Y-179324000D03*
G04 #@! TD*
G04 #@! TO.P,J6,1*
G04 #@! TO.N,/GPIO8*
X150114000Y-174244000D03*
G04 #@! TD*
G04 #@! TO.P,J7,1*
G04 #@! TO.N,/GPIO17*
X150114000Y-186944000D03*
G04 #@! TD*
G04 #@! TO.P,J8,1*
G04 #@! TO.N,/GPIO22*
X150114000Y-179324000D03*
G04 #@! TD*
G04 #@! TO.P,J9,1*
G04 #@! TO.N,/GPIO23*
X150114000Y-181864000D03*
G04 #@! TD*
G04 #@! TO.P,J10,1*
G04 #@! TO.N,/GPIO24*
X150114000Y-176784000D03*
G04 #@! TD*
G04 #@! TO.P,J11,1*
G04 #@! TO.N,/GPIO26*
X150114000Y-171704000D03*
G04 #@! TD*
G04 #@! TO.P,J12,1*
G04 #@! TO.N,/GPIO27*
X150139000Y-184404000D03*
G04 #@! TD*
G04 #@! TO.P,J13,1*
G04 #@! TO.N,/SPI_CE0*
X143764000Y-186944000D03*
G04 #@! TD*
G04 #@! TO.P,J14,1*
G04 #@! TO.N,/SPI_MISO*
X143764000Y-184404000D03*
G04 #@! TD*
G04 #@! TO.P,J15,1*
G04 #@! TO.N,/SPI_MOSI*
X143764000Y-181864000D03*
G04 #@! TD*
G04 #@! TO.P,J16,1*
G04 #@! TO.N,/SPI_SCLK*
X143764000Y-179324000D03*
G04 #@! TD*
G04 #@! TO.P,J17,1*
G04 #@! TO.N,Net-(IC2-Pad5)*
X50165000Y-163195000D03*
G04 #@! TD*
G04 #@! TO.P,J18,1*
G04 #@! TO.N,Net-(IC2-Pad6)*
X53975000Y-166370000D03*
G04 #@! TD*
G04 #@! TO.P,J19,1*
G04 #@! TO.N,Net-(IC2-Pad9)*
X62357000Y-163830000D03*
G04 #@! TD*
G04 #@! TO.P,J20,1*
G04 #@! TO.N,Net-(IC2-Pad8)*
X58420000Y-166370000D03*
G04 #@! TD*
G04 #@! TO.P,J21,1*
G04 #@! TO.N,Net-(J21-Pad1)*
X85090000Y-133350000D03*
G04 #@! TD*
D11*
G04 #@! TO.P,U1,1*
G04 #@! TO.N,Net-(U1-Pad1)*
X102390000Y-86366100D03*
D12*
G04 #@! TO.P,U1,2*
G04 #@! TO.N,GND*
X102390000Y-88906100D03*
G04 #@! TO.P,U1,3*
G04 #@! TO.N,Net-(R14-Pad2)*
X102390000Y-91446100D03*
G04 #@! TO.P,U1,4*
G04 #@! TO.N,Net-(R15-Pad2)*
X102390000Y-93986100D03*
G04 #@! TO.P,U1,5*
G04 #@! TO.N,Net-(R16-Pad2)*
X102390000Y-96526100D03*
G04 #@! TO.P,U1,6*
G04 #@! TO.N,Net-(R17-Pad2)*
X102390000Y-99066100D03*
G04 #@! TD*
D14*
G04 #@! TO.P,U2,6*
G04 #@! TO.N,Net-(U1-Pad1)*
X67208400Y-94767400D03*
G04 #@! TO.P,U2,7*
G04 #@! TO.N,Net-(R18-Pad2)*
X69748400Y-92227400D03*
G04 #@! TO.P,U2,5*
G04 #@! TO.N,Net-(U1-Pad1)*
X67208400Y-92227400D03*
G04 #@! TO.P,U2,8*
G04 #@! TO.N,Net-(R15-Pad1)*
X69748400Y-94767400D03*
G04 #@! TO.P,U2,4*
G04 #@! TO.N,Net-(R14-Pad1)*
X64668400Y-94767400D03*
G04 #@! TO.P,U2,9*
G04 #@! TO.N,Net-(U2-Pad9)*
X72288400Y-92227400D03*
G04 #@! TO.P,U2,3*
G04 #@! TO.N,Net-(R19-Pad2)*
X64668400Y-92227400D03*
G04 #@! TO.P,U2,10*
G04 #@! TO.N,Net-(R16-Pad1)*
X72288400Y-94767400D03*
G04 #@! TO.P,U2,2*
G04 #@! TO.N,GND*
X62128400Y-94767400D03*
G04 #@! TO.P,U2,11*
G04 #@! TO.N,Net-(U2-Pad11)*
X74828400Y-92227400D03*
G04 #@! TO.P,U2,1*
G04 #@! TO.N,GND*
X62128400Y-92227400D03*
G04 #@! TO.P,U2,12*
G04 #@! TO.N,Net-(R17-Pad1)*
X74828400Y-94767400D03*
D15*
G04 #@! TO.P,U2,GND*
G04 #@! TO.N,GND*
X55778400Y-93497400D03*
G04 #@! TD*
D12*
G04 #@! TO.P,U4,6*
G04 #@! TO.N,PI_RXD*
X89291200Y-99066100D03*
G04 #@! TO.P,U4,5*
G04 #@! TO.N,PI_TXD*
X89291200Y-96526100D03*
G04 #@! TO.P,U4,4*
G04 #@! TO.N,Net-(R19-Pad1)*
X89291200Y-93986100D03*
G04 #@! TO.P,U4,3*
G04 #@! TO.N,+5V*
X89291200Y-91446100D03*
G04 #@! TO.P,U4,2*
G04 #@! TO.N,Net-(R18-Pad1)*
X89291200Y-88906100D03*
D11*
G04 #@! TO.P,U4,1*
G04 #@! TO.N,GND*
X89291200Y-86366100D03*
G04 #@! TD*
G04 #@! TO.P,U5,1*
G04 #@! TO.N,+3.3VA*
X102390000Y-133246000D03*
D12*
G04 #@! TO.P,U5,2*
G04 #@! TO.N,GND*
X102390000Y-135786000D03*
G04 #@! TO.P,U5,3*
G04 #@! TO.N,PI_JTAG_TCK*
X102390000Y-138326000D03*
G04 #@! TO.P,U5,4*
G04 #@! TO.N,PI_JTAG_TDO*
X102390000Y-140866000D03*
G04 #@! TO.P,U5,5*
G04 #@! TO.N,PI_JTAG_TDI*
X102390000Y-143406000D03*
G04 #@! TO.P,U5,6*
G04 #@! TO.N,PI_JTAG_TMS*
X102390000Y-145946000D03*
G04 #@! TD*
G04 #@! TO.P,U7,6*
G04 #@! TO.N,Net-(J21-Pad6)*
X89298800Y-145941000D03*
G04 #@! TO.P,U7,5*
G04 #@! TO.N,Net-(J21-Pad5)*
X89298800Y-143401000D03*
G04 #@! TO.P,U7,4*
G04 #@! TO.N,Net-(J21-Pad4)*
X89298800Y-140861000D03*
G04 #@! TO.P,U7,3*
G04 #@! TO.N,Net-(J21-Pad3)*
X89298800Y-138321000D03*
G04 #@! TO.P,U7,2*
G04 #@! TO.N,Net-(J21-Pad2)*
X89298800Y-135781000D03*
D11*
G04 #@! TO.P,U7,1*
G04 #@! TO.N,Net-(J21-Pad1)*
X89298800Y-133241000D03*
G04 #@! TD*
D13*
G04 #@! TO.P,J22,1*
G04 #@! TO.N,GND*
X59182000Y-105664000D03*
G04 #@! TD*
G04 #@! TO.P,J23,1*
G04 #@! TO.N,GND*
X65278000Y-175768000D03*
G04 #@! TD*
G04 #@! TO.P,J24,1*
G04 #@! TO.N,GND*
X156972000Y-77470000D03*
G04 #@! TD*
G04 #@! TO.P,J25,1*
G04 #@! TO.N,GND*
X155194000Y-174244000D03*
G04 #@! TD*
D16*
G04 #@! TO.N,GND*
X78063200Y-84286200D03*
X79407800Y-130320000D03*
X66649600Y-153670000D03*
X66802000Y-145415000D03*
X53729400Y-145762000D03*
D17*
X45186600Y-184734000D03*
D16*
X52146200Y-170282000D03*
X66446400Y-158750000D03*
X56134000Y-164821000D03*
X56134000Y-158877000D03*
X46837600Y-153035000D03*
X52349400Y-151409000D03*
G04 #@! TO.N,+3.3VA*
X59613800Y-142748000D03*
X87096600Y-130277000D03*
G04 #@! TO.N,+3V3*
X55917600Y-182690000D03*
X46177200Y-164846000D03*
X58191400Y-154305000D03*
X60807600Y-157734000D03*
X69316600Y-163830000D03*
X85242400Y-174371000D03*
D17*
G04 #@! TO.N,/PI_JTAG_OE*
X61722000Y-182118000D03*
X59690000Y-179070000D03*
G04 #@! TO.N,Net-(IC1-Pad12)*
X61214000Y-151384000D03*
X61214000Y-147828000D03*
G04 #@! TO.N,Net-(IC1-Pad9)*
X81026000Y-152908000D03*
X65786000Y-149606000D03*
G04 #@! TO.N,Net-(IC1-Pad5)*
X52070000Y-148844000D03*
X79756000Y-152908000D03*
G04 #@! TO.N,Net-(IC1-Pad2)*
X82042000Y-152908000D03*
X52070000Y-146812000D03*
G04 #@! TO.N,Net-(IC2-Pad3)*
X85598000Y-161798000D03*
X51562000Y-161544000D03*
G04 #@! TO.N,Net-(IC2-Pad11)*
X60655200Y-162280600D03*
X94691200Y-167157400D03*
D16*
G04 #@! TO.N,+5V*
X55854600Y-186690000D03*
D17*
G04 #@! TO.N,/PWM0*
X133350000Y-174244000D03*
G04 #@! TO.N,/PWM1*
X133858000Y-173482000D03*
G04 #@! TO.N,/SPI_MISO*
X138938000Y-172720000D03*
G04 #@! TO.N,/SPI_MOSI*
X139700000Y-171958000D03*
G04 #@! TO.N,/SPI_SCLK*
X140208000Y-170180000D03*
G04 #@! TO.N,PI_JTAG_TMS*
X46939200Y-150495000D03*
G04 #@! TO.N,PI_RXD*
X45796200Y-160655000D03*
G04 #@! TO.N,PI_TXD*
X45847000Y-141326000D03*
D16*
G04 #@! TO.N,+3.3VP*
X85667600Y-84245200D03*
G04 #@! TD*
D18*
G04 #@! TO.N,/PI_JTAG_OE*
X61722000Y-182118000D02*
X59690000Y-180086000D01*
X59690000Y-180086000D02*
X59690000Y-179070000D01*
G04 #@! TO.N,Net-(IC1-Pad12)*
X61214000Y-147828000D02*
X61214000Y-151384000D01*
G04 #@! TO.N,Net-(IC1-Pad9)*
X65786000Y-149606000D02*
X77724000Y-149606000D01*
X77724000Y-149606000D02*
X81026000Y-152908000D01*
G04 #@! TO.N,Net-(IC1-Pad5)*
X52070000Y-148844000D02*
X55372000Y-152146000D01*
X55372000Y-152146000D02*
X78994000Y-152146000D01*
X78994000Y-152146000D02*
X79756000Y-152908000D01*
G04 #@! TO.N,Net-(IC1-Pad2)*
X52070000Y-146812000D02*
X75946000Y-146812000D01*
X75946000Y-146812000D02*
X82042000Y-152908000D01*
G04 #@! TO.N,Net-(IC2-Pad3)*
X51562000Y-161544000D02*
X85344000Y-161544000D01*
X85344000Y-161544000D02*
X85598000Y-161798000D01*
G04 #@! TO.N,Net-(IC2-Pad11)*
X60905199Y-162530599D02*
X90064399Y-162530599D01*
X60655200Y-162280600D02*
X60905199Y-162530599D01*
X90064399Y-162530599D02*
X94691200Y-167157400D01*
X94691200Y-167157400D02*
X94691200Y-167157400D01*
G04 #@! TO.N,/SDA*
X131064000Y-181864000D02*
X116434000Y-181864000D01*
X116434000Y-181864000D02*
X115824000Y-182474000D01*
X115824000Y-182474000D02*
X115824000Y-184450000D01*
G04 #@! TO.N,/SCL*
X113284000Y-184450000D02*
X113284000Y-183248000D01*
X113284000Y-183248000D02*
X115074000Y-181458000D01*
X115074000Y-181458000D02*
X128930000Y-181458000D01*
X128930000Y-181458000D02*
X131064000Y-179324000D01*
G04 #@! TO.N,/GPIO17*
X105664000Y-184450000D02*
X105664000Y-183248000D01*
X105664000Y-183248000D02*
X108267000Y-180645000D01*
X108267000Y-180645000D02*
X127559000Y-180645000D01*
X127559000Y-180645000D02*
X128727000Y-179476000D01*
X128727000Y-179476000D02*
X128727000Y-178267000D01*
X128727000Y-178267000D02*
X129753000Y-177241000D01*
X129753000Y-177241000D02*
X144475000Y-177241000D01*
X144475000Y-177241000D02*
X145796000Y-178562000D01*
X145796000Y-178562000D02*
X145796000Y-186182000D01*
X145796000Y-186182000D02*
X146558000Y-186944000D01*
X146558000Y-186944000D02*
X150114000Y-186944000D01*
G04 #@! TO.N,/SPI_CE0*
X105664000Y-186990000D02*
X106934000Y-185720000D01*
X106934000Y-185720000D02*
X106934000Y-183388000D01*
X106934000Y-183388000D02*
X109271000Y-181051000D01*
X109271000Y-181051000D02*
X127737000Y-181051000D01*
X127737000Y-181051000D02*
X129134000Y-179654000D01*
X129134000Y-179654000D02*
X129134000Y-178435000D01*
X129134000Y-178435000D02*
X129921000Y-177648000D01*
X129921000Y-177648000D02*
X132029000Y-177648000D01*
X132029000Y-177648000D02*
X132944000Y-178562000D01*
X132944000Y-178562000D02*
X132944000Y-186131000D01*
X132944000Y-186131000D02*
X133756000Y-186944000D01*
X133756000Y-186944000D02*
X143764000Y-186944000D01*
G04 #@! TO.N,/GPIO27*
X103124000Y-184450000D02*
X107336000Y-180238000D01*
X107336000Y-180238000D02*
X127381000Y-180238000D01*
X127381000Y-180238000D02*
X128321000Y-179299000D01*
X128321000Y-179299000D02*
X128321000Y-178098000D01*
X128321000Y-178098000D02*
X129584000Y-176835000D01*
X129584000Y-176835000D02*
X144644000Y-176835000D01*
X144644000Y-176835000D02*
X146202000Y-178394000D01*
X146202000Y-178394000D02*
X146202000Y-183540000D01*
X146202000Y-183540000D02*
X147066000Y-184404000D01*
X147066000Y-184404000D02*
X150139000Y-184404000D01*
G04 #@! TO.N,/GPIO22*
X100584000Y-184450000D02*
X100584000Y-183248000D01*
X100584000Y-183248000D02*
X104406000Y-179426000D01*
X104406000Y-179426000D02*
X126949000Y-179426000D01*
X126949000Y-179426000D02*
X127508000Y-178867000D01*
X127508000Y-178867000D02*
X127508000Y-177762000D01*
X127508000Y-177762000D02*
X129248000Y-176022000D01*
X129248000Y-176022000D02*
X144980000Y-176022000D01*
X144980000Y-176022000D02*
X148282000Y-179324000D01*
X148282000Y-179324000D02*
X150114000Y-179324000D01*
G04 #@! TO.N,/GPIO23*
X100584000Y-186990000D02*
X101854000Y-185720000D01*
X101854000Y-185720000D02*
X101854000Y-183413000D01*
X101854000Y-183413000D02*
X105435000Y-179832000D01*
X105435000Y-179832000D02*
X127213000Y-179832000D01*
X127213000Y-179832000D02*
X127914000Y-179130000D01*
X127914000Y-179130000D02*
X127914000Y-177930000D01*
X127914000Y-177930000D02*
X129416000Y-176428000D01*
X129416000Y-176428000D02*
X144812000Y-176428000D01*
X144812000Y-176428000D02*
X146609000Y-178225000D01*
X146609000Y-178225000D02*
X146609000Y-180899000D01*
X146609000Y-180899000D02*
X147574000Y-181864000D01*
X147574000Y-181864000D02*
X150114000Y-181864000D01*
G04 #@! TO.N,/GPIO24*
X98044000Y-186990000D02*
X99314000Y-185720000D01*
X99314000Y-185720000D02*
X99314000Y-183032000D01*
X99314000Y-183032000D02*
X103327000Y-179019000D01*
X103327000Y-179019000D02*
X126543000Y-179019000D01*
X126543000Y-179019000D02*
X127102000Y-178460000D01*
X127102000Y-178460000D02*
X127102000Y-177593000D01*
X127102000Y-177593000D02*
X129079000Y-175616000D01*
X129079000Y-175616000D02*
X145149000Y-175616000D01*
X145149000Y-175616000D02*
X146317000Y-176784000D01*
X146317000Y-176784000D02*
X150114000Y-176784000D01*
G04 #@! TO.N,/GPIO8*
X90424000Y-186990000D02*
X91694000Y-185720000D01*
X91694000Y-185720000D02*
X91694000Y-183185000D01*
X91694000Y-183185000D02*
X96266100Y-178613000D01*
X96266100Y-178613000D02*
X125507000Y-178613000D01*
X125507000Y-178613000D02*
X128911000Y-175209000D01*
X128911000Y-175209000D02*
X145339000Y-175209000D01*
X145339000Y-175209000D02*
X146304000Y-174244000D01*
X146304000Y-174244000D02*
X150114000Y-174244000D01*
G04 #@! TO.N,/PWM0*
X80264000Y-186990000D02*
X81534000Y-185720000D01*
X81534000Y-185720000D02*
X81534000Y-183185000D01*
X81534000Y-183185000D02*
X86512500Y-178206000D01*
X86512500Y-178206000D02*
X125339000Y-178206000D01*
X125339000Y-178206000D02*
X129301000Y-174244000D01*
X129301000Y-174244000D02*
X133350000Y-174244000D01*
G04 #@! TO.N,/PWM1*
X77724000Y-184450000D02*
X84374100Y-177800000D01*
X84374100Y-177800000D02*
X125171000Y-177800000D01*
X125171000Y-177800000D02*
X129489000Y-173482000D01*
X129489000Y-173482000D02*
X133858000Y-173482000D01*
G04 #@! TO.N,/SPI_MISO*
X75184000Y-184450000D02*
X82240500Y-177393000D01*
X82240500Y-177393000D02*
X125002000Y-177393000D01*
X125002000Y-177393000D02*
X129676000Y-172720000D01*
X129676000Y-172720000D02*
X138938000Y-172720000D01*
G04 #@! TO.N,/GPIO26*
X72644000Y-184450000D02*
X72644000Y-183248000D01*
X72644000Y-183248000D02*
X79311200Y-176581000D01*
X79311200Y-176581000D02*
X124666000Y-176581000D01*
X124666000Y-176581000D02*
X130050000Y-171196000D01*
X130050000Y-171196000D02*
X149606000Y-171196000D01*
X149606000Y-171196000D02*
X150114000Y-171704000D01*
G04 #@! TO.N,/SPI_MOSI*
X72644000Y-186990000D02*
X73914000Y-185720000D01*
X73914000Y-185720000D02*
X73914000Y-183236000D01*
X73914000Y-183236000D02*
X80162500Y-176987000D01*
X80162500Y-176987000D02*
X124834000Y-176987000D01*
X124834000Y-176987000D02*
X129863000Y-171958000D01*
X129863000Y-171958000D02*
X139700000Y-171958000D01*
G04 #@! TO.N,/SPI_SCLK*
X120498000Y-176174000D02*
X124497000Y-176174000D01*
X124497000Y-176174000D02*
X130492000Y-170180000D01*
X130492000Y-170180000D02*
X140208000Y-170180000D01*
X120294000Y-176174000D02*
X120498000Y-176174000D01*
X120294000Y-176174000D02*
X120498000Y-176174000D01*
X70104000Y-186990000D02*
X71374000Y-185720000D01*
X71374000Y-185720000D02*
X71374000Y-183134000D01*
X71374000Y-183134000D02*
X78333700Y-176174000D01*
X78333700Y-176174000D02*
X120294000Y-176174000D01*
G04 #@! TO.N,PI_JTAG_TMS*
X97841000Y-150495000D02*
X97891700Y-150444000D01*
X97891700Y-150444000D02*
X102390000Y-145946000D01*
X46939200Y-150495000D02*
X55956200Y-141478000D01*
X55956200Y-141478000D02*
X76276200Y-141478000D01*
X76276200Y-141478000D02*
X85242500Y-150444000D01*
X85242500Y-150444000D02*
X97891700Y-150444000D01*
G04 #@! TO.N,PI_RXD*
X45796200Y-160655000D02*
X45796200Y-142561000D01*
X45796200Y-142561000D02*
X89291200Y-99066100D01*
G04 #@! TO.N,PI_TXD*
X45847000Y-141326000D02*
X45847000Y-139970000D01*
X45847000Y-139970000D02*
X89291200Y-96526100D01*
G04 #@! TO.N,PORT_E7*
X135941000Y-82187800D02*
X145809000Y-92055800D01*
X145809000Y-92055800D02*
X145809000Y-119191000D01*
X145809000Y-119191000D02*
X135943000Y-129057000D01*
G04 #@! TO.N,PORT_E3*
X134673000Y-129057000D02*
X145402300Y-118327700D01*
X145402300Y-118327700D02*
X145402300Y-92919100D01*
X145402300Y-92919100D02*
X134671000Y-82187800D01*
G04 #@! TO.N,PORT_E6*
X133403000Y-129057000D02*
X144995600Y-117464400D01*
X144995600Y-117464400D02*
X144995600Y-93782400D01*
X144995600Y-93782400D02*
X133401000Y-82187800D01*
G04 #@! TO.N,PORT_E2*
X132133000Y-129057000D02*
X144588900Y-116601100D01*
X144588900Y-116601100D02*
X144588900Y-94645700D01*
X144588900Y-94645700D02*
X132131000Y-82187800D01*
G04 #@! TO.N,PORT_E5*
X130863000Y-129057000D02*
X144182200Y-115737800D01*
X144182200Y-115737800D02*
X144182200Y-95509000D01*
X144182200Y-95509000D02*
X130861000Y-82187800D01*
G04 #@! TO.N,PORT_E1*
X129593000Y-129057000D02*
X143775500Y-114874500D01*
X143775500Y-114874500D02*
X143775500Y-96372300D01*
X143775500Y-96372300D02*
X129591000Y-82187800D01*
G04 #@! TO.N,PORT_E4*
X128323000Y-129057000D02*
X143368800Y-114011200D01*
X143368800Y-114011200D02*
X143368800Y-97235600D01*
X143368800Y-97235600D02*
X128321000Y-82187800D01*
G04 #@! TO.N,PORT_E0*
X127053000Y-129057000D02*
X142962100Y-113147900D01*
X142962100Y-113147900D02*
X142962100Y-98098900D01*
X142962100Y-98098900D02*
X127051000Y-82187800D01*
G04 #@! TO.N,PORT_F7*
X123243000Y-129057000D02*
X142555400Y-109744600D01*
X142555400Y-109744600D02*
X142555400Y-101502200D01*
X142555400Y-101502200D02*
X123241000Y-82187800D01*
G04 #@! TO.N,PORT_F3*
X121973000Y-129057000D02*
X139419200Y-111610800D01*
X139419200Y-111610800D02*
X139633200Y-111610800D01*
X139633200Y-111610800D02*
X142148700Y-109095300D01*
X142148700Y-109095300D02*
X142148700Y-102365500D01*
X142148700Y-102365500D02*
X121971000Y-82187800D01*
G04 #@! TO.N,PORT_F6*
X120703000Y-129057000D02*
X138555900Y-111204100D01*
X138555900Y-111204100D02*
X139464700Y-111204100D01*
X139464700Y-111204100D02*
X141742000Y-108926800D01*
X141742000Y-108926800D02*
X141742000Y-103228800D01*
X141742000Y-103228800D02*
X120701000Y-82187800D01*
G04 #@! TO.N,PORT_F2*
X119433000Y-129057000D02*
X137692600Y-110797400D01*
X137692600Y-110797400D02*
X139296200Y-110797400D01*
X139296200Y-110797400D02*
X141335300Y-108758300D01*
X141335300Y-108758300D02*
X141335300Y-104092100D01*
X141335300Y-104092100D02*
X119431000Y-82187800D01*
G04 #@! TO.N,PORT_F5*
X118163000Y-129057000D02*
X136829300Y-110390700D01*
X136829300Y-110390700D02*
X139127700Y-110390700D01*
X139127700Y-110390700D02*
X140928600Y-108589800D01*
X140928600Y-108589800D02*
X140928600Y-104955400D01*
X140928600Y-104955400D02*
X118161000Y-82187800D01*
G04 #@! TO.N,PORT_F1*
X116893000Y-129057000D02*
X135966000Y-109984000D01*
X135966000Y-109984000D02*
X138959200Y-109984000D01*
X138959200Y-109984000D02*
X140521900Y-108421300D01*
X140521900Y-108421300D02*
X140521900Y-105818700D01*
X140521900Y-105818700D02*
X116891000Y-82187800D01*
G04 #@! TO.N,PORT_F4*
X115623000Y-129057000D02*
X135102700Y-109577300D01*
X135102700Y-109577300D02*
X138790700Y-109577300D01*
X138790700Y-109577300D02*
X140115200Y-108252800D01*
X140115200Y-108252800D02*
X140115200Y-106682000D01*
X140115200Y-106682000D02*
X115621000Y-82187800D01*
G04 #@! TO.N,PORT_F0*
X114353000Y-129057000D02*
X134239400Y-109170600D01*
X134239400Y-109170600D02*
X138622200Y-109170600D01*
X138622200Y-109170600D02*
X139708500Y-108084300D01*
X139708500Y-108084300D02*
X139708500Y-107042000D01*
X139708500Y-107042000D02*
X139033600Y-106367100D01*
X139033600Y-106367100D02*
X138530300Y-106367100D01*
X138530300Y-106367100D02*
X114351000Y-82187800D01*
G04 #@! TO.N,PORT_G7*
X110541000Y-82187800D02*
X111385500Y-81343300D01*
X111385500Y-81343300D02*
X138776700Y-81343300D01*
X138776700Y-81343300D02*
X146227200Y-88793800D01*
X146227200Y-88793800D02*
X146227200Y-122510600D01*
X146227200Y-122510600D02*
X138874200Y-129863600D01*
X138874200Y-129863600D02*
X111349600Y-129863600D01*
X111349600Y-129863600D02*
X110543000Y-129057000D01*
G04 #@! TO.N,PORT_G3*
X109271000Y-82187800D02*
X110577700Y-80881100D01*
X110577700Y-80881100D02*
X138889800Y-80881100D01*
X138889800Y-80881100D02*
X146634000Y-88625300D01*
X146634000Y-88625300D02*
X146634000Y-122708200D01*
X146634000Y-122708200D02*
X139042500Y-130299700D01*
X139042500Y-130299700D02*
X110515700Y-130299700D01*
X110515700Y-130299700D02*
X109273000Y-129057000D01*
G04 #@! TO.N,PORT_G6*
X108001000Y-82187800D02*
X109728800Y-80460000D01*
X109728800Y-80460000D02*
X139075400Y-80460000D01*
X139075400Y-80460000D02*
X147079500Y-88464100D01*
X147079500Y-88464100D02*
X147079500Y-122951600D01*
X147079500Y-122951600D02*
X139290000Y-130741100D01*
X139290000Y-130741100D02*
X109687100Y-130741100D01*
X109687100Y-130741100D02*
X108003000Y-129057000D01*
G04 #@! TO.N,PORT_G2*
X106731000Y-82187800D02*
X108865500Y-80053300D01*
X108865500Y-80053300D02*
X139243900Y-80053300D01*
X139243900Y-80053300D02*
X147486200Y-88295600D01*
X147486200Y-88295600D02*
X147486200Y-123120100D01*
X147486200Y-123120100D02*
X139458500Y-131147800D01*
X139458500Y-131147800D02*
X108823800Y-131147800D01*
X108823800Y-131147800D02*
X106733000Y-129057000D01*
G04 #@! TO.N,PORT_G5*
X105461000Y-82187800D02*
X108048400Y-79600400D01*
X108048400Y-79600400D02*
X139435200Y-79600400D01*
X139435200Y-79600400D02*
X147927200Y-88092400D01*
X147927200Y-88092400D02*
X147927200Y-123258600D01*
X147927200Y-123258600D02*
X139585300Y-131600500D01*
X139585300Y-131600500D02*
X108006500Y-131600500D01*
X108006500Y-131600500D02*
X105463000Y-129057000D01*
G04 #@! TO.N,PORT_G1*
X104191000Y-82187800D02*
X107185100Y-79193700D01*
X107185100Y-79193700D02*
X139603700Y-79193700D01*
X139603700Y-79193700D02*
X148333900Y-87923900D01*
X148333900Y-87923900D02*
X148333900Y-123427100D01*
X148333900Y-123427100D02*
X139753800Y-132007200D01*
X139753800Y-132007200D02*
X107143200Y-132007200D01*
X107143200Y-132007200D02*
X104193000Y-129057000D01*
G04 #@! TO.N,PORT_G4*
X102921000Y-82187800D02*
X106326600Y-78782200D01*
X106326600Y-78782200D02*
X139803100Y-78782200D01*
X139803100Y-78782200D02*
X148754400Y-87733500D01*
X148754400Y-87733500D02*
X148754400Y-123637500D01*
X148754400Y-123637500D02*
X139976700Y-132415200D01*
X139976700Y-132415200D02*
X106281200Y-132415200D01*
X106281200Y-132415200D02*
X102923000Y-129057000D01*
G04 #@! TO.N,PORT_G0*
X101651000Y-82187800D02*
X105463300Y-78375500D01*
X105463300Y-78375500D02*
X139971600Y-78375500D01*
X139971600Y-78375500D02*
X149161100Y-87565000D01*
X149161100Y-87565000D02*
X149161100Y-123806000D01*
X149161100Y-123806000D02*
X140145200Y-132821900D01*
X140145200Y-132821900D02*
X105417900Y-132821900D01*
X105417900Y-132821900D02*
X101653000Y-129057000D01*
G04 #@! TO.N,PORT_H7*
X97841000Y-82187800D02*
X102069800Y-77959000D01*
X102069800Y-77959000D02*
X140196100Y-77959000D01*
X140196100Y-77959000D02*
X149572700Y-87335600D01*
X149572700Y-87335600D02*
X149572700Y-123971100D01*
X149572700Y-123971100D02*
X140311000Y-133232800D01*
X140311000Y-133232800D02*
X105114300Y-133232800D01*
X105114300Y-133232800D02*
X102438500Y-130557000D01*
X102438500Y-130557000D02*
X99343000Y-130557000D01*
X99343000Y-130557000D02*
X97843000Y-129057000D01*
G04 #@! TO.N,PORT_H3*
X96571000Y-82187800D02*
X101206500Y-77552300D01*
X101206500Y-77552300D02*
X140364600Y-77552300D01*
X140364600Y-77552300D02*
X149979400Y-87167100D01*
X149979400Y-87167100D02*
X149979400Y-124139600D01*
X149979400Y-124139600D02*
X140421400Y-133697600D01*
X140421400Y-133697600D02*
X105003800Y-133697600D01*
X105003800Y-133697600D02*
X102583200Y-131277000D01*
X102583200Y-131277000D02*
X98793000Y-131277000D01*
X98793000Y-131277000D02*
X96573000Y-129057000D01*
G04 #@! TO.N,PORT_H6*
X95301000Y-82187800D02*
X100634500Y-87521300D01*
X100634500Y-87521300D02*
X116214600Y-87521300D01*
X116214600Y-87521300D02*
X135467200Y-106773900D01*
X135467200Y-106773900D02*
X138865200Y-106773900D01*
X138865200Y-106773900D02*
X139301800Y-107210500D01*
X139301800Y-107210500D02*
X139301800Y-107915800D01*
X139301800Y-107915800D02*
X138597300Y-108620300D01*
X138597300Y-108620300D02*
X115739700Y-108620300D01*
X115739700Y-108620300D02*
X95303000Y-129057000D01*
G04 #@! TO.N,PORT_H2*
X94031000Y-82187800D02*
X99073200Y-77145600D01*
X99073200Y-77145600D02*
X140533100Y-77145600D01*
X140533100Y-77145600D02*
X150386100Y-86998600D01*
X150386100Y-86998600D02*
X150386100Y-124308100D01*
X150386100Y-124308100D02*
X140292100Y-134402100D01*
X140292100Y-134402100D02*
X99378100Y-134402100D01*
X99378100Y-134402100D02*
X94033000Y-129057000D01*
G04 #@! TO.N,PORT_H5*
X92761000Y-82187800D02*
X98245700Y-76703100D01*
X98245700Y-76703100D02*
X140712300Y-76703100D01*
X140712300Y-76703100D02*
X150812400Y-86803200D01*
X150812400Y-86803200D02*
X150812400Y-124457100D01*
X150812400Y-124457100D02*
X138290500Y-136979000D01*
X138290500Y-136979000D02*
X100685000Y-136979000D01*
X100685000Y-136979000D02*
X92763000Y-129057000D01*
G04 #@! TO.N,PORT_H1*
X91491000Y-82187800D02*
X97403700Y-76275100D01*
X97403700Y-76275100D02*
X140859600Y-76275100D01*
X140859600Y-76275100D02*
X151219200Y-86634700D01*
X151219200Y-86634700D02*
X151219200Y-124625600D01*
X151219200Y-124625600D02*
X136326300Y-139518500D01*
X136326300Y-139518500D02*
X101833200Y-139518500D01*
X101833200Y-139518500D02*
X91493000Y-129178300D01*
X91493000Y-129178300D02*
X91493000Y-129057000D01*
G04 #@! TO.N,PORT_H4*
X90221000Y-82187800D02*
X96589400Y-75819400D01*
X96589400Y-75819400D02*
X140989300Y-75819400D01*
X140989300Y-75819400D02*
X151640100Y-86470200D01*
X151640100Y-86470200D02*
X151640100Y-124824100D01*
X151640100Y-124824100D02*
X134399500Y-142064700D01*
X134399500Y-142064700D02*
X101952900Y-142064700D01*
X101952900Y-142064700D02*
X90223000Y-130334800D01*
X90223000Y-130334800D02*
X90223000Y-129057000D01*
G04 #@! TO.N,PORT_H0*
X88951000Y-82187800D02*
X95747200Y-75391600D01*
X95747200Y-75391600D02*
X141136800Y-75391600D01*
X141136800Y-75391600D02*
X152097700Y-86352500D01*
X152097700Y-86352500D02*
X152097700Y-124972700D01*
X152097700Y-124972700D02*
X132481200Y-144589200D01*
X132481200Y-144589200D02*
X101860600Y-144589200D01*
X101860600Y-144589200D02*
X91070300Y-133798900D01*
X91070300Y-133798900D02*
X91070300Y-132450200D01*
X91070300Y-132450200D02*
X88953000Y-130332900D01*
X88953000Y-130332900D02*
X88953000Y-129057000D01*
G04 #@! TD*
M02*
