M48
; DRILL file {KiCad (5.1.8)-1} date 03/08/21 00:15:26
; FORMAT={-:-/ absolute / metric / decimal}
; #@! TF.CreationDate,2021-03-08T00:15:26+09:00
; #@! TF.GenerationSoftware,Kicad,Pcbnew,(5.1.8)-1
FMAT,2
METRIC
T1C0.200
T2C0.650
T3C0.700
T4C0.800
T5C1.000
T6C3.200
T7C2.700
%
G90
G05
T1
X45.187Y-184.734
X45.796Y-160.655
X45.847Y-141.326
X46.177Y-164.846
X46.838Y-153.035
X46.939Y-150.495
X51.562Y-161.544
X52.07Y-146.812
X52.07Y-148.844
X52.146Y-170.282
X52.349Y-151.409
X53.729Y-145.762
X55.855Y-186.69
X55.918Y-182.69
X56.134Y-158.877
X56.134Y-164.821
X58.191Y-154.305
X59.614Y-142.748
X59.69Y-179.07
X60.655Y-162.281
X60.808Y-157.734
X61.214Y-147.828
X61.214Y-151.384
X61.722Y-182.118
X65.786Y-149.606
X66.446Y-158.75
X66.65Y-153.67
X66.802Y-145.415
X69.317Y-163.83
X78.063Y-84.286
X79.408Y-130.32
X79.756Y-152.908
X81.026Y-152.908
X82.042Y-152.908
X85.242Y-174.371
X85.598Y-161.798
X85.668Y-84.245
X87.097Y-130.277
X94.691Y-167.157
X133.35Y-174.244
X133.858Y-173.482
X138.938Y-172.72
X139.7Y-171.958
X140.208Y-170.18
T2
X88.951Y-82.188
X88.951Y-107.588
X90.221Y-82.188
X90.221Y-107.588
X91.491Y-82.188
X91.491Y-107.588
X92.761Y-82.188
X92.761Y-107.588
X94.031Y-82.188
X94.031Y-107.588
X95.301Y-82.188
X95.301Y-107.588
X96.571Y-82.188
X96.571Y-107.588
X97.841Y-82.188
X97.841Y-107.588
X99.111Y-82.188
X99.111Y-107.588
X100.381Y-82.188
X100.381Y-107.588
X101.651Y-82.188
X101.651Y-107.588
X102.921Y-82.188
X102.921Y-107.588
X104.191Y-82.188
X104.191Y-107.588
X105.461Y-82.188
X105.461Y-107.588
X106.731Y-82.188
X106.731Y-107.588
X108.001Y-82.188
X108.001Y-107.588
X109.271Y-82.188
X109.271Y-107.588
X110.541Y-82.188
X110.541Y-107.588
X111.811Y-82.188
X111.811Y-107.588
X113.081Y-82.188
X113.081Y-107.588
X114.351Y-82.188
X114.351Y-107.588
X115.621Y-82.188
X115.621Y-107.588
X116.891Y-82.188
X116.891Y-107.588
X118.161Y-82.188
X118.161Y-107.588
X119.431Y-82.188
X119.431Y-107.588
X120.701Y-82.188
X120.701Y-107.588
X121.971Y-82.188
X121.971Y-107.588
X123.241Y-82.188
X123.241Y-107.588
X124.511Y-82.188
X124.511Y-107.588
X125.781Y-82.188
X125.781Y-107.588
X127.051Y-82.188
X127.051Y-107.588
X128.321Y-82.188
X128.321Y-107.588
X129.591Y-82.188
X129.591Y-107.588
X130.861Y-82.188
X130.861Y-107.588
X132.131Y-82.188
X132.131Y-107.588
X133.401Y-82.188
X133.401Y-107.588
X134.671Y-82.188
X134.671Y-107.588
X135.941Y-82.188
X135.941Y-107.588
X137.211Y-82.188
X137.211Y-107.588
X138.481Y-82.188
X138.481Y-107.588
X88.953Y-129.057
X88.953Y-154.457
X90.223Y-129.057
X90.223Y-154.457
X91.493Y-129.057
X91.493Y-154.457
X92.763Y-129.057
X92.763Y-154.457
X94.033Y-129.057
X94.033Y-154.457
X95.303Y-129.057
X95.303Y-154.457
X96.573Y-129.057
X96.573Y-154.457
X97.843Y-129.057
X97.843Y-154.457
X99.113Y-129.057
X99.113Y-154.457
X100.383Y-129.057
X100.383Y-154.457
X101.653Y-129.057
X101.653Y-154.457
X102.923Y-129.057
X102.923Y-154.457
X104.193Y-129.057
X104.193Y-154.457
X105.463Y-129.057
X105.463Y-154.457
X106.733Y-129.057
X106.733Y-154.457
X108.003Y-129.057
X108.003Y-154.457
X109.273Y-129.057
X109.273Y-154.457
X110.543Y-129.057
X110.543Y-154.457
X111.813Y-129.057
X111.813Y-154.457
X113.083Y-129.057
X113.083Y-154.457
X114.353Y-129.057
X114.353Y-154.457
X115.623Y-129.057
X115.623Y-154.457
X116.893Y-129.057
X116.893Y-154.457
X118.163Y-129.057
X118.163Y-154.457
X119.433Y-129.057
X119.433Y-154.457
X120.703Y-129.057
X120.703Y-154.457
X121.973Y-129.057
X121.973Y-154.457
X123.243Y-129.057
X123.243Y-154.457
X124.513Y-129.057
X124.513Y-154.457
X125.783Y-129.057
X125.783Y-154.457
X127.053Y-129.057
X127.053Y-154.457
X128.323Y-129.057
X128.323Y-154.457
X129.593Y-129.057
X129.593Y-154.457
X130.863Y-129.057
X130.863Y-154.457
X132.133Y-129.057
X132.133Y-154.457
X133.403Y-129.057
X133.403Y-154.457
X134.673Y-129.057
X134.673Y-154.457
X135.943Y-129.057
X135.943Y-154.457
X137.213Y-129.057
X137.213Y-154.457
X138.483Y-129.057
X138.483Y-154.457
T3
X143.764Y-181.864
X50.165Y-163.195
X150.114Y-174.244
X150.139Y-184.404
X156.972Y-77.47
X58.42Y-166.37
X137.414Y-179.324
X62.357Y-163.83
X131.064Y-179.324
X131.064Y-181.864
X150.114Y-171.704
X143.764Y-179.324
X155.194Y-174.244
X150.114Y-179.324
X150.114Y-176.784
X59.182Y-105.664
X143.764Y-184.404
X143.764Y-186.944
X65.278Y-175.768
X85.09Y-133.35
X150.114Y-181.864
X53.975Y-166.37
X150.114Y-186.944
X137.414Y-181.864
T4
X62.128Y-92.227
X62.128Y-94.767
X64.668Y-92.227
X64.668Y-94.767
X67.208Y-92.227
X67.208Y-94.767
X69.748Y-92.227
X69.748Y-94.767
X72.288Y-92.227
X72.288Y-94.767
X74.828Y-92.227
X74.828Y-94.767
T5
X102.39Y-133.246
X102.39Y-135.786
X102.39Y-138.326
X102.39Y-140.866
X102.39Y-143.406
X102.39Y-145.946
X89.291Y-86.366
X89.291Y-88.906
X89.291Y-91.446
X89.291Y-93.986
X89.291Y-96.526
X89.291Y-99.066
X70.104Y-184.45
X70.104Y-186.99
X72.644Y-184.45
X72.644Y-186.99
X75.184Y-184.45
X75.184Y-186.99
X77.724Y-184.45
X77.724Y-186.99
X80.264Y-184.45
X80.264Y-186.99
X82.804Y-184.45
X82.804Y-186.99
X85.344Y-184.45
X85.344Y-186.99
X87.884Y-184.45
X87.884Y-186.99
X90.424Y-184.45
X90.424Y-186.99
X92.964Y-184.45
X92.964Y-186.99
X95.504Y-184.45
X95.504Y-186.99
X98.044Y-184.45
X98.044Y-186.99
X100.584Y-184.45
X100.584Y-186.99
X103.124Y-184.45
X103.124Y-186.99
X105.664Y-184.45
X105.664Y-186.99
X108.204Y-184.45
X108.204Y-186.99
X110.744Y-184.45
X110.744Y-186.99
X113.284Y-184.45
X113.284Y-186.99
X115.824Y-184.45
X115.824Y-186.99
X118.364Y-184.45
X118.364Y-186.99
X89.299Y-133.241
X89.299Y-135.781
X89.299Y-138.321
X89.299Y-140.861
X89.299Y-143.401
X89.299Y-145.941
X102.39Y-86.366
X102.39Y-88.906
X102.39Y-91.446
X102.39Y-93.986
X102.39Y-96.526
X102.39Y-99.066
T6
X55.778Y-93.497
T7
X65.363Y-136.746
X65.347Y-185.73
X123.247Y-185.73
X161.27Y-72.74
X161.27Y-185.73
X45.26Y-72.74
T0
M30
