G04 #@! TF.GenerationSoftware,KiCad,Pcbnew,(5.1.8)-1*
G04 #@! TF.CreationDate,2021-03-08T00:14:45+09:00*
G04 #@! TF.ProjectId,mifune_TE0890_remote_board,6d696675-6e65-45f5-9445-303839305f72,rev?*
G04 #@! TF.SameCoordinates,Original*
G04 #@! TF.FileFunction,Copper,L2,Inr*
G04 #@! TF.FilePolarity,Positive*
%FSLAX46Y46*%
G04 Gerber Fmt 4.6, Leading zero omitted, Abs format (unit mm)*
G04 Created by KiCad (PCBNEW (5.1.8)-1) date 2021-03-08 00:14:45*
%MOMM*%
%LPD*%
G01*
G04 APERTURE LIST*
G04 #@! TA.AperFunction,ComponentPad*
%ADD10C,1.000000*%
G04 #@! TD*
G04 #@! TA.AperFunction,ComponentPad*
%ADD11R,1.700000X1.700000*%
G04 #@! TD*
G04 #@! TA.AperFunction,ComponentPad*
%ADD12O,1.700000X1.700000*%
G04 #@! TD*
G04 #@! TA.AperFunction,ComponentPad*
%ADD13C,1.500000*%
G04 #@! TD*
G04 #@! TA.AperFunction,ComponentPad*
%ADD14C,1.200000*%
G04 #@! TD*
G04 #@! TA.AperFunction,ComponentPad*
%ADD15C,6.400000*%
G04 #@! TD*
G04 #@! TA.AperFunction,ViaPad*
%ADD16C,0.600000*%
G04 #@! TD*
G04 #@! TA.AperFunction,ViaPad*
%ADD17C,0.500000*%
G04 #@! TD*
G04 #@! TA.AperFunction,Conductor*
%ADD18C,0.406400*%
G04 #@! TD*
G04 #@! TA.AperFunction,Conductor*
%ADD19C,0.254000*%
G04 #@! TD*
G04 #@! TA.AperFunction,Conductor*
%ADD20C,0.100000*%
G04 #@! TD*
G04 APERTURE END LIST*
D10*
G04 #@! TO.N,PORT_H0*
G04 #@! TO.C,U6*
X88953000Y-129057000D03*
G04 #@! TO.N,PORT_A0*
X88953000Y-154457000D03*
G04 #@! TO.N,PORT_H4*
X90223000Y-129057000D03*
G04 #@! TO.N,PORT_A4*
X90223000Y-154457000D03*
G04 #@! TO.N,PORT_H1*
X91493000Y-129057000D03*
G04 #@! TO.N,PORT_A1*
X91493000Y-154457000D03*
G04 #@! TO.N,PORT_H5*
X92763000Y-129057000D03*
G04 #@! TO.N,PORT_A5*
X92763000Y-154457000D03*
G04 #@! TO.N,PORT_H2*
X94033000Y-129057000D03*
G04 #@! TO.N,PORT_A2*
X94033000Y-154457000D03*
G04 #@! TO.N,PORT_H6*
X95303000Y-129057000D03*
G04 #@! TO.N,PORT_A6*
X95303000Y-154457000D03*
G04 #@! TO.N,PORT_H3*
X96573000Y-129057000D03*
G04 #@! TO.N,PORT_A3*
X96573000Y-154457000D03*
G04 #@! TO.N,PORT_H7*
X97843000Y-129057000D03*
G04 #@! TO.N,PORT_A7*
X97843000Y-154457000D03*
G04 #@! TO.N,GND*
X99113000Y-129057000D03*
X99113000Y-154457000D03*
X100383000Y-129057000D03*
X100383000Y-154457000D03*
G04 #@! TO.N,PORT_G0*
X101653000Y-129057000D03*
G04 #@! TO.N,PORT_B0*
X101653000Y-154457000D03*
G04 #@! TO.N,PORT_G4*
X102923000Y-129057000D03*
G04 #@! TO.N,PORT_B4*
X102923000Y-154457000D03*
G04 #@! TO.N,PORT_G1*
X104193000Y-129057000D03*
G04 #@! TO.N,PORT_B1*
X104193000Y-154457000D03*
G04 #@! TO.N,PORT_G5*
X105463000Y-129057000D03*
G04 #@! TO.N,PORT_B5*
X105463000Y-154457000D03*
G04 #@! TO.N,PORT_G2*
X106733000Y-129057000D03*
G04 #@! TO.N,PORT_B2*
X106733000Y-154457000D03*
G04 #@! TO.N,PORT_G6*
X108003000Y-129057000D03*
G04 #@! TO.N,PORT_B6*
X108003000Y-154457000D03*
G04 #@! TO.N,PORT_G3*
X109273000Y-129057000D03*
G04 #@! TO.N,PORT_B3*
X109273000Y-154457000D03*
G04 #@! TO.N,PORT_G7*
X110543000Y-129057000D03*
G04 #@! TO.N,PORT_B7*
X110543000Y-154457000D03*
G04 #@! TO.N,+3.3VA*
X111813000Y-129057000D03*
X111813000Y-154457000D03*
G04 #@! TO.N,GND*
X113083000Y-129057000D03*
X113083000Y-154457000D03*
G04 #@! TO.N,PORT_F0*
X114353000Y-129057000D03*
G04 #@! TO.N,PORT_C0*
X114353000Y-154457000D03*
G04 #@! TO.N,PORT_F4*
X115623000Y-129057000D03*
G04 #@! TO.N,PORT_C4*
X115623000Y-154457000D03*
G04 #@! TO.N,PORT_F1*
X116893000Y-129057000D03*
G04 #@! TO.N,PORT_C1*
X116893000Y-154457000D03*
G04 #@! TO.N,PORT_F5*
X118163000Y-129057000D03*
G04 #@! TO.N,PORT_C5*
X118163000Y-154457000D03*
G04 #@! TO.N,PORT_F2*
X119433000Y-129057000D03*
G04 #@! TO.N,PORT_C2*
X119433000Y-154457000D03*
G04 #@! TO.N,PORT_F6*
X120703000Y-129057000D03*
G04 #@! TO.N,PORT_C6*
X120703000Y-154457000D03*
G04 #@! TO.N,PORT_F3*
X121973000Y-129057000D03*
G04 #@! TO.N,PORT_C3*
X121973000Y-154457000D03*
G04 #@! TO.N,PORT_F7*
X123243000Y-129057000D03*
G04 #@! TO.N,PORT_C7*
X123243000Y-154457000D03*
G04 #@! TO.N,GND*
X124513000Y-129057000D03*
X124513000Y-154457000D03*
X125783000Y-129057000D03*
X125783000Y-154457000D03*
G04 #@! TO.N,PORT_E0*
X127053000Y-129057000D03*
G04 #@! TO.N,PORT_D0*
X127053000Y-154457000D03*
G04 #@! TO.N,PORT_E4*
X128323000Y-129057000D03*
G04 #@! TO.N,PORT_D4*
X128323000Y-154457000D03*
G04 #@! TO.N,PORT_E1*
X129593000Y-129057000D03*
G04 #@! TO.N,PORT_D1*
X129593000Y-154457000D03*
G04 #@! TO.N,PORT_E5*
X130863000Y-129057000D03*
G04 #@! TO.N,PORT_D5*
X130863000Y-154457000D03*
G04 #@! TO.N,PORT_E2*
X132133000Y-129057000D03*
G04 #@! TO.N,PORT_D2*
X132133000Y-154457000D03*
G04 #@! TO.N,PORT_E6*
X133403000Y-129057000D03*
G04 #@! TO.N,PORT_D6*
X133403000Y-154457000D03*
G04 #@! TO.N,PORT_E3*
X134673000Y-129057000D03*
G04 #@! TO.N,PORT_D3*
X134673000Y-154457000D03*
G04 #@! TO.N,PORT_E7*
X135943000Y-129057000D03*
G04 #@! TO.N,PORT_D7*
X135943000Y-154457000D03*
G04 #@! TO.N,+5V*
X137213000Y-129057000D03*
X137213000Y-154457000D03*
G04 #@! TO.N,GND*
X138483000Y-129057000D03*
X138483000Y-154457000D03*
G04 #@! TD*
G04 #@! TO.N,GND*
G04 #@! TO.C,U3*
X138481000Y-107587800D03*
X138481000Y-82187800D03*
G04 #@! TO.N,+5V*
X137211000Y-107587800D03*
X137211000Y-82187800D03*
G04 #@! TO.N,PORT_D7*
X135941000Y-107587800D03*
G04 #@! TO.N,PORT_E7*
X135941000Y-82187800D03*
G04 #@! TO.N,PORT_D3*
X134671000Y-107587800D03*
G04 #@! TO.N,PORT_E3*
X134671000Y-82187800D03*
G04 #@! TO.N,PORT_D6*
X133401000Y-107587800D03*
G04 #@! TO.N,PORT_E6*
X133401000Y-82187800D03*
G04 #@! TO.N,PORT_D2*
X132131000Y-107587800D03*
G04 #@! TO.N,PORT_E2*
X132131000Y-82187800D03*
G04 #@! TO.N,PORT_D5*
X130861000Y-107587800D03*
G04 #@! TO.N,PORT_E5*
X130861000Y-82187800D03*
G04 #@! TO.N,PORT_D1*
X129591000Y-107587800D03*
G04 #@! TO.N,PORT_E1*
X129591000Y-82187800D03*
G04 #@! TO.N,PORT_D4*
X128321000Y-107587800D03*
G04 #@! TO.N,PORT_E4*
X128321000Y-82187800D03*
G04 #@! TO.N,PORT_D0*
X127051000Y-107587800D03*
G04 #@! TO.N,PORT_E0*
X127051000Y-82187800D03*
G04 #@! TO.N,GND*
X125781000Y-107587800D03*
X125781000Y-82187800D03*
X124511000Y-107587800D03*
X124511000Y-82187800D03*
G04 #@! TO.N,PORT_C7*
X123241000Y-107587800D03*
G04 #@! TO.N,PORT_F7*
X123241000Y-82187800D03*
G04 #@! TO.N,PORT_C3*
X121971000Y-107587800D03*
G04 #@! TO.N,PORT_F3*
X121971000Y-82187800D03*
G04 #@! TO.N,PORT_C6*
X120701000Y-107587800D03*
G04 #@! TO.N,PORT_F6*
X120701000Y-82187800D03*
G04 #@! TO.N,PORT_C2*
X119431000Y-107587800D03*
G04 #@! TO.N,PORT_F2*
X119431000Y-82187800D03*
G04 #@! TO.N,PORT_C5*
X118161000Y-107587800D03*
G04 #@! TO.N,PORT_F5*
X118161000Y-82187800D03*
G04 #@! TO.N,PORT_C1*
X116891000Y-107587800D03*
G04 #@! TO.N,PORT_F1*
X116891000Y-82187800D03*
G04 #@! TO.N,PORT_C4*
X115621000Y-107587800D03*
G04 #@! TO.N,PORT_F4*
X115621000Y-82187800D03*
G04 #@! TO.N,PORT_C0*
X114351000Y-107587800D03*
G04 #@! TO.N,PORT_F0*
X114351000Y-82187800D03*
G04 #@! TO.N,GND*
X113081000Y-107587800D03*
X113081000Y-82187800D03*
G04 #@! TO.N,+3.3VP*
X111811000Y-107587800D03*
X111811000Y-82187800D03*
G04 #@! TO.N,PORT_B7*
X110541000Y-107587800D03*
G04 #@! TO.N,PORT_G7*
X110541000Y-82187800D03*
G04 #@! TO.N,PORT_B3*
X109271000Y-107587800D03*
G04 #@! TO.N,PORT_G3*
X109271000Y-82187800D03*
G04 #@! TO.N,PORT_B6*
X108001000Y-107587800D03*
G04 #@! TO.N,PORT_G6*
X108001000Y-82187800D03*
G04 #@! TO.N,PORT_B2*
X106731000Y-107587800D03*
G04 #@! TO.N,PORT_G2*
X106731000Y-82187800D03*
G04 #@! TO.N,PORT_B5*
X105461000Y-107587800D03*
G04 #@! TO.N,PORT_G5*
X105461000Y-82187800D03*
G04 #@! TO.N,PORT_B1*
X104191000Y-107587800D03*
G04 #@! TO.N,PORT_G1*
X104191000Y-82187800D03*
G04 #@! TO.N,PORT_B4*
X102921000Y-107587800D03*
G04 #@! TO.N,PORT_G4*
X102921000Y-82187800D03*
G04 #@! TO.N,PORT_B0*
X101651000Y-107587800D03*
G04 #@! TO.N,PORT_G0*
X101651000Y-82187800D03*
G04 #@! TO.N,GND*
X100381000Y-107587800D03*
X100381000Y-82187800D03*
X99111000Y-107587800D03*
X99111000Y-82187800D03*
G04 #@! TO.N,PORT_A7*
X97841000Y-107587800D03*
G04 #@! TO.N,PORT_H7*
X97841000Y-82187800D03*
G04 #@! TO.N,PORT_A3*
X96571000Y-107587800D03*
G04 #@! TO.N,PORT_H3*
X96571000Y-82187800D03*
G04 #@! TO.N,PORT_A6*
X95301000Y-107587800D03*
G04 #@! TO.N,PORT_H6*
X95301000Y-82187800D03*
G04 #@! TO.N,PORT_A2*
X94031000Y-107587800D03*
G04 #@! TO.N,PORT_H2*
X94031000Y-82187800D03*
G04 #@! TO.N,PORT_A5*
X92761000Y-107587800D03*
G04 #@! TO.N,PORT_H5*
X92761000Y-82187800D03*
G04 #@! TO.N,PORT_A1*
X91491000Y-107587800D03*
G04 #@! TO.N,PORT_H1*
X91491000Y-82187800D03*
G04 #@! TO.N,PORT_A4*
X90221000Y-107587800D03*
G04 #@! TO.N,PORT_H4*
X90221000Y-82187800D03*
G04 #@! TO.N,PORT_A0*
X88951000Y-107587800D03*
G04 #@! TO.N,PORT_H0*
X88951000Y-82187800D03*
G04 #@! TD*
D11*
G04 #@! TO.N,+3V3*
G04 #@! TO.C,J1*
X118364000Y-184450000D03*
D12*
G04 #@! TO.N,+5V*
X118364000Y-186990000D03*
G04 #@! TO.N,/SDA*
X115824000Y-184450000D03*
G04 #@! TO.N,+5V*
X115824000Y-186990000D03*
G04 #@! TO.N,/SCL*
X113284000Y-184450000D03*
G04 #@! TO.N,GND*
X113284000Y-186990000D03*
G04 #@! TO.N,/GPIO4*
X110744000Y-184450000D03*
G04 #@! TO.N,/PI_TXD_SRC*
X110744000Y-186990000D03*
G04 #@! TO.N,GND*
X108204000Y-184450000D03*
G04 #@! TO.N,/PI_RXD_DST*
X108204000Y-186990000D03*
G04 #@! TO.N,/GPIO17*
X105664000Y-184450000D03*
G04 #@! TO.N,/SPI_CE0*
X105664000Y-186990000D03*
G04 #@! TO.N,/GPIO27*
X103124000Y-184450000D03*
G04 #@! TO.N,GND*
X103124000Y-186990000D03*
G04 #@! TO.N,/GPIO22*
X100584000Y-184450000D03*
G04 #@! TO.N,/GPIO23*
X100584000Y-186990000D03*
G04 #@! TO.N,+3V3*
X98044000Y-184450000D03*
G04 #@! TO.N,/GPIO24*
X98044000Y-186990000D03*
G04 #@! TO.N,/PI_JTAG_TDI_SRC*
X95504000Y-184450000D03*
G04 #@! TO.N,GND*
X95504000Y-186990000D03*
G04 #@! TO.N,/PI_JTAG_TDO_DST*
X92964000Y-184450000D03*
G04 #@! TO.N,/PI_JTAG_TMS_SRC*
X92964000Y-186990000D03*
G04 #@! TO.N,/PI_JTAG_TCK_SRC*
X90424000Y-184450000D03*
G04 #@! TO.N,/GPIO8*
X90424000Y-186990000D03*
G04 #@! TO.N,GND*
X87884000Y-184450000D03*
G04 #@! TO.N,/GPIO7*
X87884000Y-186990000D03*
G04 #@! TO.N,Net-(J1-Pad27)*
X85344000Y-184450000D03*
G04 #@! TO.N,Net-(J1-Pad28)*
X85344000Y-186990000D03*
G04 #@! TO.N,/GPIO5*
X82804000Y-184450000D03*
G04 #@! TO.N,GND*
X82804000Y-186990000D03*
G04 #@! TO.N,/GPIO6*
X80264000Y-184450000D03*
G04 #@! TO.N,/PWM0*
X80264000Y-186990000D03*
G04 #@! TO.N,/PWM1*
X77724000Y-184450000D03*
G04 #@! TO.N,GND*
X77724000Y-186990000D03*
G04 #@! TO.N,/SPI_MISO*
X75184000Y-184450000D03*
G04 #@! TO.N,/PI_JTAG_OE*
X75184000Y-186990000D03*
G04 #@! TO.N,/GPIO26*
X72644000Y-184450000D03*
G04 #@! TO.N,/SPI_MOSI*
X72644000Y-186990000D03*
G04 #@! TO.N,GND*
X70104000Y-184450000D03*
G04 #@! TO.N,/SPI_SCLK*
X70104000Y-186990000D03*
G04 #@! TD*
D13*
G04 #@! TO.N,/SDA*
G04 #@! TO.C,J2*
X131064000Y-181864000D03*
G04 #@! TD*
G04 #@! TO.N,/SCL*
G04 #@! TO.C,J3*
X131064000Y-179324000D03*
G04 #@! TD*
G04 #@! TO.N,/PWM0*
G04 #@! TO.C,J4*
X137414000Y-181864000D03*
G04 #@! TD*
G04 #@! TO.N,/PWM1*
G04 #@! TO.C,J5*
X137414000Y-179324000D03*
G04 #@! TD*
G04 #@! TO.N,/GPIO8*
G04 #@! TO.C,J6*
X150114000Y-174244000D03*
G04 #@! TD*
G04 #@! TO.N,/GPIO17*
G04 #@! TO.C,J7*
X150114000Y-186944000D03*
G04 #@! TD*
G04 #@! TO.N,/GPIO22*
G04 #@! TO.C,J8*
X150114000Y-179324000D03*
G04 #@! TD*
G04 #@! TO.N,/GPIO23*
G04 #@! TO.C,J9*
X150114000Y-181864000D03*
G04 #@! TD*
G04 #@! TO.N,/GPIO24*
G04 #@! TO.C,J10*
X150114000Y-176784000D03*
G04 #@! TD*
G04 #@! TO.N,/GPIO26*
G04 #@! TO.C,J11*
X150114000Y-171704000D03*
G04 #@! TD*
G04 #@! TO.N,/GPIO27*
G04 #@! TO.C,J12*
X150139000Y-184404000D03*
G04 #@! TD*
G04 #@! TO.N,/SPI_CE0*
G04 #@! TO.C,J13*
X143764000Y-186944000D03*
G04 #@! TD*
G04 #@! TO.N,/SPI_MISO*
G04 #@! TO.C,J14*
X143764000Y-184404000D03*
G04 #@! TD*
G04 #@! TO.N,/SPI_MOSI*
G04 #@! TO.C,J15*
X143764000Y-181864000D03*
G04 #@! TD*
G04 #@! TO.N,/SPI_SCLK*
G04 #@! TO.C,J16*
X143764000Y-179324000D03*
G04 #@! TD*
G04 #@! TO.N,Net-(IC2-Pad5)*
G04 #@! TO.C,J17*
X50165000Y-163195000D03*
G04 #@! TD*
G04 #@! TO.N,Net-(IC2-Pad6)*
G04 #@! TO.C,J18*
X53975000Y-166370000D03*
G04 #@! TD*
G04 #@! TO.N,Net-(IC2-Pad9)*
G04 #@! TO.C,J19*
X62357000Y-163830000D03*
G04 #@! TD*
G04 #@! TO.N,Net-(IC2-Pad8)*
G04 #@! TO.C,J20*
X58420000Y-166370000D03*
G04 #@! TD*
G04 #@! TO.N,Net-(J21-Pad1)*
G04 #@! TO.C,J21*
X85090000Y-133350000D03*
G04 #@! TD*
D11*
G04 #@! TO.N,Net-(U1-Pad1)*
G04 #@! TO.C,U1*
X102390000Y-86366100D03*
D12*
G04 #@! TO.N,GND*
X102390000Y-88906100D03*
G04 #@! TO.N,Net-(R14-Pad2)*
X102390000Y-91446100D03*
G04 #@! TO.N,Net-(R15-Pad2)*
X102390000Y-93986100D03*
G04 #@! TO.N,Net-(R16-Pad2)*
X102390000Y-96526100D03*
G04 #@! TO.N,Net-(R17-Pad2)*
X102390000Y-99066100D03*
G04 #@! TD*
D14*
G04 #@! TO.N,Net-(U1-Pad1)*
G04 #@! TO.C,U2*
X67208400Y-94767400D03*
G04 #@! TO.N,Net-(R18-Pad2)*
X69748400Y-92227400D03*
G04 #@! TO.N,Net-(U1-Pad1)*
X67208400Y-92227400D03*
G04 #@! TO.N,Net-(R15-Pad1)*
X69748400Y-94767400D03*
G04 #@! TO.N,Net-(R14-Pad1)*
X64668400Y-94767400D03*
G04 #@! TO.N,Net-(U2-Pad9)*
X72288400Y-92227400D03*
G04 #@! TO.N,Net-(R19-Pad2)*
X64668400Y-92227400D03*
G04 #@! TO.N,Net-(R16-Pad1)*
X72288400Y-94767400D03*
G04 #@! TO.N,GND*
X62128400Y-94767400D03*
G04 #@! TO.N,Net-(U2-Pad11)*
X74828400Y-92227400D03*
G04 #@! TO.N,GND*
X62128400Y-92227400D03*
G04 #@! TO.N,Net-(R17-Pad1)*
X74828400Y-94767400D03*
D15*
G04 #@! TO.N,GND*
X55778400Y-93497400D03*
G04 #@! TD*
D12*
G04 #@! TO.N,PI_RXD*
G04 #@! TO.C,U4*
X89291200Y-99066100D03*
G04 #@! TO.N,PI_TXD*
X89291200Y-96526100D03*
G04 #@! TO.N,Net-(R19-Pad1)*
X89291200Y-93986100D03*
G04 #@! TO.N,+5V*
X89291200Y-91446100D03*
G04 #@! TO.N,Net-(R18-Pad1)*
X89291200Y-88906100D03*
D11*
G04 #@! TO.N,GND*
X89291200Y-86366100D03*
G04 #@! TD*
G04 #@! TO.N,+3.3VA*
G04 #@! TO.C,U5*
X102390000Y-133246000D03*
D12*
G04 #@! TO.N,GND*
X102390000Y-135786000D03*
G04 #@! TO.N,PI_JTAG_TCK*
X102390000Y-138326000D03*
G04 #@! TO.N,PI_JTAG_TDO*
X102390000Y-140866000D03*
G04 #@! TO.N,PI_JTAG_TDI*
X102390000Y-143406000D03*
G04 #@! TO.N,PI_JTAG_TMS*
X102390000Y-145946000D03*
G04 #@! TD*
G04 #@! TO.N,Net-(J21-Pad6)*
G04 #@! TO.C,U7*
X89298800Y-145941000D03*
G04 #@! TO.N,Net-(J21-Pad5)*
X89298800Y-143401000D03*
G04 #@! TO.N,Net-(J21-Pad4)*
X89298800Y-140861000D03*
G04 #@! TO.N,Net-(J21-Pad3)*
X89298800Y-138321000D03*
G04 #@! TO.N,Net-(J21-Pad2)*
X89298800Y-135781000D03*
D11*
G04 #@! TO.N,Net-(J21-Pad1)*
X89298800Y-133241000D03*
G04 #@! TD*
D13*
G04 #@! TO.N,GND*
G04 #@! TO.C,J22*
X59182000Y-105664000D03*
G04 #@! TD*
G04 #@! TO.N,GND*
G04 #@! TO.C,J23*
X65278000Y-175768000D03*
G04 #@! TD*
G04 #@! TO.N,GND*
G04 #@! TO.C,J24*
X156972000Y-77470000D03*
G04 #@! TD*
G04 #@! TO.N,GND*
G04 #@! TO.C,J25*
X155194000Y-174244000D03*
G04 #@! TD*
D16*
G04 #@! TO.N,GND*
X78063200Y-84286200D03*
X79407800Y-130320000D03*
X66649600Y-153670000D03*
X66802000Y-145415000D03*
X53729400Y-145762000D03*
D17*
X45186600Y-184734000D03*
D16*
X52146200Y-170282000D03*
X66446400Y-158750000D03*
X56134000Y-164821000D03*
X56134000Y-158877000D03*
X46837600Y-153035000D03*
X52349400Y-151409000D03*
G04 #@! TO.N,+3.3VA*
X59613800Y-142748000D03*
X87096600Y-130277000D03*
G04 #@! TO.N,+3V3*
X55917600Y-182690000D03*
X46177200Y-164846000D03*
X58191400Y-154305000D03*
X60807600Y-157734000D03*
X69316600Y-163830000D03*
X85242400Y-174371000D03*
D17*
G04 #@! TO.N,/PI_JTAG_OE*
X61722000Y-182118000D03*
X59690000Y-179070000D03*
G04 #@! TO.N,Net-(IC1-Pad12)*
X61214000Y-151384000D03*
X61214000Y-147828000D03*
G04 #@! TO.N,Net-(IC1-Pad9)*
X81026000Y-152908000D03*
X65786000Y-149606000D03*
G04 #@! TO.N,Net-(IC1-Pad5)*
X52070000Y-148844000D03*
X79756000Y-152908000D03*
G04 #@! TO.N,Net-(IC1-Pad2)*
X82042000Y-152908000D03*
X52070000Y-146812000D03*
G04 #@! TO.N,Net-(IC2-Pad3)*
X85598000Y-161798000D03*
X51562000Y-161544000D03*
G04 #@! TO.N,Net-(IC2-Pad11)*
X60655200Y-162280600D03*
X94691200Y-167157400D03*
D16*
G04 #@! TO.N,+5V*
X55854600Y-186690000D03*
D17*
G04 #@! TO.N,/PWM0*
X133350000Y-174244000D03*
G04 #@! TO.N,/PWM1*
X133858000Y-173482000D03*
G04 #@! TO.N,/SPI_MISO*
X138938000Y-172720000D03*
G04 #@! TO.N,/SPI_MOSI*
X139700000Y-171958000D03*
G04 #@! TO.N,/SPI_SCLK*
X140208000Y-170180000D03*
G04 #@! TO.N,PI_JTAG_TMS*
X46939200Y-150495000D03*
G04 #@! TO.N,PI_RXD*
X45796200Y-160655000D03*
G04 #@! TO.N,PI_TXD*
X45847000Y-141326000D03*
D16*
G04 #@! TO.N,+3.3VP*
X85667600Y-84245200D03*
G04 #@! TD*
D18*
G04 #@! TO.N,+3.3VA*
X111813000Y-133352000D02*
X111813000Y-149705000D01*
X59613800Y-142748000D02*
X75895200Y-142748000D01*
X75895200Y-142748000D02*
X82852600Y-149705000D01*
X82852600Y-149705000D02*
X111813000Y-149705000D01*
X111813000Y-149705000D02*
X111813000Y-154457000D01*
X102390000Y-133246000D02*
X102390000Y-133175000D01*
X102390000Y-133175000D02*
X99491800Y-130277000D01*
X99491800Y-130277000D02*
X87096600Y-130277000D01*
X111813000Y-129057000D02*
X111813000Y-133352000D01*
X102390000Y-133246000D02*
X111707000Y-133246000D01*
X111707000Y-133246000D02*
X111813000Y-133352000D01*
G04 #@! TO.N,+3V3*
X80518000Y-168554000D02*
X75793600Y-163830000D01*
X75793600Y-163830000D02*
X69316600Y-163830000D01*
X61518800Y-168605000D02*
X80467200Y-168605000D01*
X80467200Y-168605000D02*
X80518000Y-168554000D01*
X69316600Y-163830000D02*
X68630800Y-163830000D01*
X68630800Y-163830000D02*
X62534800Y-157734000D01*
X62534800Y-157734000D02*
X60807600Y-157734000D01*
X46177200Y-164846000D02*
X49936400Y-168605000D01*
X49936400Y-168605000D02*
X61518800Y-168605000D01*
X55917600Y-182690000D02*
X59575200Y-182690000D01*
X59575200Y-182690000D02*
X61518800Y-180746000D01*
X61518800Y-180746000D02*
X61518800Y-168605000D01*
X85242400Y-174371000D02*
X85242400Y-173279000D01*
X85242400Y-173279000D02*
X80518000Y-168554000D01*
X60807600Y-157734000D02*
X60807600Y-155727000D01*
X60807600Y-155727000D02*
X59385200Y-154305000D01*
X59385200Y-154305000D02*
X58191400Y-154305000D01*
X99695000Y-181864000D02*
X99695000Y-176759000D01*
X99695000Y-176759000D02*
X97307400Y-174371000D01*
X97307400Y-174371000D02*
X85242400Y-174371000D01*
X99695000Y-181864000D02*
X98907600Y-181864000D01*
X98907600Y-181864000D02*
X98044000Y-182728000D01*
X98044000Y-182728000D02*
X98044000Y-184450000D01*
X118364000Y-184450000D02*
X118364000Y-182728000D01*
X118364000Y-182728000D02*
X117500000Y-181864000D01*
X117500000Y-181864000D02*
X99695000Y-181864000D01*
G04 #@! TO.N,+5V*
X118364000Y-186990000D02*
X119782000Y-186990000D01*
X119782000Y-186990000D02*
X120701000Y-187909000D01*
X120701000Y-187909000D02*
X125374000Y-187909000D01*
X125374000Y-187909000D02*
X126797000Y-186487000D01*
X126797000Y-186487000D02*
X126797000Y-173685000D01*
X126797000Y-173685000D02*
X137213000Y-163269000D01*
X137213000Y-163269000D02*
X137213000Y-154457000D01*
X115824000Y-186990000D02*
X118364000Y-186990000D01*
X137211000Y-107587800D02*
X137211000Y-82187800D01*
X137213000Y-109832000D02*
X137213000Y-107590000D01*
X137213000Y-107590000D02*
X137211000Y-107588000D01*
X137211000Y-107588000D02*
X137211000Y-107587800D01*
X88239600Y-109855000D02*
X137190000Y-109855000D01*
X137190000Y-109855000D02*
X137213000Y-109832000D01*
X87223600Y-109855000D02*
X88239600Y-109855000D01*
X87223600Y-109855000D02*
X88239600Y-109855000D01*
X55854600Y-186690000D02*
X44805600Y-186690000D01*
X44805600Y-186690000D02*
X43738800Y-185623000D01*
X43738800Y-185623000D02*
X43738800Y-113817000D01*
X43738800Y-113817000D02*
X47701200Y-109855000D01*
X47701200Y-109855000D02*
X87223600Y-109855000D01*
X137213000Y-129057000D02*
X137213000Y-109832000D01*
X89291200Y-91446100D02*
X87547700Y-91446100D01*
X87547700Y-91446100D02*
X85725000Y-93268800D01*
X85725000Y-93268800D02*
X85725000Y-108356000D01*
X85725000Y-108356000D02*
X87223600Y-109855000D01*
X137213000Y-154457000D02*
X137213000Y-129057000D01*
G04 #@! TO.N,+3.3VP*
X111811000Y-107587800D02*
X111811000Y-107588000D01*
X111811000Y-84251600D02*
X111811000Y-107587800D01*
X111811000Y-82187800D02*
X111811000Y-84251600D01*
X85667600Y-84245200D02*
X102701000Y-84245200D01*
X102701000Y-84245200D02*
X102707000Y-84251600D01*
X102707000Y-84251600D02*
X111811000Y-84251600D01*
G04 #@! TD*
D19*
G04 #@! TO.N,+5V*
X128651000Y-188061600D02*
X119387694Y-188061600D01*
X119559178Y-187871355D01*
X119708157Y-187621252D01*
X119805481Y-187346891D01*
X119684814Y-187117000D01*
X118491000Y-187117000D01*
X118491000Y-187137000D01*
X118237000Y-187137000D01*
X118237000Y-187117000D01*
X115951000Y-187117000D01*
X115951000Y-187137000D01*
X115697000Y-187137000D01*
X115697000Y-187117000D01*
X115677000Y-187117000D01*
X115677000Y-186863000D01*
X115697000Y-186863000D01*
X115697000Y-186843000D01*
X115951000Y-186843000D01*
X115951000Y-186863000D01*
X118237000Y-186863000D01*
X118237000Y-186843000D01*
X118491000Y-186843000D01*
X118491000Y-186863000D01*
X119684814Y-186863000D01*
X119805481Y-186633109D01*
X119708157Y-186358748D01*
X119676444Y-186305509D01*
X120395384Y-186308999D01*
X120420172Y-186306679D01*
X120444031Y-186299567D01*
X120466044Y-186287938D01*
X120485366Y-186272237D01*
X120501253Y-186253069D01*
X120513095Y-186231170D01*
X120520438Y-186207381D01*
X120523000Y-186182000D01*
X120523000Y-185534495D01*
X121262000Y-185534495D01*
X121262000Y-185925505D01*
X121338282Y-186309003D01*
X121487915Y-186670250D01*
X121705149Y-186995364D01*
X121981636Y-187271851D01*
X122306750Y-187489085D01*
X122667997Y-187638718D01*
X123051495Y-187715000D01*
X123442505Y-187715000D01*
X123826003Y-187638718D01*
X124187250Y-187489085D01*
X124512364Y-187271851D01*
X124788851Y-186995364D01*
X125006085Y-186670250D01*
X125155718Y-186309003D01*
X125232000Y-185925505D01*
X125232000Y-185534495D01*
X125155718Y-185150997D01*
X125006085Y-184789750D01*
X124788851Y-184464636D01*
X124512364Y-184188149D01*
X124187250Y-183970915D01*
X123826003Y-183821282D01*
X123442505Y-183745000D01*
X123051495Y-183745000D01*
X122667997Y-183821282D01*
X122306750Y-183970915D01*
X121981636Y-184188149D01*
X121705149Y-184464636D01*
X121487915Y-184789750D01*
X121338282Y-185150997D01*
X121262000Y-185534495D01*
X120523000Y-185534495D01*
X120523000Y-177927000D01*
X128651000Y-177927000D01*
X128651000Y-188061600D01*
G04 #@! TA.AperFunction,Conductor*
D20*
G36*
X128651000Y-188061600D02*
G01*
X119387694Y-188061600D01*
X119559178Y-187871355D01*
X119708157Y-187621252D01*
X119805481Y-187346891D01*
X119684814Y-187117000D01*
X118491000Y-187117000D01*
X118491000Y-187137000D01*
X118237000Y-187137000D01*
X118237000Y-187117000D01*
X115951000Y-187117000D01*
X115951000Y-187137000D01*
X115697000Y-187137000D01*
X115697000Y-187117000D01*
X115677000Y-187117000D01*
X115677000Y-186863000D01*
X115697000Y-186863000D01*
X115697000Y-186843000D01*
X115951000Y-186843000D01*
X115951000Y-186863000D01*
X118237000Y-186863000D01*
X118237000Y-186843000D01*
X118491000Y-186843000D01*
X118491000Y-186863000D01*
X119684814Y-186863000D01*
X119805481Y-186633109D01*
X119708157Y-186358748D01*
X119676444Y-186305509D01*
X120395384Y-186308999D01*
X120420172Y-186306679D01*
X120444031Y-186299567D01*
X120466044Y-186287938D01*
X120485366Y-186272237D01*
X120501253Y-186253069D01*
X120513095Y-186231170D01*
X120520438Y-186207381D01*
X120523000Y-186182000D01*
X120523000Y-185534495D01*
X121262000Y-185534495D01*
X121262000Y-185925505D01*
X121338282Y-186309003D01*
X121487915Y-186670250D01*
X121705149Y-186995364D01*
X121981636Y-187271851D01*
X122306750Y-187489085D01*
X122667997Y-187638718D01*
X123051495Y-187715000D01*
X123442505Y-187715000D01*
X123826003Y-187638718D01*
X124187250Y-187489085D01*
X124512364Y-187271851D01*
X124788851Y-186995364D01*
X125006085Y-186670250D01*
X125155718Y-186309003D01*
X125232000Y-185925505D01*
X125232000Y-185534495D01*
X125155718Y-185150997D01*
X125006085Y-184789750D01*
X124788851Y-184464636D01*
X124512364Y-184188149D01*
X124187250Y-183970915D01*
X123826003Y-183821282D01*
X123442505Y-183745000D01*
X123051495Y-183745000D01*
X122667997Y-183821282D01*
X122306750Y-183970915D01*
X121981636Y-184188149D01*
X121705149Y-184464636D01*
X121487915Y-184789750D01*
X121338282Y-185150997D01*
X121262000Y-185534495D01*
X120523000Y-185534495D01*
X120523000Y-177927000D01*
X128651000Y-177927000D01*
X128651000Y-188061600D01*
G37*
G04 #@! TD.AperFunction*
G04 #@! TD*
D19*
G04 #@! TO.N,+3V3*
X46009014Y-152592111D02*
X45938532Y-152762271D01*
X45902600Y-152942911D01*
X45902600Y-153127089D01*
X45938532Y-153307729D01*
X46009014Y-153477889D01*
X46111338Y-153631028D01*
X46241572Y-153761262D01*
X46394711Y-153863586D01*
X46564871Y-153934068D01*
X46745511Y-153970000D01*
X46929689Y-153970000D01*
X47110329Y-153934068D01*
X47280489Y-153863586D01*
X47433628Y-153761262D01*
X47563862Y-153631028D01*
X47599353Y-153577911D01*
X65714600Y-153577911D01*
X65714600Y-153762089D01*
X65750532Y-153942729D01*
X65821014Y-154112889D01*
X65923338Y-154266028D01*
X66053572Y-154396262D01*
X66206711Y-154498586D01*
X66376871Y-154569068D01*
X66557511Y-154605000D01*
X66741689Y-154605000D01*
X66922329Y-154569068D01*
X67092489Y-154498586D01*
X67245628Y-154396262D01*
X67375862Y-154266028D01*
X67478186Y-154112889D01*
X67548668Y-153942729D01*
X67584600Y-153762089D01*
X67584600Y-153577911D01*
X67548668Y-153397271D01*
X67478186Y-153227111D01*
X67375862Y-153073972D01*
X67245628Y-152943738D01*
X67092489Y-152841414D01*
X66922329Y-152770932D01*
X66741689Y-152735000D01*
X66557511Y-152735000D01*
X66376871Y-152770932D01*
X66206711Y-152841414D01*
X66053572Y-152943738D01*
X65923338Y-153073972D01*
X65821014Y-153227111D01*
X65750532Y-153397271D01*
X65714600Y-153577911D01*
X47599353Y-153577911D01*
X47666186Y-153477889D01*
X47736668Y-153307729D01*
X47772600Y-153127089D01*
X47772600Y-152942911D01*
X47736668Y-152762271D01*
X47666186Y-152592111D01*
X47622680Y-152527000D01*
X76162320Y-152527000D01*
X118973960Y-180383716D01*
X118987465Y-182963161D01*
X118649750Y-182965000D01*
X118491000Y-183123750D01*
X118491000Y-184323000D01*
X118511000Y-184323000D01*
X118511000Y-184577000D01*
X118491000Y-184577000D01*
X118491000Y-184597000D01*
X118237000Y-184597000D01*
X118237000Y-184577000D01*
X118217000Y-184577000D01*
X118217000Y-184323000D01*
X118237000Y-184323000D01*
X118237000Y-183123750D01*
X118078250Y-182965000D01*
X117514000Y-182961928D01*
X117389518Y-182974188D01*
X117269820Y-183010498D01*
X117159506Y-183069463D01*
X117062815Y-183148815D01*
X116983463Y-183245506D01*
X116924498Y-183355820D01*
X116902487Y-183428380D01*
X116770632Y-183296525D01*
X116527411Y-183134010D01*
X116257158Y-183022068D01*
X115970260Y-182965000D01*
X115677740Y-182965000D01*
X115390842Y-183022068D01*
X115120589Y-183134010D01*
X114877368Y-183296525D01*
X114670525Y-183503368D01*
X114554000Y-183677760D01*
X114437475Y-183503368D01*
X114230632Y-183296525D01*
X113987411Y-183134010D01*
X113717158Y-183022068D01*
X113430260Y-182965000D01*
X113137740Y-182965000D01*
X112850842Y-183022068D01*
X112580589Y-183134010D01*
X112337368Y-183296525D01*
X112130525Y-183503368D01*
X112014000Y-183677760D01*
X111897475Y-183503368D01*
X111690632Y-183296525D01*
X111447411Y-183134010D01*
X111177158Y-183022068D01*
X110890260Y-182965000D01*
X110597740Y-182965000D01*
X110310842Y-183022068D01*
X110040589Y-183134010D01*
X109797368Y-183296525D01*
X109590525Y-183503368D01*
X109474000Y-183677760D01*
X109357475Y-183503368D01*
X109150632Y-183296525D01*
X108907411Y-183134010D01*
X108637158Y-183022068D01*
X108350260Y-182965000D01*
X108057740Y-182965000D01*
X107770842Y-183022068D01*
X107500589Y-183134010D01*
X107257368Y-183296525D01*
X107050525Y-183503368D01*
X106934000Y-183677760D01*
X106817475Y-183503368D01*
X106610632Y-183296525D01*
X106367411Y-183134010D01*
X106097158Y-183022068D01*
X105810260Y-182965000D01*
X105517740Y-182965000D01*
X105230842Y-183022068D01*
X104960589Y-183134010D01*
X104717368Y-183296525D01*
X104510525Y-183503368D01*
X104394000Y-183677760D01*
X104277475Y-183503368D01*
X104070632Y-183296525D01*
X103827411Y-183134010D01*
X103557158Y-183022068D01*
X103270260Y-182965000D01*
X102977740Y-182965000D01*
X102690842Y-183022068D01*
X102420589Y-183134010D01*
X102177368Y-183296525D01*
X101970525Y-183503368D01*
X101854000Y-183677760D01*
X101737475Y-183503368D01*
X101530632Y-183296525D01*
X101287411Y-183134010D01*
X101017158Y-183022068D01*
X100730260Y-182965000D01*
X100437740Y-182965000D01*
X100150842Y-183022068D01*
X99880589Y-183134010D01*
X99637368Y-183296525D01*
X99430525Y-183503368D01*
X99308805Y-183685534D01*
X99239178Y-183568645D01*
X99044269Y-183352412D01*
X98810920Y-183178359D01*
X98548099Y-183053175D01*
X98400890Y-183008524D01*
X98171000Y-183129845D01*
X98171000Y-184323000D01*
X98191000Y-184323000D01*
X98191000Y-184577000D01*
X98171000Y-184577000D01*
X98171000Y-184597000D01*
X97917000Y-184597000D01*
X97917000Y-184577000D01*
X97897000Y-184577000D01*
X97897000Y-184323000D01*
X97917000Y-184323000D01*
X97917000Y-183129845D01*
X97687110Y-183008524D01*
X97539901Y-183053175D01*
X97277080Y-183178359D01*
X97043731Y-183352412D01*
X96848822Y-183568645D01*
X96779195Y-183685534D01*
X96657475Y-183503368D01*
X96450632Y-183296525D01*
X96207411Y-183134010D01*
X95937158Y-183022068D01*
X95650260Y-182965000D01*
X95357740Y-182965000D01*
X95070842Y-183022068D01*
X94800589Y-183134010D01*
X94557368Y-183296525D01*
X94350525Y-183503368D01*
X94234000Y-183677760D01*
X94117475Y-183503368D01*
X93910632Y-183296525D01*
X93667411Y-183134010D01*
X93397158Y-183022068D01*
X93110260Y-182965000D01*
X92817740Y-182965000D01*
X92530842Y-183022068D01*
X92260589Y-183134010D01*
X92017368Y-183296525D01*
X91810525Y-183503368D01*
X91694000Y-183677760D01*
X91577475Y-183503368D01*
X91370632Y-183296525D01*
X91127411Y-183134010D01*
X90857158Y-183022068D01*
X90570260Y-182965000D01*
X90277740Y-182965000D01*
X89990842Y-183022068D01*
X89720589Y-183134010D01*
X89477368Y-183296525D01*
X89270525Y-183503368D01*
X89154000Y-183677760D01*
X89037475Y-183503368D01*
X88830632Y-183296525D01*
X88587411Y-183134010D01*
X88317158Y-183022068D01*
X88030260Y-182965000D01*
X87737740Y-182965000D01*
X87450842Y-183022068D01*
X87180589Y-183134010D01*
X86937368Y-183296525D01*
X86730525Y-183503368D01*
X86614000Y-183677760D01*
X86497475Y-183503368D01*
X86290632Y-183296525D01*
X86047411Y-183134010D01*
X85777158Y-183022068D01*
X85490260Y-182965000D01*
X85197740Y-182965000D01*
X84910842Y-183022068D01*
X84640589Y-183134010D01*
X84397368Y-183296525D01*
X84190525Y-183503368D01*
X84074000Y-183677760D01*
X83957475Y-183503368D01*
X83750632Y-183296525D01*
X83507411Y-183134010D01*
X83237158Y-183022068D01*
X82950260Y-182965000D01*
X82657740Y-182965000D01*
X82370842Y-183022068D01*
X82100589Y-183134010D01*
X81857368Y-183296525D01*
X81650525Y-183503368D01*
X81534000Y-183677760D01*
X81417475Y-183503368D01*
X81210632Y-183296525D01*
X80967411Y-183134010D01*
X80697158Y-183022068D01*
X80410260Y-182965000D01*
X80117740Y-182965000D01*
X79830842Y-183022068D01*
X79560589Y-183134010D01*
X79317368Y-183296525D01*
X79110525Y-183503368D01*
X78994000Y-183677760D01*
X78877475Y-183503368D01*
X78670632Y-183296525D01*
X78427411Y-183134010D01*
X78157158Y-183022068D01*
X77870260Y-182965000D01*
X77577740Y-182965000D01*
X77290842Y-183022068D01*
X77020589Y-183134010D01*
X76777368Y-183296525D01*
X76570525Y-183503368D01*
X76454000Y-183677760D01*
X76337475Y-183503368D01*
X76130632Y-183296525D01*
X75887411Y-183134010D01*
X75617158Y-183022068D01*
X75330260Y-182965000D01*
X75037740Y-182965000D01*
X74750842Y-183022068D01*
X74480589Y-183134010D01*
X74237368Y-183296525D01*
X74030525Y-183503368D01*
X73914000Y-183677760D01*
X73797475Y-183503368D01*
X73590632Y-183296525D01*
X73347411Y-183134010D01*
X73077158Y-183022068D01*
X72790260Y-182965000D01*
X72497740Y-182965000D01*
X72210842Y-183022068D01*
X71940589Y-183134010D01*
X71697368Y-183296525D01*
X71490525Y-183503368D01*
X71374000Y-183677760D01*
X71257475Y-183503368D01*
X71050632Y-183296525D01*
X70807411Y-183134010D01*
X70537158Y-183022068D01*
X70250260Y-182965000D01*
X69957740Y-182965000D01*
X69670842Y-183022068D01*
X69400589Y-183134010D01*
X69157368Y-183296525D01*
X68950525Y-183503368D01*
X68788010Y-183746589D01*
X68676068Y-184016842D01*
X68619000Y-184303740D01*
X68619000Y-184596260D01*
X68676068Y-184883158D01*
X68740620Y-185039000D01*
X67209727Y-185039000D01*
X67106485Y-184789750D01*
X66889251Y-184464636D01*
X66612764Y-184188149D01*
X66287650Y-183970915D01*
X65926403Y-183821282D01*
X65542905Y-183745000D01*
X65151895Y-183745000D01*
X64768397Y-183821282D01*
X64407150Y-183970915D01*
X64082036Y-184188149D01*
X63805549Y-184464636D01*
X63588315Y-184789750D01*
X63485073Y-185039000D01*
X53424368Y-185039000D01*
X52159437Y-182030835D01*
X60837000Y-182030835D01*
X60837000Y-182205165D01*
X60871010Y-182376145D01*
X60937723Y-182537205D01*
X61034576Y-182682155D01*
X61157845Y-182805424D01*
X61302795Y-182902277D01*
X61463855Y-182968990D01*
X61634835Y-183003000D01*
X61809165Y-183003000D01*
X61980145Y-182968990D01*
X62141205Y-182902277D01*
X62286155Y-182805424D01*
X62409424Y-182682155D01*
X62506277Y-182537205D01*
X62572990Y-182376145D01*
X62607000Y-182205165D01*
X62607000Y-182030835D01*
X62572990Y-181859855D01*
X62506277Y-181698795D01*
X62409424Y-181553845D01*
X62286155Y-181430576D01*
X62141205Y-181333723D01*
X61980145Y-181267010D01*
X61809165Y-181233000D01*
X61634835Y-181233000D01*
X61463855Y-181267010D01*
X61302795Y-181333723D01*
X61157845Y-181430576D01*
X61034576Y-181553845D01*
X60937723Y-181698795D01*
X60871010Y-181859855D01*
X60837000Y-182030835D01*
X52159437Y-182030835D01*
X50877755Y-178982835D01*
X58805000Y-178982835D01*
X58805000Y-179157165D01*
X58839010Y-179328145D01*
X58905723Y-179489205D01*
X59002576Y-179634155D01*
X59125845Y-179757424D01*
X59270795Y-179854277D01*
X59431855Y-179920990D01*
X59602835Y-179955000D01*
X59777165Y-179955000D01*
X59948145Y-179920990D01*
X60109205Y-179854277D01*
X60254155Y-179757424D01*
X60377424Y-179634155D01*
X60474277Y-179489205D01*
X60540990Y-179328145D01*
X60575000Y-179157165D01*
X60575000Y-178982835D01*
X60540990Y-178811855D01*
X60474277Y-178650795D01*
X60377424Y-178505845D01*
X60254155Y-178382576D01*
X60109205Y-178285723D01*
X59948145Y-178219010D01*
X59777165Y-178185000D01*
X59602835Y-178185000D01*
X59431855Y-178219010D01*
X59270795Y-178285723D01*
X59125845Y-178382576D01*
X59002576Y-178505845D01*
X58905723Y-178650795D01*
X58839010Y-178811855D01*
X58805000Y-178982835D01*
X50877755Y-178982835D01*
X49468559Y-175631589D01*
X63893000Y-175631589D01*
X63893000Y-175904411D01*
X63946225Y-176171989D01*
X64050629Y-176424043D01*
X64202201Y-176650886D01*
X64395114Y-176843799D01*
X64621957Y-176995371D01*
X64874011Y-177099775D01*
X65141589Y-177153000D01*
X65414411Y-177153000D01*
X65681989Y-177099775D01*
X65934043Y-176995371D01*
X66160886Y-176843799D01*
X66353799Y-176650886D01*
X66505371Y-176424043D01*
X66609775Y-176171989D01*
X66663000Y-175904411D01*
X66663000Y-175631589D01*
X66609775Y-175364011D01*
X66505371Y-175111957D01*
X66353799Y-174885114D01*
X66160886Y-174692201D01*
X65934043Y-174540629D01*
X65681989Y-174436225D01*
X65414411Y-174383000D01*
X65141589Y-174383000D01*
X64874011Y-174436225D01*
X64621957Y-174540629D01*
X64395114Y-174692201D01*
X64202201Y-174885114D01*
X64050629Y-175111957D01*
X63946225Y-175364011D01*
X63893000Y-175631589D01*
X49468559Y-175631589D01*
X47180336Y-170189911D01*
X51211200Y-170189911D01*
X51211200Y-170374089D01*
X51247132Y-170554729D01*
X51317614Y-170724889D01*
X51419938Y-170878028D01*
X51550172Y-171008262D01*
X51703311Y-171110586D01*
X51873471Y-171181068D01*
X52054111Y-171217000D01*
X52238289Y-171217000D01*
X52418929Y-171181068D01*
X52589089Y-171110586D01*
X52742228Y-171008262D01*
X52872462Y-170878028D01*
X52974786Y-170724889D01*
X53045268Y-170554729D01*
X53081200Y-170374089D01*
X53081200Y-170189911D01*
X53045268Y-170009271D01*
X52974786Y-169839111D01*
X52872462Y-169685972D01*
X52742228Y-169555738D01*
X52589089Y-169453414D01*
X52418929Y-169382932D01*
X52238289Y-169347000D01*
X52054111Y-169347000D01*
X51873471Y-169382932D01*
X51703311Y-169453414D01*
X51550172Y-169555738D01*
X51419938Y-169685972D01*
X51317614Y-169839111D01*
X51247132Y-170009271D01*
X51211200Y-170189911D01*
X47180336Y-170189911D01*
X45516706Y-166233589D01*
X52590000Y-166233589D01*
X52590000Y-166506411D01*
X52643225Y-166773989D01*
X52747629Y-167026043D01*
X52899201Y-167252886D01*
X53092114Y-167445799D01*
X53318957Y-167597371D01*
X53571011Y-167701775D01*
X53838589Y-167755000D01*
X54111411Y-167755000D01*
X54378989Y-167701775D01*
X54631043Y-167597371D01*
X54857886Y-167445799D01*
X55050799Y-167252886D01*
X55202371Y-167026043D01*
X55306775Y-166773989D01*
X55360000Y-166506411D01*
X55360000Y-166233589D01*
X57035000Y-166233589D01*
X57035000Y-166506411D01*
X57088225Y-166773989D01*
X57192629Y-167026043D01*
X57344201Y-167252886D01*
X57537114Y-167445799D01*
X57763957Y-167597371D01*
X58016011Y-167701775D01*
X58283589Y-167755000D01*
X58556411Y-167755000D01*
X58823989Y-167701775D01*
X59076043Y-167597371D01*
X59302886Y-167445799D01*
X59495799Y-167252886D01*
X59617842Y-167070235D01*
X93806200Y-167070235D01*
X93806200Y-167244565D01*
X93840210Y-167415545D01*
X93906923Y-167576605D01*
X94003776Y-167721555D01*
X94127045Y-167844824D01*
X94271995Y-167941677D01*
X94433055Y-168008390D01*
X94604035Y-168042400D01*
X94778365Y-168042400D01*
X94949345Y-168008390D01*
X95110405Y-167941677D01*
X95255355Y-167844824D01*
X95378624Y-167721555D01*
X95475477Y-167576605D01*
X95542190Y-167415545D01*
X95576200Y-167244565D01*
X95576200Y-167070235D01*
X95542190Y-166899255D01*
X95475477Y-166738195D01*
X95378624Y-166593245D01*
X95255355Y-166469976D01*
X95110405Y-166373123D01*
X94949345Y-166306410D01*
X94778365Y-166272400D01*
X94604035Y-166272400D01*
X94433055Y-166306410D01*
X94271995Y-166373123D01*
X94127045Y-166469976D01*
X94003776Y-166593245D01*
X93906923Y-166738195D01*
X93840210Y-166899255D01*
X93806200Y-167070235D01*
X59617842Y-167070235D01*
X59647371Y-167026043D01*
X59751775Y-166773989D01*
X59805000Y-166506411D01*
X59805000Y-166233589D01*
X59751775Y-165966011D01*
X59647371Y-165713957D01*
X59495799Y-165487114D01*
X59302886Y-165294201D01*
X59076043Y-165142629D01*
X58823989Y-165038225D01*
X58556411Y-164985000D01*
X58283589Y-164985000D01*
X58016011Y-165038225D01*
X57763957Y-165142629D01*
X57537114Y-165294201D01*
X57344201Y-165487114D01*
X57192629Y-165713957D01*
X57088225Y-165966011D01*
X57035000Y-166233589D01*
X55360000Y-166233589D01*
X55306775Y-165966011D01*
X55202371Y-165713957D01*
X55050799Y-165487114D01*
X54857886Y-165294201D01*
X54631043Y-165142629D01*
X54378989Y-165038225D01*
X54111411Y-164985000D01*
X53838589Y-164985000D01*
X53571011Y-165038225D01*
X53318957Y-165142629D01*
X53092114Y-165294201D01*
X52899201Y-165487114D01*
X52747629Y-165713957D01*
X52643225Y-165966011D01*
X52590000Y-166233589D01*
X45516706Y-166233589D01*
X45339000Y-165810984D01*
X45339000Y-164728911D01*
X55199000Y-164728911D01*
X55199000Y-164913089D01*
X55234932Y-165093729D01*
X55305414Y-165263889D01*
X55407738Y-165417028D01*
X55537972Y-165547262D01*
X55691111Y-165649586D01*
X55861271Y-165720068D01*
X56041911Y-165756000D01*
X56226089Y-165756000D01*
X56406729Y-165720068D01*
X56576889Y-165649586D01*
X56730028Y-165547262D01*
X56860262Y-165417028D01*
X56962586Y-165263889D01*
X57033068Y-165093729D01*
X57069000Y-164913089D01*
X57069000Y-164728911D01*
X57033068Y-164548271D01*
X56962586Y-164378111D01*
X56860262Y-164224972D01*
X56730028Y-164094738D01*
X56576889Y-163992414D01*
X56406729Y-163921932D01*
X56226089Y-163886000D01*
X56041911Y-163886000D01*
X55861271Y-163921932D01*
X55691111Y-163992414D01*
X55537972Y-164094738D01*
X55407738Y-164224972D01*
X55305414Y-164378111D01*
X55234932Y-164548271D01*
X55199000Y-164728911D01*
X45339000Y-164728911D01*
X45339000Y-163058589D01*
X48780000Y-163058589D01*
X48780000Y-163331411D01*
X48833225Y-163598989D01*
X48937629Y-163851043D01*
X49089201Y-164077886D01*
X49282114Y-164270799D01*
X49508957Y-164422371D01*
X49761011Y-164526775D01*
X50028589Y-164580000D01*
X50301411Y-164580000D01*
X50568989Y-164526775D01*
X50821043Y-164422371D01*
X51047886Y-164270799D01*
X51240799Y-164077886D01*
X51392371Y-163851043D01*
X51457590Y-163693589D01*
X60972000Y-163693589D01*
X60972000Y-163966411D01*
X61025225Y-164233989D01*
X61129629Y-164486043D01*
X61281201Y-164712886D01*
X61474114Y-164905799D01*
X61700957Y-165057371D01*
X61953011Y-165161775D01*
X62220589Y-165215000D01*
X62493411Y-165215000D01*
X62760989Y-165161775D01*
X63013043Y-165057371D01*
X63239886Y-164905799D01*
X63432799Y-164712886D01*
X63584371Y-164486043D01*
X63688775Y-164233989D01*
X63742000Y-163966411D01*
X63742000Y-163693589D01*
X63688775Y-163426011D01*
X63584371Y-163173957D01*
X63432799Y-162947114D01*
X63239886Y-162754201D01*
X63013043Y-162602629D01*
X62760989Y-162498225D01*
X62493411Y-162445000D01*
X62220589Y-162445000D01*
X61953011Y-162498225D01*
X61700957Y-162602629D01*
X61474114Y-162754201D01*
X61281201Y-162947114D01*
X61129629Y-163173957D01*
X61025225Y-163426011D01*
X60972000Y-163693589D01*
X51457590Y-163693589D01*
X51496775Y-163598989D01*
X51550000Y-163331411D01*
X51550000Y-163058589D01*
X51496775Y-162791011D01*
X51392371Y-162538957D01*
X51293236Y-162390592D01*
X51303855Y-162394990D01*
X51474835Y-162429000D01*
X51649165Y-162429000D01*
X51820145Y-162394990D01*
X51981205Y-162328277D01*
X52126155Y-162231424D01*
X52164144Y-162193435D01*
X59770200Y-162193435D01*
X59770200Y-162367765D01*
X59804210Y-162538745D01*
X59870923Y-162699805D01*
X59967776Y-162844755D01*
X60091045Y-162968024D01*
X60235995Y-163064877D01*
X60397055Y-163131590D01*
X60568035Y-163165600D01*
X60742365Y-163165600D01*
X60913345Y-163131590D01*
X61074405Y-163064877D01*
X61219355Y-162968024D01*
X61342624Y-162844755D01*
X61439477Y-162699805D01*
X61506190Y-162538745D01*
X61540200Y-162367765D01*
X61540200Y-162193435D01*
X61506190Y-162022455D01*
X61439477Y-161861395D01*
X61342624Y-161716445D01*
X61337014Y-161710835D01*
X84713000Y-161710835D01*
X84713000Y-161885165D01*
X84747010Y-162056145D01*
X84813723Y-162217205D01*
X84910576Y-162362155D01*
X85033845Y-162485424D01*
X85178795Y-162582277D01*
X85339855Y-162648990D01*
X85510835Y-162683000D01*
X85685165Y-162683000D01*
X85856145Y-162648990D01*
X86017205Y-162582277D01*
X86162155Y-162485424D01*
X86285424Y-162362155D01*
X86382277Y-162217205D01*
X86448990Y-162056145D01*
X86483000Y-161885165D01*
X86483000Y-161710835D01*
X86448990Y-161539855D01*
X86382277Y-161378795D01*
X86285424Y-161233845D01*
X86162155Y-161110576D01*
X86017205Y-161013723D01*
X85856145Y-160947010D01*
X85685165Y-160913000D01*
X85510835Y-160913000D01*
X85339855Y-160947010D01*
X85178795Y-161013723D01*
X85033845Y-161110576D01*
X84910576Y-161233845D01*
X84813723Y-161378795D01*
X84747010Y-161539855D01*
X84713000Y-161710835D01*
X61337014Y-161710835D01*
X61219355Y-161593176D01*
X61074405Y-161496323D01*
X60913345Y-161429610D01*
X60742365Y-161395600D01*
X60568035Y-161395600D01*
X60397055Y-161429610D01*
X60235995Y-161496323D01*
X60091045Y-161593176D01*
X59967776Y-161716445D01*
X59870923Y-161861395D01*
X59804210Y-162022455D01*
X59770200Y-162193435D01*
X52164144Y-162193435D01*
X52249424Y-162108155D01*
X52346277Y-161963205D01*
X52412990Y-161802145D01*
X52447000Y-161631165D01*
X52447000Y-161456835D01*
X52412990Y-161285855D01*
X52346277Y-161124795D01*
X52249424Y-160979845D01*
X52126155Y-160856576D01*
X51981205Y-160759723D01*
X51820145Y-160693010D01*
X51649165Y-160659000D01*
X51474835Y-160659000D01*
X51303855Y-160693010D01*
X51142795Y-160759723D01*
X50997845Y-160856576D01*
X50874576Y-160979845D01*
X50777723Y-161124795D01*
X50711010Y-161285855D01*
X50677000Y-161456835D01*
X50677000Y-161631165D01*
X50711010Y-161802145D01*
X50770963Y-161946885D01*
X50568989Y-161863225D01*
X50301411Y-161810000D01*
X50028589Y-161810000D01*
X49761011Y-161863225D01*
X49508957Y-161967629D01*
X49282114Y-162119201D01*
X49089201Y-162312114D01*
X48937629Y-162538957D01*
X48833225Y-162791011D01*
X48780000Y-163058589D01*
X45339000Y-163058589D01*
X45339000Y-161413889D01*
X45376995Y-161439277D01*
X45538055Y-161505990D01*
X45709035Y-161540000D01*
X45883365Y-161540000D01*
X46054345Y-161505990D01*
X46215405Y-161439277D01*
X46360355Y-161342424D01*
X46483624Y-161219155D01*
X46580477Y-161074205D01*
X46647190Y-160913145D01*
X46681200Y-160742165D01*
X46681200Y-160567835D01*
X46647190Y-160396855D01*
X46580477Y-160235795D01*
X46483624Y-160090845D01*
X46360355Y-159967576D01*
X46215405Y-159870723D01*
X46054345Y-159804010D01*
X45883365Y-159770000D01*
X45709035Y-159770000D01*
X45538055Y-159804010D01*
X45376995Y-159870723D01*
X45339000Y-159896111D01*
X45339000Y-158784911D01*
X55199000Y-158784911D01*
X55199000Y-158969089D01*
X55234932Y-159149729D01*
X55305414Y-159319889D01*
X55407738Y-159473028D01*
X55537972Y-159603262D01*
X55691111Y-159705586D01*
X55861271Y-159776068D01*
X56041911Y-159812000D01*
X56226089Y-159812000D01*
X56406729Y-159776068D01*
X56576889Y-159705586D01*
X56730028Y-159603262D01*
X56860262Y-159473028D01*
X56962586Y-159319889D01*
X57033068Y-159149729D01*
X57069000Y-158969089D01*
X57069000Y-158784911D01*
X57043738Y-158657911D01*
X65511400Y-158657911D01*
X65511400Y-158842089D01*
X65547332Y-159022729D01*
X65617814Y-159192889D01*
X65720138Y-159346028D01*
X65850372Y-159476262D01*
X66003511Y-159578586D01*
X66173671Y-159649068D01*
X66354311Y-159685000D01*
X66538489Y-159685000D01*
X66719129Y-159649068D01*
X66889289Y-159578586D01*
X67042428Y-159476262D01*
X67172662Y-159346028D01*
X67274986Y-159192889D01*
X67345468Y-159022729D01*
X67381400Y-158842089D01*
X67381400Y-158657911D01*
X67345468Y-158477271D01*
X67274986Y-158307111D01*
X67172662Y-158153972D01*
X67042428Y-158023738D01*
X66889289Y-157921414D01*
X66719129Y-157850932D01*
X66538489Y-157815000D01*
X66354311Y-157815000D01*
X66173671Y-157850932D01*
X66003511Y-157921414D01*
X65850372Y-158023738D01*
X65720138Y-158153972D01*
X65617814Y-158307111D01*
X65547332Y-158477271D01*
X65511400Y-158657911D01*
X57043738Y-158657911D01*
X57033068Y-158604271D01*
X56962586Y-158434111D01*
X56860262Y-158280972D01*
X56730028Y-158150738D01*
X56576889Y-158048414D01*
X56406729Y-157977932D01*
X56226089Y-157942000D01*
X56041911Y-157942000D01*
X55861271Y-157977932D01*
X55691111Y-158048414D01*
X55537972Y-158150738D01*
X55407738Y-158280972D01*
X55305414Y-158434111D01*
X55234932Y-158604271D01*
X55199000Y-158784911D01*
X45339000Y-158784911D01*
X45339000Y-152527000D01*
X46052520Y-152527000D01*
X46009014Y-152592111D01*
G04 #@! TA.AperFunction,Conductor*
D20*
G36*
X46009014Y-152592111D02*
G01*
X45938532Y-152762271D01*
X45902600Y-152942911D01*
X45902600Y-153127089D01*
X45938532Y-153307729D01*
X46009014Y-153477889D01*
X46111338Y-153631028D01*
X46241572Y-153761262D01*
X46394711Y-153863586D01*
X46564871Y-153934068D01*
X46745511Y-153970000D01*
X46929689Y-153970000D01*
X47110329Y-153934068D01*
X47280489Y-153863586D01*
X47433628Y-153761262D01*
X47563862Y-153631028D01*
X47599353Y-153577911D01*
X65714600Y-153577911D01*
X65714600Y-153762089D01*
X65750532Y-153942729D01*
X65821014Y-154112889D01*
X65923338Y-154266028D01*
X66053572Y-154396262D01*
X66206711Y-154498586D01*
X66376871Y-154569068D01*
X66557511Y-154605000D01*
X66741689Y-154605000D01*
X66922329Y-154569068D01*
X67092489Y-154498586D01*
X67245628Y-154396262D01*
X67375862Y-154266028D01*
X67478186Y-154112889D01*
X67548668Y-153942729D01*
X67584600Y-153762089D01*
X67584600Y-153577911D01*
X67548668Y-153397271D01*
X67478186Y-153227111D01*
X67375862Y-153073972D01*
X67245628Y-152943738D01*
X67092489Y-152841414D01*
X66922329Y-152770932D01*
X66741689Y-152735000D01*
X66557511Y-152735000D01*
X66376871Y-152770932D01*
X66206711Y-152841414D01*
X66053572Y-152943738D01*
X65923338Y-153073972D01*
X65821014Y-153227111D01*
X65750532Y-153397271D01*
X65714600Y-153577911D01*
X47599353Y-153577911D01*
X47666186Y-153477889D01*
X47736668Y-153307729D01*
X47772600Y-153127089D01*
X47772600Y-152942911D01*
X47736668Y-152762271D01*
X47666186Y-152592111D01*
X47622680Y-152527000D01*
X76162320Y-152527000D01*
X118973960Y-180383716D01*
X118987465Y-182963161D01*
X118649750Y-182965000D01*
X118491000Y-183123750D01*
X118491000Y-184323000D01*
X118511000Y-184323000D01*
X118511000Y-184577000D01*
X118491000Y-184577000D01*
X118491000Y-184597000D01*
X118237000Y-184597000D01*
X118237000Y-184577000D01*
X118217000Y-184577000D01*
X118217000Y-184323000D01*
X118237000Y-184323000D01*
X118237000Y-183123750D01*
X118078250Y-182965000D01*
X117514000Y-182961928D01*
X117389518Y-182974188D01*
X117269820Y-183010498D01*
X117159506Y-183069463D01*
X117062815Y-183148815D01*
X116983463Y-183245506D01*
X116924498Y-183355820D01*
X116902487Y-183428380D01*
X116770632Y-183296525D01*
X116527411Y-183134010D01*
X116257158Y-183022068D01*
X115970260Y-182965000D01*
X115677740Y-182965000D01*
X115390842Y-183022068D01*
X115120589Y-183134010D01*
X114877368Y-183296525D01*
X114670525Y-183503368D01*
X114554000Y-183677760D01*
X114437475Y-183503368D01*
X114230632Y-183296525D01*
X113987411Y-183134010D01*
X113717158Y-183022068D01*
X113430260Y-182965000D01*
X113137740Y-182965000D01*
X112850842Y-183022068D01*
X112580589Y-183134010D01*
X112337368Y-183296525D01*
X112130525Y-183503368D01*
X112014000Y-183677760D01*
X111897475Y-183503368D01*
X111690632Y-183296525D01*
X111447411Y-183134010D01*
X111177158Y-183022068D01*
X110890260Y-182965000D01*
X110597740Y-182965000D01*
X110310842Y-183022068D01*
X110040589Y-183134010D01*
X109797368Y-183296525D01*
X109590525Y-183503368D01*
X109474000Y-183677760D01*
X109357475Y-183503368D01*
X109150632Y-183296525D01*
X108907411Y-183134010D01*
X108637158Y-183022068D01*
X108350260Y-182965000D01*
X108057740Y-182965000D01*
X107770842Y-183022068D01*
X107500589Y-183134010D01*
X107257368Y-183296525D01*
X107050525Y-183503368D01*
X106934000Y-183677760D01*
X106817475Y-183503368D01*
X106610632Y-183296525D01*
X106367411Y-183134010D01*
X106097158Y-183022068D01*
X105810260Y-182965000D01*
X105517740Y-182965000D01*
X105230842Y-183022068D01*
X104960589Y-183134010D01*
X104717368Y-183296525D01*
X104510525Y-183503368D01*
X104394000Y-183677760D01*
X104277475Y-183503368D01*
X104070632Y-183296525D01*
X103827411Y-183134010D01*
X103557158Y-183022068D01*
X103270260Y-182965000D01*
X102977740Y-182965000D01*
X102690842Y-183022068D01*
X102420589Y-183134010D01*
X102177368Y-183296525D01*
X101970525Y-183503368D01*
X101854000Y-183677760D01*
X101737475Y-183503368D01*
X101530632Y-183296525D01*
X101287411Y-183134010D01*
X101017158Y-183022068D01*
X100730260Y-182965000D01*
X100437740Y-182965000D01*
X100150842Y-183022068D01*
X99880589Y-183134010D01*
X99637368Y-183296525D01*
X99430525Y-183503368D01*
X99308805Y-183685534D01*
X99239178Y-183568645D01*
X99044269Y-183352412D01*
X98810920Y-183178359D01*
X98548099Y-183053175D01*
X98400890Y-183008524D01*
X98171000Y-183129845D01*
X98171000Y-184323000D01*
X98191000Y-184323000D01*
X98191000Y-184577000D01*
X98171000Y-184577000D01*
X98171000Y-184597000D01*
X97917000Y-184597000D01*
X97917000Y-184577000D01*
X97897000Y-184577000D01*
X97897000Y-184323000D01*
X97917000Y-184323000D01*
X97917000Y-183129845D01*
X97687110Y-183008524D01*
X97539901Y-183053175D01*
X97277080Y-183178359D01*
X97043731Y-183352412D01*
X96848822Y-183568645D01*
X96779195Y-183685534D01*
X96657475Y-183503368D01*
X96450632Y-183296525D01*
X96207411Y-183134010D01*
X95937158Y-183022068D01*
X95650260Y-182965000D01*
X95357740Y-182965000D01*
X95070842Y-183022068D01*
X94800589Y-183134010D01*
X94557368Y-183296525D01*
X94350525Y-183503368D01*
X94234000Y-183677760D01*
X94117475Y-183503368D01*
X93910632Y-183296525D01*
X93667411Y-183134010D01*
X93397158Y-183022068D01*
X93110260Y-182965000D01*
X92817740Y-182965000D01*
X92530842Y-183022068D01*
X92260589Y-183134010D01*
X92017368Y-183296525D01*
X91810525Y-183503368D01*
X91694000Y-183677760D01*
X91577475Y-183503368D01*
X91370632Y-183296525D01*
X91127411Y-183134010D01*
X90857158Y-183022068D01*
X90570260Y-182965000D01*
X90277740Y-182965000D01*
X89990842Y-183022068D01*
X89720589Y-183134010D01*
X89477368Y-183296525D01*
X89270525Y-183503368D01*
X89154000Y-183677760D01*
X89037475Y-183503368D01*
X88830632Y-183296525D01*
X88587411Y-183134010D01*
X88317158Y-183022068D01*
X88030260Y-182965000D01*
X87737740Y-182965000D01*
X87450842Y-183022068D01*
X87180589Y-183134010D01*
X86937368Y-183296525D01*
X86730525Y-183503368D01*
X86614000Y-183677760D01*
X86497475Y-183503368D01*
X86290632Y-183296525D01*
X86047411Y-183134010D01*
X85777158Y-183022068D01*
X85490260Y-182965000D01*
X85197740Y-182965000D01*
X84910842Y-183022068D01*
X84640589Y-183134010D01*
X84397368Y-183296525D01*
X84190525Y-183503368D01*
X84074000Y-183677760D01*
X83957475Y-183503368D01*
X83750632Y-183296525D01*
X83507411Y-183134010D01*
X83237158Y-183022068D01*
X82950260Y-182965000D01*
X82657740Y-182965000D01*
X82370842Y-183022068D01*
X82100589Y-183134010D01*
X81857368Y-183296525D01*
X81650525Y-183503368D01*
X81534000Y-183677760D01*
X81417475Y-183503368D01*
X81210632Y-183296525D01*
X80967411Y-183134010D01*
X80697158Y-183022068D01*
X80410260Y-182965000D01*
X80117740Y-182965000D01*
X79830842Y-183022068D01*
X79560589Y-183134010D01*
X79317368Y-183296525D01*
X79110525Y-183503368D01*
X78994000Y-183677760D01*
X78877475Y-183503368D01*
X78670632Y-183296525D01*
X78427411Y-183134010D01*
X78157158Y-183022068D01*
X77870260Y-182965000D01*
X77577740Y-182965000D01*
X77290842Y-183022068D01*
X77020589Y-183134010D01*
X76777368Y-183296525D01*
X76570525Y-183503368D01*
X76454000Y-183677760D01*
X76337475Y-183503368D01*
X76130632Y-183296525D01*
X75887411Y-183134010D01*
X75617158Y-183022068D01*
X75330260Y-182965000D01*
X75037740Y-182965000D01*
X74750842Y-183022068D01*
X74480589Y-183134010D01*
X74237368Y-183296525D01*
X74030525Y-183503368D01*
X73914000Y-183677760D01*
X73797475Y-183503368D01*
X73590632Y-183296525D01*
X73347411Y-183134010D01*
X73077158Y-183022068D01*
X72790260Y-182965000D01*
X72497740Y-182965000D01*
X72210842Y-183022068D01*
X71940589Y-183134010D01*
X71697368Y-183296525D01*
X71490525Y-183503368D01*
X71374000Y-183677760D01*
X71257475Y-183503368D01*
X71050632Y-183296525D01*
X70807411Y-183134010D01*
X70537158Y-183022068D01*
X70250260Y-182965000D01*
X69957740Y-182965000D01*
X69670842Y-183022068D01*
X69400589Y-183134010D01*
X69157368Y-183296525D01*
X68950525Y-183503368D01*
X68788010Y-183746589D01*
X68676068Y-184016842D01*
X68619000Y-184303740D01*
X68619000Y-184596260D01*
X68676068Y-184883158D01*
X68740620Y-185039000D01*
X67209727Y-185039000D01*
X67106485Y-184789750D01*
X66889251Y-184464636D01*
X66612764Y-184188149D01*
X66287650Y-183970915D01*
X65926403Y-183821282D01*
X65542905Y-183745000D01*
X65151895Y-183745000D01*
X64768397Y-183821282D01*
X64407150Y-183970915D01*
X64082036Y-184188149D01*
X63805549Y-184464636D01*
X63588315Y-184789750D01*
X63485073Y-185039000D01*
X53424368Y-185039000D01*
X52159437Y-182030835D01*
X60837000Y-182030835D01*
X60837000Y-182205165D01*
X60871010Y-182376145D01*
X60937723Y-182537205D01*
X61034576Y-182682155D01*
X61157845Y-182805424D01*
X61302795Y-182902277D01*
X61463855Y-182968990D01*
X61634835Y-183003000D01*
X61809165Y-183003000D01*
X61980145Y-182968990D01*
X62141205Y-182902277D01*
X62286155Y-182805424D01*
X62409424Y-182682155D01*
X62506277Y-182537205D01*
X62572990Y-182376145D01*
X62607000Y-182205165D01*
X62607000Y-182030835D01*
X62572990Y-181859855D01*
X62506277Y-181698795D01*
X62409424Y-181553845D01*
X62286155Y-181430576D01*
X62141205Y-181333723D01*
X61980145Y-181267010D01*
X61809165Y-181233000D01*
X61634835Y-181233000D01*
X61463855Y-181267010D01*
X61302795Y-181333723D01*
X61157845Y-181430576D01*
X61034576Y-181553845D01*
X60937723Y-181698795D01*
X60871010Y-181859855D01*
X60837000Y-182030835D01*
X52159437Y-182030835D01*
X50877755Y-178982835D01*
X58805000Y-178982835D01*
X58805000Y-179157165D01*
X58839010Y-179328145D01*
X58905723Y-179489205D01*
X59002576Y-179634155D01*
X59125845Y-179757424D01*
X59270795Y-179854277D01*
X59431855Y-179920990D01*
X59602835Y-179955000D01*
X59777165Y-179955000D01*
X59948145Y-179920990D01*
X60109205Y-179854277D01*
X60254155Y-179757424D01*
X60377424Y-179634155D01*
X60474277Y-179489205D01*
X60540990Y-179328145D01*
X60575000Y-179157165D01*
X60575000Y-178982835D01*
X60540990Y-178811855D01*
X60474277Y-178650795D01*
X60377424Y-178505845D01*
X60254155Y-178382576D01*
X60109205Y-178285723D01*
X59948145Y-178219010D01*
X59777165Y-178185000D01*
X59602835Y-178185000D01*
X59431855Y-178219010D01*
X59270795Y-178285723D01*
X59125845Y-178382576D01*
X59002576Y-178505845D01*
X58905723Y-178650795D01*
X58839010Y-178811855D01*
X58805000Y-178982835D01*
X50877755Y-178982835D01*
X49468559Y-175631589D01*
X63893000Y-175631589D01*
X63893000Y-175904411D01*
X63946225Y-176171989D01*
X64050629Y-176424043D01*
X64202201Y-176650886D01*
X64395114Y-176843799D01*
X64621957Y-176995371D01*
X64874011Y-177099775D01*
X65141589Y-177153000D01*
X65414411Y-177153000D01*
X65681989Y-177099775D01*
X65934043Y-176995371D01*
X66160886Y-176843799D01*
X66353799Y-176650886D01*
X66505371Y-176424043D01*
X66609775Y-176171989D01*
X66663000Y-175904411D01*
X66663000Y-175631589D01*
X66609775Y-175364011D01*
X66505371Y-175111957D01*
X66353799Y-174885114D01*
X66160886Y-174692201D01*
X65934043Y-174540629D01*
X65681989Y-174436225D01*
X65414411Y-174383000D01*
X65141589Y-174383000D01*
X64874011Y-174436225D01*
X64621957Y-174540629D01*
X64395114Y-174692201D01*
X64202201Y-174885114D01*
X64050629Y-175111957D01*
X63946225Y-175364011D01*
X63893000Y-175631589D01*
X49468559Y-175631589D01*
X47180336Y-170189911D01*
X51211200Y-170189911D01*
X51211200Y-170374089D01*
X51247132Y-170554729D01*
X51317614Y-170724889D01*
X51419938Y-170878028D01*
X51550172Y-171008262D01*
X51703311Y-171110586D01*
X51873471Y-171181068D01*
X52054111Y-171217000D01*
X52238289Y-171217000D01*
X52418929Y-171181068D01*
X52589089Y-171110586D01*
X52742228Y-171008262D01*
X52872462Y-170878028D01*
X52974786Y-170724889D01*
X53045268Y-170554729D01*
X53081200Y-170374089D01*
X53081200Y-170189911D01*
X53045268Y-170009271D01*
X52974786Y-169839111D01*
X52872462Y-169685972D01*
X52742228Y-169555738D01*
X52589089Y-169453414D01*
X52418929Y-169382932D01*
X52238289Y-169347000D01*
X52054111Y-169347000D01*
X51873471Y-169382932D01*
X51703311Y-169453414D01*
X51550172Y-169555738D01*
X51419938Y-169685972D01*
X51317614Y-169839111D01*
X51247132Y-170009271D01*
X51211200Y-170189911D01*
X47180336Y-170189911D01*
X45516706Y-166233589D01*
X52590000Y-166233589D01*
X52590000Y-166506411D01*
X52643225Y-166773989D01*
X52747629Y-167026043D01*
X52899201Y-167252886D01*
X53092114Y-167445799D01*
X53318957Y-167597371D01*
X53571011Y-167701775D01*
X53838589Y-167755000D01*
X54111411Y-167755000D01*
X54378989Y-167701775D01*
X54631043Y-167597371D01*
X54857886Y-167445799D01*
X55050799Y-167252886D01*
X55202371Y-167026043D01*
X55306775Y-166773989D01*
X55360000Y-166506411D01*
X55360000Y-166233589D01*
X57035000Y-166233589D01*
X57035000Y-166506411D01*
X57088225Y-166773989D01*
X57192629Y-167026043D01*
X57344201Y-167252886D01*
X57537114Y-167445799D01*
X57763957Y-167597371D01*
X58016011Y-167701775D01*
X58283589Y-167755000D01*
X58556411Y-167755000D01*
X58823989Y-167701775D01*
X59076043Y-167597371D01*
X59302886Y-167445799D01*
X59495799Y-167252886D01*
X59617842Y-167070235D01*
X93806200Y-167070235D01*
X93806200Y-167244565D01*
X93840210Y-167415545D01*
X93906923Y-167576605D01*
X94003776Y-167721555D01*
X94127045Y-167844824D01*
X94271995Y-167941677D01*
X94433055Y-168008390D01*
X94604035Y-168042400D01*
X94778365Y-168042400D01*
X94949345Y-168008390D01*
X95110405Y-167941677D01*
X95255355Y-167844824D01*
X95378624Y-167721555D01*
X95475477Y-167576605D01*
X95542190Y-167415545D01*
X95576200Y-167244565D01*
X95576200Y-167070235D01*
X95542190Y-166899255D01*
X95475477Y-166738195D01*
X95378624Y-166593245D01*
X95255355Y-166469976D01*
X95110405Y-166373123D01*
X94949345Y-166306410D01*
X94778365Y-166272400D01*
X94604035Y-166272400D01*
X94433055Y-166306410D01*
X94271995Y-166373123D01*
X94127045Y-166469976D01*
X94003776Y-166593245D01*
X93906923Y-166738195D01*
X93840210Y-166899255D01*
X93806200Y-167070235D01*
X59617842Y-167070235D01*
X59647371Y-167026043D01*
X59751775Y-166773989D01*
X59805000Y-166506411D01*
X59805000Y-166233589D01*
X59751775Y-165966011D01*
X59647371Y-165713957D01*
X59495799Y-165487114D01*
X59302886Y-165294201D01*
X59076043Y-165142629D01*
X58823989Y-165038225D01*
X58556411Y-164985000D01*
X58283589Y-164985000D01*
X58016011Y-165038225D01*
X57763957Y-165142629D01*
X57537114Y-165294201D01*
X57344201Y-165487114D01*
X57192629Y-165713957D01*
X57088225Y-165966011D01*
X57035000Y-166233589D01*
X55360000Y-166233589D01*
X55306775Y-165966011D01*
X55202371Y-165713957D01*
X55050799Y-165487114D01*
X54857886Y-165294201D01*
X54631043Y-165142629D01*
X54378989Y-165038225D01*
X54111411Y-164985000D01*
X53838589Y-164985000D01*
X53571011Y-165038225D01*
X53318957Y-165142629D01*
X53092114Y-165294201D01*
X52899201Y-165487114D01*
X52747629Y-165713957D01*
X52643225Y-165966011D01*
X52590000Y-166233589D01*
X45516706Y-166233589D01*
X45339000Y-165810984D01*
X45339000Y-164728911D01*
X55199000Y-164728911D01*
X55199000Y-164913089D01*
X55234932Y-165093729D01*
X55305414Y-165263889D01*
X55407738Y-165417028D01*
X55537972Y-165547262D01*
X55691111Y-165649586D01*
X55861271Y-165720068D01*
X56041911Y-165756000D01*
X56226089Y-165756000D01*
X56406729Y-165720068D01*
X56576889Y-165649586D01*
X56730028Y-165547262D01*
X56860262Y-165417028D01*
X56962586Y-165263889D01*
X57033068Y-165093729D01*
X57069000Y-164913089D01*
X57069000Y-164728911D01*
X57033068Y-164548271D01*
X56962586Y-164378111D01*
X56860262Y-164224972D01*
X56730028Y-164094738D01*
X56576889Y-163992414D01*
X56406729Y-163921932D01*
X56226089Y-163886000D01*
X56041911Y-163886000D01*
X55861271Y-163921932D01*
X55691111Y-163992414D01*
X55537972Y-164094738D01*
X55407738Y-164224972D01*
X55305414Y-164378111D01*
X55234932Y-164548271D01*
X55199000Y-164728911D01*
X45339000Y-164728911D01*
X45339000Y-163058589D01*
X48780000Y-163058589D01*
X48780000Y-163331411D01*
X48833225Y-163598989D01*
X48937629Y-163851043D01*
X49089201Y-164077886D01*
X49282114Y-164270799D01*
X49508957Y-164422371D01*
X49761011Y-164526775D01*
X50028589Y-164580000D01*
X50301411Y-164580000D01*
X50568989Y-164526775D01*
X50821043Y-164422371D01*
X51047886Y-164270799D01*
X51240799Y-164077886D01*
X51392371Y-163851043D01*
X51457590Y-163693589D01*
X60972000Y-163693589D01*
X60972000Y-163966411D01*
X61025225Y-164233989D01*
X61129629Y-164486043D01*
X61281201Y-164712886D01*
X61474114Y-164905799D01*
X61700957Y-165057371D01*
X61953011Y-165161775D01*
X62220589Y-165215000D01*
X62493411Y-165215000D01*
X62760989Y-165161775D01*
X63013043Y-165057371D01*
X63239886Y-164905799D01*
X63432799Y-164712886D01*
X63584371Y-164486043D01*
X63688775Y-164233989D01*
X63742000Y-163966411D01*
X63742000Y-163693589D01*
X63688775Y-163426011D01*
X63584371Y-163173957D01*
X63432799Y-162947114D01*
X63239886Y-162754201D01*
X63013043Y-162602629D01*
X62760989Y-162498225D01*
X62493411Y-162445000D01*
X62220589Y-162445000D01*
X61953011Y-162498225D01*
X61700957Y-162602629D01*
X61474114Y-162754201D01*
X61281201Y-162947114D01*
X61129629Y-163173957D01*
X61025225Y-163426011D01*
X60972000Y-163693589D01*
X51457590Y-163693589D01*
X51496775Y-163598989D01*
X51550000Y-163331411D01*
X51550000Y-163058589D01*
X51496775Y-162791011D01*
X51392371Y-162538957D01*
X51293236Y-162390592D01*
X51303855Y-162394990D01*
X51474835Y-162429000D01*
X51649165Y-162429000D01*
X51820145Y-162394990D01*
X51981205Y-162328277D01*
X52126155Y-162231424D01*
X52164144Y-162193435D01*
X59770200Y-162193435D01*
X59770200Y-162367765D01*
X59804210Y-162538745D01*
X59870923Y-162699805D01*
X59967776Y-162844755D01*
X60091045Y-162968024D01*
X60235995Y-163064877D01*
X60397055Y-163131590D01*
X60568035Y-163165600D01*
X60742365Y-163165600D01*
X60913345Y-163131590D01*
X61074405Y-163064877D01*
X61219355Y-162968024D01*
X61342624Y-162844755D01*
X61439477Y-162699805D01*
X61506190Y-162538745D01*
X61540200Y-162367765D01*
X61540200Y-162193435D01*
X61506190Y-162022455D01*
X61439477Y-161861395D01*
X61342624Y-161716445D01*
X61337014Y-161710835D01*
X84713000Y-161710835D01*
X84713000Y-161885165D01*
X84747010Y-162056145D01*
X84813723Y-162217205D01*
X84910576Y-162362155D01*
X85033845Y-162485424D01*
X85178795Y-162582277D01*
X85339855Y-162648990D01*
X85510835Y-162683000D01*
X85685165Y-162683000D01*
X85856145Y-162648990D01*
X86017205Y-162582277D01*
X86162155Y-162485424D01*
X86285424Y-162362155D01*
X86382277Y-162217205D01*
X86448990Y-162056145D01*
X86483000Y-161885165D01*
X86483000Y-161710835D01*
X86448990Y-161539855D01*
X86382277Y-161378795D01*
X86285424Y-161233845D01*
X86162155Y-161110576D01*
X86017205Y-161013723D01*
X85856145Y-160947010D01*
X85685165Y-160913000D01*
X85510835Y-160913000D01*
X85339855Y-160947010D01*
X85178795Y-161013723D01*
X85033845Y-161110576D01*
X84910576Y-161233845D01*
X84813723Y-161378795D01*
X84747010Y-161539855D01*
X84713000Y-161710835D01*
X61337014Y-161710835D01*
X61219355Y-161593176D01*
X61074405Y-161496323D01*
X60913345Y-161429610D01*
X60742365Y-161395600D01*
X60568035Y-161395600D01*
X60397055Y-161429610D01*
X60235995Y-161496323D01*
X60091045Y-161593176D01*
X59967776Y-161716445D01*
X59870923Y-161861395D01*
X59804210Y-162022455D01*
X59770200Y-162193435D01*
X52164144Y-162193435D01*
X52249424Y-162108155D01*
X52346277Y-161963205D01*
X52412990Y-161802145D01*
X52447000Y-161631165D01*
X52447000Y-161456835D01*
X52412990Y-161285855D01*
X52346277Y-161124795D01*
X52249424Y-160979845D01*
X52126155Y-160856576D01*
X51981205Y-160759723D01*
X51820145Y-160693010D01*
X51649165Y-160659000D01*
X51474835Y-160659000D01*
X51303855Y-160693010D01*
X51142795Y-160759723D01*
X50997845Y-160856576D01*
X50874576Y-160979845D01*
X50777723Y-161124795D01*
X50711010Y-161285855D01*
X50677000Y-161456835D01*
X50677000Y-161631165D01*
X50711010Y-161802145D01*
X50770963Y-161946885D01*
X50568989Y-161863225D01*
X50301411Y-161810000D01*
X50028589Y-161810000D01*
X49761011Y-161863225D01*
X49508957Y-161967629D01*
X49282114Y-162119201D01*
X49089201Y-162312114D01*
X48937629Y-162538957D01*
X48833225Y-162791011D01*
X48780000Y-163058589D01*
X45339000Y-163058589D01*
X45339000Y-161413889D01*
X45376995Y-161439277D01*
X45538055Y-161505990D01*
X45709035Y-161540000D01*
X45883365Y-161540000D01*
X46054345Y-161505990D01*
X46215405Y-161439277D01*
X46360355Y-161342424D01*
X46483624Y-161219155D01*
X46580477Y-161074205D01*
X46647190Y-160913145D01*
X46681200Y-160742165D01*
X46681200Y-160567835D01*
X46647190Y-160396855D01*
X46580477Y-160235795D01*
X46483624Y-160090845D01*
X46360355Y-159967576D01*
X46215405Y-159870723D01*
X46054345Y-159804010D01*
X45883365Y-159770000D01*
X45709035Y-159770000D01*
X45538055Y-159804010D01*
X45376995Y-159870723D01*
X45339000Y-159896111D01*
X45339000Y-158784911D01*
X55199000Y-158784911D01*
X55199000Y-158969089D01*
X55234932Y-159149729D01*
X55305414Y-159319889D01*
X55407738Y-159473028D01*
X55537972Y-159603262D01*
X55691111Y-159705586D01*
X55861271Y-159776068D01*
X56041911Y-159812000D01*
X56226089Y-159812000D01*
X56406729Y-159776068D01*
X56576889Y-159705586D01*
X56730028Y-159603262D01*
X56860262Y-159473028D01*
X56962586Y-159319889D01*
X57033068Y-159149729D01*
X57069000Y-158969089D01*
X57069000Y-158784911D01*
X57043738Y-158657911D01*
X65511400Y-158657911D01*
X65511400Y-158842089D01*
X65547332Y-159022729D01*
X65617814Y-159192889D01*
X65720138Y-159346028D01*
X65850372Y-159476262D01*
X66003511Y-159578586D01*
X66173671Y-159649068D01*
X66354311Y-159685000D01*
X66538489Y-159685000D01*
X66719129Y-159649068D01*
X66889289Y-159578586D01*
X67042428Y-159476262D01*
X67172662Y-159346028D01*
X67274986Y-159192889D01*
X67345468Y-159022729D01*
X67381400Y-158842089D01*
X67381400Y-158657911D01*
X67345468Y-158477271D01*
X67274986Y-158307111D01*
X67172662Y-158153972D01*
X67042428Y-158023738D01*
X66889289Y-157921414D01*
X66719129Y-157850932D01*
X66538489Y-157815000D01*
X66354311Y-157815000D01*
X66173671Y-157850932D01*
X66003511Y-157921414D01*
X65850372Y-158023738D01*
X65720138Y-158153972D01*
X65617814Y-158307111D01*
X65547332Y-158477271D01*
X65511400Y-158657911D01*
X57043738Y-158657911D01*
X57033068Y-158604271D01*
X56962586Y-158434111D01*
X56860262Y-158280972D01*
X56730028Y-158150738D01*
X56576889Y-158048414D01*
X56406729Y-157977932D01*
X56226089Y-157942000D01*
X56041911Y-157942000D01*
X55861271Y-157977932D01*
X55691111Y-158048414D01*
X55537972Y-158150738D01*
X55407738Y-158280972D01*
X55305414Y-158434111D01*
X55234932Y-158604271D01*
X55199000Y-158784911D01*
X45339000Y-158784911D01*
X45339000Y-152527000D01*
X46052520Y-152527000D01*
X46009014Y-152592111D01*
G37*
G04 #@! TD.AperFunction*
G04 #@! TD*
D19*
G04 #@! TO.N,+5V*
X142113000Y-162500372D02*
X128696878Y-173638285D01*
X128679374Y-173655989D01*
X128665659Y-173676767D01*
X128656262Y-173699822D01*
X128651000Y-173736000D01*
X128651000Y-178181000D01*
X120523000Y-178181000D01*
X120523000Y-155578432D01*
X120591212Y-155592000D01*
X120814788Y-155592000D01*
X121034067Y-155548383D01*
X121240624Y-155462824D01*
X121338000Y-155397759D01*
X121435376Y-155462824D01*
X121641933Y-155548383D01*
X121861212Y-155592000D01*
X122084788Y-155592000D01*
X122304067Y-155548383D01*
X122510624Y-155462824D01*
X122608000Y-155397759D01*
X122705376Y-155462824D01*
X122911933Y-155548383D01*
X123131212Y-155592000D01*
X123354788Y-155592000D01*
X123574067Y-155548383D01*
X123780624Y-155462824D01*
X123878000Y-155397759D01*
X123975376Y-155462824D01*
X124181933Y-155548383D01*
X124401212Y-155592000D01*
X124624788Y-155592000D01*
X124844067Y-155548383D01*
X125050624Y-155462824D01*
X125148000Y-155397759D01*
X125245376Y-155462824D01*
X125451933Y-155548383D01*
X125671212Y-155592000D01*
X125894788Y-155592000D01*
X126114067Y-155548383D01*
X126320624Y-155462824D01*
X126418000Y-155397759D01*
X126515376Y-155462824D01*
X126721933Y-155548383D01*
X126941212Y-155592000D01*
X127164788Y-155592000D01*
X127384067Y-155548383D01*
X127590624Y-155462824D01*
X127688000Y-155397759D01*
X127785376Y-155462824D01*
X127991933Y-155548383D01*
X128211212Y-155592000D01*
X128434788Y-155592000D01*
X128654067Y-155548383D01*
X128860624Y-155462824D01*
X128958000Y-155397759D01*
X129055376Y-155462824D01*
X129261933Y-155548383D01*
X129481212Y-155592000D01*
X129704788Y-155592000D01*
X129924067Y-155548383D01*
X130130624Y-155462824D01*
X130228000Y-155397759D01*
X130325376Y-155462824D01*
X130531933Y-155548383D01*
X130751212Y-155592000D01*
X130974788Y-155592000D01*
X131194067Y-155548383D01*
X131400624Y-155462824D01*
X131498000Y-155397759D01*
X131595376Y-155462824D01*
X131801933Y-155548383D01*
X132021212Y-155592000D01*
X132244788Y-155592000D01*
X132464067Y-155548383D01*
X132670624Y-155462824D01*
X132768000Y-155397759D01*
X132865376Y-155462824D01*
X133071933Y-155548383D01*
X133291212Y-155592000D01*
X133514788Y-155592000D01*
X133734067Y-155548383D01*
X133940624Y-155462824D01*
X134038000Y-155397759D01*
X134135376Y-155462824D01*
X134341933Y-155548383D01*
X134561212Y-155592000D01*
X134784788Y-155592000D01*
X135004067Y-155548383D01*
X135210624Y-155462824D01*
X135308000Y-155397759D01*
X135405376Y-155462824D01*
X135611933Y-155548383D01*
X135831212Y-155592000D01*
X136054788Y-155592000D01*
X136274067Y-155548383D01*
X136480624Y-155462824D01*
X136634930Y-155359720D01*
X136649550Y-155448588D01*
X136853826Y-155539458D01*
X137071905Y-155588731D01*
X137295406Y-155594511D01*
X137515740Y-155556577D01*
X137724440Y-155476387D01*
X137776450Y-155448588D01*
X137791070Y-155359720D01*
X137945376Y-155462824D01*
X138151933Y-155548383D01*
X138371212Y-155592000D01*
X138594788Y-155592000D01*
X138814067Y-155548383D01*
X139020624Y-155462824D01*
X139206520Y-155338612D01*
X139364612Y-155180520D01*
X139488824Y-154994624D01*
X139574383Y-154788067D01*
X139618000Y-154568788D01*
X139618000Y-154345212D01*
X139574383Y-154125933D01*
X139488824Y-153919376D01*
X139364612Y-153733480D01*
X139206520Y-153575388D01*
X139020624Y-153451176D01*
X138814067Y-153365617D01*
X138594788Y-153322000D01*
X138371212Y-153322000D01*
X138151933Y-153365617D01*
X137945376Y-153451176D01*
X137791070Y-153554280D01*
X137776450Y-153465412D01*
X137572174Y-153374542D01*
X137354095Y-153325269D01*
X137130594Y-153319489D01*
X136910260Y-153357423D01*
X136701560Y-153437613D01*
X136649550Y-153465412D01*
X136634930Y-153554280D01*
X136480624Y-153451176D01*
X136274067Y-153365617D01*
X136054788Y-153322000D01*
X135831212Y-153322000D01*
X135611933Y-153365617D01*
X135405376Y-153451176D01*
X135308000Y-153516241D01*
X135210624Y-153451176D01*
X135004067Y-153365617D01*
X134784788Y-153322000D01*
X134561212Y-153322000D01*
X134341933Y-153365617D01*
X134135376Y-153451176D01*
X134038000Y-153516241D01*
X133940624Y-153451176D01*
X133734067Y-153365617D01*
X133514788Y-153322000D01*
X133291212Y-153322000D01*
X133071933Y-153365617D01*
X132865376Y-153451176D01*
X132768000Y-153516241D01*
X132670624Y-153451176D01*
X132464067Y-153365617D01*
X132244788Y-153322000D01*
X132021212Y-153322000D01*
X131801933Y-153365617D01*
X131595376Y-153451176D01*
X131498000Y-153516241D01*
X131400624Y-153451176D01*
X131194067Y-153365617D01*
X130974788Y-153322000D01*
X130751212Y-153322000D01*
X130531933Y-153365617D01*
X130325376Y-153451176D01*
X130228000Y-153516241D01*
X130130624Y-153451176D01*
X129924067Y-153365617D01*
X129704788Y-153322000D01*
X129481212Y-153322000D01*
X129261933Y-153365617D01*
X129055376Y-153451176D01*
X128958000Y-153516241D01*
X128860624Y-153451176D01*
X128654067Y-153365617D01*
X128434788Y-153322000D01*
X128211212Y-153322000D01*
X127991933Y-153365617D01*
X127785376Y-153451176D01*
X127688000Y-153516241D01*
X127590624Y-153451176D01*
X127384067Y-153365617D01*
X127164788Y-153322000D01*
X126941212Y-153322000D01*
X126721933Y-153365617D01*
X126515376Y-153451176D01*
X126418000Y-153516241D01*
X126320624Y-153451176D01*
X126114067Y-153365617D01*
X125894788Y-153322000D01*
X125671212Y-153322000D01*
X125451933Y-153365617D01*
X125245376Y-153451176D01*
X125148000Y-153516241D01*
X125050624Y-153451176D01*
X124844067Y-153365617D01*
X124624788Y-153322000D01*
X124401212Y-153322000D01*
X124181933Y-153365617D01*
X123975376Y-153451176D01*
X123878000Y-153516241D01*
X123780624Y-153451176D01*
X123574067Y-153365617D01*
X123354788Y-153322000D01*
X123131212Y-153322000D01*
X122911933Y-153365617D01*
X122705376Y-153451176D01*
X122608000Y-153516241D01*
X122510624Y-153451176D01*
X122304067Y-153365617D01*
X122084788Y-153322000D01*
X121861212Y-153322000D01*
X121641933Y-153365617D01*
X121435376Y-153451176D01*
X121338000Y-153516241D01*
X121240624Y-153451176D01*
X121034067Y-153365617D01*
X120814788Y-153322000D01*
X120591212Y-153322000D01*
X120523000Y-153335568D01*
X120523000Y-130178432D01*
X120591212Y-130192000D01*
X120814788Y-130192000D01*
X121034067Y-130148383D01*
X121240624Y-130062824D01*
X121338000Y-129997759D01*
X121435376Y-130062824D01*
X121641933Y-130148383D01*
X121861212Y-130192000D01*
X122084788Y-130192000D01*
X122304067Y-130148383D01*
X122510624Y-130062824D01*
X122608000Y-129997759D01*
X122705376Y-130062824D01*
X122911933Y-130148383D01*
X123131212Y-130192000D01*
X123354788Y-130192000D01*
X123574067Y-130148383D01*
X123780624Y-130062824D01*
X123878000Y-129997759D01*
X123975376Y-130062824D01*
X124181933Y-130148383D01*
X124401212Y-130192000D01*
X124624788Y-130192000D01*
X124844067Y-130148383D01*
X125050624Y-130062824D01*
X125148000Y-129997759D01*
X125245376Y-130062824D01*
X125451933Y-130148383D01*
X125671212Y-130192000D01*
X125894788Y-130192000D01*
X126114067Y-130148383D01*
X126320624Y-130062824D01*
X126418000Y-129997759D01*
X126515376Y-130062824D01*
X126721933Y-130148383D01*
X126941212Y-130192000D01*
X127164788Y-130192000D01*
X127384067Y-130148383D01*
X127590624Y-130062824D01*
X127688000Y-129997759D01*
X127785376Y-130062824D01*
X127991933Y-130148383D01*
X128211212Y-130192000D01*
X128434788Y-130192000D01*
X128654067Y-130148383D01*
X128860624Y-130062824D01*
X128958000Y-129997759D01*
X129055376Y-130062824D01*
X129261933Y-130148383D01*
X129481212Y-130192000D01*
X129704788Y-130192000D01*
X129924067Y-130148383D01*
X130130624Y-130062824D01*
X130228000Y-129997759D01*
X130325376Y-130062824D01*
X130531933Y-130148383D01*
X130751212Y-130192000D01*
X130974788Y-130192000D01*
X131194067Y-130148383D01*
X131400624Y-130062824D01*
X131498000Y-129997759D01*
X131595376Y-130062824D01*
X131801933Y-130148383D01*
X132021212Y-130192000D01*
X132244788Y-130192000D01*
X132464067Y-130148383D01*
X132670624Y-130062824D01*
X132768000Y-129997759D01*
X132865376Y-130062824D01*
X133071933Y-130148383D01*
X133291212Y-130192000D01*
X133514788Y-130192000D01*
X133734067Y-130148383D01*
X133940624Y-130062824D01*
X134038000Y-129997759D01*
X134135376Y-130062824D01*
X134341933Y-130148383D01*
X134561212Y-130192000D01*
X134784788Y-130192000D01*
X135004067Y-130148383D01*
X135210624Y-130062824D01*
X135308000Y-129997759D01*
X135405376Y-130062824D01*
X135611933Y-130148383D01*
X135831212Y-130192000D01*
X136054788Y-130192000D01*
X136274067Y-130148383D01*
X136480624Y-130062824D01*
X136634930Y-129959720D01*
X136649550Y-130048588D01*
X136853826Y-130139458D01*
X137071905Y-130188731D01*
X137295406Y-130194511D01*
X137515740Y-130156577D01*
X137724440Y-130076387D01*
X137776450Y-130048588D01*
X137791070Y-129959720D01*
X137945376Y-130062824D01*
X138151933Y-130148383D01*
X138371212Y-130192000D01*
X138594788Y-130192000D01*
X138814067Y-130148383D01*
X139020624Y-130062824D01*
X139206520Y-129938612D01*
X139364612Y-129780520D01*
X139488824Y-129594624D01*
X139574383Y-129388067D01*
X139618000Y-129168788D01*
X139618000Y-128945212D01*
X139574383Y-128725933D01*
X139488824Y-128519376D01*
X139364612Y-128333480D01*
X139206520Y-128175388D01*
X139020624Y-128051176D01*
X138814067Y-127965617D01*
X138594788Y-127922000D01*
X138371212Y-127922000D01*
X138151933Y-127965617D01*
X137945376Y-128051176D01*
X137791070Y-128154280D01*
X137776450Y-128065412D01*
X137572174Y-127974542D01*
X137354095Y-127925269D01*
X137130594Y-127919489D01*
X136910260Y-127957423D01*
X136701560Y-128037613D01*
X136649550Y-128065412D01*
X136634930Y-128154280D01*
X136480624Y-128051176D01*
X136274067Y-127965617D01*
X136054788Y-127922000D01*
X135831212Y-127922000D01*
X135611933Y-127965617D01*
X135405376Y-128051176D01*
X135308000Y-128116241D01*
X135210624Y-128051176D01*
X135004067Y-127965617D01*
X134784788Y-127922000D01*
X134561212Y-127922000D01*
X134341933Y-127965617D01*
X134135376Y-128051176D01*
X134038000Y-128116241D01*
X133940624Y-128051176D01*
X133734067Y-127965617D01*
X133514788Y-127922000D01*
X133291212Y-127922000D01*
X133071933Y-127965617D01*
X132865376Y-128051176D01*
X132768000Y-128116241D01*
X132670624Y-128051176D01*
X132464067Y-127965617D01*
X132244788Y-127922000D01*
X132021212Y-127922000D01*
X131801933Y-127965617D01*
X131595376Y-128051176D01*
X131498000Y-128116241D01*
X131400624Y-128051176D01*
X131194067Y-127965617D01*
X130974788Y-127922000D01*
X130751212Y-127922000D01*
X130531933Y-127965617D01*
X130325376Y-128051176D01*
X130228000Y-128116241D01*
X130130624Y-128051176D01*
X129924067Y-127965617D01*
X129704788Y-127922000D01*
X129481212Y-127922000D01*
X129261933Y-127965617D01*
X129055376Y-128051176D01*
X128958000Y-128116241D01*
X128860624Y-128051176D01*
X128654067Y-127965617D01*
X128434788Y-127922000D01*
X128211212Y-127922000D01*
X127991933Y-127965617D01*
X127785376Y-128051176D01*
X127688000Y-128116241D01*
X127590624Y-128051176D01*
X127384067Y-127965617D01*
X127164788Y-127922000D01*
X126941212Y-127922000D01*
X126721933Y-127965617D01*
X126515376Y-128051176D01*
X126418000Y-128116241D01*
X126320624Y-128051176D01*
X126114067Y-127965617D01*
X125894788Y-127922000D01*
X125671212Y-127922000D01*
X125451933Y-127965617D01*
X125245376Y-128051176D01*
X125148000Y-128116241D01*
X125050624Y-128051176D01*
X124844067Y-127965617D01*
X124624788Y-127922000D01*
X124401212Y-127922000D01*
X124181933Y-127965617D01*
X123975376Y-128051176D01*
X123878000Y-128116241D01*
X123780624Y-128051176D01*
X123574067Y-127965617D01*
X123354788Y-127922000D01*
X123131212Y-127922000D01*
X122911933Y-127965617D01*
X122705376Y-128051176D01*
X122608000Y-128116241D01*
X122510624Y-128051176D01*
X122304067Y-127965617D01*
X122084788Y-127922000D01*
X121861212Y-127922000D01*
X121641933Y-127965617D01*
X121435376Y-128051176D01*
X121338000Y-128116241D01*
X121240624Y-128051176D01*
X121034067Y-127965617D01*
X120814788Y-127922000D01*
X120591212Y-127922000D01*
X120523000Y-127935568D01*
X120523000Y-108709630D01*
X120589212Y-108722800D01*
X120812788Y-108722800D01*
X121032067Y-108679183D01*
X121238624Y-108593624D01*
X121336000Y-108528559D01*
X121433376Y-108593624D01*
X121639933Y-108679183D01*
X121859212Y-108722800D01*
X122082788Y-108722800D01*
X122302067Y-108679183D01*
X122508624Y-108593624D01*
X122606000Y-108528559D01*
X122703376Y-108593624D01*
X122909933Y-108679183D01*
X123129212Y-108722800D01*
X123352788Y-108722800D01*
X123572067Y-108679183D01*
X123778624Y-108593624D01*
X123876000Y-108528559D01*
X123973376Y-108593624D01*
X124179933Y-108679183D01*
X124399212Y-108722800D01*
X124622788Y-108722800D01*
X124842067Y-108679183D01*
X125048624Y-108593624D01*
X125146000Y-108528559D01*
X125243376Y-108593624D01*
X125449933Y-108679183D01*
X125669212Y-108722800D01*
X125892788Y-108722800D01*
X126112067Y-108679183D01*
X126318624Y-108593624D01*
X126416000Y-108528559D01*
X126513376Y-108593624D01*
X126719933Y-108679183D01*
X126939212Y-108722800D01*
X127162788Y-108722800D01*
X127382067Y-108679183D01*
X127588624Y-108593624D01*
X127686000Y-108528559D01*
X127783376Y-108593624D01*
X127989933Y-108679183D01*
X128209212Y-108722800D01*
X128432788Y-108722800D01*
X128652067Y-108679183D01*
X128858624Y-108593624D01*
X128956000Y-108528559D01*
X129053376Y-108593624D01*
X129259933Y-108679183D01*
X129479212Y-108722800D01*
X129702788Y-108722800D01*
X129922067Y-108679183D01*
X130128624Y-108593624D01*
X130226000Y-108528559D01*
X130323376Y-108593624D01*
X130529933Y-108679183D01*
X130749212Y-108722800D01*
X130972788Y-108722800D01*
X131192067Y-108679183D01*
X131398624Y-108593624D01*
X131496000Y-108528559D01*
X131593376Y-108593624D01*
X131799933Y-108679183D01*
X132019212Y-108722800D01*
X132242788Y-108722800D01*
X132462067Y-108679183D01*
X132668624Y-108593624D01*
X132766000Y-108528559D01*
X132863376Y-108593624D01*
X133069933Y-108679183D01*
X133289212Y-108722800D01*
X133512788Y-108722800D01*
X133732067Y-108679183D01*
X133938624Y-108593624D01*
X134036000Y-108528559D01*
X134133376Y-108593624D01*
X134339933Y-108679183D01*
X134559212Y-108722800D01*
X134782788Y-108722800D01*
X135002067Y-108679183D01*
X135208624Y-108593624D01*
X135306000Y-108528559D01*
X135403376Y-108593624D01*
X135609933Y-108679183D01*
X135829212Y-108722800D01*
X136052788Y-108722800D01*
X136272067Y-108679183D01*
X136478624Y-108593624D01*
X136632930Y-108490520D01*
X136647550Y-108579388D01*
X136851826Y-108670258D01*
X137069905Y-108719531D01*
X137293406Y-108725311D01*
X137513740Y-108687377D01*
X137722440Y-108607187D01*
X137774450Y-108579388D01*
X137789070Y-108490520D01*
X137943376Y-108593624D01*
X138149933Y-108679183D01*
X138369212Y-108722800D01*
X138592788Y-108722800D01*
X138812067Y-108679183D01*
X139018624Y-108593624D01*
X139204520Y-108469412D01*
X139362612Y-108311320D01*
X139486824Y-108125424D01*
X139572383Y-107918867D01*
X139616000Y-107699588D01*
X139616000Y-107476012D01*
X139572383Y-107256733D01*
X139486824Y-107050176D01*
X139362612Y-106864280D01*
X139204520Y-106706188D01*
X139018624Y-106581976D01*
X138812067Y-106496417D01*
X138592788Y-106452800D01*
X138369212Y-106452800D01*
X138149933Y-106496417D01*
X137943376Y-106581976D01*
X137789070Y-106685080D01*
X137774450Y-106596212D01*
X137570174Y-106505342D01*
X137352095Y-106456069D01*
X137128594Y-106450289D01*
X136908260Y-106488223D01*
X136699560Y-106568413D01*
X136647550Y-106596212D01*
X136632930Y-106685080D01*
X136478624Y-106581976D01*
X136272067Y-106496417D01*
X136052788Y-106452800D01*
X135829212Y-106452800D01*
X135609933Y-106496417D01*
X135403376Y-106581976D01*
X135306000Y-106647041D01*
X135208624Y-106581976D01*
X135002067Y-106496417D01*
X134782788Y-106452800D01*
X134559212Y-106452800D01*
X134339933Y-106496417D01*
X134133376Y-106581976D01*
X134036000Y-106647041D01*
X133938624Y-106581976D01*
X133732067Y-106496417D01*
X133512788Y-106452800D01*
X133289212Y-106452800D01*
X133069933Y-106496417D01*
X132863376Y-106581976D01*
X132766000Y-106647041D01*
X132668624Y-106581976D01*
X132462067Y-106496417D01*
X132242788Y-106452800D01*
X132019212Y-106452800D01*
X131799933Y-106496417D01*
X131593376Y-106581976D01*
X131496000Y-106647041D01*
X131398624Y-106581976D01*
X131192067Y-106496417D01*
X130972788Y-106452800D01*
X130749212Y-106452800D01*
X130529933Y-106496417D01*
X130323376Y-106581976D01*
X130226000Y-106647041D01*
X130128624Y-106581976D01*
X129922067Y-106496417D01*
X129702788Y-106452800D01*
X129479212Y-106452800D01*
X129259933Y-106496417D01*
X129053376Y-106581976D01*
X128956000Y-106647041D01*
X128858624Y-106581976D01*
X128652067Y-106496417D01*
X128432788Y-106452800D01*
X128209212Y-106452800D01*
X127989933Y-106496417D01*
X127783376Y-106581976D01*
X127686000Y-106647041D01*
X127588624Y-106581976D01*
X127382067Y-106496417D01*
X127162788Y-106452800D01*
X126939212Y-106452800D01*
X126719933Y-106496417D01*
X126513376Y-106581976D01*
X126416000Y-106647041D01*
X126318624Y-106581976D01*
X126112067Y-106496417D01*
X125892788Y-106452800D01*
X125669212Y-106452800D01*
X125449933Y-106496417D01*
X125243376Y-106581976D01*
X125146000Y-106647041D01*
X125048624Y-106581976D01*
X124842067Y-106496417D01*
X124622788Y-106452800D01*
X124399212Y-106452800D01*
X124179933Y-106496417D01*
X123973376Y-106581976D01*
X123876000Y-106647041D01*
X123778624Y-106581976D01*
X123572067Y-106496417D01*
X123352788Y-106452800D01*
X123129212Y-106452800D01*
X122909933Y-106496417D01*
X122703376Y-106581976D01*
X122606000Y-106647041D01*
X122508624Y-106581976D01*
X122302067Y-106496417D01*
X122082788Y-106452800D01*
X121859212Y-106452800D01*
X121639933Y-106496417D01*
X121433376Y-106581976D01*
X121336000Y-106647041D01*
X121238624Y-106581976D01*
X121032067Y-106496417D01*
X120812788Y-106452800D01*
X120589212Y-106452800D01*
X120523000Y-106465970D01*
X120523000Y-83309630D01*
X120589212Y-83322800D01*
X120812788Y-83322800D01*
X121032067Y-83279183D01*
X121238624Y-83193624D01*
X121336000Y-83128559D01*
X121433376Y-83193624D01*
X121639933Y-83279183D01*
X121859212Y-83322800D01*
X122082788Y-83322800D01*
X122302067Y-83279183D01*
X122508624Y-83193624D01*
X122606000Y-83128559D01*
X122703376Y-83193624D01*
X122909933Y-83279183D01*
X123129212Y-83322800D01*
X123352788Y-83322800D01*
X123572067Y-83279183D01*
X123778624Y-83193624D01*
X123876000Y-83128559D01*
X123973376Y-83193624D01*
X124179933Y-83279183D01*
X124399212Y-83322800D01*
X124622788Y-83322800D01*
X124842067Y-83279183D01*
X125048624Y-83193624D01*
X125146000Y-83128559D01*
X125243376Y-83193624D01*
X125449933Y-83279183D01*
X125669212Y-83322800D01*
X125892788Y-83322800D01*
X126112067Y-83279183D01*
X126318624Y-83193624D01*
X126416000Y-83128559D01*
X126513376Y-83193624D01*
X126719933Y-83279183D01*
X126939212Y-83322800D01*
X127162788Y-83322800D01*
X127382067Y-83279183D01*
X127588624Y-83193624D01*
X127686000Y-83128559D01*
X127783376Y-83193624D01*
X127989933Y-83279183D01*
X128209212Y-83322800D01*
X128432788Y-83322800D01*
X128652067Y-83279183D01*
X128858624Y-83193624D01*
X128956000Y-83128559D01*
X129053376Y-83193624D01*
X129259933Y-83279183D01*
X129479212Y-83322800D01*
X129702788Y-83322800D01*
X129922067Y-83279183D01*
X130128624Y-83193624D01*
X130226000Y-83128559D01*
X130323376Y-83193624D01*
X130529933Y-83279183D01*
X130749212Y-83322800D01*
X130972788Y-83322800D01*
X131192067Y-83279183D01*
X131398624Y-83193624D01*
X131496000Y-83128559D01*
X131593376Y-83193624D01*
X131799933Y-83279183D01*
X132019212Y-83322800D01*
X132242788Y-83322800D01*
X132462067Y-83279183D01*
X132668624Y-83193624D01*
X132766000Y-83128559D01*
X132863376Y-83193624D01*
X133069933Y-83279183D01*
X133289212Y-83322800D01*
X133512788Y-83322800D01*
X133732067Y-83279183D01*
X133938624Y-83193624D01*
X134036000Y-83128559D01*
X134133376Y-83193624D01*
X134339933Y-83279183D01*
X134559212Y-83322800D01*
X134782788Y-83322800D01*
X135002067Y-83279183D01*
X135208624Y-83193624D01*
X135306000Y-83128559D01*
X135403376Y-83193624D01*
X135609933Y-83279183D01*
X135829212Y-83322800D01*
X136052788Y-83322800D01*
X136272067Y-83279183D01*
X136478624Y-83193624D01*
X136632930Y-83090520D01*
X136647550Y-83179388D01*
X136851826Y-83270258D01*
X137069905Y-83319531D01*
X137293406Y-83325311D01*
X137513740Y-83287377D01*
X137722440Y-83207187D01*
X137774450Y-83179388D01*
X137789070Y-83090520D01*
X137943376Y-83193624D01*
X138149933Y-83279183D01*
X138369212Y-83322800D01*
X138592788Y-83322800D01*
X138812067Y-83279183D01*
X139018624Y-83193624D01*
X139204520Y-83069412D01*
X139362612Y-82911320D01*
X139486824Y-82725424D01*
X139572383Y-82518867D01*
X139616000Y-82299588D01*
X139616000Y-82076012D01*
X139572383Y-81856733D01*
X139486824Y-81650176D01*
X139362612Y-81464280D01*
X139204520Y-81306188D01*
X139018624Y-81181976D01*
X138812067Y-81096417D01*
X138592788Y-81052800D01*
X138369212Y-81052800D01*
X138149933Y-81096417D01*
X137943376Y-81181976D01*
X137789070Y-81285080D01*
X137774450Y-81196212D01*
X137570174Y-81105342D01*
X137352095Y-81056069D01*
X137128594Y-81050289D01*
X136908260Y-81088223D01*
X136699560Y-81168413D01*
X136647550Y-81196212D01*
X136632930Y-81285080D01*
X136478624Y-81181976D01*
X136272067Y-81096417D01*
X136052788Y-81052800D01*
X135829212Y-81052800D01*
X135609933Y-81096417D01*
X135403376Y-81181976D01*
X135306000Y-81247041D01*
X135208624Y-81181976D01*
X135002067Y-81096417D01*
X134782788Y-81052800D01*
X134559212Y-81052800D01*
X134339933Y-81096417D01*
X134133376Y-81181976D01*
X134036000Y-81247041D01*
X133938624Y-81181976D01*
X133732067Y-81096417D01*
X133512788Y-81052800D01*
X133289212Y-81052800D01*
X133069933Y-81096417D01*
X132863376Y-81181976D01*
X132766000Y-81247041D01*
X132668624Y-81181976D01*
X132462067Y-81096417D01*
X132242788Y-81052800D01*
X132019212Y-81052800D01*
X131799933Y-81096417D01*
X131593376Y-81181976D01*
X131496000Y-81247041D01*
X131398624Y-81181976D01*
X131192067Y-81096417D01*
X130972788Y-81052800D01*
X130749212Y-81052800D01*
X130529933Y-81096417D01*
X130323376Y-81181976D01*
X130226000Y-81247041D01*
X130128624Y-81181976D01*
X129922067Y-81096417D01*
X129702788Y-81052800D01*
X129479212Y-81052800D01*
X129259933Y-81096417D01*
X129053376Y-81181976D01*
X128956000Y-81247041D01*
X128858624Y-81181976D01*
X128652067Y-81096417D01*
X128432788Y-81052800D01*
X128209212Y-81052800D01*
X127989933Y-81096417D01*
X127783376Y-81181976D01*
X127686000Y-81247041D01*
X127588624Y-81181976D01*
X127382067Y-81096417D01*
X127162788Y-81052800D01*
X126939212Y-81052800D01*
X126719933Y-81096417D01*
X126513376Y-81181976D01*
X126416000Y-81247041D01*
X126318624Y-81181976D01*
X126112067Y-81096417D01*
X125892788Y-81052800D01*
X125669212Y-81052800D01*
X125449933Y-81096417D01*
X125243376Y-81181976D01*
X125146000Y-81247041D01*
X125048624Y-81181976D01*
X124842067Y-81096417D01*
X124622788Y-81052800D01*
X124399212Y-81052800D01*
X124179933Y-81096417D01*
X123973376Y-81181976D01*
X123876000Y-81247041D01*
X123778624Y-81181976D01*
X123572067Y-81096417D01*
X123352788Y-81052800D01*
X123129212Y-81052800D01*
X122909933Y-81096417D01*
X122703376Y-81181976D01*
X122606000Y-81247041D01*
X122508624Y-81181976D01*
X122302067Y-81096417D01*
X122082788Y-81052800D01*
X121859212Y-81052800D01*
X121639933Y-81096417D01*
X121433376Y-81181976D01*
X121336000Y-81247041D01*
X121238624Y-81181976D01*
X121032067Y-81096417D01*
X120812788Y-81052800D01*
X120589212Y-81052800D01*
X120523000Y-81065970D01*
X120523000Y-78867000D01*
X142113000Y-78867000D01*
X142113000Y-162500372D01*
G04 #@! TA.AperFunction,Conductor*
D20*
G36*
X142113000Y-162500372D02*
G01*
X128696878Y-173638285D01*
X128679374Y-173655989D01*
X128665659Y-173676767D01*
X128656262Y-173699822D01*
X128651000Y-173736000D01*
X128651000Y-178181000D01*
X120523000Y-178181000D01*
X120523000Y-155578432D01*
X120591212Y-155592000D01*
X120814788Y-155592000D01*
X121034067Y-155548383D01*
X121240624Y-155462824D01*
X121338000Y-155397759D01*
X121435376Y-155462824D01*
X121641933Y-155548383D01*
X121861212Y-155592000D01*
X122084788Y-155592000D01*
X122304067Y-155548383D01*
X122510624Y-155462824D01*
X122608000Y-155397759D01*
X122705376Y-155462824D01*
X122911933Y-155548383D01*
X123131212Y-155592000D01*
X123354788Y-155592000D01*
X123574067Y-155548383D01*
X123780624Y-155462824D01*
X123878000Y-155397759D01*
X123975376Y-155462824D01*
X124181933Y-155548383D01*
X124401212Y-155592000D01*
X124624788Y-155592000D01*
X124844067Y-155548383D01*
X125050624Y-155462824D01*
X125148000Y-155397759D01*
X125245376Y-155462824D01*
X125451933Y-155548383D01*
X125671212Y-155592000D01*
X125894788Y-155592000D01*
X126114067Y-155548383D01*
X126320624Y-155462824D01*
X126418000Y-155397759D01*
X126515376Y-155462824D01*
X126721933Y-155548383D01*
X126941212Y-155592000D01*
X127164788Y-155592000D01*
X127384067Y-155548383D01*
X127590624Y-155462824D01*
X127688000Y-155397759D01*
X127785376Y-155462824D01*
X127991933Y-155548383D01*
X128211212Y-155592000D01*
X128434788Y-155592000D01*
X128654067Y-155548383D01*
X128860624Y-155462824D01*
X128958000Y-155397759D01*
X129055376Y-155462824D01*
X129261933Y-155548383D01*
X129481212Y-155592000D01*
X129704788Y-155592000D01*
X129924067Y-155548383D01*
X130130624Y-155462824D01*
X130228000Y-155397759D01*
X130325376Y-155462824D01*
X130531933Y-155548383D01*
X130751212Y-155592000D01*
X130974788Y-155592000D01*
X131194067Y-155548383D01*
X131400624Y-155462824D01*
X131498000Y-155397759D01*
X131595376Y-155462824D01*
X131801933Y-155548383D01*
X132021212Y-155592000D01*
X132244788Y-155592000D01*
X132464067Y-155548383D01*
X132670624Y-155462824D01*
X132768000Y-155397759D01*
X132865376Y-155462824D01*
X133071933Y-155548383D01*
X133291212Y-155592000D01*
X133514788Y-155592000D01*
X133734067Y-155548383D01*
X133940624Y-155462824D01*
X134038000Y-155397759D01*
X134135376Y-155462824D01*
X134341933Y-155548383D01*
X134561212Y-155592000D01*
X134784788Y-155592000D01*
X135004067Y-155548383D01*
X135210624Y-155462824D01*
X135308000Y-155397759D01*
X135405376Y-155462824D01*
X135611933Y-155548383D01*
X135831212Y-155592000D01*
X136054788Y-155592000D01*
X136274067Y-155548383D01*
X136480624Y-155462824D01*
X136634930Y-155359720D01*
X136649550Y-155448588D01*
X136853826Y-155539458D01*
X137071905Y-155588731D01*
X137295406Y-155594511D01*
X137515740Y-155556577D01*
X137724440Y-155476387D01*
X137776450Y-155448588D01*
X137791070Y-155359720D01*
X137945376Y-155462824D01*
X138151933Y-155548383D01*
X138371212Y-155592000D01*
X138594788Y-155592000D01*
X138814067Y-155548383D01*
X139020624Y-155462824D01*
X139206520Y-155338612D01*
X139364612Y-155180520D01*
X139488824Y-154994624D01*
X139574383Y-154788067D01*
X139618000Y-154568788D01*
X139618000Y-154345212D01*
X139574383Y-154125933D01*
X139488824Y-153919376D01*
X139364612Y-153733480D01*
X139206520Y-153575388D01*
X139020624Y-153451176D01*
X138814067Y-153365617D01*
X138594788Y-153322000D01*
X138371212Y-153322000D01*
X138151933Y-153365617D01*
X137945376Y-153451176D01*
X137791070Y-153554280D01*
X137776450Y-153465412D01*
X137572174Y-153374542D01*
X137354095Y-153325269D01*
X137130594Y-153319489D01*
X136910260Y-153357423D01*
X136701560Y-153437613D01*
X136649550Y-153465412D01*
X136634930Y-153554280D01*
X136480624Y-153451176D01*
X136274067Y-153365617D01*
X136054788Y-153322000D01*
X135831212Y-153322000D01*
X135611933Y-153365617D01*
X135405376Y-153451176D01*
X135308000Y-153516241D01*
X135210624Y-153451176D01*
X135004067Y-153365617D01*
X134784788Y-153322000D01*
X134561212Y-153322000D01*
X134341933Y-153365617D01*
X134135376Y-153451176D01*
X134038000Y-153516241D01*
X133940624Y-153451176D01*
X133734067Y-153365617D01*
X133514788Y-153322000D01*
X133291212Y-153322000D01*
X133071933Y-153365617D01*
X132865376Y-153451176D01*
X132768000Y-153516241D01*
X132670624Y-153451176D01*
X132464067Y-153365617D01*
X132244788Y-153322000D01*
X132021212Y-153322000D01*
X131801933Y-153365617D01*
X131595376Y-153451176D01*
X131498000Y-153516241D01*
X131400624Y-153451176D01*
X131194067Y-153365617D01*
X130974788Y-153322000D01*
X130751212Y-153322000D01*
X130531933Y-153365617D01*
X130325376Y-153451176D01*
X130228000Y-153516241D01*
X130130624Y-153451176D01*
X129924067Y-153365617D01*
X129704788Y-153322000D01*
X129481212Y-153322000D01*
X129261933Y-153365617D01*
X129055376Y-153451176D01*
X128958000Y-153516241D01*
X128860624Y-153451176D01*
X128654067Y-153365617D01*
X128434788Y-153322000D01*
X128211212Y-153322000D01*
X127991933Y-153365617D01*
X127785376Y-153451176D01*
X127688000Y-153516241D01*
X127590624Y-153451176D01*
X127384067Y-153365617D01*
X127164788Y-153322000D01*
X126941212Y-153322000D01*
X126721933Y-153365617D01*
X126515376Y-153451176D01*
X126418000Y-153516241D01*
X126320624Y-153451176D01*
X126114067Y-153365617D01*
X125894788Y-153322000D01*
X125671212Y-153322000D01*
X125451933Y-153365617D01*
X125245376Y-153451176D01*
X125148000Y-153516241D01*
X125050624Y-153451176D01*
X124844067Y-153365617D01*
X124624788Y-153322000D01*
X124401212Y-153322000D01*
X124181933Y-153365617D01*
X123975376Y-153451176D01*
X123878000Y-153516241D01*
X123780624Y-153451176D01*
X123574067Y-153365617D01*
X123354788Y-153322000D01*
X123131212Y-153322000D01*
X122911933Y-153365617D01*
X122705376Y-153451176D01*
X122608000Y-153516241D01*
X122510624Y-153451176D01*
X122304067Y-153365617D01*
X122084788Y-153322000D01*
X121861212Y-153322000D01*
X121641933Y-153365617D01*
X121435376Y-153451176D01*
X121338000Y-153516241D01*
X121240624Y-153451176D01*
X121034067Y-153365617D01*
X120814788Y-153322000D01*
X120591212Y-153322000D01*
X120523000Y-153335568D01*
X120523000Y-130178432D01*
X120591212Y-130192000D01*
X120814788Y-130192000D01*
X121034067Y-130148383D01*
X121240624Y-130062824D01*
X121338000Y-129997759D01*
X121435376Y-130062824D01*
X121641933Y-130148383D01*
X121861212Y-130192000D01*
X122084788Y-130192000D01*
X122304067Y-130148383D01*
X122510624Y-130062824D01*
X122608000Y-129997759D01*
X122705376Y-130062824D01*
X122911933Y-130148383D01*
X123131212Y-130192000D01*
X123354788Y-130192000D01*
X123574067Y-130148383D01*
X123780624Y-130062824D01*
X123878000Y-129997759D01*
X123975376Y-130062824D01*
X124181933Y-130148383D01*
X124401212Y-130192000D01*
X124624788Y-130192000D01*
X124844067Y-130148383D01*
X125050624Y-130062824D01*
X125148000Y-129997759D01*
X125245376Y-130062824D01*
X125451933Y-130148383D01*
X125671212Y-130192000D01*
X125894788Y-130192000D01*
X126114067Y-130148383D01*
X126320624Y-130062824D01*
X126418000Y-129997759D01*
X126515376Y-130062824D01*
X126721933Y-130148383D01*
X126941212Y-130192000D01*
X127164788Y-130192000D01*
X127384067Y-130148383D01*
X127590624Y-130062824D01*
X127688000Y-129997759D01*
X127785376Y-130062824D01*
X127991933Y-130148383D01*
X128211212Y-130192000D01*
X128434788Y-130192000D01*
X128654067Y-130148383D01*
X128860624Y-130062824D01*
X128958000Y-129997759D01*
X129055376Y-130062824D01*
X129261933Y-130148383D01*
X129481212Y-130192000D01*
X129704788Y-130192000D01*
X129924067Y-130148383D01*
X130130624Y-130062824D01*
X130228000Y-129997759D01*
X130325376Y-130062824D01*
X130531933Y-130148383D01*
X130751212Y-130192000D01*
X130974788Y-130192000D01*
X131194067Y-130148383D01*
X131400624Y-130062824D01*
X131498000Y-129997759D01*
X131595376Y-130062824D01*
X131801933Y-130148383D01*
X132021212Y-130192000D01*
X132244788Y-130192000D01*
X132464067Y-130148383D01*
X132670624Y-130062824D01*
X132768000Y-129997759D01*
X132865376Y-130062824D01*
X133071933Y-130148383D01*
X133291212Y-130192000D01*
X133514788Y-130192000D01*
X133734067Y-130148383D01*
X133940624Y-130062824D01*
X134038000Y-129997759D01*
X134135376Y-130062824D01*
X134341933Y-130148383D01*
X134561212Y-130192000D01*
X134784788Y-130192000D01*
X135004067Y-130148383D01*
X135210624Y-130062824D01*
X135308000Y-129997759D01*
X135405376Y-130062824D01*
X135611933Y-130148383D01*
X135831212Y-130192000D01*
X136054788Y-130192000D01*
X136274067Y-130148383D01*
X136480624Y-130062824D01*
X136634930Y-129959720D01*
X136649550Y-130048588D01*
X136853826Y-130139458D01*
X137071905Y-130188731D01*
X137295406Y-130194511D01*
X137515740Y-130156577D01*
X137724440Y-130076387D01*
X137776450Y-130048588D01*
X137791070Y-129959720D01*
X137945376Y-130062824D01*
X138151933Y-130148383D01*
X138371212Y-130192000D01*
X138594788Y-130192000D01*
X138814067Y-130148383D01*
X139020624Y-130062824D01*
X139206520Y-129938612D01*
X139364612Y-129780520D01*
X139488824Y-129594624D01*
X139574383Y-129388067D01*
X139618000Y-129168788D01*
X139618000Y-128945212D01*
X139574383Y-128725933D01*
X139488824Y-128519376D01*
X139364612Y-128333480D01*
X139206520Y-128175388D01*
X139020624Y-128051176D01*
X138814067Y-127965617D01*
X138594788Y-127922000D01*
X138371212Y-127922000D01*
X138151933Y-127965617D01*
X137945376Y-128051176D01*
X137791070Y-128154280D01*
X137776450Y-128065412D01*
X137572174Y-127974542D01*
X137354095Y-127925269D01*
X137130594Y-127919489D01*
X136910260Y-127957423D01*
X136701560Y-128037613D01*
X136649550Y-128065412D01*
X136634930Y-128154280D01*
X136480624Y-128051176D01*
X136274067Y-127965617D01*
X136054788Y-127922000D01*
X135831212Y-127922000D01*
X135611933Y-127965617D01*
X135405376Y-128051176D01*
X135308000Y-128116241D01*
X135210624Y-128051176D01*
X135004067Y-127965617D01*
X134784788Y-127922000D01*
X134561212Y-127922000D01*
X134341933Y-127965617D01*
X134135376Y-128051176D01*
X134038000Y-128116241D01*
X133940624Y-128051176D01*
X133734067Y-127965617D01*
X133514788Y-127922000D01*
X133291212Y-127922000D01*
X133071933Y-127965617D01*
X132865376Y-128051176D01*
X132768000Y-128116241D01*
X132670624Y-128051176D01*
X132464067Y-127965617D01*
X132244788Y-127922000D01*
X132021212Y-127922000D01*
X131801933Y-127965617D01*
X131595376Y-128051176D01*
X131498000Y-128116241D01*
X131400624Y-128051176D01*
X131194067Y-127965617D01*
X130974788Y-127922000D01*
X130751212Y-127922000D01*
X130531933Y-127965617D01*
X130325376Y-128051176D01*
X130228000Y-128116241D01*
X130130624Y-128051176D01*
X129924067Y-127965617D01*
X129704788Y-127922000D01*
X129481212Y-127922000D01*
X129261933Y-127965617D01*
X129055376Y-128051176D01*
X128958000Y-128116241D01*
X128860624Y-128051176D01*
X128654067Y-127965617D01*
X128434788Y-127922000D01*
X128211212Y-127922000D01*
X127991933Y-127965617D01*
X127785376Y-128051176D01*
X127688000Y-128116241D01*
X127590624Y-128051176D01*
X127384067Y-127965617D01*
X127164788Y-127922000D01*
X126941212Y-127922000D01*
X126721933Y-127965617D01*
X126515376Y-128051176D01*
X126418000Y-128116241D01*
X126320624Y-128051176D01*
X126114067Y-127965617D01*
X125894788Y-127922000D01*
X125671212Y-127922000D01*
X125451933Y-127965617D01*
X125245376Y-128051176D01*
X125148000Y-128116241D01*
X125050624Y-128051176D01*
X124844067Y-127965617D01*
X124624788Y-127922000D01*
X124401212Y-127922000D01*
X124181933Y-127965617D01*
X123975376Y-128051176D01*
X123878000Y-128116241D01*
X123780624Y-128051176D01*
X123574067Y-127965617D01*
X123354788Y-127922000D01*
X123131212Y-127922000D01*
X122911933Y-127965617D01*
X122705376Y-128051176D01*
X122608000Y-128116241D01*
X122510624Y-128051176D01*
X122304067Y-127965617D01*
X122084788Y-127922000D01*
X121861212Y-127922000D01*
X121641933Y-127965617D01*
X121435376Y-128051176D01*
X121338000Y-128116241D01*
X121240624Y-128051176D01*
X121034067Y-127965617D01*
X120814788Y-127922000D01*
X120591212Y-127922000D01*
X120523000Y-127935568D01*
X120523000Y-108709630D01*
X120589212Y-108722800D01*
X120812788Y-108722800D01*
X121032067Y-108679183D01*
X121238624Y-108593624D01*
X121336000Y-108528559D01*
X121433376Y-108593624D01*
X121639933Y-108679183D01*
X121859212Y-108722800D01*
X122082788Y-108722800D01*
X122302067Y-108679183D01*
X122508624Y-108593624D01*
X122606000Y-108528559D01*
X122703376Y-108593624D01*
X122909933Y-108679183D01*
X123129212Y-108722800D01*
X123352788Y-108722800D01*
X123572067Y-108679183D01*
X123778624Y-108593624D01*
X123876000Y-108528559D01*
X123973376Y-108593624D01*
X124179933Y-108679183D01*
X124399212Y-108722800D01*
X124622788Y-108722800D01*
X124842067Y-108679183D01*
X125048624Y-108593624D01*
X125146000Y-108528559D01*
X125243376Y-108593624D01*
X125449933Y-108679183D01*
X125669212Y-108722800D01*
X125892788Y-108722800D01*
X126112067Y-108679183D01*
X126318624Y-108593624D01*
X126416000Y-108528559D01*
X126513376Y-108593624D01*
X126719933Y-108679183D01*
X126939212Y-108722800D01*
X127162788Y-108722800D01*
X127382067Y-108679183D01*
X127588624Y-108593624D01*
X127686000Y-108528559D01*
X127783376Y-108593624D01*
X127989933Y-108679183D01*
X128209212Y-108722800D01*
X128432788Y-108722800D01*
X128652067Y-108679183D01*
X128858624Y-108593624D01*
X128956000Y-108528559D01*
X129053376Y-108593624D01*
X129259933Y-108679183D01*
X129479212Y-108722800D01*
X129702788Y-108722800D01*
X129922067Y-108679183D01*
X130128624Y-108593624D01*
X130226000Y-108528559D01*
X130323376Y-108593624D01*
X130529933Y-108679183D01*
X130749212Y-108722800D01*
X130972788Y-108722800D01*
X131192067Y-108679183D01*
X131398624Y-108593624D01*
X131496000Y-108528559D01*
X131593376Y-108593624D01*
X131799933Y-108679183D01*
X132019212Y-108722800D01*
X132242788Y-108722800D01*
X132462067Y-108679183D01*
X132668624Y-108593624D01*
X132766000Y-108528559D01*
X132863376Y-108593624D01*
X133069933Y-108679183D01*
X133289212Y-108722800D01*
X133512788Y-108722800D01*
X133732067Y-108679183D01*
X133938624Y-108593624D01*
X134036000Y-108528559D01*
X134133376Y-108593624D01*
X134339933Y-108679183D01*
X134559212Y-108722800D01*
X134782788Y-108722800D01*
X135002067Y-108679183D01*
X135208624Y-108593624D01*
X135306000Y-108528559D01*
X135403376Y-108593624D01*
X135609933Y-108679183D01*
X135829212Y-108722800D01*
X136052788Y-108722800D01*
X136272067Y-108679183D01*
X136478624Y-108593624D01*
X136632930Y-108490520D01*
X136647550Y-108579388D01*
X136851826Y-108670258D01*
X137069905Y-108719531D01*
X137293406Y-108725311D01*
X137513740Y-108687377D01*
X137722440Y-108607187D01*
X137774450Y-108579388D01*
X137789070Y-108490520D01*
X137943376Y-108593624D01*
X138149933Y-108679183D01*
X138369212Y-108722800D01*
X138592788Y-108722800D01*
X138812067Y-108679183D01*
X139018624Y-108593624D01*
X139204520Y-108469412D01*
X139362612Y-108311320D01*
X139486824Y-108125424D01*
X139572383Y-107918867D01*
X139616000Y-107699588D01*
X139616000Y-107476012D01*
X139572383Y-107256733D01*
X139486824Y-107050176D01*
X139362612Y-106864280D01*
X139204520Y-106706188D01*
X139018624Y-106581976D01*
X138812067Y-106496417D01*
X138592788Y-106452800D01*
X138369212Y-106452800D01*
X138149933Y-106496417D01*
X137943376Y-106581976D01*
X137789070Y-106685080D01*
X137774450Y-106596212D01*
X137570174Y-106505342D01*
X137352095Y-106456069D01*
X137128594Y-106450289D01*
X136908260Y-106488223D01*
X136699560Y-106568413D01*
X136647550Y-106596212D01*
X136632930Y-106685080D01*
X136478624Y-106581976D01*
X136272067Y-106496417D01*
X136052788Y-106452800D01*
X135829212Y-106452800D01*
X135609933Y-106496417D01*
X135403376Y-106581976D01*
X135306000Y-106647041D01*
X135208624Y-106581976D01*
X135002067Y-106496417D01*
X134782788Y-106452800D01*
X134559212Y-106452800D01*
X134339933Y-106496417D01*
X134133376Y-106581976D01*
X134036000Y-106647041D01*
X133938624Y-106581976D01*
X133732067Y-106496417D01*
X133512788Y-106452800D01*
X133289212Y-106452800D01*
X133069933Y-106496417D01*
X132863376Y-106581976D01*
X132766000Y-106647041D01*
X132668624Y-106581976D01*
X132462067Y-106496417D01*
X132242788Y-106452800D01*
X132019212Y-106452800D01*
X131799933Y-106496417D01*
X131593376Y-106581976D01*
X131496000Y-106647041D01*
X131398624Y-106581976D01*
X131192067Y-106496417D01*
X130972788Y-106452800D01*
X130749212Y-106452800D01*
X130529933Y-106496417D01*
X130323376Y-106581976D01*
X130226000Y-106647041D01*
X130128624Y-106581976D01*
X129922067Y-106496417D01*
X129702788Y-106452800D01*
X129479212Y-106452800D01*
X129259933Y-106496417D01*
X129053376Y-106581976D01*
X128956000Y-106647041D01*
X128858624Y-106581976D01*
X128652067Y-106496417D01*
X128432788Y-106452800D01*
X128209212Y-106452800D01*
X127989933Y-106496417D01*
X127783376Y-106581976D01*
X127686000Y-106647041D01*
X127588624Y-106581976D01*
X127382067Y-106496417D01*
X127162788Y-106452800D01*
X126939212Y-106452800D01*
X126719933Y-106496417D01*
X126513376Y-106581976D01*
X126416000Y-106647041D01*
X126318624Y-106581976D01*
X126112067Y-106496417D01*
X125892788Y-106452800D01*
X125669212Y-106452800D01*
X125449933Y-106496417D01*
X125243376Y-106581976D01*
X125146000Y-106647041D01*
X125048624Y-106581976D01*
X124842067Y-106496417D01*
X124622788Y-106452800D01*
X124399212Y-106452800D01*
X124179933Y-106496417D01*
X123973376Y-106581976D01*
X123876000Y-106647041D01*
X123778624Y-106581976D01*
X123572067Y-106496417D01*
X123352788Y-106452800D01*
X123129212Y-106452800D01*
X122909933Y-106496417D01*
X122703376Y-106581976D01*
X122606000Y-106647041D01*
X122508624Y-106581976D01*
X122302067Y-106496417D01*
X122082788Y-106452800D01*
X121859212Y-106452800D01*
X121639933Y-106496417D01*
X121433376Y-106581976D01*
X121336000Y-106647041D01*
X121238624Y-106581976D01*
X121032067Y-106496417D01*
X120812788Y-106452800D01*
X120589212Y-106452800D01*
X120523000Y-106465970D01*
X120523000Y-83309630D01*
X120589212Y-83322800D01*
X120812788Y-83322800D01*
X121032067Y-83279183D01*
X121238624Y-83193624D01*
X121336000Y-83128559D01*
X121433376Y-83193624D01*
X121639933Y-83279183D01*
X121859212Y-83322800D01*
X122082788Y-83322800D01*
X122302067Y-83279183D01*
X122508624Y-83193624D01*
X122606000Y-83128559D01*
X122703376Y-83193624D01*
X122909933Y-83279183D01*
X123129212Y-83322800D01*
X123352788Y-83322800D01*
X123572067Y-83279183D01*
X123778624Y-83193624D01*
X123876000Y-83128559D01*
X123973376Y-83193624D01*
X124179933Y-83279183D01*
X124399212Y-83322800D01*
X124622788Y-83322800D01*
X124842067Y-83279183D01*
X125048624Y-83193624D01*
X125146000Y-83128559D01*
X125243376Y-83193624D01*
X125449933Y-83279183D01*
X125669212Y-83322800D01*
X125892788Y-83322800D01*
X126112067Y-83279183D01*
X126318624Y-83193624D01*
X126416000Y-83128559D01*
X126513376Y-83193624D01*
X126719933Y-83279183D01*
X126939212Y-83322800D01*
X127162788Y-83322800D01*
X127382067Y-83279183D01*
X127588624Y-83193624D01*
X127686000Y-83128559D01*
X127783376Y-83193624D01*
X127989933Y-83279183D01*
X128209212Y-83322800D01*
X128432788Y-83322800D01*
X128652067Y-83279183D01*
X128858624Y-83193624D01*
X128956000Y-83128559D01*
X129053376Y-83193624D01*
X129259933Y-83279183D01*
X129479212Y-83322800D01*
X129702788Y-83322800D01*
X129922067Y-83279183D01*
X130128624Y-83193624D01*
X130226000Y-83128559D01*
X130323376Y-83193624D01*
X130529933Y-83279183D01*
X130749212Y-83322800D01*
X130972788Y-83322800D01*
X131192067Y-83279183D01*
X131398624Y-83193624D01*
X131496000Y-83128559D01*
X131593376Y-83193624D01*
X131799933Y-83279183D01*
X132019212Y-83322800D01*
X132242788Y-83322800D01*
X132462067Y-83279183D01*
X132668624Y-83193624D01*
X132766000Y-83128559D01*
X132863376Y-83193624D01*
X133069933Y-83279183D01*
X133289212Y-83322800D01*
X133512788Y-83322800D01*
X133732067Y-83279183D01*
X133938624Y-83193624D01*
X134036000Y-83128559D01*
X134133376Y-83193624D01*
X134339933Y-83279183D01*
X134559212Y-83322800D01*
X134782788Y-83322800D01*
X135002067Y-83279183D01*
X135208624Y-83193624D01*
X135306000Y-83128559D01*
X135403376Y-83193624D01*
X135609933Y-83279183D01*
X135829212Y-83322800D01*
X136052788Y-83322800D01*
X136272067Y-83279183D01*
X136478624Y-83193624D01*
X136632930Y-83090520D01*
X136647550Y-83179388D01*
X136851826Y-83270258D01*
X137069905Y-83319531D01*
X137293406Y-83325311D01*
X137513740Y-83287377D01*
X137722440Y-83207187D01*
X137774450Y-83179388D01*
X137789070Y-83090520D01*
X137943376Y-83193624D01*
X138149933Y-83279183D01*
X138369212Y-83322800D01*
X138592788Y-83322800D01*
X138812067Y-83279183D01*
X139018624Y-83193624D01*
X139204520Y-83069412D01*
X139362612Y-82911320D01*
X139486824Y-82725424D01*
X139572383Y-82518867D01*
X139616000Y-82299588D01*
X139616000Y-82076012D01*
X139572383Y-81856733D01*
X139486824Y-81650176D01*
X139362612Y-81464280D01*
X139204520Y-81306188D01*
X139018624Y-81181976D01*
X138812067Y-81096417D01*
X138592788Y-81052800D01*
X138369212Y-81052800D01*
X138149933Y-81096417D01*
X137943376Y-81181976D01*
X137789070Y-81285080D01*
X137774450Y-81196212D01*
X137570174Y-81105342D01*
X137352095Y-81056069D01*
X137128594Y-81050289D01*
X136908260Y-81088223D01*
X136699560Y-81168413D01*
X136647550Y-81196212D01*
X136632930Y-81285080D01*
X136478624Y-81181976D01*
X136272067Y-81096417D01*
X136052788Y-81052800D01*
X135829212Y-81052800D01*
X135609933Y-81096417D01*
X135403376Y-81181976D01*
X135306000Y-81247041D01*
X135208624Y-81181976D01*
X135002067Y-81096417D01*
X134782788Y-81052800D01*
X134559212Y-81052800D01*
X134339933Y-81096417D01*
X134133376Y-81181976D01*
X134036000Y-81247041D01*
X133938624Y-81181976D01*
X133732067Y-81096417D01*
X133512788Y-81052800D01*
X133289212Y-81052800D01*
X133069933Y-81096417D01*
X132863376Y-81181976D01*
X132766000Y-81247041D01*
X132668624Y-81181976D01*
X132462067Y-81096417D01*
X132242788Y-81052800D01*
X132019212Y-81052800D01*
X131799933Y-81096417D01*
X131593376Y-81181976D01*
X131496000Y-81247041D01*
X131398624Y-81181976D01*
X131192067Y-81096417D01*
X130972788Y-81052800D01*
X130749212Y-81052800D01*
X130529933Y-81096417D01*
X130323376Y-81181976D01*
X130226000Y-81247041D01*
X130128624Y-81181976D01*
X129922067Y-81096417D01*
X129702788Y-81052800D01*
X129479212Y-81052800D01*
X129259933Y-81096417D01*
X129053376Y-81181976D01*
X128956000Y-81247041D01*
X128858624Y-81181976D01*
X128652067Y-81096417D01*
X128432788Y-81052800D01*
X128209212Y-81052800D01*
X127989933Y-81096417D01*
X127783376Y-81181976D01*
X127686000Y-81247041D01*
X127588624Y-81181976D01*
X127382067Y-81096417D01*
X127162788Y-81052800D01*
X126939212Y-81052800D01*
X126719933Y-81096417D01*
X126513376Y-81181976D01*
X126416000Y-81247041D01*
X126318624Y-81181976D01*
X126112067Y-81096417D01*
X125892788Y-81052800D01*
X125669212Y-81052800D01*
X125449933Y-81096417D01*
X125243376Y-81181976D01*
X125146000Y-81247041D01*
X125048624Y-81181976D01*
X124842067Y-81096417D01*
X124622788Y-81052800D01*
X124399212Y-81052800D01*
X124179933Y-81096417D01*
X123973376Y-81181976D01*
X123876000Y-81247041D01*
X123778624Y-81181976D01*
X123572067Y-81096417D01*
X123352788Y-81052800D01*
X123129212Y-81052800D01*
X122909933Y-81096417D01*
X122703376Y-81181976D01*
X122606000Y-81247041D01*
X122508624Y-81181976D01*
X122302067Y-81096417D01*
X122082788Y-81052800D01*
X121859212Y-81052800D01*
X121639933Y-81096417D01*
X121433376Y-81181976D01*
X121336000Y-81247041D01*
X121238624Y-81181976D01*
X121032067Y-81096417D01*
X120812788Y-81052800D01*
X120589212Y-81052800D01*
X120523000Y-81065970D01*
X120523000Y-78867000D01*
X142113000Y-78867000D01*
X142113000Y-162500372D01*
G37*
G04 #@! TD.AperFunction*
D19*
X137348000Y-154384110D02*
X137348000Y-154529890D01*
X137227143Y-154650748D01*
X137213000Y-154636605D01*
X137198858Y-154650748D01*
X137078000Y-154529890D01*
X137078000Y-154384110D01*
X137198858Y-154263253D01*
X137213000Y-154277395D01*
X137227143Y-154263253D01*
X137348000Y-154384110D01*
G04 #@! TA.AperFunction,Conductor*
D20*
G36*
X137348000Y-154384110D02*
G01*
X137348000Y-154529890D01*
X137227143Y-154650748D01*
X137213000Y-154636605D01*
X137198858Y-154650748D01*
X137078000Y-154529890D01*
X137078000Y-154384110D01*
X137198858Y-154263253D01*
X137213000Y-154277395D01*
X137227143Y-154263253D01*
X137348000Y-154384110D01*
G37*
G04 #@! TD.AperFunction*
D19*
X137348000Y-128984110D02*
X137348000Y-129129890D01*
X137227143Y-129250748D01*
X137213000Y-129236605D01*
X137198858Y-129250748D01*
X137078000Y-129129890D01*
X137078000Y-128984110D01*
X137198858Y-128863253D01*
X137213000Y-128877395D01*
X137227143Y-128863253D01*
X137348000Y-128984110D01*
G04 #@! TA.AperFunction,Conductor*
D20*
G36*
X137348000Y-128984110D02*
G01*
X137348000Y-129129890D01*
X137227143Y-129250748D01*
X137213000Y-129236605D01*
X137198858Y-129250748D01*
X137078000Y-129129890D01*
X137078000Y-128984110D01*
X137198858Y-128863253D01*
X137213000Y-128877395D01*
X137227143Y-128863253D01*
X137348000Y-128984110D01*
G37*
G04 #@! TD.AperFunction*
D19*
X137346000Y-107514910D02*
X137346000Y-107660690D01*
X137225143Y-107781548D01*
X137211000Y-107767405D01*
X137196858Y-107781548D01*
X137076000Y-107660690D01*
X137076000Y-107514910D01*
X137196858Y-107394053D01*
X137211000Y-107408195D01*
X137225143Y-107394053D01*
X137346000Y-107514910D01*
G04 #@! TA.AperFunction,Conductor*
D20*
G36*
X137346000Y-107514910D02*
G01*
X137346000Y-107660690D01*
X137225143Y-107781548D01*
X137211000Y-107767405D01*
X137196858Y-107781548D01*
X137076000Y-107660690D01*
X137076000Y-107514910D01*
X137196858Y-107394053D01*
X137211000Y-107408195D01*
X137225143Y-107394053D01*
X137346000Y-107514910D01*
G37*
G04 #@! TD.AperFunction*
D19*
X137346000Y-82114910D02*
X137346000Y-82260690D01*
X137225143Y-82381548D01*
X137211000Y-82367405D01*
X137196858Y-82381548D01*
X137076000Y-82260690D01*
X137076000Y-82114910D01*
X137196858Y-81994053D01*
X137211000Y-82008195D01*
X137225143Y-81994053D01*
X137346000Y-82114910D01*
G04 #@! TA.AperFunction,Conductor*
D20*
G36*
X137346000Y-82114910D02*
G01*
X137346000Y-82260690D01*
X137225143Y-82381548D01*
X137211000Y-82367405D01*
X137196858Y-82381548D01*
X137076000Y-82260690D01*
X137076000Y-82114910D01*
X137196858Y-81994053D01*
X137211000Y-82008195D01*
X137225143Y-81994053D01*
X137346000Y-82114910D01*
G37*
G04 #@! TD.AperFunction*
G04 #@! TD*
M02*
