G04 #@! TF.GenerationSoftware,KiCad,Pcbnew,(5.1.8)-1*
G04 #@! TF.CreationDate,2021-03-08T00:14:45+09:00*
G04 #@! TF.ProjectId,mifune_TE0890_remote_board,6d696675-6e65-45f5-9445-303839305f72,rev?*
G04 #@! TF.SameCoordinates,Original*
G04 #@! TF.FileFunction,Legend,Top*
G04 #@! TF.FilePolarity,Positive*
%FSLAX46Y46*%
G04 Gerber Fmt 4.6, Leading zero omitted, Abs format (unit mm)*
G04 Created by KiCad (PCBNEW (5.1.8)-1) date 2021-03-08 00:14:45*
%MOMM*%
%LPD*%
G01*
G04 APERTURE LIST*
%ADD10C,0.150000*%
%ADD11C,0.200000*%
%ADD12C,0.120000*%
%ADD13C,0.254000*%
G04 APERTURE END LIST*
D10*
X160307780Y-146833761D02*
X159641114Y-146833761D01*
X159736352Y-146833761D02*
X159688733Y-146786142D01*
X159641114Y-146690904D01*
X159641114Y-146548047D01*
X159688733Y-146452809D01*
X159783971Y-146405190D01*
X160307780Y-146405190D01*
X159783971Y-146405190D02*
X159688733Y-146357571D01*
X159641114Y-146262333D01*
X159641114Y-146119476D01*
X159688733Y-146024238D01*
X159783971Y-145976619D01*
X160307780Y-145976619D01*
X160307780Y-145500428D02*
X159641114Y-145500428D01*
X159307780Y-145500428D02*
X159355400Y-145548047D01*
X159403019Y-145500428D01*
X159355400Y-145452809D01*
X159307780Y-145500428D01*
X159403019Y-145500428D01*
X159641114Y-145167095D02*
X159641114Y-144786142D01*
X160307780Y-145024238D02*
X159450638Y-145024238D01*
X159355400Y-144976619D01*
X159307780Y-144881380D01*
X159307780Y-144786142D01*
X159641114Y-144024238D02*
X160307780Y-144024238D01*
X159641114Y-144452809D02*
X160164923Y-144452809D01*
X160260161Y-144405190D01*
X160307780Y-144309952D01*
X160307780Y-144167095D01*
X160260161Y-144071857D01*
X160212542Y-144024238D01*
X159641114Y-143548047D02*
X160307780Y-143548047D01*
X159736352Y-143548047D02*
X159688733Y-143500428D01*
X159641114Y-143405190D01*
X159641114Y-143262333D01*
X159688733Y-143167095D01*
X159783971Y-143119476D01*
X160307780Y-143119476D01*
X160260161Y-142262333D02*
X160307780Y-142357571D01*
X160307780Y-142548047D01*
X160260161Y-142643285D01*
X160164923Y-142690904D01*
X159783971Y-142690904D01*
X159688733Y-142643285D01*
X159641114Y-142548047D01*
X159641114Y-142357571D01*
X159688733Y-142262333D01*
X159783971Y-142214714D01*
X159879209Y-142214714D01*
X159974447Y-142690904D01*
X159260161Y-140309952D02*
X160545876Y-141167095D01*
X160307780Y-139214714D02*
X159641114Y-139214714D01*
X159831590Y-139214714D02*
X159736352Y-139167095D01*
X159688733Y-139119476D01*
X159641114Y-139024238D01*
X159641114Y-138929000D01*
X160260161Y-138214714D02*
X160307780Y-138309952D01*
X160307780Y-138500428D01*
X160260161Y-138595666D01*
X160164923Y-138643285D01*
X159783971Y-138643285D01*
X159688733Y-138595666D01*
X159641114Y-138500428D01*
X159641114Y-138309952D01*
X159688733Y-138214714D01*
X159783971Y-138167095D01*
X159879209Y-138167095D01*
X159974447Y-138643285D01*
X159641114Y-137833761D02*
X160307780Y-137595666D01*
X159641114Y-137357571D01*
X160212542Y-136976619D02*
X160260161Y-136929000D01*
X160307780Y-136976619D01*
X160260161Y-137024238D01*
X160212542Y-136976619D01*
X160307780Y-136976619D01*
X159307780Y-135548047D02*
X159307780Y-135452809D01*
X159355400Y-135357571D01*
X159403019Y-135309952D01*
X159498257Y-135262333D01*
X159688733Y-135214714D01*
X159926828Y-135214714D01*
X160117304Y-135262333D01*
X160212542Y-135309952D01*
X160260161Y-135357571D01*
X160307780Y-135452809D01*
X160307780Y-135548047D01*
X160260161Y-135643285D01*
X160212542Y-135690904D01*
X160117304Y-135738523D01*
X159926828Y-135786142D01*
X159688733Y-135786142D01*
X159498257Y-135738523D01*
X159403019Y-135690904D01*
X159355400Y-135643285D01*
X159307780Y-135548047D01*
X159260161Y-133309952D02*
X160545876Y-134167095D01*
X159307780Y-132357571D02*
X159307780Y-131786142D01*
X160307780Y-132071857D02*
X159307780Y-132071857D01*
X159783971Y-131452809D02*
X159783971Y-131119476D01*
X160307780Y-130976619D02*
X160307780Y-131452809D01*
X159307780Y-131452809D01*
X159307780Y-130976619D01*
X159307780Y-130357571D02*
X159307780Y-130262333D01*
X159355400Y-130167095D01*
X159403019Y-130119476D01*
X159498257Y-130071857D01*
X159688733Y-130024238D01*
X159926828Y-130024238D01*
X160117304Y-130071857D01*
X160212542Y-130119476D01*
X160260161Y-130167095D01*
X160307780Y-130262333D01*
X160307780Y-130357571D01*
X160260161Y-130452809D01*
X160212542Y-130500428D01*
X160117304Y-130548047D01*
X159926828Y-130595666D01*
X159688733Y-130595666D01*
X159498257Y-130548047D01*
X159403019Y-130500428D01*
X159355400Y-130452809D01*
X159307780Y-130357571D01*
X159736352Y-129452809D02*
X159688733Y-129548047D01*
X159641114Y-129595666D01*
X159545876Y-129643285D01*
X159498257Y-129643285D01*
X159403019Y-129595666D01*
X159355400Y-129548047D01*
X159307780Y-129452809D01*
X159307780Y-129262333D01*
X159355400Y-129167095D01*
X159403019Y-129119476D01*
X159498257Y-129071857D01*
X159545876Y-129071857D01*
X159641114Y-129119476D01*
X159688733Y-129167095D01*
X159736352Y-129262333D01*
X159736352Y-129452809D01*
X159783971Y-129548047D01*
X159831590Y-129595666D01*
X159926828Y-129643285D01*
X160117304Y-129643285D01*
X160212542Y-129595666D01*
X160260161Y-129548047D01*
X160307780Y-129452809D01*
X160307780Y-129262333D01*
X160260161Y-129167095D01*
X160212542Y-129119476D01*
X160117304Y-129071857D01*
X159926828Y-129071857D01*
X159831590Y-129119476D01*
X159783971Y-129167095D01*
X159736352Y-129262333D01*
X160307780Y-128595666D02*
X160307780Y-128405190D01*
X160260161Y-128309952D01*
X160212542Y-128262333D01*
X160069685Y-128167095D01*
X159879209Y-128119476D01*
X159498257Y-128119476D01*
X159403019Y-128167095D01*
X159355400Y-128214714D01*
X159307780Y-128309952D01*
X159307780Y-128500428D01*
X159355400Y-128595666D01*
X159403019Y-128643285D01*
X159498257Y-128690904D01*
X159736352Y-128690904D01*
X159831590Y-128643285D01*
X159879209Y-128595666D01*
X159926828Y-128500428D01*
X159926828Y-128309952D01*
X159879209Y-128214714D01*
X159831590Y-128167095D01*
X159736352Y-128119476D01*
X159307780Y-127500428D02*
X159307780Y-127405190D01*
X159355400Y-127309952D01*
X159403019Y-127262333D01*
X159498257Y-127214714D01*
X159688733Y-127167095D01*
X159926828Y-127167095D01*
X160117304Y-127214714D01*
X160212542Y-127262333D01*
X160260161Y-127309952D01*
X160307780Y-127405190D01*
X160307780Y-127500428D01*
X160260161Y-127595666D01*
X160212542Y-127643285D01*
X160117304Y-127690904D01*
X159926828Y-127738523D01*
X159688733Y-127738523D01*
X159498257Y-127690904D01*
X159403019Y-127643285D01*
X159355400Y-127595666D01*
X159307780Y-127500428D01*
X159260161Y-125262333D02*
X160545876Y-126119476D01*
X160307780Y-123595666D02*
X159831590Y-123929000D01*
X160307780Y-124167095D02*
X159307780Y-124167095D01*
X159307780Y-123786142D01*
X159355400Y-123690904D01*
X159403019Y-123643285D01*
X159498257Y-123595666D01*
X159641114Y-123595666D01*
X159736352Y-123643285D01*
X159783971Y-123690904D01*
X159831590Y-123786142D01*
X159831590Y-124167095D01*
X160260161Y-122786142D02*
X160307780Y-122881380D01*
X160307780Y-123071857D01*
X160260161Y-123167095D01*
X160164923Y-123214714D01*
X159783971Y-123214714D01*
X159688733Y-123167095D01*
X159641114Y-123071857D01*
X159641114Y-122881380D01*
X159688733Y-122786142D01*
X159783971Y-122738523D01*
X159879209Y-122738523D01*
X159974447Y-123214714D01*
X160307780Y-122309952D02*
X159641114Y-122309952D01*
X159736352Y-122309952D02*
X159688733Y-122262333D01*
X159641114Y-122167095D01*
X159641114Y-122024238D01*
X159688733Y-121929000D01*
X159783971Y-121881380D01*
X160307780Y-121881380D01*
X159783971Y-121881380D02*
X159688733Y-121833761D01*
X159641114Y-121738523D01*
X159641114Y-121595666D01*
X159688733Y-121500428D01*
X159783971Y-121452809D01*
X160307780Y-121452809D01*
X160307780Y-120833761D02*
X160260161Y-120929000D01*
X160212542Y-120976619D01*
X160117304Y-121024238D01*
X159831590Y-121024238D01*
X159736352Y-120976619D01*
X159688733Y-120929000D01*
X159641114Y-120833761D01*
X159641114Y-120690904D01*
X159688733Y-120595666D01*
X159736352Y-120548047D01*
X159831590Y-120500428D01*
X160117304Y-120500428D01*
X160212542Y-120548047D01*
X160260161Y-120595666D01*
X160307780Y-120690904D01*
X160307780Y-120833761D01*
X159641114Y-120214714D02*
X159641114Y-119833761D01*
X159307780Y-120071857D02*
X160164923Y-120071857D01*
X160260161Y-120024238D01*
X160307780Y-119929000D01*
X160307780Y-119833761D01*
X160260161Y-119119476D02*
X160307780Y-119214714D01*
X160307780Y-119405190D01*
X160260161Y-119500428D01*
X160164923Y-119548047D01*
X159783971Y-119548047D01*
X159688733Y-119500428D01*
X159641114Y-119405190D01*
X159641114Y-119214714D01*
X159688733Y-119119476D01*
X159783971Y-119071857D01*
X159879209Y-119071857D01*
X159974447Y-119548047D01*
X159783971Y-117548047D02*
X159831590Y-117405190D01*
X159879209Y-117357571D01*
X159974447Y-117309952D01*
X160117304Y-117309952D01*
X160212542Y-117357571D01*
X160260161Y-117405190D01*
X160307780Y-117500428D01*
X160307780Y-117881380D01*
X159307780Y-117881380D01*
X159307780Y-117548047D01*
X159355400Y-117452809D01*
X159403019Y-117405190D01*
X159498257Y-117357571D01*
X159593495Y-117357571D01*
X159688733Y-117405190D01*
X159736352Y-117452809D01*
X159783971Y-117548047D01*
X159783971Y-117881380D01*
X160307780Y-116738523D02*
X160260161Y-116833761D01*
X160212542Y-116881380D01*
X160117304Y-116929000D01*
X159831590Y-116929000D01*
X159736352Y-116881380D01*
X159688733Y-116833761D01*
X159641114Y-116738523D01*
X159641114Y-116595666D01*
X159688733Y-116500428D01*
X159736352Y-116452809D01*
X159831590Y-116405190D01*
X160117304Y-116405190D01*
X160212542Y-116452809D01*
X160260161Y-116500428D01*
X160307780Y-116595666D01*
X160307780Y-116738523D01*
X160307780Y-115548047D02*
X159783971Y-115548047D01*
X159688733Y-115595666D01*
X159641114Y-115690904D01*
X159641114Y-115881380D01*
X159688733Y-115976619D01*
X160260161Y-115548047D02*
X160307780Y-115643285D01*
X160307780Y-115881380D01*
X160260161Y-115976619D01*
X160164923Y-116024238D01*
X160069685Y-116024238D01*
X159974447Y-115976619D01*
X159926828Y-115881380D01*
X159926828Y-115643285D01*
X159879209Y-115548047D01*
X160307780Y-115071857D02*
X159641114Y-115071857D01*
X159831590Y-115071857D02*
X159736352Y-115024238D01*
X159688733Y-114976619D01*
X159641114Y-114881380D01*
X159641114Y-114786142D01*
X160307780Y-114024238D02*
X159307780Y-114024238D01*
X160260161Y-114024238D02*
X160307780Y-114119476D01*
X160307780Y-114309952D01*
X160260161Y-114405190D01*
X160212542Y-114452809D01*
X160117304Y-114500428D01*
X159831590Y-114500428D01*
X159736352Y-114452809D01*
X159688733Y-114405190D01*
X159641114Y-114309952D01*
X159641114Y-114119476D01*
X159688733Y-114024238D01*
X161957780Y-137286142D02*
X160957780Y-137286142D01*
X161672066Y-136952809D01*
X160957780Y-136619476D01*
X161957780Y-136619476D01*
X161957780Y-135714714D02*
X161433971Y-135714714D01*
X161338733Y-135762333D01*
X161291114Y-135857571D01*
X161291114Y-136048047D01*
X161338733Y-136143285D01*
X161910161Y-135714714D02*
X161957780Y-135809952D01*
X161957780Y-136048047D01*
X161910161Y-136143285D01*
X161814923Y-136190904D01*
X161719685Y-136190904D01*
X161624447Y-136143285D01*
X161576828Y-136048047D01*
X161576828Y-135809952D01*
X161529209Y-135714714D01*
X161910161Y-135286142D02*
X161957780Y-135190904D01*
X161957780Y-135000428D01*
X161910161Y-134905190D01*
X161814923Y-134857571D01*
X161767304Y-134857571D01*
X161672066Y-134905190D01*
X161624447Y-135000428D01*
X161624447Y-135143285D01*
X161576828Y-135238523D01*
X161481590Y-135286142D01*
X161433971Y-135286142D01*
X161338733Y-135238523D01*
X161291114Y-135143285D01*
X161291114Y-135000428D01*
X161338733Y-134905190D01*
X161957780Y-134000428D02*
X161433971Y-134000428D01*
X161338733Y-134048047D01*
X161291114Y-134143285D01*
X161291114Y-134333761D01*
X161338733Y-134429000D01*
X161910161Y-134000428D02*
X161957780Y-134095666D01*
X161957780Y-134333761D01*
X161910161Y-134429000D01*
X161814923Y-134476619D01*
X161719685Y-134476619D01*
X161624447Y-134429000D01*
X161576828Y-134333761D01*
X161576828Y-134095666D01*
X161529209Y-134000428D01*
X161291114Y-133619476D02*
X161957780Y-133381380D01*
X161291114Y-133143285D02*
X161957780Y-133381380D01*
X162195876Y-133476619D01*
X162243495Y-133524238D01*
X162291114Y-133619476D01*
X161291114Y-132333761D02*
X161957780Y-132333761D01*
X161291114Y-132762333D02*
X161814923Y-132762333D01*
X161910161Y-132714714D01*
X161957780Y-132619476D01*
X161957780Y-132476619D01*
X161910161Y-132381380D01*
X161862542Y-132333761D01*
X161957780Y-131857571D02*
X160957780Y-131857571D01*
X161576828Y-131762333D02*
X161957780Y-131476619D01*
X161291114Y-131476619D02*
X161672066Y-131857571D01*
X161957780Y-131048047D02*
X161291114Y-131048047D01*
X160957780Y-131048047D02*
X161005400Y-131095666D01*
X161053019Y-131048047D01*
X161005400Y-131000428D01*
X160957780Y-131048047D01*
X161053019Y-131048047D01*
X160957780Y-129952809D02*
X160957780Y-129381380D01*
X161957780Y-129667095D02*
X160957780Y-129667095D01*
X161957780Y-128619476D02*
X161433971Y-128619476D01*
X161338733Y-128667095D01*
X161291114Y-128762333D01*
X161291114Y-128952809D01*
X161338733Y-129048047D01*
X161910161Y-128619476D02*
X161957780Y-128714714D01*
X161957780Y-128952809D01*
X161910161Y-129048047D01*
X161814923Y-129095666D01*
X161719685Y-129095666D01*
X161624447Y-129048047D01*
X161576828Y-128952809D01*
X161576828Y-128714714D01*
X161529209Y-128619476D01*
X161957780Y-128143285D02*
X160957780Y-128143285D01*
X161576828Y-128048047D02*
X161957780Y-127762333D01*
X161291114Y-127762333D02*
X161672066Y-128143285D01*
X161957780Y-126905190D02*
X161433971Y-126905190D01*
X161338733Y-126952809D01*
X161291114Y-127048047D01*
X161291114Y-127238523D01*
X161338733Y-127333761D01*
X161910161Y-126905190D02*
X161957780Y-127000428D01*
X161957780Y-127238523D01*
X161910161Y-127333761D01*
X161814923Y-127381380D01*
X161719685Y-127381380D01*
X161624447Y-127333761D01*
X161576828Y-127238523D01*
X161576828Y-127000428D01*
X161529209Y-126905190D01*
X161291114Y-126000428D02*
X162100638Y-126000428D01*
X162195876Y-126048047D01*
X162243495Y-126095666D01*
X162291114Y-126190904D01*
X162291114Y-126333761D01*
X162243495Y-126429000D01*
X161910161Y-126000428D02*
X161957780Y-126095666D01*
X161957780Y-126286142D01*
X161910161Y-126381380D01*
X161862542Y-126429000D01*
X161767304Y-126476619D01*
X161481590Y-126476619D01*
X161386352Y-126429000D01*
X161338733Y-126381380D01*
X161291114Y-126286142D01*
X161291114Y-126095666D01*
X161338733Y-126000428D01*
X161957780Y-125524238D02*
X161291114Y-125524238D01*
X160957780Y-125524238D02*
X161005400Y-125571857D01*
X161053019Y-125524238D01*
X161005400Y-125476619D01*
X160957780Y-125524238D01*
X161053019Y-125524238D01*
X161291114Y-125143285D02*
X161957780Y-124952809D01*
X161481590Y-124762333D01*
X161957780Y-124571857D01*
X161291114Y-124381380D01*
X161957780Y-123571857D02*
X161433971Y-123571857D01*
X161338733Y-123619476D01*
X161291114Y-123714714D01*
X161291114Y-123905190D01*
X161338733Y-124000428D01*
X161910161Y-123571857D02*
X161957780Y-123667095D01*
X161957780Y-123905190D01*
X161910161Y-124000428D01*
X161814923Y-124048047D01*
X161719685Y-124048047D01*
X161624447Y-124000428D01*
X161576828Y-123905190D01*
X161576828Y-123667095D01*
X161529209Y-123571857D01*
X64617695Y-177427000D02*
X64522457Y-177379380D01*
X64379600Y-177379380D01*
X64236742Y-177427000D01*
X64141504Y-177522238D01*
X64093885Y-177617476D01*
X64046266Y-177807952D01*
X64046266Y-177950809D01*
X64093885Y-178141285D01*
X64141504Y-178236523D01*
X64236742Y-178331761D01*
X64379600Y-178379380D01*
X64474838Y-178379380D01*
X64617695Y-178331761D01*
X64665314Y-178284142D01*
X64665314Y-177950809D01*
X64474838Y-177950809D01*
X65093885Y-178379380D02*
X65093885Y-177379380D01*
X65665314Y-178379380D01*
X65665314Y-177379380D01*
X66141504Y-178379380D02*
X66141504Y-177379380D01*
X66379600Y-177379380D01*
X66522457Y-177427000D01*
X66617695Y-177522238D01*
X66665314Y-177617476D01*
X66712933Y-177807952D01*
X66712933Y-177950809D01*
X66665314Y-178141285D01*
X66617695Y-178236523D01*
X66522457Y-178331761D01*
X66379600Y-178379380D01*
X66141504Y-178379380D01*
X157403895Y-173896400D02*
X157308657Y-173848780D01*
X157165800Y-173848780D01*
X157022942Y-173896400D01*
X156927704Y-173991638D01*
X156880085Y-174086876D01*
X156832466Y-174277352D01*
X156832466Y-174420209D01*
X156880085Y-174610685D01*
X156927704Y-174705923D01*
X157022942Y-174801161D01*
X157165800Y-174848780D01*
X157261038Y-174848780D01*
X157403895Y-174801161D01*
X157451514Y-174753542D01*
X157451514Y-174420209D01*
X157261038Y-174420209D01*
X157880085Y-174848780D02*
X157880085Y-173848780D01*
X158451514Y-174848780D01*
X158451514Y-173848780D01*
X158927704Y-174848780D02*
X158927704Y-173848780D01*
X159165800Y-173848780D01*
X159308657Y-173896400D01*
X159403895Y-173991638D01*
X159451514Y-174086876D01*
X159499133Y-174277352D01*
X159499133Y-174420209D01*
X159451514Y-174610685D01*
X159403895Y-174705923D01*
X159308657Y-174801161D01*
X159165800Y-174848780D01*
X158927704Y-174848780D01*
X156260895Y-79002000D02*
X156165657Y-78954380D01*
X156022800Y-78954380D01*
X155879942Y-79002000D01*
X155784704Y-79097238D01*
X155737085Y-79192476D01*
X155689466Y-79382952D01*
X155689466Y-79525809D01*
X155737085Y-79716285D01*
X155784704Y-79811523D01*
X155879942Y-79906761D01*
X156022800Y-79954380D01*
X156118038Y-79954380D01*
X156260895Y-79906761D01*
X156308514Y-79859142D01*
X156308514Y-79525809D01*
X156118038Y-79525809D01*
X156737085Y-79954380D02*
X156737085Y-78954380D01*
X157308514Y-79954380D01*
X157308514Y-78954380D01*
X157784704Y-79954380D02*
X157784704Y-78954380D01*
X158022800Y-78954380D01*
X158165657Y-79002000D01*
X158260895Y-79097238D01*
X158308514Y-79192476D01*
X158356133Y-79382952D01*
X158356133Y-79525809D01*
X158308514Y-79716285D01*
X158260895Y-79811523D01*
X158165657Y-79906761D01*
X158022800Y-79954380D01*
X157784704Y-79954380D01*
X58420095Y-106992800D02*
X58324857Y-106945180D01*
X58182000Y-106945180D01*
X58039142Y-106992800D01*
X57943904Y-107088038D01*
X57896285Y-107183276D01*
X57848666Y-107373752D01*
X57848666Y-107516609D01*
X57896285Y-107707085D01*
X57943904Y-107802323D01*
X58039142Y-107897561D01*
X58182000Y-107945180D01*
X58277238Y-107945180D01*
X58420095Y-107897561D01*
X58467714Y-107849942D01*
X58467714Y-107516609D01*
X58277238Y-107516609D01*
X58896285Y-107945180D02*
X58896285Y-106945180D01*
X59467714Y-107945180D01*
X59467714Y-106945180D01*
X59943904Y-107945180D02*
X59943904Y-106945180D01*
X60182000Y-106945180D01*
X60324857Y-106992800D01*
X60420095Y-107088038D01*
X60467714Y-107183276D01*
X60515333Y-107373752D01*
X60515333Y-107516609D01*
X60467714Y-107707085D01*
X60420095Y-107802323D01*
X60324857Y-107897561D01*
X60182000Y-107945180D01*
X59943904Y-107945180D01*
X45688500Y-180855928D02*
X46450404Y-180855928D01*
X46069452Y-181236880D02*
X46069452Y-180474976D01*
X46831357Y-180236880D02*
X47450404Y-180236880D01*
X47117071Y-180617833D01*
X47259928Y-180617833D01*
X47355166Y-180665452D01*
X47402785Y-180713071D01*
X47450404Y-180808309D01*
X47450404Y-181046404D01*
X47402785Y-181141642D01*
X47355166Y-181189261D01*
X47259928Y-181236880D01*
X46974214Y-181236880D01*
X46878976Y-181189261D01*
X46831357Y-181141642D01*
X47878976Y-181141642D02*
X47926595Y-181189261D01*
X47878976Y-181236880D01*
X47831357Y-181189261D01*
X47878976Y-181141642D01*
X47878976Y-181236880D01*
X48259928Y-180236880D02*
X48878976Y-180236880D01*
X48545642Y-180617833D01*
X48688500Y-180617833D01*
X48783738Y-180665452D01*
X48831357Y-180713071D01*
X48878976Y-180808309D01*
X48878976Y-181046404D01*
X48831357Y-181141642D01*
X48783738Y-181189261D01*
X48688500Y-181236880D01*
X48402785Y-181236880D01*
X48307547Y-181189261D01*
X48259928Y-181141642D01*
X49164690Y-180236880D02*
X49498023Y-181236880D01*
X49831357Y-180236880D01*
X46339285Y-184856428D02*
X47101190Y-184856428D01*
X46720238Y-185237380D02*
X46720238Y-184475476D01*
X48053571Y-184237380D02*
X47577380Y-184237380D01*
X47529761Y-184713571D01*
X47577380Y-184665952D01*
X47672619Y-184618333D01*
X47910714Y-184618333D01*
X48005952Y-184665952D01*
X48053571Y-184713571D01*
X48101190Y-184808809D01*
X48101190Y-185046904D01*
X48053571Y-185142142D01*
X48005952Y-185189761D01*
X47910714Y-185237380D01*
X47672619Y-185237380D01*
X47577380Y-185189761D01*
X47529761Y-185142142D01*
X48386904Y-184237380D02*
X48720238Y-185237380D01*
X49053571Y-184237380D01*
X47760000Y-174196190D02*
X47712380Y-174291428D01*
X47712380Y-174434285D01*
X47760000Y-174577142D01*
X47855238Y-174672380D01*
X47950476Y-174720000D01*
X48140952Y-174767619D01*
X48283809Y-174767619D01*
X48474285Y-174720000D01*
X48569523Y-174672380D01*
X48664761Y-174577142D01*
X48712380Y-174434285D01*
X48712380Y-174339047D01*
X48664761Y-174196190D01*
X48617142Y-174148571D01*
X48283809Y-174148571D01*
X48283809Y-174339047D01*
X48712380Y-173720000D02*
X47712380Y-173720000D01*
X47712380Y-173339047D01*
X47760000Y-173243809D01*
X47807619Y-173196190D01*
X47902857Y-173148571D01*
X48045714Y-173148571D01*
X48140952Y-173196190D01*
X48188571Y-173243809D01*
X48236190Y-173339047D01*
X48236190Y-173720000D01*
X48712380Y-172720000D02*
X47712380Y-172720000D01*
X47712380Y-172053333D02*
X47712380Y-171862857D01*
X47760000Y-171767619D01*
X47855238Y-171672380D01*
X48045714Y-171624761D01*
X48379047Y-171624761D01*
X48569523Y-171672380D01*
X48664761Y-171767619D01*
X48712380Y-171862857D01*
X48712380Y-172053333D01*
X48664761Y-172148571D01*
X48569523Y-172243809D01*
X48379047Y-172291428D01*
X48045714Y-172291428D01*
X47855238Y-172243809D01*
X47760000Y-172148571D01*
X47712380Y-172053333D01*
X47712380Y-171291428D02*
X47712380Y-170624761D01*
X48712380Y-171053333D01*
X51570000Y-174196190D02*
X51522380Y-174291428D01*
X51522380Y-174434285D01*
X51570000Y-174577142D01*
X51665238Y-174672380D01*
X51760476Y-174720000D01*
X51950952Y-174767619D01*
X52093809Y-174767619D01*
X52284285Y-174720000D01*
X52379523Y-174672380D01*
X52474761Y-174577142D01*
X52522380Y-174434285D01*
X52522380Y-174339047D01*
X52474761Y-174196190D01*
X52427142Y-174148571D01*
X52093809Y-174148571D01*
X52093809Y-174339047D01*
X52522380Y-173720000D02*
X51522380Y-173720000D01*
X51522380Y-173339047D01*
X51570000Y-173243809D01*
X51617619Y-173196190D01*
X51712857Y-173148571D01*
X51855714Y-173148571D01*
X51950952Y-173196190D01*
X51998571Y-173243809D01*
X52046190Y-173339047D01*
X52046190Y-173720000D01*
X52522380Y-172720000D02*
X51522380Y-172720000D01*
X51522380Y-172053333D02*
X51522380Y-171862857D01*
X51570000Y-171767619D01*
X51665238Y-171672380D01*
X51855714Y-171624761D01*
X52189047Y-171624761D01*
X52379523Y-171672380D01*
X52474761Y-171767619D01*
X52522380Y-171862857D01*
X52522380Y-172053333D01*
X52474761Y-172148571D01*
X52379523Y-172243809D01*
X52189047Y-172291428D01*
X51855714Y-172291428D01*
X51665238Y-172243809D01*
X51570000Y-172148571D01*
X51522380Y-172053333D01*
X51522380Y-170767619D02*
X51522380Y-170958095D01*
X51570000Y-171053333D01*
X51617619Y-171100952D01*
X51760476Y-171196190D01*
X51950952Y-171243809D01*
X52331904Y-171243809D01*
X52427142Y-171196190D01*
X52474761Y-171148571D01*
X52522380Y-171053333D01*
X52522380Y-170862857D01*
X52474761Y-170767619D01*
X52427142Y-170720000D01*
X52331904Y-170672380D01*
X52093809Y-170672380D01*
X51998571Y-170720000D01*
X51950952Y-170767619D01*
X51903333Y-170862857D01*
X51903333Y-171053333D01*
X51950952Y-171148571D01*
X51998571Y-171196190D01*
X52093809Y-171243809D01*
X55380000Y-174196190D02*
X55332380Y-174291428D01*
X55332380Y-174434285D01*
X55380000Y-174577142D01*
X55475238Y-174672380D01*
X55570476Y-174720000D01*
X55760952Y-174767619D01*
X55903809Y-174767619D01*
X56094285Y-174720000D01*
X56189523Y-174672380D01*
X56284761Y-174577142D01*
X56332380Y-174434285D01*
X56332380Y-174339047D01*
X56284761Y-174196190D01*
X56237142Y-174148571D01*
X55903809Y-174148571D01*
X55903809Y-174339047D01*
X56332380Y-173720000D02*
X55332380Y-173720000D01*
X55332380Y-173339047D01*
X55380000Y-173243809D01*
X55427619Y-173196190D01*
X55522857Y-173148571D01*
X55665714Y-173148571D01*
X55760952Y-173196190D01*
X55808571Y-173243809D01*
X55856190Y-173339047D01*
X55856190Y-173720000D01*
X56332380Y-172720000D02*
X55332380Y-172720000D01*
X55332380Y-172053333D02*
X55332380Y-171862857D01*
X55380000Y-171767619D01*
X55475238Y-171672380D01*
X55665714Y-171624761D01*
X55999047Y-171624761D01*
X56189523Y-171672380D01*
X56284761Y-171767619D01*
X56332380Y-171862857D01*
X56332380Y-172053333D01*
X56284761Y-172148571D01*
X56189523Y-172243809D01*
X55999047Y-172291428D01*
X55665714Y-172291428D01*
X55475238Y-172243809D01*
X55380000Y-172148571D01*
X55332380Y-172053333D01*
X55332380Y-170720000D02*
X55332380Y-171196190D01*
X55808571Y-171243809D01*
X55760952Y-171196190D01*
X55713333Y-171100952D01*
X55713333Y-170862857D01*
X55760952Y-170767619D01*
X55808571Y-170720000D01*
X55903809Y-170672380D01*
X56141904Y-170672380D01*
X56237142Y-170720000D01*
X56284761Y-170767619D01*
X56332380Y-170862857D01*
X56332380Y-171100952D01*
X56284761Y-171196190D01*
X56237142Y-171243809D01*
X59190000Y-174196190D02*
X59142380Y-174291428D01*
X59142380Y-174434285D01*
X59190000Y-174577142D01*
X59285238Y-174672380D01*
X59380476Y-174720000D01*
X59570952Y-174767619D01*
X59713809Y-174767619D01*
X59904285Y-174720000D01*
X59999523Y-174672380D01*
X60094761Y-174577142D01*
X60142380Y-174434285D01*
X60142380Y-174339047D01*
X60094761Y-174196190D01*
X60047142Y-174148571D01*
X59713809Y-174148571D01*
X59713809Y-174339047D01*
X60142380Y-173720000D02*
X59142380Y-173720000D01*
X59142380Y-173339047D01*
X59190000Y-173243809D01*
X59237619Y-173196190D01*
X59332857Y-173148571D01*
X59475714Y-173148571D01*
X59570952Y-173196190D01*
X59618571Y-173243809D01*
X59666190Y-173339047D01*
X59666190Y-173720000D01*
X60142380Y-172720000D02*
X59142380Y-172720000D01*
X59142380Y-172053333D02*
X59142380Y-171862857D01*
X59190000Y-171767619D01*
X59285238Y-171672380D01*
X59475714Y-171624761D01*
X59809047Y-171624761D01*
X59999523Y-171672380D01*
X60094761Y-171767619D01*
X60142380Y-171862857D01*
X60142380Y-172053333D01*
X60094761Y-172148571D01*
X59999523Y-172243809D01*
X59809047Y-172291428D01*
X59475714Y-172291428D01*
X59285238Y-172243809D01*
X59190000Y-172148571D01*
X59142380Y-172053333D01*
X59475714Y-170767619D02*
X60142380Y-170767619D01*
X59094761Y-171005714D02*
X59809047Y-171243809D01*
X59809047Y-170624761D01*
D11*
G04 #@! TO.C,IC1*
X54817400Y-146090000D02*
X58517400Y-146090000D01*
X58517400Y-146090000D02*
X58517400Y-151090000D01*
X58517400Y-151090000D02*
X54817400Y-151090000D01*
X54817400Y-151090000D02*
X54817400Y-146090000D01*
X52992400Y-146065000D02*
X54467400Y-146065000D01*
D12*
G04 #@! TO.C,R10*
X89907400Y-177392064D02*
X89907400Y-176937936D01*
X91377400Y-177392064D02*
X91377400Y-176937936D01*
G04 #@! TO.C,U6*
X87718000Y-155257000D02*
X139718000Y-155257000D01*
X139718000Y-128257000D02*
X87718000Y-128257000D01*
X87718000Y-128257000D02*
X87718000Y-155257000D01*
X139718000Y-155257000D02*
X139718000Y-128257000D01*
G04 #@! TO.C,U3*
X139716000Y-108387800D02*
X139716000Y-81387800D01*
X87716000Y-81387800D02*
X87716000Y-108387800D01*
X139716000Y-81387800D02*
X87716000Y-81387800D01*
X87716000Y-108387800D02*
X139716000Y-108387800D01*
G04 #@! TO.C,C1*
X49769752Y-152300000D02*
X49247248Y-152300000D01*
X49769752Y-153770000D02*
X49247248Y-153770000D01*
G04 #@! TO.C,C2*
X63641248Y-159485000D02*
X64163752Y-159485000D01*
X63641248Y-158015000D02*
X64163752Y-158015000D01*
G04 #@! TO.C,C3*
X63565048Y-152935000D02*
X64087552Y-152935000D01*
X63565048Y-154405000D02*
X64087552Y-154405000D01*
G04 #@! TO.C,C4*
X63641248Y-144680000D02*
X64163752Y-144680000D01*
X63641248Y-146150000D02*
X64163752Y-146150000D01*
G04 #@! TO.C,C5*
X58837552Y-143562000D02*
X58315048Y-143562000D01*
X58837552Y-145032000D02*
X58315048Y-145032000D01*
G04 #@! TO.C,C6*
X58385252Y-158469000D02*
X57862748Y-158469000D01*
X58385252Y-156999000D02*
X57862748Y-156999000D01*
G04 #@! TO.C,D1*
X58745000Y-173929000D02*
X58745000Y-171069000D01*
X58745000Y-171069000D02*
X56825000Y-171069000D01*
X56825000Y-171069000D02*
X56825000Y-173929000D01*
G04 #@! TO.C,D2*
X53015000Y-171069000D02*
X53015000Y-173929000D01*
X54935000Y-171069000D02*
X53015000Y-171069000D01*
X54935000Y-173929000D02*
X54935000Y-171069000D01*
G04 #@! TO.C,D3*
X51125000Y-173929000D02*
X51125000Y-171069000D01*
X51125000Y-171069000D02*
X49205000Y-171069000D01*
X49205000Y-171069000D02*
X49205000Y-173929000D01*
G04 #@! TO.C,D4*
X45395000Y-171069000D02*
X45395000Y-173929000D01*
X47315000Y-171069000D02*
X45395000Y-171069000D01*
X47315000Y-173929000D02*
X47315000Y-171069000D01*
D11*
G04 #@! TO.C,IC2*
X52535200Y-159400000D02*
X54010200Y-159400000D01*
X54360200Y-164425000D02*
X54360200Y-159425000D01*
X58060200Y-164425000D02*
X54360200Y-164425000D01*
X58060200Y-159425000D02*
X58060200Y-164425000D01*
X54360200Y-159425000D02*
X58060200Y-159425000D01*
D12*
G04 #@! TO.C,J1*
X119694000Y-183120000D02*
X119694000Y-184450000D01*
X118364000Y-183120000D02*
X119694000Y-183120000D01*
X119694000Y-185720000D02*
X119694000Y-188320000D01*
X117094000Y-185720000D02*
X119694000Y-185720000D01*
X117094000Y-183120000D02*
X117094000Y-185720000D01*
X119694000Y-188320000D02*
X68774000Y-188320000D01*
X117094000Y-183120000D02*
X68774000Y-183120000D01*
X68774000Y-183120000D02*
X68774000Y-188320000D01*
G04 #@! TO.C,J2*
X132014000Y-181864000D02*
G75*
G03*
X132014000Y-181864000I-950000J0D01*
G01*
G04 #@! TO.C,J3*
X132014000Y-179324000D02*
G75*
G03*
X132014000Y-179324000I-950000J0D01*
G01*
G04 #@! TO.C,J4*
X138364000Y-181864000D02*
G75*
G03*
X138364000Y-181864000I-950000J0D01*
G01*
G04 #@! TO.C,J5*
X138364000Y-179324000D02*
G75*
G03*
X138364000Y-179324000I-950000J0D01*
G01*
G04 #@! TO.C,J6*
X151064000Y-174244000D02*
G75*
G03*
X151064000Y-174244000I-950000J0D01*
G01*
G04 #@! TO.C,J7*
X151064000Y-186944000D02*
G75*
G03*
X151064000Y-186944000I-950000J0D01*
G01*
G04 #@! TO.C,J8*
X151064000Y-179324000D02*
G75*
G03*
X151064000Y-179324000I-950000J0D01*
G01*
G04 #@! TO.C,J9*
X151064000Y-181864000D02*
G75*
G03*
X151064000Y-181864000I-950000J0D01*
G01*
G04 #@! TO.C,J10*
X151064000Y-176784000D02*
G75*
G03*
X151064000Y-176784000I-950000J0D01*
G01*
G04 #@! TO.C,J11*
X151064000Y-171704000D02*
G75*
G03*
X151064000Y-171704000I-950000J0D01*
G01*
G04 #@! TO.C,J12*
X151089000Y-184404000D02*
G75*
G03*
X151089000Y-184404000I-950000J0D01*
G01*
G04 #@! TO.C,J13*
X144714000Y-186944000D02*
G75*
G03*
X144714000Y-186944000I-950000J0D01*
G01*
G04 #@! TO.C,J14*
X144714000Y-184404000D02*
G75*
G03*
X144714000Y-184404000I-950000J0D01*
G01*
G04 #@! TO.C,J15*
X144714000Y-181864000D02*
G75*
G03*
X144714000Y-181864000I-950000J0D01*
G01*
G04 #@! TO.C,J16*
X144714000Y-179324000D02*
G75*
G03*
X144714000Y-179324000I-950000J0D01*
G01*
G04 #@! TO.C,J17*
X51115000Y-163195000D02*
G75*
G03*
X51115000Y-163195000I-950000J0D01*
G01*
G04 #@! TO.C,J18*
X54925000Y-166370000D02*
G75*
G03*
X54925000Y-166370000I-950000J0D01*
G01*
G04 #@! TO.C,J19*
X63307000Y-163830000D02*
G75*
G03*
X63307000Y-163830000I-950000J0D01*
G01*
G04 #@! TO.C,J20*
X59370000Y-166370000D02*
G75*
G03*
X59370000Y-166370000I-950000J0D01*
G01*
G04 #@! TO.C,J21*
X86040000Y-133350000D02*
G75*
G03*
X86040000Y-133350000I-950000J0D01*
G01*
G04 #@! TO.C,R1*
X92193400Y-176937936D02*
X92193400Y-177392064D01*
X93663400Y-176937936D02*
X93663400Y-177392064D01*
G04 #@! TO.C,R2*
X49757064Y-151230000D02*
X49302936Y-151230000D01*
X49757064Y-149760000D02*
X49302936Y-149760000D01*
G04 #@! TO.C,R3*
X98220200Y-177392064D02*
X98220200Y-176937936D01*
X96750200Y-177392064D02*
X96750200Y-176937936D01*
G04 #@! TO.C,R4*
X63997064Y-150395000D02*
X63542936Y-150395000D01*
X63997064Y-151865000D02*
X63542936Y-151865000D01*
G04 #@! TO.C,R5*
X64092064Y-162025000D02*
X63637936Y-162025000D01*
X64092064Y-160555000D02*
X63637936Y-160555000D01*
G04 #@! TO.C,R6*
X95949400Y-177408064D02*
X95949400Y-176953936D01*
X94479400Y-177408064D02*
X94479400Y-176953936D01*
G04 #@! TO.C,R7*
X55780000Y-153532064D02*
X55780000Y-153077936D01*
X57250000Y-153532064D02*
X57250000Y-153077936D01*
G04 #@! TO.C,R8*
X49122064Y-161390000D02*
X48667936Y-161390000D01*
X49122064Y-159920000D02*
X48667936Y-159920000D01*
G04 #@! TO.C,R9*
X106250000Y-176946936D02*
X106250000Y-177401064D01*
X107720000Y-176946936D02*
X107720000Y-177401064D01*
G04 #@! TO.C,R11*
X64092064Y-147220000D02*
X63637936Y-147220000D01*
X64092064Y-148690000D02*
X63637936Y-148690000D01*
G04 #@! TO.C,R12*
X108841000Y-176946936D02*
X108841000Y-177401064D01*
X110311000Y-176946936D02*
X110311000Y-177401064D01*
G04 #@! TO.C,R13*
X49757064Y-147220000D02*
X49302936Y-147220000D01*
X49757064Y-148690000D02*
X49302936Y-148690000D01*
G04 #@! TO.C,R14*
X65403400Y-98842336D02*
X65403400Y-99296464D01*
X63933400Y-98842336D02*
X63933400Y-99296464D01*
G04 #@! TO.C,R15*
X70483400Y-99077536D02*
X70483400Y-99531664D01*
X69013400Y-99077536D02*
X69013400Y-99531664D01*
G04 #@! TO.C,R16*
X71553400Y-99077536D02*
X71553400Y-99531664D01*
X73023400Y-99077536D02*
X73023400Y-99531664D01*
G04 #@! TO.C,R17*
X75538000Y-98975936D02*
X75538000Y-99430064D01*
X74068000Y-98975936D02*
X74068000Y-99430064D01*
G04 #@! TO.C,R18*
X71000864Y-88139600D02*
X70546736Y-88139600D01*
X71000864Y-89609600D02*
X70546736Y-89609600D01*
G04 #@! TO.C,R19*
X65403400Y-87606136D02*
X65403400Y-88060264D01*
X63933400Y-87606136D02*
X63933400Y-88060264D01*
G04 #@! TO.C,R20*
X57050000Y-178261064D02*
X57050000Y-177806936D01*
X58520000Y-178261064D02*
X58520000Y-177806936D01*
G04 #@! TO.C,R21*
X54720000Y-178261064D02*
X54720000Y-177806936D01*
X53250000Y-178261064D02*
X53250000Y-177806936D01*
G04 #@! TO.C,R22*
X49430000Y-178261064D02*
X49430000Y-177806936D01*
X50900000Y-178261064D02*
X50900000Y-177806936D01*
G04 #@! TO.C,R23*
X47090000Y-178261064D02*
X47090000Y-177806936D01*
X45620000Y-178261064D02*
X45620000Y-177806936D01*
G04 #@! TO.C,R24*
X87313400Y-176953936D02*
X87313400Y-177408064D01*
X85843400Y-176953936D02*
X85843400Y-177408064D01*
G04 #@! TO.C,R25*
X83557400Y-176953936D02*
X83557400Y-177408064D01*
X85027400Y-176953936D02*
X85027400Y-177408064D01*
G04 #@! TO.C,R26*
X46852064Y-163930000D02*
X46397936Y-163930000D01*
X46852064Y-162460000D02*
X46397936Y-162460000D01*
G04 #@! TO.C,R27*
X66632064Y-163095000D02*
X66177936Y-163095000D01*
X66632064Y-164565000D02*
X66177936Y-164565000D01*
G04 #@! TO.C,U1*
X101060000Y-85036100D02*
X102390000Y-85036100D01*
X101060000Y-86366100D02*
X101060000Y-85036100D01*
X101060000Y-87636100D02*
X103720000Y-87636100D01*
X103720000Y-87636100D02*
X103720000Y-100396100D01*
X101060000Y-87636100D02*
X101060000Y-100396100D01*
X101060000Y-100396100D02*
X103720000Y-100396100D01*
G04 #@! TO.C,U2*
X49988400Y-78257400D02*
X49988400Y-98277400D01*
X75958400Y-78257400D02*
X49988400Y-78257400D01*
X75958400Y-98277400D02*
X49988400Y-98277400D01*
X75958400Y-78257400D02*
X75958400Y-98277400D01*
G04 #@! TO.C,U4*
X87961200Y-100396100D02*
X90621200Y-100396100D01*
X87961200Y-87636100D02*
X87961200Y-100396100D01*
X90621200Y-87636100D02*
X90621200Y-100396100D01*
X87961200Y-87636100D02*
X90621200Y-87636100D01*
X87961200Y-86366100D02*
X87961200Y-85036100D01*
X87961200Y-85036100D02*
X89291200Y-85036100D01*
G04 #@! TO.C,U5*
X101060000Y-131916000D02*
X102390000Y-131916000D01*
X101060000Y-133246000D02*
X101060000Y-131916000D01*
X101060000Y-134516000D02*
X103720000Y-134516000D01*
X103720000Y-134516000D02*
X103720000Y-147276000D01*
X101060000Y-134516000D02*
X101060000Y-147276000D01*
X101060000Y-147276000D02*
X103720000Y-147276000D01*
G04 #@! TO.C,U7*
X87968800Y-147271000D02*
X90628800Y-147271000D01*
X87968800Y-134511000D02*
X87968800Y-147271000D01*
X90628800Y-134511000D02*
X90628800Y-147271000D01*
X87968800Y-134511000D02*
X90628800Y-134511000D01*
X87968800Y-133241000D02*
X87968800Y-131911000D01*
X87968800Y-131911000D02*
X89298800Y-131911000D01*
G04 #@! TO.C,D5*
X46010000Y-187650000D02*
X48870000Y-187650000D01*
X46010000Y-185730000D02*
X46010000Y-187650000D01*
X48870000Y-185730000D02*
X46010000Y-185730000D01*
G04 #@! TO.C,D6*
X46073500Y-183650000D02*
X48933500Y-183650000D01*
X46073500Y-181730000D02*
X46073500Y-183650000D01*
X48933500Y-181730000D02*
X46073500Y-181730000D01*
G04 #@! TO.C,D7*
X80970000Y-85121200D02*
X80970000Y-82261200D01*
X79050000Y-85121200D02*
X80970000Y-85121200D01*
X79050000Y-82261200D02*
X79050000Y-85121200D01*
G04 #@! TO.C,D8*
X80320000Y-128295000D02*
X80320000Y-131155000D01*
X80320000Y-131155000D02*
X82240000Y-131155000D01*
X82240000Y-131155000D02*
X82240000Y-128295000D01*
G04 #@! TO.C,R28*
X53246264Y-185955000D02*
X52792136Y-185955000D01*
X53246264Y-187425000D02*
X52792136Y-187425000D01*
G04 #@! TO.C,R29*
X53265564Y-181955000D02*
X52811436Y-181955000D01*
X53265564Y-183425000D02*
X52811436Y-183425000D01*
G04 #@! TO.C,R30*
X83288200Y-83472264D02*
X83288200Y-83018136D01*
X84758200Y-83472264D02*
X84758200Y-83018136D01*
G04 #@! TO.C,R31*
X85825000Y-129462064D02*
X85825000Y-129007936D01*
X84355000Y-129462064D02*
X84355000Y-129007936D01*
G04 #@! TO.C,J22*
X60132000Y-105664000D02*
G75*
G03*
X60132000Y-105664000I-950000J0D01*
G01*
G04 #@! TO.C,J23*
X66228000Y-175768000D02*
G75*
G03*
X66228000Y-175768000I-950000J0D01*
G01*
G04 #@! TO.C,J24*
X157922000Y-77470000D02*
G75*
G03*
X157922000Y-77470000I-950000J0D01*
G01*
G04 #@! TO.C,J25*
X156144000Y-174244000D02*
G75*
G03*
X156144000Y-174244000I-950000J0D01*
G01*
G04 #@! TO.C,IC1*
D13*
X55427638Y-149164523D02*
X55427638Y-147894523D01*
X56758114Y-149043571D02*
X56697638Y-149104047D01*
X56516209Y-149164523D01*
X56395257Y-149164523D01*
X56213828Y-149104047D01*
X56092876Y-148983095D01*
X56032400Y-148862142D01*
X55971923Y-148620238D01*
X55971923Y-148438809D01*
X56032400Y-148196904D01*
X56092876Y-148075952D01*
X56213828Y-147955000D01*
X56395257Y-147894523D01*
X56516209Y-147894523D01*
X56697638Y-147955000D01*
X56758114Y-148015476D01*
X57967638Y-149164523D02*
X57241923Y-149164523D01*
X57604780Y-149164523D02*
X57604780Y-147894523D01*
X57483828Y-148075952D01*
X57362876Y-148196904D01*
X57241923Y-148257380D01*
G04 #@! TO.C,R10*
D10*
X91247180Y-174235857D02*
X90770990Y-174569190D01*
X91247180Y-174807285D02*
X90247180Y-174807285D01*
X90247180Y-174426333D01*
X90294800Y-174331095D01*
X90342419Y-174283476D01*
X90437657Y-174235857D01*
X90580514Y-174235857D01*
X90675752Y-174283476D01*
X90723371Y-174331095D01*
X90770990Y-174426333D01*
X90770990Y-174807285D01*
X91247180Y-173283476D02*
X91247180Y-173854904D01*
X91247180Y-173569190D02*
X90247180Y-173569190D01*
X90390038Y-173664428D01*
X90485276Y-173759666D01*
X90532895Y-173854904D01*
X90247180Y-172664428D02*
X90247180Y-172569190D01*
X90294800Y-172473952D01*
X90342419Y-172426333D01*
X90437657Y-172378714D01*
X90628133Y-172331095D01*
X90866228Y-172331095D01*
X91056704Y-172378714D01*
X91151942Y-172426333D01*
X91199561Y-172473952D01*
X91247180Y-172569190D01*
X91247180Y-172664428D01*
X91199561Y-172759666D01*
X91151942Y-172807285D01*
X91056704Y-172854904D01*
X90866228Y-172902523D01*
X90628133Y-172902523D01*
X90437657Y-172854904D01*
X90342419Y-172807285D01*
X90294800Y-172759666D01*
X90247180Y-172664428D01*
G04 #@! TO.C,U6*
X86355380Y-142518904D02*
X87164904Y-142518904D01*
X87260142Y-142471285D01*
X87307761Y-142423666D01*
X87355380Y-142328428D01*
X87355380Y-142137952D01*
X87307761Y-142042714D01*
X87260142Y-141995095D01*
X87164904Y-141947476D01*
X86355380Y-141947476D01*
X86355380Y-141042714D02*
X86355380Y-141233190D01*
X86403000Y-141328428D01*
X86450619Y-141376047D01*
X86593476Y-141471285D01*
X86783952Y-141518904D01*
X87164904Y-141518904D01*
X87260142Y-141471285D01*
X87307761Y-141423666D01*
X87355380Y-141328428D01*
X87355380Y-141137952D01*
X87307761Y-141042714D01*
X87260142Y-140995095D01*
X87164904Y-140947476D01*
X86926809Y-140947476D01*
X86831571Y-140995095D01*
X86783952Y-141042714D01*
X86736333Y-141137952D01*
X86736333Y-141328428D01*
X86783952Y-141423666D01*
X86831571Y-141471285D01*
X86926809Y-141518904D01*
G04 #@! TO.C,U3*
X86353380Y-95649704D02*
X87162904Y-95649704D01*
X87258142Y-95602085D01*
X87305761Y-95554466D01*
X87353380Y-95459228D01*
X87353380Y-95268752D01*
X87305761Y-95173514D01*
X87258142Y-95125895D01*
X87162904Y-95078276D01*
X86353380Y-95078276D01*
X86353380Y-94697323D02*
X86353380Y-94078276D01*
X86734333Y-94411609D01*
X86734333Y-94268752D01*
X86781952Y-94173514D01*
X86829571Y-94125895D01*
X86924809Y-94078276D01*
X87162904Y-94078276D01*
X87258142Y-94125895D01*
X87305761Y-94173514D01*
X87353380Y-94268752D01*
X87353380Y-94554466D01*
X87305761Y-94649704D01*
X87258142Y-94697323D01*
G04 #@! TO.C,C1*
X46145333Y-153392142D02*
X46097714Y-153439761D01*
X45954857Y-153487380D01*
X45859619Y-153487380D01*
X45716761Y-153439761D01*
X45621523Y-153344523D01*
X45573904Y-153249285D01*
X45526285Y-153058809D01*
X45526285Y-152915952D01*
X45573904Y-152725476D01*
X45621523Y-152630238D01*
X45716761Y-152535000D01*
X45859619Y-152487380D01*
X45954857Y-152487380D01*
X46097714Y-152535000D01*
X46145333Y-152582619D01*
X47097714Y-153487380D02*
X46526285Y-153487380D01*
X46812000Y-153487380D02*
X46812000Y-152487380D01*
X46716761Y-152630238D01*
X46621523Y-152725476D01*
X46526285Y-152773095D01*
G04 #@! TO.C,C2*
X67143333Y-159107142D02*
X67095714Y-159154761D01*
X66952857Y-159202380D01*
X66857619Y-159202380D01*
X66714761Y-159154761D01*
X66619523Y-159059523D01*
X66571904Y-158964285D01*
X66524285Y-158773809D01*
X66524285Y-158630952D01*
X66571904Y-158440476D01*
X66619523Y-158345238D01*
X66714761Y-158250000D01*
X66857619Y-158202380D01*
X66952857Y-158202380D01*
X67095714Y-158250000D01*
X67143333Y-158297619D01*
X67524285Y-158297619D02*
X67571904Y-158250000D01*
X67667142Y-158202380D01*
X67905238Y-158202380D01*
X68000476Y-158250000D01*
X68048095Y-158297619D01*
X68095714Y-158392857D01*
X68095714Y-158488095D01*
X68048095Y-158630952D01*
X67476666Y-159202380D01*
X68095714Y-159202380D01*
G04 #@! TO.C,C3*
X67092533Y-154001742D02*
X67044914Y-154049361D01*
X66902057Y-154096980D01*
X66806819Y-154096980D01*
X66663961Y-154049361D01*
X66568723Y-153954123D01*
X66521104Y-153858885D01*
X66473485Y-153668409D01*
X66473485Y-153525552D01*
X66521104Y-153335076D01*
X66568723Y-153239838D01*
X66663961Y-153144600D01*
X66806819Y-153096980D01*
X66902057Y-153096980D01*
X67044914Y-153144600D01*
X67092533Y-153192219D01*
X67425866Y-153096980D02*
X68044914Y-153096980D01*
X67711580Y-153477933D01*
X67854438Y-153477933D01*
X67949676Y-153525552D01*
X67997295Y-153573171D01*
X68044914Y-153668409D01*
X68044914Y-153906504D01*
X67997295Y-154001742D01*
X67949676Y-154049361D01*
X67854438Y-154096980D01*
X67568723Y-154096980D01*
X67473485Y-154049361D01*
X67425866Y-154001742D01*
G04 #@! TO.C,C4*
X67143333Y-145772142D02*
X67095714Y-145819761D01*
X66952857Y-145867380D01*
X66857619Y-145867380D01*
X66714761Y-145819761D01*
X66619523Y-145724523D01*
X66571904Y-145629285D01*
X66524285Y-145438809D01*
X66524285Y-145295952D01*
X66571904Y-145105476D01*
X66619523Y-145010238D01*
X66714761Y-144915000D01*
X66857619Y-144867380D01*
X66952857Y-144867380D01*
X67095714Y-144915000D01*
X67143333Y-144962619D01*
X68000476Y-145200714D02*
X68000476Y-145867380D01*
X67762380Y-144819761D02*
X67524285Y-145534047D01*
X68143333Y-145534047D01*
G04 #@! TO.C,C5*
X55281533Y-144654142D02*
X55233914Y-144701761D01*
X55091057Y-144749380D01*
X54995819Y-144749380D01*
X54852961Y-144701761D01*
X54757723Y-144606523D01*
X54710104Y-144511285D01*
X54662485Y-144320809D01*
X54662485Y-144177952D01*
X54710104Y-143987476D01*
X54757723Y-143892238D01*
X54852961Y-143797000D01*
X54995819Y-143749380D01*
X55091057Y-143749380D01*
X55233914Y-143797000D01*
X55281533Y-143844619D01*
X56186295Y-143749380D02*
X55710104Y-143749380D01*
X55662485Y-144225571D01*
X55710104Y-144177952D01*
X55805342Y-144130333D01*
X56043438Y-144130333D01*
X56138676Y-144177952D01*
X56186295Y-144225571D01*
X56233914Y-144320809D01*
X56233914Y-144558904D01*
X56186295Y-144654142D01*
X56138676Y-144701761D01*
X56043438Y-144749380D01*
X55805342Y-144749380D01*
X55710104Y-144701761D01*
X55662485Y-144654142D01*
G04 #@! TO.C,C6*
X54782333Y-158091142D02*
X54734714Y-158138761D01*
X54591857Y-158186380D01*
X54496619Y-158186380D01*
X54353761Y-158138761D01*
X54258523Y-158043523D01*
X54210904Y-157948285D01*
X54163285Y-157757809D01*
X54163285Y-157614952D01*
X54210904Y-157424476D01*
X54258523Y-157329238D01*
X54353761Y-157234000D01*
X54496619Y-157186380D01*
X54591857Y-157186380D01*
X54734714Y-157234000D01*
X54782333Y-157281619D01*
X55639476Y-157186380D02*
X55449000Y-157186380D01*
X55353761Y-157234000D01*
X55306142Y-157281619D01*
X55210904Y-157424476D01*
X55163285Y-157614952D01*
X55163285Y-157995904D01*
X55210904Y-158091142D01*
X55258523Y-158138761D01*
X55353761Y-158186380D01*
X55544238Y-158186380D01*
X55639476Y-158138761D01*
X55687095Y-158091142D01*
X55734714Y-157995904D01*
X55734714Y-157757809D01*
X55687095Y-157662571D01*
X55639476Y-157614952D01*
X55544238Y-157567333D01*
X55353761Y-157567333D01*
X55258523Y-157614952D01*
X55210904Y-157662571D01*
X55163285Y-157757809D01*
G04 #@! TO.C,D1*
X58237380Y-170282655D02*
X57237380Y-170282655D01*
X57237380Y-170044560D01*
X57285000Y-169901702D01*
X57380238Y-169806464D01*
X57475476Y-169758845D01*
X57665952Y-169711226D01*
X57808809Y-169711226D01*
X57999285Y-169758845D01*
X58094523Y-169806464D01*
X58189761Y-169901702D01*
X58237380Y-170044560D01*
X58237380Y-170282655D01*
X58237380Y-168758845D02*
X58237380Y-169330274D01*
X58237380Y-169044560D02*
X57237380Y-169044560D01*
X57380238Y-169139798D01*
X57475476Y-169235036D01*
X57523095Y-169330274D01*
G04 #@! TO.C,D2*
X54427380Y-170282655D02*
X53427380Y-170282655D01*
X53427380Y-170044560D01*
X53475000Y-169901702D01*
X53570238Y-169806464D01*
X53665476Y-169758845D01*
X53855952Y-169711226D01*
X53998809Y-169711226D01*
X54189285Y-169758845D01*
X54284523Y-169806464D01*
X54379761Y-169901702D01*
X54427380Y-170044560D01*
X54427380Y-170282655D01*
X53522619Y-169330274D02*
X53475000Y-169282655D01*
X53427380Y-169187417D01*
X53427380Y-168949321D01*
X53475000Y-168854083D01*
X53522619Y-168806464D01*
X53617857Y-168758845D01*
X53713095Y-168758845D01*
X53855952Y-168806464D01*
X54427380Y-169377893D01*
X54427380Y-168758845D01*
G04 #@! TO.C,D3*
X50617380Y-170282655D02*
X49617380Y-170282655D01*
X49617380Y-170044560D01*
X49665000Y-169901702D01*
X49760238Y-169806464D01*
X49855476Y-169758845D01*
X50045952Y-169711226D01*
X50188809Y-169711226D01*
X50379285Y-169758845D01*
X50474523Y-169806464D01*
X50569761Y-169901702D01*
X50617380Y-170044560D01*
X50617380Y-170282655D01*
X49617380Y-169377893D02*
X49617380Y-168758845D01*
X49998333Y-169092179D01*
X49998333Y-168949321D01*
X50045952Y-168854083D01*
X50093571Y-168806464D01*
X50188809Y-168758845D01*
X50426904Y-168758845D01*
X50522142Y-168806464D01*
X50569761Y-168854083D01*
X50617380Y-168949321D01*
X50617380Y-169235036D01*
X50569761Y-169330274D01*
X50522142Y-169377893D01*
G04 #@! TO.C,D4*
X46807380Y-170282655D02*
X45807380Y-170282655D01*
X45807380Y-170044560D01*
X45855000Y-169901702D01*
X45950238Y-169806464D01*
X46045476Y-169758845D01*
X46235952Y-169711226D01*
X46378809Y-169711226D01*
X46569285Y-169758845D01*
X46664523Y-169806464D01*
X46759761Y-169901702D01*
X46807380Y-170044560D01*
X46807380Y-170282655D01*
X46140714Y-168854083D02*
X46807380Y-168854083D01*
X45759761Y-169092179D02*
X46474047Y-169330274D01*
X46474047Y-168711226D01*
G04 #@! TO.C,IC2*
D13*
X54970438Y-162499523D02*
X54970438Y-161229523D01*
X56300914Y-162378571D02*
X56240438Y-162439047D01*
X56059009Y-162499523D01*
X55938057Y-162499523D01*
X55756628Y-162439047D01*
X55635676Y-162318095D01*
X55575200Y-162197142D01*
X55514723Y-161955238D01*
X55514723Y-161773809D01*
X55575200Y-161531904D01*
X55635676Y-161410952D01*
X55756628Y-161290000D01*
X55938057Y-161229523D01*
X56059009Y-161229523D01*
X56240438Y-161290000D01*
X56300914Y-161350476D01*
X56784723Y-161350476D02*
X56845200Y-161290000D01*
X56966152Y-161229523D01*
X57268533Y-161229523D01*
X57389485Y-161290000D01*
X57449961Y-161350476D01*
X57510438Y-161471428D01*
X57510438Y-161592380D01*
X57449961Y-161773809D01*
X56724247Y-162499523D01*
X57510438Y-162499523D01*
G04 #@! TO.C,J1*
D10*
X118832380Y-181943613D02*
X119546666Y-181943613D01*
X119689523Y-181991232D01*
X119784761Y-182086470D01*
X119832380Y-182229327D01*
X119832380Y-182324565D01*
X119832380Y-180943613D02*
X119832380Y-181515041D01*
X119832380Y-181229327D02*
X118832380Y-181229327D01*
X118975238Y-181324565D01*
X119070476Y-181419803D01*
X119118095Y-181515041D01*
G04 #@! TO.C,J2*
X128571666Y-181062380D02*
X128571666Y-181776666D01*
X128524047Y-181919523D01*
X128428809Y-182014761D01*
X128285952Y-182062380D01*
X128190714Y-182062380D01*
X129000238Y-181157619D02*
X129047857Y-181110000D01*
X129143095Y-181062380D01*
X129381190Y-181062380D01*
X129476428Y-181110000D01*
X129524047Y-181157619D01*
X129571666Y-181252857D01*
X129571666Y-181348095D01*
X129524047Y-181490952D01*
X128952619Y-182062380D01*
X129571666Y-182062380D01*
G04 #@! TO.C,J3*
X128571666Y-178522380D02*
X128571666Y-179236666D01*
X128524047Y-179379523D01*
X128428809Y-179474761D01*
X128285952Y-179522380D01*
X128190714Y-179522380D01*
X128952619Y-178522380D02*
X129571666Y-178522380D01*
X129238333Y-178903333D01*
X129381190Y-178903333D01*
X129476428Y-178950952D01*
X129524047Y-178998571D01*
X129571666Y-179093809D01*
X129571666Y-179331904D01*
X129524047Y-179427142D01*
X129476428Y-179474761D01*
X129381190Y-179522380D01*
X129095476Y-179522380D01*
X129000238Y-179474761D01*
X128952619Y-179427142D01*
G04 #@! TO.C,J4*
X134921666Y-181062380D02*
X134921666Y-181776666D01*
X134874047Y-181919523D01*
X134778809Y-182014761D01*
X134635952Y-182062380D01*
X134540714Y-182062380D01*
X135826428Y-181395714D02*
X135826428Y-182062380D01*
X135588333Y-181014761D02*
X135350238Y-181729047D01*
X135969285Y-181729047D01*
G04 #@! TO.C,J5*
X134921666Y-178522380D02*
X134921666Y-179236666D01*
X134874047Y-179379523D01*
X134778809Y-179474761D01*
X134635952Y-179522380D01*
X134540714Y-179522380D01*
X135874047Y-178522380D02*
X135397857Y-178522380D01*
X135350238Y-178998571D01*
X135397857Y-178950952D01*
X135493095Y-178903333D01*
X135731190Y-178903333D01*
X135826428Y-178950952D01*
X135874047Y-178998571D01*
X135921666Y-179093809D01*
X135921666Y-179331904D01*
X135874047Y-179427142D01*
X135826428Y-179474761D01*
X135731190Y-179522380D01*
X135493095Y-179522380D01*
X135397857Y-179474761D01*
X135350238Y-179427142D01*
G04 #@! TO.C,J6*
X146986666Y-173442380D02*
X146986666Y-174156666D01*
X146939047Y-174299523D01*
X146843809Y-174394761D01*
X146700952Y-174442380D01*
X146605714Y-174442380D01*
X147891428Y-173442380D02*
X147700952Y-173442380D01*
X147605714Y-173490000D01*
X147558095Y-173537619D01*
X147462857Y-173680476D01*
X147415238Y-173870952D01*
X147415238Y-174251904D01*
X147462857Y-174347142D01*
X147510476Y-174394761D01*
X147605714Y-174442380D01*
X147796190Y-174442380D01*
X147891428Y-174394761D01*
X147939047Y-174347142D01*
X147986666Y-174251904D01*
X147986666Y-174013809D01*
X147939047Y-173918571D01*
X147891428Y-173870952D01*
X147796190Y-173823333D01*
X147605714Y-173823333D01*
X147510476Y-173870952D01*
X147462857Y-173918571D01*
X147415238Y-174013809D01*
G04 #@! TO.C,J7*
X146986666Y-186142380D02*
X146986666Y-186856666D01*
X146939047Y-186999523D01*
X146843809Y-187094761D01*
X146700952Y-187142380D01*
X146605714Y-187142380D01*
X147367619Y-186142380D02*
X148034285Y-186142380D01*
X147605714Y-187142380D01*
G04 #@! TO.C,J8*
X146986666Y-178522380D02*
X146986666Y-179236666D01*
X146939047Y-179379523D01*
X146843809Y-179474761D01*
X146700952Y-179522380D01*
X146605714Y-179522380D01*
X147605714Y-178950952D02*
X147510476Y-178903333D01*
X147462857Y-178855714D01*
X147415238Y-178760476D01*
X147415238Y-178712857D01*
X147462857Y-178617619D01*
X147510476Y-178570000D01*
X147605714Y-178522380D01*
X147796190Y-178522380D01*
X147891428Y-178570000D01*
X147939047Y-178617619D01*
X147986666Y-178712857D01*
X147986666Y-178760476D01*
X147939047Y-178855714D01*
X147891428Y-178903333D01*
X147796190Y-178950952D01*
X147605714Y-178950952D01*
X147510476Y-178998571D01*
X147462857Y-179046190D01*
X147415238Y-179141428D01*
X147415238Y-179331904D01*
X147462857Y-179427142D01*
X147510476Y-179474761D01*
X147605714Y-179522380D01*
X147796190Y-179522380D01*
X147891428Y-179474761D01*
X147939047Y-179427142D01*
X147986666Y-179331904D01*
X147986666Y-179141428D01*
X147939047Y-179046190D01*
X147891428Y-178998571D01*
X147796190Y-178950952D01*
G04 #@! TO.C,J9*
X146986666Y-181062380D02*
X146986666Y-181776666D01*
X146939047Y-181919523D01*
X146843809Y-182014761D01*
X146700952Y-182062380D01*
X146605714Y-182062380D01*
X147510476Y-182062380D02*
X147700952Y-182062380D01*
X147796190Y-182014761D01*
X147843809Y-181967142D01*
X147939047Y-181824285D01*
X147986666Y-181633809D01*
X147986666Y-181252857D01*
X147939047Y-181157619D01*
X147891428Y-181110000D01*
X147796190Y-181062380D01*
X147605714Y-181062380D01*
X147510476Y-181110000D01*
X147462857Y-181157619D01*
X147415238Y-181252857D01*
X147415238Y-181490952D01*
X147462857Y-181586190D01*
X147510476Y-181633809D01*
X147605714Y-181681428D01*
X147796190Y-181681428D01*
X147891428Y-181633809D01*
X147939047Y-181586190D01*
X147986666Y-181490952D01*
G04 #@! TO.C,J10*
X146510476Y-175982380D02*
X146510476Y-176696666D01*
X146462857Y-176839523D01*
X146367619Y-176934761D01*
X146224761Y-176982380D01*
X146129523Y-176982380D01*
X147510476Y-176982380D02*
X146939047Y-176982380D01*
X147224761Y-176982380D02*
X147224761Y-175982380D01*
X147129523Y-176125238D01*
X147034285Y-176220476D01*
X146939047Y-176268095D01*
X148129523Y-175982380D02*
X148224761Y-175982380D01*
X148320000Y-176030000D01*
X148367619Y-176077619D01*
X148415238Y-176172857D01*
X148462857Y-176363333D01*
X148462857Y-176601428D01*
X148415238Y-176791904D01*
X148367619Y-176887142D01*
X148320000Y-176934761D01*
X148224761Y-176982380D01*
X148129523Y-176982380D01*
X148034285Y-176934761D01*
X147986666Y-176887142D01*
X147939047Y-176791904D01*
X147891428Y-176601428D01*
X147891428Y-176363333D01*
X147939047Y-176172857D01*
X147986666Y-176077619D01*
X148034285Y-176030000D01*
X148129523Y-175982380D01*
G04 #@! TO.C,J11*
X146510476Y-170902380D02*
X146510476Y-171616666D01*
X146462857Y-171759523D01*
X146367619Y-171854761D01*
X146224761Y-171902380D01*
X146129523Y-171902380D01*
X147510476Y-171902380D02*
X146939047Y-171902380D01*
X147224761Y-171902380D02*
X147224761Y-170902380D01*
X147129523Y-171045238D01*
X147034285Y-171140476D01*
X146939047Y-171188095D01*
X148462857Y-171902380D02*
X147891428Y-171902380D01*
X148177142Y-171902380D02*
X148177142Y-170902380D01*
X148081904Y-171045238D01*
X147986666Y-171140476D01*
X147891428Y-171188095D01*
G04 #@! TO.C,J12*
X146535476Y-183602380D02*
X146535476Y-184316666D01*
X146487857Y-184459523D01*
X146392619Y-184554761D01*
X146249761Y-184602380D01*
X146154523Y-184602380D01*
X147535476Y-184602380D02*
X146964047Y-184602380D01*
X147249761Y-184602380D02*
X147249761Y-183602380D01*
X147154523Y-183745238D01*
X147059285Y-183840476D01*
X146964047Y-183888095D01*
X147916428Y-183697619D02*
X147964047Y-183650000D01*
X148059285Y-183602380D01*
X148297380Y-183602380D01*
X148392619Y-183650000D01*
X148440238Y-183697619D01*
X148487857Y-183792857D01*
X148487857Y-183888095D01*
X148440238Y-184030952D01*
X147868809Y-184602380D01*
X148487857Y-184602380D01*
G04 #@! TO.C,J13*
X140160476Y-186142380D02*
X140160476Y-186856666D01*
X140112857Y-186999523D01*
X140017619Y-187094761D01*
X139874761Y-187142380D01*
X139779523Y-187142380D01*
X141160476Y-187142380D02*
X140589047Y-187142380D01*
X140874761Y-187142380D02*
X140874761Y-186142380D01*
X140779523Y-186285238D01*
X140684285Y-186380476D01*
X140589047Y-186428095D01*
X141493809Y-186142380D02*
X142112857Y-186142380D01*
X141779523Y-186523333D01*
X141922380Y-186523333D01*
X142017619Y-186570952D01*
X142065238Y-186618571D01*
X142112857Y-186713809D01*
X142112857Y-186951904D01*
X142065238Y-187047142D01*
X142017619Y-187094761D01*
X141922380Y-187142380D01*
X141636666Y-187142380D01*
X141541428Y-187094761D01*
X141493809Y-187047142D01*
G04 #@! TO.C,J14*
X140160476Y-183602380D02*
X140160476Y-184316666D01*
X140112857Y-184459523D01*
X140017619Y-184554761D01*
X139874761Y-184602380D01*
X139779523Y-184602380D01*
X141160476Y-184602380D02*
X140589047Y-184602380D01*
X140874761Y-184602380D02*
X140874761Y-183602380D01*
X140779523Y-183745238D01*
X140684285Y-183840476D01*
X140589047Y-183888095D01*
X142017619Y-183935714D02*
X142017619Y-184602380D01*
X141779523Y-183554761D02*
X141541428Y-184269047D01*
X142160476Y-184269047D01*
G04 #@! TO.C,J15*
X140160476Y-181062380D02*
X140160476Y-181776666D01*
X140112857Y-181919523D01*
X140017619Y-182014761D01*
X139874761Y-182062380D01*
X139779523Y-182062380D01*
X141160476Y-182062380D02*
X140589047Y-182062380D01*
X140874761Y-182062380D02*
X140874761Y-181062380D01*
X140779523Y-181205238D01*
X140684285Y-181300476D01*
X140589047Y-181348095D01*
X142065238Y-181062380D02*
X141589047Y-181062380D01*
X141541428Y-181538571D01*
X141589047Y-181490952D01*
X141684285Y-181443333D01*
X141922380Y-181443333D01*
X142017619Y-181490952D01*
X142065238Y-181538571D01*
X142112857Y-181633809D01*
X142112857Y-181871904D01*
X142065238Y-181967142D01*
X142017619Y-182014761D01*
X141922380Y-182062380D01*
X141684285Y-182062380D01*
X141589047Y-182014761D01*
X141541428Y-181967142D01*
G04 #@! TO.C,J16*
X140160476Y-178522380D02*
X140160476Y-179236666D01*
X140112857Y-179379523D01*
X140017619Y-179474761D01*
X139874761Y-179522380D01*
X139779523Y-179522380D01*
X141160476Y-179522380D02*
X140589047Y-179522380D01*
X140874761Y-179522380D02*
X140874761Y-178522380D01*
X140779523Y-178665238D01*
X140684285Y-178760476D01*
X140589047Y-178808095D01*
X142017619Y-178522380D02*
X141827142Y-178522380D01*
X141731904Y-178570000D01*
X141684285Y-178617619D01*
X141589047Y-178760476D01*
X141541428Y-178950952D01*
X141541428Y-179331904D01*
X141589047Y-179427142D01*
X141636666Y-179474761D01*
X141731904Y-179522380D01*
X141922380Y-179522380D01*
X142017619Y-179474761D01*
X142065238Y-179427142D01*
X142112857Y-179331904D01*
X142112857Y-179093809D01*
X142065238Y-178998571D01*
X142017619Y-178950952D01*
X141922380Y-178903333D01*
X141731904Y-178903333D01*
X141636666Y-178950952D01*
X141589047Y-178998571D01*
X141541428Y-179093809D01*
G04 #@! TO.C,J17*
X49355476Y-164552380D02*
X49355476Y-165266666D01*
X49307857Y-165409523D01*
X49212619Y-165504761D01*
X49069761Y-165552380D01*
X48974523Y-165552380D01*
X50355476Y-165552380D02*
X49784047Y-165552380D01*
X50069761Y-165552380D02*
X50069761Y-164552380D01*
X49974523Y-164695238D01*
X49879285Y-164790476D01*
X49784047Y-164838095D01*
X50688809Y-164552380D02*
X51355476Y-164552380D01*
X50926904Y-165552380D01*
G04 #@! TO.C,J18*
X49990476Y-166457380D02*
X49990476Y-167171666D01*
X49942857Y-167314523D01*
X49847619Y-167409761D01*
X49704761Y-167457380D01*
X49609523Y-167457380D01*
X50990476Y-167457380D02*
X50419047Y-167457380D01*
X50704761Y-167457380D02*
X50704761Y-166457380D01*
X50609523Y-166600238D01*
X50514285Y-166695476D01*
X50419047Y-166743095D01*
X51561904Y-166885952D02*
X51466666Y-166838333D01*
X51419047Y-166790714D01*
X51371428Y-166695476D01*
X51371428Y-166647857D01*
X51419047Y-166552619D01*
X51466666Y-166505000D01*
X51561904Y-166457380D01*
X51752380Y-166457380D01*
X51847619Y-166505000D01*
X51895238Y-166552619D01*
X51942857Y-166647857D01*
X51942857Y-166695476D01*
X51895238Y-166790714D01*
X51847619Y-166838333D01*
X51752380Y-166885952D01*
X51561904Y-166885952D01*
X51466666Y-166933571D01*
X51419047Y-166981190D01*
X51371428Y-167076428D01*
X51371428Y-167266904D01*
X51419047Y-167362142D01*
X51466666Y-167409761D01*
X51561904Y-167457380D01*
X51752380Y-167457380D01*
X51847619Y-167409761D01*
X51895238Y-167362142D01*
X51942857Y-167266904D01*
X51942857Y-167076428D01*
X51895238Y-166981190D01*
X51847619Y-166933571D01*
X51752380Y-166885952D01*
G04 #@! TO.C,J19*
X61547476Y-165187380D02*
X61547476Y-165901666D01*
X61499857Y-166044523D01*
X61404619Y-166139761D01*
X61261761Y-166187380D01*
X61166523Y-166187380D01*
X62547476Y-166187380D02*
X61976047Y-166187380D01*
X62261761Y-166187380D02*
X62261761Y-165187380D01*
X62166523Y-165330238D01*
X62071285Y-165425476D01*
X61976047Y-165473095D01*
X63023666Y-166187380D02*
X63214142Y-166187380D01*
X63309380Y-166139761D01*
X63357000Y-166092142D01*
X63452238Y-165949285D01*
X63499857Y-165758809D01*
X63499857Y-165377857D01*
X63452238Y-165282619D01*
X63404619Y-165235000D01*
X63309380Y-165187380D01*
X63118904Y-165187380D01*
X63023666Y-165235000D01*
X62976047Y-165282619D01*
X62928428Y-165377857D01*
X62928428Y-165615952D01*
X62976047Y-165711190D01*
X63023666Y-165758809D01*
X63118904Y-165806428D01*
X63309380Y-165806428D01*
X63404619Y-165758809D01*
X63452238Y-165711190D01*
X63499857Y-165615952D01*
G04 #@! TO.C,J20*
X60150476Y-166457380D02*
X60150476Y-167171666D01*
X60102857Y-167314523D01*
X60007619Y-167409761D01*
X59864761Y-167457380D01*
X59769523Y-167457380D01*
X60579047Y-166552619D02*
X60626666Y-166505000D01*
X60721904Y-166457380D01*
X60960000Y-166457380D01*
X61055238Y-166505000D01*
X61102857Y-166552619D01*
X61150476Y-166647857D01*
X61150476Y-166743095D01*
X61102857Y-166885952D01*
X60531428Y-167457380D01*
X61150476Y-167457380D01*
X61769523Y-166457380D02*
X61864761Y-166457380D01*
X61960000Y-166505000D01*
X62007619Y-166552619D01*
X62055238Y-166647857D01*
X62102857Y-166838333D01*
X62102857Y-167076428D01*
X62055238Y-167266904D01*
X62007619Y-167362142D01*
X61960000Y-167409761D01*
X61864761Y-167457380D01*
X61769523Y-167457380D01*
X61674285Y-167409761D01*
X61626666Y-167362142D01*
X61579047Y-167266904D01*
X61531428Y-167076428D01*
X61531428Y-166838333D01*
X61579047Y-166647857D01*
X61626666Y-166552619D01*
X61674285Y-166505000D01*
X61769523Y-166457380D01*
G04 #@! TO.C,J21*
X81105476Y-132802380D02*
X81105476Y-133516666D01*
X81057857Y-133659523D01*
X80962619Y-133754761D01*
X80819761Y-133802380D01*
X80724523Y-133802380D01*
X81534047Y-132897619D02*
X81581666Y-132850000D01*
X81676904Y-132802380D01*
X81915000Y-132802380D01*
X82010238Y-132850000D01*
X82057857Y-132897619D01*
X82105476Y-132992857D01*
X82105476Y-133088095D01*
X82057857Y-133230952D01*
X81486428Y-133802380D01*
X82105476Y-133802380D01*
X83057857Y-133802380D02*
X82486428Y-133802380D01*
X82772142Y-133802380D02*
X82772142Y-132802380D01*
X82676904Y-132945238D01*
X82581666Y-133040476D01*
X82486428Y-133088095D01*
G04 #@! TO.C,R1*
X93380780Y-174318466D02*
X92904590Y-174651800D01*
X93380780Y-174889895D02*
X92380780Y-174889895D01*
X92380780Y-174508942D01*
X92428400Y-174413704D01*
X92476019Y-174366085D01*
X92571257Y-174318466D01*
X92714114Y-174318466D01*
X92809352Y-174366085D01*
X92856971Y-174413704D01*
X92904590Y-174508942D01*
X92904590Y-174889895D01*
X93380780Y-173366085D02*
X93380780Y-173937514D01*
X93380780Y-173651800D02*
X92380780Y-173651800D01*
X92523638Y-173747038D01*
X92618876Y-173842276D01*
X92666495Y-173937514D01*
G04 #@! TO.C,R2*
X46188333Y-150947380D02*
X45855000Y-150471190D01*
X45616904Y-150947380D02*
X45616904Y-149947380D01*
X45997857Y-149947380D01*
X46093095Y-149995000D01*
X46140714Y-150042619D01*
X46188333Y-150137857D01*
X46188333Y-150280714D01*
X46140714Y-150375952D01*
X46093095Y-150423571D01*
X45997857Y-150471190D01*
X45616904Y-150471190D01*
X46569285Y-150042619D02*
X46616904Y-149995000D01*
X46712142Y-149947380D01*
X46950238Y-149947380D01*
X47045476Y-149995000D01*
X47093095Y-150042619D01*
X47140714Y-150137857D01*
X47140714Y-150233095D01*
X47093095Y-150375952D01*
X46521666Y-150947380D01*
X47140714Y-150947380D01*
G04 #@! TO.C,R3*
X97886780Y-174309066D02*
X97410590Y-174642400D01*
X97886780Y-174880495D02*
X96886780Y-174880495D01*
X96886780Y-174499542D01*
X96934400Y-174404304D01*
X96982019Y-174356685D01*
X97077257Y-174309066D01*
X97220114Y-174309066D01*
X97315352Y-174356685D01*
X97362971Y-174404304D01*
X97410590Y-174499542D01*
X97410590Y-174880495D01*
X96886780Y-173975733D02*
X96886780Y-173356685D01*
X97267733Y-173690019D01*
X97267733Y-173547161D01*
X97315352Y-173451923D01*
X97362971Y-173404304D01*
X97458209Y-173356685D01*
X97696304Y-173356685D01*
X97791542Y-173404304D01*
X97839161Y-173451923D01*
X97886780Y-173547161D01*
X97886780Y-173832876D01*
X97839161Y-173928114D01*
X97791542Y-173975733D01*
G04 #@! TO.C,R4*
X67067133Y-151607780D02*
X66733800Y-151131590D01*
X66495704Y-151607780D02*
X66495704Y-150607780D01*
X66876657Y-150607780D01*
X66971895Y-150655400D01*
X67019514Y-150703019D01*
X67067133Y-150798257D01*
X67067133Y-150941114D01*
X67019514Y-151036352D01*
X66971895Y-151083971D01*
X66876657Y-151131590D01*
X66495704Y-151131590D01*
X67924276Y-150941114D02*
X67924276Y-151607780D01*
X67686180Y-150560161D02*
X67448085Y-151274447D01*
X68067133Y-151274447D01*
G04 #@! TO.C,R5*
X67143333Y-161742380D02*
X66810000Y-161266190D01*
X66571904Y-161742380D02*
X66571904Y-160742380D01*
X66952857Y-160742380D01*
X67048095Y-160790000D01*
X67095714Y-160837619D01*
X67143333Y-160932857D01*
X67143333Y-161075714D01*
X67095714Y-161170952D01*
X67048095Y-161218571D01*
X66952857Y-161266190D01*
X66571904Y-161266190D01*
X68048095Y-160742380D02*
X67571904Y-160742380D01*
X67524285Y-161218571D01*
X67571904Y-161170952D01*
X67667142Y-161123333D01*
X67905238Y-161123333D01*
X68000476Y-161170952D01*
X68048095Y-161218571D01*
X68095714Y-161313809D01*
X68095714Y-161551904D01*
X68048095Y-161647142D01*
X68000476Y-161694761D01*
X67905238Y-161742380D01*
X67667142Y-161742380D01*
X67571904Y-161694761D01*
X67524285Y-161647142D01*
G04 #@! TO.C,R6*
X95666780Y-174309066D02*
X95190590Y-174642400D01*
X95666780Y-174880495D02*
X94666780Y-174880495D01*
X94666780Y-174499542D01*
X94714400Y-174404304D01*
X94762019Y-174356685D01*
X94857257Y-174309066D01*
X95000114Y-174309066D01*
X95095352Y-174356685D01*
X95142971Y-174404304D01*
X95190590Y-174499542D01*
X95190590Y-174880495D01*
X94666780Y-173451923D02*
X94666780Y-173642400D01*
X94714400Y-173737638D01*
X94762019Y-173785257D01*
X94904876Y-173880495D01*
X95095352Y-173928114D01*
X95476304Y-173928114D01*
X95571542Y-173880495D01*
X95619161Y-173832876D01*
X95666780Y-173737638D01*
X95666780Y-173547161D01*
X95619161Y-173451923D01*
X95571542Y-173404304D01*
X95476304Y-173356685D01*
X95238209Y-173356685D01*
X95142971Y-173404304D01*
X95095352Y-173451923D01*
X95047733Y-173547161D01*
X95047733Y-173737638D01*
X95095352Y-173832876D01*
X95142971Y-173880495D01*
X95238209Y-173928114D01*
G04 #@! TO.C,R7*
X55317380Y-153471666D02*
X54841190Y-153805000D01*
X55317380Y-154043095D02*
X54317380Y-154043095D01*
X54317380Y-153662142D01*
X54365000Y-153566904D01*
X54412619Y-153519285D01*
X54507857Y-153471666D01*
X54650714Y-153471666D01*
X54745952Y-153519285D01*
X54793571Y-153566904D01*
X54841190Y-153662142D01*
X54841190Y-154043095D01*
X54317380Y-153138333D02*
X54317380Y-152471666D01*
X55317380Y-152900238D01*
G04 #@! TO.C,R8*
X45283333Y-161107380D02*
X44950000Y-160631190D01*
X44711904Y-161107380D02*
X44711904Y-160107380D01*
X45092857Y-160107380D01*
X45188095Y-160155000D01*
X45235714Y-160202619D01*
X45283333Y-160297857D01*
X45283333Y-160440714D01*
X45235714Y-160535952D01*
X45188095Y-160583571D01*
X45092857Y-160631190D01*
X44711904Y-160631190D01*
X45854761Y-160535952D02*
X45759523Y-160488333D01*
X45711904Y-160440714D01*
X45664285Y-160345476D01*
X45664285Y-160297857D01*
X45711904Y-160202619D01*
X45759523Y-160155000D01*
X45854761Y-160107380D01*
X46045238Y-160107380D01*
X46140476Y-160155000D01*
X46188095Y-160202619D01*
X46235714Y-160297857D01*
X46235714Y-160345476D01*
X46188095Y-160440714D01*
X46140476Y-160488333D01*
X46045238Y-160535952D01*
X45854761Y-160535952D01*
X45759523Y-160583571D01*
X45711904Y-160631190D01*
X45664285Y-160726428D01*
X45664285Y-160916904D01*
X45711904Y-161012142D01*
X45759523Y-161059761D01*
X45854761Y-161107380D01*
X46045238Y-161107380D01*
X46140476Y-161059761D01*
X46188095Y-161012142D01*
X46235714Y-160916904D01*
X46235714Y-160726428D01*
X46188095Y-160631190D01*
X46140476Y-160583571D01*
X46045238Y-160535952D01*
G04 #@! TO.C,R9*
X107437380Y-174410266D02*
X106961190Y-174743600D01*
X107437380Y-174981695D02*
X106437380Y-174981695D01*
X106437380Y-174600742D01*
X106485000Y-174505504D01*
X106532619Y-174457885D01*
X106627857Y-174410266D01*
X106770714Y-174410266D01*
X106865952Y-174457885D01*
X106913571Y-174505504D01*
X106961190Y-174600742D01*
X106961190Y-174981695D01*
X107437380Y-173934076D02*
X107437380Y-173743600D01*
X107389761Y-173648361D01*
X107342142Y-173600742D01*
X107199285Y-173505504D01*
X107008809Y-173457885D01*
X106627857Y-173457885D01*
X106532619Y-173505504D01*
X106485000Y-173553123D01*
X106437380Y-173648361D01*
X106437380Y-173838838D01*
X106485000Y-173934076D01*
X106532619Y-173981695D01*
X106627857Y-174029314D01*
X106865952Y-174029314D01*
X106961190Y-173981695D01*
X107008809Y-173934076D01*
X107056428Y-173838838D01*
X107056428Y-173648361D01*
X107008809Y-173553123D01*
X106961190Y-173505504D01*
X106865952Y-173457885D01*
G04 #@! TO.C,R11*
X66635142Y-148635980D02*
X66301809Y-148159790D01*
X66063714Y-148635980D02*
X66063714Y-147635980D01*
X66444666Y-147635980D01*
X66539904Y-147683600D01*
X66587523Y-147731219D01*
X66635142Y-147826457D01*
X66635142Y-147969314D01*
X66587523Y-148064552D01*
X66539904Y-148112171D01*
X66444666Y-148159790D01*
X66063714Y-148159790D01*
X67587523Y-148635980D02*
X67016095Y-148635980D01*
X67301809Y-148635980D02*
X67301809Y-147635980D01*
X67206571Y-147778838D01*
X67111333Y-147874076D01*
X67016095Y-147921695D01*
X68539904Y-148635980D02*
X67968476Y-148635980D01*
X68254190Y-148635980D02*
X68254190Y-147635980D01*
X68158952Y-147778838D01*
X68063714Y-147874076D01*
X67968476Y-147921695D01*
G04 #@! TO.C,R12*
X109926780Y-174429257D02*
X109450590Y-174762590D01*
X109926780Y-175000685D02*
X108926780Y-175000685D01*
X108926780Y-174619733D01*
X108974400Y-174524495D01*
X109022019Y-174476876D01*
X109117257Y-174429257D01*
X109260114Y-174429257D01*
X109355352Y-174476876D01*
X109402971Y-174524495D01*
X109450590Y-174619733D01*
X109450590Y-175000685D01*
X109926780Y-173476876D02*
X109926780Y-174048304D01*
X109926780Y-173762590D02*
X108926780Y-173762590D01*
X109069638Y-173857828D01*
X109164876Y-173953066D01*
X109212495Y-174048304D01*
X109022019Y-173095923D02*
X108974400Y-173048304D01*
X108926780Y-172953066D01*
X108926780Y-172714971D01*
X108974400Y-172619733D01*
X109022019Y-172572114D01*
X109117257Y-172524495D01*
X109212495Y-172524495D01*
X109355352Y-172572114D01*
X109926780Y-173143542D01*
X109926780Y-172524495D01*
G04 #@! TO.C,R13*
X45077142Y-148407380D02*
X44743809Y-147931190D01*
X44505714Y-148407380D02*
X44505714Y-147407380D01*
X44886666Y-147407380D01*
X44981904Y-147455000D01*
X45029523Y-147502619D01*
X45077142Y-147597857D01*
X45077142Y-147740714D01*
X45029523Y-147835952D01*
X44981904Y-147883571D01*
X44886666Y-147931190D01*
X44505714Y-147931190D01*
X46029523Y-148407380D02*
X45458095Y-148407380D01*
X45743809Y-148407380D02*
X45743809Y-147407380D01*
X45648571Y-147550238D01*
X45553333Y-147645476D01*
X45458095Y-147693095D01*
X46362857Y-147407380D02*
X46981904Y-147407380D01*
X46648571Y-147788333D01*
X46791428Y-147788333D01*
X46886666Y-147835952D01*
X46934285Y-147883571D01*
X46981904Y-147978809D01*
X46981904Y-148216904D01*
X46934285Y-148312142D01*
X46886666Y-148359761D01*
X46791428Y-148407380D01*
X46505714Y-148407380D01*
X46410476Y-148359761D01*
X46362857Y-148312142D01*
G04 #@! TO.C,R14*
X64279542Y-102671380D02*
X63946209Y-102195190D01*
X63708114Y-102671380D02*
X63708114Y-101671380D01*
X64089066Y-101671380D01*
X64184304Y-101719000D01*
X64231923Y-101766619D01*
X64279542Y-101861857D01*
X64279542Y-102004714D01*
X64231923Y-102099952D01*
X64184304Y-102147571D01*
X64089066Y-102195190D01*
X63708114Y-102195190D01*
X65231923Y-102671380D02*
X64660495Y-102671380D01*
X64946209Y-102671380D02*
X64946209Y-101671380D01*
X64850971Y-101814238D01*
X64755733Y-101909476D01*
X64660495Y-101957095D01*
X66089066Y-102004714D02*
X66089066Y-102671380D01*
X65850971Y-101623761D02*
X65612876Y-102338047D01*
X66231923Y-102338047D01*
G04 #@! TO.C,R15*
X68673742Y-102687380D02*
X68340409Y-102211190D01*
X68102314Y-102687380D02*
X68102314Y-101687380D01*
X68483266Y-101687380D01*
X68578504Y-101735000D01*
X68626123Y-101782619D01*
X68673742Y-101877857D01*
X68673742Y-102020714D01*
X68626123Y-102115952D01*
X68578504Y-102163571D01*
X68483266Y-102211190D01*
X68102314Y-102211190D01*
X69626123Y-102687380D02*
X69054695Y-102687380D01*
X69340409Y-102687380D02*
X69340409Y-101687380D01*
X69245171Y-101830238D01*
X69149933Y-101925476D01*
X69054695Y-101973095D01*
X70530885Y-101687380D02*
X70054695Y-101687380D01*
X70007076Y-102163571D01*
X70054695Y-102115952D01*
X70149933Y-102068333D01*
X70388028Y-102068333D01*
X70483266Y-102115952D01*
X70530885Y-102163571D01*
X70578504Y-102258809D01*
X70578504Y-102496904D01*
X70530885Y-102592142D01*
X70483266Y-102639761D01*
X70388028Y-102687380D01*
X70149933Y-102687380D01*
X70054695Y-102639761D01*
X70007076Y-102592142D01*
G04 #@! TO.C,R16*
X71797942Y-102703380D02*
X71464609Y-102227190D01*
X71226514Y-102703380D02*
X71226514Y-101703380D01*
X71607466Y-101703380D01*
X71702704Y-101751000D01*
X71750323Y-101798619D01*
X71797942Y-101893857D01*
X71797942Y-102036714D01*
X71750323Y-102131952D01*
X71702704Y-102179571D01*
X71607466Y-102227190D01*
X71226514Y-102227190D01*
X72750323Y-102703380D02*
X72178895Y-102703380D01*
X72464609Y-102703380D02*
X72464609Y-101703380D01*
X72369371Y-101846238D01*
X72274133Y-101941476D01*
X72178895Y-101989095D01*
X73607466Y-101703380D02*
X73416990Y-101703380D01*
X73321752Y-101751000D01*
X73274133Y-101798619D01*
X73178895Y-101941476D01*
X73131276Y-102131952D01*
X73131276Y-102512904D01*
X73178895Y-102608142D01*
X73226514Y-102655761D01*
X73321752Y-102703380D01*
X73512228Y-102703380D01*
X73607466Y-102655761D01*
X73655085Y-102608142D01*
X73702704Y-102512904D01*
X73702704Y-102274809D01*
X73655085Y-102179571D01*
X73607466Y-102131952D01*
X73512228Y-102084333D01*
X73321752Y-102084333D01*
X73226514Y-102131952D01*
X73178895Y-102179571D01*
X73131276Y-102274809D01*
G04 #@! TO.C,R17*
X74795142Y-102668580D02*
X74461809Y-102192390D01*
X74223714Y-102668580D02*
X74223714Y-101668580D01*
X74604666Y-101668580D01*
X74699904Y-101716200D01*
X74747523Y-101763819D01*
X74795142Y-101859057D01*
X74795142Y-102001914D01*
X74747523Y-102097152D01*
X74699904Y-102144771D01*
X74604666Y-102192390D01*
X74223714Y-102192390D01*
X75747523Y-102668580D02*
X75176095Y-102668580D01*
X75461809Y-102668580D02*
X75461809Y-101668580D01*
X75366571Y-101811438D01*
X75271333Y-101906676D01*
X75176095Y-101954295D01*
X76080857Y-101668580D02*
X76747523Y-101668580D01*
X76318952Y-102668580D01*
G04 #@! TO.C,R18*
X70130942Y-90976980D02*
X69797609Y-90500790D01*
X69559514Y-90976980D02*
X69559514Y-89976980D01*
X69940466Y-89976980D01*
X70035704Y-90024600D01*
X70083323Y-90072219D01*
X70130942Y-90167457D01*
X70130942Y-90310314D01*
X70083323Y-90405552D01*
X70035704Y-90453171D01*
X69940466Y-90500790D01*
X69559514Y-90500790D01*
X71083323Y-90976980D02*
X70511895Y-90976980D01*
X70797609Y-90976980D02*
X70797609Y-89976980D01*
X70702371Y-90119838D01*
X70607133Y-90215076D01*
X70511895Y-90262695D01*
X71654752Y-90405552D02*
X71559514Y-90357933D01*
X71511895Y-90310314D01*
X71464276Y-90215076D01*
X71464276Y-90167457D01*
X71511895Y-90072219D01*
X71559514Y-90024600D01*
X71654752Y-89976980D01*
X71845228Y-89976980D01*
X71940466Y-90024600D01*
X71988085Y-90072219D01*
X72035704Y-90167457D01*
X72035704Y-90215076D01*
X71988085Y-90310314D01*
X71940466Y-90357933D01*
X71845228Y-90405552D01*
X71654752Y-90405552D01*
X71559514Y-90453171D01*
X71511895Y-90500790D01*
X71464276Y-90596028D01*
X71464276Y-90786504D01*
X71511895Y-90881742D01*
X71559514Y-90929361D01*
X71654752Y-90976980D01*
X71845228Y-90976980D01*
X71940466Y-90929361D01*
X71988085Y-90881742D01*
X72035704Y-90786504D01*
X72035704Y-90596028D01*
X71988085Y-90500790D01*
X71940466Y-90453171D01*
X71845228Y-90405552D01*
G04 #@! TO.C,R19*
X66770780Y-88476057D02*
X66294590Y-88809390D01*
X66770780Y-89047485D02*
X65770780Y-89047485D01*
X65770780Y-88666533D01*
X65818400Y-88571295D01*
X65866019Y-88523676D01*
X65961257Y-88476057D01*
X66104114Y-88476057D01*
X66199352Y-88523676D01*
X66246971Y-88571295D01*
X66294590Y-88666533D01*
X66294590Y-89047485D01*
X66770780Y-87523676D02*
X66770780Y-88095104D01*
X66770780Y-87809390D02*
X65770780Y-87809390D01*
X65913638Y-87904628D01*
X66008876Y-87999866D01*
X66056495Y-88095104D01*
X66770780Y-87047485D02*
X66770780Y-86857009D01*
X66723161Y-86761771D01*
X66675542Y-86714152D01*
X66532685Y-86618914D01*
X66342209Y-86571295D01*
X65961257Y-86571295D01*
X65866019Y-86618914D01*
X65818400Y-86666533D01*
X65770780Y-86761771D01*
X65770780Y-86952247D01*
X65818400Y-87047485D01*
X65866019Y-87095104D01*
X65961257Y-87142723D01*
X66199352Y-87142723D01*
X66294590Y-87095104D01*
X66342209Y-87047485D01*
X66389828Y-86952247D01*
X66389828Y-86761771D01*
X66342209Y-86666533D01*
X66294590Y-86618914D01*
X66199352Y-86571295D01*
G04 #@! TO.C,R20*
X56332380Y-179077417D02*
X55856190Y-179410750D01*
X56332380Y-179648845D02*
X55332380Y-179648845D01*
X55332380Y-179267893D01*
X55380000Y-179172655D01*
X55427619Y-179125036D01*
X55522857Y-179077417D01*
X55665714Y-179077417D01*
X55760952Y-179125036D01*
X55808571Y-179172655D01*
X55856190Y-179267893D01*
X55856190Y-179648845D01*
X55427619Y-178696464D02*
X55380000Y-178648845D01*
X55332380Y-178553607D01*
X55332380Y-178315512D01*
X55380000Y-178220274D01*
X55427619Y-178172655D01*
X55522857Y-178125036D01*
X55618095Y-178125036D01*
X55760952Y-178172655D01*
X56332380Y-178744083D01*
X56332380Y-178125036D01*
X55332380Y-177505988D02*
X55332380Y-177410750D01*
X55380000Y-177315512D01*
X55427619Y-177267893D01*
X55522857Y-177220274D01*
X55713333Y-177172655D01*
X55951428Y-177172655D01*
X56141904Y-177220274D01*
X56237142Y-177267893D01*
X56284761Y-177315512D01*
X56332380Y-177410750D01*
X56332380Y-177505988D01*
X56284761Y-177601226D01*
X56237142Y-177648845D01*
X56141904Y-177696464D01*
X55951428Y-177744083D01*
X55713333Y-177744083D01*
X55522857Y-177696464D01*
X55427619Y-177648845D01*
X55380000Y-177601226D01*
X55332380Y-177505988D01*
G04 #@! TO.C,R21*
X52522380Y-179077417D02*
X52046190Y-179410750D01*
X52522380Y-179648845D02*
X51522380Y-179648845D01*
X51522380Y-179267893D01*
X51570000Y-179172655D01*
X51617619Y-179125036D01*
X51712857Y-179077417D01*
X51855714Y-179077417D01*
X51950952Y-179125036D01*
X51998571Y-179172655D01*
X52046190Y-179267893D01*
X52046190Y-179648845D01*
X51617619Y-178696464D02*
X51570000Y-178648845D01*
X51522380Y-178553607D01*
X51522380Y-178315512D01*
X51570000Y-178220274D01*
X51617619Y-178172655D01*
X51712857Y-178125036D01*
X51808095Y-178125036D01*
X51950952Y-178172655D01*
X52522380Y-178744083D01*
X52522380Y-178125036D01*
X52522380Y-177172655D02*
X52522380Y-177744083D01*
X52522380Y-177458369D02*
X51522380Y-177458369D01*
X51665238Y-177553607D01*
X51760476Y-177648845D01*
X51808095Y-177744083D01*
G04 #@! TO.C,R22*
X48712380Y-179077417D02*
X48236190Y-179410750D01*
X48712380Y-179648845D02*
X47712380Y-179648845D01*
X47712380Y-179267893D01*
X47760000Y-179172655D01*
X47807619Y-179125036D01*
X47902857Y-179077417D01*
X48045714Y-179077417D01*
X48140952Y-179125036D01*
X48188571Y-179172655D01*
X48236190Y-179267893D01*
X48236190Y-179648845D01*
X47807619Y-178696464D02*
X47760000Y-178648845D01*
X47712380Y-178553607D01*
X47712380Y-178315512D01*
X47760000Y-178220274D01*
X47807619Y-178172655D01*
X47902857Y-178125036D01*
X47998095Y-178125036D01*
X48140952Y-178172655D01*
X48712380Y-178744083D01*
X48712380Y-178125036D01*
X47807619Y-177744083D02*
X47760000Y-177696464D01*
X47712380Y-177601226D01*
X47712380Y-177363131D01*
X47760000Y-177267893D01*
X47807619Y-177220274D01*
X47902857Y-177172655D01*
X47998095Y-177172655D01*
X48140952Y-177220274D01*
X48712380Y-177791702D01*
X48712380Y-177172655D01*
G04 #@! TO.C,R23*
X44902380Y-179077417D02*
X44426190Y-179410750D01*
X44902380Y-179648845D02*
X43902380Y-179648845D01*
X43902380Y-179267893D01*
X43950000Y-179172655D01*
X43997619Y-179125036D01*
X44092857Y-179077417D01*
X44235714Y-179077417D01*
X44330952Y-179125036D01*
X44378571Y-179172655D01*
X44426190Y-179267893D01*
X44426190Y-179648845D01*
X43997619Y-178696464D02*
X43950000Y-178648845D01*
X43902380Y-178553607D01*
X43902380Y-178315512D01*
X43950000Y-178220274D01*
X43997619Y-178172655D01*
X44092857Y-178125036D01*
X44188095Y-178125036D01*
X44330952Y-178172655D01*
X44902380Y-178744083D01*
X44902380Y-178125036D01*
X43902380Y-177791702D02*
X43902380Y-177172655D01*
X44283333Y-177505988D01*
X44283333Y-177363131D01*
X44330952Y-177267893D01*
X44378571Y-177220274D01*
X44473809Y-177172655D01*
X44711904Y-177172655D01*
X44807142Y-177220274D01*
X44854761Y-177267893D01*
X44902380Y-177363131D01*
X44902380Y-177648845D01*
X44854761Y-177744083D01*
X44807142Y-177791702D01*
G04 #@! TO.C,R24*
X87081580Y-174201057D02*
X86605390Y-174534390D01*
X87081580Y-174772485D02*
X86081580Y-174772485D01*
X86081580Y-174391533D01*
X86129200Y-174296295D01*
X86176819Y-174248676D01*
X86272057Y-174201057D01*
X86414914Y-174201057D01*
X86510152Y-174248676D01*
X86557771Y-174296295D01*
X86605390Y-174391533D01*
X86605390Y-174772485D01*
X86176819Y-173820104D02*
X86129200Y-173772485D01*
X86081580Y-173677247D01*
X86081580Y-173439152D01*
X86129200Y-173343914D01*
X86176819Y-173296295D01*
X86272057Y-173248676D01*
X86367295Y-173248676D01*
X86510152Y-173296295D01*
X87081580Y-173867723D01*
X87081580Y-173248676D01*
X86414914Y-172391533D02*
X87081580Y-172391533D01*
X86033961Y-172629628D02*
X86748247Y-172867723D01*
X86748247Y-172248676D01*
G04 #@! TO.C,R25*
X84744780Y-174201057D02*
X84268590Y-174534390D01*
X84744780Y-174772485D02*
X83744780Y-174772485D01*
X83744780Y-174391533D01*
X83792400Y-174296295D01*
X83840019Y-174248676D01*
X83935257Y-174201057D01*
X84078114Y-174201057D01*
X84173352Y-174248676D01*
X84220971Y-174296295D01*
X84268590Y-174391533D01*
X84268590Y-174772485D01*
X83840019Y-173820104D02*
X83792400Y-173772485D01*
X83744780Y-173677247D01*
X83744780Y-173439152D01*
X83792400Y-173343914D01*
X83840019Y-173296295D01*
X83935257Y-173248676D01*
X84030495Y-173248676D01*
X84173352Y-173296295D01*
X84744780Y-173867723D01*
X84744780Y-173248676D01*
X83744780Y-172343914D02*
X83744780Y-172820104D01*
X84220971Y-172867723D01*
X84173352Y-172820104D01*
X84125733Y-172724866D01*
X84125733Y-172486771D01*
X84173352Y-172391533D01*
X84220971Y-172343914D01*
X84316209Y-172296295D01*
X84554304Y-172296295D01*
X84649542Y-172343914D01*
X84697161Y-172391533D01*
X84744780Y-172486771D01*
X84744780Y-172724866D01*
X84697161Y-172820104D01*
X84649542Y-172867723D01*
G04 #@! TO.C,R26*
X46125142Y-165552380D02*
X45791809Y-165076190D01*
X45553714Y-165552380D02*
X45553714Y-164552380D01*
X45934666Y-164552380D01*
X46029904Y-164600000D01*
X46077523Y-164647619D01*
X46125142Y-164742857D01*
X46125142Y-164885714D01*
X46077523Y-164980952D01*
X46029904Y-165028571D01*
X45934666Y-165076190D01*
X45553714Y-165076190D01*
X46506095Y-164647619D02*
X46553714Y-164600000D01*
X46648952Y-164552380D01*
X46887047Y-164552380D01*
X46982285Y-164600000D01*
X47029904Y-164647619D01*
X47077523Y-164742857D01*
X47077523Y-164838095D01*
X47029904Y-164980952D01*
X46458476Y-165552380D01*
X47077523Y-165552380D01*
X47934666Y-164552380D02*
X47744190Y-164552380D01*
X47648952Y-164600000D01*
X47601333Y-164647619D01*
X47506095Y-164790476D01*
X47458476Y-164980952D01*
X47458476Y-165361904D01*
X47506095Y-165457142D01*
X47553714Y-165504761D01*
X47648952Y-165552380D01*
X47839428Y-165552380D01*
X47934666Y-165504761D01*
X47982285Y-165457142D01*
X48029904Y-165361904D01*
X48029904Y-165123809D01*
X47982285Y-165028571D01*
X47934666Y-164980952D01*
X47839428Y-164933333D01*
X47648952Y-164933333D01*
X47553714Y-164980952D01*
X47506095Y-165028571D01*
X47458476Y-165123809D01*
G04 #@! TO.C,R27*
X69715142Y-164409380D02*
X69381809Y-163933190D01*
X69143714Y-164409380D02*
X69143714Y-163409380D01*
X69524666Y-163409380D01*
X69619904Y-163457000D01*
X69667523Y-163504619D01*
X69715142Y-163599857D01*
X69715142Y-163742714D01*
X69667523Y-163837952D01*
X69619904Y-163885571D01*
X69524666Y-163933190D01*
X69143714Y-163933190D01*
X70096095Y-163504619D02*
X70143714Y-163457000D01*
X70238952Y-163409380D01*
X70477047Y-163409380D01*
X70572285Y-163457000D01*
X70619904Y-163504619D01*
X70667523Y-163599857D01*
X70667523Y-163695095D01*
X70619904Y-163837952D01*
X70048476Y-164409380D01*
X70667523Y-164409380D01*
X71000857Y-163409380D02*
X71667523Y-163409380D01*
X71238952Y-164409380D01*
G04 #@! TO.C,U1*
X101628095Y-83488480D02*
X101628095Y-84298004D01*
X101675714Y-84393242D01*
X101723333Y-84440861D01*
X101818571Y-84488480D01*
X102009047Y-84488480D01*
X102104285Y-84440861D01*
X102151904Y-84393242D01*
X102199523Y-84298004D01*
X102199523Y-83488480D01*
X103199523Y-84488480D02*
X102628095Y-84488480D01*
X102913809Y-84488480D02*
X102913809Y-83488480D01*
X102818571Y-83631338D01*
X102723333Y-83726576D01*
X102628095Y-83774195D01*
G04 #@! TO.C,U2*
X59480780Y-94259304D02*
X60290304Y-94259304D01*
X60385542Y-94211685D01*
X60433161Y-94164066D01*
X60480780Y-94068828D01*
X60480780Y-93878352D01*
X60433161Y-93783114D01*
X60385542Y-93735495D01*
X60290304Y-93687876D01*
X59480780Y-93687876D01*
X59576019Y-93259304D02*
X59528400Y-93211685D01*
X59480780Y-93116447D01*
X59480780Y-92878352D01*
X59528400Y-92783114D01*
X59576019Y-92735495D01*
X59671257Y-92687876D01*
X59766495Y-92687876D01*
X59909352Y-92735495D01*
X60480780Y-93306923D01*
X60480780Y-92687876D01*
G04 #@! TO.C,U4*
X88529295Y-83488480D02*
X88529295Y-84298004D01*
X88576914Y-84393242D01*
X88624533Y-84440861D01*
X88719771Y-84488480D01*
X88910247Y-84488480D01*
X89005485Y-84440861D01*
X89053104Y-84393242D01*
X89100723Y-84298004D01*
X89100723Y-83488480D01*
X90005485Y-83821814D02*
X90005485Y-84488480D01*
X89767390Y-83440861D02*
X89529295Y-84155147D01*
X90148342Y-84155147D01*
G04 #@! TO.C,U5*
X101628095Y-130368380D02*
X101628095Y-131177904D01*
X101675714Y-131273142D01*
X101723333Y-131320761D01*
X101818571Y-131368380D01*
X102009047Y-131368380D01*
X102104285Y-131320761D01*
X102151904Y-131273142D01*
X102199523Y-131177904D01*
X102199523Y-130368380D01*
X103151904Y-130368380D02*
X102675714Y-130368380D01*
X102628095Y-130844571D01*
X102675714Y-130796952D01*
X102770952Y-130749333D01*
X103009047Y-130749333D01*
X103104285Y-130796952D01*
X103151904Y-130844571D01*
X103199523Y-130939809D01*
X103199523Y-131177904D01*
X103151904Y-131273142D01*
X103104285Y-131320761D01*
X103009047Y-131368380D01*
X102770952Y-131368380D01*
X102675714Y-131320761D01*
X102628095Y-131273142D01*
G04 #@! TO.C,U7*
X88536895Y-130363380D02*
X88536895Y-131172904D01*
X88584514Y-131268142D01*
X88632133Y-131315761D01*
X88727371Y-131363380D01*
X88917847Y-131363380D01*
X89013085Y-131315761D01*
X89060704Y-131268142D01*
X89108323Y-131172904D01*
X89108323Y-130363380D01*
X89489276Y-130363380D02*
X90155942Y-130363380D01*
X89727371Y-131363380D01*
G04 #@! TO.C,D5*
X43711904Y-187142380D02*
X43711904Y-186142380D01*
X43950000Y-186142380D01*
X44092857Y-186190000D01*
X44188095Y-186285238D01*
X44235714Y-186380476D01*
X44283333Y-186570952D01*
X44283333Y-186713809D01*
X44235714Y-186904285D01*
X44188095Y-186999523D01*
X44092857Y-187094761D01*
X43950000Y-187142380D01*
X43711904Y-187142380D01*
X45188095Y-186142380D02*
X44711904Y-186142380D01*
X44664285Y-186618571D01*
X44711904Y-186570952D01*
X44807142Y-186523333D01*
X45045238Y-186523333D01*
X45140476Y-186570952D01*
X45188095Y-186618571D01*
X45235714Y-186713809D01*
X45235714Y-186951904D01*
X45188095Y-187047142D01*
X45140476Y-187094761D01*
X45045238Y-187142380D01*
X44807142Y-187142380D01*
X44711904Y-187094761D01*
X44664285Y-187047142D01*
G04 #@! TO.C,D6*
X43775404Y-183142380D02*
X43775404Y-182142380D01*
X44013500Y-182142380D01*
X44156357Y-182190000D01*
X44251595Y-182285238D01*
X44299214Y-182380476D01*
X44346833Y-182570952D01*
X44346833Y-182713809D01*
X44299214Y-182904285D01*
X44251595Y-182999523D01*
X44156357Y-183094761D01*
X44013500Y-183142380D01*
X43775404Y-183142380D01*
X45203976Y-182142380D02*
X45013500Y-182142380D01*
X44918261Y-182190000D01*
X44870642Y-182237619D01*
X44775404Y-182380476D01*
X44727785Y-182570952D01*
X44727785Y-182951904D01*
X44775404Y-183047142D01*
X44823023Y-183094761D01*
X44918261Y-183142380D01*
X45108738Y-183142380D01*
X45203976Y-183094761D01*
X45251595Y-183047142D01*
X45299214Y-182951904D01*
X45299214Y-182713809D01*
X45251595Y-182618571D01*
X45203976Y-182570952D01*
X45108738Y-182523333D01*
X44918261Y-182523333D01*
X44823023Y-182570952D01*
X44775404Y-182618571D01*
X44727785Y-182713809D01*
G04 #@! TO.C,D7*
X78812380Y-83999295D02*
X77812380Y-83999295D01*
X77812380Y-83761200D01*
X77860000Y-83618342D01*
X77955238Y-83523104D01*
X78050476Y-83475485D01*
X78240952Y-83427866D01*
X78383809Y-83427866D01*
X78574285Y-83475485D01*
X78669523Y-83523104D01*
X78764761Y-83618342D01*
X78812380Y-83761200D01*
X78812380Y-83999295D01*
X77812380Y-83094533D02*
X77812380Y-82427866D01*
X78812380Y-82856438D01*
G04 #@! TO.C,D8*
X80082380Y-130033095D02*
X79082380Y-130033095D01*
X79082380Y-129795000D01*
X79130000Y-129652142D01*
X79225238Y-129556904D01*
X79320476Y-129509285D01*
X79510952Y-129461666D01*
X79653809Y-129461666D01*
X79844285Y-129509285D01*
X79939523Y-129556904D01*
X80034761Y-129652142D01*
X80082380Y-129795000D01*
X80082380Y-130033095D01*
X79510952Y-128890238D02*
X79463333Y-128985476D01*
X79415714Y-129033095D01*
X79320476Y-129080714D01*
X79272857Y-129080714D01*
X79177619Y-129033095D01*
X79130000Y-128985476D01*
X79082380Y-128890238D01*
X79082380Y-128699761D01*
X79130000Y-128604523D01*
X79177619Y-128556904D01*
X79272857Y-128509285D01*
X79320476Y-128509285D01*
X79415714Y-128556904D01*
X79463333Y-128604523D01*
X79510952Y-128699761D01*
X79510952Y-128890238D01*
X79558571Y-128985476D01*
X79606190Y-129033095D01*
X79701428Y-129080714D01*
X79891904Y-129080714D01*
X79987142Y-129033095D01*
X80034761Y-128985476D01*
X80082380Y-128890238D01*
X80082380Y-128699761D01*
X80034761Y-128604523D01*
X79987142Y-128556904D01*
X79891904Y-128509285D01*
X79701428Y-128509285D01*
X79606190Y-128556904D01*
X79558571Y-128604523D01*
X79510952Y-128699761D01*
G04 #@! TO.C,R28*
X55846742Y-187142380D02*
X55513409Y-186666190D01*
X55275314Y-187142380D02*
X55275314Y-186142380D01*
X55656266Y-186142380D01*
X55751504Y-186190000D01*
X55799123Y-186237619D01*
X55846742Y-186332857D01*
X55846742Y-186475714D01*
X55799123Y-186570952D01*
X55751504Y-186618571D01*
X55656266Y-186666190D01*
X55275314Y-186666190D01*
X56227695Y-186237619D02*
X56275314Y-186190000D01*
X56370552Y-186142380D01*
X56608647Y-186142380D01*
X56703885Y-186190000D01*
X56751504Y-186237619D01*
X56799123Y-186332857D01*
X56799123Y-186428095D01*
X56751504Y-186570952D01*
X56180076Y-187142380D01*
X56799123Y-187142380D01*
X57370552Y-186570952D02*
X57275314Y-186523333D01*
X57227695Y-186475714D01*
X57180076Y-186380476D01*
X57180076Y-186332857D01*
X57227695Y-186237619D01*
X57275314Y-186190000D01*
X57370552Y-186142380D01*
X57561028Y-186142380D01*
X57656266Y-186190000D01*
X57703885Y-186237619D01*
X57751504Y-186332857D01*
X57751504Y-186380476D01*
X57703885Y-186475714D01*
X57656266Y-186523333D01*
X57561028Y-186570952D01*
X57370552Y-186570952D01*
X57275314Y-186618571D01*
X57227695Y-186666190D01*
X57180076Y-186761428D01*
X57180076Y-186951904D01*
X57227695Y-187047142D01*
X57275314Y-187094761D01*
X57370552Y-187142380D01*
X57561028Y-187142380D01*
X57656266Y-187094761D01*
X57703885Y-187047142D01*
X57751504Y-186951904D01*
X57751504Y-186761428D01*
X57703885Y-186666190D01*
X57656266Y-186618571D01*
X57561028Y-186570952D01*
G04 #@! TO.C,R29*
X55910242Y-183142380D02*
X55576909Y-182666190D01*
X55338814Y-183142380D02*
X55338814Y-182142380D01*
X55719766Y-182142380D01*
X55815004Y-182190000D01*
X55862623Y-182237619D01*
X55910242Y-182332857D01*
X55910242Y-182475714D01*
X55862623Y-182570952D01*
X55815004Y-182618571D01*
X55719766Y-182666190D01*
X55338814Y-182666190D01*
X56291195Y-182237619D02*
X56338814Y-182190000D01*
X56434052Y-182142380D01*
X56672147Y-182142380D01*
X56767385Y-182190000D01*
X56815004Y-182237619D01*
X56862623Y-182332857D01*
X56862623Y-182428095D01*
X56815004Y-182570952D01*
X56243576Y-183142380D01*
X56862623Y-183142380D01*
X57338814Y-183142380D02*
X57529290Y-183142380D01*
X57624528Y-183094761D01*
X57672147Y-183047142D01*
X57767385Y-182904285D01*
X57815004Y-182713809D01*
X57815004Y-182332857D01*
X57767385Y-182237619D01*
X57719766Y-182190000D01*
X57624528Y-182142380D01*
X57434052Y-182142380D01*
X57338814Y-182190000D01*
X57291195Y-182237619D01*
X57243576Y-182332857D01*
X57243576Y-182570952D01*
X57291195Y-182666190D01*
X57338814Y-182713809D01*
X57434052Y-182761428D01*
X57624528Y-182761428D01*
X57719766Y-182713809D01*
X57767385Y-182666190D01*
X57815004Y-182570952D01*
G04 #@! TO.C,R30*
X82825580Y-83888057D02*
X82349390Y-84221390D01*
X82825580Y-84459485D02*
X81825580Y-84459485D01*
X81825580Y-84078533D01*
X81873200Y-83983295D01*
X81920819Y-83935676D01*
X82016057Y-83888057D01*
X82158914Y-83888057D01*
X82254152Y-83935676D01*
X82301771Y-83983295D01*
X82349390Y-84078533D01*
X82349390Y-84459485D01*
X81825580Y-83554723D02*
X81825580Y-82935676D01*
X82206533Y-83269009D01*
X82206533Y-83126152D01*
X82254152Y-83030914D01*
X82301771Y-82983295D01*
X82397009Y-82935676D01*
X82635104Y-82935676D01*
X82730342Y-82983295D01*
X82777961Y-83030914D01*
X82825580Y-83126152D01*
X82825580Y-83411866D01*
X82777961Y-83507104D01*
X82730342Y-83554723D01*
X81825580Y-82316628D02*
X81825580Y-82221390D01*
X81873200Y-82126152D01*
X81920819Y-82078533D01*
X82016057Y-82030914D01*
X82206533Y-81983295D01*
X82444628Y-81983295D01*
X82635104Y-82030914D01*
X82730342Y-82078533D01*
X82777961Y-82126152D01*
X82825580Y-82221390D01*
X82825580Y-82316628D01*
X82777961Y-82411866D01*
X82730342Y-82459485D01*
X82635104Y-82507104D01*
X82444628Y-82554723D01*
X82206533Y-82554723D01*
X82016057Y-82507104D01*
X81920819Y-82459485D01*
X81873200Y-82411866D01*
X81825580Y-82316628D01*
G04 #@! TO.C,R31*
X83892380Y-129877857D02*
X83416190Y-130211190D01*
X83892380Y-130449285D02*
X82892380Y-130449285D01*
X82892380Y-130068333D01*
X82940000Y-129973095D01*
X82987619Y-129925476D01*
X83082857Y-129877857D01*
X83225714Y-129877857D01*
X83320952Y-129925476D01*
X83368571Y-129973095D01*
X83416190Y-130068333D01*
X83416190Y-130449285D01*
X82892380Y-129544523D02*
X82892380Y-128925476D01*
X83273333Y-129258809D01*
X83273333Y-129115952D01*
X83320952Y-129020714D01*
X83368571Y-128973095D01*
X83463809Y-128925476D01*
X83701904Y-128925476D01*
X83797142Y-128973095D01*
X83844761Y-129020714D01*
X83892380Y-129115952D01*
X83892380Y-129401666D01*
X83844761Y-129496904D01*
X83797142Y-129544523D01*
X83892380Y-127973095D02*
X83892380Y-128544523D01*
X83892380Y-128258809D02*
X82892380Y-128258809D01*
X83035238Y-128354047D01*
X83130476Y-128449285D01*
X83178095Y-128544523D01*
G04 #@! TO.C,J22*
X58372476Y-103468380D02*
X58372476Y-104182666D01*
X58324857Y-104325523D01*
X58229619Y-104420761D01*
X58086761Y-104468380D01*
X57991523Y-104468380D01*
X58801047Y-103563619D02*
X58848666Y-103516000D01*
X58943904Y-103468380D01*
X59182000Y-103468380D01*
X59277238Y-103516000D01*
X59324857Y-103563619D01*
X59372476Y-103658857D01*
X59372476Y-103754095D01*
X59324857Y-103896952D01*
X58753428Y-104468380D01*
X59372476Y-104468380D01*
X59753428Y-103563619D02*
X59801047Y-103516000D01*
X59896285Y-103468380D01*
X60134380Y-103468380D01*
X60229619Y-103516000D01*
X60277238Y-103563619D01*
X60324857Y-103658857D01*
X60324857Y-103754095D01*
X60277238Y-103896952D01*
X59705809Y-104468380D01*
X60324857Y-104468380D01*
G04 #@! TO.C,J23*
X64468476Y-173572380D02*
X64468476Y-174286666D01*
X64420857Y-174429523D01*
X64325619Y-174524761D01*
X64182761Y-174572380D01*
X64087523Y-174572380D01*
X64897047Y-173667619D02*
X64944666Y-173620000D01*
X65039904Y-173572380D01*
X65278000Y-173572380D01*
X65373238Y-173620000D01*
X65420857Y-173667619D01*
X65468476Y-173762857D01*
X65468476Y-173858095D01*
X65420857Y-174000952D01*
X64849428Y-174572380D01*
X65468476Y-174572380D01*
X65801809Y-173572380D02*
X66420857Y-173572380D01*
X66087523Y-173953333D01*
X66230380Y-173953333D01*
X66325619Y-174000952D01*
X66373238Y-174048571D01*
X66420857Y-174143809D01*
X66420857Y-174381904D01*
X66373238Y-174477142D01*
X66325619Y-174524761D01*
X66230380Y-174572380D01*
X65944666Y-174572380D01*
X65849428Y-174524761D01*
X65801809Y-174477142D01*
G04 #@! TO.C,J24*
X156162476Y-75274380D02*
X156162476Y-75988666D01*
X156114857Y-76131523D01*
X156019619Y-76226761D01*
X155876761Y-76274380D01*
X155781523Y-76274380D01*
X156591047Y-75369619D02*
X156638666Y-75322000D01*
X156733904Y-75274380D01*
X156972000Y-75274380D01*
X157067238Y-75322000D01*
X157114857Y-75369619D01*
X157162476Y-75464857D01*
X157162476Y-75560095D01*
X157114857Y-75702952D01*
X156543428Y-76274380D01*
X157162476Y-76274380D01*
X158019619Y-75607714D02*
X158019619Y-76274380D01*
X157781523Y-75226761D02*
X157543428Y-75941047D01*
X158162476Y-75941047D01*
G04 #@! TO.C,J25*
X154384476Y-172048380D02*
X154384476Y-172762666D01*
X154336857Y-172905523D01*
X154241619Y-173000761D01*
X154098761Y-173048380D01*
X154003523Y-173048380D01*
X154813047Y-172143619D02*
X154860666Y-172096000D01*
X154955904Y-172048380D01*
X155194000Y-172048380D01*
X155289238Y-172096000D01*
X155336857Y-172143619D01*
X155384476Y-172238857D01*
X155384476Y-172334095D01*
X155336857Y-172476952D01*
X154765428Y-173048380D01*
X155384476Y-173048380D01*
X156289238Y-172048380D02*
X155813047Y-172048380D01*
X155765428Y-172524571D01*
X155813047Y-172476952D01*
X155908285Y-172429333D01*
X156146380Y-172429333D01*
X156241619Y-172476952D01*
X156289238Y-172524571D01*
X156336857Y-172619809D01*
X156336857Y-172857904D01*
X156289238Y-172953142D01*
X156241619Y-173000761D01*
X156146380Y-173048380D01*
X155908285Y-173048380D01*
X155813047Y-173000761D01*
X155765428Y-172953142D01*
G04 #@! TD*
M02*
